<svg id="Grupo_996347" data-name="Grupo 996347" xmlns="http://www.w3.org/2000/svg" xmlns:xlink="http://www.w3.org/1999/xlink" width="57.438" height="56.527" viewBox="0 0 57.438 56.527">
  <defs>
    <clipPath id="clip-path">
      <rect id="Rectángulo_313026" data-name="Rectángulo 313026" width="57.438" height="56.527" fill="none"/>
    </clipPath>
  </defs>
  <g id="Grupo_996346" data-name="Grupo 996346" clip-path="url(#clip-path)">
    <path id="Trazado_660628" data-name="Trazado 660628" d="M44.662,40.04c.309,0,.5.231.72.394A8.957,8.957,0,0,1,48.43,50.642c-.036.1-.076.208-.136.369a11.464,11.464,0,0,1,2.338-.1,7.515,7.515,0,0,1,5.7,11.355.815.815,0,0,0,0,1.02,6.375,6.375,0,0,1,.068,7.073,1.1,1.1,0,0,0-.132.929,7.047,7.047,0,0,1-12.459,5.947c-.272-.361-.406-.36-.7-.062A6.024,6.024,0,0,0,41.5,81.064c-.151,1.733-.05,3.471-.072,5.207-.013,1.007-.3,1.3-1.3,1.3q-2.017,0-4.035,0c-.954,0-1.267-.314-1.269-1.282,0-2.334.009-4.668,0-7A4.665,4.665,0,0,0,31.2,74.529a6.222,6.222,0,0,0-1.5-.142c-3.624,0-7.247.014-10.871,0a6.552,6.552,0,0,1-6.573-6.8,15.7,15.7,0,0,1,.225-1.641c-1.292,0-2.579,0-3.865,0a8.465,8.465,0,0,1-.765-16.9c.509-.028.633-.176.644-.673a7.793,7.793,0,0,1,2.761-5.892c.15-.132.284-.306.515-.309A7.542,7.542,0,0,0,12.8,43.545c-.089.268-.349.378-.531.558a5.88,5.88,0,0,0-1.372,2,1.03,1.03,0,0,0,.168.04q1.289,0,2.578.006c1.466,0,1.45,0,1.444,1.458,0,.395-.148.452-.487.448-1.158-.017-2.317-.007-3.475-.007-.821,0-.847.049-.735.844.042.3.215.327.437.4a5.765,5.765,0,0,1,2.621,1.371c-.3.39-.6.774-.884,1.174-.124.175-.243.255-.438.125a6,6,0,0,0-3.4-1.124,6.576,6.576,0,0,0-1.658,13,5.685,5.685,0,0,0,1.221.146c1.483.013,2.966,0,4.473,0-.074-.206-.21-.159-.307-.188a6.9,6.9,0,0,1-2.924-1.691c-.2-.2-.256-.324,0-.521A9.314,9.314,0,0,0,10.4,60.8c.186-.189.307-.177.5,0a4.621,4.621,0,0,0,5.336.857c.217-.1.342-.084.456.112a3.41,3.41,0,0,0,.469.921c.114.219.292.42.133.689-.119.161-.317.181-.48.262A4.662,4.662,0,0,0,19.128,72.5c3.586.01,7.172,0,10.758.008a7.46,7.46,0,0,1,1.448.113,6.536,6.536,0,0,1,5.374,6.51c.02,2.035.012,4.07,0,6.105,0,.337.077.461.433.444.634-.029,1.271-.031,1.9,0,.384.019.506-.086.5-.487-.015-1.381-.062-2.765.053-4.143a7.5,7.5,0,0,1,2.223-5.222,1.575,1.575,0,0,0,.636-1.858c-.279-.957-.186-.985.791-.985a3.94,3.94,0,0,0,.56,0c.381-.055.458.124.486.47a5.155,5.155,0,0,0,10.08,1,3.768,3.768,0,0,0,.134-2.086c-.426.211-.8.426-1.193.583a7.263,7.263,0,0,1-1.227.376c-1.264.256-1.266.245-1.266-1.025a1.875,1.875,0,0,0,0-.28c-.055-.362.1-.45.455-.485a4.7,4.7,0,0,0,.7-9.233c-.382-.1-.931.061-1.114-.3a2.964,2.964,0,0,1-.042-1.214.387.387,0,0,0,0-.056c-.057-.371.084-.486.465-.447a6.456,6.456,0,0,1,2.948.963c.334.218.446.12.612-.178a5.63,5.63,0,0,0-7.278-7.807c-.469.217-.606.371-.336.917A7.511,7.511,0,0,1,41.5,64.925c-1.016.142-1.016.142-1.016-.853a3.1,3.1,0,0,0,0-.448c-.059-.4.071-.536.5-.57A5.542,5.542,0,0,0,45.893,59.1,5.645,5.645,0,0,0,44.07,53.09c-.626-.512-.626-.512-.209-1.231.52-.9.542-.922,1.32-.23.354.315.484.2.7-.121a7.042,7.042,0,0,0-.83-8.849c-.4-.406-.862-.758-1.3-1.134a7.859,7.859,0,0,0,.907-1.486" transform="translate(0 -31.047)" fill="#040303"/>
    <path id="Trazado_660629" data-name="Trazado 660629" d="M77.324,26.278a11.356,11.356,0,0,1,17.349-1.859c.136.125.275.247.413.37l1.222,1.6A12.079,12.079,0,0,1,98,31.139a11.272,11.272,0,0,1-6.037,11.372.716.716,0,0,0-.474.754c.032,1.063.009,2.127.01,3.191a.909.909,0,0,1-.576.989c-.355.106-.388.3-.42.6a3.739,3.739,0,0,1-4.227,3.23,3.838,3.838,0,0,1-3.157-2.736c-.1-.341.1-.812-.335-1a1.086,1.086,0,0,1-.717-.9c.006-1.119-.007-2.239.029-3.358a.721.721,0,0,0-.472-.754,11.1,11.1,0,0,1-6.055-8.79,11.545,11.545,0,0,1,.86-5.8l.9-1.654M89.6,38.09c0,.822,0,1.643,0,2.464,0,.13-.085.38.109.373.447-.015.881.182,1.349-.06a9.393,9.393,0,1,0-9.058-.281,2.1,2.1,0,0,0,1.445.4c.426-.06.514-.17.508-.564-.022-1.363-.009-2.726-.009-4.088,0-.99,0-.985-.977-1.013a2.824,2.824,0,0,1-2.293-4.41,2.825,2.825,0,0,1,5.15,1.8c-.005.562.112.823.717.726.363-.059.827.148,1.079-.082.233-.213.056-.67.082-1.019a2.832,2.832,0,1,1,3.39,2.94,3.723,3.723,0,0,1-1,.044c-.38-.029-.522.07-.5.48.035.764.01,1.531.01,2.3m-2.857,7.572c.82,0,1.641-.007,2.461,0,.261,0,.413-.027.4-.353-.023-.707-.016-1.416,0-2.124.005-.261-.071-.357-.345-.355q-2.461.016-4.922,0c-.3,0-.387.1-.381.385.015.689.017,1.379,0,2.069-.008.295.091.387.383.381.8-.016,1.6-.006,2.4-.005m-.906-7.545v1.454c0,1.423,0,1.412,1.434,1.4.336,0,.448-.079.442-.433-.022-1.267-.009-2.535-.009-3.8,0-1.458,0-1.442-1.453-1.425-.372,0-.427.144-.42.459.017.782.006,1.566.006,2.348m.906,9.427c-.5,0-1.006,0-1.509,0-.207,0-.356.008-.329.295a1.925,1.925,0,0,0,1.826,1.6,1.9,1.9,0,0,0,1.883-1.513c.045-.321-.08-.387-.361-.38-.5.013-1.006,0-1.509,0m-3.42-14.114c.181-.08.544.158.6-.155a1.677,1.677,0,0,0-.177-1.34.876.876,0,0,0-.994-.318.848.848,0,0,0-.662.8.889.889,0,0,0,.5.913,1.646,1.646,0,0,0,.734.1m6.837,0c.881,0,1.334-.352,1.315-.95a.925.925,0,0,0-.949-.893c-.631.007-.887.43-.943,1.3-.037.58.243.6.577.539" transform="translate(-58.53 -16.436)" fill="#030202"/>
    <path id="Trazado_660630" data-name="Trazado 660630" d="M59.436,42.16l-.9,1.654a6.985,6.985,0,0,0-3.08.094,19.029,19.029,0,0,0-2.017.908,7.54,7.54,0,0,1-1.027-1.385A6.374,6.374,0,0,1,55.2,42.025c.149-.045.357.016.384-.229.142.077.288.15.428.232.977.574.976.575,1.568-.348.572.338,1.271.188,1.855.48" transform="translate(-40.642 -32.319)" fill="#db8599"/>
    <path id="Trazado_660631" data-name="Trazado 660631" d="M155.71,1.787c-.045.08-.089.161-.136.241-.67,1.161-1.349,2.317-2,3.486-.153.272-.282.272-.516.117a7.522,7.522,0,0,0-.968-.556c-.331-.154-.3-.318-.138-.591.648-1.087,1.286-2.181,1.9-3.287.18-.325.325-.444.665-.2.3.217.641.377.962.565.094.055.209.093.235.222" transform="translate(-117.729 -0.674)" fill="#070504"/>
    <path id="Trazado_660632" data-name="Trazado 660632" d="M86.536,5.051A.73.73,0,0,1,86.4,5.2c-.432.256-.868.506-1.3.758-.2.118-.257-.052-.329-.176-.689-1.192-1.374-2.387-2.07-3.575-.111-.19-.075-.264.1-.388,1.342-.932,1.339-.938,2.139.45q.7,1.209,1.392,2.42l.208.359" transform="translate(-64.073 -0.906)" fill="#070504"/>
    <path id="Trazado_660633" data-name="Trazado 660633" d="M123.383,1.5c0,.037,0,.075,0,.112-.035.42.2,1.036-.095,1.217-.427.266-1.046.066-1.583.082-.158,0-.231-.077-.23-.242q.006-1.172,0-2.345c0-.19.074-.275.263-.262.056,0,.112,0,.168,0,.478.031,1.108-.206,1.39.1.24.258.088.88.109,1.34h-.02" transform="translate(-94.192 0)" fill="#070504"/>
    <path id="Trazado_660634" data-name="Trazado 660634" d="M65.287,34.748c-.592.923-.591.923-1.568.348-.14-.082-.285-.155-.428-.232-.329-.207-.857-.362-.931-.637s.348-.652.5-1.008c.221-.532.486-.62.969-.268a9.717,9.717,0,0,0,1.4.809c.38.19.484.4.19.742a1.189,1.189,0,0,0-.128.246" transform="translate(-48.348 -25.387)" fill="#070504"/>
    <path id="Trazado_660635" data-name="Trazado 660635" d="M176.492,33.007a1.091,1.091,0,0,0,.287-.137c.423-.389.65-.146.837.246a.1.1,0,0,0,.1.117l0,0a2.66,2.66,0,0,0,.237.491c.268.354.265.593-.19.785a6.5,6.5,0,0,0-.848.513c-.067.031-.136.056-.2.092-.9.5-.9.5-1.456-.311a1.019,1.019,0,0,0-.11-.249c-.314-.386-.27-.646.21-.865a11.284,11.284,0,0,0,1.136-.678" transform="translate(-135.653 -25.335)" fill="#060303"/>
    <path id="Trazado_660636" data-name="Trazado 660636" d="M167.044,33.9a11.283,11.283,0,0,1-1.136.678c-.48.219-.524.479-.21.865a1.02,1.02,0,0,1,.11.249,4.61,4.61,0,0,0-1.825.485l-1.222-1.6a7.3,7.3,0,0,1,4.283-.681" transform="translate(-126.206 -26.225)" fill="#db8599"/>
    <path id="Trazado_660637" data-name="Trazado 660637" d="M183.7,36.938a6.539,6.539,0,0,1,.848-.513c.455-.192.458-.431.19-.785a2.662,2.662,0,0,1-.237-.491,5.038,5.038,0,0,1,2.6,1.1,7.836,7.836,0,0,1-.907,1.486c-.2-.082-.413-.152-.61-.249a3.828,3.828,0,0,0-1.887-.547" transform="translate(-142.445 -27.256)" fill="#da8498"/>
    <path id="Trazado_660638" data-name="Trazado 660638" d="M186.938,34.761a.1.1,0,0,1-.1-.117c.063.014.107.044.1.117" transform="translate(-144.876 -26.863)" fill="#da8498"/>
    <path id="Trazado_660639" data-name="Trazado 660639" d="M90.112,42.357A3.829,3.829,0,0,1,92,42.9c.2.1.406.167.61.249.433.377.891.729,1.295,1.134a7.042,7.042,0,0,1,.83,8.849c-.215.32-.345.435-.7.121-.778-.692-.8-.667-1.32.23-.417.719-.417.719.209,1.231a5.645,5.645,0,0,1,1.823,6.007,5.542,5.542,0,0,1-4.914,3.957c-.428.034-.557.175-.5.57a3.1,3.1,0,0,1,0,.448c0,.995,0,.995,1.016.853a7.51,7.51,0,0,0,5.73-10.743c-.27-.547-.133-.7.336-.917A5.63,5.63,0,0,1,103.7,62.7c-.166.3-.278.4-.612.178a6.455,6.455,0,0,0-2.948-.963c-.381-.038-.522.076-.465.447a.419.419,0,0,1,0,.056,2.965,2.965,0,0,0,.041,1.214c.183.359.732.2,1.114.3a4.7,4.7,0,0,1-.7,9.233c-.36.035-.51.124-.455.485a1.846,1.846,0,0,1,0,.28c0,1.27,0,1.281,1.266,1.025a7.256,7.256,0,0,0,1.227-.376c.4-.157.768-.372,1.193-.583a3.766,3.766,0,0,1-.134,2.086,5.155,5.155,0,0,1-10.08-1c-.028-.346-.1-.525-.486-.47a3.941,3.941,0,0,1-.56,0c-.977,0-1.07.027-.791.985a1.574,1.574,0,0,1-.636,1.858,7.5,7.5,0,0,0-2.223,5.222c-.115,1.379-.068,2.762-.053,4.143,0,.4-.117.506-.5.487-.633-.031-1.271-.029-1.9,0-.356.016-.435-.107-.433-.444.015-2.035.023-4.071,0-6.105a6.536,6.536,0,0,0-5.374-6.51,7.459,7.459,0,0,0-1.448-.113c-3.586-.009-7.172,0-10.758-.008a4.662,4.662,0,0,1-2.313-8.864c.163-.081.361-.1.48-.262a7.229,7.229,0,0,1,2.287-.23c.145.007.3.02.4-.125h.212c.137.181.335.124.513.124,1.293,0,2.586,0,3.878,0a3.838,3.838,0,0,0,3.157,2.736,3.738,3.738,0,0,0,4.227-3.229c.031-.3.065-.49.42-.6a.909.909,0,0,0,.576-.989c0-1.064.022-2.128-.01-3.191a.716.716,0,0,1,.474-.754,11.272,11.272,0,0,0,6.037-11.372,12.079,12.079,0,0,0-1.688-4.754,4.614,4.614,0,0,1,1.825-.485c.559.812.559.812,1.456.311.064-.036.133-.062.2-.092M67.7,69.421c0,.957,0,.957.96.957,3.491,0,6.983-.041,10.473.015a9.185,9.185,0,0,1,7.469,3.87c.255.336.372.952.732.975.375.025.765-.408,1.174-.581s.39-.366.174-.7a11.182,11.182,0,0,0-9.806-5.463c-3.416-.042-6.833-.009-10.25-.009-.927,0-.927,0-.927.937m31.981-1.88a1.842,1.842,0,0,1,0-.28c.081-.53-.065-.7-.656-.61a4.776,4.776,0,0,0-4.033,4.2c-.048.39.077.5.441.466a5.931,5.931,0,0,1,.952,0c.336.027.466-.067.528-.433a2.584,2.584,0,0,1,2.1-2.272c.6-.125.766-.362.672-.9a1.022,1.022,0,0,1,0-.168M86.815,63.669c-.052-.093-.106-.191-.162-.288-.476-.823-.945-1.649-1.43-2.466-.236-.4-.36-1.035-.744-1.124-.41-.1-.822.418-1.257.62-.276.128-.336.263-.165.549.679,1.136,1.331,2.286,1.995,3.431a.687.687,0,0,0,.156.227,4.177,4.177,0,0,0,1.607-.948m5.838-13.99h.894c1.495,0,1.485,0,1.441-1.493-.009-.315-.1-.418-.416-.412-.95.018-1.9.006-2.849.006-1.547,0-1.538,0-1.473,1.529.013.3.111.381.392.375.67-.015,1.341,0,2.011,0m-1.271,6.348c-.014-.179-.129-.217-.223-.272-.3-.177-.612-.351-.916-.527-1.339-.776-1.334-.774-2.048.625-.1.2-.144.3.092.434.667.365,1.32.756,1.977,1.138.081.047.193.127.248.042.307-.484.595-.98.871-1.44" transform="translate(-48.853 -32.674)" fill="#ee9db1"/>
    <path id="Trazado_660640" data-name="Trazado 660640" d="M19.347,51.746a19.089,19.089,0,0,1,2.016-.908,6.985,6.985,0,0,1,3.08-.094,11.545,11.545,0,0,0-.86,5.8,11.1,11.1,0,0,0,6.055,8.79.721.721,0,0,1,.473.754c-.037,1.118-.023,2.239-.03,3.358-.389,0-.781.028-1.168,0-.355-.029-.742.15-1.063-.138.158-.293.32-.584.473-.88.211-.409.71-.828.6-1.2-.12-.4-.772-.5-1.161-.781-.289-.208-.425-.12-.589.174-.535.955-1.1,1.89-1.66,2.833a3.925,3.925,0,0,0-2.271.523c-.114-.2-.239-.209-.456-.111A4.621,4.621,0,0,1,17.449,69c-.2-.174-.317-.186-.5,0a9.38,9.38,0,0,1-.875.785c-.251.2-.194.325,0,.521A6.9,6.9,0,0,0,19,72c.1.029.233-.017.307.188-1.507,0-2.99.008-4.473,0a5.669,5.669,0,0,1-1.221-.146,6.576,6.576,0,0,1,1.658-13,6,6,0,0,1,3.4,1.125,7.282,7.282,0,0,0,.274,5.111c.386.884.451.915,1.237.4a1.774,1.774,0,0,1,.327-.212c.455-.171.461-.434.249-.826a4.451,4.451,0,0,1-.25-3.882c.353-.873.376-1.448-.515-1.884A5.766,5.766,0,0,0,17.374,57.5c-.222-.075-.4-.106-.437-.4-.112-.795-.086-.844.735-.844,1.158,0,2.317-.01,3.475.007.339,0,.486-.053.487-.448.005-1.458.022-1.457-1.444-1.458q-1.289,0-2.578-.006a1.067,1.067,0,0,1-.168-.04,5.88,5.88,0,0,1,1.372-2c.182-.18.441-.29.531-.558m3.5,9.372-1.149.664c-1.359.786-1.353.782-.441,2.1.143.206.249.211.446.093q.935-.559,1.886-1.09c.19-.106.293-.191.142-.423-.243-.374-.454-.77-.675-1.158a.3.3,0,0,0-.21-.183" transform="translate(-6.548 -39.249)" fill="#ee9db1"/>
    <path id="Trazado_660641" data-name="Trazado 660641" d="M54.154,87.356c.891.436.867,1.012.515,1.885a4.451,4.451,0,0,0,.25,3.882c.212.392.206.656-.249.826a1.786,1.786,0,0,0-.327.212c-.785.52-.851.489-1.237-.4a7.282,7.282,0,0,1-.274-5.111c.2.13.313.051.438-.125.283-.4.588-.783.884-1.174" transform="translate(-40.706 -67.736)" fill="#dc8599"/>
    <path id="Trazado_660642" data-name="Trazado 660642" d="M74.328,134.976a3.924,3.924,0,0,1,2.271-.523,2.12,2.12,0,0,1-.2.387c-.273.347-.254.574.19.769a8.562,8.562,0,0,1,1.023.622c-.1.145-.255.132-.4.125a7.223,7.223,0,0,0-2.287.23c.159-.269-.019-.47-.133-.689a3.41,3.41,0,0,1-.469-.921" transform="translate(-57.634 -104.256)" fill="#da8498"/>
    <path id="Trazado_660643" data-name="Trazado 660643" d="M96.266,44.688c0-.765.025-1.532-.01-2.3-.019-.411.124-.509.5-.48a3.722,3.722,0,0,0,1-.044,2.821,2.821,0,1,0-3.389-2.94c-.026.349.151.806-.082,1.019-.252.23-.716.023-1.079.082-.605.1-.723-.163-.717-.726a2.825,2.825,0,0,0-5.15-1.8,2.823,2.823,0,0,0,2.293,4.41c.977.028.977.023.977,1.013,0,1.363-.013,2.726.008,4.089.006.394-.082.5-.508.564a2.1,2.1,0,0,1-1.445-.4,9.373,9.373,0,1,1,9.058.281c-.469.242-.9.045-1.349.06-.193.007-.107-.243-.108-.373-.01-.822,0-1.643,0-2.464" transform="translate(-65.192 -23.034)" fill="#f5dc4d"/>
    <path id="Trazado_660644" data-name="Trazado 660644" d="M116.015,120.361c-.8,0-1.6-.011-2.4.006-.292.006-.391-.086-.383-.381.018-.689.016-1.379,0-2.068-.006-.287.085-.387.381-.385q2.461.018,4.921,0c.274,0,.35.093.345.355-.014.708-.021,1.417,0,2.124.011.326-.142.357-.4.353-.82-.011-1.64,0-2.461,0" transform="translate(-87.797 -91.136)" fill="#68c9e0"/>
    <path id="Trazado_660645" data-name="Trazado 660645" d="M121.585,86.828c0-.783.011-1.566-.006-2.348-.007-.315.048-.455.42-.46,1.453-.017,1.453-.033,1.453,1.425,0,1.268-.014,2.535.009,3.8.006.354-.106.429-.441.433-1.435.014-1.435.025-1.435-1.4V86.828" transform="translate(-94.273 -65.147)" fill="#f1d74b"/>
    <path id="Trazado_660646" data-name="Trazado 660646" d="M91.02,133.81c.321.288.708.11,1.063.138.387.031.778,0,1.168,0a1.087,1.087,0,0,0,.717.9c.437.191.233.662.334,1-1.293,0-2.586,0-3.879,0-.177,0-.376.057-.512-.124a16.973,16.973,0,0,1,1.108-1.922" transform="translate(-69.718 -103.757)" fill="#da8498"/>
    <path id="Trazado_660647" data-name="Trazado 660647" d="M119.284,138.492c.5,0,1.006.01,1.509,0,.281-.007.406.059.361.38a1.9,1.9,0,0,1-1.883,1.513,1.926,1.926,0,0,1-1.826-1.6c-.027-.287.122-.3.329-.295.5.005,1.006,0,1.509,0" transform="translate(-91.065 -107.384)" fill="#df6037"/>
    <path id="Trazado_660648" data-name="Trazado 660648" d="M106.136,69.266a1.649,1.649,0,0,1-.734-.1.889.889,0,0,1-.5-.913.848.848,0,0,1,.662-.8.875.875,0,0,1,.993.318,1.677,1.677,0,0,1,.177,1.34c-.053.313-.417.075-.6.155" transform="translate(-81.337 -52.272)" fill="#f1d74b"/>
    <path id="Trazado_660649" data-name="Trazado 660649" d="M138.851,69.286c-.334.06-.614.041-.577-.539.056-.875.312-1.3.943-1.3a.925.925,0,0,1,.949.893c.018.6-.435.947-1.315.95" transform="translate(-107.216 -52.296)" fill="#f1d74b"/>
    <path id="Trazado_660650" data-name="Trazado 660650" d="M83.907,160.335c0-.937,0-.937.927-.937,3.417,0,6.834-.033,10.25.009a11.182,11.182,0,0,1,9.806,5.463c.216.337.244.526-.174.7s-.8.605-1.174.581c-.36-.024-.478-.64-.732-.975a9.185,9.185,0,0,0-7.469-3.87c-3.49-.056-6.982-.014-10.474-.015-.96,0-.96,0-.96-.957" transform="translate(-65.062 -123.588)" fill="#030202"/>
    <path id="Trazado_660651" data-name="Trazado 660651" d="M210.083,152.094a1,1,0,0,0,0,.168c.093.54-.07.777-.673.9a2.584,2.584,0,0,0-2.1,2.273c-.062.365-.192.46-.528.433a5.91,5.91,0,0,0-.952,0c-.365.029-.489-.077-.441-.466a4.776,4.776,0,0,1,4.033-4.2c.59-.091.737.08.656.61a1.869,1.869,0,0,0,0,.28" transform="translate(-159.258 -117.227)" fill="#040303"/>
    <path id="Trazado_660652" data-name="Trazado 660652" d="M155.72,124.576a4.175,4.175,0,0,1-1.607.948.686.686,0,0,1-.156-.227c-.663-1.145-1.316-2.3-1.995-3.431-.171-.287-.111-.42.165-.549.435-.2.847-.715,1.257-.62.384.089.508.727.744,1.124.486.817.955,1.643,1.43,2.466.056.1.11.195.162.288" transform="translate(-117.758 -93.581)" fill="#060303"/>
    <path id="Trazado_660653" data-name="Trazado 660653" d="M85.481,123.537a16.973,16.973,0,0,0-1.108,1.922h-.212a8.532,8.532,0,0,0-1.023-.623c-.444-.195-.464-.421-.19-.769a2.133,2.133,0,0,0,.2-.387c.556-.943,1.125-1.878,1.66-2.833.164-.293.3-.382.589-.174.388.28,1.041.377,1.161.781.111.373-.387.792-.6,1.2-.153.3-.315.587-.473.88" transform="translate(-64.179 -93.484)" fill="#060303"/>
    <path id="Trazado_660654" data-name="Trazado 660654" d="M186.646,69.136c-.67,0-1.341-.01-2.011,0-.281.006-.38-.075-.392-.375-.065-1.53-.074-1.529,1.473-1.529.95,0,1.9.011,2.849-.006.318-.006.407.1.416.412.044,1.494.054,1.493-1.441,1.493h-.894" transform="translate(-142.847 -52.13)" fill="#080404"/>
    <path id="Trazado_660655" data-name="Trazado 660655" d="M178.077,99.426c-.276.461-.563.957-.871,1.44-.054.085-.167.005-.247-.042-.657-.382-1.31-.773-1.977-1.138-.236-.129-.193-.236-.092-.434.714-1.4.709-1.4,2.048-.625.3.177.612.35.916.527.094.055.208.093.223.272" transform="translate(-135.548 -76.073)" fill="#060303"/>
    <path id="Trazado_660656" data-name="Trazado 660656" d="M64.872,97.374a.3.3,0,0,1,.21.183c.221.389.432.784.675,1.158.15.232.048.316-.142.423q-.95.533-1.886,1.09c-.2.118-.3.114-.446-.093-.912-1.315-.918-1.311.441-2.1l1.149-.664" transform="translate(-48.574 -75.504)" fill="#070504"/>
  </g>
</svg>
