<svg id="Grupo_996349" data-name="Grupo 996349" xmlns="http://www.w3.org/2000/svg" xmlns:xlink="http://www.w3.org/1999/xlink" width="57.438" height="56.527" viewBox="0 0 57.438 56.527">
  <defs>
    <clipPath id="clip-path">
      <rect id="Rectángulo_313026" data-name="Rectángulo 313026" width="57.438" height="56.527" fill="none"/>
    </clipPath>
  </defs>
  <g id="Grupo_996346" data-name="Grupo 996346" clip-path="url(#clip-path)">
    <path id="Trazado_660628" data-name="Trazado 660628" d="M44.662,40.04c.309,0,.5.231.72.394A8.957,8.957,0,0,1,48.43,50.642c-.036.1-.076.208-.136.369a11.464,11.464,0,0,1,2.338-.1,7.515,7.515,0,0,1,5.7,11.355.815.815,0,0,0,0,1.02,6.375,6.375,0,0,1,.068,7.073,1.1,1.1,0,0,0-.132.929,7.047,7.047,0,0,1-12.459,5.947c-.272-.361-.406-.36-.7-.062A6.024,6.024,0,0,0,41.5,81.064c-.151,1.733-.05,3.471-.072,5.207-.013,1.007-.3,1.3-1.3,1.3q-2.017,0-4.035,0c-.954,0-1.267-.314-1.269-1.282,0-2.334.009-4.668,0-7A4.665,4.665,0,0,0,31.2,74.529a6.222,6.222,0,0,0-1.5-.142c-3.624,0-7.247.014-10.871,0a6.552,6.552,0,0,1-6.573-6.8,15.7,15.7,0,0,1,.225-1.641c-1.292,0-2.579,0-3.865,0a8.465,8.465,0,0,1-.765-16.9c.509-.028.633-.176.644-.673a7.793,7.793,0,0,1,2.761-5.892c.15-.132.284-.306.515-.309A7.542,7.542,0,0,0,12.8,43.545c-.089.268-.349.378-.531.558a5.88,5.88,0,0,0-1.372,2,1.03,1.03,0,0,0,.168.04q1.289,0,2.578.006c1.466,0,1.45,0,1.444,1.458,0,.395-.148.452-.487.448-1.158-.017-2.317-.007-3.475-.007-.821,0-.847.049-.735.844.042.3.215.327.437.4a5.765,5.765,0,0,1,2.621,1.371c-.3.39-.6.774-.884,1.174-.124.175-.243.255-.438.125a6,6,0,0,0-3.4-1.124,6.576,6.576,0,0,0-1.658,13,5.685,5.685,0,0,0,1.221.146c1.483.013,2.966,0,4.473,0-.074-.206-.21-.159-.307-.188a6.9,6.9,0,0,1-2.924-1.691c-.2-.2-.256-.324,0-.521A9.314,9.314,0,0,0,10.4,60.8c.186-.189.307-.177.5,0a4.621,4.621,0,0,0,5.336.857c.217-.1.342-.084.456.112a3.41,3.41,0,0,0,.469.921c.114.219.292.42.133.689-.119.161-.317.181-.48.262A4.662,4.662,0,0,0,19.128,72.5c3.586.01,7.172,0,10.758.008a7.46,7.46,0,0,1,1.448.113,6.536,6.536,0,0,1,5.374,6.51c.02,2.035.012,4.07,0,6.105,0,.337.077.461.433.444.634-.029,1.271-.031,1.9,0,.384.019.506-.086.5-.487-.015-1.381-.062-2.765.053-4.143a7.5,7.5,0,0,1,2.223-5.222,1.575,1.575,0,0,0,.636-1.858c-.279-.957-.186-.985.791-.985a3.94,3.94,0,0,0,.56,0c.381-.055.458.124.486.47a5.155,5.155,0,0,0,10.08,1,3.768,3.768,0,0,0,.134-2.086c-.426.211-.8.426-1.193.583a7.263,7.263,0,0,1-1.227.376c-1.264.256-1.266.245-1.266-1.025a1.875,1.875,0,0,0,0-.28c-.055-.362.1-.45.455-.485a4.7,4.7,0,0,0,.7-9.233c-.382-.1-.931.061-1.114-.3a2.964,2.964,0,0,1-.042-1.214.387.387,0,0,0,0-.056c-.057-.371.084-.486.465-.447a6.456,6.456,0,0,1,2.948.963c.334.218.446.12.612-.178a5.63,5.63,0,0,0-7.278-7.807c-.469.217-.606.371-.336.917A7.511,7.511,0,0,1,41.5,64.925c-1.016.142-1.016.142-1.016-.853a3.1,3.1,0,0,0,0-.448c-.059-.4.071-.536.5-.57A5.542,5.542,0,0,0,45.893,59.1,5.645,5.645,0,0,0,44.07,53.09c-.626-.512-.626-.512-.209-1.231.52-.9.542-.922,1.32-.23.354.315.484.2.7-.121a7.042,7.042,0,0,0-.83-8.849c-.4-.406-.862-.758-1.3-1.134a7.859,7.859,0,0,0,.907-1.486" transform="translate(0 -31.047)" fill="#040303"/>
    <path id="Trazado_660629" data-name="Trazado 660629" d="M77.324,26.278a11.356,11.356,0,0,1,17.349-1.859c.136.125.275.247.413.37l1.222,1.6A12.079,12.079,0,0,1,98,31.139a11.272,11.272,0,0,1-6.037,11.372.716.716,0,0,0-.474.754c.032,1.063.009,2.127.01,3.191a.909.909,0,0,1-.576.989c-.355.106-.388.3-.42.6a3.739,3.739,0,0,1-4.227,3.23,3.838,3.838,0,0,1-3.157-2.736c-.1-.341.1-.812-.335-1a1.086,1.086,0,0,1-.717-.9c.006-1.119-.007-2.239.029-3.358a.721.721,0,0,0-.472-.754,11.1,11.1,0,0,1-6.055-8.79,11.545,11.545,0,0,1,.86-5.8l.9-1.654M89.6,38.09c0,.822,0,1.643,0,2.464,0,.13-.085.38.109.373.447-.015.881.182,1.349-.06a9.393,9.393,0,1,0-9.058-.281,2.1,2.1,0,0,0,1.445.4c.426-.06.514-.17.508-.564-.022-1.363-.009-2.726-.009-4.088,0-.99,0-.985-.977-1.013a2.824,2.824,0,0,1-2.293-4.41,2.825,2.825,0,0,1,5.15,1.8c-.005.562.112.823.717.726.363-.059.827.148,1.079-.082.233-.213.056-.67.082-1.019a2.832,2.832,0,1,1,3.39,2.94,3.723,3.723,0,0,1-1,.044c-.38-.029-.522.07-.5.48.035.764.01,1.531.01,2.3m-2.857,7.572c.82,0,1.641-.007,2.461,0,.261,0,.413-.027.4-.353-.023-.707-.016-1.416,0-2.124.005-.261-.071-.357-.345-.355q-2.461.016-4.922,0c-.3,0-.387.1-.381.385.015.689.017,1.379,0,2.069-.008.295.091.387.383.381.8-.016,1.6-.006,2.4-.005m-.906-7.545v1.454c0,1.423,0,1.412,1.434,1.4.336,0,.448-.079.442-.433-.022-1.267-.009-2.535-.009-3.8,0-1.458,0-1.442-1.453-1.425-.372,0-.427.144-.42.459.017.782.006,1.566.006,2.348m.906,9.427c-.5,0-1.006,0-1.509,0-.207,0-.356.008-.329.295a1.925,1.925,0,0,0,1.826,1.6,1.9,1.9,0,0,0,1.883-1.513c.045-.321-.08-.387-.361-.38-.5.013-1.006,0-1.509,0m-3.42-14.114c.181-.08.544.158.6-.155a1.677,1.677,0,0,0-.177-1.34.876.876,0,0,0-.994-.318.848.848,0,0,0-.662.8.889.889,0,0,0,.5.913,1.646,1.646,0,0,0,.734.1m6.837,0c.881,0,1.334-.352,1.315-.95a.925.925,0,0,0-.949-.893c-.631.007-.887.43-.943,1.3-.037.58.243.6.577.539" transform="translate(-58.53 -16.436)" fill="#030202"/>
    <path id="Trazado_660631" data-name="Trazado 660631" d="M155.71,1.787c-.045.08-.089.161-.136.241-.67,1.161-1.349,2.317-2,3.486-.153.272-.282.272-.516.117a7.522,7.522,0,0,0-.968-.556c-.331-.154-.3-.318-.138-.591.648-1.087,1.286-2.181,1.9-3.287.18-.325.325-.444.665-.2.3.217.641.377.962.565.094.055.209.093.235.222" transform="translate(-117.729 -0.674)" fill="#070504"/>
    <path id="Trazado_660632" data-name="Trazado 660632" d="M86.536,5.051A.73.73,0,0,1,86.4,5.2c-.432.256-.868.506-1.3.758-.2.118-.257-.052-.329-.176-.689-1.192-1.374-2.387-2.07-3.575-.111-.19-.075-.264.1-.388,1.342-.932,1.339-.938,2.139.45q.7,1.209,1.392,2.42l.208.359" transform="translate(-64.073 -0.906)" fill="#070504"/>
    <path id="Trazado_660633" data-name="Trazado 660633" d="M123.383,1.5c0,.037,0,.075,0,.112-.035.42.2,1.036-.095,1.217-.427.266-1.046.066-1.583.082-.158,0-.231-.077-.23-.242q.006-1.172,0-2.345c0-.19.074-.275.263-.262.056,0,.112,0,.168,0,.478.031,1.108-.206,1.39.1.24.258.088.88.109,1.34h-.02" transform="translate(-94.192 0)" fill="#070504"/>
    <path id="Trazado_660634" data-name="Trazado 660634" d="M65.287,34.748c-.592.923-.591.923-1.568.348-.14-.082-.285-.155-.428-.232-.329-.207-.857-.362-.931-.637s.348-.652.5-1.008c.221-.532.486-.62.969-.268a9.717,9.717,0,0,0,1.4.809c.38.19.484.4.19.742a1.189,1.189,0,0,0-.128.246" transform="translate(-48.348 -25.387)" fill="#070504"/>
    <path id="Trazado_660635" data-name="Trazado 660635" d="M176.492,33.007a1.091,1.091,0,0,0,.287-.137c.423-.389.65-.146.837.246a.1.1,0,0,0,.1.117l0,0a2.66,2.66,0,0,0,.237.491c.268.354.265.593-.19.785a6.5,6.5,0,0,0-.848.513c-.067.031-.136.056-.2.092-.9.5-.9.5-1.456-.311a1.019,1.019,0,0,0-.11-.249c-.314-.386-.27-.646.21-.865a11.284,11.284,0,0,0,1.136-.678" transform="translate(-135.653 -25.335)" fill="#060303"/>
    <path id="Trazado_660638" data-name="Trazado 660638" d="M186.938,34.761a.1.1,0,0,1-.1-.117c.063.014.107.044.1.117" transform="translate(-144.876 -26.863)" fill="#da8498"/>
    <path id="Trazado_660650" data-name="Trazado 660650" d="M83.907,160.335c0-.937,0-.937.927-.937,3.417,0,6.834-.033,10.25.009a11.182,11.182,0,0,1,9.806,5.463c.216.337.244.526-.174.7s-.8.605-1.174.581c-.36-.024-.478-.64-.732-.975a9.185,9.185,0,0,0-7.469-3.87c-3.49-.056-6.982-.014-10.474-.015-.96,0-.96,0-.96-.957" transform="translate(-65.062 -123.588)" fill="#030202"/>
    <path id="Trazado_660651" data-name="Trazado 660651" d="M210.083,152.094a1,1,0,0,0,0,.168c.093.54-.07.777-.673.9a2.584,2.584,0,0,0-2.1,2.273c-.062.365-.192.46-.528.433a5.91,5.91,0,0,0-.952,0c-.365.029-.489-.077-.441-.466a4.776,4.776,0,0,1,4.033-4.2c.59-.091.737.08.656.61a1.869,1.869,0,0,0,0,.28" transform="translate(-159.258 -117.227)" fill="#040303"/>
    <path id="Trazado_660652" data-name="Trazado 660652" d="M155.72,124.576a4.175,4.175,0,0,1-1.607.948.686.686,0,0,1-.156-.227c-.663-1.145-1.316-2.3-1.995-3.431-.171-.287-.111-.42.165-.549.435-.2.847-.715,1.257-.62.384.089.508.727.744,1.124.486.817.955,1.643,1.43,2.466.056.1.11.195.162.288" transform="translate(-117.758 -93.581)" fill="#060303"/>
    <path id="Trazado_660653" data-name="Trazado 660653" d="M85.481,123.537a16.973,16.973,0,0,0-1.108,1.922h-.212a8.532,8.532,0,0,0-1.023-.623c-.444-.195-.464-.421-.19-.769a2.133,2.133,0,0,0,.2-.387c.556-.943,1.125-1.878,1.66-2.833.164-.293.3-.382.589-.174.388.28,1.041.377,1.161.781.111.373-.387.792-.6,1.2-.153.3-.315.587-.473.88" transform="translate(-64.179 -93.484)" fill="#060303"/>
    <path id="Trazado_660654" data-name="Trazado 660654" d="M186.646,69.136c-.67,0-1.341-.01-2.011,0-.281.006-.38-.075-.392-.375-.065-1.53-.074-1.529,1.473-1.529.95,0,1.9.011,2.849-.006.318-.006.407.1.416.412.044,1.494.054,1.493-1.441,1.493h-.894" transform="translate(-142.847 -52.13)" fill="#080404"/>
    <path id="Trazado_660655" data-name="Trazado 660655" d="M178.077,99.426c-.276.461-.563.957-.871,1.44-.054.085-.167.005-.247-.042-.657-.382-1.31-.773-1.977-1.138-.236-.129-.193-.236-.092-.434.714-1.4.709-1.4,2.048-.625.3.177.612.35.916.527.094.055.208.093.223.272" transform="translate(-135.548 -76.073)" fill="#060303"/>
    <path id="Trazado_660656" data-name="Trazado 660656" d="M64.872,97.374a.3.3,0,0,1,.21.183c.221.389.432.784.675,1.158.15.232.048.316-.142.423q-.95.533-1.886,1.09c-.2.118-.3.114-.446-.093-.912-1.315-.918-1.311.441-2.1l1.149-.664" transform="translate(-48.574 -75.504)" fill="#070504"/>
  </g>
</svg>
