<svg xmlns="http://www.w3.org/2000/svg" xmlns:xlink="http://www.w3.org/1999/xlink" width="85" height="85" viewBox="0 0 85 85">
  <defs>
    <clipPath id="clip-path">
      <rect id="Rect치ngulo_313012" data-name="Rect치ngulo 313012" width="64.386" height="79.203" fill="none"/>
    </clipPath>
  </defs>
  <g id="Grupo_996302" data-name="Grupo 996302" transform="translate(-1335 -6589)">
    <rect id="Rect치ngulo_309092" data-name="Rect치ngulo 309092" width="85" height="85" transform="translate(1335 6589)" fill="none"/>
    <g id="Grupo_996332" data-name="Grupo 996332" transform="translate(1345.307 6591.899)">
      <g id="Grupo_996331" data-name="Grupo 996331" clip-path="url(#clip-path)">
        <path id="Trazado_660417" data-name="Trazado 660417" d="M1.142,48.419a1.3,1.3,0,0,1-1.13-1.562c0-.051,0-.1,0-.155q0-13.621,0-27.241c0-1.869.747-2.616,2.61-2.617,2.113,0,4.227-.012,6.34.009a1.206,1.206,0,0,0,1.053-.468,27.548,27.548,0,0,1,16.25-9.661A26.441,26.441,0,0,1,36.1,6.618,1.336,1.336,0,0,0,37.457,6.2C39.179,4.42,40.942,2.684,42.7.938,43.944-.306,45.063-.313,46.3.92c2.1,2.091,4.182,4.2,6.294,6.281a1.359,1.359,0,0,1,.3,1.914c-.9.509-1.206.471-1.956-.277-2-2-4.01-4-6-6.013-.327-.332-.526-.376-.85-.007-.542.616-1.133,1.189-1.7,1.78q-5.4,5.364-10.8,10.723c-.27.268-.157.421.051.625.68.668,1.365,1.331,2.02,2.023.382.4.568.6.881-.121a5.78,5.78,0,0,1,6.022-3.4A5.85,5.85,0,0,1,42.241,25.6c-.193.089-.465.068-.582.373.83.824,1.687,1.642,2.5,2.5.309.326.47.214.717-.042.808-.831,1.634-1.645,2.455-2.463,1.587-1.581,3.268-1.195,4.019.916a3.205,3.205,0,0,0,2.336,2.241,3.058,3.058,0,0,0,2.108.01,3.525,3.525,0,0,0-.046-6.7c-2.072-.715-2.465-2.407-.919-3.963.8-.8,1.581-1.625,2.411-2.4.41-.38.374-.616-.018-.971-.629-.57-1.18-1.226-1.816-1.787a1.478,1.478,0,0,1-.429-1.982c1.018-.51,1.266-.47,2.087.347.713.708,1.426,1.415,2.132,2.129,1.21,1.223,1.215,2.343.019,3.556-.886.9-1.777,1.791-2.665,2.687a.726.726,0,0,0-.063.135l.508.225a5.849,5.849,0,0,1,2.515,8.687,1.435,1.435,0,0,0-.308,1.041c.335,3.595,1.794,6.838,3.083,10.136.616,1.578,1.246,3.151,1.852,4.732a2.7,2.7,0,0,1-1.566,3.731c-.894.39-1.792.772-2.7,1.132-.4.161-.58.322-.5.838.428,2.771.781,5.553,1.187,8.327a4.527,4.527,0,0,1-4.2,5.3c-1.949.169-3.9.358-5.848.5-.574.043-.751.239-.747.836.031,3.863.016,7.727.016,11.59q0,.271,0,.541a1.217,1.217,0,0,1-.99,1.364c-.619.131-1.1-.266-1.354-1.069.008-2.076.024-4.153.021-6.229,0-2.666-.024-5.331-.038-8,.13-.917.756-1.156,1.575-1.228a42.576,42.576,0,0,0,4.541-.454,16.971,16.971,0,0,0,2.615-.178,2.21,2.21,0,0,0,2.1-2.732q-.676-4.7-1.32-9.406c-.141-1.036.033-1.294,1.012-1.708,1.184-.5,2.366-1.006,3.559-1.483.519-.207.63-.476.412-1.007-.675-1.64-1.305-3.3-1.946-4.952-1.152-2.969-2.493-5.88-2.87-9.093-.063-.538-.325-.357-.637-.27a5.783,5.783,0,0,1-7.141-3.31c-.24-.536-.382-.439-.7-.105-.842.871-1.692,1.735-2.57,2.568a2.113,2.113,0,0,1-3.107-.009c-.339-.313-.673-.632-1.008-.948-.677-.7-1.351-1.393-2.031-2.086-1.414-1.442-1.008-3.181.893-3.824a3.278,3.278,0,0,0,2.087-1.673,3.415,3.415,0,0,0-.235-3.881,3.369,3.369,0,0,0-3.334-1.331A3.408,3.408,0,0,0,36.5,19.2c-.71,2.071-2.4,2.458-3.955.92-.418-.413-.847-.815-1.271-1.223-.536-.553-1.076-1.1-1.609-1.66a2.133,2.133,0,0,1,.009-3.275c1.005-1.034,2.032-2.047,3.057-3.062.672-.665,1.357-1.318,2.08-2.019-5.835-1.958-19.39,3-21.928,7.926a.219.219,0,0,0,.066.024c2.653,0,5.305,0,7.958.011a2.143,2.143,0,0,1,2.406,2.368c.02,1.133.026,2.266,0,3.4-.015.547.094.637.635.434a5.818,5.818,0,0,1,7.719,3.733,5.925,5.925,0,0,1-1.013,5.4,5.85,5.85,0,0,1-6.908,1.657c-.423-.167-.423.034-.423.329,0,1.054.02,2.108-.009,3.161-.012.451.205.488.562.485,1.439-.009,2.878,0,4.317.006,1.666.616,2.137,1.8,1.346,3.412a3.782,3.782,0,0,0-.415,1.472A3.526,3.526,0,1,0,35.8,41.339c-1-2.128-.1-3.536,2.256-3.538,1.236,0,2.471-.006,3.707,0a2.2,2.2,0,0,1,2.517,2.5c0,6.1-.01,12.2.013,18.3a2.5,2.5,0,0,1-1.138,2.292,3.91,3.91,0,0,1-1.425.22c-1.174-.015-2.349-.033-3.521,0a1.328,1.328,0,0,1-1.541-1.144,1.347,1.347,0,0,1,1.562-1.212c1.081.008,2.162.005,3.242.03.353.008.495-.08.494-.466q-.016-8.844,0-17.69c0-.409-.135-.532-.533-.523-1.03.021-2.06.016-3.09,0-.392-.007-.518.069-.336.476a5.825,5.825,0,0,1,.1,4.433c-1.475,2.951-4.154,4.3-7.014,3.519a5.83,5.83,0,0,1-3.88-7.774c.232-.6.105-.676-.46-.653-.926.037-1.856.033-2.783,0-.493-.017-.684.113-.667.643.038,1.184.023,2.371.009,3.556-.024,2.042-1.535,2.966-3.369,2.071a3.523,3.523,0,0,0-4.453,5.293,3.534,3.534,0,0,0,4.467.863c1.807-.893,3.329.043,3.355,2.075.015,1.185.031,2.372-.01,3.556-.019.529.17.631.654.627,2.681-.021,5.361-.012,8.042-.009,1.045,0,1.283.182,1.6,1.186-.354.993-.553,1.134-1.638,1.134-4.149,0-8.3.009-12.448-.011-.5,0-.662.126-.642.637.046,1.129.032,2.26.042,3.391q0,6.487-.008,12.974c-.187.7-.572,1.165-1.36,1.079-.662-.072-.983-.582-.983-1.5,0-5.278-.013-10.556.015-15.834,0-.624-.179-.751-.767-.747-4.428.024-8.857.015-13.285.012a2.187,2.187,0,0,1-2.51-2.492c0-1.879.018-3.759-.01-5.638A1.286,1.286,0,0,1,1.138,51.5c.942.251,1.192.554,1.2,1.5q.01,2.586,0,5.173c0,.362-.013.624.5.621,4.838-.026,9.676-.028,14.513-.036,1.049.009,2.1.016,3.148.029.272,0,.513,0,.509-.383-.01-1.1,0-2.2,0-3.3,0-.315-.13-.429-.426-.289a6.482,6.482,0,0,1-3.232.45,7.316,7.316,0,0,1-2.9-1.293,8.814,8.814,0,0,1-1.4-1.812,5.906,5.906,0,0,1,1.515-7.3,7.782,7.782,0,0,1,2.8-1.231,6.8,6.8,0,0,1,3.25.492c.326.152.41.042.408-.272,0-1.083-.009-2.165,0-3.247,0-.366-.146-.5-.508-.494-1.054.03-2.109.042-3.163.061-1.081-.024-2.142-.1-2.768-1.183a2.825,2.825,0,0,1,.227-2.37A3.491,3.491,0,0,0,10.373,31.8,3.478,3.478,0,0,0,8.617,36.85,2.127,2.127,0,0,1,6.65,40.114c-1.21.022-2.422.03-3.631-.007-.537-.016-.7.141-.695.687.031,2.009.015,4.018.011,6.027,0,1.029-.2,1.289-1.193,1.6M20.971,33.1c.507-1.8,1.626-2.285,3.489-1.528a3.423,3.423,0,0,0,4.265-.777,3.539,3.539,0,0,0,.213-4.363,3.431,3.431,0,0,0-4.171-1.19,3.424,3.424,0,0,0-.354.126c-1.691.82-2.931.271-3.445-1.529.01-1.38.012-2.76.036-4.14.007-.382-.1-.556-.515-.543-1.047.033-2.1.03-3.143.042q-7.259-.017-14.517-.042c-.432,0-.505.168-.5.545.015,1.647.007,3.295.007,4.942,0,4.145.011,8.29-.013,12.434,0,.569.128.766.72.73a23.388,23.388,0,0,1,2.624,0c.671.035.739-.121.511-.754a5.522,5.522,0,0,1,1.14-5.889A5.569,5.569,0,0,1,13.131,29.4a5.9,5.9,0,0,1,4.179,3.969,6.32,6.32,0,0,1-.492,4.423c1.326,0,2.531-.011,3.735.006.411.006.453-.218.449-.537-.015-1.387-.021-2.775-.031-4.162" transform="translate(0 0)" fill="#030303"/>
        <path id="Trazado_660418" data-name="Trazado 660418" d="M61,221.9l.008-12.974a.951.951,0,0,0,.154,0c1-.17,2.127.43,3-.505.078-.084.184,0,.251.089.344.46.845.418,1.336.418,6,0,12.006.01,18.008-.016.7,0,.918.167.912.894-.03,4.018-.006,8.037,0,12.056-.333.013-.667.036-1,.036Q72.334,221.9,61,221.9" transform="translate(-42.093 -143.802)" fill="#99c8f6"/>
        <path id="Trazado_660419" data-name="Trazado 660419" d="M19.884,114.443a7.785,7.785,0,0,0-2.8,1.231,5.274,5.274,0,0,0-3.485.521,4.683,4.683,0,0,0-1.112,7.288,4.417,4.417,0,0,0,4.488,1.3,7.314,7.314,0,0,0,2.9,1.292q0,1.748,0,3.5c-4.838.008-9.676.01-14.513.036-.516,0-.5-.259-.5-.621q.013-2.586,0-5.173c0-.949-.254-1.251-1.2-1.5l0-3.082c.992-.308,1.191-.568,1.193-1.6,0-2.009.02-4.018-.011-6.027-.008-.546.158-.7.695-.687,1.209.037,2.421.029,3.631.007a2.127,2.127,0,0,0,1.968-3.264,3.477,3.477,0,0,1,1.756-5.047.819.819,0,0,0,.076.3,4.716,4.716,0,0,1,.415,5.345c-.431.871.008,1.522,1,1.541.9.017,1.8,0,2.7,0,.626,1.088,1.687,1.159,2.768,1.183q.006,1.73.012,3.461" transform="translate(-2.533 -70.812)" fill="#e6575d"/>
        <path id="Trazado_660420" data-name="Trazado 660420" d="M84.594,211.6c-.006-4.019-.03-8.038,0-12.056.005-.726-.215-.9-.912-.894-6,.026-12.006.014-18.009.016-.492,0-.992.042-1.336-.418-.068-.09-.173-.173-.251-.089-.875.936-2,.335-3,.505a.982.982,0,0,1-.154,0c-.01-1.13,0-2.262-.042-3.391-.021-.51.141-.639.641-.636,4.149.02,8.3.012,12.448.011,1.085,0,1.284-.141,1.638-1.134h3.071a1.328,1.328,0,0,0,1.541,1.144c1.173-.037,2.347-.02,3.521,0a3.9,3.9,0,0,0,1.425-.22c.007.872.008,1.745.027,2.617,0,.2-.093.495.321.444,1.3-.159,2.613-.024,3.919-.072.014,2.666.033,5.331.038,8,0,2.076-.013,4.153-.02,6.229l-4.864-.051" transform="translate(-42.016 -133.541)" fill="#76b6f3"/>
        <path id="Trazado_660421" data-name="Trazado 660421" d="M136.773,10.293c.571-.591,1.162-1.163,1.7-1.78.324-.369.523-.326.85.007,1.986,2.017,3.993,4.014,6,6.014.75.748,1.055.786,1.956.277.65.783,1.507,1.372,2.083,2.224a1.478,1.478,0,0,0,.43,1.982c.636.561,1.187,1.217,1.816,1.788.392.355.427.591.018.971-.83.77-1.613,1.591-2.411,2.395-1.546,1.556-1.153,3.247.919,3.963a3.525,3.525,0,0,1,.046,6.7,3.055,3.055,0,0,1-2.108-.01,6.3,6.3,0,0,0,.506-3.126,4.587,4.587,0,0,0-3.079-3.716c-1.37-.529-1.512-1.087-.464-2.136q1.284-1.285,2.568-2.569c.837-.842.834-1.2-.02-2.059Q142.474,16.106,137.365,11a2.082,2.082,0,0,1-.592-.7" transform="translate(-94.384 -5.695)" fill="#55b19d"/>
        <path id="Trazado_660422" data-name="Trazado 660422" d="M76.1,82.69c-1.306.047-2.616-.087-3.92.072-.415.051-.317-.244-.321-.444-.018-.872-.02-1.745-.027-2.617a2.5,2.5,0,0,0,1.137-2.291c-.023-6.1-.009-12.2-.013-18.3a2.2,2.2,0,0,0-2.517-2.5c-1.236-.008-2.471,0-3.707,0-2.355,0-3.253,1.41-2.255,3.538a3.525,3.525,0,1,1-6.687,1.362,3.78,3.78,0,0,1,.416-1.472c.79-1.614.32-2.8-1.346-3.412A4.735,4.735,0,0,0,59.379,53.1c.123-.743-.139-1.411-.057-2.114a5.925,5.925,0,0,0,1.013-5.4,5.817,5.817,0,0,0-7.719-3.733c-.541.2-.649.114-.635-.434.03-1.132.025-2.266,0-3.4a2.143,2.143,0,0,0-2.406-2.368c-2.653-.009-5.3-.007-7.958-.011a.213.213,0,0,1-.066-.024c2.538-4.926,16.092-9.885,21.928-7.927-.723.7-1.408,1.354-2.08,2.019-1.025,1.015-2.052,2.028-3.057,3.062a2.133,2.133,0,0,0-.009,3.275c.533.557,1.072,1.107,1.609,1.66-.059.46-.468.654-.738.948-.643.7-.661,1.1,0,1.773.991,1.006,1.985,2.01,3,2.994.746.725,1.4.574,1.754-.388a5.422,5.422,0,0,1,1.914-2.7c1.761-1.256,4.725-.953,5.681.464a3.278,3.278,0,0,1-2.087,1.672c-1.9.642-2.307,2.381-.893,3.824.68.693,1.354,1.391,2.031,2.086-.208.093-.412.2-.625.276-1.23.439-1.409,1.127-.511,2.037q1.385,1.4,2.787,2.788a1.087,1.087,0,0,0,1.785.036c.971-.96,1.928-1.935,2.9-2.894.748-.737,1.57-.564,1.9.424a4.616,4.616,0,0,0,2.75,3.034,1.165,1.165,0,0,1,.7.744q1.884,4.931,3.822,9.841a1.683,1.683,0,0,1-1.11,2.547c-.954.382-1.886.818-2.841,1.194a1.281,1.281,0,0,0-.883,1.443c.153,2.2.615,4.355.86,6.54.172,1.533.748,3.07.073,4.62a42.667,42.667,0,0,1-4.542.454c-.819.071-1.445.311-1.575,1.228" transform="translate(-28.677 -18.807)" fill="#98c7f5"/>
        <path id="Trazado_660423" data-name="Trazado 660423" d="M26.139,66.5c.514,1.8,1.754,2.348,3.445,1.529a3.263,3.263,0,0,1,.354-.126A5.448,5.448,0,0,1,31.024,71.7a2.9,2.9,0,0,1-1.394,2.535c-1.863-.757-2.982-.267-3.489,1.528a3.978,3.978,0,0,1-2.063-.532c-.911-.415-1.395-.179-1.6.8A5.9,5.9,0,0,0,18.3,72.062a5.569,5.569,0,0,0-5.814,1.761,5.521,5.521,0,0,0-1.14,5.889c.228.633.16.789-.511.754a23.242,23.242,0,0,0-2.624,0c-.591.036-.723-.162-.72-.73.024-4.145.013-8.289.013-12.434,0-1.648.009-3.3-.007-4.943,0-.377.069-.547.5-.545,4.839.025,9.678.031,14.517.042q0,2.038,0,4.076c0,1.23.526,1.558,1.633,1.06a3.773,3.773,0,0,1,1.985-.495" transform="translate(-5.17 -42.658)" fill="#ee9a54"/>
        <path id="Trazado_660424" data-name="Trazado 660424" d="M69.409,149.283H66.338c-.318-1-.556-1.185-1.6-1.186-2.681,0-5.361-.012-8.042.009-.484,0-.673-.1-.654-.627.041-1.184.025-2.371.01-3.556-.026-2.032-1.548-2.968-3.355-2.075a3.528,3.528,0,0,1-4.473-5.287,3.5,3.5,0,0,1,4.459-.87c1.834.9,3.344-.029,3.369-2.071.014-1.185.029-2.372-.009-3.556-.017-.531.174-.66.667-.643.927.033,1.857.036,2.783,0,.565-.023.692.058.46.653a5.83,5.83,0,0,0,3.88,7.774c2.86.776,5.54-.568,7.014-3.519.2.216.127.486.127.735q0,6.5,0,13.008a1.347,1.347,0,0,0-1.562,1.212" transform="translate(-32.739 -89.307)" fill="#f8df78"/>
        <path id="Trazado_660425" data-name="Trazado 660425" d="M112.376,14.834a2.082,2.082,0,0,0,.592.7q5.106,5.114,10.217,10.222c.854.854.857,1.217.02,2.059q-1.28,1.288-2.568,2.569c-1.048,1.049-.906,1.607.464,2.136a4.587,4.587,0,0,1,3.079,3.716,6.3,6.3,0,0,1-.506,3.126,3.2,3.2,0,0,1-2.336-2.241c-.751-2.111-2.432-2.5-4.019-.916-.821.818-1.647,1.632-2.455,2.463-.248.255-.408.368-.717.042-.814-.858-1.671-1.676-2.5-2.5.117-.3.389-.285.582-.373a5.85,5.85,0,0,0-1.676-11.153,5.78,5.78,0,0,0-6.022,3.4c-.312.721-.5.524-.881.121-.656-.691-1.34-1.355-2.02-2.023-.208-.2-.321-.357-.051-.625q5.407-5.353,10.8-10.723" transform="translate(-69.987 -10.237)" fill="#63cbb3"/>
        <path id="Trazado_660426" data-name="Trazado 660426" d="M143.126,123.847c.675-1.55.1-3.086-.073-4.62-.245-2.185-.706-4.342-.86-6.54a1.281,1.281,0,0,1,.883-1.443c.956-.376,1.888-.812,2.841-1.194a1.683,1.683,0,0,0,1.11-2.547q-1.933-4.912-3.822-9.841a1.164,1.164,0,0,0-.7-.744,4.617,4.617,0,0,1-2.75-3.034c-.329-.987-1.152-1.161-1.9-.424-.973.959-1.929,1.933-2.9,2.894a1.087,1.087,0,0,1-1.785-.035q-1.4-1.389-2.787-2.788c-.9-.91-.719-1.6.511-2.037.214-.077.417-.183.625-.276.336.316.67.635,1.008.948a2.113,2.113,0,0,0,3.107.009c.878-.834,1.728-1.7,2.57-2.568.322-.334.464-.43.7.105a5.783,5.783,0,0,0,7.141,3.31c.311-.087.574-.269.637.27.376,3.212,1.718,6.123,2.87,9.093.641,1.653,1.271,3.312,1.946,4.952.219.532.107.8-.411,1.007-1.194.477-2.376.982-3.559,1.483-.978.414-1.153.672-1.012,1.708q.64,4.706,1.321,9.406a2.21,2.21,0,0,1-2.1,2.732,16.972,16.972,0,0,1-2.615.178" transform="translate(-89.585 -61.645)" fill="#76b6f3"/>
        <path id="Trazado_660427" data-name="Trazado 660427" d="M122.68,148.077q0-6.5,0-13.008c0-.248.076-.518-.127-.735a5.825,5.825,0,0,0-.1-4.433c-.182-.408-.056-.483.336-.477,1.03.019,2.06.024,3.09,0,.4-.008.534.114.533.523q-.016,8.845,0,17.69c0,.386-.141.474-.494.466-1.081-.025-2.162-.022-3.243-.03" transform="translate(-84.448 -89.313)" fill="#efc450"/>
        <path id="Trazado_660428" data-name="Trazado 660428" d="M109.776,59.227c-.956-1.416-3.92-1.719-5.681-.464a5.422,5.422,0,0,0-1.914,2.7c-.353.962-1.008,1.113-1.754.388-1.013-.984-2.007-1.988-3-2.994-.665-.676-.647-1.072,0-1.773.27-.294.679-.488.738-.948.424.407.853.809,1.271,1.223,1.556,1.538,3.245,1.15,3.955-.92a3.407,3.407,0,0,1,2.818-2.426,3.37,3.37,0,0,1,3.334,1.331,3.415,3.415,0,0,1,.235,3.881" transform="translate(-66.894 -37.239)" fill="#76b6f3"/>
        <path id="Trazado_660429" data-name="Trazado 660429" d="M33.779,153.7a4.416,4.416,0,0,1-4.488-1.3A4.683,4.683,0,0,1,30.4,145.11a5.272,5.272,0,0,1,3.485-.521,5.906,5.906,0,0,0-1.514,7.3,8.811,8.811,0,0,0,1.4,1.811" transform="translate(-19.334 -99.727)" fill="#e34448"/>
        <path id="Trazado_660430" data-name="Trazado 660430" d="M82.536,103.822c-.082.7.18,1.372.057,2.114a4.736,4.736,0,0,1-2.517,3.525c-1.439,0-2.878-.015-4.317-.006-.357,0-.574-.035-.562-.485.029-1.053.01-2.107.009-3.161,0-.3,0-.5.423-.329a5.85,5.85,0,0,0,6.908-1.657" transform="translate(-51.891 -71.645)" fill="#76b6f3"/>
        <path id="Trazado_660431" data-name="Trazado 660431" d="M37.668,109.2c-.9,0-1.8.014-2.7,0-1-.019-1.436-.67-1.005-1.541a4.717,4.717,0,0,0-.414-5.345.806.806,0,0,1-.076-.3,3.491,3.491,0,0,1,4.424,4.813,2.823,2.823,0,0,0-.227,2.371" transform="translate(-23.097 -70.216)" fill="#e34448"/>
        <path id="Trazado_660432" data-name="Trazado 660432" d="M78.924,87.164a2.9,2.9,0,0,0,1.394-2.535,5.447,5.447,0,0,0-1.087-3.795,3.43,3.43,0,0,1,4.171,1.19,3.538,3.538,0,0,1-.213,4.363,3.423,3.423,0,0,1-4.265.777" transform="translate(-54.464 -55.59)" fill="#e67a3a"/>
        <path id="Trazado_660433" data-name="Trazado 660433" d="M54.756,105.458c.2-.982.687-1.218,1.6-.8a3.978,3.978,0,0,0,2.063.532c.009,1.388.015,2.775.031,4.162,0,.32-.039.543-.449.537-1.2-.016-2.408-.006-3.735-.006a6.32,6.32,0,0,0,.493-4.423" transform="translate(-37.446 -72.085)" fill="#e67a3a"/>
        <path id="Trazado_660434" data-name="Trazado 660434" d="M59.6,66.5a3.773,3.773,0,0,0-1.985.495c-1.107.5-1.631.17-1.633-1.06q0-2.038,0-4.076c1.048-.011,2.1-.009,3.143-.042.418-.013.522.161.515.543-.024,1.38-.026,2.76-.036,4.14" transform="translate(-38.626 -42.658)" fill="#e67a3a"/>
        <path id="Trazado_660435" data-name="Trazado 660435" d="M55.957,132.935q-.006-1.731-.012-3.461c1.054-.019,2.109-.031,3.163-.061.362-.01.512.128.508.494-.011,1.082-.007,2.165,0,3.247,0,.314-.083.424-.408.272a6.8,6.8,0,0,0-3.25-.492" transform="translate(-38.606 -89.305)" fill="#da4145"/>
        <path id="Trazado_660436" data-name="Trazado 660436" d="M55.97,180.683q0-1.748,0-3.5a6.475,6.475,0,0,0,3.232-.45c.3-.141.426-.027.426.289,0,1.1-.008,2.2,0,3.3,0,.384-.237.386-.509.383-1.049-.012-2.1-.02-3.148-.028" transform="translate(-38.622 -121.921)" fill="#de4246"/>
      </g>
    </g>
  </g>
</svg>
