<svg xmlns="http://www.w3.org/2000/svg" xmlns:xlink="http://www.w3.org/1999/xlink" width="85" height="85" viewBox="0 0 85 85">
  <defs>
    <clipPath id="clip-path">
      <rect id="Rect치ngulo_313028" data-name="Rect치ngulo 313028" width="69.888" height="76.28" fill="none"/>
    </clipPath>
  </defs>
  <g id="Grupo_996282" data-name="Grupo 996282" transform="translate(-1335 -6589)">
    <rect id="Rect치ngulo_309092" data-name="Rect치ngulo 309092" width="85" height="85" transform="translate(1335 6589)" fill="none"/>
    <g id="Grupo_996354" data-name="Grupo 996354" transform="translate(1342.556 6593.36)">
      <g id="Grupo_996353" data-name="Grupo 996353" clip-path="url(#clip-path)">
        <path id="Trazado_660682" data-name="Trazado 660682" d="M60.467,62.431c.914.287,1.1.537,1.118,1.494a.441.441,0,0,1,0,.074,1.787,1.787,0,0,0,1.391,2.289,5.016,5.016,0,0,1,2.96,5.747,5.273,5.273,0,0,1-5.028,4.221c-4.328.041-8.657.021-12.985.011a3.887,3.887,0,0,1-2.3-.764.531.531,0,0,0-.759-.019,4.338,4.338,0,0,1-2.663.792q-19.851-.009-39.7-.005c-1.722,0-2.5-.777-2.5-2.5q0-7.5,0-15c0-1.727.772-2.5,2.5-2.5,1.965,0,3.931-.024,5.9.014.564.011.7-.141.693-.7-.024-4.826-.015-9.652-.013-14.478,0-1.893.713-2.6,2.61-2.6.224,0,.449-.014.671,0,.313.025.446-.036.51-.415a3.14,3.14,0,0,1,3.261-2.767q3.022-.033,6.045,0a3.1,3.1,0,0,1,3.229,2.7c.082.428.267.511.641.477,2.67-.238,3.365.984,3.2,3.224-.037.52.048,1.051-.018,1.565-.1.757.225.925.911.876a28.624,28.624,0,0,0,2.875-.386,4.2,4.2,0,0,0,2.561-1.747c.29-.356.005-.41-.191-.526a14.563,14.563,0,0,1-7.1-10.176,19.669,19.669,0,0,1-.371-4c.008-2.487-.007-4.975.012-7.462a.669.669,0,0,0-.487-.769,2.078,2.078,0,0,1-1.451-2.355A17.707,17.707,0,0,1,41.011.036,5.79,5.79,0,0,1,41.83,0c2.338,0,4.677.006,7.015,0,6.184-.024,10.829,2.814,14.3,7.758a16.9,16.9,0,0,1,2.806,7.611,2.045,2.045,0,0,1-.526,1.776c-.617.68-.484,1.123.366,1.446a5.709,5.709,0,0,1,2.556,1.984,8.3,8.3,0,0,1,.053,9.562,5.535,5.535,0,0,1-3.594,2.331c-.263.046-.506.047-.63.4a16.255,16.255,0,0,1-6.736,8.426,12.457,12.457,0,0,1,3.277,4.676,13.233,13.233,0,0,1,.864,4.813q.017,3.619,0,7.239c0,.959-.2,1.208-1.114,1.495-.94-.284-1.118-.5-1.12-1.478-.007-2.361,0-4.723,0-7.084a10.3,10.3,0,0,0-3.507-8.07.964.964,0,0,0-1.18-.226,12,12,0,0,1-3.441.912,1.066,1.066,0,0,0-1.021.752,4.456,4.456,0,0,1-3.783,2.86,4.053,4.053,0,0,1-4.4-2,3.665,3.665,0,0,0-3.126-2.16,1.317,1.317,0,0,1-.355-.106.714.714,0,0,0-.873.17,10.23,10.23,0,0,0-3.25,6.565,2.511,2.511,0,0,1,2.883,1.842c.081.234.171.465.259.7.9,2.353.9,2.373,3.406,2.3a1.356,1.356,0,0,1,1.564,1.042c-.249,1-.468,1.184-1.475,1.207a12.745,12.745,0,0,1-1.415-.022c-.387-.034-.522.073-.513.477a4.2,4.2,0,0,1-.769,2.522c-.417.6-.148.679.386.726A17.172,17.172,0,0,0,48.781,58.38a16.605,16.605,0,0,0,6.832-7.063,1.878,1.878,0,0,0-.068-2.045,1.808,1.808,0,0,0-1.74-.789,2.034,2.034,0,0,0-1.683,1.29,12.743,12.743,0,0,1-4.781,5.088c-.889.54-1.227.5-1.937-.247a1.312,1.312,0,0,1,.689-1.625A10.781,10.781,0,0,0,50.225,48.6,4.14,4.14,0,1,1,57.5,52.519,19.191,19.191,0,0,1,38.656,62.666c-.471-.044-.613.067-.582.541.041.644,0,1.292.016,1.938,0,.178-.122.456.135.515s.268-.241.358-.4a4.271,4.271,0,0,1,6.193-1.61.687.687,0,0,0,.9.01,4.234,4.234,0,0,1,6.144,1.531.872.872,0,0,0,.926.522c1.59-.025,3.182,0,4.773-.017.586-.008,1.334.267,1.716-.127.346-.357.09-1.091.106-1.658.027-.975.185-1.195,1.124-1.479M23.6,63.388a3.883,3.883,0,0,0,.34-.476,3.189,3.189,0,0,1,3.226-1.831c.283.012.566,0,1.016,0a2.381,2.381,0,0,1-.562-2.089c.068-.417-.08-.5-.457-.49-1.193.026-2.386.023-3.579.031-.992-.008-1.984,0-2.975-.031-.366-.01-.457.128-.457.474q.013,7.294,0,14.587c0,.346.091.483.457.474.992-.028,1.984-.023,2.975-.031q5.893.012,11.786.03c.339,0,.479-.074.477-.448q-.018-5.633,0-11.265c0-.38-.109-.481-.469-.367a6.048,6.048,0,0,1-2.508.163,2.573,2.573,0,0,0-1.24-.021c.056-.04.054-.077-.01-.1-.018-.006-.043.008-.065.013l.09.076c.483.857.955,1.719,1.451,2.569a2.971,2.971,0,0,1-.008,3.233c-.393.659-.776,1.323-1.159,1.988a3.006,3.006,0,0,1-2.686,1.575c-.817.023-1.636.02-2.454,0A3.017,3.017,0,0,1,24.1,69.889c-.149-.255-.316-.5-.475-.748-.212-.389-.407-.787-.638-1.164a3.047,3.047,0,0,1,0-3.421,3.908,3.908,0,0,0,.616-1.167M49.738,66.1a1.985,1.985,0,0,0-2.256-.859A2.016,2.016,0,0,0,46,67.176c-.031,1.614-.038,3.229,0,4.842a2.013,2.013,0,0,0,2,2c.668.03,1.339-.01,2.009-.019,3.624.008,7.249.047,10.872.007A2.842,2.842,0,0,0,63.572,72.1a3.039,3.039,0,0,0-2.943-4.156c-3.029-.027-6.058,0-9.087-.008-.975,0-1.222-.194-1.474-1.108a1.292,1.292,0,0,0-.329-.727M5.677,58.536c-.993-.008-1.986,0-2.978-.031-.358-.01-.464.112-.463.466q.014,7.3,0,14.6c0,.354.1.476.463.466.992-.027,1.986-.023,2.978-.031q5.891.012,11.782.031c.35,0,.47-.095.469-.458q-.016-7.309,0-14.618c0-.363-.119-.459-.469-.458q-5.891.027-11.782.031m9.1-2.289c3.9.008,7.808.012,11.713.032.376,0,.515-.087.514-.493q-.02-7.274,0-14.549c0-.406-.138-.5-.514-.493-3.9.019-7.809.023-11.713.031-.992-.008-1.985,0-2.976-.032-.4-.013-.5.13-.5.51q.017,7.259,0,14.517c0,.38.1.523.5.51.991-.033,1.984-.024,2.976-.032M31.805,16.469a10.834,10.834,0,0,0,2.552-3.621c.422-.807.969-1.076,1.592-.788.646.3.8.833.483,1.715a6.374,6.374,0,0,0-.463,2.619,1.71,1.71,0,0,0,2.539,1.537,5.356,5.356,0,0,0,1.749-1.365,16.758,16.758,0,0,0,1.886-2.583,1.093,1.093,0,0,1,1.413-.506,1.052,1.052,0,0,1,.653,1.336,7.859,7.859,0,0,0-.181,1.024,1.845,1.845,0,0,0,1.55,2.255,3.7,3.7,0,0,0,3.432-.715,11.441,11.441,0,0,0,3.32-4.513c.239-.512.54-.9,1.145-.907a1.22,1.22,0,0,1,1.115.846,7.916,7.916,0,0,0,2.074,2.7,1.337,1.337,0,0,1,.471,1.647c-.8.683-1.215.678-2,0a16.6,16.6,0,0,1-1.606-1.712,14.776,14.776,0,0,1-2.514,3.2c-2.868,2.756-7.257,2.371-8.986-.667a9.078,9.078,0,0,1-2.028,1.738,3.991,3.991,0,0,1-5.912-1.671c-.23-.451-.334-.3-.521-.024a6.115,6.115,0,0,1-3.068,1.574c-.3.036-.348.206-.342.463.074,3.279-.185,6.566.163,9.838A12.677,12.677,0,0,0,41.5,41.3a56.3,56.3,0,0,0,8.776.154,5.873,5.873,0,0,0,1.175-.185,13.908,13.908,0,0,0,10.858-9.908c.222-.7.554-1.157,1.355-1.085a3.158,3.158,0,0,0,3.054-1.615,5.845,5.845,0,0,0,.817-4.427c-.432-2.328-1.431-3.3-3.752-3.77a1.035,1.035,0,0,1-.907-1.1c.018-.611-.2-.6-.688-.472-1.186.316-1.588.118-1.944-.836a1.219,1.219,0,0,1,1.169-1.295,4.925,4.925,0,0,0,1.748-.6.868.868,0,0,0,.479-1.03A15.023,15.023,0,0,0,53.1,2.858c-3.823-1.294-7.809-.807-11.747-.574a15.354,15.354,0,0,0-13.1,14.284.58.58,0,0,0,.443.654,2.737,2.737,0,0,0,3.113-.753m6.279,54.55c0,.8.037,1.593-.013,2.385-.034.548.169.656.67.64,1.142-.036,2.286-.014,3.43-.01a2.638,2.638,0,0,0,.951-.142.973.973,0,0,0,.73-1.213,29.381,29.381,0,0,1,0-6.17.975.975,0,0,0-.726-1.216,2.079,2.079,0,0,0-2.666,1.255c-.452,1.339-.451,1.358-1.848,1.38-.429.007-.555.135-.541.554.028.844.009,1.69.008,2.535m-10.05-7.628c-1.369-.462-1.984.348-2.655,1.417a2.469,2.469,0,0,0,.009,2.945,2.622,2.622,0,0,0,2.619,1.524,2.661,2.661,0,0,0,2.626-1.514,2.492,2.492,0,0,0-.017-3.005c-.643-1.026-1.231-1.791-2.583-1.368m8.855-6.369a2.109,2.109,0,0,0-.149-.95,39.753,39.753,0,0,1-1.585-3.845c-.072-.19-.139-.385-.416-.283-.295.108-.144.3-.115.489.166,1.059-.28,1.549-1.363,1.475-.818-.057-1.634-.147-2.451-.22-.137-.012-.328-.1-.369.108-.057.293.2.218.347.234.667.071,1.337.117,2,.2.985.122,1.378.6,1.249,1.471-.109.739-.655,1.068-1.563.965-.839-.095-1.681-.176-2.522-.25-.148-.013-.4-.116-.4.165,0,.2.22.148.353.163.889.1,1.779.188,2.669.281q1.265.132,1.192,1.307a1.11,1.11,0,0,1-1.353,1.117c-.719-.051-1.435-.135-2.154-.191-.147-.011-.395-.12-.4.16,0,.206.217.154.349.168,1.186.127,2.371.3,3.56.358a2.953,2.953,0,0,0,3.116-2.92M32.916,46.138c-.672.083-1.285.141-1.893.238-.581.092-1.4-.254-1.686.156s-.113,1.193-.091,1.81c.026.709-.329,1.666.138,2.063.532.452,1.476.075,2.24.055.05,0,.1-.009.149-.007.208.009.314-.069.323-.3a14.55,14.55,0,0,1,.819-4.02M15.083,38.5c2.584,0,5.092,0,7.6-.005.152,0,.372.105.449-.125.061-.182-.061-.331-.176-.464a.979.979,0,0,0-.8-.315q-3.017.009-6.034.014c-.543,0-.878.252-1.036.894m32.875,5.291H43.711a2.477,2.477,0,0,0,4.247,0" transform="translate(0 0)" fill="#030302"/>
        <path id="Trazado_660683" data-name="Trazado 660683" d="M141.085,162.121c-.939.284-1.1.5-1.124,1.479-.016.567.241,1.3-.106,1.658-.381.393-1.129.119-1.716.127-1.591.022-3.182-.008-4.773.017a.873.873,0,0,1-.926-.523,4.234,4.234,0,0,0-6.143-1.531.687.687,0,0,1-.9-.01,4.272,4.272,0,0,0-6.194,1.61c-.09.161-.1.461-.358.4s-.131-.337-.135-.515c-.015-.646.025-1.295-.016-1.938-.031-.474.112-.585.582-.541a19.19,19.19,0,0,0,18.847-10.147,4.14,4.14,0,1,0-7.278-3.919,10.783,10.783,0,0,1-4.131,4.388,1.312,1.312,0,0,0-.689,1.625,25.993,25.993,0,0,1-2.886.916,1.356,1.356,0,0,0-1.564-1.043c-2.51.071-2.511.051-3.406-2.3-.088-.232-.178-.463-.259-.7a2.512,2.512,0,0,0-2.883-1.842,10.229,10.229,0,0,1,3.25-6.565.714.714,0,0,1,.873-.17,1.319,1.319,0,0,0,.355.106,3.665,3.665,0,0,1,3.126,2.16,4.053,4.053,0,0,0,4.4,2,4.455,4.455,0,0,0,3.783-2.859,1.066,1.066,0,0,1,1.021-.752,12.005,12.005,0,0,0,3.441-.912.963.963,0,0,1,1.18.226,10.3,10.3,0,0,1,3.507,8.07c0,2.362,0,4.723,0,7.084,0,.975.18,1.194,1.12,1.478q0,1.458,0,2.917" transform="translate(-80.618 -99.691)" fill="#76dfdd"/>
        <path id="Trazado_660684" data-name="Trazado 660684" d="M112.165,54.173c.187-.277.291-.427.521.024a3.991,3.991,0,0,0,5.912,1.671,9.069,9.069,0,0,0,2.028-1.737c1.728,3.038,6.117,3.423,8.986.667a14.783,14.783,0,0,0,2.514-3.2,16.563,16.563,0,0,0,1.606,1.712c.789.68,1.208.685,2,0a6.483,6.483,0,0,0,3.114.9c.356.954.758,1.152,1.944.836.488-.13.706-.139.688.472a1.035,1.035,0,0,0,.907,1.1c2.32.473,3.32,1.442,3.752,3.77a5.845,5.845,0,0,1-.817,4.427,3.158,3.158,0,0,1-3.054,1.616c-.8-.072-1.133.389-1.355,1.085a13.908,13.908,0,0,1-10.858,9.908,5.9,5.9,0,0,1-1.175.185,56.258,56.258,0,0,1-8.776-.154c-.016-.215-.2-.265-.346-.35a16.663,16.663,0,0,1-2.65-1.782,14.409,14.409,0,0,1-4.9-10.933c-.1-3.4-.035-6.815-.043-10.222M122.8,66.842c-1.269,0-2.537-.01-3.806,0a2.2,2.2,0,0,0-2.406,2.843,6.249,6.249,0,0,0,12.4-.112,2.167,2.167,0,0,0-2.312-2.728c-1.293-.023-2.587,0-3.88-.005m22.155-5.147a5.2,5.2,0,0,0-.387-1.954,1.078,1.078,0,0,0-1.521-.612,1.114,1.114,0,0,0-.531,1.513,1.855,1.855,0,0,1-.661,2.468.979.979,0,0,0-.211,1.453,1.09,1.09,0,0,0,1.507.321,3.435,3.435,0,0,0,1.8-3.189m-24.259.772c-.183,2.324,1.243,2.752,2.647,2.6a1.054,1.054,0,0,0,1.017-1.091.971.971,0,0,0-.9-1.087c-.486-.038-.577-.242-.532-.652a1.939,1.939,0,0,0-.017-.593,1.068,1.068,0,0,0-1.144-.956A1.043,1.043,0,0,0,120.7,61.72c-.025.271,0,.546,0,.747m-5.339-1.01h0c0-.348.024-.7-.005-1.043a1,1,0,0,0-1-1,.982.982,0,0,0-1.148.832,6.487,6.487,0,0,0,.005,2.369.992.992,0,0,0,1.153.831,1.027,1.027,0,0,0,1-1.02c.024-.321,0-.646,0-.969M131.9,61.4c0-.3.015-.6,0-.895a1.109,1.109,0,0,0-2.215-.063,12.584,12.584,0,0,0,.009,2.012,1.057,1.057,0,0,0,1.106,1,1.091,1.091,0,0,0,1.1-1.086c.022-.322,0-.646.005-.969" transform="translate(-78.604 -36.161)" fill="#f5d4b5"/>
        <path id="Trazado_660685" data-name="Trazado 660685" d="M134.709,22.731a6.482,6.482,0,0,1-3.114-.9,1.337,1.337,0,0,0-.471-1.647,7.912,7.912,0,0,1-2.073-2.7,1.221,1.221,0,0,0-1.115-.846c-.6,0-.906.395-1.145.907a11.438,11.438,0,0,1-3.32,4.513,3.7,3.7,0,0,1-3.432.715,1.845,1.845,0,0,1-1.55-2.255,7.86,7.86,0,0,1,.181-1.024,1.053,1.053,0,0,0-.653-1.336,1.093,1.093,0,0,0-1.413.506,16.755,16.755,0,0,1-1.885,2.583,5.358,5.358,0,0,1-1.749,1.365,1.71,1.71,0,0,1-2.539-1.537,6.374,6.374,0,0,1,.463-2.619c.318-.883.164-1.417-.482-1.715-.622-.287-1.17-.019-1.592.788a10.83,10.83,0,0,1-2.552,3.621,8.746,8.746,0,0,1,.018-1.485,16.584,16.584,0,0,1,7.357-11.371,12.611,12.611,0,0,0,2.172-1.328c3.938-.233,7.924-.721,11.747.574a15.022,15.022,0,0,1,10.544,12.267.868.868,0,0,1-.479,1.03,4.929,4.929,0,0,1-1.748.6,1.219,1.219,0,0,0-1.17,1.295" transform="translate(-74.464 -4.681)" fill="#e8963e"/>
        <path id="Trazado_660686" data-name="Trazado 660686" d="M49.393,136.24c3.9-.008,7.808-.012,11.713-.031.376,0,.515.087.514.493q-.02,7.275,0,14.549c0,.407-.138.5-.514.493-3.9-.019-7.808-.023-11.713-.031,0-.9-.007-1.808,0-2.713,0-.257-.081-.551.214-.726.609,1.208,1.491,1.581,2.6.868a2.447,2.447,0,0,1,3.1.018,1.582,1.582,0,0,0,1.953-.013,1.511,1.511,0,0,0,.619-1.781,2.431,2.431,0,0,1,1.036-3.038,1.485,1.485,0,0,0,.518-1.741,1.515,1.515,0,0,0-1.478-1.159,2.5,2.5,0,0,1-2.665-1.919,1.652,1.652,0,0,0-3.068.021,2.446,2.446,0,0,1-2.753,1.883l-.074-.006V136.24" transform="translate(-34.612 -95.466)" fill="#d6e474"/>
        <path id="Trazado_660687" data-name="Trazado 660687" d="M18.971,195.622q5.891-.012,11.782-.031c.35,0,.47.095.469.458q-.015,7.309,0,14.618c0,.363-.119.459-.469.458q-5.891-.027-11.782-.031l.005-6.129c1.075,1.029,2.143,2.066,3.227,3.085a1.529,1.529,0,0,0,2.318.029c1.387-1.316,2.773-2.638,4.095-4.018a3.444,3.444,0,0,0-.086-4.842,3.633,3.633,0,0,0-4.7-.412c-.187.126-.328.468-.675.186a3.733,3.733,0,0,0-4.186-.41q0-1.481,0-2.961" transform="translate(-13.294 -137.086)" fill="#ea877a"/>
        <path id="Trazado_660688" data-name="Trazado 660688" d="M165.48,221a1.29,1.29,0,0,1,.328.727c.253.913.5,1.106,1.475,1.107,3.029,0,6.058-.019,9.087.008A3.039,3.039,0,0,1,179.313,227a2.841,2.841,0,0,1-2.692,1.908c-3.624.04-7.248,0-10.872-.007a6.43,6.43,0,0,1-.611-1.965c.031-1.612.009-3.224.01-4.836a1.423,1.423,0,0,1,.333-1.1" transform="translate(-115.742 -154.893)" fill="#b3f4f5"/>
        <path id="Trazado_660689" data-name="Trazado 660689" d="M131.892,169.113a25.991,25.991,0,0,0,2.886-.916c.711.742,1.049.787,1.937.247a12.745,12.745,0,0,0,4.781-5.088,2.034,2.034,0,0,1,1.683-1.29,1.807,1.807,0,0,1,1.74.789,1.878,1.878,0,0,1,.068,2.044,16.6,16.6,0,0,1-6.832,7.063,17.174,17.174,0,0,1-10.048,2.059c-.534-.046-.8-.13-.386-.726a4.2,4.2,0,0,0,.769-2.522c-.008-.4.127-.511.514-.477a12.822,12.822,0,0,0,1.415.022c1.006-.023,1.225-.209,1.475-1.207" transform="translate(-89.374 -113.584)" fill="#b3f4f5"/>
        <path id="Trazado_660690" data-name="Trazado 660690" d="M104.151,60.217c.008,3.408-.06,6.818.043,10.222a14.408,14.408,0,0,0,4.9,10.933,16.622,16.622,0,0,0,2.65,1.782c.147.085.331.136.346.351A12.677,12.677,0,0,1,100.9,72.092c-.348-3.272-.089-6.559-.163-9.838-.006-.257.047-.427.342-.463a6.117,6.117,0,0,0,3.068-1.574" transform="translate(-70.59 -42.205)" fill="#ddbea3"/>
        <path id="Trazado_660691" data-name="Trazado 660691" d="M86.9,207.174a2.569,2.569,0,0,1,1.24.02,6.047,6.047,0,0,0,2.508-.163c.36-.114.47-.013.469.367q-.016,5.633,0,11.265c0,.374-.138.45-.477.449q-5.893-.026-11.786-.03.018-2.434.036-4.868c.159.249.325.494.475.749a3.018,3.018,0,0,0,2.693,1.566c.817.02,1.636.022,2.453,0a3.007,3.007,0,0,0,2.686-1.576c.383-.665.766-1.329,1.159-1.988a2.971,2.971,0,0,0,.008-3.233c-.5-.849-.968-1.712-1.451-2.569Z" transform="translate(-55.269 -145.074)" fill="#f5c443"/>
        <path id="Trazado_660692" data-name="Trazado 660692" d="M41.494,148.271c-.295.176-.212.469-.214.726-.007.9,0,1.808,0,2.713-.992.008-1.985,0-2.976.032-.4.013-.5-.13-.5-.51q.016-7.259,0-14.517c0-.38.1-.523.5-.51.991.033,1.984.024,2.976.032V141.4c-1.577.6-1.853,1.894-.658,3.068.278.274.546.558.819.838a2.344,2.344,0,0,0,.039,1.976q.007.493.015.985" transform="translate(-26.499 -95.463)" fill="#c2ce69"/>
        <path id="Trazado_660693" data-name="Trazado 660693" d="M70.852,206.224q-.018,2.434-.036,4.868c-.992.008-1.984,0-2.975.031-.366.01-.457-.128-.457-.473q.013-7.294,0-14.587c0-.346.091-.484.457-.474.991.028,1.983.023,2.975.031l.016,4.853a3.908,3.908,0,0,1-.616,1.167,3.047,3.047,0,0,0,0,3.421c.231.377.426.776.638,1.164" transform="translate(-47.228 -137.084)" fill="#dbb03b"/>
        <path id="Trazado_660694" data-name="Trazado 660694" d="M10.914,195.621q0,1.481,0,2.961c-1.642,1.34-2.126,2.793-1.516,4.4a7.9,7.9,0,0,0,1.524,1.983q0,3.064-.005,6.129c-.993.008-1.986,0-2.978.031-.358.01-.464-.112-.463-.466q.014-7.3,0-14.6c0-.354.1-.476.463-.466.992.027,1.986.022,2.978.031" transform="translate(-5.237 -137.086)" fill="#d2796d"/>
        <path id="Trazado_660695" data-name="Trazado 660695" d="M107.541,7.636a12.632,12.632,0,0,1-2.172,1.328,16.584,16.584,0,0,0-7.357,11.371,8.749,8.749,0,0,0-.018,1.485,2.737,2.737,0,0,1-3.113.753.58.58,0,0,1-.443-.654,15.354,15.354,0,0,1,13.1-14.284" transform="translate(-66.19 -5.352)" fill="#cf8537"/>
        <path id="Trazado_660696" data-name="Trazado 660696" d="M127.284,223.713c0-.845.02-1.691-.008-2.535-.014-.419.112-.548.541-.554,1.4-.022,1.4-.041,1.848-1.38a2.078,2.078,0,0,1,2.666-1.255.975.975,0,0,1,.726,1.216,29.358,29.358,0,0,0,0,6.17.972.972,0,0,1-.73,1.213,2.639,2.639,0,0,1-.951.142c-1.143,0-2.287-.027-3.43.01-.5.016-.7-.093-.67-.641.049-.792.013-1.59.013-2.385" transform="translate(-89.2 -152.694)" fill="#b3f4f5"/>
        <path id="Trazado_660697" data-name="Trazado 660697" d="M86.369,211.615c1.351-.424,1.939.342,2.583,1.368a2.492,2.492,0,0,1,.017,3.005,2.662,2.662,0,0,1-2.626,1.514,2.622,2.622,0,0,1-2.619-1.524,2.469,2.469,0,0,1-.009-2.945c.671-1.069,1.286-1.879,2.655-1.417" transform="translate(-58.335 -148.224)" fill="#d6e474"/>
        <path id="Trazado_660698" data-name="Trazado 660698" d="M157.464,218.8a1.423,1.423,0,0,0-.333,1.1c0,1.612.021,3.224-.01,4.836a6.43,6.43,0,0,0,.611,1.965c-.67.009-1.341.049-2.009.019a2.013,2.013,0,0,1-2-2c-.04-1.613-.033-3.229,0-4.842a2.015,2.015,0,0,1,1.482-1.93,1.985,1.985,0,0,1,2.256.858" transform="translate(-107.726 -152.691)" fill="#a0dbdc"/>
        <path id="Trazado_660699" data-name="Trazado 660699" d="M106.148,178.669a2.953,2.953,0,0,1-3.116,2.92c-1.19-.063-2.374-.231-3.56-.358-.132-.014-.354.038-.349-.168.007-.279.254-.171.4-.16.718.055,1.435.14,2.154.191a1.109,1.109,0,0,0,1.353-1.117q.073-1.175-1.192-1.307c-.89-.093-1.78-.183-2.669-.281-.133-.015-.353.038-.352-.163,0-.281.249-.178.4-.165.841.074,1.683.156,2.522.25.908.1,1.453-.227,1.563-.965.129-.874-.264-1.349-1.249-1.471-.666-.082-1.336-.127-2-.2-.148-.016-.4.059-.347-.234.041-.21.232-.12.369-.108.817.073,1.633.163,2.451.219,1.083.075,1.529-.415,1.363-1.474-.029-.185-.18-.381.115-.489.277-.1.344.093.416.283A39.754,39.754,0,0,0,106,177.72a2.1,2.1,0,0,1,.149.95" transform="translate(-69.26 -121.648)" fill="#f5d4b5"/>
        <path id="Trazado_660700" data-name="Trazado 660700" d="M101.2,154.244a14.57,14.57,0,0,0-.819,4.02c-.009.227-.115.305-.323.3-.049,0-.1.005-.149.007-.765.02-1.709.4-2.24-.055-.468-.4-.113-1.355-.139-2.064-.022-.616-.2-1.386.091-1.81s1.105-.064,1.686-.156c.607-.1,1.221-.155,1.892-.238" transform="translate(-68.283 -108.107)" fill="#b3f4f5"/>
        <path id="Trazado_660701" data-name="Trazado 660701" d="M78.873,200.471q-.008-2.426-.016-4.853c1.193-.008,2.386,0,3.579-.031.378-.008.525.072.458.49a2.382,2.382,0,0,0,.562,2.089c-.45,0-.733.01-1.016,0A3.189,3.189,0,0,0,79.213,200a3.883,3.883,0,0,1-.34.476" transform="translate(-55.269 -137.083)" fill="#f5c443"/>
        <path id="Trazado_660702" data-name="Trazado 660702" d="M50.425,126.576a.982.982,0,0,1,1.036-.894q3.017,0,6.034-.014a.978.978,0,0,1,.8.315c.115.134.237.282.176.464-.077.23-.3.124-.449.125-2.508.007-5.015.005-7.6.005" transform="translate(-35.342 -88.078)" fill="#c2ce69"/>
        <path id="Trazado_660703" data-name="Trazado 660703" d="M150.38,146.392a2.477,2.477,0,0,1-4.247,0Z" transform="translate(-102.422 -102.603)" fill="#ddbea3"/>
        <path id="Trazado_660704" data-name="Trazado 660704" d="M105.591,207.365l-.09-.076c.022,0,.047-.019.065-.013.064.022.066.059.01.1l.015-.01" transform="translate(-73.944 -145.275)" fill="#f5c443"/>
        <path id="Trazado_660705" data-name="Trazado 660705" d="M133.067,102.557c1.293,0,2.587-.018,3.88,0a2.167,2.167,0,0,1,2.312,2.728,6.249,6.249,0,0,1-12.4.112,2.2,2.2,0,0,1,2.406-2.843c1.268-.013,2.537,0,3.806,0m1.037,5.858a3.907,3.907,0,0,0,2.89-3.122c.055-.359,0-.5-.383-.493-1.332.022-2.665.028-4,.039-1.038-.018-2.077-.028-3.115-.057-.445-.012-.458.192-.39.56a3.964,3.964,0,0,0,4.994,3.072" transform="translate(-88.874 -71.876)" fill="#030302"/>
        <path id="Trazado_660706" data-name="Trazado 660706" d="M213.528,79.054a3.434,3.434,0,0,1-1.8,3.189,1.09,1.09,0,0,1-1.507-.321.979.979,0,0,1,.211-1.453A1.855,1.855,0,0,0,211.09,78a1.113,1.113,0,0,1,.531-1.513,1.077,1.077,0,0,1,1.52.612,5.188,5.188,0,0,1,.386,1.953" transform="translate(-147.18 -53.521)" fill="#030302"/>
        <path id="Trazado_660707" data-name="Trazado 660707" d="M140.675,83.773c0-.2-.021-.476,0-.747a1.043,1.043,0,0,1,1.064-1.033,1.068,1.068,0,0,1,1.144.955,1.923,1.923,0,0,1,.017.593c-.045.41.046.614.532.651a.971.971,0,0,1,.9,1.087,1.054,1.054,0,0,1-1.017,1.091c-1.4.155-2.831-.273-2.647-2.6" transform="translate(-98.585 -57.466)" fill="#030302"/>
        <path id="Trazado_660708" data-name="Trazado 660708" d="M117.552,79.775c0,.323.02.648,0,.969a1.027,1.027,0,0,1-1,1.02.992.992,0,0,1-1.153-.831,6.474,6.474,0,0,1-.005-2.369.981.981,0,0,1,1.147-.832,1,1,0,0,1,1,1c.029.345.005.7.005,1.043h0" transform="translate(-80.802 -54.479)" fill="#030302"/>
        <path id="Trazado_660709" data-name="Trazado 660709" d="M172.908,79.711c0,.323.017.648,0,.969a1.091,1.091,0,0,1-1.1,1.086,1.057,1.057,0,0,1-1.106-1,12.584,12.584,0,0,1-.009-2.012,1.109,1.109,0,0,1,2.215.063c.018.3,0,.6,0,.895" transform="translate(-119.609 -54.47)" fill="#030302"/>
        <path id="Trazado_660710" data-name="Trazado 660710" d="M46.354,153.6q-.008-.493-.015-.985c.082-.409.162-.819.246-1.228.063-.31.057-.593-.284-.749-.273-.279-.541-.564-.819-.838-1.194-1.174-.919-2.464.658-3.068l.074.006a2.446,2.446,0,0,0,2.753-1.883,1.652,1.652,0,0,1,3.068-.021,2.5,2.5,0,0,0,2.666,1.919,1.514,1.514,0,0,1,1.478,1.159,1.485,1.485,0,0,1-.518,1.741,2.43,2.43,0,0,0-1.036,3.037,1.512,1.512,0,0,1-.62,1.782,1.581,1.581,0,0,1-1.953.013,2.448,2.448,0,0,0-3.1-.019c-1.112.713-1.994.339-2.6-.868m5.854-1.5c-.019-.765-.3-1.336-.118-1.937.172-.573.864-.767,1.074-1.457-1.5.21-2.2-.624-2.682-2.11-.4,1.579-1.229,2.3-2.759,2.231a2.526,2.526,0,0,1,1.109,3.21,2.383,2.383,0,0,1,3.375.064" transform="translate(-31.359 -100.789)" fill="#030302"/>
        <path id="Trazado_660711" data-name="Trazado 660711" d="M14.83,210.92a7.888,7.888,0,0,1-1.524-1.983c-.61-1.606-.126-3.059,1.516-4.4a3.733,3.733,0,0,1,4.187.41c.346.281.487-.06.675-.186a3.633,3.633,0,0,1,4.7.412,3.444,3.444,0,0,1,.086,4.842c-1.323,1.38-2.708,2.7-4.095,4.018A1.529,1.529,0,0,1,18.057,214c-1.085-1.019-2.152-2.056-3.227-3.085m1.788-4.591a1.33,1.33,0,0,0-1.192.785,1.184,1.184,0,0,0,.263,1.438c1.089,1.09,2.2,2.155,3.3,3.239.179.177.3.2.482.013,1.112-1.1,2.253-2.176,3.344-3.3a1.2,1.2,0,0,0,.034-1.692,1.332,1.332,0,0,0-1.688-.311,3.613,3.613,0,0,0-.689.561c-1.081,1.042-1.408,1.049-2.461.006a1.959,1.959,0,0,0-1.391-.742" transform="translate(-9.148 -143.041)" fill="#030302"/>
        <path id="Trazado_660712" data-name="Trazado 660712" d="M49.485,166.645c.342.156.348.439.284.749q-.124.613-.246,1.227a2.344,2.344,0,0,1-.039-1.976" transform="translate(-34.544 -116.798)" fill="#d6e474"/>
        <path id="Trazado_660713" data-name="Trazado 660713" d="M139.438,113.647a3.964,3.964,0,0,1-4.994-3.072c-.068-.368-.055-.572.39-.56,1.038.029,2.077.039,3.115.057a4.418,4.418,0,0,0,.234,1.6c.223.8.923,1.266,1.256,1.977" transform="translate(-94.208 -77.108)" fill="#d2796d"/>
        <path id="Trazado_660714" data-name="Trazado 660714" d="M147.7,113.688c-.333-.711-1.033-1.175-1.256-1.977a4.417,4.417,0,0,1-.234-1.6c1.332-.012,2.665-.017,4-.039.38-.007.438.134.383.493a3.907,3.907,0,0,1-2.89,3.122" transform="translate(-102.466 -77.148)" fill="#ea877a"/>
        <path id="Trazado_660715" data-name="Trazado 660715" d="M59.2,158.628a2.383,2.383,0,0,0-3.375-.064,2.526,2.526,0,0,0-1.109-3.21c1.529.068,2.358-.652,2.759-2.231.479,1.486,1.185,2.319,2.682,2.11-.211.691-.9.885-1.074,1.457-.18.6.1,1.172.118,1.937" transform="translate(-38.347 -107.322)" fill="#c2ce69"/>
        <path id="Trazado_660716" data-name="Trazado 660716" d="M21.859,211.576a1.959,1.959,0,0,1,1.391.742c1.053,1.043,1.38,1.036,2.461-.006a3.612,3.612,0,0,1,.689-.561,1.332,1.332,0,0,1,1.688.311,1.2,1.2,0,0,1-.034,1.692c-1.091,1.122-2.232,2.2-3.344,3.3-.187.185-.3.164-.482-.013-1.095-1.085-2.209-2.149-3.3-3.239a1.184,1.184,0,0,1-.263-1.438,1.331,1.331,0,0,1,1.192-.785" transform="translate(-14.39 -148.289)" fill="#d95954"/>
      </g>
    </g>
  </g>
</svg>
