<svg xmlns="http://www.w3.org/2000/svg" xmlns:xlink="http://www.w3.org/1999/xlink" width="105.119" height="105.119" viewBox="0 0 105.119 105.119">
  <defs>
    <clipPath id="clip-path">
      <rect id="Rectángulo_313023" data-name="Rectángulo 313023" width="100.628" height="100.752" fill="none"/>
    </clipPath>
  </defs>
  <g id="Grupo_996299" data-name="Grupo 996299" transform="translate(-184.796 -1136.796)">
    <g id="Grupo_995637" data-name="Grupo 995637" transform="translate(184.796 1136.796)">
      <circle id="Elipse_8159" data-name="Elipse 8159" cx="52.56" cy="52.56" r="52.56" transform="translate(0 0)" fill="#f46464"/>
    </g>
    <g id="Grupo_996343" data-name="Grupo 996343" transform="translate(187.287 1138.979)">
      <g id="Grupo_996343-2" data-name="Grupo 996343" clip-path="url(#clip-path)">
        <path id="Trazado_660548" data-name="Trazado 660548" d="M80.97,53.574a11.159,11.159,0,0,0,1.787,1.8c-.782,1.306-.773,2.006.2,2.99q5.323,5.381,10.692,10.716a2.818,2.818,0,0,0,4.427-3.474c-1.005-1.761-2.083-3.481-3.139-5.213a3.9,3.9,0,0,1-.3-3.845,3.655,3.655,0,0,1,3.219-2.234,3.9,3.9,0,0,1,3.713,1.939c2.82,4.218,5.665,8.419,8.462,12.651a25.833,25.833,0,0,1,4.423,14.429c.009,2.787.014,5.575-.011,8.361a3.16,3.16,0,0,0,1,2.45c1.531,1.481,3.013,3.011,4.524,4.511,1.149,1.14,1.979,1.191,3.259.229a10.345,10.345,0,0,0,2.395,2.571,2.148,2.148,0,0,0,.008,2.918c-.2.167-.412.32-.6.5q-9.113,9.119-18.219,18.246c-.183.183-.334.4-.5.6-3.133-3.122-6.329-6.185-9.369-9.4a5.335,5.335,0,0,0-4.489-1.835,38.27,38.27,0,0,1-7.55-.226,23.031,23.031,0,0,1-5.4-1.406c1.379-.981,2.716-1.819,3.923-2.813A6.094,6.094,0,0,0,84,99.416a6.565,6.565,0,0,0-4.672-2.168c.3-.334.509-.574.731-.8,2.244-2.254,4.5-4.491,6.734-6.759,3.182-3.235,2.647-7.588-1.215-9.958-.332-.2-.449-.334-.267-.744a6.083,6.083,0,0,0-8.044-8.126c-.351.15-.536.164-.775-.2-2.6-4.022-6.768-4.467-10.138-1.078-.77.774-1.465,1.624-2.242,2.491-2-3.272-4.716-4.369-7.727-3.338a8.058,8.058,0,0,0-3,2.149c-.191.19-.356.659-.763.238-1.73-1.792-3.664-3.394-5.209-5.351a3.739,3.739,0,0,1,5.649-4.835c.808.767,1.575,1.577,2.368,2.361.839.829,1.643,1.7,2.542,2.459a1.843,1.843,0,0,0,2.58-.134,1.911,1.911,0,0,0,.118-2.6,7.489,7.489,0,0,0-.732-.794q-3.856-3.865-7.713-7.727a3.683,3.683,0,0,1-.983-4.056,3.588,3.588,0,0,1,3.134-2.478,3.972,3.972,0,0,1,3.405,1.4q6.933,6.976,13.887,13.933a6.757,6.757,0,0,0,.954.843,1.915,1.915,0,0,0,2.679-2.61,5.369,5.369,0,0,0-.752-.9q-5.13-5.164-10.27-10.317A3.765,3.765,0,0,1,64,44.81,3.813,3.813,0,0,1,69.592,45c1.169,1.15,2.315,2.322,3.478,3.477,1.132,1.125,1.705,1.22,3.137.547.8.39,1.141,1.353,2.024,1.641a2.9,2.9,0,0,0-.59,1.109,1.9,1.9,0,0,0,.792,1.975,2.083,2.083,0,0,0,2.537-.18m11.822,32.8A9.293,9.293,0,0,0,95.431,92.6a1.932,1.932,0,0,0,2.729.232,1.9,1.9,0,0,0,.312-2.644c-.18-.273-.394-.523-.595-.782a5.388,5.388,0,0,1,.041-6.727c.367-.458.811-.856,1.195-1.3a2.011,2.011,0,0,0,.035-2.83,1.936,1.936,0,0,0-2.747.016,10.114,10.114,0,0,0-3.608,7.811" transform="translate(-28.308 -26.477)" fill="#f6d3b0"/>
        <path id="Trazado_660549" data-name="Trazado 660549" d="M47.9,42.944c-1.432.673-2.006.578-3.137-.547-1.163-1.156-2.309-2.327-3.478-3.477a3.813,3.813,0,0,0-5.591-.194,3.765,3.765,0,0,0,.269,5.516Q41.1,49.4,46.232,54.558a5.348,5.348,0,0,1,.752.9,1.915,1.915,0,0,1-2.678,2.61,6.758,6.758,0,0,1-.954-.842Q36.4,50.264,29.464,43.292a3.97,3.97,0,0,0-3.405-1.4,3.589,3.589,0,0,0-3.135,2.478,3.684,3.684,0,0,0,.983,4.056q3.847,3.873,7.714,7.727a7.485,7.485,0,0,1,.731.794,1.911,1.911,0,0,1-.117,2.6,1.844,1.844,0,0,1-2.58.134c-.9-.759-1.7-1.63-2.542-2.459-.793-.784-1.56-1.594-2.368-2.361a3.739,3.739,0,0,0-5.65,4.835c1.545,1.957,3.48,3.559,5.209,5.351.407.421.572-.048.763-.238a8.055,8.055,0,0,1,3-2.149c3.011-1.031,5.723.066,7.727,3.338.777-.868,1.472-1.717,2.242-2.491,3.37-3.388,7.536-2.944,10.138,1.078.239.369.424.354.775.2A6.083,6.083,0,0,1,57,72.906c-.182.41-.065.54.267.744,3.862,2.37,4.4,6.723,1.215,9.958-2.23,2.268-4.49,4.505-6.734,6.759-.222.223-.426.463-.731.8a6.565,6.565,0,0,1,4.673,2.168,6.094,6.094,0,0,1-.563,8.631c-1.207.995-2.544,1.832-3.923,2.813a23,23,0,0,0,5.4,1.406,38.276,38.276,0,0,0,7.551.226,5.335,5.335,0,0,1,4.489,1.835c3.04,3.21,6.236,6.273,9.369,9.4.616,1.165.6,2.016-.057,2.711-.817.866-2.016.806-3.038-.2-1.889-1.866-3.756-3.754-5.632-5.633-1.135-1.137-2.294-2.25-3.394-3.42a2.1,2.1,0,0,0-1.708-.726,43.684,43.684,0,0,1-9.977-.617,30.363,30.363,0,0,1-6.226-2.027,1.308,1.308,0,0,0-1.5.154,23.519,23.519,0,0,1-9.985,4.323,49.492,49.492,0,0,1-8.136.271,2.279,2.279,0,0,0-1.781.769q-3.478,3.545-7.013,7.034c-.988.982-1.9,1.119-2.8.481-1-.705-1.067-1.661-.23-3.111.245-.213.5-.412.731-.64,2.481-2.478,4.969-4.951,7.429-7.45a3.131,3.131,0,0,1,2.443-1.014c2,.041,4,.028,5.994.006a16.641,16.641,0,0,0,8.18-2.1c3.784-2.156,7.269-4.782,10.9-7.173a2.366,2.366,0,0,0,.5-.474,2.08,2.08,0,0,0,.332-2.371,2.223,2.223,0,0,0-3.327-.885c-1.251.709-2.451,1.511-3.7,2.22a2.544,2.544,0,0,1-3.847-1.157,2.77,2.77,0,0,1,.928-3.165q6.3-6.286,12.576-12.594c1.147-1.153,1.23-2.444.261-3.377-.943-.908-2.173-.791-3.294.326q-2.925,2.916-5.842,5.84c-.974.973-1.935,1.959-2.924,2.917a2.039,2.039,0,0,1-2.971.228,1.993,1.993,0,0,1,.158-2.973c.178-.192.369-.373.555-.558Q47.041,77.828,52.463,72.4a6.1,6.1,0,0,0,.88-1.048,2.067,2.067,0,0,0-.349-2.609,2.1,2.1,0,0,0-2.62-.23,6.7,6.7,0,0,0-.959.837q-5.6,5.6-11.179,11.21a2.39,2.39,0,0,1-1.958.93,1.841,1.841,0,0,1-1.637-1.229,2.1,2.1,0,0,1,.633-2.317q4.243-4.241,8.469-8.5c.185-.186.379-.364.552-.56a2.181,2.181,0,0,0,.056-3.02,2.143,2.143,0,0,0-2.936-.131,7.568,7.568,0,0,0-.72.666q-4.1,4.11-8.188,8.222c-1.207,1.211-2.339,1.375-3.251.486s-.743-2.082.422-3.257c.623-.628,1.262-1.242,1.873-1.881a2.141,2.141,0,1,0-2.895-3.156,5.048,5.048,0,0,0-.431.4Q23.151,72.3,18.08,77.377a18.7,18.7,0,0,0-4.9,8.381,25.452,25.452,0,0,0-.586,7.716,4.08,4.08,0,0,1-1.361,3.3c-2.623,2.56-5.166,5.2-7.74,7.813-.471.212-.87.6-1.427.6a1.937,1.937,0,0,1-1.737-.92,1.751,1.751,0,0,1-.067-1.951,5.13,5.13,0,0,1,.81-.979c2.31-2.326,4.616-4.656,6.957-6.95a1.874,1.874,0,0,0,.617-1.547A24.677,24.677,0,0,1,10.4,81.782a19.691,19.691,0,0,1,2.714-4.644c.491-.6.574-.932-.05-1.567a7.6,7.6,0,0,1-1.353-9.534,7.1,7.1,0,0,1,3.8-3.252c.59-.22.681-.357.315-.917A7.647,7.647,0,0,1,19.442,50.4c.526-.208.73-.312.39-.922A7.633,7.633,0,0,1,24.67,38.148,7.226,7.226,0,0,1,30.338,39c.376.226.572.393.82-.219,2.215-5.441,8.324-6.823,12.669-2.863,1.38,1.257,2.675,2.609,3.972,3.955.961,1,.956,1.739.1,3.075M18.417,66.2a3.764,3.764,0,0,0-3.671,2.565,4.061,4.061,0,0,0,1.413,4.38c.288.222.429.166.643-.05q2.312-2.331,4.637-4.647c.206-.206.326-.36.071-.634A4.029,4.029,0,0,0,18.417,66.2" transform="translate(0 -20.392)" fill="#030302"/>
        <path id="Trazado_660550" data-name="Trazado 660550" d="M8.875,153.181c2.575-2.61,5.118-5.253,7.74-7.813a4.08,4.08,0,0,0,1.361-3.3,25.44,25.44,0,0,1,.586-7.716,18.7,18.7,0,0,1,4.9-8.381q5.069-5.083,10.146-10.157a5.105,5.105,0,0,1,.43-.4,2.142,2.142,0,1,1,2.895,3.156c-.611.64-1.25,1.253-1.873,1.881-1.165,1.175-1.319,2.381-.422,3.257s2.044.725,3.251-.486q4.1-4.108,8.188-8.222a7.567,7.567,0,0,1,.72-.666,2.143,2.143,0,0,1,2.936.131,2.181,2.181,0,0,1-.056,3.02c-.174.2-.367.374-.553.56q-4.233,4.25-8.469,8.5a2.106,2.106,0,0,0-.634,2.317,1.841,1.841,0,0,0,1.638,1.229,2.39,2.39,0,0,0,1.958-.93q5.584-5.61,11.179-11.21a6.722,6.722,0,0,1,.958-.837,2.1,2.1,0,0,1,2.62.23,2.066,2.066,0,0,1,.349,2.609A6.083,6.083,0,0,1,57.842,121Q52.425,126.428,47,131.845c-.185.185-.376.366-.554.558a1.993,1.993,0,0,0-.158,2.973,2.039,2.039,0,0,0,2.971-.228c.989-.958,1.95-1.943,2.924-2.917q2.92-2.92,5.842-5.84c1.12-1.117,2.351-1.234,3.294-.326.969.934.887,2.225-.261,3.378q-6.277,6.308-12.576,12.594a2.77,2.77,0,0,0-.928,3.165,2.544,2.544,0,0,0,3.847,1.157c1.252-.709,2.451-1.511,3.7-2.22a2.223,2.223,0,0,1,3.327.885,2.081,2.081,0,0,1-.332,2.371,2.365,2.365,0,0,1-.5.474c-3.635,2.391-7.12,5.016-10.9,7.173a16.641,16.641,0,0,1-8.18,2.1c-2,.022-4,.035-5.993-.006a3.135,3.135,0,0,0-2.444,1.014c-2.46,2.5-4.948,4.972-7.429,7.45-.228.228-.486.427-.731.64-.4-.047-.61-.359-.86-.609q-5.789-5.791-11.571-11.588c-.25-.25-.561-.465-.609-.861" transform="translate(-5.379 -68.986)" fill="#f5cba1"/>
        <path id="Trazado_660551" data-name="Trazado 660551" d="M177.848,109.14c-1.28.962-2.11.911-3.259-.229-1.512-1.5-2.994-3.03-4.524-4.511a3.158,3.158,0,0,1-1-2.45c.024-2.787.019-5.574.011-8.361a25.833,25.833,0,0,0-4.423-14.429c-2.8-4.233-5.642-8.434-8.462-12.651a3.9,3.9,0,0,0-3.713-1.939,3.653,3.653,0,0,0-3.219,2.234,3.9,3.9,0,0,0,.3,3.845c1.056,1.731,2.134,3.452,3.139,5.213a2.818,2.818,0,0,1-4.427,3.474q-5.361-5.342-10.692-10.716c-.974-.985-.983-1.684-.2-2.99,1.34-.8,2.018-.73,3.126.365,1.488,1.471,2.962,2.957,4.478,4.472a2.073,2.073,0,0,0,.035-1.169,7.817,7.817,0,0,1,14.356-5.076c3.078,4.516,6.127,9.055,9.08,13.653a29.135,29.135,0,0,1,4.564,16.308c-.017,2.3.007,4.592-.026,6.888a1.5,1.5,0,0,0,.5,1.2c1.312,1.282,2.606,2.585,3.9,3.891a2.1,2.1,0,0,1,.459,2.982" transform="translate(-82.927 -36.729)" fill="#030303"/>
        <path id="Trazado_660552" data-name="Trazado 660552" d="M20.691,6.8a6.776,6.776,0,0,1-1.312,3.937,35.317,35.317,0,0,1-7.707,7.924,1.956,1.956,0,0,1-2.614-.007,35.744,35.744,0,0,1-7.707-7.925A6.627,6.627,0,0,1,1.77,2.3,6.67,6.67,0,0,1,9.879.718a1.034,1.034,0,0,0,.991,0A6.787,6.787,0,0,1,20.691,6.8m-3.937.017A2.93,2.93,0,0,0,15.136,4.2a2.7,2.7,0,0,0-3.027.355c-1.535,1.186-1.955,1.186-3.494-.012A2.841,2.841,0,0,0,4.167,5.775a2.925,2.925,0,0,0,.49,2.862A30.987,30.987,0,0,0,10,14.353c.283.254.462.234.735-.009a31.019,31.019,0,0,0,5.288-5.638,3.331,3.331,0,0,0,.727-1.891" transform="translate(-0.025 0)" fill="#030203"/>
        <path id="Trazado_660553" data-name="Trazado 660553" d="M210.044,26.888a6.2,6.2,0,0,1,2.7.687,1.138,1.138,0,0,0,1.164.046,6.775,6.775,0,0,1,8.438,10.09,36.245,36.245,0,0,1-7.646,7.85A1.982,1.982,0,0,1,212,45.55a35.658,35.658,0,0,1-7.639-7.856,6.5,6.5,0,0,1-.553-7.039,6.8,6.8,0,0,1,6.233-3.767m-3.078,6.874a3.285,3.285,0,0,0,.685,1.812,24.169,24.169,0,0,0,3.893,4.4c.568.536,1.147,1.359,1.792,1.433.674.078,1.208-.87,1.768-1.4a19.88,19.88,0,0,0,4.3-5.06,2.712,2.712,0,0,0-.71-3.436,2.745,2.745,0,0,0-3.521-.084c-1.692,1.271-1.9,1.265-3.648-.011a2.642,2.642,0,0,0-2.949-.269,2.886,2.886,0,0,0-1.608,2.616" transform="translate(-123.056 -16.297)" fill="#030203"/>
        <path id="Trazado_660554" data-name="Trazado 660554" d="M246.206,192.537a2.148,2.148,0,0,1-.008-2.918,2.089,2.089,0,0,1,2.36-.206,1.927,1.927,0,0,1,.739,2.544,1.987,1.987,0,0,1-2.5.906,5.846,5.846,0,0,1-.592-.327" transform="translate(-148.882 -114.638)" fill="#050505"/>
        <path id="Trazado_660555" data-name="Trazado 660555" d="M128.538,63.667a2.083,2.083,0,0,1-2.537.18,1.906,1.906,0,0,1-.792-1.975,2.893,2.893,0,0,1,.59-1.109c1.13-.611,2-.57,2.691.129s.707,1.6.048,2.775" transform="translate(-75.876 -36.57)" fill="#050505"/>
        <path id="Trazado_660556" data-name="Trazado 660556" d="M163.717,139.169a10.114,10.114,0,0,1,3.608-7.811,1.936,1.936,0,0,1,2.747-.016,2.011,2.011,0,0,1-.035,2.83c-.384.447-.827.844-1.195,1.3a5.388,5.388,0,0,0-.041,6.727c.2.259.415.509.595.782a1.9,1.9,0,0,1-.312,2.644,1.932,1.932,0,0,1-2.729-.232,9.293,9.293,0,0,1-2.638-6.226" transform="translate(-99.233 -79.268)" fill="#030302"/>
        <path id="Trazado_660557" data-name="Trazado 660557" d="M40.835,116.294a4.029,4.029,0,0,1,3.094,1.614c.255.274.135.428-.071.634q-2.325,2.317-4.637,4.647c-.214.216-.355.272-.643.05a4.061,4.061,0,0,1-1.413-4.38,3.764,3.764,0,0,1,3.671-2.565" transform="translate(-22.418 -70.487)" fill="#f3d1ae"/>
        <path id="Trazado_660558" data-name="Trazado 660558" d="M22.808,12.807a3.336,3.336,0,0,1-.729,1.891,31.019,31.019,0,0,1-5.288,5.638c-.273.244-.452.263-.735.009a30.971,30.971,0,0,1-5.346-5.716,2.925,2.925,0,0,1-.491-2.862,2.841,2.841,0,0,1,4.448-1.229c1.54,1.2,1.959,1.2,3.494.011a2.7,2.7,0,0,1,3.027-.355,2.933,2.933,0,0,1,1.619,2.613" transform="translate(-6.078 -5.991)" fill="#eb94c0"/>
        <path id="Trazado_660559" data-name="Trazado 660559" d="M213.037,39.805a2.886,2.886,0,0,1,1.608-2.616,2.642,2.642,0,0,1,2.949.269c1.75,1.277,1.956,1.282,3.648.011a2.745,2.745,0,0,1,3.521.084,2.712,2.712,0,0,1,.71,3.436,19.881,19.881,0,0,1-4.3,5.06c-.56.527-1.094,1.475-1.768,1.4-.645-.074-1.225-.9-1.792-1.433a24.168,24.168,0,0,1-3.893-4.4,3.285,3.285,0,0,1-.685-1.812" transform="translate(-129.127 -22.341)" fill="#eb94c0"/>
      </g>
    </g>
  </g>
</svg>
