<svg xmlns="http://www.w3.org/2000/svg" xmlns:xlink="http://www.w3.org/1999/xlink" width="83.7" height="83.079" viewBox="0 0 83.7 83.079"><defs><clipPath id="a"><rect width="83.7" height="83.079" fill="none"/></clipPath></defs><g transform="translate(-1335 -410.137)"><g transform="translate(1154 -92.784)"><path d="M41.5,0A41.5,41.5,0,1,1,0,41.5,41.5,41.5,0,0,1,41.5,0Z" transform="translate(181 503)" fill="#efbfbf"/><g transform="translate(181 502.921)"><g clip-path="url(#a)"><path d="M33.278,67.839a9.4,9.4,0,0,1-3.621-5.859c-.064-.362-.308-.312-.548-.322a14.37,14.37,0,0,1-1.469-.069,3.824,3.824,0,0,1-3.365-2.917,3.75,3.75,0,0,1,1.445-4.206.778.778,0,0,0,.346-.993,11.992,11.992,0,0,1-.61-3.613c.007-.45-.343-.517-.6-.674Q16.313,44.05,7.764,38.926A15.457,15.457,0,0,1,.247,28.241C-1.414,19.914,5.5,10.283,15.034,10.763a13.605,13.605,0,0,1,7.644,2.76c.785.589,1.562,1.192,2.3,1.837a.6.6,0,0,0,.953.008A19.859,19.859,0,0,1,31.055,11.9c.291-.116.375-.376.5-.614A19.858,19.858,0,0,1,47.3.16C57.534-1.2,67.583,6.3,69.321,16.483a61.351,61.351,0,0,1,.33,7.755,11.906,11.906,0,0,0,7.41,11.016,12.6,12.6,0,0,0,6,.91c.689-.035.766.105.474.735a14.968,14.968,0,0,1-5.981,7.152c-.35.2-.7.4-1.072.606.166.339.47.477.712.672A11.538,11.538,0,0,1,79.7,61a4.481,4.481,0,0,0-.735,2.262,11.549,11.549,0,0,1-5.916,9.513,1.273,1.273,0,0,0-.742,1.183,9.279,9.279,0,0,1-9.456,9.091c-10.452.036-20.9.006-31.357.025-.6,0-.7-.206-.694-.743.024-3.084.056-6.169,0-9.252a5.757,5.757,0,0,1,2.483-5.245m-3.5-52.051c-1.319.877-2.5,1.933-3.728,2.922-.426.343-.692.414-1.156.022-1.312-1.11-2.643-2.2-4.038-3.206a10.682,10.682,0,0,0-8.612-1.865c-3.7.73-6.2,3.031-8.01,6.2A12.331,12.331,0,0,0,8.8,36.4C14.3,39.78,19.872,43.059,25.4,46.4c.476.287.625.223.851-.286a9.606,9.606,0,0,1,6.684-5.648c.278-.072.612.017.833-.244-.009-.035-.007-.067-.022-.086a2.673,2.673,0,0,0-.209-.245,13.078,13.078,0,0,1-4.059-9.841c.023-2.238.006-4.477,0-6.715a35.174,35.174,0,0,1,.428-7.42c.008-.065.015-.13.023-.194l-.159.069m31.832,8.5c0-1.81-.031-3.311.015-4.81.018-.594-.171-.71-.728-.7a32.494,32.494,0,0,1-13.958-2.924.889.889,0,0,0-1.028.109,14.639,14.639,0,0,1-7.738,2.771c-.522.035-.672.176-.667.7.029,2.81-.057,5.622.034,8.429.139,4.307,2.142,7.564,6.113,9.256,1.587.676,2.207,1.43,1.9,3.04-.072.373.088.571.456.716a9.506,9.506,0,0,1,5.878,6.46c.135.453.268.482.665.317a8.064,8.064,0,0,0,3.575-2.884c.255-.362.27-.542-.187-.758a3.959,3.959,0,0,1-2.314-3.157c-.1-.669,0-1.365-.057-2.042s.164-.97.834-1.2a10.128,10.128,0,0,0,7.09-8.4,38.411,38.411,0,0,0,.119-4.921m9.114,19.3c.889-.221,1.6-.4,2.315-.575a10.835,10.835,0,0,0,5.953-3.663c.365-.442.5-.645-.258-.791a13.847,13.847,0,0,1-5.443-2.34,14.64,14.64,0,0,1-5.456-7.178c-.161-.453-.245-.727-.8-.339a4.043,4.043,0,0,1-2.3.752c-.442,0-.6.2-.682.62a12.776,12.776,0,0,1-7.211,9.444.833.833,0,0,0-.515,1.16,1.4,1.4,0,0,0,1.289,1.074,15.49,15.49,0,0,1,4.741,1.184c6.415,2.954,9.789,7.973,9.979,15.034.1,3.764.016,7.533.025,11.3,0,.2-.12.474.141.58.2.083.333-.138.473-.255A8.688,8.688,0,0,0,76.292,63a6.039,6.039,0,0,1,1.1-3.384,8.844,8.844,0,0,0-1.96-12.258c-1.532-1.22-3.055-2.45-4.709-3.776M66.85,19.406A17.226,17.226,0,0,0,48.671,2.755C38.035,3.283,32.139,12.507,32.3,19.39a2.966,2.966,0,0,0,.532-.2c.618-.382,1.643-.041,1.949-.691a5.823,5.823,0,0,0,.087-2.181,5.691,5.691,0,0,1,1.33-3.444c.227-.29.433-.393.705-.054a3.688,3.688,0,0,0,.461.464c.67.581,1.3,1.122.457,2.085-.377.433-.159.719.459.671a12.464,12.464,0,0,0,4.961-1.523c.364-.195.428-.333.036-.6-1.115-.771-1.105-.786-.336-1.94a3.361,3.361,0,0,0,.269-.41c.247-.521.53-.523,1.008-.215a30.082,30.082,0,0,0,8.494,3.735,34.932,34.932,0,0,0,7.922,1.054c.668.023.773-.183.448-.737a5.567,5.567,0,0,0-1.3-1.449c-.365-.3-1.081-.248-1.126-.794a4.169,4.169,0,0,1,.393-1.4,3.169,3.169,0,0,0,.1-.311c.107-.548.385-.608.873-.393a6.872,6.872,0,0,1,4.022,4.562,9.893,9.893,0,0,1,.276,2.594c.005.264-.059.559.366.587a7.559,7.559,0,0,1,2.166.612M55.445,71.022c1,0,1.845-.049,2.684.015.7.053.841-.2.838-.864-.028-5.24,0-10.479-.023-15.719a6.189,6.189,0,0,1,1.028-3.633c.623-.911.628-.908,1.381-.154.27.27.523.56.814.806.308.262.354.469.073.807a2.81,2.81,0,0,0-.625,1.823c-.01,2.783,0,5.567-.016,8.35,0,.446.155.546.568.543,2.292-.016,4.584-.027,6.876.006.555.008.611-.219.6-.674-.023-1.61.008-3.22-.016-4.83a13.5,13.5,0,0,0-9.791-12.6c-.414-.114-.662-.115-.906.347a10.209,10.209,0,0,1-6.243,5.179.664.664,0,0,0-.565.673,9.134,9.134,0,0,1-.458,2.236.962.962,0,0,0,.4,1.222,3.685,3.685,0,0,1,1.438,3.77,3.877,3.877,0,0,1-2.78,3.138,5.053,5.053,0,0,1-1.944.19c-.491-.035-.685.112-.807.636a9.236,9.236,0,0,1-5.512,6.661c-.221.1-.542.068-.663.4.452.274.906.522,1.331.814.357.245.55.241.822-.167a3.417,3.417,0,0,1,2.716-1.6,1.135,1.135,0,0,0,.929-.547c.506-.711,1.021-1.417,1.578-2.088a4,4,0,0,1,4.372-1.219,4.044,4.044,0,0,1,2.686,3.574,4.627,4.627,0,0,1-.793,2.913m-2.037,9.361v-.01c3.275,0,6.551.042,9.826-.011A6.565,6.565,0,0,0,69.6,74.271c.1-2.7.027-5.4.046-8.106,0-.378-.093-.526-.5-.523q-3.521.026-7.042,0c-.4,0-.51.145-.5.524a20.408,20.408,0,0,1-.015,2.945,4.307,4.307,0,0,0,1.844,4.505c.067.045.11.123.175.171.248.185.233.326.024.575-1.475,1.761-1.468,1.767-3.061.173a2.079,2.079,0,0,1-.23-.233,1.619,1.619,0,0,0-1.483-.633c-3,.032-6,.014-9.007.014-1.519,0-1.519,0-1.644-1.51,0-.027,0-.054-.006-.081a1.046,1.046,0,0,0-.8-1.02,1.057,1.057,0,0,0-1.273.491,4.781,4.781,0,0,0-.558,1.087c-.267.881-.818,1.086-1.706,1.058a3.353,3.353,0,0,0-3.681,3.313,3.393,3.393,0,0,0,3.647,3.358q4.79.01,9.58,0M32.143,57.034c0,1.092-.022,2.184,0,3.275a6.711,6.711,0,0,0,6.013,6.64,6.6,6.6,0,0,0,7.269-5.6,38.626,38.626,0,0,0,.111-5.72c.025-1.673-.33-2.036-2-2.005A18.429,18.429,0,0,1,34.089,51.5c-.164-.09-.349-.25-.518-.075-.645.671-1.514,1.179-1.444,2.333.066,1.088.014,2.182.016,3.274M39.188,42.88c-1.554,0-2.809-.032-4.063.007a6.932,6.932,0,0,0-5.845,3.208C27.735,48.4,28,50.844,28.791,53.316c.066.207.168.336.408.3.3-.05.285-.285.292-.5a3.765,3.765,0,0,1,1.079-2.5c.764-.816,1.582-1.58,2.357-2.386a.537.537,0,0,1,.833-.082,15.125,15.125,0,0,0,9.8,2.762,4.125,4.125,0,0,1,4.279,2.379.6.6,0,0,0,.662.345c.316-.009.41-.22.472-.471.149-.608.311-1.213.443-1.825A7,7,0,0,0,43.624,43a43.778,43.778,0,0,0-4.436-.117M32.138,28.8c0,.573-.008,1.035,0,1.5a10.583,10.583,0,0,0,3.113,7.5,7.769,7.769,0,0,0,6.878,2.423c.247-.032.623.174.713-.177s-.312-.382-.539-.5a12.921,12.921,0,0,1-7.241-9.514c-.055-.284-.085-.556-.456-.557a6.409,6.409,0,0,1-2.47-.676m8.507,42.974c-1.02-.6-1.955-1.159-2.9-1.705a2.67,2.67,0,0,0-.53-.209,2.748,2.748,0,0,0-3.6,1.646c-.459,1.444.271,2.691,1.908,3.248.592.2,1.194.376,1.783.586.266.1.433.142.55-.21a6.1,6.1,0,0,1,2.783-3.356m-2.338,8.612c-.141-1.855-1.321-2.552-2.893-2.861a7.476,7.476,0,0,1-1.456-.508c-.373-.159-.488-.059-.483.323.011.869.016,1.739,0,2.607-.008.381.181.445.5.443,1.465-.01,2.931,0,4.331,0M64.283,24.137c0,.736.019,1.473-.007,2.208-.015.43.159.506.539.437a2.778,2.778,0,0,0,2.168-2.632,2.736,2.736,0,0,0-2.073-2.614c-.452-.106-.66-.051-.635.475.033.707.008,1.417.008,2.126m-29.436-.026c0-.71-.019-1.419.007-2.128.016-.461-.143-.551-.583-.46a2.733,2.733,0,0,0-2.131,2.652,2.78,2.78,0,0,0,2.2,2.613c.412.068.529-.073.517-.468-.022-.736-.007-1.473-.006-2.21M53.579,68.534a1.358,1.358,0,0,0-.867-1.432,1.26,1.26,0,0,0-1.529.431c-.413.5-.792,1.035-1.178,1.56-.1.141-.238.248-.123.495.832,1.793,1.348,1.89,2.754.481.192-.192.389-.38.57-.582a1.307,1.307,0,0,0,.373-.953M48.205,57.543c.02,1.588-.171,1.387.892,1.4,1.193.015,1.838-.483,1.811-1.358-.027-.858-.676-1.231-1.88-1.322-1.289-.1-.673.824-.822,1.28m-18.7.073c-.23-.465.51-1.44-.82-1.348-1.237.085-1.855.446-1.869,1.328s.6,1.266,1.821,1.368c1.283.107.711-.8.868-1.348" transform="translate(0 0)" fill="#030202"/><path d="M35.417,43.409a35.13,35.13,0,0,0-.429,7.42c0,2.238.019,4.477,0,6.715a13.078,13.078,0,0,0,4.059,9.841,2.718,2.718,0,0,1,.209.245c.015.019.013.05.022.086-.221.261-.555.172-.833.244a9.606,9.606,0,0,0-6.684,5.648c-.225.509-.374.574-.851.286-5.531-3.341-11.1-6.619-16.607-10A12.331,12.331,0,0,1,9.737,47.355c1.806-3.168,4.308-5.469,8.01-6.2a10.684,10.684,0,0,1,8.612,1.865c1.4,1,2.726,2.1,4.038,3.206.464.393.73.321,1.156-.021,1.23-.989,2.409-2.046,3.728-2.922l.137.126m-24.53,9.621c-.08,2.7,1.748,5.166,4.151,7.337.167.151.3.216.477.028.523-.551,1.28-1.022,1.5-1.673.138-.415-.76-.879-1.169-1.343-.144-.164-.31-.307-.456-.469A6.674,6.674,0,0,1,13.672,51.1a7.885,7.885,0,0,1,2.912-4.6c.537-.479.576-.795-.006-1.23-.475-.355-.818-1.171-1.31-1.124-.468.045-.872.75-1.3,1.164a9.9,9.9,0,0,0-3.077,7.718m8.037-8.123a2.381,2.381,0,0,1,0,.408c-.137.769.132,1.056.947.984a3.368,3.368,0,0,1,2.4.861c.367.289.464.979,1.009.908a4.725,4.725,0,0,0,1.322-.613,2.775,2.775,0,0,1,.366-.18c.5-.16.444-.433.2-.795a6.008,6.008,0,0,0-4.878-2.85c-1.362-.073-1.362-.061-1.362,1.278" transform="translate(-5.505 -27.495)" fill="#de7985"/><path d="M138.362,56.493a38.41,38.41,0,0,1-.119,4.92,10.128,10.128,0,0,1-7.09,8.4c-.669.234-.9.531-.834,1.2s-.04,1.373.057,2.042a3.957,3.957,0,0,0,2.314,3.157c.457.216.442.4.187.758a8.067,8.067,0,0,1-3.575,2.884c-.4.164-.531.136-.665-.317a9.507,9.507,0,0,0-5.878-6.46c-.368-.145-.528-.342-.456-.715.308-1.61-.311-2.364-1.9-3.04-3.971-1.692-5.973-4.949-6.113-9.256-.091-2.807-.005-5.619-.034-8.429-.006-.528.145-.669.667-.7a14.638,14.638,0,0,0,7.738-2.771.889.889,0,0,1,1.028-.109,32.493,32.493,0,0,0,13.958,2.924c.557-.006.747.109.728.7-.047,1.5-.015,3-.015,4.81M126.272,67.07a5.749,5.749,0,0,0,4.883-2.694c.4-.594.3-.881-.344-1.106a4.68,4.68,0,0,1-1.02-.506c-.445-.292-.667-.262-.987.244a2.952,2.952,0,0,1-4.655.449c-.289-.3-.348-.912-.812-.885a3.554,3.554,0,0,0-1.172.543,2.764,2.764,0,0,1-.441.211c-.664.191-.564.537-.263,1a5.681,5.681,0,0,0,4.811,2.74m.035-13.419a2.574,2.574,0,0,1-.409,0c-.72-.117-1,.138-.992.907a8.66,8.66,0,0,1-.676,2.929c-.261.749-1.17,1.508-.8,2.152.337.593,1.367.8,2.1,1.164,1.542.775,1.506.753,2.335-.767.371-.68.347-1.068-.433-1.291-.548-.157-.691-.426-.452-1.012a9.3,9.3,0,0,0,.6-2.7c.123-1.377.134-1.376-1.266-1.376m-6.631,2.711a4.762,4.762,0,0,0,2.628-.885c1.037-.765,1.038-.765.154-1.647a8.536,8.536,0,0,1-.689-.7c-.288-.364-.495-.336-.836-.025a1.667,1.667,0,0,1-2.235.261c-.8-.8-1.207-.338-1.706.244a4.6,4.6,0,0,1-.638.634c-.37.291-.255.5.033.769a4.8,4.8,0,0,0,3.288,1.348m13.328,0a4.849,4.849,0,0,0,3.245-1.341c.357-.334.32-.54-.021-.832a9.89,9.89,0,0,1-.984-.982c-.313-.357-.533-.487-.959-.069a1.626,1.626,0,0,1-2.169.245c-.822-.8-1.255-.365-1.765.266a3.893,3.893,0,0,1-.577.578c-.332.268-.327.471-.009.775A4.8,4.8,0,0,0,133,56.362" transform="translate(-76.755 -32.208)" fill="#e9cfb5"/><path d="M185.886,101.958c1.653,1.326,3.177,2.556,4.709,3.776a8.844,8.844,0,0,1,1.96,12.258,6.039,6.039,0,0,0-1.1,3.384,8.686,8.686,0,0,1-3.32,6.588c-.139.117-.269.337-.472.255-.261-.106-.14-.382-.141-.58-.008-3.767.076-7.536-.025-11.3-.19-7.061-3.564-12.08-9.979-15.034a15.5,15.5,0,0,0-4.741-1.184,1.4,1.4,0,0,1-1.289-1.074.833.833,0,0,1,.515-1.16,12.776,12.776,0,0,0,7.211-9.444c.084-.423.24-.615.682-.62a4.048,4.048,0,0,0,2.3-.752c.551-.388.636-.114.8.339a14.64,14.64,0,0,0,5.456,7.178,13.842,13.842,0,0,0,5.443,2.34c.76.146.624.349.258.791a10.835,10.835,0,0,1-5.953,3.663c-.714.176-1.427.354-2.315.575" transform="translate(-115.164 -58.373)" fill="#a87a4d"/><path d="M132.967,25a7.559,7.559,0,0,0-2.166-.612c-.425-.029-.36-.324-.366-.587a9.9,9.9,0,0,0-.276-2.595,6.872,6.872,0,0,0-4.022-4.562c-.489-.215-.767-.155-.873.393a3.163,3.163,0,0,1-.1.31,4.161,4.161,0,0,0-.393,1.4c.045.547.76.491,1.126.794a5.565,5.565,0,0,1,1.3,1.449c.325.554.22.76-.448.737a34.937,34.937,0,0,1-7.922-1.054,30.084,30.084,0,0,1-8.494-3.735c-.478-.308-.761-.306-1.008.215a3.412,3.412,0,0,1-.269.41c-.77,1.154-.78,1.168.336,1.939.392.271.328.409-.036.6a12.46,12.46,0,0,1-4.961,1.523c-.619.048-.837-.238-.459-.671.839-.963.212-1.5-.457-2.085a3.645,3.645,0,0,1-.461-.464c-.272-.339-.478-.236-.705.054a5.694,5.694,0,0,0-1.33,3.444,5.823,5.823,0,0,1-.087,2.181c-.306.65-1.33.309-1.949.691a2.966,2.966,0,0,1-.532.2c-.162-6.883,5.734-16.108,16.371-16.636A17.227,17.227,0,0,1,132.967,25" transform="translate(-66.118 -5.591)" fill="#a8794d"/><path d="M141.023,162.8a4.627,4.627,0,0,0,.793-2.913,4.046,4.046,0,0,0-2.686-3.574,4,4,0,0,0-4.372,1.22c-.557.671-1.072,1.378-1.578,2.088a1.135,1.135,0,0,1-.929.547,3.416,3.416,0,0,0-2.715,1.6c-.272.409-.465.412-.822.167-.425-.291-.88-.54-1.331-.814.121-.33.442-.3.663-.4a9.236,9.236,0,0,0,5.512-6.661c.121-.524.315-.671.807-.636a5.052,5.052,0,0,0,1.944-.19,3.876,3.876,0,0,0,2.78-3.138,3.684,3.684,0,0,0-1.438-3.77.962.962,0,0,1-.4-1.222,9.12,9.12,0,0,0,.458-2.237.664.664,0,0,1,.565-.673,10.209,10.209,0,0,0,6.243-5.179c.244-.461.492-.46.906-.347a13.5,13.5,0,0,1,9.791,12.6c.024,1.61-.007,3.22.016,4.83.006.455-.049.682-.6.674-2.292-.033-4.584-.023-6.876-.006-.413,0-.572-.1-.568-.543.019-2.784.006-5.567.016-8.35a2.81,2.81,0,0,1,.625-1.823c.281-.338.235-.545-.073-.807-.29-.247-.543-.536-.814-.806-.753-.754-.758-.757-1.381.154a6.188,6.188,0,0,0-1.028,3.633c.018,5.239,0,10.479.023,15.718,0,.662-.136.918-.838.865-.839-.064-1.687-.015-2.684-.015" transform="translate(-85.578 -91.777)" fill="#7deef3"/><path d="M135.662,214.762c-3.193,0-6.387,0-9.58,0a3.393,3.393,0,0,1-3.647-3.359,3.353,3.353,0,0,1,3.681-3.313c.888.028,1.438-.177,1.706-1.058a4.79,4.79,0,0,1,.558-1.088,1.057,1.057,0,0,1,1.273-.491,1.046,1.046,0,0,1,.8,1.02c0,.027,0,.054.006.082.124,1.51.124,1.51,1.644,1.51,3,0,6,.017,9.007-.014a1.619,1.619,0,0,1,1.483.633,2.135,2.135,0,0,0,.23.232c1.593,1.594,1.586,1.588,3.061-.173.208-.249.224-.39-.025-.575-.065-.048-.108-.126-.175-.171a4.307,4.307,0,0,1-1.844-4.505,20.412,20.412,0,0,0,.015-2.945c-.008-.379.1-.527.5-.524q3.521.024,7.042,0c.408,0,.5.145.5.523-.019,2.7.058,5.407-.046,8.106a6.565,6.565,0,0,1-6.367,6.09c-3.274.054-6.55.012-9.826.012Z" transform="translate(-82.254 -134.379)" fill="#e9cfb5"/><path d="M97.9,162.153c0-1.092.051-2.186-.015-3.274-.07-1.153.8-1.662,1.444-2.333.169-.176.354-.015.518.075a18.433,18.433,0,0,0,9.455,2.122c1.666-.031,2.021.332,2,2.005a38.665,38.665,0,0,1-.111,5.72,6.6,6.6,0,0,1-7.269,5.6,6.712,6.712,0,0,1-6.013-6.64c-.026-1.091,0-2.183-.005-3.275m6.44,7.285a4.884,4.884,0,0,0,3.021-.924c.959-.726.959-.726.1-1.579-.251-.25-.52-.485-.747-.756-.273-.327-.461-.278-.768,0a1.69,1.69,0,0,1-2.235.292c-.866-.821-1.293-.284-1.812.315a4.923,4.923,0,0,1-.578.577c-.293.243-.3.419-.006.7a4.614,4.614,0,0,0,3.022,1.383" transform="translate(-65.76 -105.119)" fill="#e8ceb5"/><path d="M96.834,130.636a43.894,43.894,0,0,1,4.436.117,7,7,0,0,1,5.786,8.341c-.132.612-.294,1.217-.443,1.825-.062.251-.155.461-.472.471a.6.6,0,0,1-.662-.345,4.124,4.124,0,0,0-4.278-2.379,15.127,15.127,0,0,1-9.8-2.763.537.537,0,0,0-.833.083c-.775.806-1.593,1.57-2.357,2.385a3.768,3.768,0,0,0-1.079,2.5c-.008.217.01.452-.292.5-.239.039-.342-.09-.408-.3-.786-2.472-1.056-4.914.49-7.221a6.933,6.933,0,0,1,5.845-3.208c1.253-.038,2.509-.007,4.062-.007" transform="translate(-57.646 -87.756)" fill="#656c76"/><path d="M97.923,87.754a6.407,6.407,0,0,0,2.47.676c.371,0,.4.273.456.557a12.923,12.923,0,0,0,7.242,9.514c.227.114.628.146.539.5s-.466.145-.713.177a7.771,7.771,0,0,1-6.878-2.423,10.582,10.582,0,0,1-3.113-7.5c-.009-.462,0-.924,0-1.5" transform="translate(-65.785 -58.955)" fill="#a6784c"/><path d="M109.2,214.448a6.093,6.093,0,0,0-2.783,3.356c-.117.352-.284.3-.55.21-.589-.21-1.191-.385-1.783-.586-1.637-.557-2.367-1.8-1.908-3.248a2.748,2.748,0,0,1,3.6-1.646,2.692,2.692,0,0,1,.53.209c.941.546,1.876,1.1,2.9,1.706" transform="translate(-68.55 -142.675)" fill="#7bcfb2"/><path d="M106.832,237.9c-1.4,0-2.865-.005-4.331,0-.322,0-.51-.062-.5-.443.017-.869.012-1.738,0-2.607,0-.382.11-.481.483-.323a7.477,7.477,0,0,0,1.456.508c1.572.309,2.752,1.006,2.893,2.861" transform="translate(-68.525 -157.514)" fill="#79cbaf"/><path d="M195.86,68.133c0-.709.025-1.419-.008-2.126-.025-.525.183-.58.635-.475a2.736,2.736,0,0,1,2.073,2.614,2.778,2.778,0,0,1-2.168,2.632c-.38.069-.554-.007-.539-.437.026-.735.007-1.472.007-2.208" transform="translate(-131.577 -43.996)" fill="#dfc6ae"/><path d="M100.644,68.108c0,.737-.016,1.474.006,2.21.012.4-.105.536-.517.468a2.78,2.78,0,0,1-2.2-2.613,2.732,2.732,0,0,1,2.131-2.652c.44-.091.6,0,.583.46-.025.709-.006,1.419-.006,2.128" transform="translate(-65.796 -43.997)" fill="#dfc6ae"/><path d="M155.6,205.692a1.308,1.308,0,0,1-.373.953c-.181.2-.379.389-.57.582-1.407,1.41-1.922,1.313-2.754-.481-.115-.246.019-.353.123-.495.387-.524.766-1.056,1.178-1.559a1.26,1.26,0,0,1,1.529-.431,1.358,1.358,0,0,1,.867,1.432" transform="translate(-102.024 -137.158)" fill="#e8ceb5"/><path d="M146.848,172.709c.15-.455-.467-1.377.822-1.28,1.2.091,1.854.463,1.88,1.322.027.875-.618,1.373-1.811,1.358-1.063-.013-.872.188-.892-1.4" transform="translate(-98.643 -115.165)" fill="#dfc6ae"/><path d="M84.41,172.794c-.158.55.414,1.455-.868,1.348-1.221-.1-1.836-.471-1.821-1.368s.633-1.243,1.869-1.328c1.33-.092.591.883.82,1.348" transform="translate(-54.902 -115.177)" fill="#e8ceb5"/><path d="M90.73,47.969l.159-.069q-.012.1-.023.194l-.136-.126" transform="translate(-60.955 -32.18)" fill="#de7985"/><path d="M16.395,59.623A9.9,9.9,0,0,1,19.472,51.9c.432-.415.836-1.119,1.3-1.164.491-.047.835.769,1.31,1.124.582.435.543.751.006,1.23a7.887,7.887,0,0,0-2.912,4.6A6.674,6.674,0,0,0,20.894,63.5c.145.162.312.306.456.469.409.464,1.306.928,1.168,1.343-.216.651-.972,1.122-1.5,1.673-.178.188-.31.123-.477-.028-2.4-2.171-4.231-4.635-4.151-7.337" transform="translate(-11.013 -34.087)" fill="#030202"/><path d="M40.813,50.393c0-1.339,0-1.351,1.362-1.278a6.008,6.008,0,0,1,4.878,2.85c.243.362.3.634-.2.795a2.775,2.775,0,0,0-.366.18,4.725,4.725,0,0,1-1.322.613c-.545.07-.643-.619-1.009-.908a3.368,3.368,0,0,0-2.4-.861c-.815.072-1.083-.214-.947-.984a2.382,2.382,0,0,0,0-.408" transform="translate(-27.394 -32.98)" fill="#030202"/><path d="M140.559,97.018a5.681,5.681,0,0,1-4.811-2.74c-.3-.468-.4-.813.263-1a2.766,2.766,0,0,0,.441-.211,3.553,3.553,0,0,1,1.172-.543c.465-.027.523.59.812.885a2.952,2.952,0,0,0,4.655-.449c.32-.506.542-.536.987-.244a4.666,4.666,0,0,0,1.02.506c.647.224.743.511.344,1.106a5.748,5.748,0,0,1-4.883,2.694" transform="translate(-91.042 -62.156)" fill="#050404"/><path d="M144.919,65.276c1.4,0,1.389,0,1.266,1.376a9.319,9.319,0,0,1-.6,2.7c-.24.586-.1.856.452,1.013.779.223.8.61.432,1.29-.829,1.52-.792,1.543-2.335.767-.729-.367-1.758-.57-2.1-1.164-.366-.644.543-1.4.8-2.152a8.652,8.652,0,0,0,.676-2.929c-.01-.769.271-1.025.992-.907a2.614,2.614,0,0,0,.409,0" transform="translate(-95.367 -43.834)" fill="#060605"/><path d="M123.51,66.442a4.805,4.805,0,0,1-3.288-1.348c-.288-.274-.4-.478-.033-.769a4.6,4.6,0,0,0,.638-.634c.5-.583.9-1.043,1.706-.244a1.667,1.667,0,0,0,2.235-.261c.342-.311.548-.339.836.025a8.481,8.481,0,0,0,.689.7c.883.883.883.882-.154,1.647a4.765,4.765,0,0,1-2.629.885" transform="translate(-80.588 -42.288)" fill="#050404"/><path d="M164.278,66.466a4.8,4.8,0,0,1-3.238-1.358c-.318-.3-.323-.507.009-.775a3.9,3.9,0,0,0,.578-.578c.51-.631.942-1.069,1.765-.266a1.626,1.626,0,0,0,2.169-.245c.426-.419.646-.288.959.069a9.855,9.855,0,0,0,.984.982c.341.292.378.5.021.832a4.847,4.847,0,0,1-3.246,1.34" transform="translate(-108.03 -42.313)" fill="#050404"/><path d="M110.939,188.851a4.614,4.614,0,0,1-3.022-1.383c-.29-.276-.287-.453.006-.7a4.924,4.924,0,0,0,.578-.577c.518-.6.945-1.136,1.812-.315a1.69,1.69,0,0,0,2.235-.292c.307-.275.495-.324.768,0,.226.271.5.506.747.756.858.853.858.853-.1,1.579a4.884,4.884,0,0,1-3.021.924" transform="translate(-72.357 -124.532)" fill="#050404"/></g></g></g></g></svg>