<svg xmlns="http://www.w3.org/2000/svg" xmlns:xlink="http://www.w3.org/1999/xlink" width="400" height="236.395" viewBox="0 0 400 236.395"><defs><clipPath id="a"><rect width="209.55" height="294.531" fill="#fff6db"/></clipPath><clipPath id="b"><rect width="400" height="215.331" transform="translate(0 0)" fill="none"/></clipPath></defs><g transform="translate(-180 -4482.268)"><g transform="translate(-840 926.16)"><g transform="translate(1335 3556.107) rotate(90)"><g clip-path="url(#a)"><path d="M202.252,149.352s22.364,63.244-11.207,93.682S113.632,199.4,80.14,275.87c-23.651,54-87.631,26.377-79.417-30.788C10.07,180.032,42.681,224.263,23.3,80.633,13.7,9.511,148.065-43.049,202.252,149.352" transform="translate(0 -10.399)" fill="#fff6db"/><path d="M466.516,32.742s13.729,7.066,11.895,17.195-18.879,1.442-21.661-7.611,5.037-12.917,9.767-9.583" transform="translate(-312.99 -20.412)" fill="#fff6db"/><path d="M400.5,5.367c1.064-4.511,5.618-6.651,9.326-4.561,2.919,1.645,5.733,4.431,4.88,8.915-1.652,8.677-9.5,4.074-12.906,1.031-1.444-1.291-1.63-3.986-1.3-5.385" transform="translate(-274.702 0)" fill="#fff6db"/><path d="M531.51,691.572s13.4-5.688,18.166,1.721-11.558,14.556-18.465,11.176a6.917,6.917,0,0,1,.3-12.9" transform="translate(-361.54 -445.971)" fill="#fff6db"/><path d="M614.673,662.856c-3.522,1.159-5.1,5.74-3.376,9.384,1.359,2.869,3.611,5.607,7.117,4.657,6.783-1.838,6.419-9.946,1.2-13.25a7.2,7.2,0,0,0-4.946-.791" transform="translate(-418.948 -428.644)" fill="#fff6db"/></g></g><g transform="translate(1020 3577.167)"><g transform="translate(0 0.004)" clip-path="url(#b)"><path d="M3183.427,1031.2l-23.921-89.151-7.382,3.554,28.716,85.6Z" transform="translate(-2814.735 -841.219)" fill="#8198cc"/><path d="M2922.968,1031.2l-23.921-89.151-7.382,3.554,28.716,85.6Z" transform="translate(-2582.154 -841.219)" fill="#8198cc"/><path d="M1508.954,1031.2l23.921-89.151,7.382,3.554-28.716,85.6Z" transform="translate(-1347.442 -841.219)" fill="#8198cc"/><path d="M1769.413,1031.2l23.921-89.151,7.382,3.554L1772,1031.2Z" transform="translate(-1580.023 -841.219)" fill="#8198cc"/><path d="M1404.518,569.12h185.54l-5.467-41.146c-2.784-20.95-19.211-37.933-36.692-37.933H1425.662c-17.48,0-29.395,16.983-26.611,37.933Z" transform="translate(-1248.942 -437.591)" fill="#92a7d3"/><path d="M1180.407,811.926h0c1.5-.57,38.543-1.092,39.64-1.033a17.066,17.066,0,0,1,15.073,11.95l10.5,31.358h122l10.5-31.358c2.639-7.886,9.719-11.646,17.6-12.469,1.412-.148,28.321-1.8,37.111,1.552s13.37,13.668,10.231,23.047l-12.722,38.008c-3.469,10.366-12.671,17.285-22.987,17.285H1205.883c-10.315,0-19.517-6.919-22.987-17.285l-12.721-38.008c-3.139-9.379,1.442-19.7,10.232-23.047" transform="translate(-1044.042 -723.157)" fill="#92a7d3"/><path d="M1489.777,820.539h0c8.79-3.349,18.46,1.538,21.6,10.917l10.5,31.358h155.111l10.5-31.358c3.139-9.379,12.81-14.267,21.6-10.917h0c8.79,3.35,13.371,13.668,10.231,23.047l-12.721,38.008c-3.469,10.366-12.671,17.285-22.987,17.285H1515.253c-10.315,0-19.517-6.919-22.987-17.285l-12.721-38.008c-3.139-9.379,1.442-19.7,10.231-23.047" transform="translate(-1320.298 -731.77)" fill="#8198cc"/><path d="M1563.719,898.88h-48.466c-10.315,0-19.517-6.92-22.987-17.285l-12.722-38.008c-3.139-9.379,1.442-19.7,10.232-23.047s18.46,1.538,21.6,10.917l10.5,31.358h41.847Z" transform="translate(-1320.298 -731.771)" fill="#8198cc"/><path d="M2772.053,942.382l5.115,5.351s31.764-13.206,38.293-8.3-22.429,29.516-22.429,29.516h-62.159s-3.174-8.159-1.993-12.907,7.65-11.052,7.65-11.052l1.464-3.4Z" transform="translate(-2436.558 -837.905)" fill="#452b52"/><path d="M2674.506,430.839c.194,1.276-3.3,7.535-1.59,10.55s40.563,1.276,42.571-4.355,3.658-57.808,2.575-61.729c-.456-1.651-5.763-6.1-30.813-5.231-13.372.463-25.74,8.605-25.9,10.536-.337,4.054,12.036,42.826,13.159,50.23" transform="translate(-2376.483 -330.364)" fill="#b1c3eb"/><path d="M2674.506,430.839c.194,1.276-3.3,7.535-1.59,10.55s40.563,1.276,42.571-4.355,3.658-57.808,2.575-61.729c-.456-1.651-5.763-6.1-30.813-5.231-13.372.463-25.74,8.605-25.9,10.536C2661.01,384.663,2673.384,423.435,2674.506,430.839Z" transform="translate(-2376.483 -330.364)" fill="none" stroke="#b1c3eb" stroke-miterlimit="10" stroke-width="1"/><path d="M3079.281,441.167c4.6-1.936,3.739-7.712.282-17.19s-1.056-21.281-7.525-29.564-19.7-3.457-16.439,7.451,11.077,31.341,15.512,36.506,8.169,2.8,8.169,2.8" transform="translate(-2728.087 -348.464)" fill="#b1c3eb"/><path d="M2950.062,75.059c5.153,6.733-1.587,18.239-1.587,18.239l-6.812-16.7Z" transform="translate(-2626.801 -67.025)" fill="#614b6c"/><path d="M2846.109,141.627l11.734,2.323,3.126,24.014-13.687,1.335Z" transform="translate(-2541.474 -126.469)" fill="#ffa280"/><path d="M2827.9,39.055c9.394-5.572,14.431-2.161,17.122,5.139s4.129,21.088-.987,23.156-14.679.031-17.241-7.412-4.2-17.737,1.106-20.883" transform="translate(-2522.088 -32.403)" fill="#ffa280"/><path d="M2814.7,1.371A57.424,57.424,0,0,0,2821.731,0c5.751,4.628,4.647,8.175-.425,9.179s-9.576,2.2-16.14,1.09c2.872,2.922.434,5.783,1.589,8.715l-1.179,1.33c.357-2.686-2.876-3.237-3.284-1.162-.5,2.567,1.986,10.158,1.986,10.158s-5.481-9.177-6.057-15.339c-1.5-16.04,11.907-12,16.475-12.605" transform="translate(-2498.608 -0.005)" fill="#614b6c"/><path d="M2847.919,537.213a3.187,3.187,0,0,1,2.968.87,2.168,2.168,0,0,1,.16.221,2.144,2.144,0,0,1,.108.2,22.365,22.365,0,0,1,5.781-2.668,4.044,4.044,0,0,1,.211-1.905,3.189,3.189,0,0,1,2.969.87,2.226,2.226,0,0,1,.159.221,2.253,2.253,0,0,1,.122.224,7.243,7.243,0,0,1,5.734,1.9,22.3,22.3,0,0,1-9.7,4.55,9.106,9.106,0,0,1-6.168-.806c-.093.089-.185.177-.282.264-.117.1-.235.206-.358.307a9.611,9.611,0,0,1-4.061,2.033,9.368,9.368,0,0,1,2.545-3.366,3.233,3.233,0,0,1-.183-2.915" transform="translate(-2540.981 -476.741)" fill="#92a7d3"/><path d="M2981.746,633.216a3.188,3.188,0,0,1,2.969.87,2.165,2.165,0,0,1,.159.221,2.2,2.2,0,0,1,.108.2,22.352,22.352,0,0,1,5.78-2.668,4.045,4.045,0,0,1,.211-1.905,3.188,3.188,0,0,1,2.969.87,2.248,2.248,0,0,1,.159.221,2.219,2.219,0,0,1,.122.224,7.24,7.24,0,0,1,5.734,1.9,22.294,22.294,0,0,1-9.7,4.55,9.1,9.1,0,0,1-6.168-.806c-.093.089-.185.177-.282.264-.117.1-.235.207-.358.307a9.61,9.61,0,0,1-4.06,2.033,9.372,9.372,0,0,1,2.545-3.366,3.232,3.232,0,0,1-.183-2.914" transform="translate(-2660.484 -562.469)" fill="#92a7d3"/><path d="M2827.832,772.457a3.188,3.188,0,0,1,2.969.87,2.234,2.234,0,0,1,.159.221,2.195,2.195,0,0,1,.108.2,22.373,22.373,0,0,1,5.781-2.668,4.038,4.038,0,0,1,.211-1.9,3.187,3.187,0,0,1,2.969.87,2.156,2.156,0,0,1,.16.221,2.279,2.279,0,0,1,.122.224,7.242,7.242,0,0,1,5.734,1.9,22.3,22.3,0,0,1-9.7,4.55,9.105,9.105,0,0,1-6.168-.806c-.093.089-.185.177-.282.264-.117.1-.235.206-.358.307a9.614,9.614,0,0,1-4.061,2.033,9.369,9.369,0,0,1,2.545-3.366,3.235,3.235,0,0,1-.183-2.915" transform="translate(-2523.044 -686.806)" fill="#92a7d3"/><path d="M2850.029,877.068a3.19,3.19,0,0,1,2.969.87,2.262,2.262,0,0,1,.159.221c.041.064.074.132.108.2a22.358,22.358,0,0,1,5.781-2.668,4.038,4.038,0,0,1,.211-1.905,3.188,3.188,0,0,1,2.969.87,2.061,2.061,0,0,1,.281.446,7.242,7.242,0,0,1,5.734,1.9,22.3,22.3,0,0,1-9.7,4.55,9.1,9.1,0,0,1-6.167-.806c-.093.089-.185.177-.283.264-.116.1-.235.206-.358.307a9.607,9.607,0,0,1-4.061,2.033,9.373,9.373,0,0,1,2.545-3.366,3.232,3.232,0,0,1-.184-2.915" transform="translate(-2542.865 -780.22)" fill="#92a7d3"/><path d="M2809.3,719.9l-.994,13.333s41.364,3.352,47.392,2.748,6.81-4.83,6.208-8.147c-1.885-10.376-52.606-7.935-52.606-7.935" transform="translate(-2507.715 -642.624)" fill="#b1c3eb"/><path d="M2809.3,719.9l-.994,13.333s41.364,3.352,47.392,2.748,6.81-4.83,6.208-8.147C2860.018,717.461,2809.3,719.9,2809.3,719.9Z" transform="translate(-2507.715 -642.624)" fill="none" stroke="#b1c3eb" stroke-miterlimit="10" stroke-width="1"/><path d="M3004.434,687.458c-5.289-8.5-20.037-.667-20.037-.667l3.245,7.23s1.27-1.5,7.736-3.966,9.056-2.6,9.056-2.6" transform="translate(-2664.96 -610.342)" fill="#ffa280"/><path d="M2632.5,492.506c.454-9.215,5.478-19.941,3.044-29.239s-15.366-13.218-16.26-5.343c-1.173,10.345-3.02,33.227-2.005,39.371,1.765,10.686,14.645,6.906,15.221-4.789" transform="translate(-2336.871 -405.139)" fill="#bdcdee"/><path d="M2729.949,693.007l.01-.011a.937.937,0,0,0-.051-1.329l-4.741-4.358a.945.945,0,1,0-1.289,1.383l4.751,4.367a.938.938,0,0,0,1.32-.051" transform="translate(-2432.057 -613.516)" fill="#ffa280"/><path d="M2716.828,689.032l.013-.008a.938.938,0,0,0,.335-1.288l-3.281-5.542a.945.945,0,1,0-1.633.952l3.287,5.553a.937.937,0,0,0,1.279.332" transform="translate(-2421.839 -608.758)" fill="#ffa280"/><path d="M2704.314,693.833l.013-.008a.937.937,0,0,0,.335-1.287L2701.382,687a.945.945,0,0,0-1.633.952l3.287,5.553a.938.938,0,0,0,1.279.332" transform="translate(-2410.665 -613.044)" fill="#ffa280"/><path d="M2687.552,723.355l.012-.01a.937.937,0,0,0,.078-1.328l-4.3-4.8a.945.945,0,0,0-1.417,1.251l4.3,4.808a.937.937,0,0,0,1.319.078" transform="translate(-2394.657 -640.165)" fill="#ffa280"/><path d="M2666.419,679.551l4.9,14.069s-40.025,10.963-46.06,11.488-7.729-5.431-7.752-8.8c-.072-10.545,48.91-16.755,48.91-16.755" transform="translate(-2337.343 -606.815)" fill="#bdcdee"/><path d="M2822.56,1536.745l.53,14.447,5.636.469,1.7-18.224Z" transform="translate(-2520.445 -1369.304)" fill="#ffa280"/><path d="M2806.151,918.631c8.193.252,10.683,14.174,8.515,24.822s-11.182,50.833-11.182,50.833l-10.031-1.133s-2.414-56.1-1.362-63.45,6.872-11.293,14.06-11.072" transform="translate(-2493.001 -820.298)" fill="#614b6c"/><path d="M3280.836,1528.042l-4.418,13.729-5.542-1.15,3.294-17.994Z" transform="translate(-2920.776 -1359.652)" fill="#ffa280"/><path d="M3303.131,940.923c-8.089-4.1-19.417,6.171-21.776,19.206-2.161,11.943-6.614,50.613-6.614,50.613l9.9,3.317s21.216-52.331,22.908-59.557-4.415-13.579-4.415-13.579" transform="translate(-2924.227 -839.396)" fill="#614b6c"/><path d="M3252.917,1677.633l8.293.037,6.6,8.816L3252,1686.6Z" transform="translate(-2903.918 -1498.067)" fill="#614b6c"/><rect width="15.817" height="1.972" transform="translate(348.07 188.011)" fill="#452b52"/><path d="M3278.381,1686.056l5.542-.087-.458-.533-5.231.2Z" transform="translate(-2927.346 -1505.036)" fill="#452b52"/><path d="M3283.875,1711.163l5.541-.087-.458-.532-5.231.2Z" transform="translate(-2932.251 -1527.455)" fill="#452b52"/><path d="M3283.774,1698.02l-5.542-.087.458-.532,5.231.2Z" transform="translate(-2927.345 -1515.719)" fill="#452b52"/><path d="M3251.912,1727.2c.012-2.027,1.657-3.564,7.026-3.515s8.791,1.031,8.791,3.515-8.356.986-8.356.986Z" transform="translate(-2903.842 -1539.187)" fill="#614b6c"/><path d="M2774.076,1677.633l-8.292.037-6.6,8.816,15.808.117Z" transform="translate(-2463.856 -1498.067)" fill="#614b6c"/><rect width="15.817" height="1.972" transform="translate(295.331 188.011)" fill="#614b6c"/><path d="M2833.031,1686.056l-5.541-.087.458-.533,5.231.2Z" transform="translate(-2524.847 -1505.036)" fill="#452b52"/><path d="M2827.536,1711.163l-5.541-.087.458-.532,5.23.2Z" transform="translate(-2519.941 -1527.455)" fill="#452b52"/><path d="M2827.637,1698.02l5.542-.087-.458-.532-5.231.2Z" transform="translate(-2524.847 -1515.719)" fill="#452b52"/><path d="M2775,1727.2c-.012-2.027-1.657-3.564-7.026-3.515s-8.791,1.031-8.791,3.515,8.356.986,8.356.986Z" transform="translate(-2463.856 -1539.187)" fill="#614b6c"/><path d="M2786.047,1514.16l.5,11.3,12.619.613s2.227-9.277,1.732-9.444-14.846-2.468-14.846-2.468" transform="translate(-2487.841 -1352.092)" fill="#452b52"/><path d="M3258,1496.319l-1.973,11.286,12.742,4.034,3.577-9.526Z" transform="translate(-2907.517 -1336.16)" fill="#452b52"/><path d="M2812.413,371.591c0,2.564,11.187,7.967,18.265,7.967s7.365-5.4,7.365-7.967-5.738-4.643-12.815-4.643-12.815,2.079-12.815,4.643" transform="translate(-2511.385 -327.672)" fill="#ffa280"/><path d="M1714.508,1394.1c-4.66-1.627-5.936-6.9-5.936-6.9s4.594-1.533,8.309.378a11.405,11.405,0,0,1,5.045,4.906s-4.4,2.665-7.418,1.611" transform="translate(-1525.694 -1238.202)" fill="#8198cc"/><path d="M1636.98,1374.5l-7.165,22.956-3,4.907-1.34,3.416,12.507-4.507-2.131-3.806,10.241-19.809Z" transform="translate(-1451.497 -1227.384)" fill="#ffa280"/><path d="M1558.306,1602.57l-3.964-6.7s.409,2.1-2.9,3.42c-5.27,2.1-6.54.749-6.54.749-.263.226-11.16,8.72-11.16,8.72l.31,3.672,21.464-7.13Z" transform="translate(-1369.574 -1425.056)" fill="#ff685b"/><rect width="30.896" height="1.799" transform="translate(160.11 189.15) rotate(-22.125)" fill="#ff9187"/><path d="M1493.653,1721.738c-1.526-3.755,4.054-5.446,4.054-5.446l2.543,2.764Z" transform="translate(-1333.543 -1532.588)" fill="#ff9187"/><path d="M1623,1639.145a.57.57,0,0,1-.472-.207l-1.547-1.88a.571.571,0,1,1,.881-.725l1.547,1.88a.571.571,0,0,1-.409.932" transform="translate(-1447.359 -1461.001)" fill="#ff9187"/><path d="M1606.28,1652.166a.57.57,0,0,1-.472-.207l-1.353-1.645a.571.571,0,0,1,.881-.725l1.353,1.645a.571.571,0,0,1-.409.932" transform="translate(-1432.605 -1472.839)" fill="#ff9187"/><path d="M1589.565,1665.188a.57.57,0,0,1-.472-.207l-1.16-1.41a.571.571,0,0,1,.881-.725l1.16,1.41a.57.57,0,0,1-.409.932" transform="translate(-1417.852 -1484.677)" fill="#ff9187"/><path d="M1572.85,1678.209a.57.57,0,0,1-.472-.207l-.967-1.175a.571.571,0,1,1,.881-.725l.967,1.175a.57.57,0,0,1-.409.932" transform="translate(-1403.098 -1496.514)" fill="#ff9187"/><path d="M1556.135,1691.23a.57.57,0,0,1-.472-.207l-.774-.94a.571.571,0,1,1,.881-.725l.773.94a.57.57,0,0,1-.409.932" transform="translate(-1388.344 -1508.352)" fill="#ff9187"/><path d="M1721.65,994.7l17.831-40.355c2.988-13.631-14.09-21.593-16.682-7.852l-11.859,45.749c-1.032,2.565,8.34,5.67,10.711,2.457" transform="translate(-1527.737 -838.8)" fill="#b1c3eb"/><path d="M1735.145,1043.106l57.589-9.218c13.683-2.743,9.083-24.2-4.541-21.049l-58.469,12.3c-13.682,2.742-8.2,21.115,5.421,17.966" transform="translate(-1537.504 -904.148)" fill="#92a7d3"/><path d="M1965.4,629.922c-5.324-5.646-10.4-11.477-13.756-15.368-3.844-4.523,1.046-5.7,3.764-3.69s11.746,8.359,17.412,12.526Z" transform="translate(-1741.481 -544.638)" fill="#ffa280"/><path d="M2004.574,652.218c9.34,6.658,17.914,12.688,21.085,17.739,4.208,6.7,2.579,12.537-1.207,11.968-5.5-.826-16.519-12.533-25.777-22.973Z" transform="translate(-1784.746 -582.408)" fill="#ff685b"/><path d="M2178.066,516.379c-1.112,14.26,1.52,27.815,1.174,33.769-.458,7.9,3.78,12.228,6.823,9.906,4.421-3.372,1.3-23.012,4.378-36.621Z" transform="translate(-1944.69 -461.109)" fill="#ff685b"/><path d="M1917.967,471.278c2.034-.863,3.253-3.3,3.072-7.421a61.56,61.56,0,0,0-.783-9.428,15.96,15.96,0,0,0-.859-2.923c-.827-1.32-1.876-.943-1.215,1.854.854,3.61.621,4.934.621,4.934a34.427,34.427,0,0,0-1.011-4.678c-.519-1.406-1.014-4.261-1.889-4.121s-1.079,1.237-.259,3.557a17.6,17.6,0,0,1,.65,5.613,19.73,19.73,0,0,0-2.184-5.232c-1.3-1.8-1.59-2.447-2.184-2.1s-.82,1.793.229,3.133a9.1,9.1,0,0,1,1.562,4.167c.142,1-.376.865-.586.347s-1.529-2.656-1.987-3.414-2.288-1.072-1.535.6,1.994,2.091,2.355,5.685-.768,3.471.023,6.336,4.567,3.689,5.98,3.089" transform="translate(-1705.052 -401.379)" fill="#ffa280"/><path d="M1974.885,532.434c-1.517-.624-1.8,2.131-1.962,3.978s-1.642,1.579-2.7,3.5-.684,4.846.947,5.059a3.813,3.813,0,0,0,3.826-3.594c.316-2.957,1.1-8.442-.114-8.94" transform="translate(-1758.812 -475.365)" fill="#ffb093"/><path d="M2289.248,832.906c-6.621-13.978,19.452-7.148,23.824.544s7.62,34.622-11.276,34.137c-11.5-.3-14.5-20.023-12.547-23.023s2.195-7.024,0-11.657" transform="translate(-2043.261 -736.543)" fill="#92a7d3"/><path d="M2192.211,452.713c-.528-2.386,1.261-18.2,4.086-20.515,3.933-3.221,13.9-4.808,13.9-4.808s5.584-.575,9.83,1.053c6.835,2.069,3.469,23.617,3.469,23.617.115,7.907.561,16.819,2.686,25.169-4.5,8.953-19.746,9.579-21.34,4.953-6.05-17.546-11.2-22.988-12.634-29.468" transform="translate(-1957.484 -381.557)" fill="#ffd5c6"/><path d="M2178.893,433.762c-6.582,4.01-11.718,23.47-9.146,28.176s7.849,14.192,10.174,19.931c1.883,4.647,2.871,10.8,1.961,14.241s-5.305,1.911-5.305,1.911a13.825,13.825,0,0,0,1.872-11.685c-1.874-6.972-4.154-14.592-8-20.708s-3.525-9.152-4.649-14.157c-.981-4.366-.569-9.84,1.656-12.008s11.438-5.7,11.438-5.7" transform="translate(-1933.534 -387.334)" fill="#ff685b"/><path d="M2176.742,427.291c-3.395,1.153-7.638,2.91-10.54,7.853a68.708,68.708,0,0,1-4.282,6.7l2.966,2.94-3.379,1.245s.2,5.4,2.291,8.4,5.67,8.69,7.224,11.389,5.72,10.8,5.72,10.8-7.742-18.3-9-22.852-.184-13.23,1.483-16.561c1.492-2.981,2.929-6.351,5.758-7.218s1.76-2.69,1.76-2.69" transform="translate(-1930.149 -381.556)" fill="#ff9a91"/><path d="M1842.522,947.838l47.341,14.395c13.456,3.7,20.762-18.141,7.175-21.449l-54.085-9.287c-13.456-3.7-14.017,13.033-.431,16.342" transform="translate(-1636.441 -831.32)" fill="#b1c3eb"/><path d="M2335.334,435.406c-4.938,15.666,5.205,36.685,6.674,43.755s12.357,6.685,16.134,4.041,5.136-7.712,5.136-7.712-8.573-4.413-9.818-12.277,1.66-18.827.646-29.359.657-10.28-3.472-14.117c-3.907-3.631-15.206-1-15.206-1s3.688,4.669-.095,16.669" transform="translate(-2084.17 -373.095)" fill="#ff685b"/><path d="M2317.029,417.708c3.381.164,3.488,3.39,2.146,9.354s-4.251,13.121-3.8,18c.647,7.041,6.307,21.236,6.307,21.236s-2.52-15.443-1.905-19.528a24.052,24.052,0,0,1,3.167-7.707l-3.084-1.739,3.522-2.878s1.809-10.743-.429-14.66a6.122,6.122,0,0,0-5.892-3.394Z" transform="translate(-2067.504 -371.806)" fill="#ff9a91"/><path d="M2335.274,118.719c-1.286-2.413,3.579-9.995,11.222-5.758,5.741,3.183,2.454,9.378,6,14.4,3.8,5.38,6.446,2.837,11.7,4.825,8.506,3.219,4.186,11.953,14.241,7.4-1.595,7.343-8.465,11.819-18.352,10.653-7.507-.886-7.27-10.555-13.882-13.489-7.916-3.512-4.708-8.226-5.058-14.778-.338-6.323-5.873-3.246-5.873-3.246" transform="translate(-2085.134 -99.743)" fill="#614b6c"/><path d="M2207.317,222.918l-10.152,5.284,6.22,21.454c3.522,12.13,11.641-.148,10.778-3.125Z" transform="translate(-1961.99 -199.058)" fill="#ffa280"/><path d="M2143.667,139.888c-7.448,7.074-14.832,8.309-16.133,5.446-1.148-2.527-1.847-6.475-2.19-7.117s-1.4-.489-1.721-1.611,1.212-3.909,1.205-6.29-.837-10.367,2.394-12.308,11.219-4.621,15.4.244,6.431,10.878,5.092,13.447-4.05,8.188-4.05,8.188" transform="translate(-1896.28 -103.14)" fill="#ffa280"/><path d="M2134.484,95.362c8.258.761,10.935,5.667,10.935,5.667s-.408-2.233,1.45-2.918,2.833.61,2.653,2.36c-.364,3.547-2.492,4.508-2.492,4.508l1.239,4.152s.931-5.18,3.256-7.863c2.5-2.88,2.83-8.6,1.054-12.943-1.674-4.1-5.6-8.326-14.041-7.85-10.264.579-18.767,13.531-4.055,14.886" transform="translate(-1898.969 -71.83)" fill="#614b6c"/><path d="M1706.414,1403.455a15.556,15.556,0,0,1-11.565-4.492l1.469-6.911c3.21,3.321,8.309,4.858,13.354,5.286Z" transform="translate(-1513.44 -1243.053)" fill="#c6d3f0"/><path d="M2068.379,1432.812l20.3,16.758,3.454,1.237-4.878-12.366-2.146,1.259-11.641-13.5Z" transform="translate(-1846.989 -1273.544)" fill="#ffa280"/><path d="M2230.338,1518.643l-5.7,3.606s1.21.084,2.627,3.356c2.253,5.2.944,6.515.944,6.515.234.256,9.05,10.894,9.05,10.894l3.661-.42-7.767-21.242Z" transform="translate(-1986.523 -1356.095)" fill="#ff685b"/><rect width="1.799" height="30.896" transform="matrix(0.915, -0.404, 0.404, 0.915, 243.815, 162.548)" fill="#ff9187"/><path d="M2348.111,1728.334c-3.708,1.638-5.564-3.89-5.564-3.89l2.687-2.624Z" transform="translate(-2091.811 -1537.525)" fill="#ff9187"/><path d="M2260.335,1638.607a.571.571,0,0,1-.489-.989l1.833-1.6a.57.57,0,1,1,.751.859l-1.833,1.6a.568.568,0,0,1-.262.13" transform="translate(-2017.788 -1460.779)" fill="#ff9187"/><path d="M2274.079,1656.4a.571.571,0,0,1-.489-.989l1.6-1.4a.571.571,0,0,1,.751.859l-1.6,1.4a.57.57,0,0,1-.262.13" transform="translate(-2030.061 -1476.843)" fill="#ff9187"/><path d="M2287.823,1674.187a.57.57,0,0,1-.489-.989l1.375-1.2a.57.57,0,0,1,.75.859l-1.375,1.2a.568.568,0,0,1-.262.13" transform="translate(-2042.334 -1492.909)" fill="#ff9187"/><path d="M2301.566,1691.975a.57.57,0,0,1-.489-.989l1.146-1a.57.57,0,1,1,.751.859l-1.146,1a.567.567,0,0,1-.262.13" transform="translate(-2054.606 -1508.971)" fill="#ff9187"/><path d="M2315.313,1709.766a.571.571,0,0,1-.489-.989l.916-.8a.571.571,0,0,1,.751.859l-.916.8a.571.571,0,0,1-.262.13" transform="translate(-2066.881 -1525.036)" fill="#ff9187"/><path d="M2041.579,1399.458c-3.042,4-9.081,3.051-9.081,3.051a14.36,14.36,0,0,1,3.6-7.4,11.546,11.546,0,0,1,6.3-3.342s1.145,5.1-.824,7.691" transform="translate(-1814.948 -1242.798)" fill="#93a8d4"/><path d="M1770.605,1228.559c-7.957-8.437-4.657-9.681-13.827-18.2-8.92-8.289-38.444-6.215-27.2,2.1l34.984,24.206c2.767.65,9.641-4.288,6.043-8.1" transform="translate(-1542.203 -1076.096)" fill="#92a7d3"/><path d="M2046.748,1397.977c-1.833,4.65-3.889,6.175-7.966,8.136l-6.284-3.6c4.3-1.829,7.635-6.107,9.906-10.742Z" transform="translate(-1814.948 -1242.799)" fill="#b1c3eb"/><path d="M2398.181,461.543c-1.476-10.383-9.317-18.868-7.365-29.717s13.446-12.333,15.817-.752,6.631,32.16,5.036,39.133-12.011,1.721-13.487-8.663" transform="translate(-2134.636 -377.739)" fill="#ff685b"/><path d="M2528.8,967.659c3.084,7.121,3.289,16.218,5.538,20.839,2.638,5.318,5.646,1.288,4.876-2s-2.114-14.092-3.7-20.943Z" transform="translate(-2258.127 -862.206)" fill="#ffa280"/><path d="M2495.928,803.026c-1.113-10.63.132-28.57-3.256-33.478-4.5-6.513-10.477-4.178-11.449-.475-1.413,5.378,5.379,20.443,7.116,36.714Z" transform="translate(-2215.472 -683.519)" fill="#ff685b"/><path d="M2449.459,1197.029c-1.049.708-5.742,1.685-5.73,1.873s-4.47,4.793-4.47,4.793a1.579,1.579,0,0,0,1.842.487c1.219-.417,4.244-4.175,4.244-4.175l4.414-.112Z" transform="translate(-2178.172 -1068.905)" fill="#ffa280"/><path d="M2456.585,1149.3c3.1,1.827,3.275,4.419.726,7.072a15.627,15.627,0,0,1-5.629,3.686s-2.379,2.944-3.9,5.191-3.1.781-1.778-1.086,3.615-5.635,3.615-5.635l-3.087,2.88s-2.035,3.219-3.085,3.927-1.895.177-1.314-1.086a65.325,65.325,0,0,1,3.9-5.682l-1.59,1.12a40.765,40.765,0,0,1-3.593,4.04c-.831.581-2.031-.475-1.927-.632s4.74-5.584,4.74-5.584a77.9,77.9,0,0,0,6.518-4.621c2.148-1.834,4.691-4.593,6.4-3.588" transform="translate(-2177.873 -1026.09)" fill="#ffa280"/><path d="M1095.375,1230.208c3.016,1.514,6.8,4.989,4.791,8.716-1.848,3.423-6.052,4.809-13.6-.03-4.57-2.932-6.683-5.023-11.592-7.822-3.167-1.806-4.6-4.055-3.087-6.921s3.436-2.942,6.231-1.348c11.521,6.57,12.048,4.792,17.251,7.4" transform="translate(-956.62 -1090.991)" fill="#614b6c"/><path d="M1094.6,1234.61c2.9,1.592,5.745,4.723,4.153,7.627s-4.733,4.244-12.444.018c-4.508-2.471-7.148-5.26-12.011-7.926-3.138-1.719-4.815-3.847-3.489-6.267s3.467-2.79,6.236-1.272c11.413,6.255,12.614,5.112,17.554,7.819" transform="translate(-955.785 -1094.673)" fill="#452b52"/><path d="M1270.514,1316.228c-1.226,2.236-3.372,3.542-7.813,2.1a19.669,19.669,0,0,0,2.3-3.841,19.349,19.349,0,0,0,1.618-5.739c2.812,1.631,5.442,4.664,3.9,7.483" transform="translate(-1127.547 -1168.663)" fill="#452b52"/><path d="M1158.236,1283.575a.52.52,0,0,1-.257-.73l1.528-2.777a.519.519,0,1,1,.909.5l-1.528,2.777a.519.519,0,0,1-.652.23" transform="translate(-1033.977 -1142.816)" fill="#614b6c"/><path d="M1176.96,1293.445a.536.536,0,0,1-.052-.025.519.519,0,0,1-.2-.7l1.576-2.866a.519.519,0,1,1,.909.5l-1.576,2.866a.519.519,0,0,1-.652.23" transform="translate(-1050.697 -1151.549)" fill="#614b6c"/><path d="M1195.687,1303.315a.492.492,0,0,1-.052-.025.519.519,0,0,1-.2-.7l1.624-2.955a.519.519,0,0,1,.91.5l-1.624,2.955a.519.519,0,0,1-.653.23" transform="translate(-1067.419 -1160.283)" fill="#614b6c"/><path d="M1214.411,1313.187a.494.494,0,0,1-.052-.025.519.519,0,0,1-.2-.7l1.672-3.044a.519.519,0,1,1,.909.5l-1.672,3.044a.519.519,0,0,1-.652.23" transform="translate(-1084.139 -1169.02)" fill="#614b6c"/><path d="M1233.135,1323.076c-.018-.007-.035-.016-.052-.025a.519.519,0,0,1-.205-.7l1.72-3.133a.519.519,0,1,1,.91.5l-1.72,3.133a.519.519,0,0,1-.653.23" transform="translate(-1100.859 -1177.773)" fill="#614b6c"/><path d="M1035.072,1215.263c1.531-2.793-1.16-4.755-3.2-5.875s-10.494-4.8-11.707-2.582c-1.046,1.908,6.209,7.764,8.253,8.884s5.182,2.264,6.657-.427" transform="translate(-910.876 -1077.013)" fill="#ffa280"/><path d="M635.5,1368.41l-26.427-73.075,6.823-4.043,22.092,77.118Z" transform="translate(-543.884 -1153.078)" fill="#ff7f74"/><path d="M100.315,1378.968l21.717-75.852,6.7,3.024-26.07,72.828Z" transform="translate(-89.578 -1163.637)" fill="#ff7f74"/><path d="M343.831,1386.2l7.982-74.986,7.093.782-12.871,74.2Z" transform="translate(-307.029 -1170.865)" fill="#ff7f74"/><path d="M865.512,1679.047l-4.26,23.494,5.161,3.825-13.35.557,1.049-5.16,1.027-24.629Z" transform="translate(-761.754 -1497.621)" fill="#ffa280"/><path d="M846.435,1928.592l1.144-7.74s.418,2.084,4,2.08c3.688-.005,4.314-2.392,4.645-2.282s15.423,4.372,15.423,4.372l1.106,3.534-22.683,1.518Z" transform="translate(-755.836 -1715.068)" fill="#452b52"/><rect width="31.054" height="1.808" transform="translate(90.599 213.523) rotate(-0.079)" fill="#614b6c"/><path d="M1076.852,1964.846c-.006-4.074-5.842-3.528-5.842-3.528l-1.316,3.538Z" transform="translate(-955.199 -1751.366)" fill="#452b52"/><path d="M963.468,1927.974a.491.491,0,0,1-.144-.022.484.484,0,0,1-.319-.606l.725-2.337a.484.484,0,0,1,.925.287l-.725,2.337a.485.485,0,0,1-.462.341" transform="translate(-859.91 -1718.661)" fill="#614b6c"/><path d="M984.726,1933.744a.485.485,0,0,1-.463-.628l.635-2.045a.484.484,0,0,1,.925.287l-.635,2.045a.485.485,0,0,1-.462.341" transform="translate(-878.893 -1724.073)" fill="#614b6c"/><path d="M1005.982,1939.513a.485.485,0,0,1-.463-.628l.544-1.753a.484.484,0,0,1,.925.287l-.544,1.753a.485.485,0,0,1-.462.341" transform="translate(-897.874 -1729.486)" fill="#614b6c"/><path d="M1027.24,1945.281a.485.485,0,0,1-.463-.628l.453-1.461a.484.484,0,0,1,.925.287l-.453,1.461a.485.485,0,0,1-.462.341" transform="translate(-916.856 -1734.898)" fill="#614b6c"/><path d="M1048.5,1951.049a.485.485,0,0,1-.463-.628l.363-1.169a.484.484,0,0,1,.925.287l-.363,1.169a.485.485,0,0,1-.462.341" transform="translate(-935.84 -1740.309)" fill="#614b6c"/><path d="M844.536,1779.7c-5.164-.415-7.7-6.184-7.7-6.184a14.8,14.8,0,0,1,8.428-.988,11.9,11.9,0,0,1,6.4,3.609s-3.79,3.831-7.134,3.563" transform="translate(-747.266 -1582.574)" fill="#614b6c"/><path d="M846.338,1325.081l3.652-53.793c1.489-12.605,21.278-10,19.415,2.583l-11.121,51.1c-.212,4.436-12.356,3.321-11.946.114" transform="translate(-755.74 -1127.846)" fill="#452b52"/><path d="M850.112,1793.555a17.56,17.56,0,0,1-13.275-2.259v-7.358c3.981,2.717,9.547,3.229,14.832,2.622Z" transform="translate(-747.266 -1592.994)" fill="#614b6c"/><path d="M20.711,645.4H36.156c12.632,0,23.89,10.155,25.147,22.681l6.084,60.653a3.669,3.669,0,0,1-3.734,4.112c-31.5,0-59.583-25.326-62.716-56.567l-.822-8.2C-1.142,655.558,8.08,645.4,20.711,645.4" transform="translate(0 -576.322)" fill="#ff685b"/><path d="M331.683,1117.894H313.326c-12.611,0-19.96-10.26-19.96-22.872v-14.274a4.146,4.146,0,0,1,4.146-4.146h52.9a4.146,4.146,0,0,1,4.146,4.146v14.274a22.9,22.9,0,0,1-22.872,22.872" transform="translate(-261.965 -961.368)" fill="#ff685b"/><path d="M98.012,1076.607a4.224,4.224,0,0,0-3.946,4.259v14.157A14.579,14.579,0,0,1,79.487,1109.6H64.042a14.579,14.579,0,0,1-14.579-14.579v-7.568A10.852,10.852,0,0,0,38.611,1076.6H13.777a4.223,4.223,0,0,0-4.259,3.946,4.147,4.147,0,0,0,4.142,4.347H38.695a2.476,2.476,0,0,1,2.476,2.476v7.652a22.872,22.872,0,0,0,22.872,22.872H79.487a22.872,22.872,0,0,0,22.872-22.872v-14.274a4.146,4.146,0,0,0-4.347-4.142" transform="translate(-8.495 -961.368)" fill="#ff9187"/><path d="M446.844,1194.78l-53.836-7.442c-12.589-1.618-9.782-21.379,2.781-19.388l53.835,7.441c12.59,1.618,9.782,21.379-2.78,19.388" transform="translate(-343.658 -1042.813)" fill="#452b52"/><path d="M436.643,681.147c5.761-5.346,14.207-.9,15.109,6s4.665,16.337,6.291,19.875c1.985,4.32,5.95,13.761,2.824,16.947s-11.006-.711-12.411-3.67-7.253-21.119-9.18-22.748-8.964-10.527-2.633-16.4" transform="translate(-387.597 -606.127)" fill="#fff"/><path d="M164.5,677.584s-5.394-53.741-3.556-55.709,15.956-10.908,23.831-9.727,20.148,9.134,21.066,12.021-5.381,40.554-8.137,46.066-33.2,7.349-33.2,7.349" transform="translate(-143.376 -546.531)" fill="#fff"/><path d="M155.073,1003.42c-3.235,5.683.835,7.775,11.227,7.057s25.884-.878,27.8-3.872,2.028-4.774-1.794-4.392-19.157-1.109-25.558-1.4-9.184-1.77-11.678,2.612" transform="translate(-137.506 -893.262)" fill="#ffa280"/><path d="M143.85,680.314c7.583-2.067,13,5.79,10.61,12.315s-.649,12.736-1.82,16.449-3.368,14.079-7.615,15.454-7.555-3.7-7.369-6.967c.146-2.575-.53-13.85-.007-20.2.635-7.71-2.131-14.781,6.2-17.052" transform="translate(-122.735 -607.196)" fill="#fff"/><path d="M452.286,957.454s8.176-8,9.725-9.3,3.134,1.061,2.923,4.676,1.49,4.531-1.041,5.585-4.913,4.069-9.748,4.062a2.84,2.84,0,0,1-1.859-5.027" transform="translate(-402.942 -846.351)" fill="#ffa280"/><path d="M564,961.768l-3.785.61a1.266,1.266,0,1,0,.4,2.5l3.785-.61a1.264,1.264,0,1,0-.4-2.5" transform="translate(-499.226 -858.806)" fill="#ffa280"/><path d="M561.4,982.069l-3.539,1.475a1.267,1.267,0,1,0,.972,2.333l3.539-1.475a1.264,1.264,0,1,0-.972-2.333" transform="translate(-497.385 -876.846)" fill="#ffa280"/><path d="M559.772,1008.33l-3.539,1.475a1.267,1.267,0,1,0,.972,2.333l3.539-1.475a1.264,1.264,0,1,0-.972-2.333" transform="translate(-495.928 -900.296)" fill="#ffa280"/><path d="M601.265,964.182c-.326-.292-2.3-1.625-2.66-1.88a1.266,1.266,0,1,0-1.473,2.054c.355.255,2.477,1.371,2.842,1.612a1.107,1.107,0,0,0,1.292-1.786" transform="translate(-532.679 -859.043)" fill="#ffa280"/><path d="M596.773,982.211c-.426-.1-2.839-.4-3.273-.453a1.266,1.266,0,1,0-.315,2.508c.434.055,2.87.094,3.306.132a1.107,1.107,0,0,0,.283-2.186" transform="translate(-528.628 -876.662)" fill="#ffa280"/><path d="M590.4,998.2c-.422.114-3.5,1.088-3.9,1.247a1.267,1.267,0,1,0,.918,2.355c.408-.159,3.376-1.375,3.777-1.55a1.1,1.1,0,0,0-.791-2.052" transform="translate(-522.931 -891.317)" fill="#ffa280"/><path d="M550.651,897.594l-9.786-11.531a.692.692,0,0,1,1.055-.9l9.786,11.531c.221.243,1.217,2.092.869,2.282-.265.145-1.865-1.318-1.924-1.387" transform="translate(-482.822 -790.203)" fill="#614b6c"/><path d="M558.086,931.439l-3.539,1.475a1.267,1.267,0,1,0,.972,2.333l3.539-1.475a1.264,1.264,0,1,0-.972-2.333" transform="translate(-494.422 -831.636)" fill="#ffa280"/><path d="M594.2,933.021c-.385-.208-3.285-1.617-3.69-1.782a1.266,1.266,0,1,0-.955,2.34c.405.165,3.394,1.33,3.805,1.48a1.107,1.107,0,0,0,.84-2.038" transform="translate(-525.671 -831.454)" fill="#ffa280"/><rect width="23.638" height="1.167" transform="translate(68.182 109.515)" fill="#e7ecf9"/><path d="M488.215,1024.339l-17.835,12.92v-1.167l17.835-12.92Z" transform="translate(-420.032 -913.657)" fill="#cbd7f2"/><path d="M494.018,1046.994l17.835-12.92H488.215l-17.835,12.92Z" transform="translate(-420.032 -923.392)" fill="#8198cc"/><path d="M265.331,1108.11l-34.847,12.975c-11.906,4.4-18.576-14.411-6.521-18.469l34.846-12.975c11.906-4.4,18.576,14.411,6.522,18.469" transform="translate(-194.299 -972.419)" fill="#614b6c"/><path d="M131.356,1109.287a14.584,14.584,0,0,1-11.556-14.265v-5.052a13.369,13.369,0,0,0-13.369-13.369H93.1a4.146,4.146,0,0,0-4.146,4.146,37.146,37.146,0,0,0,37.146,37.146h5.254Z" transform="translate(-79.435 -961.368)" fill="#ff685b"/><path d="M63.058,1109.569a14.58,14.58,0,0,1-13.594-14.546v-7.568A10.852,10.852,0,0,0,38.611,1076.6H13.777a4.223,4.223,0,0,0-4.259,3.946,4.147,4.147,0,0,0,4.142,4.347H38.7a2.476,2.476,0,0,1,2.476,2.476v7.652a22.872,22.872,0,0,0,21.887,22.851Z" transform="translate(-8.495 -961.368)" fill="#ff9187"/><path d="M998.675,1180.5c-.4,5.166-6.161,7.718-6.161,7.718a14.8,14.8,0,0,1-1.014-8.425,11.9,11.9,0,0,1,3.59-6.416s3.843,3.778,3.585,7.123" transform="translate(-885.148 -1047.782)" fill="#755a82"/><path d="M617.541,1116.711l-42.357-2.7c-12.328-3.021-7.32-22.342,4.94-18.954l39.377,9.953c4.989.834,4.269,11.746-1.96,11.7" transform="translate(-507.263 -977.494)" fill="#614b6c"/><path d="M1012.666,1174.91a19.194,19.194,0,0,1-2.322,13.909l-7.253-.6c2.7-3.99,3.2-9.557,2.576-14.841Z" transform="translate(-895.724 -1047.782)" fill="#755a82"/><path d="M174.825,983.272l.937,8.2s-23.9.689-30.441.964-9.642-14.256,1.309-12.879,28.2,3.713,28.2,3.713" transform="translate(-124.478 -874.629)" fill="#fff"/><path d="M314.326,605.854c-4.895,2.043-3.834,3.558-.206,4.7,3.309,1.045,6.191,5.128,8,7.223,1.933,2.233,3.43-7.3.25-9.189a28.553,28.553,0,0,0-8.048-2.739" transform="translate(-277.729 -541.007)" fill="#ffa280"/><path d="M344.612,420.011l-13.233-4.367-6.51,22.232s.705,3.19,5.37,4.291S336.075,441,336.075,441Z" transform="translate(-290.096 -371.156)" fill="#ffa280"/><path d="M383.847,336.59a16.407,16.407,0,0,1,9.736-1.441c3.38.512,6.065,2.081,6.655,6.053,1.275,8.593-.525,21.123-5.066,22.452s-12.816-.941-14.191-8.04-1.947-16.73,2.866-19.024" transform="translate(-339.335 -299.098)" fill="#ffa280"/><path d="M366.133,296.311c4.368,4.873,3.337,9.6-1.055,9.958a55.983,55.983,0,0,1-9.607-.28S351.9,320,355.017,321.554s3.974-2.687,9.892-1.172c4.082,1.045,2.222,12.6-1.927,12.966s-11.184-2.959-11.9-6.775,2.294-12.613.443-15.223-3.607-.835-3.542,1.114c.022.663-.008,2.111-.056,3.735-.095,3.153-3.445,4.4-3.445,4.4a46.338,46.338,0,0,1-1.091-12.014c.409-5.693,4.348-10.011,10.111-10.083,10.6-.131,12.635-2.2,12.635-2.2" transform="translate(-306.569 -264.596)" fill="#614b6c"/><path d="M537.071,444.111c0-1.075.542-2.358,3.122-2.358s3.121,1.282,3.121,2.358a3.122,3.122,0,1,1-6.243,0m.652,0a2.47,2.47,0,1,0,4.939,0c0-.422,0-1.705-2.469-1.705s-2.47,1.284-2.47,1.705" transform="translate(-479.585 -394.47)" fill="#614b6c"/><path d="M461.731,444.111c0-1.075.542-2.358,3.121-2.358s3.122,1.282,3.122,2.358a3.122,3.122,0,1,1-6.243,0m.652,0a2.47,2.47,0,1,0,4.939,0c0-.422,0-1.705-2.47-1.705s-2.469,1.284-2.469,1.705" transform="translate(-412.309 -394.47)" fill="#614b6c"/><path d="M514.035,448.226a.325.325,0,0,0,.325-.325.9.9,0,1,1,1.792,0,.325.325,0,0,0,.65,0,1.546,1.546,0,1,0-3.092,0,.325.325,0,0,0,.325.325" transform="translate(-458.725 -398.58)" fill="#614b6c"/><path d="M428.7,437.862a.326.326,0,0,0,.133-.624l-4.205-1.78a.355.355,0,0,0-.453.172.329.329,0,0,0,.186.424l4.205,1.78a.328.328,0,0,0,.133.028" transform="translate(-378.755 -388.825)" fill="#614b6c"/></g></g></g></g></svg>