<svg xmlns="http://www.w3.org/2000/svg" xmlns:xlink="http://www.w3.org/1999/xlink" width="85" height="85" viewBox="0 0 85 85"><defs><clipPath id="a"><rect width="76.65" height="76.5" fill="none"/></clipPath></defs><g transform="translate(-1335 -6589)"><rect width="85" height="85" transform="translate(1335 6589)" fill="none"/><g transform="translate(1339.175 6593.25)"><g clip-path="url(#a)"><path d="M35.839,3.658h2.173c.07,1.145.07,1.145,1.238,1.145q14.446,0,28.892-.013c.61,0,.8.135.8.775-.035,3.1,0,6.2-.03,9.3-.006.611.133.8.772.8,2.825-.026,5.651,0,8.477.014q0,11.791,0,23.582c-1.026,0-2.052,0-3.077.009-.282,0-.522.006-.668-.324-.4-.913-.834-1.814-1.272-2.711-.174-.356-.047-.427.292-.422.8.012,1.6-.009,2.4.009.347.008.5-.089.482-.463-.027-.449-.02-.9,0-1.35.013-.33-.126-.439-.443-.432a13.633,13.633,0,0,0-2.1.025,2.136,2.136,0,0,1-2.723-1.742c-.176-.561-.309-.775.381-1.053a5.923,5.923,0,0,0,3.582-6.367A6.011,6.011,0,1,0,66.8,30.855c.475.2.489.341.348.834a2.3,2.3,0,0,1-2.993,1.9,2.679,2.679,0,0,0-.525,0c-1.754,0-1.739,0-1.685,1.741.012.4.132.513.517.5.861-.024,1.723-.008,2.69-.008-.544,1.14-1.047,2.165-1.519,3.2-.148.324-.4.245-.632.245q-3.678.008-7.356,0c-.229,0-.638.163-.587-.313.043-.4-.309-.967.435-1.142.947-.222,1.883-.493,2.822-.747,1.551-.421,1.516-.414,1.122-1.986-.135-.538-.357-.544-.78-.426-1.175.328-2.356.634-3.534.948-.209-.744-.1-1.154.695-1.441a4.979,4.979,0,0,0,3.112-5.614A5.077,5.077,0,0,0,49.02,28.2,5.056,5.056,0,0,0,51.659,34c.267.132.555.221.832.334.576.237.315.747.278,1.105-.044.422-.394.106-.585.068-.784-.154-1.561-.339-2.339-.522-1.657-.391-1.641-.39-2,1.253-.1.453.026.6.462.693,1.367.29,2.721.646,4.089.933.708.148.328.663.4,1.016.091.443-.251.384-.522.384q-5.93,0-11.86.006c-.36,0-.55-.057-.534-.485.031-.824.028-1.652,0-2.476-.014-.406.138-.51.521-.5,1.251.019,2.5.007,3.753.007,1.628,0,1.609,0,1.595-1.661,0-.462-.135-.6-.593-.586-1.325.029-2.652.01-3.978.01-1.289,0-1.256,0-1.3-1.295-.026-.723.1-1.089.921-1.348A5.934,5.934,0,0,0,44.769,24.6a6.02,6.02,0,0,0-11.833-.705,5.767,5.767,0,0,0,3.388,6.832,1.743,1.743,0,0,1,1.328,2.211.569.569,0,0,0,0,.15c.061.4-.116.51-.505.5-1.351-.021-2.7-.008-4.054-.008-1.7,0-1.682,0-1.679,1.671,0,.474.139.583.592.576,1.7-.026,3.4,0,5.1-.02.429-.006.565.126.549.552-.029.774-.033,1.552,0,2.326.02.448-.093.612-.573.595-1.075-.038-2.152-.012-3.228-.012-1.2,0-1.2,0-1.283,1.181l-2.773,0c.06-.342.1-.689.182-1.027.384-1.659.382-1.638-1.261-2.033-.423-.1-.56-.035-.651.385-.195.9-.445,1.786-.673,2.677l-2.652,0c-.011-.574-.03-1.148-.031-1.721,0-1.769,0-1.755-1.755-1.662-.407.022-.5.171-.493.541.009.948-.018,1.9-.03,2.845l-2.648.041a23.9,23.9,0,0,0-.686-2.749c-.319-.861-.949-.067-1.428-.075-.237,0-.926-.158-.744.58s.334,1.454.5,2.182l-2.9.018a1.109,1.109,0,0,1-.027-.3c.128-.715-.138-.942-.875-.9-1.171.07-2.351-.012-3.524.032-.572.021-.744-.12-.743-.724q.031-16.5,0-33.009c0-.649.188-.762.789-.76q12.229.031,24.458.014c1.17,0,1.17,0,1.232-1.143m-12.916,18.5a4.225,4.225,0,1,0-4.24-4.233,4.191,4.191,0,0,0,4.24,4.233m-8.369-3.1h.374c1.688,0,1.67,0,1.639-1.708-.008-.445-.16-.546-.564-.532-.747.025-1.5.007-2.245.007-1.136,0-1.136,0-1.136,1.133,0,1.1,0,1.1,1.108,1.1h.823m16.98,0a7.707,7.707,0,0,0,1.568-.019c.989-.21.246-1.016.424-1.524.09-.258.2-.718-.422-.7-1.022.032-2.045.014-3.068.006-.266,0-.383.059-.416.365-.2,1.828-.173,1.87,1.616,1.87h.3M24.043,9.241c0-.5-.009-1,0-1.495.008-.306-.09-.426-.422-.455-1.816-.161-1.815-.171-1.815,1.595v.748c0,1.687,0,1.675,1.72,1.61.377-.014.544-.1.521-.507-.029-.5-.007-1-.007-1.495M18.89,23.487a.743.743,0,0,0-.087-.168,6.231,6.231,0,0,0-1.421-1.3c-.269-.129-.631.542-.964.835-.224.2-.427.421-.638.632-1.238,1.237-1.23,1.228.083,2.445.263.244.4.261.65,0,.687-.724,1.407-1.416,2.11-2.125.1-.1.186-.22.267-.318m5.153,3.165v-.374c0-1.732,0-1.72-1.78-1.632-.36.018-.47.122-.461.474.021.772.006,1.546.006,2.318,0,1.139,0,1.139,1.132,1.139,1.1,0,1.1,0,1.1-1.1v-.823m5.612-.488a.589.589,0,0,0,.131-.076,5.705,5.705,0,0,0,1.284-1.422c.132-.3-.566-.662-.87-1.013-.179-.207-.385-.391-.58-.585-1.249-1.251-1.239-1.241-2.453.081-.252.274-.23.418.018.657.719.692,1.415,1.409,2.125,2.11.1.1.169.255.345.25m1.49-14.9a7.143,7.143,0,0,0-1.506-1.542,1.122,1.122,0,0,0-.345.258c-.428.419-.849.845-1.272,1.269-1.209,1.209-1.2,1.2.064,2.4.287.272.445.279.715,0,.688-.723,1.406-1.417,2.111-2.124.087-.087.167-.181.234-.254m-14.6-1.577a.956.956,0,0,0-.178.114c-.451.463-1.06.864-1.284,1.42-.129.32.594.689.913,1.055.164.187.35.354.527.531,1.28,1.279,1.27,1.27,2.5-.1.23-.257.193-.382-.02-.59-.748-.732-1.482-1.477-2.223-2.217-.07-.07-.147-.133-.232-.209m36.133,2.085c1.138,0,1.146,0,1.138-.944-.013-1.437.18-1.307-1-1.3-1.389,0-1.248-.181-1.246,1.053,0,1.355-.17,1.177,1.107,1.2M49.323,10.7c-.016-1.285.16-1.175-.983-1.171-1.389,0-1.268-.177-1.265.962,0,1.434-.18,1.283,1.018,1.282,1.383,0,1.212.178,1.23-1.072m8.878-.038c0-1.136,0-1.142-.946-1.136-1.313.01-1.191-.16-1.189,1.039,0,1.325-.164,1.209,1.017,1.208,1.258,0,1.1.147,1.118-1.111" transform="translate(-6.548 -2.558)" fill="#9ad4f0"/><path d="M29.819,126.068l2.773,0a1.1,1.1,0,0,1,.031.3c-.106.618.122.832.761.778.735-.062,1.48-.014,2.386-.014-1.057,1.257-2.01,2.4-2.973,3.533-1.043,1.231-1.027,1.206.193,2.285.427.378.607.261.918-.116,1.431-1.738,2.908-3.439,4.333-5.182.407-.5.623-.623,1.092-.03,1.195,1.51,2.47,2.956,3.712,4.429,1.111,1.318,1.1,1.305,2.39.195.324-.279.347-.444.065-.767-.939-1.073-1.854-2.168-2.763-3.266a4.155,4.155,0,0,1-.8-1.049H52.081c-1.025,1.222-1.98,2.363-2.938,3.5-1.041,1.238-1.023,1.215.189,2.28.423.372.606.271.919-.112,1.2-1.468,2.435-2.906,3.7-4.4,1.1,1.3,2.161,2.56,3.221,3.822.91,1.084.883,1.053,2.025.169.527-.408.545-.65.1-1.145-1.174-1.315-2.284-2.686-3.511-4.145,3.151,0,6.146,0,9.141-.005.416,0,.383.176.262.458-.444,1.032-.881,2.067-1.321,3.1-.647,1.518-.64,1.5.843,2.138.441.19.64.154.826-.321.464-1.185.989-2.346,1.488-3.518.813-1.91.812-1.9,2.868-1.863a.66.66,0,0,1,.717.48c.512,1.3,1.057,2.588,1.593,3.88.685,1.652.68,1.638,2.292.9.377-.173.383-.335.237-.675-.581-1.353-1.119-2.725-1.7-4.076-.177-.41-.105-.51.332-.506,1.6.018,3.2.009,4.805.01q0,4.7-.008,9.408c-.3.008-.6.022-.9.022H34.6c-1.136,0-1.136,0-1.206,1.09l-2.981-.007c-.219-.717.262-1.171.628-1.667.9-1.219.875-1.189-.291-2.12-.506-.4-.8-.363-1.061.189a4.635,4.635,0,0,1-4.34,2.453c-5.149.17-10.308.058-15.463.07-.4,0-.5-.129-.5-.513q.02-4.2,0-8.408c0-.443.151-.538.558-.529,1.151.024,2.3.008,3.453.008,1.084,0,1.084,0,1.153-1.065l2.9-.018c.166.675.361,1.344.486,2.025.075.406.254.458.613.4,1.692-.278,1.693-.271,1.344-1.925-.031-.145-.057-.291-.086-.437l2.648-.041c.013.448.029.9.036,1.345,0,.238,0,.459.34.448a4.52,4.52,0,0,0,1.76-.1c.383-.2.079-.919.14-1.4.013-.1.022-.2.032-.3l2.652,0a2.615,2.615,0,0,1-.028.371c-.366,1.671-.365,1.659,1.352,2,.356.072.486-.022.563-.356.155-.677.342-1.347.516-2.02" transform="translate(-6.563 -88.181)" fill="#8ddfbf"/><path d="M7.983,37.885C7.914,38.95,7.914,38.95,6.83,38.95c-1.151,0-2.3.016-3.453-.008-.407-.008-.561.086-.558.529q.029,4.2,0,8.408c0,.384.1.514.5.513,5.155-.013,10.313.1,15.463-.07a4.634,4.634,0,0,0,4.34-2.453c.265-.552.556-.592,1.061-.189,1.167.93,1.189.9.291,2.119-.366.5-.847.95-.628,1.667-.237,1.941-.1,3.9-.228,5.842a2.066,2.066,0,0,1-.4,1.167q-7.253,9.788-14.471,19.6c-.409.559-.635.515-1.128.142Q4.033,73.509.386,70.876c-.477-.344-.492-.548-.151-1.008Q7.1,60.63,13.922,51.364c.157-.213.311-.429.539-.744h-.924c-4.078,0-8.155-.014-12.233.015-.6,0-.734-.165-.733-.745Q.6,25.312.571.735C.57.15.715,0,1.3,0Q14.7.03,28.1.014c1.138,0,1.138,0,1.2,1.086-.062,1.143-.062,1.143-1.232,1.143Q15.83,2.243,3.6,2.229c-.6,0-.791.112-.789.76q.034,16.5,0,33.009c0,.6.171.745.743.724,1.174-.044,2.353.038,3.524-.032.738-.044,1,.183.875.9a1.122,1.122,0,0,0,.027.3M19.942,50.492a20.039,20.039,0,0,0-2.56.843A5.583,5.583,0,0,0,19.8,53.65a3.184,3.184,0,0,0,1,.47c.46.2.671.135.649-.434-.029-.744.011-1.492.03-2.237.043-1.668.045-1.668-1.538-.957M6.731,72.716c1.039.892,1.038.891,1.833-.184L19.615,57.574c.893-1.208.893-1.209-.548-1.685a9.187,9.187,0,0,1-3.359-3c-.3.107-.392.357-.535.55-1.118,1.5-2.226,3.009-3.338,4.515q-4.248,5.75-8.507,11.493c-.306.411-.321.606.129.91,1.114.753,2.186,1.566,3.276,2.356" transform="translate(0 0)" fill="#030303"/><path d="M89.313,49.475c.07-1.09.07-1.09,1.206-1.09h42.66c.3,0,.6-.014.9-.022.473.008.947-.008,1.418.029.438.034.544-.146.542-.559-.02-3.363-.02-6.726-.027-10.089.007-.275.019-.55.019-.824q0-10.993,0-21.987c0-1.927,0-1.927-1.936-1.81-2.826-.01-5.652-.041-8.477-.014-.638.006-.778-.186-.771-.8.032-3.1,0-6.2.03-9.3.007-.64-.188-.777-.8-.776q-14.446.029-28.892.014c-1.168,0-1.168,0-1.238-1.145.066-1.085.066-1.085,1.2-1.085Q110.422.015,125.7,0A1.7,1.7,0,0,1,127,.54Q132.367,5.788,137.767,11a1.47,1.47,0,0,1,.517,1.157q-.024,18.838.006,37.676c0,.7-.208.8-.838.8Q114,50.61,90.543,50.622c-1.155,0-1.155,0-1.23-1.147M127.082,3.747c0,2.4,0,4.565,0,6.728,0,.23.057.381.332.38,2.258,0,4.515,0,6.98,0l-7.31-7.105" transform="translate(-62.482 -0.001)" fill="#040505"/><path d="M162.3,181.8a1.851,1.851,0,0,0,.138-.426c.035-.483.25-.546.7-.43,3.141.809,6.29,1.582,9.431,2.387.574.147,1.426.093,1.638.53.2.416-.188,1.127-.332,1.7-.652,2.614-1.313,5.226-1.959,7.841-.1.394-.19.553-.685.427q-12.039-3.057-24.093-6.055a1.377,1.377,0,0,1-.722-.495c-1.1-1.264-2.267-2.475-3.285-3.8a4.085,4.085,0,0,0-2.912-1.714c-.608-.068-.818-.274-.613-.959.422-1.409.382-1.462,1.786-1.044a3.2,3.2,0,0,0,2.238-.117c1.71-.691,3.451-1.3,5.169-1.973a1.7,1.7,0,0,1,1.088-.065q4.715,1.192,9.432,2.38c1.034.261,1.033.263.8,1.33-.315,1.114-.313,1.106-1.453.816-2.37-.6-4.747-1.18-7.111-1.806-.592-.157-.645.015-.611.549a7.861,7.861,0,0,1-1.177,4.721c-.086.139-.249.26-.164.482q4.958,1.24,9.936,2.485c3.34.837,6.683,1.661,10.015,2.528.509.133.626.013.735-.457.355-1.531.739-3.056,1.166-4.568.15-.534.033-.716-.5-.844-2.569-.624-5.129-1.288-7.692-1.939-1.192-.3-1.192-.305-.963-1.488m-17.8-.114c.895,1.026,1.749,1.965,2.552,2.945.354.432.506.284.742-.084a5.79,5.79,0,0,0,.824-4.408l-4.118,1.547" transform="translate(-97.608 -124.211)" fill="#030404"/><path d="M185.7,188.143c-.228,1.183-.229,1.185.963,1.488,2.563.652,5.122,1.315,7.692,1.939.531.129.648.311.5.844-.427,1.512-.81,3.037-1.166,4.568-.109.47-.226.589-.735.457-3.332-.867-6.675-1.692-10.015-2.528q-4.973-1.246-9.936-2.485c-.085-.222.078-.343.164-.482a7.861,7.861,0,0,0,1.177-4.721c-.033-.534.02-.705.611-.549,2.364.626,4.741,1.2,7.111,1.806,1.14.29,1.138.3,1.453-.816a9.208,9.208,0,0,0,2.183.479" transform="translate(-121.013 -130.555)" fill="#94d1ee"/><path d="M129.508,77.859c-1.6,0-3.2.008-4.805-.01-.438-.005-.51.1-.332.506.585,1.351,1.122,2.723,1.7,4.076.146.34.14.5-.237.675-1.613.738-1.608.752-2.293-.9-.535-1.291-1.081-2.579-1.592-3.88a.66.66,0,0,0-.717-.48c-2.056-.036-2.055-.047-2.868,1.863-.5,1.171-1.023,2.333-1.488,3.517-.186.475-.385.51-.826.321-1.482-.637-1.489-.619-.843-2.138.44-1.033.877-2.068,1.321-3.1.121-.282.154-.459-.262-.458-2.995.01-5.99.005-9.141.005,1.228,1.458,2.337,2.83,3.511,4.145.442.5.424.737-.1,1.145-1.142.884-1.115.915-2.025-.169-1.06-1.262-2.124-2.52-3.221-3.822-1.265,1.5-2.5,2.937-3.7,4.4-.313.383-.5.484-.919.112-1.212-1.066-1.229-1.043-.189-2.28.958-1.139,1.914-2.281,2.938-3.5H93.282a4.152,4.152,0,0,0,.8,1.048c.91,1.1,1.824,2.194,2.763,3.267.282.322.259.488-.065.767-1.29,1.11-1.279,1.122-2.389-.195-1.243-1.473-2.517-2.919-3.712-4.429-.469-.593-.685-.468-1.092.031-1.425,1.743-2.9,3.444-4.333,5.182-.311.377-.491.494-.918.116-1.221-1.08-1.237-1.054-.193-2.285.962-1.135,1.916-2.277,2.973-3.533-.905,0-1.65-.048-2.386.014-.639.054-.867-.161-.761-.778a1.113,1.113,0,0,0-.031-.3c.087-1.181.087-1.181,1.283-1.181,1.076,0,2.153-.026,3.227.012.481.017.594-.147.573-.595-.034-.774-.031-1.552,0-2.326.016-.425-.12-.557-.549-.552-1.7.022-3.4-.007-5.1.02-.453.007-.591-.1-.592-.576,0-1.671-.024-1.671,1.679-1.671,1.351,0,2.7-.013,4.054.008.389.006.565-.1.505-.5a.544.544,0,0,1,0-.15A1.743,1.743,0,0,0,87.68,67.07a5.767,5.767,0,0,1-3.388-6.832,6.02,6.02,0,0,1,11.833.7,5.934,5.934,0,0,1-3.975,6.341c-.82.259-.947.625-.921,1.348.046,1.294.013,1.3,1.3,1.3,1.326,0,2.653.019,3.979-.01.458-.01.589.123.593.586.015,1.661.033,1.661-1.595,1.661-1.252,0-2.5.012-3.753-.007-.382-.006-.534.1-.521.5.027.825.03,1.652,0,2.477-.016.427.175.485.534.484q5.931-.013,11.86-.005c.271,0,.613.059.522-.384-.073-.353.307-.868-.4-1.016-1.368-.287-2.721-.643-4.089-.933-.435-.092-.561-.24-.462-.693.361-1.643.345-1.644,2-1.253.778.184,1.556.369,2.339.522.191.038.542.354.585-.068.037-.359.3-.868-.278-1.105-.276-.114-.565-.2-.832-.334a5.073,5.073,0,0,1,2.484-9.6,5.127,5.127,0,0,1,4.783,4.142A4.978,4.978,0,0,1,107.17,70.5c-.791.287-.9.7-.695,1.441,1.177-.314,2.359-.62,3.534-.948.423-.118.645-.112.78.426.394,1.572.429,1.565-1.122,1.986-.939.255-1.875.525-2.822.747-.744.175-.392.738-.435,1.142-.051.476.358.312.587.313q3.678.017,7.357,0c.232,0,.484.079.632-.245.473-1.039.975-2.063,1.519-3.2-.966,0-1.829-.016-2.69.008-.385.011-.5-.1-.517-.5-.054-1.741-.069-1.74,1.685-1.74a2.68,2.68,0,0,1,.525,0,2.3,2.3,0,0,0,2.993-1.9c.142-.493.127-.638-.348-.834a6.015,6.015,0,1,1,4.63-.05c-.689.277-.556.492-.381,1.052a2.136,2.136,0,0,0,2.723,1.742,13.71,13.71,0,0,1,2.1-.025c.318-.007.456.1.443.432-.017.45-.025.9,0,1.351.022.374-.135.471-.482.463-.8-.018-1.6,0-2.4-.01-.339-.005-.466.066-.292.422.438.9.868,1.8,1.272,2.711.146.33.386.327.668.324,1.026-.008,2.052-.007,3.077-.009q.064.6.128,1.194c-.132.341.05.722-.13,1.057m-24.335-9.218a2.819,2.819,0,1,0,.007-5.631,2.817,2.817,0,0,0-.007,5.631m-14.71-3.269a3.751,3.751,0,1,0-4.1-3.728,3.7,3.7,0,0,0,4.1,3.728M120.651,57.9a3.766,3.766,0,0,0-4.038,3.749,3.8,3.8,0,1,0,4.038-3.749m-.24,11.273c-.989,2.076-1.918,4.029-2.851,5.98-.172.361,0,.424.321.422,1.672-.006,3.343-.014,5.015,0,.472.005.486-.145.309-.516-.914-1.908-1.814-3.823-2.793-5.892" transform="translate(-57.905 -38.905)" fill="#030304"/><path d="M238.487,68.354q-.064-.6-.128-1.194,0-11.791,0-23.582c1.937-.117,1.937-.117,1.937,1.81q0,10.993,0,21.987c0,.275-.012.549-.019.824-.577.291-1.2.072-1.794.154" transform="translate(-166.752 -30.457)" fill="#5fbfe9"/><path d="M44.635,45.577a4.225,4.225,0,1,1,4.213-4.251,4.212,4.212,0,0,1-4.213,4.251m-.039-2.24a1.984,1.984,0,1,0-1.956-2.013A1.957,1.957,0,0,0,44.6,43.338" transform="translate(-28.26 -25.974)" fill="#030303"/><path d="M37.358,118.918c.028.146.055.292.085.437.349,1.654.348,1.647-1.343,1.925-.359.059-.539.007-.613-.4-.125-.682-.32-1.351-.486-2.025-.166-.728-.323-1.457-.5-2.182s.507-.584.744-.58c.479.008,1.108-.786,1.428.075a23.883,23.883,0,0,1,.686,2.749" transform="translate(-24.115 -80.989)" fill="#040505"/><path d="M71.3,118.891c-.174.673-.361,1.343-.516,2.02-.076.334-.206.428-.563.356-1.717-.345-1.718-.333-1.352-2a2.616,2.616,0,0,0,.028-.371c.228-.892.478-1.778.673-2.677.091-.42.228-.486.651-.385,1.644.4,1.646.374,1.261,2.033-.078.339-.123.685-.182,1.027" transform="translate(-48.041 -81.004)" fill="#040505"/><path d="M55.206,118.155c-.011.1-.02.2-.032.3-.062.484.243,1.207-.14,1.4a4.515,4.515,0,0,1-1.76.1c-.336.011-.337-.21-.34-.448-.007-.449-.024-.9-.036-1.345.013-.948.04-1.9.03-2.845,0-.37.085-.519.493-.541,1.754-.093,1.751-.108,1.755,1.661,0,.574.02,1.148.031,1.721" transform="translate(-37.006 -80.27)" fill="#040505"/><path d="M22.152,49.726h-.823c-1.108,0-1.108,0-1.108-1.1,0-1.133,0-1.133,1.136-1.133.749,0,1.5.018,2.245-.007.4-.014.556.087.564.532.031,1.708.049,1.707-1.639,1.707h-.374" transform="translate(-14.146 -33.22)" fill="#040505"/><path d="M78.518,49.723h-.3c-1.789,0-1.816-.043-1.616-1.871.034-.306.15-.367.416-.365,1.023.008,2.046.027,3.068-.005.62-.02.512.44.422.7-.178.508.566,1.314-.424,1.524a7.747,7.747,0,0,1-1.568.019" transform="translate(-53.532 -33.218)" fill="#040505"/><path d="M53.034,17.546c0,.5-.022,1,.007,1.495.024.4-.144.493-.521.507-1.721.065-1.72.077-1.72-1.61v-.747c0-1.766,0-1.756,1.815-1.595.332.029.43.15.422.455-.013.5,0,1,0,1.5" transform="translate(-35.539 -10.864)" fill="#040505"/><path d="M31.708,66.216c-.081.1-.166.216-.268.318-.7.708-1.423,1.4-2.11,2.125-.251.265-.386.248-.649,0-1.313-1.217-1.321-1.208-.083-2.445.212-.212.414-.434.638-.632.333-.294.7-.964.964-.835a6.242,6.242,0,0,1,1.421,1.3.76.76,0,0,1,.087.168" transform="translate(-19.366 -45.287)" fill="#040505"/><path d="M53.017,75.457v.823c0,1.1,0,1.1-1.1,1.1-1.132,0-1.132,0-1.132-1.139,0-.773.015-1.546-.006-2.318-.01-.352.1-.456.461-.474,1.781-.088,1.78-.1,1.78,1.632Z" transform="translate(-35.522 -51.363)" fill="#040505"/><path d="M70.708,69.212c-.175.006-.245-.151-.345-.249-.71-.7-1.406-1.418-2.125-2.11-.249-.239-.27-.382-.018-.657,1.214-1.322,1.2-1.331,2.453-.081.194.194.4.378.579.585.3.351,1,.709.87,1.013a5.7,5.7,0,0,1-1.285,1.422.565.565,0,0,1-.131.076" transform="translate(-47.601 -45.606)" fill="#030404"/><path d="M72.518,25.385c-.067.074-.148.167-.234.254-.705.707-1.423,1.4-2.111,2.124-.27.284-.428.277-.715,0-1.263-1.2-1.273-1.188-.064-2.4.424-.424.845-.85,1.273-1.269a1.11,1.11,0,0,1,.345-.258,7.15,7.15,0,0,1,1.506,1.542" transform="translate(-47.92 -16.679)" fill="#040505"/><path d="M29.836,23.728c.085.076.162.139.232.209.741.739,1.475,1.485,2.223,2.217.213.208.25.333.02.59-1.227,1.373-1.217,1.383-2.5.1-.176-.176-.363-.343-.526-.531-.319-.366-1.042-.735-.913-1.055.224-.556.833-.957,1.284-1.42a.941.941,0,0,1,.178-.114" transform="translate(-19.839 -16.6)" fill="#040505"/><path d="M150.96,25.416c-1.277-.018-1.1.161-1.107-1.2,0-1.234-.143-1.049,1.246-1.053,1.178,0,.985-.132,1,1.3.008.944,0,.944-1.137.944" transform="translate(-104.83 -16.203)" fill="#fcfcfc"/><path d="M137.131,24.339c-.018,1.251.152,1.071-1.23,1.072-1.2,0-1.014.152-1.018-1.282,0-1.139-.124-.957,1.265-.962,1.143,0,.967-.114.983,1.171" transform="translate(-94.357 -16.202)" fill="#fcfcfc"/><path d="M166.948,24.308c-.015,1.258.14,1.109-1.118,1.111-1.182,0-1.015.117-1.017-1.208,0-1.2-.124-1.029,1.189-1.039.946-.007.946,0,.946,1.136" transform="translate(-115.296 -16.209)" fill="#fcfcfc"/><path d="M238.461,125.787c.6-.082,1.216.136,1.794-.154.006,3.363.007,6.726.027,10.089,0,.412-.1.593-.542.558-.47-.037-.945-.021-1.418-.029q0-4.7.008-9.408c.181-.336,0-.716.131-1.057" transform="translate(-166.726 -87.891)" fill="#55a7a8"/><path d="M13.962,195.889c-1.089-.789-2.162-1.6-3.276-2.356-.449-.3-.435-.5-.129-.91q4.274-5.731,8.507-11.493c1.112-1.505,2.22-3.013,3.338-4.515.144-.193.238-.443.535-.55a9.188,9.188,0,0,0,3.359,3,3.1,3.1,0,0,1-.213.394q-3.923,5.3-7.85,10.6c-1.431,1.938-2.849,3.886-4.273,5.829" transform="translate(-7.232 -123.173)" fill="#ec7251"/><path d="M22.4,202.867c1.424-1.943,2.841-3.892,4.273-5.829q3.919-5.306,7.85-10.6a3.1,3.1,0,0,0,.213-.394c1.441.476,1.441.476.549,1.685L24.237,202.682c-.794,1.075-.793,1.076-1.833.184" transform="translate(-15.673 -130.151)" fill="#e54826"/><path d="M66.055,167.024c1.583-.711,1.581-.711,1.538.957-.019.746-.059,1.493-.03,2.237.022.569-.189.635-.649.434a3.2,3.2,0,0,1-1-.47,20.657,20.657,0,0,0,.14-3.158" transform="translate(-46.113 -116.532)" fill="#e54826"/><path d="M60.421,168.074a20.658,20.658,0,0,1-.14,3.158,5.585,5.585,0,0,1-2.42-2.315,20.038,20.038,0,0,1,2.56-.843" transform="translate(-40.479 -117.582)" fill="#ec7251"/><path d="M215.033,12.469l7.31,7.105c-2.465,0-4.722,0-6.98,0-.275,0-.332-.15-.332-.38,0-2.162,0-4.324,0-6.728" transform="translate(-150.433 -8.723)" fill="#5bbae4"/><path d="M156.068,187.712l4.118-1.547a5.79,5.79,0,0,1-.824,4.408c-.236.368-.388.516-.742.084-.8-.981-1.657-1.919-2.552-2.945" transform="translate(-109.183 -130.238)" fill="#94d1ee"/><path d="M199.6,70.656a3.727,3.727,0,0,1-4.178-3.7,3.766,3.766,0,0,1,4.038-3.749,5.04,5.04,0,0,1,1.49,5.17,7.78,7.78,0,0,1-1.35,2.284" transform="translate(-136.715 -44.211)" fill="#fcfcfc"/><path d="M98.822,70.681a3.751,3.751,0,1,1,0-7.469c.061.078.118.16.183.235a5.078,5.078,0,0,1,1.34,4.383,6.241,6.241,0,0,1-1.524,2.852" transform="translate(-66.264 -44.214)" fill="#fcfcfc"/><path d="M201.269,100.74c.979,2.069,1.879,3.984,2.793,5.892.177.37.163.521-.309.516-1.672-.019-3.343-.011-5.015,0-.318,0-.493-.062-.321-.422.933-1.952,1.862-3.9,2.851-5.98" transform="translate(-138.763 -70.476)" fill="#ec7251"/><path d="M151.025,85.87a2.817,2.817,0,0,1,.007-5.631,4.689,4.689,0,0,1,1.075,3.009,5.012,5.012,0,0,1-1.083,2.622" transform="translate(-103.756 -56.134)" fill="#fcfcfc"/><path d="M209,70.669a7.781,7.781,0,0,0,1.35-2.284,5.04,5.04,0,0,0-1.49-5.17A3.758,3.758,0,0,1,212.428,67,3.7,3.7,0,0,1,209,70.669" transform="translate(-146.118 -44.224)" fill="#cad7f2"/><path d="M108.378,70.707a6.241,6.241,0,0,0,1.524-2.852,5.078,5.078,0,0,0-1.34-4.383c-.065-.075-.122-.156-.183-.235a3.745,3.745,0,0,1,0,7.469" transform="translate(-75.82 -44.24)" fill="#cad7f2"/><path d="M157.344,85.867a5.012,5.012,0,0,0,1.083-2.622,4.689,4.689,0,0,0-1.075-3.009,2.819,2.819,0,1,1-.007,5.631" transform="translate(-110.075 -56.132)" fill="#cad7f2"/><path d="M49.822,48.561a1.984,1.984,0,1,1,2.017-1.954,1.961,1.961,0,0,1-2.017,1.954" transform="translate(-33.487 -31.198)" fill="#f2c080"/></g></g></g></svg>