<svg xmlns="http://www.w3.org/2000/svg" xmlns:xlink="http://www.w3.org/1999/xlink" width="295" height="197" viewBox="0 0 295 197"><defs><clipPath id="a"><rect width="288.661" height="176.659" fill="none"/></clipPath><clipPath id="c"><rect width="5.852" height="4.603" fill="none"/></clipPath><clipPath id="d"><rect width="5.751" height="2.44" fill="none"/></clipPath></defs><g transform="translate(-495 -1562)"><rect width="295" height="197" transform="translate(495 1562)" fill="none"/><g transform="translate(498.169 1572.17)"><g clip-path="url(#a)"><g clip-path="url(#a)"><path d="M112.43,144.8c-.678,2.481-4.413,6.769-6.866,7.719a26.222,26.222,0,0,1-7.768,1.315,11.054,11.054,0,0,0,7,3.814,17.47,17.47,0,0,0,8.085-.867,5.3,5.3,0,0,0,3.051-2.011,5.623,5.623,0,0,0,.587-2.2q.24-1.937.481-3.873Z" transform="translate(0.028 0.042)" fill="#a95b35"/><path d="M116.659,152.374a11.406,11.406,0,0,1-2.119.682l-8.759,2.2a6.7,6.7,0,0,1-1.7.276c-1.539-.014-2.835-1.042-4.149-1.821s-3.093-1.312-4.316-.405a1.356,1.356,0,0,0-.6,1.377,1.922,1.922,0,0,0,.474.723l3.22,3.6c1.011,1.13,2.18,2.342,3.715,2.477,1.364.119,2.617-.651,3.866-1.2a12.675,12.675,0,0,1,6.081-1.012,56.844,56.844,0,0,1-4.032,4.717l1.66,1.252a27.892,27.892,0,0,1,3.9-4.178c3.692-3.047,2.763-8.693,2.763-8.693" transform="translate(0.027 0.044)"/><path d="M174.873,108.367c-.462,3.7-1.047,7.66-3.611,10.361a11.683,11.683,0,0,1-6.7,3.235,31.792,31.792,0,0,1-7.559.027,243.652,243.652,0,0,1-33.248-5.032c1.07,10.914,2.142,21.85,2.11,32.817a41.288,41.288,0,0,1-19.1-3.741.763.763,0,0,1-.589-.923l2.533-37.685a10.191,10.191,0,0,1,.65-3.491c1.384-3.113,5.336-4.011,8.738-4.2a112.126,112.126,0,0,1,14.566.47L158.9,102.2a7.274,7.274,0,0,1,4.019,1.228q4.234,2.395,8.469,4.788c.312.177.671.448.6.8Z" transform="translate(0.031 0.029)" fill="#cc8221"/><path d="M119.035,148.659c.945,2.4.5,8-.913,10.168a25.206,25.206,0,0,1-5.5,5.492,11.262,11.262,0,0,0,7.967-.9,16.844,16.844,0,0,0,6.03-5.309,5.068,5.068,0,0,0,1.261-3.368,5.662,5.662,0,0,0-.851-2.121l-1.944-3.413Z" transform="translate(0.032 0.043)" fill="#a95b35"/><path d="M130.682,42.653a2.113,2.113,0,0,1-.789-2.787,1.763,1.763,0,0,1,1.87-.705,1.767,1.767,0,0,1-.137-1.747,2.645,2.645,0,0,1,2.466-1.248,7.792,7.792,0,0,1,2.784.81,1.578,1.578,0,0,1,.222-2.3,2.164,2.164,0,0,1,2.467.057,2.912,2.912,0,0,1,.783.838,1.614,1.614,0,0,1,.548-.86,1.743,1.743,0,0,1,2.4.34,2.147,2.147,0,1,1,4.083,1.3,2,2,0,0,1,2.571.007,2.835,2.835,0,0,1,.88,2.549,2.384,2.384,0,0,1,3.016,3.424c1-.45,2.158.606,2.237,1.7a4.228,4.228,0,0,1-.794,2.468,2.86,2.86,0,0,1-1.247,2.985,1.481,1.481,0,0,1,1.688,1.094,3.037,3.037,0,0,1-.771,2.435,2.063,2.063,0,0,1-.66.61,1.562,1.562,0,0,1-.163,1.229,3.775,3.775,0,0,1-1.925,1.781,1.275,1.275,0,0,1-.706.108,1.461,1.461,0,0,1-1.06.92,3.329,3.329,0,0,1-2.234-.665l-5.57-1.23c.409.67-.235,1.589-1.007,1.727a3.146,3.146,0,0,1-2.192-.685,2.179,2.179,0,0,1-1.187-1.581.81.81,0,0,1,.2-.53,4.683,4.683,0,0,1-2.5-1.519,2.213,2.213,0,0,1-.7-1.28,1,1,0,0,1,.394-.841,4.045,4.045,0,0,1-4.306-2.134,1.121,1.121,0,0,1-.063-1.058.4.4,0,0,1,.068-.079,2.871,2.871,0,0,1-.659-5.125m20.526,2.276c.064-.043.132-.08.2-.117l-.137-.086c-.02.068-.04.136-.063.2" transform="translate(0.037 0.01)"/><path d="M129.854,68.093c1.11.828.629,2.674.555,4.056q-.524,9.742-1.046,19.486a3.188,3.188,0,0,1-4,3.634q-17.5,0-34.977-1a2.529,2.529,0,0,1-2.89-3A169.783,169.783,0,0,1,87.9,70.217a2.676,2.676,0,0,1,2.616-2.468s36.6-1.694,39.337.344" transform="translate(0.025 0.019)" fill="#f59f18"/><path d="M127.966,70.011a93.491,93.491,0,0,1-1.4,21.391.783.783,0,0,1-.935.819q-18.422.236-36.843-.3c.626-7.2,0-14.749.629-21.948Z" transform="translate(0.026 0.02)" fill="#fff"/><path d="M130.09,44.743c.036,2.341-.115,5.8-.079,8.141a21.072,21.072,0,0,0,.948,7.2,2.9,2.9,0,0,0,.813,1.282,3.041,3.041,0,0,0,1.593.519,24.675,24.675,0,0,0,6.833-.338q2.581,4.267,5.382,8.4a1.686,1.686,0,0,0,.815.757,1.6,1.6,0,0,0,1.146-.232A14.12,14.12,0,0,0,153.365,65a2.256,2.256,0,0,0,.41-1.323,2.43,2.43,0,0,0-.632-1.2l-6.08-7.617a1.771,1.771,0,0,0,2.124-.232,2.648,2.648,0,0,0,.762-2.1,3.285,3.285,0,0,0-2.059-2.871,2.818,2.818,0,0,0-3.281,1.086,38.612,38.612,0,0,0-.76-8.635c-4.154.68-9.614,1.36-13.769,2.04Z" transform="translate(0.037 0.012)" fill="#a95b35"/><path d="M146.319,101.934a33.422,33.422,0,0,1-6.169-6.384,3.257,3.257,0,0,0-1.164-1.14,3.061,3.061,0,0,0-1.193-.2,139.6,139.6,0,0,0-20.545.938,2.512,2.512,0,0,0,.819-1.239c.09-.5-.264-1.1-.766-1.061a1.254,1.254,0,0,0-.737.45l-1.506,1.5c.5-.6.986-1.537.419-2.075a1.079,1.079,0,0,0-1.4.1,3.134,3.134,0,0,0-.75,1.33,3.3,3.3,0,0,0,.51-1.683c-.042-.592-.543-1.194-1.131-1.114a1.5,1.5,0,0,0-.757.428,8.209,8.209,0,0,0-1.984,2.691,2.7,2.7,0,0,0-.1,2.559c.491.744,1.923.719,2.08-.159a1.685,1.685,0,0,0,1.578.675,3.086,3.086,0,0,1,.809-.114,1.84,1.84,0,0,1,.86.482,6.454,6.454,0,0,0,4.966,1.273,21.923,21.923,0,0,1,3.334-.679,8.069,8.069,0,0,1,2.65.588c2.917,1,20.182,2.827,20.182,2.827" transform="translate(0.032 0.026)" fill="#874125"/><path d="M142.84,68.752c-1.85,1.76-2.2,4.527-2.635,7.043A48.329,48.329,0,0,1,136.5,87.682a2.568,2.568,0,0,0-.348,1.344,2.507,2.507,0,0,0,.563,1.126l5.79,7.878c4.09-3.275,5.24-8.915,6.121-14.079Z" transform="translate(0.039 0.02)"/><path d="M180.76,109.348c-.462,3.7-1.047,7.66-3.611,10.361a11.686,11.686,0,0,1-6.7,3.235,31.792,31.792,0,0,1-7.559.027,243.647,243.647,0,0,1-33.248-5.032c1.07,10.914,2.142,21.85,2.11,32.816a41.275,41.275,0,0,1-19.1-3.74.763.763,0,0,1-.589-.923l2.533-37.685a10.187,10.187,0,0,1,.65-3.491c1.384-3.113,5.336-4.011,8.738-4.2a112.128,112.128,0,0,1,14.566.47l26.244,1.991a7.274,7.274,0,0,1,4.019,1.228q4.234,2.395,8.469,4.788c.311.176.671.448.6.8Z" transform="translate(0.032 0.029)" fill="#f59f18"/><path d="M83.921,78.226a3.89,3.89,0,0,1,3.1-1.019,4.229,4.229,0,0,1,2.451-3.837l.259-.12q.155,7.3-.2,14.6a3.842,3.842,0,0,1-2.315-4.478c-1.616.117-3.468-.536-4.04-2.053a3,3,0,0,1,.751-3.095M85,81.41a1.26,1.26,0,0,0,1.43-.916,1.388,1.388,0,0,0-.788-1.541s-1.248.421-1.462,1.011A1.156,1.156,0,0,0,85,81.41" transform="translate(0.024 0.021)" fill="#6da8c6"/><path d="M115.814,75.944c1.178,1.568.8,3.645.144,5.349a10.549,10.549,0,0,1-3.071,4.494,4.6,4.6,0,0,1-2.385,1.006,4.416,4.416,0,0,1-2.674-.653,5.8,5.8,0,0,1-2.56-5.083,3.811,3.811,0,0,1,.95-2.749,1.916,1.916,0,0,1,2.535-.221A4.374,4.374,0,0,1,110.3,82.21a4.664,4.664,0,0,1-2.493,3.624,5.234,5.234,0,0,1-4.5-.117,4.927,4.927,0,0,1-2.73-3.677,5.918,5.918,0,0,1,1.267-4.618,5.676,5.676,0,0,1,.883-.849l-.535-.141a2.638,2.638,0,0,1-.337,2.321,3.228,3.228,0,0,1-2.138,1.318,3.56,3.56,0,0,1-2.559-.418,2.191,2.191,0,0,1-.8-2.224,4.309,4.309,0,0,1,1.412-2.27,8.191,8.191,0,0,1,2.339-1.514,8.1,8.1,0,0,1,1.305-.429,2.179,2.179,0,0,1,1.437.016.789.789,0,0,1,.472.9c-.147.382-.662.64-.994.839a16.711,16.711,0,0,1-5.109,1.692c-.877.194-1.757.389-2.617.653A3.826,3.826,0,0,0,92.429,78.5c-.557.823-.075,1.847.326,2.621a13.522,13.522,0,0,0,1.461,2.23,13.176,13.176,0,0,0,1.908,1.93,7.942,7.942,0,0,0,2.361,1.461,2.709,2.709,0,0,0,2.43-.238c.566-.4,1.057-1.263.532-1.9a.771.771,0,0,0-.98-.16,1.861,1.861,0,0,0-.724.924,3.2,3.2,0,0,0-.061,2.354,3.135,3.135,0,0,0,.61,1.006c.276.307.727-.147.452-.452a2.524,2.524,0,0,1-.571-2.157,1.893,1.893,0,0,1,.527-1.062c.32-.263.363.21.279.426-.291.757-1.339.9-2.022.733A6.412,6.412,0,0,1,96.542,84.8a12.92,12.92,0,0,1-3.313-4.156,2.659,2.659,0,0,1-.407-1.389,1.171,1.171,0,0,1,.745-.884,11.756,11.756,0,0,1,2.5-.794,36.038,36.038,0,0,0,5.215-1.386,7.4,7.4,0,0,0,2.268-1.312,1.321,1.321,0,0,0-.187-2.079,3.039,3.039,0,0,0-2.677-.048,8.823,8.823,0,0,0-2.45,1.208c-1.4.993-2.785,2.533-2.531,4.382a2.61,2.61,0,0,0,1.344,1.994,4.349,4.349,0,0,0,2.58.389,3.7,3.7,0,0,0,3.324-3.273,2.922,2.922,0,0,0-.153-1.191.325.325,0,0,0-.534-.141,6.454,6.454,0,0,0-2.4,4.86,5.637,5.637,0,0,0,2.251,4.768,6.089,6.089,0,0,0,5.031,1,5.106,5.106,0,0,0,3.572-3.516,5.4,5.4,0,0,0-.829-4.921,2.889,2.889,0,0,0-2.648-1.228,3.079,3.079,0,0,0-2.265,1.977,6.326,6.326,0,0,0-.239,3.391,6.577,6.577,0,0,0,1.324,2.989,5.135,5.135,0,0,0,5.646,1.73,8.311,8.311,0,0,0,4.161-4.178c.94-1.783,1.739-4,1.157-6.027a4.141,4.141,0,0,0-.668-1.342c-.244-.325-.8-.006-.552.323" transform="translate(0.027 0.021)"/><path d="M151.618,59.235a26.239,26.239,0,0,0,7.217,3.623A31.7,31.7,0,0,1,162.78,64.2c2.633,1.248,4.574,3.591,6.185,6.018a44.483,44.483,0,0,1,5.38,11.3,49.929,49.929,0,0,0,2.052,6.15c.8,1.735,1.915,3.316,2.7,5.058a30.512,30.512,0,0,1,2.023,8.655q.678,5.1,1.354,10.192c-2.7-.506-5.533.49-8.225-.071-2.744-.572-4.932-2.667-7.6-3.522a26.41,26.41,0,0,0-5.136-.755,26.808,26.808,0,0,1-6.315-1.507,2.026,2.026,0,0,1-1.562-1.8,23.031,23.031,0,0,1-.587-7.812,32.922,32.922,0,0,0-9.672-5.525c.938-4.46-2.237-8.753-2.543-13.3-.282-4.179,1.429-7.565,1.433-11.754,1.93,0,4.305-1.088,6.038-1.937a6.182,6.182,0,0,0,3.312-4.355" transform="translate(0.041 0.017)"/><path d="M158.085,128.969c-4.1,11.812-10.579,22.63-15.735,34.019a5.822,5.822,0,0,0-.674,2.321,2.032,2.032,0,0,0,1.179,1.955c1.064.379,2.137-.509,2.863-1.374,2.224-2.651,14.422-27.837,18.522-37.519Z" transform="translate(0.041 0.037)" fill="#bc700c"/><path d="M169.058,128.547c-4.807,14.52-18.709,43.582-19.314,44.089a1.89,1.89,0,0,1-3.215-1.766c.1-.854,13.182-29.365,18.09-43.355Z" transform="translate(0.042 0.037)" fill="#f59f18"/><path d="M181.712,129.609l20.535,32.563a2.187,2.187,0,0,1-1.653,3.364,1.819,1.819,0,0,1-1.163-.314,3.448,3.448,0,0,1-.861-1l-22.32-33.782,3.473-2.533Z" transform="translate(0.051 0.037)" fill="#bc700c"/><path d="M179.343,130.989q9.766,20.884,18.205,42.357a3.292,3.292,0,0,1,.331,1.961c-.331,1.31-2.195,1.662-3.351.963a6.531,6.531,0,0,1-2.28-3.265c-6.066-14.341-11.566-28.981-19.2-42.551a1,1,0,0,1-.181-.831.96.96,0,0,1,.548-.44,13.529,13.529,0,0,1,5.094-1.135Z" transform="translate(0.05 0.037)" fill="#f59f18"/><path d="M169.3,116.783c4.216-.1,8-2.909,10.354-6.4s3.533-7.636,4.644-11.7,2.226-8.215,4.487-11.774,5.9-6.5,10.107-6.835c1.588-.126,3.508.363,4.014,1.875.589,1.758-1.093,3.362-2.416,4.663-4.039,3.974-5.988,9.642-6.82,15.247s-.68,11.311-1.219,16.953a14.077,14.077,0,0,1-1.462,5.714c-1.583,2.77-4.673,4.292-7.684,5.344a47.288,47.288,0,0,1-27.8.974c-2.651-.722-5.412-1.808-6.957-4.078a3.543,3.543,0,0,1-.688-2.785,4.5,4.5,0,0,1,2.3-2.455,34.6,34.6,0,0,1,19.432-4.9Z" transform="translate(0.043 0.023)" fill="#a0352a"/><path d="M188,107.716c-1.261,4.059-2.872,8.543-6.684,10.424-3.588,1.77-7.837.6-11.832.393a23.882,23.882,0,0,0-17.295,6.317c-.916.855-1.829,2.125-1.293,3.258a3.121,3.121,0,0,0,2.093,1.365,40.546,40.546,0,0,0,19.461.871,25.616,25.616,0,0,0,10.172-4.173,14.885,14.885,0,0,0,6-9c.519-2.782.153-5.953,1.957-8.134Z" transform="translate(0.043 0.031)" fill="#a0352a"/><path d="M172.656,116.268c-5.568-.234-11.344-.232-16.583,1.923A19.514,19.514,0,0,0,152.2,120.3c-.333.236-.014.791.323.552,4.42-3.129,9.924-3.982,15.224-4.043,1.636-.019,3.273.032,4.907.1.412.017.411-.623,0-.64" transform="translate(0.044 0.033)" fill="#72201c"/><path d="M189.493,120.32a5.218,5.218,0,0,1-3.159,5.05c-.377.152-.213.771.17.617a5.865,5.865,0,0,0,3.629-5.668c-.024-.409-.664-.412-.64,0" transform="translate(0.054 0.035)" fill="#72201c"/><path d="M187.224,121.371a2.785,2.785,0,0,1-2.3,2.453.331.331,0,0,0-.32.32c0,.155.147.343.32.32a3.423,3.423,0,0,0,2.939-3.093.323.323,0,0,0-.32-.32.326.326,0,0,0-.32.32" transform="translate(0.053 0.035)" fill="#72201c"/><path d="M197.311,82.222a10.419,10.419,0,0,0-6.906,6.469c-.138.388.48.555.617.17a9.747,9.747,0,0,1,6.459-6.022.32.32,0,0,0-.17-.617" transform="translate(0.055 0.024)" fill="#72201c"/><path d="M196.548,83.445a17.163,17.163,0,0,0-5.292,4.984c-.233.34.321.66.553.323A16.414,16.414,0,0,1,196.871,84a.32.32,0,0,0-.323-.552" transform="translate(0.055 0.024)" fill="#72201c"/><path d="M147.579,50.6a5.64,5.64,0,0,0-1.848,2.09.32.32,0,1,0,.552.323,5.461,5.461,0,0,1,.327-.558,3.97,3.97,0,0,1,.364-.474,5.381,5.381,0,0,1,.444-.449c.08-.072.163-.141.248-.208l.089-.068c.048-.035.1-.069.146-.1a.32.32,0,1,0-.323-.552" transform="translate(0.042 0.015)" fill="#5b1d1d"/><path d="M148.245,51.955l-1.287-.272a.32.32,0,0,0-.17.617l1.287.272a.32.32,0,0,0,.17-.617" transform="translate(0.042 0.015)" fill="#5b1d1d"/><g transform="translate(140.236 58.823)" opacity="0.55"><g clip-path="url(#c)"><path d="M140.2,61.543l5.851-2.737-4.738,4.6Z" transform="translate(-140.196 -58.806)" fill="#5b1d1d"/></g></g><path d="M145.181,50.152a2.644,2.644,0,0,1-.612,1.28.914.914,0,0,1-1.28.044c-.447-.542.161-1.305.718-1.734a2.059,2.059,0,0,1-1.385-2.349,5.993,5.993,0,0,1,1.363-2.646A1.268,1.268,0,1,1,142.174,43a2.864,2.864,0,0,1-3.68.384,3.138,3.138,0,0,1-3.99.859,1.964,1.964,0,0,1-2.919.475,1.207,1.207,0,0,1-2.2-.955c-.127.194-.458.115-.574-.086a1.031,1.031,0,0,1-.046-.68,3.828,3.828,0,0,1,.966-2.33c.64-.571,1.877-.5,2.152.309a3.177,3.177,0,0,1,4.582-2.224,2.252,2.252,0,0,0,.939.456,1.924,1.924,0,0,0,.942-.3,5.773,5.773,0,0,1,6.407,1.057,3.275,3.275,0,0,1,4.4,3.8,3.612,3.612,0,0,1,2.438,4.166,1.357,1.357,0,0,1-.55.887.627.627,0,0,1-.9-.258.921.921,0,0,1,1.223.788,1.5,1.5,0,0,1-.87,1.367,2.256,2.256,0,0,1-2.691-.535.792.792,0,0,1-.989.551,2.308,2.308,0,0,1-1.032-.726.95.95,0,0,1-1.053.784Z" transform="translate(0.037 0.011)"/><path d="M134.465,50.066a11.7,11.7,0,0,1-2.273,5.451c-.191.251.123.507.361.47a5.954,5.954,0,0,0,3.11-1.506c.3-.278-.149-.73-.452-.452a5.383,5.383,0,0,1-2.828,1.342c.12.156.24.313.361.469a12.089,12.089,0,0,0,2.338-5.6.332.332,0,0,0-.224-.393.321.321,0,0,0-.393.223" transform="translate(0.038 0.014)" fill="#5b1d1d"/><path d="M137.466,56.006a.568.568,0,0,1-.02.925,1.017,1.017,0,0,1-1.054-.043c-.316-.181-.589-.559-.443-.893a.676.676,0,0,1,.337-.317,1.142,1.142,0,0,1,1.412.411Z" transform="translate(0.039 0.016)" fill="#fcfcfc"/><path d="M137.305,56.282c.077.039-.008-.028.03.018.055.066-.017-.048.014.017-.007.02,0-.02.011.018.036.121.014-.013.014.048v.08c0,.067.016-.056,0-.015,0,.016-.006.034-.01.05-.015.052-.044.1-.016.058s-.006.01-.01.018-.021.034-.032.052c-.03.051.01-.019.014-.017l-.041.045c-.037.008.03-.011-.021.015a.667.667,0,0,0-.058.033c-.04.027.068-.02-.009,0-.042.013-.084.024-.128.033.078-.016-.005,0-.02,0h-.054l-.054,0c-.013,0-.1-.014-.024,0a1.453,1.453,0,0,1-.265-.075c.06.024-.029-.015-.048-.025a1.1,1.1,0,0,1-.114-.067l-.042-.03c.06.044-.008-.009-.017-.017-.033-.029-.062-.062-.093-.094-.056-.06.021.035-.007-.006l-.036-.054c-.018-.029-.033-.059-.048-.089.035.071-.009-.039-.015-.063-.017-.065,0,.013,0,.014s0-.066,0-.083c0-.042-.026.069,0,0a.453.453,0,0,1,.023-.052c.011-.017.047-.056,0-.009a1.033,1.033,0,0,1,.075-.073c-.055.048.01,0,.021-.012a.77.77,0,0,1,.069-.039.307.307,0,0,1,.045-.022c-.009-.006-.06.023,0,0a.9.9,0,0,1,.1-.03l.057-.012c.042-.007.037-.027,0,0,.023-.015.088-.006.117-.006l.059,0,.039,0c-.053,0,.021,0,.028.005q.035.006.069.015a1.106,1.106,0,0,1,.124.038c.024.009.066.01,0,0a.223.223,0,0,1,.064.031,1.032,1.032,0,0,1,.1.06s.068.043.025.015.033.028.04.035a1.083,1.083,0,0,1,.083.083s.049.064.019.022.025.038.029.046a.32.32,0,0,0,.552-.323,1.476,1.476,0,0,0-1.162-.667,1.007,1.007,0,0,0-.484,1.955,1.229,1.229,0,0,0,1.448-.153.879.879,0,0,0-.148-1.332.32.32,0,1,0-.323.552" transform="translate(0.039 0.016)" fill="#5b1d1d"/><path d="M138.038,51.357c0,.617.333,1.117.745,1.117s.745-.5.745-1.117-.334-1.117-.745-1.117-.745.5-.745,1.117" transform="translate(0.04 0.014)"/><path d="M131.054,51.45c0,.617.333,1.117.745,1.117s.745-.5.745-1.117-.334-1.117-.745-1.117-.745.5-.745,1.117" transform="translate(0.038 0.014)"/><path d="M137.042,47.855q.188.471.374.94a11.644,11.644,0,0,1,3.565.54,3.725,3.725,0,0,0-3.67-1.687Z" transform="translate(0.039 0.014)"/><path d="M133.655,47.42q-.188.47-.374.94a11.613,11.613,0,0,0-3.565.54,3.726,3.726,0,0,1,3.67-1.687Z" transform="translate(0.037 0.014)"/><path d="M152.7,87.538l-.041.117.041-.117" transform="translate(0.044 0.025)" fill="#a95b35"/><path d="M117.032,71.667a53.472,53.472,0,0,1,7.608,2.269c.61.248,1.222.5,1.835.755a6.619,6.619,0,0,1,.5-4.2.571.571,0,0,1,.249-.3c.239-.105.487.129.618.355.605,1.045.505,2.369,1.012,3.466s2.553,5.047,3.216,6.036c2.151,1.2,18.45,13.741,18.455,13.7l2.146-6.092q4.753,2.5,9.28,5.406c-1.307,4.559-2.745,9.341-6.154,12.64a4.985,4.985,0,0,1-1.746,1.194c-1.62.574-3.373-.289-4.818-1.218-8.491-5.456-14.568-13.867-20.427-22.085a11.321,11.321,0,0,0-3.284.316,4.96,4.96,0,0,1-3.234-.306,2.1,2.1,0,0,1-.929-2.8,1.5,1.5,0,0,1-.527-2.627,1.568,1.568,0,0,1-.827-1.7,1.141,1.141,0,0,1,1.605-.709.764.764,0,0,1-.169-.1,3.3,3.3,0,0,1-1.291-.6,32.8,32.8,0,0,1-3.605-2.795.486.486,0,0,1-.18-.251c-.053-.29.375-.391.668-.354" transform="translate(0.034 0.02)" fill="#a95b35"/><path d="M121.348,75.337a1.717,1.717,0,0,0-1.5,1.426,1.914,1.914,0,0,0,.241,1.159.768.768,0,0,1-.02.677,2.255,2.255,0,0,0-.178.638,1.685,1.685,0,0,0,.765,1.537c.072.048.165.073.191.161s-.056.246-.069.325a2.759,2.759,0,0,0,.729,2.375c.285.3.737-.154.452-.452a2.112,2.112,0,0,1-.528-.969,2.579,2.579,0,0,1,.034-1.109.76.76,0,0,0-.424-.844,1.065,1.065,0,0,1-.512-.8c-.037-.384.211-.7.268-1.069.067-.429-.17-.711-.294-1.1a1.066,1.066,0,0,1,.848-1.315c.405-.043.41-.683,0-.64" transform="translate(0.035 0.022)" fill="#5b1d1d"/><path d="M121.762,76.723a15.258,15.258,0,0,0,.355,5.8.32.32,0,0,0,.617-.17,14.771,14.771,0,0,1-.332-5.627c.023-.173-.164-.318-.32-.32a.328.328,0,0,0-.32.32" transform="translate(0.035 0.022)" fill="#5b1d1d"/><path d="M130.184,80.132a17.85,17.85,0,0,0-1.441,2.835.322.322,0,0,0,.223.394.328.328,0,0,0,.393-.224,17.049,17.049,0,0,1,1.377-2.682c.22-.35-.333-.671-.552-.323" transform="translate(0.037 0.023)" fill="#5b1d1d"/><path d="M118.015,93.368l-1.407,2.678a.322.322,0,0,0,.5.388,5.864,5.864,0,0,1,7.537-.008c.308.272.763-.179.454-.452a6.517,6.517,0,0,0-8.442.008l.5.387q.7-1.338,1.405-2.678c.191-.364-.36-.688-.551-.323" transform="translate(0.034 0.027)" fill="#380d0d"/><path d="M115.37,93.7a12.808,12.808,0,0,1-1.581,2.661.332.332,0,0,0,0,.452.323.323,0,0,0,.453,0,13.45,13.45,0,0,0,1.68-2.79.33.33,0,0,0-.115-.438.322.322,0,0,0-.437.115" transform="translate(0.033 0.027)" fill="#380d0d"/><path d="M113.835,92.627l-2.321,3.514c-.228.345.326.665.552.323q1.161-1.757,2.321-3.514c.228-.345-.326-.665-.552-.323" transform="translate(0.032 0.027)" fill="#380d0d"/><path d="M127.059,95.129q-.287,1.056-.574,2.113a.32.32,0,0,0,.617.17q.287-1.056.574-2.113a.32.32,0,0,0-.617-.17" transform="translate(0.036 0.027)" fill="#380d0d"/><path d="M127.025,152.387a10.948,10.948,0,0,1-1.305,1.76l-5.772,6.776a6.505,6.505,0,0,1-1.21,1.192c-1.256.864-2.926.77-4.459.887s-3.3.7-3.743,2.132a1.347,1.347,0,0,0,.341,1.46,2.043,2.043,0,0,0,.819.316l4.777,1.081c1.5.339,3.178.656,4.5-.109,1.178-.681,1.728-2.019,2.412-3.174a12.187,12.187,0,0,1,4.318-4.284,55.17,55.17,0,0,1-.425,6.12l2.1.069a26.843,26.843,0,0,1,.643-5.608c1.157-4.572-3-8.618-3-8.618" transform="translate(0.032 0.044)"/><path d="M131.294,145.9a87.462,87.462,0,0,1-14.349-3.179q-1.984-.618-3.937-1.33c-.387-.141-.554.477-.17.617a87.966,87.966,0,0,0,14.316,3.881q2.063.375,4.14.651c.173.023.318-.164.32-.32a.328.328,0,0,0-.32-.32" transform="translate(0.032 0.041)" fill="#9e6016"/><path d="M111.935,141.753l-4.855-2.156c-.373-.166-.7.385-.323.552l4.855,2.156c.373.166.7-.385.323-.552" transform="translate(0.031 0.04)" fill="#9e6016"/><path d="M130.32,118.217q-1.469-2.8-2.939-5.6c-.192-.364-.744-.042-.552.324l2.939,5.6c.191.364.743.042.552-.324" transform="translate(0.037 0.032)" fill="#9e6016"/><path d="M128.733,118.034a17.1,17.1,0,0,0-3.106-4.7c-.281-.3-.733.151-.453.452a16.569,16.569,0,0,1,3.007,4.568c.166.375.718.05.552-.323" transform="translate(0.036 0.033)" fill="#9e6016"/><path d="M168.9,110.161a10.348,10.348,0,0,1-3.1,1.251c-1.148.291-2.316.514-3.485.7a62.067,62.067,0,0,1-7.267.693c-4.856.205-9.717.008-14.574.015a69.377,69.377,0,0,0-7.211.249,9.082,9.082,0,0,0-3.223.867,7.84,7.84,0,0,0-2.209,1.728,13.768,13.768,0,0,0-2.782,5.209,30.052,30.052,0,0,0-1.187,6.893c-.164,2.39-.153,4.788-.14,7.181.014,2.523.059,5.045.11,7.567q.018.926.038,1.853a.32.32,0,0,0,.639,0c-.1-4.9-.269-9.814-.1-14.712a36.1,36.1,0,0,1,.808-6.944,16.222,16.222,0,0,1,2.343-5.683,8.324,8.324,0,0,1,1.927-2,7.077,7.077,0,0,1,2.849-1.183,24.137,24.137,0,0,1,3.472-.294c1.212-.05,2.427-.075,3.641-.084,4.825-.039,9.653.165,14.478.02a69.681,69.681,0,0,0,7.115-.544c1.191-.159,2.377-.356,3.553-.6a18.324,18.324,0,0,0,3.2-.894,8.777,8.777,0,0,0,1.434-.735c.345-.222.025-.776-.323-.552" transform="translate(0.036 0.032)" fill="#9e6016"/><path d="M153.569,62.079a7.729,7.729,0,0,1-2.863,3.265,14.68,14.68,0,0,1-4.325,1.964,5.97,5.97,0,0,1-3,.124.32.32,0,0,0-.17.617,8.656,8.656,0,0,0,5.443-.877,12.28,12.28,0,0,0,3.971-2.578,7.281,7.281,0,0,0,1.5-2.192c.164-.374-.388-.7-.551-.323" transform="translate(0.041 0.018)" fill="#fff"/><path d="M144.309,65.907q.095.749.19,1.5a.35.35,0,0,0,.093.226.334.334,0,0,0,.226.094c.156-.007.343-.142.32-.32-.062-.5-.127-1-.189-1.5a.363.363,0,0,0-.1-.226.324.324,0,0,0-.226-.094c-.155.007-.343.142-.319.32" transform="translate(0.042 0.019)" fill="#fff"/><path d="M146.652,65.829q.144.753.287,1.506a.322.322,0,0,0,.393.223.329.329,0,0,0,.224-.393q-.144-.753-.287-1.506a.321.321,0,0,0-.394-.223.328.328,0,0,0-.223.393" transform="translate(0.042 0.019)" fill="#fff"/><path d="M148.492,65.373l.9,1.052a.32.32,0,0,0,.452,0,.327.327,0,0,0,0-.452q-.452-.527-.9-1.052a.32.32,0,0,0-.452,0,.327.327,0,0,0,0,.452" transform="translate(0.043 0.019)" fill="#fff"/><path d="M150.911,64.005l.9.908a.32.32,0,0,0,.452-.453l-.9-.907a.32.32,0,1,0-.452.452" transform="translate(0.043 0.018)" fill="#fff"/><path d="M152.294,61.993l1.36.889a.32.32,0,1,0,.323-.552l-1.36-.889a.32.32,0,1,0-.323.552" transform="translate(0.044 0.018)" fill="#fff"/><path d="M162.444,92.93q-3.131-2.155-6.434-4.047-1.64-.938-3.316-1.808a3.523,3.523,0,0,1-.665-.366c-.231-.194-.092-.516-.039-.767q.2-.947.433-1.888a51.962,51.962,0,0,1,2.191-6.925,20.26,20.26,0,0,1,2.921-5.227,11.256,11.256,0,0,1,2.36-2.228,9.524,9.524,0,0,1,1.457-.821,2.294,2.294,0,0,1,1.849-.226c.37.173.7-.378.322-.553-1.076-.5-2.274.062-3.228.6a10.79,10.79,0,0,0-2.437,1.9,18.134,18.134,0,0,0-3.422,5.345,47.413,47.413,0,0,0-2.4,7.079q-.26.984-.485,1.98-.113.5-.216,1a1.444,1.444,0,0,0-.011.831c.2.517.869.73,1.318.965q.893.467,1.775.953,3.969,2.188,7.707,4.761c.34.234.66-.32.323-.552" transform="translate(0.044 0.02)" fill="#fff"/><path d="M160.146,65.78l-4.471-2.041c-.372-.169-.7.382-.323.552l4.471,2.041c.372.17.7-.381.323-.552" transform="translate(0.045 0.018)" fill="#fff"/><path d="M149.325,87.122l-4.639-2.3c-.367-.182-.692.37-.323.553l4.639,2.3c.368.182.692-.369.323-.552" transform="translate(0.042 0.024)" fill="#fff"/><path d="M149.257,88.565q-1.671-.551-3.3-1.207a.321.321,0,0,0-.393.223.328.328,0,0,0,.223.394q1.632.656,3.3,1.207c.392.129.56-.489.17-.617" transform="translate(0.042 0.025)" fill="#fff"/><path d="M163.219,90.192q-4.473-3.251-9.238-6.073a.32.32,0,0,0-.323.552q4.759,2.818,9.238,6.073c.333.243.653-.312.323-.552" transform="translate(0.044 0.024)" fill="#fff"/><path d="M167.1,84.243a92.657,92.657,0,0,1-4.592,8.674.32.32,0,0,0,.552.323,92.783,92.783,0,0,0,4.592-8.674c.172-.371-.379-.7-.552-.323" transform="translate(0.047 0.024)" fill="#fff"/><path d="M168.412,85.349a7.776,7.776,0,0,1-2.516,1.072.32.32,0,0,0,.17.616,8.277,8.277,0,0,0,2.669-1.136.327.327,0,0,0,.115-.437.323.323,0,0,0-.438-.115" transform="translate(0.048 0.025)" fill="#fff"/><path d="M176.352,108.332a18.716,18.716,0,0,1-6.615-1.489c-1.963-.8-4.006-1.72-6.178-1.518-1.212.112-2.476.581-3.673.155-.389-.139-.556.479-.17.616a6.536,6.536,0,0,0,3.26-.055,7.714,7.714,0,0,1,3.235.187c2.142.567,4.092,1.674,6.244,2.217a17.8,17.8,0,0,0,3.9.528.32.32,0,0,0,0-.64" transform="translate(0.046 0.03)" fill="#fff"/><path d="M140.711,75.823q-.444,4.06-.887,8.12c-.045.409.6.406.64,0q.443-4.06.887-8.12c.044-.409-.6-.406-.64,0" transform="translate(0.04 0.022)" fill="#fff"/><path d="M122.715,152.28c.073.052-.043-.042.024.019.018.015.035.031.052.047l.049.052s.05.065.028.033.019.031.022.037a.774.774,0,0,1,.043.073l.032.063c.019.06.034.1.044.151,0,.009.017.1.008.026,0,.023,0,.047.006.07,0,.047,0,.094,0,.141s.011-.048,0,.013c0,.027-.011.055-.018.082s-.013.044-.02.066-.024.054,0,.013c-.02.041-.041.082-.065.121-.015.024-.03.046-.047.069.027-.037.007-.009-.01.01a1.009,1.009,0,0,1-.1.1c-.019.017-.046.039-.01.012l-.068.047a1.177,1.177,0,0,1-.12.067c-.077.04.057-.016-.026.011l-.052.017a1.105,1.105,0,0,1-.162.034.32.32,0,0,0-.223.393.33.33,0,0,0,.393.224,1.416,1.416,0,0,0,1.136-1.039,1.44,1.44,0,0,0-.588-1.5.321.321,0,0,0-.438.114.328.328,0,0,0,.116.438" transform="translate(0.035 0.044)" fill="#5b1d1d"/><path d="M112.4,149.769c.024.052.02.044,0,.005.01.007.015.041.019.052a1.168,1.168,0,0,1,.032.116c0,.018.006.037.01.054.011.04-.006-.081,0-.009,0,.037.006.073.006.11s0,.081,0,.121c0,.01,0,.048-.005.055q.009-.068,0-.03a1.482,1.482,0,0,1-.066.257.286.286,0,0,1-.02.051c.019-.027.021-.046,0-.005s-.036.072-.057.107a.923.923,0,0,1-.06.093c-.033.046-.028.039,0,.006,0,.013-.027.032-.035.042a1.148,1.148,0,0,1-.085.086c-.076.065-.069.06-.037.034-.013.024-.068.047-.091.061a1.327,1.327,0,0,1-.118.062.321.321,0,0,0-.115.437.329.329,0,0,0,.438.115,1.633,1.633,0,0,0,.736-2.144.321.321,0,0,0-.437-.115.329.329,0,0,0-.115.438" transform="translate(0.032 0.043)" fill="#5b1d1d"/><path d="M48.244,129.537a13.247,13.247,0,0,1,4.968-2.14,8.538,8.538,0,0,1,5.316.648,3.224,3.224,0,0,1,1.7,1.661,3.354,3.354,0,0,1-.466,2.688c-1.647,2.946-4.938,4.667-8.257,5.282q-1.731-3.744-3.215-7.593Z" transform="translate(0.014 0.037)"/><path d="M48.73,132.907c2.4-3.753,7.359-9.912,6.277-14.231a4.07,4.07,0,0,0-2.37-3.038,5.233,5.233,0,0,0-2.577.042,205.962,205.962,0,0,0-22.35,5.5q.768,3.5,1.535,7a.968.968,0,0,0,.994.942q7.234,1.295,14.543,2.1Z" transform="translate(0.008 0.033)" fill="#5691a8"/><path d="M30.138,112.9q2.1,2.663,4.2,5.328a5.07,5.07,0,0,0,1.458,1.41,5.073,5.073,0,0,0,1.829.463l7.9.971a2.049,2.049,0,0,1,.868.241c.575.37.626,1.168.8,1.831a3.99,3.99,0,0,0,2.606,2.718.515.515,0,0,0,.619-.708,23.789,23.789,0,0,0-1.508-3.242c1.233.344,2.024,2.731,2.248,3.992a15.934,15.934,0,0,0,.559,2.8.46.46,0,0,0,.867-.028,4.231,4.231,0,0,0-.156-3.009,13.6,13.6,0,0,0,.507,3.1.46.46,0,0,0,.835.116,4.037,4.037,0,0,0,.446-3.35l.008,2.494a.725.725,0,0,0,.365.643c.44.232.789-.166.957-.542a3.2,3.2,0,0,0,.2-2.007,6.188,6.188,0,0,0,0,2.218,5.026,5.026,0,0,0,.447-5.689,12.112,12.112,0,0,0-4.31-4.213,41.572,41.572,0,0,0-11.34-5.268,4.618,4.618,0,0,1-1.53-.636,4.308,4.308,0,0,1-.794-.856l-7.537-9.759a38.375,38.375,0,0,0-2.936,9.167Z" transform="translate(0.008 0.029)" fill="#f6a472"/><path d="M52.119,124.286a6.223,6.223,0,0,1,.305,4.443c-.12.394.5.563.617.17a6.894,6.894,0,0,0-.37-4.936c-.175-.372-.726-.048-.552.323" transform="translate(0.015 0.036)" fill="#5b1d1d"/><path d="M53.626,124.3a5.2,5.2,0,0,1,.314,4.413c-.148.385.471.551.617.171a5.821,5.821,0,0,0-.379-4.907.32.32,0,0,0-.552.323" transform="translate(0.015 0.036)" fill="#5b1d1d"/><path d="M31.247,101.471a63.858,63.858,0,0,0,5.356,5.964q-2.9,4.695-5.655,9.477-2.353-2.074-4.532-4.332Z" transform="translate(0.008 0.029)" fill="#72201c"/><path d="M55.514,123.777a8.639,8.639,0,0,1,.182,2.087,7.4,7.4,0,0,1-.2,2.079.32.32,0,0,0,.617.17,8.046,8.046,0,0,0,.218-2.249,9.334,9.334,0,0,0-.2-2.257.32.32,0,0,0-.617.17" transform="translate(0.016 0.036)" fill="#5b1d1d"/><path d="M55.888,123.309a11.227,11.227,0,0,0-4.455.238.32.32,0,0,0,.17.617,10.419,10.419,0,0,1,4.115-.238.33.33,0,0,0,.393-.224.321.321,0,0,0-.223-.393" transform="translate(0.015 0.036)" fill="#5b1d1d"/><path d="M13.4,69.2c-1.358.75-1.579,2.627-1.3,4.154.51,2.823,2.1,5.31,3.3,7.915a3.636,3.636,0,0,1,.45,1.725A1.354,1.354,0,0,1,14.8,84.286a3.505,3.505,0,0,0,5.817.4,5.246,5.246,0,0,1,.776-.965c.649-.519,1.766-.562,2-1.358a1.738,1.738,0,0,0-.033-.846Q22.64,77.958,21.91,74.4Z" transform="translate(0.003 0.02)"/><path d="M52.573,137.461c1.526-.354,3.288-.659,4.521.334a5.644,5.644,0,0,1,1.555,3.3q1.485,6.671,2.973,13.344c.677,3.039,1.352,6.234.536,9.238a9.425,9.425,0,0,1-4.483,5.744,17.687,17.687,0,0,1-4.139,1.443c-9.033,2.333-18.231,4.682-27.525,4.145a62.94,62.94,0,0,1-19.078-4.574,8.751,8.751,0,0,1-2.479-1.3A8.929,8.929,0,0,1,1.993,164.5,54.472,54.472,0,0,1,.027,148.189c.108-3.441.754-7.268,3.428-9.323a11.321,11.321,0,0,1,4.831-1.822c13.3-2.61,27-1.323,40.466.071Z" transform="translate(0 0.039)" fill="#f59f18"/><path d="M29.833,68.631a56.252,56.252,0,0,0,2.243,6.154,14.42,14.42,0,0,1,4.085-.34,25.557,25.557,0,0,1-3.213,2.539,13.381,13.381,0,0,1,1.408,5.105,4.7,4.7,0,0,1-.956,3.637c-1.148,1.188-3.24.5-4.887.367-.684,1.378-.215,3.009-.9,4.388a1.641,1.641,0,0,1-.648.806,1.57,1.57,0,0,1-.731.106,18.931,18.931,0,0,1-5.414-.921,1.408,1.408,0,0,1-.647-.351c-.248-.28-1.881,1.669-1.861,1.3.117-2.189,1.941-6.74,2.2-8.916a2.448,2.448,0,0,1-2.99-.077A3.106,3.106,0,0,1,16.1,79.24,1.946,1.946,0,0,1,19,78.1q-.819-4.452-1.218-8.969c3.539-1.265,12.049-.5,12.049-.5" transform="translate(0.005 0.02)" fill="#f6a472"/><path d="M25.293,91.1c5.078.773,10.446,1.516,15.213-.4,1.666-.669,3.2-1.643,4.852-2.338,5.374-2.251,11.563-1.38,17.159-3,1.611-.468,3.162-1.139,4.8-1.523a20.522,20.522,0,0,1,10.7.806c1.1,1.456-3.911,1.034-5.92,1.088.41.571,1.3,1.332.782,1.809a1.506,1.506,0,0,1-1.931.036c.52.259,1.264.645.909,1.1a1.031,1.031,0,0,1-1.522.046c.212.537.559,1.3-.018,1.285a2.35,2.35,0,0,1-1.478-.82c-.471.891-3.893,2.2-4.889,2.044a7.354,7.354,0,0,1-2.731-1.243,84.909,84.909,0,0,1-16.389,7.5c-7.183,2.189-14.757,2.672-22.252,3.142a31.966,31.966,0,0,1,2.681-9.2Z" transform="translate(0.007 0.024)" fill="#f6a472"/><path d="M28.089,123.768l-9.207.83c-4.811.434-10.093,1.09-13.359,4.649a3.515,3.515,0,0,0-.735,1.088,4.279,4.279,0,0,0-.179,1.564c.026,2.47.207,5.28,2.124,6.837a7.349,7.349,0,0,0,3.884,1.32,26.773,26.773,0,0,0,12.094-1.445c4.257-1.551,8.062-4.166,12.307-5.754a3.748,3.748,0,0,1,1.251-.3,4.215,4.215,0,0,1,1.739.512c3.766,1.7,7.916,2.907,12.01,2.332-.769-.833.12-2.127.161-3.26a4.251,4.251,0,0,0-.906-2.341l-4.13-6.438c-1.328-2.07-2.875-4.3-5.259-4.908-2.325-.591-4.7.559-6.822,1.674l-7.718,4.057Z" transform="translate(0.001 0.034)" fill="#6da8c6"/><path d="M20.892,88.479a13.753,13.753,0,0,1,8.843.248c2.047.767,4.017,2.047,6.2,1.942q-1.211,5.765-2.592,11.492l-.916-.142q-.117,3.625-.233,7.25a8.738,8.738,0,0,1-.48,3.107,27.743,27.743,0,0,1-1.93,2.974,6.429,6.429,0,0,0-.555,5.1,2.589,2.589,0,0,1,.2,1.847,2.13,2.13,0,0,1-.913.823l-7.261,4.332A10.424,10.424,0,0,1,18.05,128.9c-2.077.415-4.2-.459-6.316-.365-2.991.131-5.82,2.182-8.758,1.6.4-4.282.821-8.648,2.537-12.593.827-1.9,1.944-3.673,2.652-5.622,1.361-3.742,1.127-7.844,1.514-11.808a11.18,11.18,0,0,1,.976-4A13.134,13.134,0,0,1,13.947,92.4l.731-.642a13.651,13.651,0,0,1,4.182-2.509Z" transform="translate(0.001 0.025)" fill="#a0352a"/><path d="M73.133,86.574a4.174,4.174,0,0,0-2.51-1.722.327.327,0,0,0-.394.223.324.324,0,0,0,.224.394A3.521,3.521,0,0,1,72.581,86.9a.328.328,0,0,0,.437.115.323.323,0,0,0,.115-.438" transform="translate(0.02 0.024)" fill="#5b1d1d"/><path d="M72.332,88.225a3.614,3.614,0,0,0-2.667-2.264.329.329,0,0,0-.394.223.323.323,0,0,0,.224.394,2.946,2.946,0,0,1,1.344.621,3.3,3.3,0,0,1,.51.535,3.252,3.252,0,0,1,.211.331c.031.057.061.116.089.175a1.433,1.433,0,0,1,.065.154.33.33,0,0,0,.394.223.322.322,0,0,0,.223-.393" transform="translate(0.02 0.025)" fill="#5b1d1d"/><path d="M71,88.906A2.5,2.5,0,0,0,69.457,87.6a.323.323,0,0,0-.393.223.328.328,0,0,0,.223.394c.072.021.141.05.212.074.013.007.028.015.044.022l.1.052a2.112,2.112,0,0,1,.181.113l.042.029c.044.033.035.026,0,0,0,0,.081.067.087.072.053.047.105.1.154.148.026.027.051.055.075.083l.032.039c.034.043.028.035,0,0,0,0,.114.168.125.186q.057.1.105.2a.32.32,0,0,0,.437.114A.327.327,0,0,0,71,88.906" transform="translate(0.02 0.025)" fill="#5b1d1d"/><path d="M70.3,84.766a13.263,13.263,0,0,0-2.384,3.551.33.33,0,0,0,.115.437.322.322,0,0,0,.438-.114,12.719,12.719,0,0,1,2.283-3.422c.281-.3-.17-.753-.452-.452" transform="translate(0.02 0.024)" fill="#5b1d1d"/><path d="M60.411,88.063c-.019-.042.025.066.028.077.012.03.022.062.031.093a2.209,2.209,0,0,1,.057.223c0,.011.023.133.015.078,0,.032.007.065.01.1a2.255,2.255,0,0,1,.008.247,2.22,2.22,0,0,1-.015.23l-.011.061c-.006.038-.014.075-.023.113-.017.075-.039.148-.063.221-.013.037-.026.073-.04.108.017-.043-.03.064-.035.074a.32.32,0,0,0,.553.323,2.71,2.71,0,0,0,.037-2.27.321.321,0,0,0-.437-.115.331.331,0,0,0-.115.438" transform="translate(0.017 0.025)" fill="#5b1d1d"/><path d="M42.259,91.92a1.989,1.989,0,0,0-2.079,1.838.323.323,0,0,0,.32.32.328.328,0,0,0,.32-.32c0-.025,0-.049.005-.074.005-.067-.011.061,0-.024a1.416,1.416,0,0,1,.034-.143,1.33,1.33,0,0,1,.052-.15c-.02.05-.007.017.007-.013l.033-.065c.024-.043.049-.085.076-.126.013-.021.028-.041.042-.061.047-.067-.043.05.01-.013a1.855,1.855,0,0,1,.214-.22l.035-.03c-.035.029.029-.021.036-.027.044-.03.089-.059.135-.086s.086-.047.131-.068c.017-.008.087-.033.013-.006l.069-.026A1.167,1.167,0,0,1,42,92.556c-.083.006-.007,0,.013,0l.073,0a1.415,1.415,0,0,1,.172.007.322.322,0,0,0,.32-.32.328.328,0,0,0-.32-.32" transform="translate(0.012 0.026)" fill="#5b1d1d"/><path d="M39.705,132.543c-1.8-.117-2.852-.808-4.657-.838a9.786,9.786,0,0,0-5.044.861c-1.5.855-2.517,2.81-1.756,4.36a4.257,4.257,0,0,0,3.276,1.969c1.939.321,3.944.107,5.867.513A31.336,31.336,0,0,1,41,140.593a16.34,16.34,0,0,0,7.041.928,10.459,10.459,0,0,0,6.365-2.954,4.329,4.329,0,0,0,1.238-2.117,3.6,3.6,0,0,0-.623-2.63,6.4,6.4,0,0,0-4.787-2.529,18.926,18.926,0,0,0-5.544.589l-3.15.653Z" transform="translate(0.008 0.038)" fill="#606060"/><path d="M38.719,113.3l-2.879,2.551a.32.32,0,0,0,.453.452l2.878-2.551a.322.322,0,0,0,0-.452.326.326,0,0,0-.452,0" transform="translate(0.01 0.033)" fill="#5b1d1d"/><path d="M19.9,80.706c-.605-.467-1.311-.769-1.917-1.236a.322.322,0,0,0-.438.115.33.33,0,0,0,.115.438c.605.467,1.311.768,1.917,1.235a.321.321,0,0,0,.438-.114.331.331,0,0,0-.115-.438" transform="translate(0.005 0.023)" fill="#5b1d1d"/><path d="M18.783,80.362a3.41,3.41,0,0,0-1.1,1.069.322.322,0,0,0,.115.438.327.327,0,0,0,.437-.115c.047-.073.1-.143.15-.212l-.05.064a3.1,3.1,0,0,1,.549-.549l-.064.05a2.976,2.976,0,0,1,.281-.193.32.32,0,1,0-.323-.552" transform="translate(0.005 0.023)" fill="#5b1d1d"/><g transform="translate(22.767 85.074)" opacity="0.39"><g clip-path="url(#d)"><path d="M28.511,86.088,22.76,85.05l5.392,2.44Z" transform="translate(-22.76 -85.05)" fill="#5b1d1d"/></g></g><path d="M19.529,70.412c1.022.564,2.38,1.1,3.259.332.281-.247.461-.6.761-.824a2.158,2.158,0,0,1,2.26.177,4.125,4.125,0,0,0,2.216.814c.813-.073,1.5-.738,2.318-.747a12.921,12.921,0,0,0,1.448.17c1.041-.131,1.43-1.608.867-2.493a3.818,3.818,0,0,0-2.7-1.424,9.289,9.289,0,0,1-3.039-.739c-.718-.4-1.267-1.043-1.959-1.485a4.151,4.151,0,0,0-3.788-.319c-.944.4-1.716,1.147-2.682,1.493-1.052.379-2.228.244-3.3.554a4.291,4.291,0,0,0-2.618,5.616c.567,1.278,1.767,2.232,2.17,3.571a20.892,20.892,0,0,1,.321,2.258c.139.748.238,1.287.957,1.535.2-.677,1.4-.562,2.1-.449a2.759,2.759,0,0,0,2.058-.089c.753-.541.561-1.7.224-2.565s-.724-1.907-.169-2.649c.115-.154.263-.281.367-.443.451-.716-.193-1.606-.794-2.2Z" transform="translate(0.004 0.018)"/><path d="M28.082,75.585a1.062,1.062,0,0,0,1.224.814,1.226,1.226,0,1,0-1.224-.814" transform="translate(0.008 0.021)"/><path d="M32.171,79.083a.723.723,0,0,0-.853-.221.651.651,0,1,0,.8.191Z" transform="translate(0.009 0.023)" fill="#fcfcfc"/><path d="M32.4,78.857a1.042,1.042,0,0,0-1.09-.332.993.993,0,0,0-.669.911.9.9,0,0,0,.142.532,1,1,0,0,0,.488.38.952.952,0,0,0,1.039-.241,1,1,0,0,0,.083-1.215.343.343,0,0,0-.191-.147.32.32,0,0,0-.361.47.482.482,0,0,1,.04.06c.045.082,0-.028.009.008a1.2,1.2,0,0,1,.037.146l-.012-.085a.747.747,0,0,1,0,.189c0-.029.008-.057.011-.085a.827.827,0,0,1-.02.1c-.035.1,0,.031,0,.02.005.017-.038.073-.048.088.027-.047,0,0-.016.021a.409.409,0,0,1-.036.036c-.021.019-.06.034.02-.013l-.08.049c-.059.034.07-.023.017-.006a.73.73,0,0,1-.14.034l.085-.011a.715.715,0,0,1-.173,0l.085.011a.68.68,0,0,1-.1-.019c-.073-.024-.119-.058-.033-.008-.025-.014-.052-.025-.077-.041s-.042-.02-.048-.032l.042.032c-.062-.058-.1-.109-.065-.06s0,0-.009-.015c-.056-.1-.01,0-.017-.02s-.012-.032-.017-.048a.789.789,0,0,1-.02-.1c0,.029.008.057.011.085a.771.771,0,0,1,0-.173c0,.028-.007.057-.011.085a.671.671,0,0,1,.021-.1c.033-.1,0-.035,0-.02,0-.021.036-.071.048-.09.055-.082-.033.027.014-.022.022-.022.044-.044.067-.065.042-.037-.066.044-.019.015l.044-.026a.145.145,0,0,1,.046-.024l-.047.02a.76.76,0,0,1,.137-.035l-.085.012a.789.789,0,0,1,.188,0l-.085-.011a.753.753,0,0,1,.131.03c.014,0,.083.032.028.009s.02.011.033.019a.485.485,0,0,1,.054.033c.021.019-.034-.032,0,0a.955.955,0,0,1,.1.1.32.32,0,0,0,.226.094.326.326,0,0,0,.226-.094.321.321,0,0,0,.094-.226.375.375,0,0,0-.094-.226" transform="translate(0.009 0.023)" fill="#5b1d1d"/><path d="M28.832,71.979c.075.17.149.34.224.509.05.115.1.264.007.352a.316.316,0,0,1-.176.073q-1.53.276-3.06.552a4.821,4.821,0,0,1,2.888-1.4Z" transform="translate(0.007 0.021)"/><path d="M34.306,90.47q-1.028,4.14-2.055,8.279a23.726,23.726,0,0,1-1.207,3.894l1.846.453a.316.316,0,0,0,.253-.009.322.322,0,0,0,.1-.166,86.2,86.2,0,0,0,3.231-12.439,14.721,14.721,0,0,0-1.829-.159Z" transform="translate(0.009 0.026)" fill="#72201c"/><path d="M32.443,102.251c-3.508-.7-6.643-2.513-9.755-4.192l-2.845-1.534c-.363-.2-.686.357-.323.553,1.671.9,3.339,1.81,5.014,2.7a39.938,39.938,0,0,0,4.818,2.252,19.112,19.112,0,0,0,2.92.837c.4.08.574-.537.17-.617" transform="translate(0.006 0.028)" fill="#72201c"/><path d="M21.6,97.618l-2.637.459a.322.322,0,0,0-.224.393.327.327,0,0,0,.394.223l2.637-.458A.323.323,0,0,0,22,97.841a.327.327,0,0,0-.393-.223" transform="translate(0.005 0.028)" fill="#72201c"/><path d="M28.62,115.061a19.507,19.507,0,0,0-4.115-1.466c-.4-.093-.571.524-.17.617a18.779,18.779,0,0,1,3.962,1.4c.369.18.693-.372.323-.552" transform="translate(0.007 0.033)" fill="#72201c"/><path d="M27.6,116.353a34.153,34.153,0,0,0-3.575-1c-.4-.089-.573.528-.171.617a34.1,34.1,0,0,1,3.576,1c.39.132.558-.485.17-.617" transform="translate(0.007 0.033)" fill="#72201c"/><path d="M5.1,128.319a16.187,16.187,0,0,1,4.249-1.111,18.037,18.037,0,0,1,4.344.067,21.015,21.015,0,0,0,2.268.209,8.418,8.418,0,0,0,2.212-.268,39.849,39.849,0,0,0,4.266-1.52l4.95-1.879c.381-.145.216-.764-.17-.617l-4.455,1.69c-1.4.533-2.8,1.128-4.241,1.563a8.416,8.416,0,0,1-2.15.388,14.748,14.748,0,0,1-2.319-.162,19.751,19.751,0,0,0-4.414-.143,16.756,16.756,0,0,0-4.71,1.165c-.376.154-.211.773.17.617" transform="translate(0.001 0.035)" fill="#72201c"/><path d="M10.387,108.82a8.531,8.531,0,0,1,2.176,1.676.32.32,0,0,0,.453-.453,9.155,9.155,0,0,0-2.306-1.776.32.32,0,1,0-.323.552" transform="translate(0.003 0.031)" fill="#72201c"/><path d="M9.584,109.8l2.386,2.745a.32.32,0,0,0,.452-.452l-2.386-2.745a.322.322,0,0,0-.452,0,.326.326,0,0,0,0,.452" transform="translate(0.003 0.031)" fill="#72201c"/><path d="M47.881,118.3l-.082.109-.043.054c-.053.067-.108.134-.164.2-.115.136-.233.268-.356.4a8.969,8.969,0,0,1-.77.714.32.32,0,0,0,0,.452.328.328,0,0,0,.452,0,9.126,9.126,0,0,0,1.515-1.6.321.321,0,0,0-.114-.438.33.33,0,0,0-.438.115" transform="translate(0.013 0.034)" fill="#5b1d1d"/><path d="M52.843,132.871q-.246,3.127-.778,6.222c-.07.4.547.576.617.17q.546-3.175.8-6.392c.032-.41-.608-.408-.64,0" transform="translate(0.015 0.038)"/><path d="M50.916,131.624a76.046,76.046,0,0,1-1.691,8.075.32.32,0,0,0,.616.17,75.8,75.8,0,0,0,1.692-8.075c.061-.4-.555-.576-.617-.17" transform="translate(0.014 0.038)"/><path d="M48.2,132.009q-1.034,4.174-2.067,8.348c-.1.4.518.57.617.17q1.034-4.174,2.067-8.348a.32.32,0,0,0-.617-.17" transform="translate(0.013 0.038)"/><path d="M44.141,132.791q-.992,3.446-1.985,6.893a.32.32,0,0,0,.617.17q.992-3.447,1.985-6.893a.32.32,0,0,0-.617-.17" transform="translate(0.012 0.038)"/><path d="M41.8,133.569a60.618,60.618,0,0,1-1.671,5.928c-.132.391.485.558.616.17a60.545,60.545,0,0,0,1.672-5.928c.091-.4-.525-.572-.617-.17" transform="translate(0.012 0.038)"/><path d="M38.254,133.387q-.846,2.546-1.536,5.139a.32.32,0,0,0,.616.171q.692-2.593,1.537-5.14c.13-.391-.488-.559-.617-.17" transform="translate(0.011 0.038)"/><path d="M35.52,132.9q-.836,2.4-1.439,4.876c-.1.4.519.57.617.17q.6-2.471,1.439-4.876c.135-.389-.482-.557-.617-.17" transform="translate(0.01 0.038)"/><path d="M32.642,132.333q-.575,2.4-1.342,4.75c-.128.392.489.56.617.17q.767-2.347,1.342-4.75c.1-.4-.521-.571-.617-.17" transform="translate(0.009 0.038)"/><path d="M30.113,132.908a21.255,21.255,0,0,1-.862,4.076c-.125.394.493.562.616.17a21.981,21.981,0,0,0,.886-4.246.323.323,0,0,0-.32-.32.327.327,0,0,0-.32.32" transform="translate(0.008 0.038)"/><path d="M37.169,128.006a17.09,17.09,0,0,1-1.923,3.142.322.322,0,0,0,.115.438.328.328,0,0,0,.438-.115,17.119,17.119,0,0,0,1.922-3.142.329.329,0,0,0-.114-.438.323.323,0,0,0-.438.115" transform="translate(0.01 0.037)" fill="#2e6272"/><path d="M35.608,128.35a6.772,6.772,0,0,1-.836,3.356c-.2.36.354.683.553.322a7.451,7.451,0,0,0,.923-3.678.32.32,0,0,0-.64,0" transform="translate(0.01 0.037)" fill="#2e6272"/><path d="M4.867,132.346q1.673.111,3.349.1.839,0,1.675-.038l.418-.019c.059,0,.117-.006.176-.007.076.019.079,0,.01-.056a1.43,1.43,0,0,1,.035.422c.012.14.023.281.035.422q.069.845.139,1.688a4.934,4.934,0,0,1,0,1.613,3.851,3.851,0,0,1-.663,1.25c-.206.287-.556.857-.975.689-.382-.154-.548.465-.17.616.851.342,1.511-.685,1.9-1.276a3.58,3.58,0,0,0,.545-1.2,4.917,4.917,0,0,0,.027-1.433q-.066-.792-.131-1.583c-.02-.246-.041-.492-.061-.739a2.2,2.2,0,0,0-.1-.734c-.2-.414-.708-.318-1.082-.3q-.785.034-1.57.041-1.781.017-3.559-.1c-.411-.027-.409.613,0,.64" transform="translate(0.001 0.038)" fill="#2e6272"/><path d="M10.4,133.81a41.688,41.688,0,0,0-5.23-.214.32.32,0,0,0,0,.64,41.506,41.506,0,0,1,5.23.214c.409.042.406-.6,0-.64" transform="translate(0.001 0.038)" fill="#2e6272"/><path d="M14.867,132.112c4.411.742,8.739-.775,12.732-2.506,2.028-.878,4.028-1.824,6.1-2.584a27.891,27.891,0,0,1,3.122-.956,6.72,6.72,0,0,1,1.609-.256,2.368,2.368,0,0,1,1.431.56,23.271,23.271,0,0,1,2.619,2.414,29.29,29.29,0,0,1,2.359,2.788c.243.327.8.008.552-.323a30.141,30.141,0,0,0-4.436-4.8,3.849,3.849,0,0,0-2.72-1.277,13.411,13.411,0,0,0-3.229.729c-4.278,1.334-8.172,3.661-12.476,4.925a16.811,16.811,0,0,1-7.5.666c-.4-.067-.576.549-.17.617" transform="translate(0.004 0.036)" fill="#2e6272"/><path d="M16.179,129.417q-1.266,1.632-2.617,3.2a.328.328,0,0,0,0,.452.322.322,0,0,0,.453,0q1.349-1.563,2.616-3.2a.33.33,0,0,0,0-.452.322.322,0,0,0-.452,0" transform="translate(0.004 0.037)" fill="#2e6272"/><path d="M54.959,139.91a26.937,26.937,0,0,1-8.819,2.524c-1.536.21-3.081.351-4.625.489-1.7.151-3.406.3-5.113.4a95.324,95.324,0,0,1-20.264-1.14A103.433,103.433,0,0,1,5.071,139.8a.32.32,0,0,0-.17.617,103.78,103.78,0,0,0,20.154,3.423,92.581,92.581,0,0,0,10.3.179c1.716-.072,3.428-.212,5.138-.363,1.6-.14,3.2-.277,4.8-.47a29.054,29.054,0,0,0,10-2.721c.365-.189.042-.741-.323-.552" transform="translate(0.001 0.04)" fill="#9e6016"/><path d="M11.81,142.888A125.075,125.075,0,0,0,10.8,163.279q.093,2.881.32,5.756c.031.408.671.411.639,0a125.115,125.115,0,0,1,.068-20.416q.246-2.872.624-5.731c.022-.173-.164-.318-.32-.32a.328.328,0,0,0-.32.32" transform="translate(0.003 0.041)" fill="#9e6016"/><path d="M13.8,144.1a20.334,20.334,0,0,0-2.2,2.535l.584.077-1.12-2.749a.33.33,0,0,0-.394-.223.321.321,0,0,0-.223.393l1.121,2.749a.325.325,0,0,0,.584.076,19.3,19.3,0,0,1,2.1-2.406c.3-.287-.156-.739-.452-.452" transform="translate(0.003 0.041)" fill="#9e6016"/><path d="M13.24,147.6l-2.308,3.039h.552A5.157,5.157,0,0,1,11,148.535a.32.32,0,0,0-.639,0,5.921,5.921,0,0,0,.569,2.429c.114.241.423.17.552,0l2.308-3.039a.321.321,0,0,0-.115-.438.327.327,0,0,0-.437.115" transform="translate(0.003 0.042)" fill="#9e6016"/><path d="M12.853,152.14A10.452,10.452,0,0,1,10.814,155l.5.065A9.752,9.752,0,0,1,9.939,151.8c-.088-.4-.705-.232-.616.17a10.25,10.25,0,0,0,1.441,3.419.325.325,0,0,0,.5.064,10.968,10.968,0,0,0,2.139-2.987.328.328,0,0,0-.114-.438.323.323,0,0,0-.438.115" transform="translate(0.003 0.044)" fill="#9e6016"/><path d="M12.88,156.076l-2.08,2.93h.552a12.9,12.9,0,0,1-1.658-2.861.33.33,0,0,0-.393-.223.323.323,0,0,0-.224.394,13.514,13.514,0,0,0,1.723,3.013.325.325,0,0,0,.552,0l2.08-2.93a.323.323,0,0,0-.115-.438.327.327,0,0,0-.437.115" transform="translate(0.003 0.045)" fill="#9e6016"/><path d="M12.836,161.122l-2.185,2.939H11.2a5.761,5.761,0,0,1-.738-1.964.322.322,0,0,0-.393-.223.326.326,0,0,0-.223.393,6.225,6.225,0,0,0,.8,2.117.324.324,0,0,0,.552,0q1.094-1.469,2.185-2.939a.323.323,0,0,0-.114-.438.328.328,0,0,0-.438.115" transform="translate(0.003 0.046)" fill="#9e6016"/><path d="M13.065,164.809A21.456,21.456,0,0,1,11,167.592l.5.065-2.019-3.14c-.222-.345-.776-.025-.552.323l2.018,3.139a.324.324,0,0,0,.5.065,22.412,22.412,0,0,0,2.161-2.912c.218-.351-.335-.672-.552-.323" transform="translate(0.003 0.047)" fill="#9e6016"/><path d="M18.072,144.585a125.075,125.075,0,0,0-1.011,20.391q.093,2.882.32,5.756c.031.408.671.411.639,0a125.116,125.116,0,0,1,.068-20.416q.246-2.872.624-5.731c.022-.173-.164-.318-.32-.32a.327.327,0,0,0-.32.32" transform="translate(0.005 0.042)" fill="#9e6016"/><path d="M20.061,145.8a20.333,20.333,0,0,0-2.2,2.535l.584.077-1.12-2.749a.33.33,0,0,0-.394-.223.321.321,0,0,0-.223.393l1.121,2.749a.325.325,0,0,0,.584.076,19.382,19.382,0,0,1,2.1-2.406c.3-.287-.156-.739-.452-.452" transform="translate(0.005 0.042)" fill="#9e6016"/><path d="M19.5,149.3l-2.308,3.039h.552a5.157,5.157,0,0,1-.482-2.106.32.32,0,0,0-.639,0,5.922,5.922,0,0,0,.569,2.429c.114.241.423.17.552,0l2.308-3.039a.321.321,0,0,0-.115-.438.327.327,0,0,0-.437.115" transform="translate(0.005 0.043)" fill="#9e6016"/><path d="M19.115,153.837a10.452,10.452,0,0,1-2.039,2.858l.5.065a9.76,9.76,0,0,1-1.377-3.266c-.088-.4-.705-.232-.616.17a10.25,10.25,0,0,0,1.441,3.419.325.325,0,0,0,.5.064,10.969,10.969,0,0,0,2.139-2.987.328.328,0,0,0-.114-.438.323.323,0,0,0-.438.115" transform="translate(0.004 0.044)" fill="#9e6016"/><path d="M19.142,157.773l-2.08,2.93h.552a12.9,12.9,0,0,1-1.658-2.861.33.33,0,0,0-.393-.223.322.322,0,0,0-.224.393,13.5,13.5,0,0,0,1.723,3.014.325.325,0,0,0,.552,0l2.08-2.93a.32.32,0,1,0-.552-.323" transform="translate(0.004 0.045)" fill="#9e6016"/><path d="M19.1,162.819q-1.094,1.469-2.185,2.939h.552a5.743,5.743,0,0,1-.739-1.964.321.321,0,0,0-.393-.223.328.328,0,0,0-.224.393,6.222,6.222,0,0,0,.8,2.117.324.324,0,0,0,.552,0l2.184-2.939a.324.324,0,0,0-.113-.438.328.328,0,0,0-.438.115" transform="translate(0.005 0.047)" fill="#9e6016"/><path d="M19.326,166.506a21.294,21.294,0,0,1-2.062,2.783l.5.065-2.019-3.14c-.222-.345-.776-.025-.552.323q1.008,1.569,2.018,3.14a.324.324,0,0,0,.5.064,22.321,22.321,0,0,0,2.161-2.912c.218-.351-.335-.672-.552-.323" transform="translate(0.004 0.048)" fill="#9e6016"/><path d="M31.92,145.512A125.075,125.075,0,0,0,30.909,165.9q.093,2.882.32,5.756c.032.408.671.411.639,0a125.116,125.116,0,0,1,.068-20.416q.246-2.872.624-5.731c.022-.173-.164-.318-.32-.32a.328.328,0,0,0-.32.32" transform="translate(0.009 0.042)" fill="#9e6016"/><path d="M33.908,146.728a20.334,20.334,0,0,0-2.2,2.535l.584.077-1.12-2.749a.33.33,0,0,0-.394-.223.321.321,0,0,0-.223.393l1.12,2.749a.326.326,0,0,0,.585.076,19.3,19.3,0,0,1,2.1-2.406c.3-.287-.157-.739-.452-.452" transform="translate(0.009 0.042)" fill="#9e6016"/><path d="M33.349,150.226l-2.308,3.039h.552a5.157,5.157,0,0,1-.482-2.106.32.32,0,0,0-.639,0,5.918,5.918,0,0,0,.569,2.429c.114.241.423.17.552,0l2.308-3.039a.321.321,0,0,0-.115-.438.327.327,0,0,0-.437.115" transform="translate(0.009 0.043)" fill="#9e6016"/><path d="M32.962,154.764a10.452,10.452,0,0,1-2.039,2.858l.5.065a9.752,9.752,0,0,1-1.377-3.266c-.088-.4-.705-.232-.616.17a10.236,10.236,0,0,0,1.441,3.418.324.324,0,0,0,.5.065,10.968,10.968,0,0,0,2.139-2.987.328.328,0,0,0-.114-.438.323.323,0,0,0-.438.115" transform="translate(0.008 0.044)" fill="#9e6016"/><path d="M32.99,158.7l-2.08,2.931h.552A12.944,12.944,0,0,1,29.8,158.77a.33.33,0,0,0-.393-.224.323.323,0,0,0-.224.394,13.493,13.493,0,0,0,1.723,3.013.325.325,0,0,0,.552,0l2.08-2.93a.324.324,0,0,0-.114-.438.328.328,0,0,0-.438.115" transform="translate(0.008 0.046)" fill="#9e6016"/><path d="M32.945,163.746l-2.185,2.939h.553a5.743,5.743,0,0,1-.739-1.964.323.323,0,0,0-.393-.224.329.329,0,0,0-.224.394,6.248,6.248,0,0,0,.8,2.117.325.325,0,0,0,.553,0q1.091-1.47,2.184-2.939a.323.323,0,0,0-.114-.438.328.328,0,0,0-.438.115" transform="translate(0.009 0.047)" fill="#9e6016"/><path d="M33.174,167.433a21.364,21.364,0,0,1-2.062,2.783l.5.065-2.019-3.14c-.222-.345-.776-.025-.552.323q1.008,1.569,2.018,3.14a.324.324,0,0,0,.5.064,22.411,22.411,0,0,0,2.161-2.912c.218-.35-.335-.672-.552-.323" transform="translate(0.008 0.048)" fill="#9e6016"/><path d="M24.522,145.145a125.075,125.075,0,0,0-1.011,20.391q.093,2.881.32,5.756c.032.408.671.411.639,0a125.115,125.115,0,0,1,.068-20.416q.246-2.872.624-5.731c.022-.173-.164-.318-.32-.32a.328.328,0,0,0-.32.32" transform="translate(0.007 0.042)" fill="#9e6016"/><path d="M26.51,146.36a20.333,20.333,0,0,0-2.2,2.535l.584.077-1.12-2.749a.33.33,0,0,0-.394-.223.321.321,0,0,0-.223.393l1.12,2.749a.326.326,0,0,0,.585.076,19.3,19.3,0,0,1,2.1-2.406c.3-.287-.157-.739-.452-.452" transform="translate(0.007 0.042)" fill="#9e6016"/><path d="M25.951,149.858,23.643,152.9H24.2a5.157,5.157,0,0,1-.482-2.106.32.32,0,0,0-.639,0,5.921,5.921,0,0,0,.569,2.429c.114.241.423.17.552,0l2.308-3.039a.321.321,0,0,0-.115-.438.327.327,0,0,0-.437.115" transform="translate(0.007 0.043)" fill="#9e6016"/><path d="M25.564,154.4a10.452,10.452,0,0,1-2.039,2.858l.5.065a9.752,9.752,0,0,1-1.377-3.266c-.088-.4-.705-.232-.616.17a10.25,10.25,0,0,0,1.441,3.419.325.325,0,0,0,.5.064,10.968,10.968,0,0,0,2.139-2.987.328.328,0,0,0-.114-.438.323.323,0,0,0-.438.115" transform="translate(0.006 0.044)" fill="#9e6016"/><path d="M25.592,158.332l-2.08,2.93h.552a12.9,12.9,0,0,1-1.658-2.861.33.33,0,0,0-.393-.223.322.322,0,0,0-.224.393,13.5,13.5,0,0,0,1.723,3.014.325.325,0,0,0,.552,0l2.08-2.93a.324.324,0,0,0-.114-.438.327.327,0,0,0-.438.115" transform="translate(0.006 0.046)" fill="#9e6016"/><path d="M25.547,163.378l-2.185,2.939h.553a5.743,5.743,0,0,1-.739-1.964.322.322,0,0,0-.393-.223.326.326,0,0,0-.223.393,6.226,6.226,0,0,0,.8,2.117.325.325,0,0,0,.553,0L26.1,163.7a.323.323,0,0,0-.114-.438.328.328,0,0,0-.438.115" transform="translate(0.006 0.047)" fill="#9e6016"/><path d="M25.776,167.065a21.446,21.446,0,0,1-2.061,2.783l.5.065-2.019-3.14c-.222-.345-.776-.025-.552.323q1.008,1.569,2.019,3.139a.322.322,0,0,0,.5.065,22.321,22.321,0,0,0,2.161-2.912c.219-.351-.335-.672-.552-.323" transform="translate(0.006 0.048)" fill="#9e6016"/><path d="M5.36,141.95a125.076,125.076,0,0,0-1.011,20.391q.093,2.881.32,5.756c.031.408.671.411.639,0a125.116,125.116,0,0,1,.068-20.416q.246-2.872.624-5.731c.022-.173-.164-.318-.32-.32a.328.328,0,0,0-.32.32" transform="translate(0.001 0.041)" fill="#9e6016"/><path d="M7.348,143.165a20.335,20.335,0,0,0-2.2,2.535l.584.077-1.12-2.749a.33.33,0,0,0-.394-.223.321.321,0,0,0-.223.393l1.121,2.749a.325.325,0,0,0,.584.076,19.3,19.3,0,0,1,2.1-2.406c.3-.287-.156-.739-.452-.452" transform="translate(0.001 0.041)" fill="#9e6016"/><path d="M6.79,146.663,4.482,149.7h.552a5.157,5.157,0,0,1-.482-2.106.32.32,0,0,0-.639,0,5.918,5.918,0,0,0,.569,2.429c.114.241.423.17.552,0l2.308-3.039a.321.321,0,0,0-.115-.438.327.327,0,0,0-.437.115" transform="translate(0.001 0.042)" fill="#9e6016"/><path d="M6.4,151.2a10.452,10.452,0,0,1-2.039,2.858l.5.065a9.751,9.751,0,0,1-1.377-3.266c-.088-.4-.705-.232-.616.17a10.236,10.236,0,0,0,1.441,3.418.324.324,0,0,0,.5.065,10.968,10.968,0,0,0,2.139-2.987.328.328,0,0,0-.114-.438.323.323,0,0,0-.438.115" transform="translate(0.001 0.043)" fill="#9e6016"/><path d="M6.43,155.137l-2.08,2.93H4.9a12.9,12.9,0,0,1-1.658-2.861.33.33,0,0,0-.393-.223.322.322,0,0,0-.224.393,13.5,13.5,0,0,0,1.723,3.014.325.325,0,0,0,.552,0l2.08-2.93a.32.32,0,1,0-.552-.323" transform="translate(0.001 0.045)" fill="#9e6016"/><path d="M6.385,160.184,4.2,163.123h.552a5.761,5.761,0,0,1-.738-1.964.323.323,0,0,0-.393-.224.329.329,0,0,0-.224.394,6.248,6.248,0,0,0,.8,2.117.324.324,0,0,0,.552,0l2.185-2.939a.323.323,0,0,0-.114-.438.328.328,0,0,0-.438.115" transform="translate(0.001 0.046)" fill="#9e6016"/><path d="M6.614,163.87a21.453,21.453,0,0,1-2.062,2.783l.5.065-2.019-3.14c-.222-.345-.776-.025-.552.323L4.5,167.04a.324.324,0,0,0,.5.065,22.411,22.411,0,0,0,2.161-2.912c.218-.351-.335-.672-.552-.323" transform="translate(0.001 0.047)" fill="#9e6016"/><path d="M39.886,145.311A124.851,124.851,0,0,0,38.875,165.7q.093,2.881.319,5.756c.033.408.672.411.639,0a125,125,0,0,1,.069-20.416q.245-2.872.624-5.731c.022-.173-.165-.318-.32-.32a.327.327,0,0,0-.32.32" transform="translate(0.011 0.042)" fill="#9e6016"/><path d="M41.874,146.526a20.334,20.334,0,0,0-2.2,2.535l.584.077-1.12-2.749a.33.33,0,0,0-.394-.223.321.321,0,0,0-.223.393q.561,1.374,1.12,2.749a.326.326,0,0,0,.585.076,19.3,19.3,0,0,1,2.1-2.406c.3-.287-.157-.739-.452-.452" transform="translate(0.011 0.042)" fill="#9e6016"/><path d="M41.315,150.024l-2.308,3.039h.553a5.142,5.142,0,0,1-.483-2.106.32.32,0,0,0-.639,0,5.921,5.921,0,0,0,.569,2.429c.114.241.423.17.553,0q1.152-1.52,2.307-3.039a.322.322,0,0,0-.114-.438.328.328,0,0,0-.438.115" transform="translate(0.011 0.043)" fill="#9e6016"/><path d="M40.928,154.562a10.473,10.473,0,0,1-2.039,2.858l.5.065a9.752,9.752,0,0,1-1.377-3.266c-.088-.4-.705-.232-.616.17a10.25,10.25,0,0,0,1.441,3.419.325.325,0,0,0,.5.064,10.968,10.968,0,0,0,2.139-2.987.329.329,0,0,0-.115-.438.322.322,0,0,0-.437.115" transform="translate(0.011 0.044)" fill="#9e6016"/><path d="M40.955,158.5l-2.08,2.93h.552a12.9,12.9,0,0,1-1.658-2.861.33.33,0,0,0-.393-.223.323.323,0,0,0-.224.394,13.515,13.515,0,0,0,1.723,3.013.325.325,0,0,0,.552,0l2.08-2.93a.324.324,0,0,0-.114-.438.327.327,0,0,0-.438.115" transform="translate(0.011 0.046)" fill="#9e6016"/><path d="M40.911,163.544l-2.185,2.939h.552a5.761,5.761,0,0,1-.738-1.964.322.322,0,0,0-.393-.223.326.326,0,0,0-.223.393,6.225,6.225,0,0,0,.8,2.117.324.324,0,0,0,.552,0l2.185-2.939a.322.322,0,0,0-.115-.438.327.327,0,0,0-.437.115" transform="translate(0.011 0.047)" fill="#9e6016"/><path d="M41.14,167.231a21.445,21.445,0,0,1-2.061,2.783l.5.065-2.019-3.14c-.222-.345-.776-.025-.552.323q1.008,1.569,2.019,3.139a.322.322,0,0,0,.5.065,22.321,22.321,0,0,0,2.161-2.912c.218-.351-.335-.672-.552-.323" transform="translate(0.011 0.048)" fill="#9e6016"/><path d="M45.954,144.922a125.075,125.075,0,0,0-1.011,20.391q.093,2.881.32,5.756c.031.408.671.411.639,0a125.115,125.115,0,0,1,.068-20.416q.246-2.872.624-5.731c.022-.173-.164-.318-.32-.32a.327.327,0,0,0-.32.32" transform="translate(0.013 0.042)" fill="#9e6016"/><path d="M47.943,146.137a20.332,20.332,0,0,0-2.2,2.535l.584.077L45.205,146a.33.33,0,0,0-.394-.223.321.321,0,0,0-.223.393l1.12,2.749a.326.326,0,0,0,.585.076,19.3,19.3,0,0,1,2.1-2.406c.3-.287-.157-.739-.452-.452" transform="translate(0.013 0.042)" fill="#9e6016"/><path d="M47.384,149.636l-2.308,3.039h.552a5.157,5.157,0,0,1-.482-2.106.32.32,0,0,0-.639,0A5.934,5.934,0,0,0,45.076,153c.114.241.423.17.552,0l2.308-3.039a.322.322,0,0,0-.114-.438.328.328,0,0,0-.438.115" transform="translate(0.013 0.043)" fill="#9e6016"/><path d="M47,154.174a10.451,10.451,0,0,1-2.039,2.858l.5.065a9.752,9.752,0,0,1-1.377-3.266c-.088-.4-.705-.232-.616.17a10.25,10.25,0,0,0,1.441,3.419.325.325,0,0,0,.5.064,10.968,10.968,0,0,0,2.139-2.987.328.328,0,0,0-.115-.438.322.322,0,0,0-.437.115" transform="translate(0.013 0.044)" fill="#9e6016"/><path d="M47.024,158.11l-2.08,2.931H45.5a12.928,12.928,0,0,1-1.658-2.862.33.33,0,0,0-.393-.223.323.323,0,0,0-.224.394,13.514,13.514,0,0,0,1.723,3.013.325.325,0,0,0,.552,0l2.08-2.93a.324.324,0,0,0-.114-.438.328.328,0,0,0-.438.115" transform="translate(0.012 0.045)" fill="#9e6016"/><path d="M46.98,163.156,44.8,166.095h.552a5.761,5.761,0,0,1-.738-1.964.322.322,0,0,0-.393-.223.326.326,0,0,0-.223.393,6.225,6.225,0,0,0,.8,2.117.324.324,0,0,0,.552,0l2.185-2.939a.322.322,0,0,0-.115-.438.327.327,0,0,0-.437.115" transform="translate(0.013 0.047)" fill="#9e6016"/><path d="M47.209,166.843a21.354,21.354,0,0,1-2.061,2.783l.5.065-2.019-3.14c-.222-.345-.776-.025-.552.323q1.008,1.569,2.019,3.139a.322.322,0,0,0,.5.065,22.321,22.321,0,0,0,2.161-2.912c.219-.351-.335-.672-.552-.323" transform="translate(0.012 0.048)" fill="#9e6016"/><path d="M52.023,144.343a125.075,125.075,0,0,0-1.011,20.391q.093,2.882.32,5.756c.031.408.671.411.639,0a125.115,125.115,0,0,1,.068-20.416q.246-2.872.624-5.731c.022-.173-.164-.318-.32-.32a.328.328,0,0,0-.32.32" transform="translate(0.015 0.041)" fill="#9e6016"/><path d="M54.012,145.559a20.334,20.334,0,0,0-2.2,2.535l.584.077-1.12-2.749a.33.33,0,0,0-.394-.223.321.321,0,0,0-.223.393l1.121,2.749a.325.325,0,0,0,.584.076,19.3,19.3,0,0,1,2.1-2.406c.3-.287-.156-.739-.452-.452" transform="translate(0.015 0.042)" fill="#9e6016"/><path d="M53.453,149.057,51.145,152.1H51.7a5.157,5.157,0,0,1-.482-2.106.32.32,0,0,0-.639,0,5.921,5.921,0,0,0,.569,2.429c.114.241.423.17.552,0L54,149.38a.322.322,0,0,0-.114-.438.328.328,0,0,0-.438.115" transform="translate(0.015 0.043)" fill="#9e6016"/><path d="M53.066,153.6a10.452,10.452,0,0,1-2.039,2.858l.5.065a9.761,9.761,0,0,1-1.377-3.266c-.088-.4-.705-.232-.616.17a10.236,10.236,0,0,0,1.441,3.418.324.324,0,0,0,.5.065,10.969,10.969,0,0,0,2.139-2.987.328.328,0,0,0-.114-.438.323.323,0,0,0-.438.115" transform="translate(0.014 0.044)" fill="#9e6016"/><path d="M53.093,157.531l-2.08,2.931h.552a12.943,12.943,0,0,1-1.658-2.861.33.33,0,0,0-.393-.224.323.323,0,0,0-.224.394,13.515,13.515,0,0,0,1.723,3.013.325.325,0,0,0,.552,0l2.08-2.93a.323.323,0,0,0-.115-.438.327.327,0,0,0-.437.115" transform="translate(0.014 0.045)" fill="#9e6016"/><path d="M53.049,162.577q-1.094,1.469-2.186,2.939h.553a5.743,5.743,0,0,1-.739-1.964.321.321,0,0,0-.392-.223.327.327,0,0,0-.225.393,6.248,6.248,0,0,0,.8,2.117.325.325,0,0,0,.553,0L53.6,162.9a.322.322,0,0,0-.115-.438.326.326,0,0,0-.436.115" transform="translate(0.014 0.047)" fill="#9e6016"/><path d="M53.277,166.264a21.454,21.454,0,0,1-2.062,2.783l.5.065-2.019-3.14c-.222-.345-.776-.024-.552.323l2.018,3.139a.324.324,0,0,0,.5.065,22.412,22.412,0,0,0,2.161-2.912c.218-.35-.335-.672-.552-.323" transform="translate(0.014 0.048)" fill="#9e6016"/><path d="M55.3,141.678a124.492,124.492,0,0,1,2.888,20.171q.171,2.854.212,5.715a.32.32,0,0,0,.64,0,125.779,125.779,0,0,0-1.961-20.35q-.515-2.866-1.162-5.706c-.092-.4-.708-.231-.617.17" transform="translate(0.016 0.041)" fill="#9e6016"/><path d="M53.632,143.431A19.715,19.715,0,0,1,56,145.692a.323.323,0,0,0,.534-.142l.861-2.84a.32.32,0,0,0-.616-.17q-.431,1.419-.862,2.839l.535-.14a19.782,19.782,0,0,0-2.372-2.26.328.328,0,0,0-.452,0,.322.322,0,0,0,0,.452" transform="translate(0.015 0.041)" fill="#9e6016"/><path d="M54.457,146.8l2.579,2.812a.324.324,0,0,0,.535-.141,5.767,5.767,0,0,0,.325-2.391.328.328,0,0,0-.32-.32.323.323,0,0,0-.32.32,5.292,5.292,0,0,1-.3,2.221l.535-.141-2.58-2.812c-.279-.3-.73.149-.452.452" transform="translate(0.016 0.042)" fill="#9e6016"/><path d="M55.212,151.22a10.958,10.958,0,0,0,2.4,2.781.324.324,0,0,0,.5-.064,10.428,10.428,0,0,0,1.137-3.62.322.322,0,0,0-.32-.32.328.328,0,0,0-.32.32,9.563,9.563,0,0,1-1.049,3.3l.5-.065a10.457,10.457,0,0,1-2.3-2.652.32.32,0,0,0-.552.323" transform="translate(0.016 0.043)" fill="#9e6016"/><path d="M55.6,155.206l2.343,2.725a.322.322,0,0,0,.5-.064,13.574,13.574,0,0,0,1.443-3.158c.123-.394-.5-.563-.617-.17a12.89,12.89,0,0,1-1.378,3l.5-.065-2.343-2.725c-.268-.313-.719.141-.452.452" transform="translate(0.016 0.044)" fill="#9e6016"/><path d="M56.112,160.227l2.448,2.724a.322.322,0,0,0,.5-.065,6.42,6.42,0,0,0,.622-2.264.323.323,0,0,0-.32-.32.327.327,0,0,0-.32.32,5.544,5.544,0,0,1-.534,1.942l.5-.065q-1.224-1.362-2.448-2.724c-.275-.307-.727.146-.452.452" transform="translate(0.016 0.046)" fill="#9e6016"/><path d="M56.175,163.854a22.377,22.377,0,0,0,2.416,2.7.323.323,0,0,0,.5-.065l1.719-3.313c.189-.365-.363-.689-.553-.323q-.858,1.656-1.718,3.313l.5-.065a21.412,21.412,0,0,1-2.316-2.575.331.331,0,0,0-.437-.115.323.323,0,0,0-.115.438" transform="translate(0.016 0.047)" fill="#9e6016"/><path d="M32.515,141.559a25.424,25.424,0,0,1-8.252-.248c-.4-.079-.575.538-.17.616a26.389,26.389,0,0,0,8.592.249.322.322,0,0,0,.223-.394.328.328,0,0,0-.393-.223" transform="translate(0.007 0.041)" fill="#9e6016"/><path d="M21.5,140.887l-1.6-.274a.328.328,0,0,0-.393.223.324.324,0,0,0,.223.394l1.6.274a.328.328,0,0,0,.393-.224.323.323,0,0,0-.223-.393" transform="translate(0.006 0.041)" fill="#9e6016"/><path d="M13.1,68.247a2.746,2.746,0,0,1-.684-.9,1.849,1.849,0,0,1-.1-.223c-.033-.092-.063-.184-.088-.279a2.345,2.345,0,0,1-.086-.541.327.327,0,0,0-.32-.32.324.324,0,0,0-.32.32A3.466,3.466,0,0,0,12.647,68.7a.327.327,0,0,0,.452,0,.322.322,0,0,0,0-.452" transform="translate(0.003 0.019)"/><path d="M12.889,69.357a11.7,11.7,0,0,0-2.546-.921.328.328,0,0,0-.394.224.324.324,0,0,0,.224.393,10.975,10.975,0,0,1,2.393.856A.328.328,0,0,0,13,69.794a.323.323,0,0,0-.115-.437" transform="translate(0.003 0.02)"/><path d="M217.507,130.338a20.419,20.419,0,0,0-1.06-5.05c-.252-.728-.717-1.564-1.487-1.564-.822,0-1.272.941-1.5,1.732a35.314,35.314,0,0,0-1.075,5.42l1.226.229a.488.488,0,0,0,.268,0c.18-.073.2-.313.2-.507a11.207,11.207,0,0,1,1.078-4.793c.075-.158.176-.332.348-.367.2-.041.377.128.485.3.673,1.065.126,2.442.062,3.7a1.362,1.362,0,0,0,.077.612c.259.6,1.076.645,1.727.6Z" transform="translate(0.061 0.036)" fill="#dc4345"/><path d="M245.358,135.022a87.648,87.648,0,0,1-18.454.77c-3.028-.253-6.157-.746-8.674-2.447-2.014-1.359-3.821-3.535-6.248-3.435-.072,7.538-.419,25.015-.623,34.937a7.074,7.074,0,0,0,7.072,7.218h19.192a7.072,7.072,0,0,0,7.072-6.931c.148-7.419.364-18.722.407-23.187Z" transform="translate(0.061 0.037)" fill="#dc4345"/><path d="M245.5,135.751a5,5,0,0,0-2.582-3.524,14.806,14.806,0,0,0-4.274-1.439c-5.362-1.213-10.781-2.434-16.278-2.387a71.349,71.349,0,0,0-8.239.71,2.344,2.344,0,0,0-1.715.727,2.07,2.07,0,0,0,.322,2.24c1.575,2.355,4.3,3.7,7.033,4.433s5.585.973,8.326,1.687c3.285.857,6.44,2.4,9.832,2.531s7.252-1.831,7.666-5.2Z" transform="translate(0.061 0.037)" fill="#51432a"/><path d="M228.446,138.546c1.814-26.853.339-59.085-1.027-85.964a10.019,10.019,0,0,1,.294-3.789c1.646-4.757,9.095-4.828,11.469-9.268,1.588-2.969.237-6.608-1.272-9.618a100.14,100.14,0,0,0-6.618-11.291q-2.807,2.878-5.616,5.757l3.19-7.538a3.521,3.521,0,0,0,.408-1.883,3.505,3.505,0,0,0-.818-1.517C224.2,7.966,219.564,2.222,213,0c11.851,25.545,13.471,54.474,14.9,82.6.877,17.272-.38,36.787-.831,54.075Z" transform="translate(0.061 0)" fill="#c2b38c"/><path d="M232.083,134.531c.356-6.877,2.726-12.712,5.709-18.918,2.392-4.976,4.412-8.828,9.062-11.806,1.6-1.022,3.324-1.825,4.963-2.776,3.783-2.2,7.7-6.984,10.943-9.925a66.746,66.746,0,0,1,16.175,7.637,46.394,46.394,0,0,0-6.744,8.278l8.674-3.8a2.206,2.206,0,0,1,1.474-.266,2.127,2.127,0,0,1,1.048.97,32.6,32.6,0,0,1,5.207,14.187C277.9,112.149,266.987,106.1,254.979,103.7a10.882,10.882,0,0,0-2.928-.289,8.7,8.7,0,0,0-3.824,1.382c-6.3,3.851-8.978,11.478-11.211,18.512-1.558,4.909-2.1,11.835-3.658,16.745-.039.123-1.178-1.815-1.307-1.828l-.851,1.238a.308.308,0,0,1-.559-.216c.249-1.81.785-5.286,1.572-8.911Z" transform="translate(0.066 0.026)" fill="#c2b38c"/><path d="M227.691,140.341a120.842,120.842,0,0,0-3.584-27.295,4.024,4.024,0,0,1-.181-1.573,4.609,4.609,0,0,1,.766-1.633c3.434-5.6,2.669-12.707,1.787-19.217l-2.617,2.25c2.033-4,.865-9.016-1.666-12.723a39.466,39.466,0,0,0-5.268-5.854,3.111,3.111,0,0,0-1.671-1.036c-1.618-.2-2.372,1.939-2.482,3.565a68.859,68.859,0,0,0,.822,16.168l3.215.285A5.857,5.857,0,0,0,215.1,101.1l3.154-1.48a7.01,7.01,0,0,0,2.249,11.248,4.263,4.263,0,0,1,1.4.771,3.151,3.151,0,0,1,.623,1.123c3.321,8.711,3.686,18.226,3.992,27.544l1.55.274Z" transform="translate(0.061 0.021)" fill="#84734f"/><path d="M242.854,140.139a1.331,1.331,0,0,0,.341-1.279,12.956,12.956,0,0,0-1.8-5.246,5.2,5.2,0,0,0-1.549-1.737,2.4,2.4,0,0,0-2.236-.261,3.017,3.017,0,0,0-1.377,1.653c-1.094,2.58-.719,5.583-1.7,8.207l1.384-.177a.462.462,0,0,0,.335-.142.468.468,0,0,0,.056-.28,15.559,15.559,0,0,1,1.869-7.544c.2-.37.484-.776.905-.8a1.13,1.13,0,0,1,.708.287c1.852,1.4,2.252,4.039,1.964,6.341a1.844,1.844,0,0,0,.189,1.43c.318.38,1.148.181,1.039-.3Z" transform="translate(0.068 0.038)" fill="#dc4345"/><path d="M240.324,144.7a95.575,95.575,0,0,1-.016,17.278q-.222,2.422-.569,4.828a.661.661,0,0,0,.447.787.644.644,0,0,0,.786-.447,96.486,96.486,0,0,0,.946-17.529q-.093-2.462-.315-4.917a.657.657,0,0,0-.639-.64.645.645,0,0,0-.64.64" transform="translate(0.069 0.041)" fill="#9b262c"/><path d="M237.053,145a105.925,105.925,0,0,1,.233,15.9q-.137,2.263-.372,4.518a.644.644,0,0,0,.64.64.655.655,0,0,0,.639-.64,105.887,105.887,0,0,0,.45-15.9q-.107-2.266-.311-4.523a.657.657,0,0,0-.639-.64.645.645,0,0,0-.64.64" transform="translate(0.068 0.042)" fill="#9b262c"/><path d="M231.477,145.481a69.669,69.669,0,0,1,.555,15.075q-.15,2.126-.431,4.241a.643.643,0,0,0,.64.639.657.657,0,0,0,.64-.639,70.51,70.51,0,0,0,.347-15.252q-.191-2.21-.517-4.4a.645.645,0,0,0-.787-.447.656.656,0,0,0-.447.787" transform="translate(0.067 0.042)" fill="#9b262c"/><path d="M226.484,143.45l.312,16.869q.045,2.387.089,4.773a.64.64,0,0,0,1.279,0l-.312-16.868q-.045-2.387-.089-4.774a.64.64,0,0,0-1.279,0" transform="translate(0.065 0.041)" fill="#9b262c"/><path d="M221.24,143.754a89.615,89.615,0,0,0,.538,17.952q.336,2.56.811,5.1a.646.646,0,0,0,.787.447.654.654,0,0,0,.447-.787,88.656,88.656,0,0,1-1.518-17.671q.036-2.522.214-5.038a.64.64,0,1,0-1.279,0" transform="translate(0.064 0.041)" fill="#9b262c"/><path d="M217.956,142.312a61.241,61.241,0,0,0-.176,16.209q.285,2.3.737,4.583a.64.64,0,1,0,1.233-.34,60.031,60.031,0,0,1-1.02-15.683q.147-2.222.46-4.429a.663.663,0,0,0-.447-.787.645.645,0,0,0-.787.447" transform="translate(0.063 0.041)" fill="#9b262c"/><path d="M214.651,139.5a27.969,27.969,0,0,0-.572,8.73c.2,2.978.552,5.948.85,8.916l.519,5.162a.659.659,0,0,0,.64.639.644.644,0,0,0,.64-.639l-.906-9.008a68.691,68.691,0,0,1-.554-8.73,21.542,21.542,0,0,1,.617-4.73.641.641,0,0,0-1.234-.34" transform="translate(0.062 0.04)" fill="#9b262c"/><path d="M240.906,161.865a51.529,51.529,0,0,1-29.049-.315c-.789-.24-1.126.994-.34,1.234a53.04,53.04,0,0,0,23.293,1.7,51.941,51.941,0,0,0,6.437-1.38.641.641,0,0,0-.34-1.234" transform="translate(0.061 0.047)" fill="#9b262c"/><path d="M237.842,157.019a53.122,53.122,0,0,1-17.144,1.4q-2.41-.2-4.793-.616a.659.659,0,0,0-.787.447.646.646,0,0,0,.447.787,54.659,54.659,0,0,0,17.76.2q2.45-.375,4.857-.977a.641.641,0,0,0-.34-1.234" transform="translate(0.062 0.045)" fill="#9b262c"/><path d="M236.469,151.11a65.15,65.15,0,0,1-15.783-.283q-2.248-.32-4.469-.794a.654.654,0,0,0-.787.446.646.646,0,0,0,.446.787A66.506,66.506,0,0,0,231.94,152.7q2.27-.077,4.529-.31a.658.658,0,0,0,.64-.639.645.645,0,0,0-.64-.64" transform="translate(0.062 0.043)" fill="#9b262c"/><path d="M231.072,146.087a28.512,28.512,0,0,1-12.056-.772.64.64,0,0,0-.34,1.233,30.036,30.036,0,0,0,12.737.773.645.645,0,0,0,.447-.787.656.656,0,0,0-.787-.447" transform="translate(0.063 0.042)" fill="#9b262c"/><path d="M233.055,166.482l-11.115,1.37a.66.66,0,0,0-.639.64.643.643,0,0,0,.639.639l11.115-1.37a.66.66,0,0,0,.64-.639.644.644,0,0,0-.64-.64" transform="translate(0.064 0.048)" fill="#9b262c"/><path d="M223.051,111.864,221,99.462q-1.029-6.227-2.058-12.455l-1.155-6.99c-.067-.405-.683-.233-.617.17l2.05,12.4,2.059,12.455q.578,3.5,1.154,6.99c.067.405.684.233.617-.17" transform="translate(0.063 0.023)" fill="#51432a"/><path d="M220.007,83.994l-1.086,4.366a.32.32,0,0,0,.617.17l1.086-4.366c.1-.4-.518-.57-.617-.17" transform="translate(0.063 0.024)" fill="#51432a"/><path d="M215.129,85.733a15.8,15.8,0,0,0,4.169,5.948c.307.273.76-.178.452-.452a15.113,15.113,0,0,1-4-5.666c-.152-.377-.77-.213-.617.17" transform="translate(0.062 0.025)" fill="#51432a"/><path d="M222.28,95.539a7.2,7.2,0,0,1-2.407,4.733c-.309.274.145.725.452.453a7.86,7.86,0,0,0,2.595-5.186c.035-.41-.6-.408-.64,0" transform="translate(0.063 0.027)" fill="#51432a"/><path d="M221.39,19.041q2.423,9.639,4.183,19.43.5,2.78.943,5.57c.064.406.681.233.617-.17q-1.566-9.814-3.8-19.508-.635-2.752-1.324-5.492a.32.32,0,0,0-.617.17" transform="translate(0.064 0.005)" fill="#51432a"/><path d="M234.605,27.713a94.978,94.978,0,0,1-7.18,10.043c-.259.316.191.771.452.452a96.208,96.208,0,0,0,7.28-10.172c.218-.351-.335-.672-.552-.323" transform="translate(0.066 0.008)" fill="#51432a"/><path d="M233.608,25.817a56.277,56.277,0,0,1-5.724,7.864q-.906,1.04-1.862,2.034c-.284.3.167.751.453.453a57.122,57.122,0,0,0,6.177-7.662q.783-1.164,1.507-2.366a.32.32,0,0,0-.552-.323" transform="translate(0.065 0.007)" fill="#51432a"/><path d="M232.17,24.032l-6.711,9.343c-.24.334.314.654.553.322l6.71-9.342c.241-.335-.314-.655-.552-.323" transform="translate(0.065 0.007)" fill="#51432a"/><path d="M225.941,13.8l-2.388,4.681c-.187.366.365.69.552.323q1.194-2.341,2.388-4.681c.187-.366-.365-.69-.552-.323" transform="translate(0.064 0.004)" fill="#51432a"/><path d="M224.7,11.632q-1.053,2.179-2.106,4.357c-.179.369.373.694.552.323l2.106-4.357c.179-.369-.373-.694-.552-.323" transform="translate(0.064 0.003)" fill="#51432a"/><path d="M223.417,9.921a6.426,6.426,0,0,0-1.779,3.348.329.329,0,0,0,.223.394.323.323,0,0,0,.394-.224,5.838,5.838,0,0,1,1.613-3.066.32.32,0,0,0-.452-.452" transform="translate(0.064 0.003)" fill="#51432a"/><path d="M280.6,111.51a139.19,139.19,0,0,0-18.131-8.34q-2.62-.986-5.279-1.863c-.391-.13-.559.488-.17.617a138.093,138.093,0,0,1,18.3,7.539q2.5,1.25,4.956,2.6c.361.2.684-.353.323-.553" transform="translate(0.074 0.029)" fill="#51432a"/><path d="M270.282,97.812a31.875,31.875,0,0,1-6.181,5.759c-.333.236-.014.791.323.553a32.448,32.448,0,0,0,6.31-5.86c.26-.315-.19-.77-.452-.452" transform="translate(0.076 0.028)" fill="#51432a"/><path d="M267.956,96.251a25.62,25.62,0,0,1-5.431,5.872c-.323.255.133.705.452.453a26.144,26.144,0,0,0,5.531-6c.23-.343-.324-.664-.552-.323" transform="translate(0.076 0.028)" fill="#51432a"/><path d="M265.339,94.727l-6.19,6.8c-.277.3.174.758.452.452l6.19-6.8c.277-.3-.174-.757-.452-.452" transform="translate(0.075 0.027)" fill="#51432a"/><path d="M282,107.38l-2.786,2.471a.32.32,0,1,0,.452.452l2.786-2.471a.322.322,0,0,0,0-.452.326.326,0,0,0-.452,0" transform="translate(0.08 0.031)" fill="#51432a"/><path d="M281.119,106.363A6.347,6.347,0,0,0,278.6,108.3a.33.33,0,0,0,0,.452.322.322,0,0,0,.452,0,5.959,5.959,0,0,1,2.394-1.835.32.32,0,0,0,.114-.437.327.327,0,0,0-.437-.115" transform="translate(0.08 0.031)" fill="#51432a"/><path d="M230.52,140.552c-.316-19.536,3.846-38.835,7.987-57.93,6.374,1.536,13.141-1.923,17.271-7.016s6.116-11.558,7.752-17.907l-6-2.078a57.219,57.219,0,0,1,7.523-.085c3.069-5.161,4.144-11.283,4.355-17.284a11.771,11.771,0,0,0-.493-4.566,4.519,4.519,0,0,0-3.246-2.993A6.147,6.147,0,0,0,261.48,32a29.987,29.987,0,0,0-9.6,10.051l2.62,2.392c-2.581-1.525-5.951.05-8.016,2.224s-3.523,4.954-5.966,6.693a34.749,34.749,0,0,1,5.676,4.139,49.34,49.34,0,0,0-8.022-1.956,23.854,23.854,0,0,0,5.016,5.927c-1.961-.623-7.457-2.335-8.15-1.981-.618.317-4.552,9.833-3.493,13.95.533,2.072,1.725,3.9,2.555,5.875a17.728,17.728,0,0,1,1.381,7.163,39.576,39.576,0,0,1-1.691,9.113,165.761,165.761,0,0,0-5.2,45.13l1.456-.43Z" transform="translate(0.066 0.009)" fill="#84734f"/><path d="M245.658,135.235a4.811,4.811,0,0,1-3.452,3.318,13.153,13.153,0,0,1-4.987.205c-7.19-.672-14.409-2.02-20.945-5.09a7.888,7.888,0,0,1-2.51-1.639,3.057,3.057,0,0,1-.852-2.762c-1.067.392-1.305,1.838-1,2.933.6,2.173,2.513,3.708,4.42,4.909a37.265,37.265,0,0,0,21.2,5.659,11.256,11.256,0,0,0,6.234-1.7c1.768-1.284,2.814-3.789,1.83-5.741Z" transform="translate(0.061 0.037)" fill="#84734f"/><path d="M237.724,82.343a25.748,25.748,0,0,1,3.827-8.417c1.745-2.662,3.731-5.153,5.584-7.738q2.948-4.116,5.61-8.427,2.645-4.288,4.993-8.751t4.382-9.072q.255-.579.506-1.16c.161-.374-.39-.7-.552-.323q-2.006,4.648-4.327,9.153T252.8,56.439q-2.624,4.33-5.543,8.472c-1.856,2.634-3.86,5.162-5.679,7.822a29.257,29.257,0,0,0-4.185,8.305c-.108.375-.2.753-.288,1.133-.089.4.527.572.617.17" transform="translate(0.068 0.011)" fill="#51432a"/><path d="M265.868,43.631a23.068,23.068,0,0,1-8.414,4.777c-.391.123-.224.741.17.617a23.825,23.825,0,0,0,8.7-4.942c.308-.274-.145-.725-.452-.452" transform="translate(0.074 0.013)" fill="#51432a"/><path d="M252.189,49.686A30.225,30.225,0,0,0,250.5,60.3a.32.32,0,0,0,.639,0,29.715,29.715,0,0,1,1.666-10.441c.136-.389-.482-.556-.617-.17" transform="translate(0.072 0.014)" fill="#51432a"/><path d="M249.2,50.019a49.213,49.213,0,0,0-.3,12.127c.041.406.681.41.64,0a48.57,48.57,0,0,1,.272-11.957c.059-.4-.557-.576-.617-.17" transform="translate(0.072 0.014)" fill="#51432a"/><path d="M255.57,66.288a37.059,37.059,0,0,1-10.331,4.4c-1.025.3-2.056.579-3.086.86a.32.32,0,0,0,.17.616A58.629,58.629,0,0,0,253.1,68.45a25.841,25.841,0,0,0,2.8-1.609c.341-.226.021-.781-.323-.552" transform="translate(0.07 0.019)" fill="#51432a"/><path d="M249.675,72.039a37.91,37.91,0,0,1-7.751,2.015c-.406.061-.233.677.17.617a37.91,37.91,0,0,0,7.751-2.015c.382-.144.216-.762-.17-.617" transform="translate(0.07 0.021)" fill="#51432a"/></g></g></g></g></svg>