<svg xmlns="http://www.w3.org/2000/svg" xmlns:xlink="http://www.w3.org/1999/xlink" width="85" height="85" viewBox="0 0 85 85"><defs><clipPath id="a"><rect width="75.753" height="69.436" fill="none"/></clipPath></defs><g transform="translate(-1335 -3361.271)"><g transform="translate(581 -4344.729)"><circle cx="42.5" cy="42.5" r="42.5" transform="translate(754 7706)" fill="#1cf290"/><g transform="translate(758.624 7713.782)"><g clip-path="url(#a)"><path d="M69.424,68.348c-.1.626-.416,1.061-1.089,1.085-.725.026-1.024-.464-1.179-1.085.008-.295.023-.59.023-.885q0-6.353,0-12.706c0-1.27.722-1.712,1.88-1.186a2.114,2.114,0,0,1,.331,1.612c-.023.454.088.666.6.646.98-.038,1.963-.028,2.944,0,.429.011.607-.095.6-.567-.028-1.5,0-2.993-.017-4.489a1.707,1.707,0,0,0-.276-1.105,1.9,1.9,0,0,0-1-1.271,9.814,9.814,0,0,0-2.264-.926,5.265,5.265,0,0,0-.516-.261c-.593-.226-1.242-.688-1.774-.583-.482.1-.5.982-.785,1.491-.012.022-.022.044-.034.066a11.236,11.236,0,0,1-16.92,3.652c-.4-.307-.779-.644-1.218-1.009A14.439,14.439,0,0,1,47.63,53.4a9.18,9.18,0,0,1-2.6,2.684,1.863,1.863,0,0,0-.982,2.045.724.724,0,0,0,.6.762q1.793.561,3.567,1.184a4.88,4.88,0,0,1,3.436,4.81c.015,1.156.016,2.313.024,3.47-.1.626-.414,1.058-1.087,1.083-.725.027-1.018-.468-1.184-1.08,0-1.254.063-2.511,0-3.762-.071-1.343-.966-2-2.135-2.534-1-.459-1.224.258-1.672.735a8.686,8.686,0,0,1-13.366-.568c-.126-.16-.2-.392-.491-.38a3.126,3.126,0,0,0-2.872,2.887c-.046,1.2,0,2.41.01,3.615-.141.633-.456,1.109-1.174,1.087-.672-.021-.985-.465-1.093-1.086q.01-1.663.021-3.325a4.913,4.913,0,0,1,3.6-5c1.115-.386,2.237-.752,3.354-1.134.262-.09.677-.084.62-.489-.089-.62.388-1.392-.307-1.849a9.941,9.941,0,0,1-4.713-8.167c-.023-.411-.2-.47-.532-.5a2.86,2.86,0,0,1-1.985-.871c-.475-.57-.865-.47-1.433-.22a12.005,12.005,0,0,1-10.557-.161,12.154,12.154,0,0,1-6.553-7.777c-.117-.395-.228-.56-.691-.4-1,.345-2.026.6-3.032.927a2.682,2.682,0,0,0-1.571,1.026A2.407,2.407,0,0,0,2.236,42.1c-.017,3.566,0,7.133-.018,10.7,0,.4.137.5.51.493,1.451-.017,2.9-.023,4.354,0,.451.008.509-.186.521-.571.126-4.077.131-4.077-2.093-7.46-.027-.041-.052-.084-.082-.123a1.282,1.282,0,0,1-.068-1.633c.879-.52,1.346-.427,1.922.408.475.689.907,1.408,1.4,2.083a6.131,6.131,0,0,1,1.15,3.806C9.8,54.88,9.818,59.955,9.822,65.03c0,1.108.021,2.215.032,3.323-.126.59-.4,1.049-1.072,1.081-.756.036-1.041-.478-1.221-1.1Q7.577,62.167,7.6,56c0-.4-.161-.5-.529-.5q-1.515.025-3.031,0c-.365-.006-.535.092-.533.494q.031,6.17.039,12.34a3.241,3.241,0,0,1-.168.482,1.047,1.047,0,0,1-1.156.6.965.965,0,0,1-.89-.848,5.383,5.383,0,0,1-.051-.883q0-5.694,0-11.388c0-.423.056-.784-.563-.893-.495-.087-.71-.572-.71-1.089,0-4.191-.034-8.382.029-12.571a4.752,4.752,0,0,1,3.673-4.47c2.773-.849,5.549-1.688,8.334-2.5.519-.151.625-.392.673-.908a3.947,3.947,0,0,0-1.454-3.694,11.028,11.028,0,0,1-3.535-7.194.89.89,0,0,0-.589-.8A3.579,3.579,0,0,1,6.03,16.518a1.262,1.262,0,0,0,.329-.927c-.008-1.972-.031-3.944.012-5.916A9.858,9.858,0,0,1,15.508.146a112.473,112.473,0,0,1,11.456,0A4.462,4.462,0,0,1,30.99,3.153a2.356,2.356,0,0,0,.687.922,5.884,5.884,0,0,1,2.215,4.565c.027,2.292.018,4.585.006,6.877a1.45,1.45,0,0,0,.382,1.057,3.576,3.576,0,0,1-1.093,5.574,1.024,1.024,0,0,0-.676.983,4.251,4.251,0,0,1-.274,1.368c-.321.76-.141,1.13.633,1.482,1.9.863,3.755,1.829,5.611,2.788a1.5,1.5,0,0,0,1.307.029,2.512,2.512,0,0,0,1.919-2.858c-.075-2.064.1-4.137.16-6.207a15.033,15.033,0,0,1,29.906-1.665,52.811,52.811,0,0,1,.239,5.46q.26,7.023,1.172,13.989c.125.946-.449,1.386-1.12,1.8A25.881,25.881,0,0,1,64.794,42.3l-.792.2c.153.277.451.291.691.388,2.551,1.031,5.109,2.046,7.66,3.077a4.9,4.9,0,0,1,3.4,5c0,1.874-.006,3.747,0,5.62,0,.709-.168,1.271-.966,1.424-.451.087-.3.449-.305.714q-.012,4.363-.005,8.726c0,.173,0,.345,0,.518-.014.921-.291,1.347-.936,1.441s-1.019-.2-1.323-1.08c.012-3.276.02-6.551.042-9.827,0-.361-.135-.471-.478-.461q-.96.027-1.922,0c-.351-.011-.466.113-.464.469.019,3.276.021,6.553.028,9.829m-26.8-8a2.583,2.583,0,0,1-.766-2.074c.053-.554-.16-.574-.628-.466a9.148,9.148,0,0,1-4.168,0c-.492-.115-.672-.056-.626.478a2.6,2.6,0,0,1-.775,2.07,6,6,0,0,1-1.431.686.984.984,0,0,0,.4.557,6.481,6.481,0,0,0,8.882.146c.668-.609.665-.6-.117-.965-.265-.123-.512-.286-.767-.431M39.367,31.762c-.319-.252-.56.019-.805.14-1.944.96-3.878,1.941-5.825,2.9-.628.308-1.261.736-1.968.092-.24-.218-.314.117-.4.261a11.1,11.1,0,0,0-1.5,4.81c-.046.459.12.613.578.585a51.612,51.612,0,0,0,5.93-.628,29.423,29.423,0,0,0,9.322-2.835,1.23,1.23,0,0,1,1.51.033,1.251,1.251,0,0,1,.255,1.486c-.335.2-.659.422-1.006.6a34.553,34.553,0,0,1-10.121,3.026c-2.074.275-4.152.491-6.245.569a1.465,1.465,0,0,0-1.4,1.943,1.552,1.552,0,0,0,1.657.968c1.914.02,2.044.143,2.029,2.072A7.538,7.538,0,0,0,32.6,52.187a7.4,7.4,0,0,0,6.907,3.579c3.264.1,6.655-2.818,7.26-6.216a14.771,14.771,0,0,0,.142-2.428c.012-1.032.4-1.4,1.443-1.419a7.568,7.568,0,0,0,1.176-.058A1.315,1.315,0,0,0,50.638,44.6a1.231,1.231,0,0,0-.5-1.428,1.642,1.642,0,0,1-.737-1.44A10.829,10.829,0,0,0,48,35.291c-.142-.232-.248-.507-.609-.261a1.277,1.277,0,0,1-1.394-.039c-1.295-.655-2.587-1.315-3.895-1.943a20.4,20.4,0,0,0-2.731-1.285M61,42.436a7.519,7.519,0,0,1-.154-2.052c.057-.592-.119-.7-.688-.534a12.156,12.156,0,0,1-5.253.285,17.1,17.1,0,0,1-3.26-.941c.063,1.188-.254,2.365.766,3.228,1.281,2.61.133,4.748-2.99,5.553a.891.891,0,0,0,.082.2A9.045,9.045,0,0,0,65.025,46.91c.63-1.232.591-1.252-.665-1.757-.25-.1-.5-.214-.753-.3a4.014,4.014,0,0,1-2.6-2.42M15.1,11.364c.513-.036,1.027-.076,1.54-.109a42.3,42.3,0,0,0,6.918-.978,21.443,21.443,0,0,0,3.775-1.243,1.017,1.017,0,0,1,1.367.529.953.953,0,0,1-.273,1.312c-.146.127-.308.237-.463.355-.714.249-1.423.517-2.144.743A48.561,48.561,0,0,1,15.1,13.639a8.6,8.6,0,0,1-.958-.007c-.629-.072-.929.208-1.079.807-.166.665-.442,1.3-.63,1.964a1.354,1.354,0,0,1-1.51,1.1,9.8,9.8,0,0,0-2.5.077,1.352,1.352,0,0,0-1.1,1.372A1.368,1.368,0,0,0,8.392,20.28c1.332.354,1.416.454,1.489,1.853a10.056,10.056,0,0,0,1.1,4.023c1.852,3.691,6.237,6.095,10.035,5.5a7.62,7.62,0,0,0,.877-.064,10.235,10.235,0,0,0,8.488-9.447c.113-1.445.114-1.442,1.549-1.877a1.394,1.394,0,0,0,.007-2.679,4.76,4.76,0,0,0-1.317-.1c-1.128-.015-1.466-.368-1.439-1.5a1.773,1.773,0,0,1,1.873-.725c.4.025.637-.053.631-.549-.024-2.018.022-4.038-.029-6.055A3.593,3.593,0,0,0,30.095,5.7a2.77,2.77,0,0,1-1.109-1.5A2.377,2.377,0,0,0,26.75,2.356a67.271,67.271,0,0,0-8.549.013c-2.02-.056-4.024-.131-5.842,1.054A7.68,7.68,0,0,0,8.735,8.647a38.784,38.784,0,0,0-.141,5.817c-.008.289-.2.827.368.762s1.325.469,1.644-.451c.242-.7.459-1.4.695-2.1a1.544,1.544,0,0,1,1.739-1.26q1.033-.024,2.065-.051m36.655,9.581a8.57,8.57,0,0,1-5,2.9,1.085,1.085,0,0,1-1.088-1.085c-.032-.655.38-.972.936-1.163.325-.112.66-.2.977-.333a4.6,4.6,0,0,0,3.132-3.606c.171-1.074,1-1.444,1.875-.791a15.719,15.719,0,0,0,6.166,2.522,44.988,44.988,0,0,1,6.085,1.494c2.329.878,4,2.4,4.367,4.941a12.04,12.04,0,0,1-5.321,12.292,1.869,1.869,0,0,0-.84,1.891c.012.355.147.414.457.338a27.9,27.9,0,0,0,6.817-2.562.9.9,0,0,0,.526-1.057,136.107,136.107,0,0,1-1.074-14.581,19.372,19.372,0,0,0-.725-6.059,12.817,12.817,0,0,0-24.809,2.135c-.335,2.643-.167,5.314-.343,7.968-.036.543.2.41.511.268a10.433,10.433,0,0,1,2.353-1.042,1.233,1.233,0,0,1,1.094,1.41c-.008,1.376.009,2.752-.009,4.128a1.179,1.179,0,0,0,.358.915,12.013,12.013,0,0,1,2.51,3.865,1.241,1.241,0,0,0,.48.62,10.188,10.188,0,0,0,6.942,1.635c.291-.039.584-.064.872-.12a10.344,10.344,0,0,0,8.1-11.157,4.13,4.13,0,0,0-2.4-3.462A14.919,14.919,0,0,0,61.341,22.2a37.955,37.955,0,0,1-7.384-1.985c-.468-.2-1.044-.721-1.352-.588-.4.171-.574.852-.845,1.314M14.95,32.9c0,.977-.013,1.837,0,2.7a5.157,5.157,0,0,0,3.986,4.885,5.315,5.315,0,0,0,5.737-2.514c.79-1.372.591-2.851.652-4.315.028-.663-.162-.726-.743-.5a12.085,12.085,0,0,1-5.347.794A14.591,14.591,0,0,1,14.95,32.9m11.679,6.192c-.171.24-.242.338-.311.437A7.434,7.434,0,0,1,13.4,38.554c-.269-.544-.144-1.455-.775-1.584-.553-.113-1.206.337-1.829.471s-.711.414-.516.98a11.263,11.263,0,0,0,3.134,4.749A10.3,10.3,0,0,0,25,44.457c.173-.1.369-.178.387-.405a3.818,3.818,0,0,1,1.126-2.423.525.525,0,0,0,.115-.333c.01-.679.005-1.358.005-2.207m3.812-10.275a22.015,22.015,0,0,1-2.635,2.511.635.635,0,0,0-.24.575c.007,1.169,0,2.338,0,3.553.1-.074.175-.1.2-.159A12.306,12.306,0,0,1,30.2,31.731a.765.765,0,0,0,.245-.582c-.013-.778-.005-1.557-.005-2.336M45.6,28.349l-3.962,1.983L45.6,32.311Zm-8.941,1.982L32.7,28.355v3.952l3.958-1.976" transform="translate(0 0)" fill="#030302"/><path d="M16.564,159.47c-.011-1.108-.031-2.215-.032-3.323,0-5.075-.02-10.149.011-15.224a6.134,6.134,0,0,0-1.15-3.807c-.493-.675-.925-1.394-1.4-2.083-.576-.835-1.043-.927-1.922-.408a15.929,15.929,0,0,1-2.534-3.1,2.681,2.681,0,0,1,1.571-1.026c1.006-.325,2.034-.582,3.032-.927.463-.16.575.005.692.4a12.152,12.152,0,0,0,6.553,7.777,12.006,12.006,0,0,0,10.557.161c.568-.251.958-.35,1.433.22A2.86,2.86,0,0,0,35.36,139c.329.033.51.091.532.5a9.941,9.941,0,0,0,4.713,8.167c.7.457.219,1.229.307,1.85.058.4-.358.4-.62.489-1.116.382-2.239.748-3.354,1.134a4.914,4.914,0,0,0-3.6,5q-.01,1.663-.021,3.325l-16.754.005" transform="translate(-6.71 -91.117)" fill="#48a7e8"/><path d="M174.5,160.13a9.8,9.8,0,0,1,2.264.926,1.9,1.9,0,0,1,1,1.271c-.347.06-.526.347-.753.563-1.158,1.1-2.206,2.31-3.428,3.342-1.159-.526-1.878-.084-1.881,1.186q-.012,6.353,0,12.706c0,.295-.015.59-.023.885H156.192c-.007-1.157-.008-2.313-.024-3.47a4.879,4.879,0,0,0-3.435-4.809q-1.772-.627-3.567-1.184a.724.724,0,0,1-.6-.762,1.862,1.862,0,0,1,.981-2.044,9.184,9.184,0,0,0,2.6-2.684,14.128,14.128,0,0,0,2.063,1.531,13.907,13.907,0,0,0,18.181-3.37,9.71,9.71,0,0,0,2.108-4.088" transform="translate(-104.517 -112.66)" fill="#eb5d7d"/><path d="M97.338,215.122c-.007-1.205-.055-2.412-.01-3.615a3.126,3.126,0,0,1,2.872-2.887c.295-.012.365.221.491.38a8.685,8.685,0,0,0,13.366.568c.447-.478.672-1.195,1.672-.735,1.169.537,2.064,1.191,2.135,2.534.066,1.25.007,2.507,0,3.761l-20.529-.006" transform="translate(-68.462 -146.775)" fill="#f8da76"/><path d="M11.865,200.051q-.016-6.17-.039-12.34c0-.4.168-.5.533-.494q1.515.024,3.031,0c.368-.006.531.1.529.5q-.031,6.17-.038,12.34l-4.016,0" transform="translate(-8.32 -131.717)" fill="#ab8668"/><path d="M234.121,206.115c-.007-3.276-.01-6.553-.028-9.829,0-.356.112-.479.464-.469q.96.028,1.922,0c.343-.01.481.1.478.461-.021,3.276-.03,6.551-.042,9.827l-2.794.01" transform="translate(-164.697 -137.768)" fill="#f2d5a9"/><path d="M150.951,42.937a10.456,10.456,0,0,0-2.353,1.042c-.307.141-.547.275-.511-.268.176-2.653.009-5.325.343-7.968a12.817,12.817,0,0,1,24.809-2.135,19.374,19.374,0,0,1,.725,6.059,136.114,136.114,0,0,0,1.074,14.581.9.9,0,0,1-.527,1.057,27.889,27.889,0,0,1-6.816,2.562c-.31.076-.445.017-.457-.337a1.869,1.869,0,0,1,.84-1.891A12.04,12.04,0,0,0,173.4,43.346c-.365-2.537-2.038-4.064-4.367-4.941a44.943,44.943,0,0,0-6.085-1.494,15.717,15.717,0,0,1-6.166-2.522c-.873-.652-1.7-.283-1.875.792a4.6,4.6,0,0,1-3.132,3.606c-.317.132-.652.222-.977.333-.556.191-.968.507-.936,1.162a1.085,1.085,0,0,0,1.088,1.085q0,.785,0,1.569" transform="translate(-104.184 -17.52)" fill="#cb9e6b"/><path d="M50.928,40.291a48.561,48.561,0,0,0,10.726-1.666c.721-.226,1.429-.494,2.144-.743.15.99.28,1.983.457,2.968a2.98,2.98,0,0,0,.753,1.785c-.027,1.137.311,1.489,1.439,1.5a4.749,4.749,0,0,1,1.317.1,1.311,1.311,0,0,1,1,1.3,1.324,1.324,0,0,1-1.01,1.375c-1.435.435-1.435.433-1.549,1.877a10.235,10.235,0,0,1-8.488,9.447,7.554,7.554,0,0,1-.877.063c-.017-.3-.291-.392-.485-.51a11.566,11.566,0,0,1-2.476-2.045,10.838,10.838,0,0,1-2.956-7.775,1.226,1.226,0,0,0,1.06-1.429c-.017-.268-.005-.538,0-.808A1.085,1.085,0,0,0,50.93,44.5q0-2.106,0-4.212m5.035,14a4.464,4.464,0,0,0,3.295-1.578,1.091,1.091,0,0,0-.02-1.588,1.078,1.078,0,0,0-1.53.032c-1.471,1.227-2.038,1.228-3.5,0a1.1,1.1,0,0,0-1.6,1.5,4.463,4.463,0,0,0,3.35,1.633m3.975-8.1c0,.221-.015.442,0,.661a1.093,1.093,0,0,0,1.068,1.092,1.078,1.078,0,0,0,1.108-.975,4.118,4.118,0,0,0,.034-.732c0-1.186-.343-1.738-1.1-1.758s-1.121.524-1.115,1.712" transform="translate(-35.83 -26.652)" fill="#ba9676"/><path d="M174.6,67.483c.272-.461.448-1.142.845-1.314.308-.133.884.384,1.352.588a37.937,37.937,0,0,0,7.384,1.985,14.931,14.931,0,0,1,3.368,1.045,4.131,4.131,0,0,1,2.4,3.463,10.344,10.344,0,0,1-8.1,11.157c-.288.056-.581.081-.872.12a13.267,13.267,0,0,1-3.637-2.9,11.752,11.752,0,0,1-2.72-7.409c1-.315,1.157-.558,1.159-1.743,0-1.262-.146-1.493-1.159-1.817q-.013-1.586-.026-3.171M179.784,80.5a4.3,4.3,0,0,0,3.316-1.66,1.088,1.088,0,0,0-1.523-1.539,5.138,5.138,0,0,0-.382.346,2,2,0,0,1-2.9.026c-.127-.116-.242-.247-.377-.352a1.048,1.048,0,0,0-1.517.08,1.031,1.031,0,0,0-.013,1.468,4.388,4.388,0,0,0,3.4,1.63m6.11-8.089c0-.2.006-.392,0-.588a1.072,1.072,0,0,0-1.041-1.118,1.086,1.086,0,0,0-1.137,1.02,6.3,6.3,0,0,0-.005,1.392,1.078,1.078,0,0,0,1.116,1.049A1.1,1.1,0,0,0,185.895,73c.012-.2,0-.392,0-.588" transform="translate(-122.84 -46.539)" fill="#f7dfb7"/><path d="M119.182,133.844a34.571,34.571,0,0,0,10.121-3.026c.347-.178.671-.4,1.006-.6a2.886,2.886,0,0,1,.3.81,2.394,2.394,0,0,0,2.643,2.323,1.642,1.642,0,0,0,.737,1.44,1.231,1.231,0,0,1,.5,1.428,1.315,1.315,0,0,1-1.11,1.043,7.686,7.686,0,0,1-1.176.058c-1.046.017-1.431.387-1.443,1.419a14.7,14.7,0,0,1-.142,2.428c-.6,3.4-4,6.312-7.26,6.216-.642-.616-1.308-1.209-1.92-1.854a3.918,3.918,0,0,1-1.172-1.891c.128.072.26.138.384.216a4.184,4.184,0,0,0,5.493-.673c.58-.606.633-1.278.139-1.748-.458-.436-1.1-.366-1.7.185a2.021,2.021,0,0,1-3.167.012c-.722-.663-1.15-.665-1.908-.01-.488-1.079-.237-2.224-.295-3.342.655-.105,1.085-.442,1.073-1.147-.011-.679-.441-.975-1.073-1.038q-.018-1.123-.035-2.246m8.658,3.3a1.082,1.082,0,0,0-2.163-.005,1.082,1.082,0,1,0,2.163.005" transform="translate(-83.851 -91.616)" fill="#e6bf8d"/><path d="M64.983,21.267a2.981,2.981,0,0,1-.753-1.786c-.177-.984-.307-1.978-.457-2.967.155-.118.317-.227.463-.355a.953.953,0,0,0,.273-1.312,1.017,1.017,0,0,0-1.367-.529,21.447,21.447,0,0,1-3.776,1.243,42.289,42.289,0,0,1-6.918.977c-.514.033-1.027.073-1.54.109,0-1-.039-2.011,0-3.015a7.308,7.308,0,0,1,1.73-4.417c.438-.542,1.18-.813,1.367-1.564a67.326,67.326,0,0,1,8.549-.013A2.377,2.377,0,0,1,64.789,9.48a2.77,2.77,0,0,0,1.109,1.5,3.592,3.592,0,0,1,1.559,2.953c.051,2.017,0,4.037.029,6.055.006.5-.226.574-.631.549a1.773,1.773,0,0,0-1.873.725" transform="translate(-35.804 -5.283)" fill="#5f473e"/><path d="M178.305,143.114a4.014,4.014,0,0,0,2.6,2.42c.256.083.5.2.752.3,1.257.5,1.3.524.665,1.757a9.045,9.045,0,0,1-15.518,1.262.875.875,0,0,1-.082-.2c3.123-.8,4.27-2.944,2.99-5.553.456.077.919.13,1.368.236a12.911,12.911,0,0,0,3.33.35,16.286,16.286,0,0,0,3.891-.571" transform="translate(-117.301 -100.678)" fill="#f2d5a9"/><path d="M32.456,53.65a10.836,10.836,0,0,0,2.956,7.775,11.557,11.557,0,0,0,2.475,2.045c.194.119.467.206.485.51-3.8.6-8.183-1.808-10.036-5.5a10.054,10.054,0,0,1-1.1-4.023c-.073-1.4-.158-1.5-1.49-1.853a1.367,1.367,0,0,1-1.074-1.331,1.351,1.351,0,0,1,1.1-1.372,9.79,9.79,0,0,1,2.5-.077,1.354,1.354,0,0,0,1.51-1.1c.187-.661.463-1.3.63-1.964.149-.6.449-.878,1.078-.806a8.6,8.6,0,0,0,.958.007q0,2.106,0,4.212c-.839.14-1.129.466-1.167,1.31-.068,1.526.126,1.886,1.164,2.165" transform="translate(-17.358 -32.325)" fill="#ab8668"/><path d="M183.021,158.09a9.71,9.71,0,0,1-2.108,4.088,13.907,13.907,0,0,1-18.181,3.37,14.127,14.127,0,0,1-2.063-1.531,14.428,14.428,0,0,0,1.107-2.57c.439.365.817.7,1.218,1.009a11.236,11.236,0,0,0,16.92-3.652c.012-.022.021-.044.033-.066.281-.51.3-1.4.785-1.491.533-.106,1.181.357,1.774.583a5.3,5.3,0,0,1,.516.261" transform="translate(-113.04 -110.621)" fill="#c04869"/><path d="M133.346,117.117a2.394,2.394,0,0,1-2.643-2.323,2.883,2.883,0,0,0-.3-.81,1.251,1.251,0,0,0-.255-1.486,1.23,1.23,0,0,0-1.511-.033,29.424,29.424,0,0,1-9.322,2.835c.047-.385.093-.77.142-1.155a10.709,10.709,0,0,1,1.2-3.654,13.227,13.227,0,0,1,2.655-3.347,20.375,20.375,0,0,1,2.731,1.285c1.308.628,2.6,1.289,3.895,1.944a1.277,1.277,0,0,0,1.394.039c.361-.246.467.028.609.261a10.829,10.829,0,0,1,1.407,6.445" transform="translate(-83.943 -75.381)" fill="#5f473e"/><path d="M38.5,7.927c-.186.75-.929,1.022-1.366,1.563A7.307,7.307,0,0,0,35.4,13.908c-.037,1,0,2.01,0,3.015l-2.066.051a1.545,1.545,0,0,0-1.739,1.26c-.235.7-.452,1.4-.695,2.1-.32.92-1.088.388-1.644.451s-.376-.474-.368-.762a38.823,38.823,0,0,1,.141-5.817,7.68,7.68,0,0,1,3.624-5.224C34.472,7.8,36.476,7.871,38.5,7.927" transform="translate(-20.295 -5.559)" fill="#503732"/><path d="M162.77,77.383a11.755,11.755,0,0,0,2.72,7.41,13.26,13.26,0,0,0,3.637,2.9,10.185,10.185,0,0,1-6.942-1.635,1.241,1.241,0,0,1-.48-.62,12,12,0,0,0-2.51-3.865,1.181,1.181,0,0,1-.358-.915c.018-1.376,0-2.752.009-4.129a1.233,1.233,0,0,0-1.094-1.41q0-.784,0-1.569a8.569,8.569,0,0,0,5-2.9l.026,3.171c-.989.377-1.067.512-1.065,1.853,0,1.184.1,1.343,1.065,1.707" transform="translate(-110.985 -49.708)" fill="#f2d5a9"/><path d="M50.418,110.97a14.592,14.592,0,0,0,4.287,1.047,12.086,12.086,0,0,0,5.347-.794c.581-.227.771-.165.743.5-.061,1.464.138,2.943-.652,4.315a5.315,5.315,0,0,1-5.737,2.514,5.158,5.158,0,0,1-3.987-4.885c-.015-.86,0-1.72,0-2.7" transform="translate(-35.468 -78.074)" fill="#ab8668"/><path d="M100.864,146.882c.058,1.118-.194,2.263.295,3.342-.464.94.247,1.441.754,2.018a3.919,3.919,0,0,0,1.172,1.891c.612.644,1.277,1.238,1.92,1.854a7.4,7.4,0,0,1-6.907-3.579A7.539,7.539,0,0,1,96.87,148c.015-1.929-.114-2.051-2.029-2.072a1.552,1.552,0,0,1-1.657-.968,1.465,1.465,0,0,1,1.4-1.943c2.093-.078,4.171-.294,6.245-.569q.017,1.123.035,2.246a.993.993,0,0,0-1.075,1.038c-.021.707.419,1.043,1.075,1.147" transform="translate(-65.498 -100.221)" fill="#dbae7e"/><path d="M50.806,126.788c0,.849.005,1.528-.005,2.207a.525.525,0,0,1-.115.333,3.818,3.818,0,0,0-1.126,2.423c-.018.227-.214.3-.387.406a10.294,10.294,0,0,1-11.583-1.286,11.264,11.264,0,0,1-3.134-4.749c-.2-.566-.1-.849.516-.98s1.276-.584,1.829-.471c.631.129.506,1.04.775,1.584a7.434,7.434,0,0,0,12.919.971c.068-.1.14-.2.311-.437" transform="translate(-24.178 -87.699)" fill="#3e92d2"/><path d="M8.091,136.3a15.93,15.93,0,0,0,2.534,3.1,1.282,1.282,0,0,0,.069,1.633c.029.039.055.082.082.123,2.224,3.383,2.219,3.383,2.093,7.46-.012.385-.07.579-.521.571-1.451-.025-2.9-.019-4.354,0-.374,0-.512-.1-.511-.493.014-3.566,0-7.133.018-10.7a2.406,2.406,0,0,1,.591-1.694" transform="translate(-5.264 -95.896)" fill="#3e92d2"/><path d="M107.847,106.9a13.227,13.227,0,0,0-2.655,3.347,10.708,10.708,0,0,0-1.2,3.654c-.049.385-.095.77-.142,1.155a51.62,51.62,0,0,1-5.931.628c-.457.028-.623-.127-.577-.585a11.1,11.1,0,0,1,1.5-4.81c.088-.144.163-.479.4-.261.707.644,1.339.216,1.968-.092,1.946-.955,3.88-1.936,5.825-2.9.245-.121.486-.392.805-.141" transform="translate(-68.48 -75.135)" fill="#503732"/><path d="M183.583,135.454a16.285,16.285,0,0,1-3.891.571,12.911,12.911,0,0,1-3.33-.35c-.449-.106-.912-.159-1.368-.236-1.019-.863-.7-2.04-.766-3.228a17.1,17.1,0,0,0,3.26.941,12.15,12.15,0,0,0,5.253-.285c.569-.167.745-.057.688.534a7.53,7.53,0,0,0,.155,2.052" transform="translate(-122.578 -93.018)" fill="#e6bf8d"/><path d="M123.861,203.576c.255.145.5.308.767.431.781.361.784.355.116.965a6.481,6.481,0,0,1-8.881-.146.985.985,0,0,1-.4-.557,6.005,6.005,0,0,0,1.43-.686c.88-.014,1.717.3,2.6.31a23.4,23.4,0,0,0,4.362-.317" transform="translate(-81.237 -143.227)" fill="#dbae7e"/><path d="M232.975,171.444c1.222-1.033,2.27-2.243,3.428-3.342.228-.216.407-.5.753-.563a1.7,1.7,0,0,1,.277,1.105c.016,1.5-.011,2.993.017,4.489.009.472-.17.577-.6.567-.981-.025-1.964-.035-2.944,0-.513.02-.625-.192-.6-.646a2.114,2.114,0,0,0-.33-1.613" transform="translate(-163.911 -117.873)" fill="#c04869"/><path d="M127.256,197.425a23.4,23.4,0,0,1-4.362.317c-.885-.013-1.722-.324-2.6-.31a2.6,2.6,0,0,0,.775-2.07c-.046-.534.135-.593.626-.478a9.147,9.147,0,0,0,4.168,0c.468-.108.682-.088.628.466a2.583,2.583,0,0,0,.767,2.074" transform="translate(-84.632 -137.076)" fill="#cb9e6b"/><path d="M144.414,95.629v3.962l-3.962-1.979,3.962-1.983" transform="translate(-98.816 -67.28)" fill="#f8da76"/><path d="M114.262,97.626,110.3,99.6V95.65l3.958,1.976" transform="translate(-77.605 -67.295)" fill="#f8da76"/><path d="M59.292,84.991a4.463,4.463,0,0,1-3.35-1.633,1.1,1.1,0,0,1,1.6-1.5c1.46,1.227,2.027,1.227,3.5,0a1.077,1.077,0,0,1,1.53-.031,1.09,1.09,0,0,1,.02,1.588,4.462,4.462,0,0,1-3.295,1.578" transform="translate(-39.157 -57.355)" fill="#030302"/><path d="M81.314,61.841c-.006-1.188.351-1.732,1.115-1.712s1.1.572,1.1,1.758a4.115,4.115,0,0,1-.034.732,1.078,1.078,0,0,1-1.108.975A1.093,1.093,0,0,1,81.317,62.5c-.017-.219,0-.441,0-.661" transform="translate(-57.205 -42.304)" fill="#030302"/><path d="M48.139,63.689c-1.038-.279-1.232-.639-1.164-2.165.037-.844.328-1.17,1.167-1.31A1.085,1.085,0,0,1,49.2,61.452c0,.269-.014.539,0,.808a1.226,1.226,0,0,1-1.06,1.429" transform="translate(-33.041 -42.364)" fill="#030302"/><path d="M183.315,106.326a4.388,4.388,0,0,1-3.4-1.63,1.032,1.032,0,0,1,.013-1.468,1.048,1.048,0,0,1,1.517-.08c.135.1.25.235.377.352a2,2,0,0,0,2.9-.026,5.133,5.133,0,0,1,.382-.346,1.088,1.088,0,0,1,1.523,1.539,4.3,4.3,0,0,1-3.316,1.66" transform="translate(-126.371 -72.363)" fill="#030302"/><path d="M207.433,83.212c0,.2.011.393,0,.588a1.1,1.1,0,0,1-1.069,1.167,1.077,1.077,0,0,1-1.116-1.049,6.264,6.264,0,0,1,.005-1.392,1.086,1.086,0,0,1,1.137-1.02,1.072,1.072,0,0,1,1.041,1.118c.007.2,0,.392,0,.588" transform="translate(-144.377 -57.339)" fill="#030302"/><path d="M172.159,84.909c-.964-.363-1.063-.523-1.065-1.707,0-1.341.076-1.476,1.065-1.853,1.012.324,1.16.556,1.159,1.817,0,1.185-.163,1.428-1.159,1.742" transform="translate(-120.374 -57.234)" fill="#030302"/><path d="M120.69,169.531c-.507-.577-1.218-1.079-.754-2.018.758-.655,1.186-.653,1.909.01a2.021,2.021,0,0,0,3.167-.012c.6-.551,1.237-.621,1.695-.185.494.47.441,1.143-.139,1.748a4.184,4.184,0,0,1-5.494.673c-.124-.078-.256-.144-.384-.216" transform="translate(-84.275 -117.51)" fill="#030302"/><path d="M143.255,151.032a1.082,1.082,0,1,1-2.163-.005,1.082,1.082,0,0,1,2.163.005" transform="translate(-99.266 -105.503)" fill="#030302"/><path d="M116.747,152.213c-.655-.1-1.1-.44-1.075-1.147a.993.993,0,0,1,1.075-1.038c.631.063,1.062.359,1.073,1.038.011.7-.419,1.042-1.073,1.147" transform="translate(-81.381 -105.553)" fill="#030302"/></g></g></g></g></svg>