<svg xmlns="http://www.w3.org/2000/svg" xmlns:xlink="http://www.w3.org/1999/xlink" width="42.117" height="56.749" viewBox="0 0 42.117 56.749"><defs><clipPath id="a"><rect width="42.117" height="56.749" fill="none"/></clipPath></defs><g transform="translate(1977 3707.163)"><g transform="translate(-1977 -3707.163)"><g clip-path="url(#a)"><path d="M12.175,27.856a4.916,4.916,0,0,1,.777-1.16c-.107-.184-.3-.209-.45-.294A8.163,8.163,0,0,1,8.549,21.36a.606.606,0,0,0-.483-.5A4.488,4.488,0,0,1,5.1,14.412a.779.779,0,0,0,0-.67c-.932-2.707-.783-5.258,1.154-7.526a.9.9,0,0,0,.2-.5A6.4,6.4,0,0,1,13.078,0q4.57,0,9.141,0a4.058,4.058,0,0,1,4.292,3.746.62.62,0,0,0,.3.485,7.878,7.878,0,0,1,2.872,9.45.878.878,0,0,0,.037.773,4.5,4.5,0,0,1-2.925,6.4.684.684,0,0,0-.561.553,8.12,8.12,0,0,1-4.427,5.239c-.161.078-.322.153-.475.225-.009.162.12.2.2.26a7.542,7.542,0,0,1,2.951,5.252c.054.427.13.778.625.9.39.1.581.693.934.633.326-.055.605-.448.957-.619a3.441,3.441,0,0,1,4.335,1.1,1.007,1.007,0,0,0,.748.446,6.408,6.408,0,0,1,5.454,6.468c.016,1.44.007,2.881,0,4.322a.539.539,0,0,0,.3.575A4.584,4.584,0,0,1,40.1,49.088c.067.228.134.316.385.355a1.807,1.807,0,0,1,1.629,1.905,7.51,7.51,0,0,1-.035,1.216,2.718,2.718,0,0,1-2.787,2.34c-1.662.018-3.324.01-4.986,0a.863.863,0,0,0-.716.307,4.47,4.47,0,0,1-6.778-.033.753.753,0,0,0-.619-.273q-4.377.011-8.753,0a1.341,1.341,0,0,0-.725.213,10.966,10.966,0,1,1-8.953-19.83c.411-.128.51-.3.488-.687-.029-.5,0-1-.009-1.5A1.819,1.819,0,0,0,6.22,31.136c-1.126,0-2.253.008-3.379,0A2.756,2.756,0,0,1,.014,28.525a2.669,2.669,0,0,1,2.563-2.846,31.478,31.478,0,0,1,5.971.1,6.039,6.039,0,0,1,3.627,2.079M28.1,12.585a6.066,6.066,0,0,0-1.611-6.31c-.268-.242-.4-.316-.625.068a3.727,3.727,0,0,1-1.779,1.523c-.885.39-.886.388-1.2-.539-.047-.139-.091-.281-.148-.416-.132-.314-.121-.482.286-.613A2.268,2.268,0,0,0,22.3,1.841c-3.12-.008-6.241-.018-9.361,0a4.511,4.511,0,0,0-4.67,4.408,1.406,1.406,0,0,1-.468,1c-1.458,1.436-1.558,3.216-1.25,5.091.043.262.161.28.373.149a3.064,3.064,0,0,1,1.018-.415.585.585,0,0,0,.5-.488,4.476,4.476,0,0,1,3.334-3.217,6,6,0,0,1,1.761-.132.473.473,0,0,0,.51-.3,2.677,2.677,0,0,1,2.611-1.522c.748.012.751,0,.747.757,0,.33.093.73-.058.971s-.578.053-.881.093a.9.9,0,0,0-.831.624.867.867,0,0,0,.249.959,1.208,1.208,0,0,0,.883.243c2.29,0,4.579.007,6.868,0A2.739,2.739,0,0,1,26.3,11.683c.06.121.075.275.27.311a5.915,5.915,0,0,1,1.54.591m-18.02,3.586h.006c0,1.089-.02,2.179,0,3.268a6.43,6.43,0,0,0,4.091,5.741,10.871,10.871,0,0,0,4.1.422,6.4,6.4,0,0,0,6.434-6.433c.009-2.013,0-4.026,0-6.038,0-.964-.292-1.256-1.254-1.256q-3.462,0-6.924,0a2.511,2.511,0,0,1-2.323-1.243.956.956,0,0,0-1.087-.555,2.352,2.352,0,0,1-.277,0,2.713,2.713,0,0,0-2.767,2.769c-.011,1.108,0,2.216,0,3.324M6.109,40.257a15.122,15.122,0,0,1-1.589-.011,1.223,1.223,0,0,0-1.317.721,9.146,9.146,0,1,0,15.378-.291c-.11-.161-.176-.4-.415-.408-.738-.014-1.476,0-2.3,0a7.393,7.393,0,0,1,.2,10.77A7.339,7.339,0,1,1,6.109,40.257m14.907-1.819c1.214,0,2.211-.016,3.207.008.37.009.525-.066.5-.477-.035-.7-.005-1.4-.011-2.1-.006-.76-.319-1.084-1.069-1.09-1.089-.008-2.186.082-3.264-.025a2.852,2.852,0,0,0-2.9,1.218c-.041.06-.11.1-.155.157-.132.165-.233.15-.4.011-1.206-1-1.21-.994-.124-2.081.117-.118.228-.243.354-.35a.683.683,0,0,0,.245-.58c-.011-1.273.007-2.547-.01-3.82a1.825,1.825,0,1,0-3.65-.006c-.011,1.569-.02,3.138.006,4.706a4.525,4.525,0,0,0,3.835,4.355,33.655,33.655,0,0,0,3.431.077m3,10.988c.739,0,1.477-.005,2.215,0a.6.6,0,0,0,.527-.216,4.416,4.416,0,0,1,3.111-1.6c.242-.019.358-.089.353-.363-.015-1-.013-1.994,0-2.991,0-.276-.113-.341-.365-.34q-3.849.009-7.7,0c-.283,0-.342.095-.3.358a10.357,10.357,0,0,1-.417,4.805c-.09.275-.039.354.252.348.775-.015,1.551,0,2.326,0m8.036-12.716a3.517,3.517,0,0,1-.788,2.22c-.182.218-.041.315.081.454a2.779,2.779,0,0,1,.694,1.927c-.013,1.327.012,2.655-.013,3.982-.008.4.114.5.5.484.9-.027,1.806-.023,2.709,0,.346.008.478-.07.472-.449-.024-1.419.005-2.839-.016-4.258a4.529,4.529,0,0,0-3.634-4.358M5.5,27.483H3.047c-.055,0-.111,0-.166,0-.641.018-1.021.359-1.021.914s.374.9,1.029.9c1.145.01,2.29-.017,3.435,0a3.643,3.643,0,0,1,3.724,3.249,12.443,12.443,0,0,1,.029,1.826c-.008.318.045.479.417.434a4.85,4.85,0,0,1,1,0c.307.027.425-.054.415-.384-.024-.867.01-1.737-.025-2.6a4.5,4.5,0,0,0-3.634-4.245,17.376,17.376,0,0,0-2.745-.09M32.942,52.157A2.732,2.732,0,1,0,30.22,54.9a2.723,2.723,0,0,0,2.721-2.741m-12.4-11.9c.265.6.509,1.133.733,1.674.076.185.212.176.358.176q4.125,0,8.25,0c.12,0,.25.035.325-.129a1.224,1.224,0,0,0-1.07-1.715c-2.842-.013-5.684,0-8.6,0M18.882,27.733a4.958,4.958,0,0,1,.338,2.15c0,.847.025,1.7-.012,2.542-.019.431.126.527.529.51.772-.032,1.547-.009,2.321-.009.657,0,.668,0,.552-.668a5.712,5.712,0,0,0-3.727-4.525m7.669,9.325c0,.433.016.73,0,1.023s.092.384.38.374c.534-.02,1.07.009,1.6-.012a1.684,1.684,0,0,0,1.621-1.265,1.878,1.878,0,0,0-.791-2.171,1.754,1.754,0,0,0-2.082.311,1.661,1.661,0,0,0-.726,1.74M19.178,53.087c2.024,0,3.955-.016,5.885.011.494.007.762-.032.6-.629a1.882,1.882,0,0,1,.024-.821c.065-.334-.045-.41-.362-.406-1.2.015-2.4.055-3.592-.011a1.623,1.623,0,0,0-1.859.939,5.292,5.292,0,0,1-.7.917m-5.36-14.654A6.393,6.393,0,0,1,12.8,37.091a.7.7,0,0,0-.6-.4,8.734,8.734,0,0,0-3.188.139,8.571,8.571,0,0,0-3.434,1.6Zm-2.851,9.146a1.828,1.828,0,0,0,1.863-1.791,1.857,1.857,0,0,0-1.806-1.861,1.821,1.821,0,0,0-1.846,1.8,1.8,1.8,0,0,0,1.79,1.848m26.544,3.668c-.812,0-1.624.007-2.435,0-.274,0-.419.036-.334.368a2.048,2.048,0,0,1,.009,1.043c-.117.423.075.441.4.438,1.236-.013,2.472,0,3.708-.005,1.185,0,1.469-.309,1.422-1.478-.012-.3-.117-.371-.393-.366-.793.014-1.587,0-2.38,0m-3.152-3.675c-.645,0-1.29,0-1.934,0-.135,0-.316-.061-.374.137s.055.3.222.385a4.38,4.38,0,0,1,1.411,1.134.509.509,0,0,0,.427.2q1.907-.008,3.813,0c.286,0,.357-.069.237-.351a2.545,2.545,0,0,0-2.255-1.5H34.359m-7.8-31.112c0,.719.008,1.438,0,2.156,0,.308.066.417.37.24a2.716,2.716,0,0,0,0-4.806c-.323-.187-.368-.033-.365.254.008.719,0,1.438,0,2.156M8.241,18.975c0-1.613,0-3.179,0-4.745,0-.276-.089-.306-.33-.2a2.763,2.763,0,0,0-1.484,2.582,2.626,2.626,0,0,0,1.811,2.363m8.153,27.69H14.951c-.073,0-.147.006-.22,0-.126-.011-.186.048-.25.157-.379.64-.368.768.163,1.3.195.195.4.38.581.588s.295.181.434-.056a5.459,5.459,0,0,0,.735-1.987M7.806,41.319c.4.39.777.766,1.167,1.124.219.2,1.091-.111,1.1-.4.025-.554.007-1.11.007-1.692a5.266,5.266,0,0,0-2.279.97m6.414.019a5.511,5.511,0,0,0-2-.926c-.263-.065-.328,0-.321.252.011.369.022.739,0,1.107-.022.319.088.457.392.6a.713.713,0,0,0,1.026-.2,8.138,8.138,0,0,1,.907-.833m1.2,1.21c-.384.411-.751.795-1.1,1.19-.194.217.107,1.1.394,1.113.555.028,1.112.008,1.7.008a5.233,5.233,0,0,0-.985-2.31M11.9,50.1a4.024,4.024,0,0,1,0,.544c-.084.517.172.535.56.409a7.564,7.564,0,0,0,1.406-.614c.275-.156.272-.274.05-.476-.3-.271-.58-.562-.857-.856-.148-.156-.273-.13-.477-.086A.8.8,0,0,0,11.9,50.1M6.526,44.86a1.029,1.029,0,0,1,.165,0A.819.819,0,0,0,7.73,44.2c.181-.52-.229-.612-.428-.821-.9-.945-.928-.927-1.45.481-.369,1-.369,1,.674,1m3.56,5.356a1.009,1.009,0,0,1,0-.166.8.8,0,0,0-.618-1.011c-.512-.2-.624.18-.84.39-.961.932-.952.941.438,1.463,1.018.382,1.018.382,1.018-.676M6.547,46.665c-1.069,0-1.07,0-.682,1.026.058.154.122.308.194.456.41.849.411.848,1.083.177a2.777,2.777,0,0,1,.394-.386c.474-.312.1-.62.036-.947-.077-.374-.325-.332-.582-.327-.147,0-.3,0-.443,0" transform="translate(0 0)" fill="#030303"/><path d="M50.6,19.014a5.915,5.915,0,0,0-1.54-.591c-.194-.035-.209-.189-.27-.311a2.739,2.739,0,0,0-2.664-1.627c-2.289.011-4.579,0-6.868,0a1.209,1.209,0,0,1-.883-.243.867.867,0,0,1-.249-.959.9.9,0,0,1,.831-.624c.3-.041.729.147.881-.093s.057-.641.058-.971c0-.759,0-.745-.747-.758a2.677,2.677,0,0,0-2.611,1.522.473.473,0,0,1-.51.3,6,6,0,0,0-1.761.132,4.476,4.476,0,0,0-3.334,3.218.585.585,0,0,1-.5.487,3.062,3.062,0,0,0-1.018.415c-.212.132-.33.114-.373-.149-.308-1.876-.208-3.656,1.25-5.092a1.406,1.406,0,0,0,.468-.995,4.511,4.511,0,0,1,4.67-4.408c3.12-.02,6.241-.01,9.361,0a2.268,2.268,0,0,1,.733,4.457c-.407.131-.418.3-.286.613.057.135.1.277.148.416.312.927.313.929,1.2.539a3.726,3.726,0,0,0,1.778-1.523c.224-.385.356-.31.625-.068a6.066,6.066,0,0,1,1.611,6.31" transform="translate(-22.491 -6.429)" fill="#e3e6e9"/><path d="M45.474,51.492c0-1.108-.009-2.216,0-3.324A2.713,2.713,0,0,1,48.243,45.4a2.349,2.349,0,0,0,.277,0,.956.956,0,0,1,1.087.555A2.512,2.512,0,0,0,51.93,47.2q3.462-.007,6.924,0c.963,0,1.254.293,1.254,1.256,0,2.013.007,4.026,0,6.038a6.4,6.4,0,0,1-6.434,6.433,10.87,10.87,0,0,1-4.1-.422,6.431,6.431,0,0,1-4.091-5.741c-.023-1.089,0-2.179,0-3.268h-.006m7.315,2.116H49.251c-1.06,0-1.06,0-1.019,1.085a4.556,4.556,0,0,0,5.759,4.24,4.651,4.651,0,0,0,3.375-4.905c0-.339-.087-.433-.429-.428-1.382.02-2.765.008-4.147.008m-1.982-1.836a4.565,4.565,0,0,1,.555,0c.486.071.543-.139.452-.565a2.752,2.752,0,0,0-5.408.16c-.057.347.066.421.371.405s.628-.015.942,0a.516.516,0,0,0,.607-.378.838.838,0,0,1,1.508-.14.822.822,0,0,0,.973.515m3.859,0c.655,0,.655,0,1.054-.536a.869.869,0,0,1,1.505.122.621.621,0,0,0,.751.417,6.33,6.33,0,0,1,.831,0c.318.02.414-.075.356-.413a2.781,2.781,0,0,0-2.256-2.29A2.744,2.744,0,0,0,53.98,50.6c-.5,1.03-.41,1.176.687,1.176" transform="translate(-35.39 -35.321)" fill="#e7ceb4"/><path d="M12.606,181.5a7.34,7.34,0,1,0,9.76.006c.822,0,1.56-.009,2.3.005.239,0,.3.248.415.408a9.14,9.14,0,1,1-15.378.291,1.223,1.223,0,0,1,1.317-.721,15.126,15.126,0,0,0,1.589.011" transform="translate(-6.497 -141.24)" fill="#949ca6"/><path d="M69.23,134.807a33.708,33.708,0,0,1-3.43-.076,4.526,4.526,0,0,1-3.835-4.355c-.026-1.568-.016-3.137-.006-4.706a1.825,1.825,0,1,1,3.65.006c.016,1.273,0,2.547.01,3.82a.683.683,0,0,1-.245.58c-.126.107-.237.233-.354.35-1.086,1.088-1.082,1.083.124,2.081.168.139.269.154.4-.011.046-.057.114-.1.155-.157a2.852,2.852,0,0,1,2.9-1.218c1.078.107,2.175.016,3.264.025.75.006,1.063.33,1.069,1.09.006.7-.024,1.4.011,2.1.021.411-.134.486-.5.477-1-.024-1.993-.008-3.207-.008" transform="translate(-48.214 -96.37)" fill="#f3d57e"/><path d="M99.142,203.6c-.775,0-1.551-.01-2.326,0-.291.006-.342-.073-.252-.348a10.354,10.354,0,0,0,.417-4.805c-.039-.263.02-.359.3-.358q3.849.013,7.7,0c.251,0,.368.064.365.34-.012,1-.014,1.994,0,2.991,0,.274-.112.344-.353.363a4.417,4.417,0,0,0-3.111,1.6.6.6,0,0,1-.527.216c-.738-.009-1.477,0-2.215,0" transform="translate(-75.124 -154.176)" fill="#e1e4e7"/><path d="M141.508,165.576a4.529,4.529,0,0,1,3.634,4.358c.021,1.419-.008,2.839.016,4.258.006.379-.125.457-.472.449-.9-.022-1.807-.026-2.709,0-.381.012-.5-.088-.5-.484.025-1.327,0-2.654.013-3.982a2.78,2.78,0,0,0-.694-1.927c-.122-.139-.263-.237-.081-.454a3.517,3.517,0,0,0,.788-2.22" transform="translate(-109.454 -128.867)" fill="#c99f72"/><path d="M12.03,123.908a17.375,17.375,0,0,1,2.745.09,4.494,4.494,0,0,1,3.634,4.245c.035.867,0,1.736.025,2.6.009.329-.108.41-.415.384a4.85,4.85,0,0,0-1,0c-.372.045-.425-.116-.417-.434a12.412,12.412,0,0,0-.029-1.826,3.643,3.643,0,0,0-3.724-3.249c-1.145-.015-2.29.013-3.435,0-.655-.006-1.028-.352-1.029-.9s.38-.9,1.02-.914c.055,0,.111,0,.166,0H12.03" transform="translate(-6.529 -96.425)" fill="#a9b0ba"/><path d="M129.4,225.667a2.732,2.732,0,1,1-2.741-2.73,2.7,2.7,0,0,1,2.741,2.73" transform="translate(-96.461 -173.51)" fill="#959da7"/><path d="M92.66,181.569c2.912,0,5.754-.008,8.6,0a1.224,1.224,0,0,1,1.071,1.715c-.075.164-.205.129-.325.129q-4.125,0-8.25,0c-.147,0-.282.009-.358-.176-.223-.54-.467-1.072-.732-1.674" transform="translate(-72.117 -141.312)" fill="#c6cad0"/><path d="M85.167,125.087a5.712,5.712,0,0,1,3.727,4.525c.117.666.106.668-.552.668-.774,0-1.548-.023-2.321.009-.4.017-.548-.079-.529-.51.037-.846.008-1.694.012-2.542a4.962,4.962,0,0,0-.338-2.15" transform="translate(-66.285 -97.354)" fill="#efd17b"/><path d="M119.592,159.181a1.661,1.661,0,0,1,.726-1.74,1.754,1.754,0,0,1,2.082-.311,1.878,1.878,0,0,1,.791,2.171,1.684,1.684,0,0,1-1.621,1.264c-.534.02-1.07-.008-1.6.012-.287.011-.4-.082-.38-.374s0-.59,0-1.023" transform="translate(-93.042 -122.124)" fill="#e7ceb4"/><path d="M86.5,232.9a5.283,5.283,0,0,0,.7-.918,1.623,1.623,0,0,1,1.859-.938c1.194.066,2.394.026,3.592.011.317,0,.427.072.362.406a1.882,1.882,0,0,0-.023.821c.162.6-.106.636-.6.629-1.93-.026-3.861-.011-5.885-.011" transform="translate(-67.322 -179.816)" fill="#c6cad0"/><path d="M33.383,166.942H25.139a8.571,8.571,0,0,1,3.434-1.6,8.724,8.724,0,0,1,3.188-.139.7.7,0,0,1,.6.4,6.393,6.393,0,0,0,1.018,1.343" transform="translate(-19.566 -128.509)" fill="#c6cad0"/><path d="M43.181,201.781a1.8,1.8,0,0,1-1.79-1.848,1.821,1.821,0,0,1,1.846-1.8,1.857,1.857,0,0,1,1.806,1.861,1.828,1.828,0,0,1-1.863,1.791" transform="translate(-32.215 -154.202)" fill="#c9cdd4"/><path d="M159.378,231.132c.793,0,1.587.009,2.38-.005.276,0,.381.065.393.366.046,1.169-.237,1.478-1.422,1.478-1.236,0-2.472-.008-3.708.005-.328,0-.52-.014-.4-.438a2.048,2.048,0,0,0-.009-1.043c-.085-.331.06-.371.334-.368.812.011,1.624,0,2.435,0" transform="translate(-121.868 -179.885)" fill="#c6cad0"/><path d="M146.817,214.556h1.548a2.546,2.546,0,0,1,2.255,1.505c.119.283.048.353-.238.351q-1.907-.012-3.813,0a.51.51,0,0,1-.427-.2,4.378,4.378,0,0,0-1.411-1.134c-.167-.082-.28-.19-.223-.385s.239-.135.374-.137c.645-.006,1.289,0,1.934,0" transform="translate(-112.458 -166.983)" fill="#a3764b"/><path d="M119.768,65.5c0-.719.006-1.438,0-2.156,0-.286.042-.441.365-.254a2.716,2.716,0,0,1,0,4.806c-.305.177-.376.068-.37-.24.011-.719,0-1.438,0-2.156" transform="translate(-93.211 -49.036)" fill="#e7ceb4"/><path d="M30.8,68.026a2.626,2.626,0,0,1-1.811-2.363,2.763,2.763,0,0,1,1.484-2.582c.24-.106.331-.076.33.2-.005,1.566,0,3.132,0,4.745" transform="translate(-22.562 -49.051)" fill="#e7ceb4"/><path d="M66.3,210.474a5.459,5.459,0,0,1-.735,1.987c-.139.237-.244.276-.434.056s-.386-.393-.581-.588c-.531-.53-.542-.659-.163-1.3.065-.109.124-.168.25-.157.073.006.147,0,.22,0H66.3" transform="translate(-49.909 -163.809)" fill="#eef0f1"/><path d="M35.209,182.963a5.263,5.263,0,0,1,2.279-.97c0,.582.018,1.138-.007,1.692-.013.291-.886.6-1.1.4-.39-.358-.764-.735-1.167-1.124" transform="translate(-27.403 -141.644)" fill="#eef0f1"/><path d="M55.967,183.124a8.16,8.16,0,0,0-.907.833.713.713,0,0,1-1.026.2c-.3-.146-.414-.284-.392-.6.025-.367.014-.738,0-1.107-.007-.247.058-.317.321-.252a5.5,5.5,0,0,1,2,.926" transform="translate(-41.747 -141.786)" fill="#eef0f1"/><path d="M65.444,191.911a5.228,5.228,0,0,1,.985,2.31c-.585,0-1.142.02-1.7-.008-.286-.014-.588-.9-.393-1.113.354-.4.721-.778,1.1-1.19" transform="translate(-50.027 -149.363)" fill="#eef0f1"/><path d="M53.572,222.078A.8.8,0,0,1,54.251,221c.2-.044.329-.07.477.086.277.293.558.585.857.856.222.2.225.32-.05.476a7.563,7.563,0,0,1-1.406.614c-.388.126-.644.108-.56-.409a4.024,4.024,0,0,0,0-.544" transform="translate(-41.671 -171.976)" fill="#eef0f1"/><path d="M26.284,194.858c-1.043,0-1.043,0-.674-1,.521-1.408.55-1.426,1.45-.481.2.209.609.3.428.821a.819.819,0,0,1-1.038.658,1.027,1.027,0,0,0-.165,0" transform="translate(-19.758 -149.999)" fill="#eef0f1"/><path d="M38.025,222.172c0,1.058,0,1.058-1.018.676-1.391-.522-1.4-.531-.439-1.463.215-.209.328-.585.84-.389a.8.8,0,0,1,.618,1.011,1.037,1.037,0,0,0,0,.166" transform="translate(-27.939 -171.956)" fill="#eef0f1"/><path d="M26.3,210.466c.147,0,.3,0,.443,0,.257,0,.505-.048.582.327.067.327.438.635-.036.947a2.778,2.778,0,0,0-.394.386c-.672.671-.673.672-1.083-.177-.072-.149-.135-.3-.194-.456-.388-1.026-.388-1.027.682-1.027" transform="translate(-19.758 -163.801)" fill="#eef0f1"/><path d="M62.437,82.456c1.383,0,2.765.012,4.147-.009.342,0,.424.088.429.428a4.651,4.651,0,0,1-3.375,4.905,4.556,4.556,0,0,1-5.759-4.24c-.041-1.085-.041-1.085,1.019-1.085h3.539m-2.508,1.839a2.578,2.578,0,0,0,2.355,1.817A2.791,2.791,0,0,0,64.9,84.578c.131-.334-.08-.281-.258-.281-1.55,0-3.1,0-4.712,0" transform="translate(-45.037 -64.168)" fill="#030303"/><path d="M54.048,64.637a.823.823,0,0,1-.974-.515.838.838,0,0,0-1.507.141.516.516,0,0,1-.607.378c-.313-.015-.629-.016-.942,0s-.428-.058-.371-.4a2.752,2.752,0,0,1,5.407-.161c.092.426.035.637-.451.565a4.568,4.568,0,0,0-.555,0" transform="translate(-38.63 -48.186)" fill="#030303"/><path d="M83.522,64.608c-1.1,0-1.183-.146-.687-1.176a2.744,2.744,0,0,1,2.929-1.524,2.781,2.781,0,0,1,2.256,2.29c.057.339-.038.433-.356.413a6.332,6.332,0,0,0-.831,0,.621.621,0,0,1-.751-.417.869.869,0,0,0-1.505-.122c-.4.536-.4.536-1.054.536" transform="translate(-64.244 -48.156)" fill="#030303"/><path d="M67.168,90.775c1.612,0,3.162,0,4.712,0,.178,0,.389-.053.258.281a2.791,2.791,0,0,1-2.615,1.535,2.578,2.578,0,0,1-2.355-1.817" transform="translate(-52.276 -70.649)" fill="#ea8572"/></g></g></g></svg>