<svg xmlns="http://www.w3.org/2000/svg" xmlns:xlink="http://www.w3.org/1999/xlink" width="85" height="85" viewBox="0 0 85 85"><defs><clipPath id="a"><rect width="73.544" height="73.51" fill="none"/></clipPath></defs><g transform="translate(-1347 -8917.851)"><g transform="translate(12 2328.851)"><rect width="85" height="85" transform="translate(1335 6589)" fill="none"/><g transform="translate(1340.728 6594.745)"><g clip-path="url(#a)"><path d="M11.986,30.81A8.3,8.3,0,0,1,9.665,26.4c-.056-.325-.241-.3-.463-.326a4.65,4.65,0,0,1-4.308-3.829,1.463,1.463,0,0,0-.437-.663,7.007,7.007,0,0,1-.023-9.918,1.106,1.106,0,0,0,.342-.838,8.276,8.276,0,0,1,9.008-8.416,1.157,1.157,0,0,0,.92-.323,8.211,8.211,0,0,1,10.942.006,1.2,1.2,0,0,0,.987.32,8.278,8.278,0,0,1,8.934,8.113,1.649,1.649,0,0,0,.545,1.352,6.231,6.231,0,0,1,1.054,1.482,4.631,4.631,0,0,0,.5-1.376C39.275,6.889,42.615,3.569,47.9,2.644a21.944,21.944,0,0,1,9.981.317,12.141,12.141,0,0,1,8,6.953,47.112,47.112,0,0,1,2.761,8.792,6.5,6.5,0,0,1-1.609,6.05,1.681,1.681,0,0,0,.07,2.706A5.019,5.019,0,0,1,68.679,30.4c.045.333.175.451.522.434a5.189,5.189,0,0,1,1.762.136,3.459,3.459,0,0,1,2.525,3.138,73.283,73.283,0,0,1-.1,7.919c-.03.293-.077.586-.133.876a6.368,6.368,0,0,0,.055,3.407,4.583,4.583,0,0,1-4.084,5.824c-.409.044-.557.13-.652.562a8.07,8.07,0,0,1-3.71,5.3c-.365.229-.394.439-.329.834a2.975,2.975,0,0,0,1.986,2.535,12.092,12.092,0,0,1,7.007,11.708c-.02.38-.149.467-.477.428a3.146,3.146,0,0,0-.37,0q-35.927,0-71.854.012c-.59,0-.829-.057-.826-.765.033-6.094,3.624-10.529,9.638-11.826.265-.057.528-.128.8-.163.334-.044.464-.21.588-.54.447-1.193.5-2.063-.83-2.9a6.838,6.838,0,0,1-2.836-4.528c-.1-.441-.215-.614-.719-.67a4.7,4.7,0,0,1-3.77-6.7,1.128,1.128,0,0,0,.086-.9,10.344,10.344,0,0,1,8.565-13.6c.12-.013.237-.052.47-.1m37.392,1.937a11.78,11.78,0,0,1-6.181-7.22,20.769,20.769,0,0,1-.5-6.244,7.05,7.05,0,0,1,4.777-7.013c.338-.134.5-.253.3-.625a2.262,2.262,0,0,1-.163-.567c-.363-1.591-.362-1.591,1.262-1.591a2.168,2.168,0,0,0,.37,0c.449-.078.543.114.6.55a4.719,4.719,0,0,0,4.834,4.193c1.111.007,2.222-.007,3.333,0a3.55,3.55,0,0,1,3.643,3.655q.017,2.073,0,4.148a11.975,11.975,0,0,1-3.272,8.258c-.135.147-.373.237-.362.532,2.628,0,5.241-.01,7.854.009.465,0,.482-.181.361-.526a3.924,3.924,0,0,0-1.01-1.35,3.965,3.965,0,0,1-.114-5.607,4.788,4.788,0,0,0,1.068-4.879c-.577-2.063-1.211-4.111-1.885-6.144a10.426,10.426,0,0,0-8.131-7.367,27.283,27.283,0,0,0-6.056-.2,10.493,10.493,0,0,0-9.9,7.133q-1.132,3.319-2.071,6.7a4.561,4.561,0,0,0,.849,4.456c1.858,2.129,1.8,4.182-.165,6.209a2.779,2.779,0,0,0-.743,1.172c-.082.286-.017.384.3.4a19.275,19.275,0,0,1,2.058.217,14.116,14.116,0,0,1,6.625,3.087c.167.137.328.526.638.161a13.6,13.6,0,0,1,1.678-1.557M28.465,20.628h0c0-1.481,0-2.963,0-4.444a4.866,4.866,0,0,0-.749-2.519c-.2-.341-.358-.438-.716-.145a3.33,3.33,0,0,1-2.207.711c-1.086-.009-2.173-.007-3.259,0a7.034,7.034,0,0,1-4.876-1.8.862.862,0,0,0-.794-.246,4.728,4.728,0,0,0-3.981,4.58c-.03,2.765-.035,5.531,0,8.3a5.731,5.731,0,0,0,4.774,5.612,24.229,24.229,0,0,0,7.008,0,5.747,5.747,0,0,0,4.79-5.6c.033-1.481.006-2.963.006-4.444m-11.837,50.5c4.493,0,8.986-.008,13.478.01.523,0,.689-.107.56-.655a9.636,9.636,0,0,0-2.332-4.466,10.124,10.124,0,0,0-5.627-2.881,3.667,3.667,0,0,0-2.211.148,9.954,9.954,0,0,1-7.3.143,5.394,5.394,0,0,0-3.355-.137A9.117,9.117,0,0,0,2.62,70.3c-.21.825-.2.829.678.829h13.33M49.806,51.184q0-3.111,0-6.221a11.116,11.116,0,0,0-.417-2.993,11.769,11.769,0,0,0-10.52-8.733,11.533,11.533,0,0,0-8.685,2.879.7.7,0,0,0-.2,1.01,6.3,6.3,0,0,1,.593,1.822c.082.46.038,1.037.3,1.347.326.383.9-.01,1.378-.006,3.8.032,7.6.015,11.405.019a3.546,3.546,0,0,1,3.775,3.747q.01,3.407,0,6.814A7.64,7.64,0,0,1,44.278,57.4a1.919,1.919,0,0,0-.8,2.6,1.267,1.267,0,0,0,.878.943,8.772,8.772,0,0,1,2.716,1.482c.422.339.661.249.963-.118A7.379,7.379,0,0,0,49.8,57.627c.031-2.147.007-4.3.009-6.443m2.373-3.569c0,1.135-.014,2.27,0,3.4a5.9,5.9,0,0,0,4.874,5.773,17.578,17.578,0,0,0,3.469.1,5.9,5.9,0,0,0,5.872-5.9c.025-2.294.01-4.588,0-6.882,0-1.007-.431-1.425-1.451-1.43q-2.22-.01-4.44,0A9.23,9.23,0,0,1,54.717,40.8a.626.626,0,0,0-.9.014,3.988,3.988,0,0,0-1.63,3.172c-.024,1.208-.005,2.417-.007,3.626M9.508,47.562c0,1.184-.02,2.369,0,3.552a5.9,5.9,0,0,0,4.818,5.67,17.564,17.564,0,0,0,3.542.107,5.9,5.9,0,0,0,5.849-5.848c.031-2.318.012-4.637.005-6.956,0-.968-.436-1.4-1.4-1.407-1.48-.009-2.96-.012-4.44,0a9.287,9.287,0,0,1-5.862-1.889.593.593,0,0,0-.841,0A3.993,3.993,0,0,0,9.512,44.01c-.022,1.183,0,2.368,0,3.552m28.445-4.884c-1.9,0-3.8-.006-5.7,0-.969,0-1.4.434-1.407,1.4-.007,2.344-.027,4.689.007,7.033a5.884,5.884,0,0,0,4.816,5.674,17.419,17.419,0,0,0,3.4.109,5.91,5.91,0,0,0,6-6.006c.016-2.246.007-4.491,0-6.737,0-1.057-.42-1.469-1.485-1.472-1.876,0-3.751,0-5.627,0M59.29,20.3c0-.765.007-1.529,0-2.294-.011-.966-.439-1.4-1.4-1.405-1.06-.009-2.121,0-3.181,0a7,7,0,0,1-5.081-2.013.813.813,0,0,0-.845-.242,4.736,4.736,0,0,0-3.7,4.422q-.051,1.737,0,3.477A9.439,9.439,0,0,0,48.6,29.518a5.642,5.642,0,0,0,7.162-.009,9.648,9.648,0,0,0,3.09-4.594A14.388,14.388,0,0,0,59.29,20.3M16.622,33.195c-.222,0-.444-.008-.666,0a24.058,24.058,0,0,0-5.228.272A7.973,7.973,0,0,0,4.9,42.591c.084.456.22.577.668.389a3.239,3.239,0,0,1,1.142-.27c.452-.011.615-.187.753-.6a6.34,6.34,0,0,1,4.109-4.15.888.888,0,0,1,1.092.252,6.855,6.855,0,0,0,5.12,2.1c1.579,0,3.159,0,4.738,0A2.77,2.77,0,0,1,25,41.393a3.494,3.494,0,0,0,2.645,1.594c.433.085.59.095.68-.382a7.967,7.967,0,0,0-6.536-9.281,47.037,47.037,0,0,0-5.171-.129m54.521,4.549c0-1.061.011-2.123,0-3.183A1.208,1.208,0,0,0,69.766,33.2c-4.886-.006-9.773-.038-14.658.017a7.657,7.657,0,0,0-5.562,2.559.644.644,0,0,0-.068,1,10.713,10.713,0,0,1,1.5,2.626c.189.461.321.591.717.156a6.269,6.269,0,0,1,2.542-1.6.88.88,0,0,1,1.1.235,6.875,6.875,0,0,0,5.19,2.111c1.555-.008,3.109,0,4.664,0a2.8,2.8,0,0,1,2.487,1.075,3.494,3.494,0,0,0,2.641,1.6c.419.074.52.05.6-.365a27.087,27.087,0,0,0,.232-4.87M5.411,18.875c1.282-1.475,2.006-2.036,3.331-2.189.69-.079.81-.387.9-.947a6.838,6.838,0,0,1,4.031-5.3c.352-.17.888-.2,1.049-.467.2-.325-.178-.767-.276-1.166-.417-1.693-.423-1.692,1.314-1.69a1.676,1.676,0,0,0,.222,0c.444-.059.605.086.683.577a4.631,4.631,0,0,0,4.126,4.115,35.065,35.065,0,0,0,3.772.048c1,0,1.546-.441,1.529-1.206-.016-.739-.554-1.207-1.5-1.144-.727.049-.909-.18-.886-.892.054-1.689.022-1.724,1.665-1.453.583.1.625,0,.462-.517A5.728,5.728,0,0,0,21.62,2.569a5.55,5.55,0,0,0-5.73,1.687,1.673,1.673,0,0,1-1.867.612A5.867,5.867,0,0,0,7.188,11.26a1.545,1.545,0,0,1-.669,1.72,4.53,4.53,0,0,0-1.108,5.9M41.454,71.126c2.54,0,5.08-.017,7.62.013.559.007.672-.159.557-.668a9.93,9.93,0,0,0-5.594-7.106c-.489-.237-.63-.136-.795.36a3.559,3.559,0,0,1-3.719,2.659c-1.159,0-2.319.031-3.477-.009a3.446,3.446,0,0,1-3.163-2.067c-.585-1.206-.574-1.212-1.8-.521-.107.06-.208.136-.32.185-.553.24-.641.49-.2,1a10.313,10.313,0,0,1,2.453,5.37c.1.706.363.8.967.8,2.49-.028,4.981-.012,7.472-.012m20.149,0c2.963,0,5.925-.012,8.887.012.494,0,.588-.145.5-.588a10.1,10.1,0,0,0-3-5.41c-.32-.306-.479-.261-.728.083-.854,1.179-1.762,2.318-2.6,3.505-.3.417-.477.472-.895.143-1.319-1.037-2.687-2.01-4.01-3.041a.634.634,0,0,0-.939.007c-1.306,1.014-2.65,1.977-3.954,2.992-.4.313-.613.383-.952-.11-.8-1.158-1.664-2.267-2.529-3.376-.137-.176-.2-.684-.628-.336-.326.267-.726.472-.347,1.061a10.448,10.448,0,0,1,1.619,4.556c.056.511.317.506.691.505,2.962-.008,5.925,0,8.887,0m-25.9-49.449a3.553,3.553,0,0,0-.229.475,4.644,4.644,0,0,1-4.385,3.909c-.331.047-.369.187-.425.456a8.28,8.28,0,0,1-2.481,4.439,10.024,10.024,0,0,1-2.156,1.48,10.655,10.655,0,0,1,2.126,1.832c.252.3.4.117.582-.039a14.112,14.112,0,0,1,6.446-3.1c.2-.039.4-.038.416-.314a5.645,5.645,0,0,1,1.914-3.636,1.388,1.388,0,0,0,.2-1.9,9.317,9.317,0,0,1-2-3.6M34.9,18.9a4.51,4.51,0,0,0-1.208-6.036,1.245,1.245,0,0,1-.552-1.414,5.889,5.889,0,0,0-4.607-6.543c-.674-.117-.768-.023-.554.605a8.45,8.45,0,0,1,.4,4.005,1.878,1.878,0,0,0,.321,1.6,7.315,7.315,0,0,1,2.141,5.048c.005.2-.023.407.271.431A4.882,4.882,0,0,1,34.9,18.9M28.422,51.564a5.794,5.794,0,0,1-1.854.569c-.4.03-.478.193-.474.55.017,1.749-.032,3.5.028,5.246a7.138,7.138,0,0,0,1.738,4.379c.3.359.541.48.961.128a5.019,5.019,0,0,1,1.9-1.116,2.472,2.472,0,0,0,1.963-2.372c.07-.493.026-.742-.4-1.013a7.941,7.941,0,0,1-3.435-4.556c-.175-.583-.28-1.186-.425-1.815m9.5,12.45c.566,0,1.132-.011,1.7,0,.715.017,1.065-.366,1.386-.982.654-1.257.2-2.429-.084-3.635-.079-.329-.287-.286-.5-.247a31.094,31.094,0,0,1-3.9.125c-.488.026-1.086-.384-1.4-.037s-.247.979-.438,1.451c-.413,1.017.084,1.87.444,2.739a1.038,1.038,0,0,0,1.035.582H37.92m18.893-4.84c-.19-.037-.358-.091-.481.169-.57,1.213-.428,1.655.776,2.257a.8.8,0,0,1,.134.061,3.217,3.217,0,0,0,4.128.023c1.312-.84,1.366-.724.906-2.211-.1-.329-.245-.364-.524-.325a24.11,24.11,0,0,1-4.94.025M16.636,61.626c.22-.014.493-.017.761-.052.39-.051.781-.1,1.164-.192,1.472-.336,1.454-.337,1.065-1.8-.095-.356-.2-.5-.583-.432a21.677,21.677,0,0,1-4.132.1c-1.259-.02-1.238-.055-1.537,1.2-.108.453.054.61.448.728a11.2,11.2,0,0,0,2.814.451m14.2-40.321c0,.665.02,1.331-.008,1.994-.017.4.148.441.481.372a2.382,2.382,0,0,0,0-4.666c-.339-.068-.494-.016-.477.379.028.639.008,1.28.008,1.92M68.772,47.389c0,.665.021,1.33-.008,1.994-.017.411.16.433.486.365a2.382,2.382,0,0,0-.014-4.666c-.347-.068-.488,0-.472.386.027.639.007,1.28.007,1.921M26.1,47.372c0,.665.019,1.33-.007,1.994-.015.382.118.458.47.388a2.385,2.385,0,0,0,.019-4.669c-.417-.09-.5.056-.488.44.027.615.007,1.231.007,1.847m-18.964.084c0-.665-.02-1.331.008-1.995.017-.4-.144-.444-.479-.376a2.383,2.383,0,0,0,0,4.666c.336.068.5.025.48-.374-.028-.639-.008-1.281-.008-1.921M9.505,21.314c0-.64-.02-1.282.007-1.921.016-.382-.119-.458-.47-.39a2.385,2.385,0,0,0-.021,4.669c.416.091.506-.052.49-.438-.026-.639-.007-1.281-.007-1.921M51.236,61.675c.781-.335,1.445-.628,2.116-.9a.427.427,0,0,0,.278-.31c.157-.618.307-1.237.464-1.855a.384.384,0,0,0-.189-.5,10.014,10.014,0,0,1-1.721-1.292,10.61,10.61,0,0,1-.949,4.856M24.4,61.1a11.085,11.085,0,0,1-.677-4.22c-.611.446-1.113.842-1.648,1.189a.477.477,0,0,0-.256.6c.149.546.3,1.094.417,1.647a.493.493,0,0,0,.442.421c.527.108,1.054.221,1.722.361m32.633,3.124a14.547,14.547,0,0,1-1.785-.926,1.735,1.735,0,0,0-1.924.031c-.263.119-.322.232-.126.48.455.577.894,1.167,1.323,1.764.176.245.323.313.588.1.593-.471,1.208-.915,1.924-1.452m4.507,0c.717.537,1.332.988,1.934,1.456.219.17.368.181.542-.059.448-.619.914-1.225,1.37-1.839.082-.11.231-.267.017-.352-.487-.2-.947-.63-1.517-.377-.762.339-1.495.742-2.347,1.172" transform="translate(0 0)" fill="#020202"/><path d="M139.35,43.881a13.646,13.646,0,0,0-1.678,1.557c-.31.365-.471-.024-.638-.161a14.115,14.115,0,0,0-6.625-3.087,19.43,19.43,0,0,0-2.058-.217c-.315-.02-.379-.118-.3-.4A2.78,2.78,0,0,1,128.8,40.4c1.97-2.027,2.024-4.079.165-6.208a4.562,4.562,0,0,1-.849-4.456q.932-3.381,2.071-6.7a10.492,10.492,0,0,1,9.9-7.133,27.284,27.284,0,0,1,6.056.2,10.426,10.426,0,0,1,8.131,7.367c.674,2.033,1.309,4.081,1.886,6.143a4.788,4.788,0,0,1-1.068,4.879,3.965,3.965,0,0,0,.114,5.607,3.927,3.927,0,0,1,1.01,1.35c.121.346.1.529-.361.526-2.613-.019-5.226-.009-7.854-.009-.011-.3.227-.385.361-.532a11.976,11.976,0,0,0,3.272-8.258q.015-2.074,0-4.148a3.55,3.55,0,0,0-3.643-3.655c-1.111-.01-2.222,0-3.333,0a4.718,4.718,0,0,1-4.834-4.193c-.059-.436-.153-.628-.6-.55a2.2,2.2,0,0,1-.37,0c-1.624,0-1.625,0-1.262,1.591a2.278,2.278,0,0,0,.163.567c.2.372.034.491-.3.625a7.051,7.051,0,0,0-4.778,7.013,20.788,20.788,0,0,0,.5,6.244,11.782,11.782,0,0,0,6.181,7.22" transform="translate(-89.972 -11.134)" fill="#f3d57e"/><path d="M56.616,49.5c0,1.481.027,2.963-.006,4.444a5.747,5.747,0,0,1-4.79,5.6,24.24,24.24,0,0,1-7.008,0,5.731,5.731,0,0,1-4.774-5.612c-.038-2.765-.032-5.53,0-8.3a4.729,4.729,0,0,1,3.981-4.58.863.863,0,0,1,.794.246,7.035,7.035,0,0,0,4.876,1.8c1.086-.005,2.173-.008,3.259,0a3.331,3.331,0,0,0,2.207-.711c.358-.293.512-.2.716.145a4.866,4.866,0,0,1,.749,2.519c0,1.481,0,2.963,0,4.444Zm-8.291.713c-1.8,0-3.6,0-5.4.006-.207,0-.5-.141-.535.286a5.988,5.988,0,1,0,11.872.077c-.041-.444-.281-.368-.539-.368q-2.7,0-5.4,0m-3.56-3.522a1.184,1.184,0,1,0-1.2,1.15,1.194,1.194,0,0,0,1.2-1.15m9.483.023a1.185,1.185,0,1,0-1.224,1.126,1.2,1.2,0,0,0,1.224-1.126" transform="translate(-28.15 -28.874)" fill="#e9cfb5"/><path d="M22.581,220.725H9.251c-.874,0-.888,0-.678-.829a9.116,9.116,0,0,1,7.221-7.008,5.394,5.394,0,0,1,3.355.137,9.956,9.956,0,0,0,7.3-.143,3.667,3.667,0,0,1,2.211-.148,10.126,10.126,0,0,1,5.627,2.881,9.637,9.637,0,0,1,2.332,4.466c.129.548-.037.657-.56.655-4.493-.017-8.985-.01-13.478-.01" transform="translate(-5.953 -149.598)" fill="#f4d67e"/><path d="M120.653,129.961c0,2.148.023,4.3-.008,6.443a7.377,7.377,0,0,1-1.758,4.686c-.3.367-.541.457-.963.118a8.779,8.779,0,0,0-2.716-1.482,1.267,1.267,0,0,1-.878-.943,1.92,1.92,0,0,1,.8-2.6,7.641,7.641,0,0,0,3.158-6.536q.012-3.407,0-6.814a3.546,3.546,0,0,0-3.775-3.747c-3.8,0-7.6.013-11.406-.019-.474,0-1.052.389-1.378.006-.264-.31-.221-.887-.3-1.347a6.3,6.3,0,0,0-.593-1.822.7.7,0,0,1,.2-1.01,11.532,11.532,0,0,1,8.685-2.879,11.769,11.769,0,0,1,10.521,8.733,11.116,11.116,0,0,1,.416,2.993q0,3.111,0,6.221" transform="translate(-70.848 -78.777)" fill="#656c76"/><path d="M176.006,144.016c0-1.209-.018-2.417.006-3.626a3.989,3.989,0,0,1,1.63-3.172.626.626,0,0,1,.9-.014,9.227,9.227,0,0,0,5.792,1.877q2.22-.012,4.44,0c1.019,0,1.448.422,1.45,1.429.007,2.294.022,4.588,0,6.882a5.9,5.9,0,0,1-5.872,5.9,17.6,17.6,0,0,1-3.469-.1,5.9,5.9,0,0,1-4.874-5.774c-.017-1.134,0-2.269,0-3.4m7.042,6.929a5.032,5.032,0,0,0,4.15-2.113c.637-.872.629-.877-.352-1.369a4.807,4.807,0,0,1-.591-.3c-.418-.289-.652-.266-.968.225a2.631,2.631,0,0,1-4.05.413c-.286-.273-.3-.9-.8-.826a4.092,4.092,0,0,0-1.125.535,2.784,2.784,0,0,1-.4.187c-.408.127-.37.349-.188.656a5.038,5.038,0,0,0,4.327,2.594m-2.3-8.321a1.184,1.184,0,1,0-1.155,1.195,1.191,1.191,0,0,0,1.155-1.195m5.956-1.173a1.185,1.185,0,1,0,1.156,1.193,1.189,1.189,0,0,0-1.156-1.193" transform="translate(-123.826 -96.401)" fill="#e9cfb5"/><path d="M32.054,143.953c0-1.184-.018-2.368,0-3.552a3.994,3.994,0,0,1,1.674-3.224.592.592,0,0,1,.841,0,9.288,9.288,0,0,0,5.862,1.889c1.48-.012,2.96-.009,4.44,0,.962.006,1.395.44,1.4,1.408.007,2.319.025,4.637-.005,6.956a5.9,5.9,0,0,1-5.849,5.848,17.563,17.563,0,0,1-3.542-.107,5.9,5.9,0,0,1-4.818-5.67c-.024-1.183,0-2.368,0-3.552m7.074,6.981a5.049,5.049,0,0,0,3.973-1.922c.83-1.039.824-1.047-.323-1.624a4.184,4.184,0,0,1-.526-.266c-.409-.285-.624-.194-.906.24a2.632,2.632,0,0,1-4.1.382c-.261-.264-.293-.836-.749-.787a3.556,3.556,0,0,0-1.06.5,2.75,2.75,0,0,1-.4.2c-.444.135-.491.34-.246.741a5.046,5.046,0,0,0,4.333,2.544m3.614-9.494a1.185,1.185,0,1,0,1.16,1.189,1.189,1.189,0,0,0-1.16-1.189m-5.952,1.185a1.184,1.184,0,1,0-1.168,1.183,1.191,1.191,0,0,0,1.168-1.183" transform="translate(-22.547 -96.391)" fill="#e9cfb5"/><path d="M111.128,143.963c1.876,0,3.751,0,5.627,0,1.065,0,1.482.415,1.485,1.472.005,2.246.015,4.492,0,6.738a5.91,5.91,0,0,1-6,6.006,17.394,17.394,0,0,1-3.4-.109,5.884,5.884,0,0,1-4.816-5.674c-.034-2.344-.015-4.689-.007-7.033,0-.964.438-1.393,1.408-1.4,1.9-.008,3.8,0,5.7,0m-.011,11.866a5.031,5.031,0,0,0,3.992-1.978c.772-.995.767-1-.362-1.567a4.321,4.321,0,0,1-.526-.266c-.406-.28-.623-.205-.908.235a2.63,2.63,0,0,1-4.1.387c-.262-.264-.3-.835-.749-.79a3.5,3.5,0,0,0-1.061.5,1.753,1.753,0,0,1-.329.165c-.635.156-.5.49-.24.9a5.036,5.036,0,0,0,4.28,2.421m4.752-8.3a1.184,1.184,0,1,0-1.178,1.172,1.191,1.191,0,0,0,1.178-1.172m-8.272-1.2a1.185,1.185,0,1,0,1.16,1.189,1.188,1.188,0,0,0-1.16-1.189" transform="translate(-73.175 -101.286)" fill="#e9cfb5"/><path d="M166.21,54.272a14.38,14.38,0,0,1-.433,4.615,9.648,9.648,0,0,1-3.09,4.594,5.641,5.641,0,0,1-7.162.009,9.438,9.438,0,0,1-3.532-7.275q-.05-1.737,0-3.477a4.736,4.736,0,0,1,3.7-4.422.813.813,0,0,1,.845.242,7,7,0,0,0,5.081,2.013c1.061,0,2.121-.007,3.182,0,.962.009,1.389.44,1.4,1.405.009.765,0,1.529,0,2.294m-7.145,8.165a5.04,5.04,0,0,0,3.917-1.859c.889-1.083.883-1.105-.328-1.714a3.779,3.779,0,0,1-.459-.234c-.4-.276-.621-.221-.91.227a2.627,2.627,0,0,1-4.1.4c-.263-.265-.3-.832-.748-.794a3.4,3.4,0,0,0-1.061.493,2.386,2.386,0,0,1-.4.2c-.535.148-.444.431-.217.8a5.018,5.018,0,0,0,4.3,2.491m3.608-7.126a1.184,1.184,0,1,0-1.2-1.147,1.195,1.195,0,0,0,1.2,1.147m-7.137,0a1.184,1.184,0,1,0-1.178-1.171,1.2,1.2,0,0,0,1.178,1.171" transform="translate(-106.919 -33.972)" fill="#e8ceb5"/><path d="M27.947,111.954a47.1,47.1,0,0,1,5.171.129,7.967,7.967,0,0,1,6.536,9.281c-.09.477-.248.467-.68.382a3.5,3.5,0,0,1-2.645-1.594,2.771,2.771,0,0,0-2.48-1.085c-1.579-.005-3.158,0-4.737,0a6.854,6.854,0,0,1-5.12-2.1.888.888,0,0,0-1.092-.252,6.339,6.339,0,0,0-4.109,4.149c-.137.417-.3.593-.753.6a3.242,3.242,0,0,0-1.143.27c-.449.188-.584.067-.668-.389a7.974,7.974,0,0,1,5.826-9.122,24.075,24.075,0,0,1,5.228-.272c.222-.009.444,0,.666,0" transform="translate(-11.325 -78.758)" fill="#a87a4d"/><path d="M188.075,116.5a27.174,27.174,0,0,1-.232,4.87c-.08.415-.181.439-.6.365a3.494,3.494,0,0,1-2.641-1.6,2.8,2.8,0,0,0-2.486-1.075c-1.555,0-3.11-.008-4.664,0a6.877,6.877,0,0,1-5.189-2.111.881.881,0,0,0-1.1-.236,6.268,6.268,0,0,0-2.542,1.6c-.4.435-.528.3-.717-.156a10.7,10.7,0,0,0-1.5-2.627.644.644,0,0,1,.068-1,7.657,7.657,0,0,1,5.562-2.559c4.885-.055,9.772-.023,14.658-.017a1.207,1.207,0,0,1,1.373,1.362c.015,1.061,0,2.122,0,3.183" transform="translate(-116.931 -78.758)" fill="#a87a4d"/><path d="M16.757,24.476a4.529,4.529,0,0,1,1.108-5.9,1.546,1.546,0,0,0,.669-1.72,5.867,5.867,0,0,1,6.836-6.392,1.673,1.673,0,0,0,1.867-.612A5.55,5.55,0,0,1,32.966,8.17a5.73,5.73,0,0,1,4.217,4.073c.163.516.12.613-.462.517-1.643-.271-1.61-.236-1.665,1.453-.023.713.16.941.887.892.942-.063,1.48.406,1.5,1.144.017.766-.533,1.207-1.529,1.206a35.07,35.07,0,0,1-3.772-.048,4.631,4.631,0,0,1-4.126-4.115c-.078-.492-.239-.636-.683-.577a1.681,1.681,0,0,1-.222,0c-1.737,0-1.731,0-1.314,1.69.1.4.471.84.276,1.166-.161.268-.7.3-1.049.467a6.839,6.839,0,0,0-4.032,5.3c-.09.56-.21.868-.9.948-1.324.153-2.049.714-3.331,2.189" transform="translate(-11.346 -5.601)" fill="#656c76"/><path d="M113.321,221.229c-2.491,0-4.982-.016-7.472.012-.6.007-.866-.09-.967-.8a10.318,10.318,0,0,0-2.453-5.37c-.443-.51-.355-.759.2-1,.112-.049.212-.125.319-.185,1.229-.691,1.218-.686,1.8.521a3.447,3.447,0,0,0,3.164,2.067c1.158.04,2.318.012,3.477.009a3.559,3.559,0,0,0,3.72-2.659c.165-.5.306-.6.795-.36a9.93,9.93,0,0,1,5.594,7.106c.115.509,0,.674-.556.668-2.54-.031-5.08-.013-7.62-.013" transform="translate(-71.866 -150.102)" fill="#ed8773"/><path d="M180.87,225.134c-2.962,0-5.925,0-8.887,0-.375,0-.636.006-.691-.505a10.448,10.448,0,0,0-1.619-4.556c-.379-.589.02-.795.347-1.061.425-.348.491.159.628.336.864,1.109,1.732,2.219,2.529,3.376.339.493.55.423.952.11,1.3-1.015,2.649-1.978,3.954-2.992a.634.634,0,0,1,.939-.007c1.322,1.032,2.691,2.005,4.009,3.041.418.329.6.273.895-.143.842-1.187,1.75-2.326,2.6-3.505.249-.344.408-.389.728-.083a10.1,10.1,0,0,1,3,5.41c.09.443,0,.592-.5.588-2.962-.025-5.925-.012-8.887-.012" transform="translate(-119.266 -154.007)" fill="#7fafea"/><path d="M101.064,30.445a4.881,4.881,0,0,0-3.789-2.3c-.293-.023-.265-.235-.271-.431a7.315,7.315,0,0,0-2.141-5.048,1.878,1.878,0,0,1-.322-1.605,8.45,8.45,0,0,0-.4-4.005c-.214-.628-.119-.722.554-.605A5.89,5.89,0,0,1,99.3,22.995a1.245,1.245,0,0,0,.552,1.414,4.509,4.509,0,0,1,1.207,6.036" transform="translate(-66.163 -11.544)" fill="#656c76"/><path d="M90.346,173.944c.145.628.25,1.232.425,1.815a7.942,7.942,0,0,0,3.435,4.555c.427.271.47.52.4,1.013a2.472,2.472,0,0,1-1.962,2.372,5.023,5.023,0,0,0-1.9,1.116c-.42.352-.664.232-.961-.128a7.142,7.142,0,0,1-1.738-4.379c-.06-1.747-.011-3.5-.028-5.246,0-.357.071-.52.474-.55a5.787,5.787,0,0,0,1.854-.569" transform="translate(-61.924 -122.38)" fill="#656c76"/><path d="M119.83,204.284h-1.772a1.039,1.039,0,0,1-1.035-.582c-.36-.868-.857-1.721-.444-2.739.191-.472.132-1.116.438-1.45s.916.063,1.4.037a31.148,31.148,0,0,0,3.9-.125c.218-.039.426-.082.5.247.289,1.206.739,2.377.084,3.635-.32.616-.671,1-1.386.982-.566-.014-1.132,0-1.7,0" transform="translate(-81.91 -140.27)" fill="#e8ceb5"/><path d="M189.743,199.527a24.108,24.108,0,0,0,4.939-.025c.279-.039.422,0,.524.325.46,1.487.407,1.371-.906,2.211a3.217,3.217,0,0,1-4.128-.023.756.756,0,0,0-.134-.061c-1.2-.6-1.346-1.044-.776-2.258.122-.26.291-.206.481-.169" transform="translate(-132.93 -140.352)" fill="#e8ceb5"/><path d="M48.3,201.975a11.2,11.2,0,0,1-2.814-.451c-.393-.117-.556-.275-.448-.727.3-1.254.278-1.217,1.537-1.2a21.656,21.656,0,0,0,4.133-.1c.387-.068.489.075.583.431.388,1.464.406,1.465-1.065,1.8-.383.087-.774.141-1.164.192-.268.035-.541.038-.761.052" transform="translate(-31.662 -140.348)" fill="#e5ccb3"/><path d="M104.015,66.356c0-.64.021-1.282-.008-1.92-.017-.395.138-.447.477-.379a2.383,2.383,0,0,1,0,4.666c-.333.068-.5.03-.481-.372.028-.663.008-1.329.008-1.994" transform="translate(-73.174 -45.05)" fill="#e5ccb3"/><path d="M231.973,154.333c0-.64.02-1.281-.007-1.92-.017-.386.125-.454.472-.386a2.382,2.382,0,0,1,.014,4.666c-.326.068-.5.046-.486-.365.028-.663.008-1.329.008-1.994" transform="translate(-163.201 -106.943)" fill="#e5ccb3"/><path d="M88.02,154.316c0-.616.02-1.232-.007-1.847-.017-.384.071-.53.488-.44a2.385,2.385,0,0,1-.019,4.669c-.352.07-.485-.006-.47-.388.026-.664.007-1.33.007-1.994" transform="translate(-61.921 -106.943)" fill="#e5ccb3"/><path d="M18.441,154.4c0,.64-.021,1.282.007,1.921.018.4-.144.443-.48.374a2.383,2.383,0,0,1,0-4.666c.335-.067.5-.023.479.376-.028.664-.008,1.33-.008,1.995" transform="translate(-11.307 -106.942)" fill="#e5ccb3"/><path d="M26.439,66.362c0,.64-.019,1.282.007,1.921.016.386-.074.529-.49.438a2.385,2.385,0,0,1,.02-4.669c.35-.069.486.007.47.39-.027.639-.007,1.281-.007,1.921" transform="translate(-16.934 -45.048)" fill="#e5ccb3"/><path d="M172.839,196.527a10.61,10.61,0,0,0,.949-4.856,10.013,10.013,0,0,0,1.721,1.292.385.385,0,0,1,.189.5c-.156.618-.307,1.238-.464,1.855a.427.427,0,0,1-.278.31c-.671.275-1.336.568-2.116.9" transform="translate(-121.603 -134.852)" fill="#f4f6f7"/><path d="M76.132,196.084c-.668-.141-1.194-.253-1.722-.361a.493.493,0,0,1-.442-.421c-.118-.553-.267-1.1-.417-1.647a.477.477,0,0,1,.256-.6c.534-.347,1.037-.744,1.648-1.19a11.084,11.084,0,0,0,.677,4.22" transform="translate(-51.729 -134.988)" fill="#f4f6f7"/><path d="M183.026,213.771c-.716.537-1.331.981-1.924,1.452-.265.21-.411.142-.588-.1-.429-.6-.868-1.187-1.323-1.764-.2-.248-.137-.36.126-.48a1.735,1.735,0,0,1,1.924-.031,14.585,14.585,0,0,0,1.785.926" transform="translate(-125.99 -149.55)" fill="#6798e0"/><path d="M207.607,213.676c.852-.43,1.585-.833,2.347-1.172.57-.253,1.03.181,1.517.377.213.086.065.242-.017.352-.456.614-.922,1.22-1.37,1.839-.174.241-.324.229-.542.059-.6-.467-1.217-.918-1.934-1.456" transform="translate(-146.064 -149.455)" fill="#6798e0"/><path d="M53.908,71.952q2.7,0,5.4,0c.258,0,.5-.076.539.368a5.988,5.988,0,1,1-11.872-.078c.036-.427.328-.285.535-.286,1.8-.01,3.6-.006,5.4-.006m0,2.371c-.937,0-1.874.012-2.811-.005-.4-.007-.567.068-.323.484a3.55,3.55,0,0,0,6.267,0c.242-.416.082-.491-.322-.483-.937.017-1.874.005-2.811.005" transform="translate(-33.733 -50.611)" fill="#020202"/><path d="M50.426,57.215A1.185,1.185,0,1,1,49.3,56a1.2,1.2,0,0,1,1.131,1.219" transform="translate(-33.811 -39.396)" fill="#0b0a09"/><path d="M82.416,57.238A1.185,1.185,0,1,1,81.308,56a1.2,1.2,0,0,1,1.107,1.24" transform="translate(-56.318 -39.396)" fill="#0b0a09"/><path d="M189.2,174.553a5.038,5.038,0,0,1-4.327-2.594c-.182-.307-.219-.53.188-.657a2.767,2.767,0,0,0,.4-.186,4.093,4.093,0,0,1,1.125-.535c.5-.069.516.553.8.826a2.631,2.631,0,0,0,4.05-.413c.315-.491.55-.514.968-.225a4.747,4.747,0,0,0,.59.3c.981.492.989.5.352,1.37a5.032,5.032,0,0,1-4.15,2.113" transform="translate(-129.976 -120.01)" fill="#040403"/><path d="M186.383,153.142a1.184,1.184,0,1,1-1.176-1.173,1.195,1.195,0,0,1,1.176,1.173" transform="translate(-129.465 -106.919)" fill="#0b0a09"/><path d="M209.218,151.968a1.185,1.185,0,1,1-1.211,1.137,1.192,1.192,0,0,1,1.211-1.137" transform="translate(-146.345 -106.918)" fill="#0b0a09"/><path d="M45.3,174.549A5.047,5.047,0,0,1,40.969,172c-.245-.4-.2-.607.246-.741a2.688,2.688,0,0,0,.4-.2,3.569,3.569,0,0,1,1.061-.5c.457-.049.488.523.749.787a2.632,2.632,0,0,0,4.1-.382c.283-.434.5-.526.906-.24a4.182,4.182,0,0,0,.526.266c1.147.577,1.153.585.323,1.624a5.051,5.051,0,0,1-3.973,1.922" transform="translate(-28.721 -120.005)" fill="#040403"/><path d="M65.263,151.968a1.185,1.185,0,1,1-1.207,1.141,1.192,1.192,0,0,1,1.207-1.141" transform="translate(-45.067 -106.919)" fill="#0b0a09"/><path d="M42.43,153.154a1.184,1.184,0,1,1-1.164-1.185,1.195,1.195,0,0,1,1.164,1.185" transform="translate(-28.187 -106.919)" fill="#0b0a09"/><path d="M117.316,174.549a5.036,5.036,0,0,1-4.28-2.421c-.261-.407-.395-.741.24-.9a1.726,1.726,0,0,0,.329-.165,3.5,3.5,0,0,1,1.061-.5c.453-.045.487.525.749.79a2.63,2.63,0,0,0,4.1-.388c.285-.44.5-.515.908-.235a4.308,4.308,0,0,0,.526.266c1.129.568,1.134.572.362,1.567a5.031,5.031,0,0,1-3.992,1.978" transform="translate(-79.374 -120.005)" fill="#040403"/><path d="M138.4,153.164a1.184,1.184,0,1,1-1.153-1.2,1.195,1.195,0,0,1,1.153,1.2" transform="translate(-95.706 -106.918)" fill="#0b0a09"/><path d="M113.247,151.968a1.185,1.185,0,1,1-1.207,1.141,1.192,1.192,0,0,1,1.207-1.141" transform="translate(-78.826 -106.919)" fill="#0b0a09"/><path d="M165.279,86.577a5.017,5.017,0,0,1-4.3-2.491c-.227-.367-.319-.65.216-.8a2.385,2.385,0,0,0,.4-.2,3.4,3.4,0,0,1,1.061-.493c.444-.038.485.529.748.794a2.628,2.628,0,0,0,4.1-.4c.289-.448.511-.5.91-.227a3.757,3.757,0,0,0,.459.234c1.211.609,1.218.631.328,1.714a5.04,5.04,0,0,1-3.917,1.859" transform="translate(-113.134 -58.112)" fill="#040403"/><path d="M185.219,66.364a1.184,1.184,0,1,1,1.164-1.185,1.192,1.192,0,0,1-1.164,1.185" transform="translate(-129.466 -45.025)" fill="#0b0a09"/><path d="M161.2,66.363a1.184,1.184,0,1,1,1.189-1.161,1.192,1.192,0,0,1-1.189,1.161" transform="translate(-112.588 -45.024)" fill="#0b0a09"/><path d="M60.342,79.975c.937,0,1.874.012,2.811-.005.4-.007.564.067.322.483a3.55,3.55,0,0,1-6.267,0c-.244-.416-.08-.491.323-.484.937.017,1.874.005,2.811.005" transform="translate(-40.169 -56.263)" fill="#ed8773"/></g></g></g></g></svg>