<svg xmlns="http://www.w3.org/2000/svg" xmlns:xlink="http://www.w3.org/1999/xlink" width="85" height="85" viewBox="0 0 85 85"><defs><clipPath id="a"><rect width="67.104" height="72.808" fill="none"/></clipPath></defs><g transform="translate(-1335 -1873)"><g transform="translate(0 -4716)"><rect width="85" height="85" transform="translate(1335 6589)" fill="none"/><g transform="translate(1343.948 6595.096)"><g clip-path="url(#a)"><path d="M65.135,60.84c.993-.049,1.272.144,1.52,1.081a13.3,13.3,0,0,1,.444,3.37q.011,3.058,0,6.116c0,1.043-.367,1.4-1.417,1.4q-31.176,0-62.353,0A3.1,3.1,0,0,1,.006,69.473q-.009-7,0-14.009c0-.956.206-1.223,1.093-1.458a1.189,1.189,0,0,1,1.046,1.36c-.017,4.622-.009,9.245-.008,13.867,0,1.155.281,1.44,1.408,1.441q2.133,0,4.266,0l14.645-.023c.165.007.331.02.5.021,1.61.011,1.78-.159,1.78-1.783V42.179c0-2.133-.084-2.211-2.272-2.087-.334.223-.166.562-.166.84q-.015,12.8-.009,25.6c0,1.4-.3,1.7-1.724,1.7H6.91c-.379,0-.759.016-1.137-.005a1.062,1.062,0,0,1-1.133-1.1c-.03-.5-.047-.994-.047-1.492q0-12.3,0-24.6c0-.19,0-.379,0-.569,0-.14-.006-.278-.159-.364a1.552,1.552,0,0,0-2.291,1.294c0,2.821-.015,5.641.007,8.462A1.19,1.19,0,0,1,1.1,51.208C.23,50.973.007,50.7.006,49.82c0-2.892-.012-5.784,0-8.676A3.071,3.071,0,0,1,3.218,37.92a3.117,3.117,0,0,1,.5,0c.6.085.912-.047,1.024-.754a2.034,2.034,0,0,1,1.917-1.532c.59-.039,1.184-.03,1.776-.015.324.008.474-.067.581-.425A2.472,2.472,0,0,1,11.536,33.3c1.256-.025,2.512-.022,3.768,0a2.484,2.484,0,0,1,2.566,1.93.448.448,0,0,0,.538.388c.545-.011,1.091-.019,1.635,0A2.128,2.128,0,0,1,22.2,37.414c.085.414.235.542.648.515.607-.039,1.219-.01,1.884-.01,0-1.606-.006-3.286.006-4.966,0-.27-.164-.358-.34-.482-3.428-2.412-3.421-6.7.032-9.129a.717.717,0,0,0,.3-.714c0-1.612-.014-3.224.008-4.836a18.3,18.3,0,0,1,36.178-3.407,17.863,17.863,0,0,1,.417,4.09c0,.877.056,1.759-.013,2.63a3.18,3.18,0,0,0,1.214,3,5.22,5.22,0,0,1-.665,8.224,1.055,1.055,0,0,0-.546,1.023c.028,1.564,0,3.129.017,4.693A1.174,1.174,0,0,1,60.286,39.4c-.863-.241-1.081-.508-1.086-1.4-.008-1.42,0-2.84,0-4.261,0-.237.038-.477-.343-.468-.285.007-.449.066-.451.383a3.9,3.9,0,0,1-.07.491,14.862,14.862,0,0,1-7.149,11.116,2.325,2.325,0,0,0-1.342,2.566c.051.4.1.571.556.567q4.046-.032,8.093,0c.583.005.724-.228.714-.759-.026-1.373-.018-2.746,0-4.119.008-.831.25-1.106,1.085-1.318a1.125,1.125,0,0,1,1.051,1.271c-.011,1.493.014,2.986-.008,4.479a2.439,2.439,0,0,1-2.6,2.569c-2.748.015-5.5,0-8.245.012-.218,0-.57-.175-.614.253-.04.388.283.359.527.42,2.43.61,4.864,1.208,7.289,1.838A12.3,12.3,0,0,1,63.7,56.623c.579.621.608.951.15,1.7-.77.433-1.092.392-1.729-.266a10.018,10.018,0,0,0-5.382-3.015c-2.107-.538-4.22-1.055-6.317-1.627-.522-.143-.713-.09-.882.468a6.783,6.783,0,0,1-13-.009c-.147-.487-.3-.646-.813-.471-.647.219-1.332.322-1.994.5-2.028.557-4.1.932-6.1,1.623a.985.985,0,0,0-.779,1.114c.034,3.461.026,6.923.011,10.384a22.6,22.6,0,0,1-.108,3.65c.592,0,1.16-.028,1.724.009.427.028.578-.085.56-.54-.038-.947-.025-1.9-.007-2.844.015-.77.443-1.217,1.1-1.2.641.015,1.015.432,1.025,1.188.013.972.02,1.944,0,2.916-.009.375.107.483.48.482q6.861-.03,13.723-.034c3.033.009,6.065.01,9.1.036.414,0,.451-.174.446-.506-.016-.924-.011-1.849,0-2.773.006-.836.393-1.306,1.064-1.31s1.063.451,1.068,1.3c.006.948.014,1.9-.005,2.844-.007.335.089.449.436.447q3.554-.02,7.109,0c.307,0,.416-.1.406-.408-.019-.639,0-1.28-.007-1.92a22.5,22.5,0,0,0-.464-6.283c-.166-.564.194-.936.634-1.228M47.676,50.057c.016-.9.026-1.8.05-2.694.009-.352-.155-.384-.443-.3a15.32,15.32,0,0,1-8.474,0c-.349-.1-.458,0-.447.36.027.875.025,1.751.035,2.626-.009.661-.037,1.322-.021,1.982a4.658,4.658,0,0,0,9.135,1.188,8.856,8.856,0,0,0,.165-3.162m-4.736-4.574a1.764,1.764,0,0,0,.211.026,13.307,13.307,0,0,0,13-11.114,3.68,3.68,0,0,0-.2-2.68,29.709,29.709,0,0,1-1.8-3.456,2.935,2.935,0,0,0-2.5-1.915,17.047,17.047,0,0,1-8.3-5.078c-.2-.22-.326-.352-.6-.048a17.158,17.158,0,0,1-9.037,5.3,2.164,2.164,0,0,0-1.495,1.193c-.753,1.474-1.526,2.938-2.3,4.4a1.526,1.526,0,0,0-.177.884,14.624,14.624,0,0,0,.826,3.876c1.914,5.155,7.212,8.845,12.368,8.611M49.782,3.629a3.387,3.387,0,0,0-.362-.212A16.23,16.23,0,0,0,27.562,13.555a24.585,24.585,0,0,0-.7,7.386c.007,1.574,0,1.574,1.54,1.6.971.018,1.317.36,1.321,1.331.006,1.241,0,2.481,0,3.769a.9.9,0,0,0,.409-.548,4.513,4.513,0,0,1,3.377-2.744,14.357,14.357,0,0,0,2.871-1,16.038,16.038,0,0,0,5.657-4.53c.678-.813,1.3-.8,2-.006a11.455,11.455,0,0,0,1.3,1.4c.106.124.2.258.319.372a15.118,15.118,0,0,0,7.159,3.848,4.2,4.2,0,0,1,2.974,2.41c.123.264.278.514.419.77.111-1.19.11-2.343.111-3.5,0-1.28.3-1.569,1.6-1.571a4.885,4.885,0,0,1,.639,0c.478.062.663-.091.648-.61-.04-1.4-.009-2.8-.03-4.193a14.89,14.89,0,0,0-1.468-6.238,15.7,15.7,0,0,0-7.928-7.879M20.14,54.216c0-3.72-.01-7.44.011-11.16,0-.532-.1-.721-.684-.716q-6.04.044-12.081,0c-.553,0-.649.158-.647.67q.026,11.195,0,22.39c0,.577.172.7.717.7,3.98-.022,7.96-.031,11.939.007.669.006.764-.21.759-.8-.026-3.7-.013-7.392-.013-11.088m6.725-13.469c0,2.251.023,4.5-.014,6.754-.011.671.169.911.871.9,2.25-.04,4.5-.015,6.753-.015,1.8,0,1.792,0,1.768-1.834a.717.717,0,0,0-.432-.712A15.184,15.184,0,0,1,27.7,33.8c-.036-.3-.059-.535-.478-.538-.513,0-.354.344-.355.584-.009,2.3-.005,4.6-.005,6.9M13.4,40.221h4.9c1.9,0,1.891,0,1.856-1.9-.008-.42-.11-.6-.558-.578-.709.031-1.42.009-2.13.008-1.363,0-1.645-.253-1.644-1.606,0-.578-.235-.739-.765-.725-.97.024-1.941.007-2.912.007-1.046,0-1.046,0-1.076,1.035-.026.868-.391,1.249-1.259,1.285-.4.017-.8,0-1.208,0-1.9,0-1.88,0-1.859,1.891.005.487.171.589.618.585,2.012-.02,4.025-.009,6.037-.009M58.46,27.927c0,.9.017,1.8-.008,2.7-.011.4.1.529.515.522a3.236,3.236,0,0,0-.02-6.468c-.365,0-.5.1-.495.476.022.923.007,1.847.007,2.77m-30.869-.064c0-.9,0-1.8,0-2.7,0-.284-.005-.476-.4-.491a3.237,3.237,0,0,0-.036,6.473c.349-.007.442-.118.437-.448-.017-.946-.006-1.892-.006-2.838M26.862,53.5c.736-.211,1.408-.423,2.09-.6,2.289-.58,4.581-1.147,6.872-1.716.211-.053.42-.084.414-.382-.007-.343-.252-.282-.453-.282-2.843,0-5.686,0-8.529-.012-.324,0-.4.1-.4.4.014.848,0,1.7,0,2.592" transform="translate(0 -0.001)" fill="#030302"/><path d="M170.752,193.4a10.018,10.018,0,0,1,5.382,3.014c.637.659.96.7,1.729.266a17.092,17.092,0,0,1,1.289,2.52c-.44.292-.8.665-.634,1.229a22.505,22.505,0,0,1,.465,6.283c.006.64-.013,1.28.007,1.92.009.311-.1.409-.406.408q-3.555-.014-7.109,0c-.347,0-.442-.112-.436-.447.019-.948.012-1.9.005-2.844-.005-.844-.387-1.3-1.068-1.3s-1.058.473-1.064,1.31c-.006.924-.012,1.849,0,2.773.006.332-.032.509-.446.506-3.033-.026-6.065-.027-9.1-.036.038-.319.291-.468.507-.649.522-.439,1.065-.856,1.559-1.324a37.738,37.738,0,0,0,5.469-6.18,30.486,30.486,0,0,0,3.844-7.455" transform="translate(-114.017 -138.358)" fill="#a2dcc4"/><path d="M3.861,151.514a1.19,1.19,0,0,0,1.046-1.361c-.021-2.821-.011-5.641-.007-8.462A1.553,1.553,0,0,1,7.191,140.4c.153.086.154.224.159.364.006.189,0,.379,0,.569q0,12.3,0,24.6c0,.5.017.995.047,1.491a1.062,1.062,0,0,0,1.133,1.1c.378.021.758.005,1.137.005h13.65c1.42,0,1.723-.3,1.723-1.7q0-12.8.009-25.6c0-.278-.168-.617.166-.84a3.772,3.772,0,0,1,.148,1.116q-.009,14.2,0,28.4a3.2,3.2,0,0,1-.151,1.044l-14.645.023q-2.133,0-4.266,0c-1.127,0-1.407-.287-1.407-1.441,0-4.622-.009-9.245.007-13.867a1.189,1.189,0,0,0-1.046-1.36q0-1.4,0-2.8" transform="translate(-2.761 -100.306)" fill="#a66d43"/><path d="M185.506,125.835c-.835.213-1.077.487-1.085,1.318-.013,1.373-.021,2.746,0,4.118.01.531-.131.764-.714.759q-4.047-.036-8.094,0c-.454,0-.505-.163-.556-.567A2.325,2.325,0,0,1,176.4,128.9a14.863,14.863,0,0,0,7.149-11.116,3.9,3.9,0,0,0,.07-.491c0-.317.166-.377.451-.383.381-.009.343.231.343.468,0,1.42-.005,2.84,0,4.261.005.889.223,1.156,1.086,1.4v2.8" transform="translate(-125.22 -83.637)" fill="#ecd154"/><path d="M112.866,25.5a11.453,11.453,0,0,1-1.3-1.4c-.7-.791-1.323-.807-2,.006a16.038,16.038,0,0,1-5.657,4.53,14.381,14.381,0,0,1-2.871,1,4.512,4.512,0,0,0-3.377,2.744.9.9,0,0,1-.409.548c0-1.287,0-2.528,0-3.769,0-.971-.35-1.313-1.321-1.331-1.539-.029-1.532-.029-1.54-1.6a24.585,24.585,0,0,1,.7-7.386A16.229,16.229,0,0,1,116.942,8.707a3.39,3.39,0,0,1,.363.212,32.05,32.05,0,0,1-.64,7.653,26.1,26.1,0,0,1-3.8,8.929" transform="translate(-67.523 -5.29)" fill="#f4e58f"/><path d="M123.987,189.1a30.486,30.486,0,0,1-3.844,7.455,37.74,37.74,0,0,1-5.469,6.18c-.495.468-1.038.885-1.559,1.324-.215.181-.469.33-.507.649q-6.861.013-13.723.034c-.373,0-.489-.106-.48-.481.024-.972.017-1.944,0-2.916-.01-.756-.384-1.173-1.025-1.188-.66-.015-1.088.432-1.1,1.2-.018.948-.031,1.9.007,2.844.018.456-.133.568-.56.54-.564-.036-1.132-.009-1.724-.009a22.6,22.6,0,0,0,.108-3.65c.014-3.461.023-6.923-.011-10.384a.985.985,0,0,1,.779-1.114c1.994-.692,4.07-1.066,6.1-1.623.661-.182,1.347-.284,1.994-.5.518-.176.666-.016.813.471a6.783,6.783,0,0,0,13,.009c.169-.559.36-.61.882-.468,2.1.573,4.21,1.09,6.317,1.627" transform="translate(-67.252 -134.062)" fill="#b5e5d1"/><path d="M117.7,98.373c-5.157.234-10.454-3.456-12.368-8.611a14.636,14.636,0,0,1-.826-3.876,1.526,1.526,0,0,1,.177-.884c.778-1.461,1.551-2.924,2.3-4.4a2.163,2.163,0,0,1,1.494-1.193,17.159,17.159,0,0,0,9.038-5.3c.27-.3.4-.173.6.048a17.048,17.048,0,0,0,8.3,5.078q-.028,1.638-.056,3.276c-.125-.107-.246-.218-.374-.32a3.378,3.378,0,0,0-5.539,2.173,1.136,1.136,0,0,0,.914,1.431c.626.085,1.06-.312,1.2-1.09a1.243,1.243,0,0,1,1.194-1.18c.665-.024,1.109.386,1.265,1.169.175.881.428,1.087,1.344,1.1a11.746,11.746,0,0,1-1.2,5.185,14.546,14.546,0,0,1-7.455,7.4m-5.923-17a3.363,3.363,0,0,0-3.331,3.209,1.064,1.064,0,0,0,.935,1.207,1.079,1.079,0,0,0,1.186-.97c.174-.9.542-1.295,1.214-1.3s1.085.406,1.243,1.272a1.09,1.09,0,0,0,1.158,1.008,1.065,1.065,0,0,0,.967-1.182,3.364,3.364,0,0,0-3.372-3.24m6.037,13.2a5.539,5.539,0,0,0,3.755-1.442c.583-.538.676-1.119.259-1.621A1.074,1.074,0,0,0,120.2,91.5a3.452,3.452,0,0,1-4.827-.02,1.067,1.067,0,0,0-1.58.008,1.094,1.094,0,0,0,.21,1.621,5.419,5.419,0,0,0,3.811,1.471" transform="translate(-74.761 -52.89)" fill="#f5d1a8"/><path d="M37.077,160.65c0,3.7-.013,7.392.013,11.088,0,.591-.09.807-.759.8-3.979-.038-7.96-.029-11.939-.007-.545,0-.719-.12-.717-.7q.031-11.195,0-22.39c0-.513.094-.674.647-.671q6.04.041,12.081,0c.588,0,.687.184.684.716-.022,3.72-.012,7.44-.012,11.16" transform="translate(-16.937 -106.435)" fill="#e7f4fa"/><path d="M159.329,29.332a26.1,26.1,0,0,0,3.8-8.929,32.049,32.049,0,0,0,.64-7.653,15.7,15.7,0,0,1,7.928,7.879,14.9,14.9,0,0,1,1.468,6.238c.021,1.4-.009,2.8.03,4.193.015.519-.17.672-.648.61a4.929,4.929,0,0,0-.639,0c-1.3,0-1.6.291-1.6,1.571,0,1.153,0,2.306-.111,3.5-.14-.256-.3-.505-.419-.77a4.2,4.2,0,0,0-2.974-2.41,15.118,15.118,0,0,1-7.159-3.848c-.116-.114-.213-.248-.319-.372" transform="translate(-113.986 -9.122)" fill="#f0db62"/><path d="M159.546,95.843q.028-1.638.056-3.276a2.935,2.935,0,0,1,2.5,1.915,29.7,29.7,0,0,0,1.8,3.456,3.679,3.679,0,0,1,.2,2.68,13.308,13.308,0,0,1-13,11.114,1.771,1.771,0,0,1-.211-.026,14.545,14.545,0,0,0,7.455-7.4,11.742,11.742,0,0,0,1.2-5.185,1.2,1.2,0,0,0,.775-1.413,4.205,4.205,0,0,0-.774-1.868" transform="translate(-107.948 -66.224)" fill="#f2bd8c"/><path d="M78.907,171.343a3.2,3.2,0,0,0,.151-1.044q-.008-14.2,0-28.4a3.775,3.775,0,0,0-.148-1.116c2.188-.123,2.272-.046,2.272,2.087v26.71c0,1.624-.17,1.794-1.78,1.783-.165,0-.331-.014-.5-.021" transform="translate(-56.451 -100.692)" fill="#90603c"/><path d="M94.358,124.372c0-2.3,0-4.6.006-6.9,0-.239-.158-.587.355-.584.419,0,.442.237.478.538a15.184,15.184,0,0,0,8.107,12.034.717.717,0,0,1,.432.712c.024,1.834.036,1.834-1.768,1.834-2.251,0-4.5-.025-6.753.014-.7.013-.882-.227-.871-.9.037-2.251.014-4.5.014-6.754" transform="translate(-67.493 -83.626)" fill="#ecd154"/><path d="M144.136,175.87a8.854,8.854,0,0,1-.165,3.161,4.658,4.658,0,0,1-9.135-1.188c-.016-.66.013-1.321.021-1.982a25.1,25.1,0,0,0,4.676.583,27.713,27.713,0,0,0,4.6-.574" transform="translate(-96.46 -125.813)" fill="#f2bd8c"/><path d="M30.331,129.266c-2.012,0-4.025-.011-6.037.009-.447,0-.612-.1-.618-.585-.021-1.891-.04-1.89,1.859-1.891.4,0,.806.013,1.208,0,.868-.037,1.233-.417,1.259-1.285.031-1.034.031-1.034,1.076-1.035.971,0,1.942.018,2.912-.007.53-.013.765.147.765.725,0,1.352.282,1.6,1.644,1.605.71,0,1.422.023,2.13-.008.448-.019.55.158.558.578.035,1.9.048,1.9-1.856,1.9h-4.9" transform="translate(-16.935 -89.046)" fill="#6ea1ef"/><path d="M144.112,168.266a27.713,27.713,0,0,1-4.6.574,25.1,25.1,0,0,1-4.676-.583c-.01-.875-.008-1.751-.035-2.626-.011-.356.1-.458.447-.36a15.325,15.325,0,0,0,8.474,0c.289-.081.453-.049.443.3-.024.9-.034,1.8-.05,2.694" transform="translate(-96.436 -118.209)" fill="#e6a874"/><path d="M205.4,89.969c0-.923.015-1.847-.007-2.77-.009-.38.129-.478.495-.476a3.236,3.236,0,0,1,.02,6.468c-.415.007-.526-.127-.515-.522.024-.9.008-1.8.008-2.7" transform="translate(-146.94 -62.043)" fill="#dc9c63"/><path d="M87.937,89.889c0,.946-.011,1.892.006,2.838.006.33-.088.441-.437.448a3.237,3.237,0,0,1,.036-6.474c.392.015.4.207.4.491-.007.9,0,1.8,0,2.7" transform="translate(-60.345 -62.026)" fill="#dc9c63"/><path d="M166.39,101.214a4.205,4.205,0,0,1,.774,1.868,1.2,1.2,0,0,1-.775,1.413c-.916-.011-1.168-.218-1.344-1.1-.156-.782-.6-1.192-1.265-1.169a1.243,1.243,0,0,0-1.194,1.18c-.136.779-.57,1.175-1.2,1.09a1.137,1.137,0,0,1-.914-1.431,3.379,3.379,0,0,1,5.539-2.173c.128.1.25.213.374.32" transform="translate(-114.792 -71.594)" fill="#030302"/><path d="M121.7,100.1a3.364,3.364,0,0,1,3.372,3.24,1.065,1.065,0,0,1-.967,1.182,1.089,1.089,0,0,1-1.157-1.008c-.158-.865-.563-1.28-1.243-1.272s-1.04.4-1.214,1.3a1.079,1.079,0,0,1-1.186.97,1.064,1.064,0,0,1-.935-1.207A3.363,3.363,0,0,1,121.7,100.1" transform="translate(-84.685 -71.613)" fill="#030302"/><path d="M140.492,137.832a5.423,5.423,0,0,1-3.811-1.472,1.094,1.094,0,0,1-.21-1.621,1.068,1.068,0,0,1,1.58-.008,3.451,3.451,0,0,0,4.827.02,1.074,1.074,0,0,1,1.629.018c.417.5.325,1.083-.259,1.621a5.545,5.545,0,0,1-3.755,1.442" transform="translate(-97.438 -96.142)" fill="#030302"/></g></g></g></g></svg>