<svg xmlns="http://www.w3.org/2000/svg" xmlns:xlink="http://www.w3.org/1999/xlink" width="78.512" height="78.593" viewBox="0 0 78.512 78.593"><defs><clipPath id="a"><rect width="78.512" height="78.593" fill="none"/></clipPath></defs><g transform="translate(-182 -1148)"><g transform="translate(0 14)"><g transform="translate(3 633)"><circle cx="37.602" cy="37.602" r="37.602" transform="translate(181 503)" fill="#f46464"/></g><g transform="translate(182 1134)"><g clip-path="url(#a)"><path d="M34.281,3.681c.947-.7,1.223-.7,2.171.042,3.179,2.5,4,5.9,3.681,9.722a18.357,18.357,0,0,1-.62,3.4c-.1.367-.1.529.326.609a3.038,3.038,0,0,1,2.42,2.33,1.516,1.516,0,0,0,.491-1.318A34.089,34.089,0,0,1,44.33,8.323a12.644,12.644,0,0,1,4.095-6.253,8.641,8.641,0,0,1,9.583-1.1.7.7,0,0,0,.752.03C62.22-.966,67.279.036,70.151,3.833a19.518,19.518,0,0,1,3.406,8.821c.328,1.956.295,3.957.565,5.906.264,1.906.426,3.868,1.555,5.616A19.384,19.384,0,0,1,78.724,31.5a14.885,14.885,0,0,1-.734,7.627,1.049,1.049,0,0,0,.332,1.43c1.823,1.517,2.319,3.637,2.511,5.892.206,2.411.492,4.815.754,7.221.1.885-.211,1.452-.907,1.6-.647.137-1.112-.227-1.384-1.086-.308-2.9-.622-5.792-.922-8.689A4.793,4.793,0,0,0,74.6,41.137c-2.161-.525-4.335-1-6.485-1.563-.65-.171-.9-.033-1.152.577a19.068,19.068,0,0,1-7.578,9.2,1.6,1.6,0,0,1-1.906.016,19.254,19.254,0,0,1-3.118-2.426,20.618,20.618,0,0,1-4.567-6.9c-.119-.284-.136-.689-.632-.568q-2.173.527-4.354,1.047c.074.258.23.237.356.263,5.022,1.012,7.4,4.318,6.828,9.381-.155,1.373-.61,2.668-.828,4.019a11.934,11.934,0,0,1-3.9,8.7c-.649.585-.146,1.344-.139,2.02,0,.539.539.388.828.463,1.86.481,3.733.91,5.6,1.358a5.134,5.134,0,0,1,4.186,4.687c.208,1.8.4,3.608.6,5.412.006.055.01.11.014.165.069.921-.242,1.492-.934,1.583-.808.106-1.207-.376-1.385-1.1-.2-1.968-.395-3.937-.615-5.9a2.743,2.743,0,0,0-2.231-2.537c-1.918-.477-3.845-.919-5.76-1.4-.354-.09-.479.015-.611.318a4.833,4.833,0,0,1-8.946,0c-.132-.3-.256-.406-.61-.317-1.943.49-3.9.932-5.841,1.422a2.59,2.59,0,0,0-2.095,2.192c-.292,2.066-.454,4.151-.669,6.229-.18.72-.577,1.205-1.383,1.1-.69-.088-1.026-.66-.933-1.576.205-2.021.4-4.045.667-6.057a5.133,5.133,0,0,1,4.02-4.2c1.944-.469,3.89-.931,5.841-1.373a.848.848,0,0,0,.779-.826,2.234,2.234,0,0,0-.749-2.222,11.537,11.537,0,0,1-3.37-8.151c-.259-1.426-.73-2.8-.854-4.264-.314-3.71,1.041-7.191,4.882-8.61.5-.186.769-.634,1.181-1.059-.908-.218-1.716-.368-2.494-.614-.51-.161-.72.009-.942.44-1.271,2.466-2.567,4.919-3.856,7.375-.734,1.4-1.585,1.449-2.512.179a11.484,11.484,0,0,0-1.451-1.909v8.452c-.167.666-.526,1.164-1.272,1.116a1.148,1.148,0,0,1-1.095-1.11V45.516c-.591.838-1.044,1.487-1.5,2.132-.882,1.239-1.757,1.186-2.463-.153-1.294-2.453-2.6-4.9-3.86-7.371a.744.744,0,0,0-1.008-.479c-2.077.522-4.165,1-6.245,1.506a4.605,4.605,0,0,0-3.077,2.3,1.415,1.415,0,0,1-1.612.838c-.85-.684-.928-1.084-.378-2.034a7.061,7.061,0,0,1,4.661-3.4c3.095-.749,6.193-1.49,9.3-2.185.618-.138.8-.4.886-1.007.262-1.756.274-3.242-1.414-4.53a11.121,11.121,0,0,1-3.242-4.9.952.952,0,0,0-.909-.721A4.469,4.469,0,0,1,10.3,19.961a2.924,2.924,0,0,1,2.341-2.475c.564-.119.526-.38.415-.8a16.015,16.015,0,0,1-.444-7.263A6.763,6.763,0,0,1,15.243,5.1a1.1,1.1,0,0,0,.433-.475c1.164-3,3.634-4.09,6.572-4.47a23,23,0,0,1,7.7.534,1.271,1.271,0,0,1,1.113,1.55c-.451.868-1.192.831-1.992.658a18.684,18.684,0,0,0-6.706-.413c-2.132.312-4.028,1.006-4.645,3.416a1.471,1.471,0,0,1-.752.841,4.516,4.516,0,0,0-2.022,2.9,11.316,11.316,0,0,0-.089,4.262,9.166,9.166,0,0,0,.633,2.678,4.672,4.672,0,0,0,1.745-3.064c.121-.9.22-1.8.345-2.7A1.174,1.174,0,0,1,19.14,9.709a35.057,35.057,0,0,0,14.152.032c1.082-.22,1.591.162,1.753,1.263.084.57.144,1.144.2,1.718a5.235,5.235,0,0,0,1.323,3.38c.149.15.27.414.507.369.26-.048.229-.358.267-.546a23.907,23.907,0,0,0,.485-2.837c.234-3.025-.346-5.764-3-7.671a1.441,1.441,0,0,1-.551-1.737M39.037,32.7A1.34,1.34,0,0,1,40.2,34.231a13.048,13.048,0,0,0,.831,4.266c.111.314.212.49.641.385,3.2-.785,6.4-1.539,9.61-2.287a.71.71,0,0,0,.649-.78c.023-.85.1-1.7.182-2.547a.972.972,0,0,0-.4-.916,15.753,15.753,0,0,1-4.478-6.232.731.731,0,0,0-.7-.563,4.211,4.211,0,0,1-2.436-.9c-.366-.3-.546-.18-.739.2-.576,1.125-1.209,2.221-1.763,3.356a1.478,1.478,0,0,1-1.679,1.005c-.841-.775-.9-1.023-.394-2.064.377-.777.782-1.541,1.275-2.509a5.566,5.566,0,0,1-2.529.877c-.538-.008-.7.269-.859.681a10.971,10.971,0,0,1-3,4.672A4.382,4.382,0,0,0,32.775,35.8a.537.537,0,0,1,.009.165c-.026.367.143.511.509.591,1.34.292,2.668.637,4,.943.331.076.658.3,1.037.11a17.877,17.877,0,0,1-.467-3.427c-.023-.856.3-1.369,1.169-1.485m19.337.4A4.981,4.981,0,0,0,60.9,32.45c4.89-2.664,7.3-6.869,7.7-12.34a.918.918,0,0,0-.4-.9,5.482,5.482,0,0,1-1.816-2.5,1.141,1.141,0,0,0-.844-.774,21.6,21.6,0,0,1-6.616-3.429.667.667,0,0,0-.983-.007A22.212,22.212,0,0,1,51.16,15.99a.827.827,0,0,0-.633.55,5.987,5.987,0,0,1-1.93,2.72.819.819,0,0,0-.336.77,14.081,14.081,0,0,0,5.67,11.132A7.5,7.5,0,0,0,58.374,33.1M36.449,20.02c.193-.479-.128-.949-.624-1.372a7.8,7.8,0,0,1-2.894-5.884c-.018-.51-.236-.557-.683-.485a36.285,36.285,0,0,1-11.91-.013c-.441-.075-.654-.022-.673.484a8.29,8.29,0,0,1-3.194,6.181,1.031,1.031,0,0,0-.364.942c.324,5.58,2.721,9.882,7.726,12.583a4.877,4.877,0,0,0,4.886.015c4.87-2.627,7.328-6.783,7.729-12.451m8.713-3.56c-.021.779-.021.779.222.878a1.873,1.873,0,0,0,2.671-.98,3.1,3.1,0,0,0,.383-.907,1.854,1.854,0,0,1,1.568-1.569,19.858,19.858,0,0,0,7.322-3.848c.92-.751,1.254-.77,2.157-.022a20.271,20.271,0,0,0,7.543,3.949,1.667,1.667,0,0,1,1.3,1.31,4.048,4.048,0,0,0,1.052,1.935,3.759,3.759,0,0,0,2.242.059.676.676,0,0,0,.035-.383,29.139,29.139,0,0,0-.929-6.266c-.7-2.571-1.634-5.026-3.793-6.8-1.93-1.584-5.546-2.187-7.731-.332a1.2,1.2,0,0,1-1.652-.056,5.478,5.478,0,0,0-4.041-1.047,7.3,7.3,0,0,0-5.857,4.166c-1.7,3.112-2.178,6.54-2.493,9.912m3.657,38.072c.107-.335-.135-.647-.459-.937a5.292,5.292,0,0,1-1.838-3.4c-.054-.467-.266-.6-.712-.538a26.032,26.032,0,0,1-6.9,0c-.43-.057-.676.029-.732.511a5.31,5.31,0,0,1-1.887,3.461,1.165,1.165,0,0,0-.389,1.094,9.148,9.148,0,0,0,5.06,7.776,2.873,2.873,0,0,0,2.837-.025,9.27,9.27,0,0,0,5.024-7.947M76.591,33.945a18.341,18.341,0,0,0-.141-2.051c-.438-2.641-1.833-4.863-3.058-7.162-.191-.358-.384-.287-.644-.08a4.371,4.371,0,0,1-2.515.914.61.61,0,0,0-.6.447,15.7,15.7,0,0,1-4.681,6.473.747.747,0,0,0-.282.723c.1.872.23,1.745.256,2.62.016.541.278.682.722.787,3.1.728,6.195,1.459,9.283,2.225.5.124.722.069.893-.455a13.037,13.037,0,0,0,.769-4.441M65.008,38.855l-.922-.226c-1.108-.268-1.33-.541-1.411-1.7-.048-.686-.142-1.37-.159-2.056-.013-.524-.135-.605-.614-.354a7.093,7.093,0,0,1-7.017-.026c-.391-.21-.525-.15-.558.284-.064.85-.166,1.7-.225,2.548a1.193,1.193,0,0,1-1.025,1.208c-.268.058-.53.144-.8.2-.346.066-.445.207-.292.557a17.641,17.641,0,0,0,5.963,7.635.691.691,0,0,0,.938-.01,17.577,17.577,0,0,0,6.122-8.059M49.468,51.264a11.546,11.546,0,0,0,.281-2.675c-.1-2.924-1.491-4.719-4.286-5.378a13.563,13.563,0,0,0-6.526.07c-3.82.971-4.607,4.858-3.589,7.906a2.666,2.666,0,0,0,.558-1.522,2.678,2.678,0,0,1,3.059-2.328,25.8,25.8,0,0,0,6.491.045,2.7,2.7,0,0,1,3.362,2.5,1.991,1.991,0,0,0,.649,1.378M30.253,34.308c-.332.161-.623.308-.919.443A7.413,7.413,0,0,1,23.8,35c-.529-.17-1.1-.849-1.5-.518-.316.261-.175,1.083-.225,1.656-.033.373-.107.718.29,1.025,1.2.922,2.361,1.884,3.513,2.86a.527.527,0,0,0,.825,0c1.133-.956,2.291-1.883,3.44-2.82.19-.155.414-.288.375-.588a12.012,12.012,0,0,0-.264-2.31M44.845,65.847a2.607,2.607,0,0,1-.015-.328c.056-.682-.1-.923-.857-.623a4.67,4.67,0,0,1-3.145.046c-.912-.278-.912-.277-.963.714,0,.055-.006.11-.009.164a2.51,2.51,0,1,0,4.988.027m-22.308-20.7c.464-.654.828-1.166,1.191-1.68,1-1.417,1-1.416-.337-2.5-.85-.692-1.715-1.366-2.541-2.086-.467-.408-.881-.057-1.311.007-.213.032-.166.241-.082.4l3.08,5.862m7.5.008c.991-1.885,1.942-3.675,2.867-5.478.116-.226.506-.559.147-.747-.337-.176-.791-.461-1.224-.109-1.215.987-2.424,1.983-3.642,2.965a.38.38,0,0,0-.084.616c.64.887,1.261,1.789,1.936,2.753M44.622,21.037a2.136,2.136,0,0,0,1.062,1.905c.159.1.352.256.528.156.208-.119.049-.341.029-.516-.086-.76-.174-1.519-.269-2.278-.028-.226.091-.54-.241-.622a.825.825,0,0,0-.822.262,1.562,1.562,0,0,0-.288,1.093m-6.206,2.077a2.2,2.2,0,0,0,1.56-2.866.842.842,0,0,0-.9-.576c-.537.043-.314.486-.352.765-.118.862-.2,1.729-.311,2.676M70.56,23.1a2.176,2.176,0,0,0,1.524-2.89.87.87,0,0,0-.838-.547c-.245-.01-.333.107-.357.338-.1,1.029-.218,2.056-.329,3.1M12.468,21.018a2.321,2.321,0,0,0,1.064,1.907c.156.1.339.264.526.159.215-.121.063-.349.045-.522-.08-.763-.171-1.525-.278-2.284-.03-.216.109-.539-.26-.6a.807.807,0,0,0-.808.3,1.763,1.763,0,0,0-.289,1.039" transform="translate(-3.092 0)" fill="#040303"/><path d="M132.35,133.909c.218-1.351.673-2.646.828-4.019.573-5.063-1.806-8.369-6.828-9.381-.126-.025-.282,0-.356-.263q2.183-.524,4.354-1.047c.5-.12.513.284.632.568a20.618,20.618,0,0,0,4.567,6.9,19.242,19.242,0,0,0,3.119,2.426,1.6,1.6,0,0,0,1.906-.017,19.067,19.067,0,0,0,7.578-9.2c.252-.61.5-.748,1.152-.577,2.15.564,4.325,1.037,6.485,1.563a4.793,4.793,0,0,1,3.775,4.359c.3,2.9.614,5.793.922,8.689l-28.134,0" transform="translate(-84.28 -79.72)" fill="#d56b70"/><path d="M77.226,214.063c.216-2.077.377-4.162.669-6.229a2.59,2.59,0,0,1,2.095-2.192c1.943-.489,3.9-.932,5.841-1.422.354-.089.477.014.61.317a4.833,4.833,0,0,0,8.946,0c.132-.3.256-.407.611-.317,1.916.484,3.843.926,5.76,1.4a2.742,2.742,0,0,1,2.231,2.537c.22,1.966.411,3.935.615,5.9H77.226" transform="translate(-51.658 -136.585)" fill="#abccf9"/><path d="M5.844,124.287a1.414,1.414,0,0,0,1.612-.838,4.608,4.608,0,0,1,3.077-2.3c2.08-.51,4.168-.984,6.244-1.506a.745.745,0,0,1,1.009.479c1.261,2.47,2.567,4.918,3.86,7.371.706,1.34,1.581,1.393,2.463.153.459-.645.912-1.294,1.5-2.132v8.657q-9.272,0-18.544-.011c-.384,0-.768-.021-1.152-.031.152-1.554.285-3.11.465-4.661a1.255,1.255,0,0,0-1.021-1.593l.483-3.589" transform="translate(-3.586 -79.999)" fill="#ef996e"/><path d="M54.632,8.2a1.441,1.441,0,0,0,.551,1.737c2.65,1.907,3.229,4.646,3,7.671a23.907,23.907,0,0,1-.485,2.837c-.038.188-.007.5-.266.546-.238.044-.359-.22-.508-.369a5.235,5.235,0,0,1-1.323-3.38c-.056-.574-.116-1.148-.2-1.718-.162-1.1-.67-1.483-1.753-1.263a35.058,35.058,0,0,1-14.153-.032,1.174,1.174,0,0,0-1.563,1.106c-.124.9-.224,1.8-.345,2.7a4.672,4.672,0,0,1-1.745,3.064,9.166,9.166,0,0,1-.633-2.678,11.316,11.316,0,0,1,.089-4.262,4.517,4.517,0,0,1,2.022-2.9,1.471,1.471,0,0,0,.752-.841C38.686,8,40.582,7.311,42.714,7a18.684,18.684,0,0,1,6.706.413c.8.174,1.542.21,1.992-.658A11.818,11.818,0,0,1,54.632,8.2" transform="translate(-23.444 -4.518)" fill="#6a5a62"/><path d="M73.681,134.118v-8.452a11.486,11.486,0,0,1,1.451,1.909c.927,1.27,1.778,1.219,2.512-.179,1.29-2.456,2.586-4.909,3.856-7.375.222-.431.432-.6.942-.44.778.246,1.586.4,2.494.613-.412.425-.676.873-1.181,1.059-3.841,1.418-5.2,4.9-4.882,8.61.123,1.46.595,2.838.854,4.264l-6.046-.011" transform="translate(-49.287 -79.95)" fill="#ed986d"/><path d="M1.774,144.609A1.255,1.255,0,0,1,2.8,146.2c-.179,1.55-.312,3.107-.465,4.661-.27.9-.75,1.285-1.414,1.139-.692-.153-1-.715-.9-1.593q.24-2.16.45-4.323c.079-.819.364-1.434,1.308-1.476" transform="translate(0.001 -96.732)" fill="#040303"/><path d="M146.533,57.93a7.5,7.5,0,0,1-4.444-1.941,14.082,14.082,0,0,1-5.67-11.132.819.819,0,0,1,.337-.77,5.99,5.99,0,0,0,1.93-2.72.826.826,0,0,1,.633-.55,22.212,22.212,0,0,0,6.771-3.489.667.667,0,0,1,.983.007,21.6,21.6,0,0,0,6.616,3.429,1.142,1.142,0,0,1,.844.774,5.478,5.478,0,0,0,1.816,2.5.919.919,0,0,1,.4.9c-.4,5.47-2.809,9.676-7.7,12.34a4.979,4.979,0,0,1-2.522.652m.027-4.142a8.072,8.072,0,0,0,3.21-.619,1.186,1.186,0,0,0,.831-1.55,1.172,1.172,0,0,0-1.649-.6A6.527,6.527,0,0,1,144.136,51a1.125,1.125,0,0,0-1.626.626c-.236.623.037,1.167.769,1.5a7.9,7.9,0,0,0,3.281.666m-3.021-9.047a1.445,1.445,0,0,0-2.888.085,1.445,1.445,0,0,0,2.888-.085m7.53-1.4a1.441,1.441,0,1,0,1.412,1.5,1.46,1.46,0,0,0-1.412-1.5" transform="translate(-91.252 -24.828)" fill="#f2cfa7"/><path d="M59.644,44.748c-.4,5.668-2.859,9.825-7.729,12.451a4.876,4.876,0,0,1-4.886-.014c-5-2.7-7.4-7-7.726-12.583a1.032,1.032,0,0,1,.364-.942,8.29,8.29,0,0,0,3.194-6.181c.019-.506.232-.559.673-.484a36.285,36.285,0,0,0,11.91.013c.446-.072.665-.025.683.485a7.8,7.8,0,0,0,2.894,5.883c.5.423.817.893.624,1.372m-7.2,9.623a13.423,13.423,0,0,0,2.131-.267A1.152,1.152,0,0,0,55.595,52.9a4.857,4.857,0,0,0-5.141-4.765,11.594,11.594,0,0,1-1.885.007A4.787,4.787,0,0,0,43.4,52.755a1.167,1.167,0,0,0,1.1,1.37,6.3,6.3,0,0,0,2.131.169,12.921,12.921,0,0,1,5.809.077m.072-9.725a1.461,1.461,0,0,0,1.447,1.472,1.443,1.443,0,0,0,1.432-1.4,1.459,1.459,0,0,0-1.359-1.477,1.477,1.477,0,0,0-1.52,1.4m-7.53-1.406a1.446,1.446,0,0,0-1.41,1.5,1.424,1.424,0,1,0,1.41-1.5" transform="translate(-26.287 -24.728)" fill="#f2cea7"/><path d="M127.051,21.187c.316-3.371.793-6.8,2.493-9.912A7.3,7.3,0,0,1,135.4,7.108a5.478,5.478,0,0,1,4.041,1.047,1.2,1.2,0,0,0,1.652.057c2.185-1.855,5.8-1.251,7.731.332,2.159,1.772,3.095,4.227,3.793,6.8a29.14,29.14,0,0,1,.929,6.266.675.675,0,0,1-.035.382,3.756,3.756,0,0,1-2.242-.059A4.042,4.042,0,0,1,150.218,20a1.666,1.666,0,0,0-1.3-1.309,20.275,20.275,0,0,1-7.543-3.949c-.9-.749-1.237-.729-2.156.021a19.857,19.857,0,0,1-7.322,3.848,1.854,1.854,0,0,0-1.568,1.569,3.087,3.087,0,0,1-.384.907,1.872,1.872,0,0,1-2.671.98c-.243-.1-.243-.1-.222-.877" transform="translate(-84.981 -4.726)" fill="#6a5a62"/><path d="M111.99,154.835a9.269,9.269,0,0,1-5.024,7.947,2.873,2.873,0,0,1-2.837.025,9.148,9.148,0,0,1-5.059-7.776,1.166,1.166,0,0,1,.389-1.094,5.308,5.308,0,0,0,1.887-3.461c.056-.482.3-.568.732-.512a26.019,26.019,0,0,0,6.9,0c.446-.06.658.072.712.538a5.292,5.292,0,0,0,1.838,3.4c.323.29.565.6.459.937" transform="translate(-66.263 -100.302)" fill="#f9dfa6"/><path d="M109.448,78.7a1.477,1.477,0,0,0,1.679-1.005c.555-1.135,1.188-2.231,1.764-3.356.193-.377.372-.493.739-.2a4.209,4.209,0,0,0,2.436.9.731.731,0,0,1,.7.563,15.749,15.749,0,0,0,4.478,6.232.971.971,0,0,1,.4.916c-.082.848-.16,1.7-.182,2.547a.71.71,0,0,1-.649.78c-3.207.748-6.413,1.5-9.61,2.287-.43.105-.531-.071-.642-.385a13.047,13.047,0,0,1-.831-4.266,1.34,1.34,0,0,0-1.165-1.533,14.6,14.6,0,0,1,.882-3.481" transform="translate(-72.622 -49.483)" fill="#6a5a62"/><path d="M197.892,83.4a13.055,13.055,0,0,1-.769,4.441c-.171.524-.39.58-.893.455-3.089-.766-6.186-1.5-9.283-2.225-.444-.1-.707-.245-.722-.787-.025-.875-.158-1.747-.256-2.62a.747.747,0,0,1,.282-.723,15.7,15.7,0,0,0,4.681-6.474.61.61,0,0,1,.6-.447,4.37,4.37,0,0,0,2.516-.914c.26-.206.453-.278.644.081,1.225,2.3,2.62,4.521,3.058,7.162a18.358,18.358,0,0,1,.141,2.051" transform="translate(-124.393 -49.459)" fill="#6a5a62"/><path d="M160.557,108.314a17.577,17.577,0,0,1-6.122,8.059.69.69,0,0,1-.938.01,17.64,17.64,0,0,1-5.963-7.635c-.154-.351-.054-.492.291-.557.269-.051.532-.137.8-.2a1.193,1.193,0,0,0,1.025-1.208c.06-.851.161-1.7.225-2.548.033-.434.166-.494.558-.284a7.093,7.093,0,0,0,7.017.026c.478-.251.6-.17.614.354.017.686.112,1.37.16,2.056.081,1.157.3,1.43,1.411,1.7l.922.226" transform="translate(-98.642 -69.459)" fill="#f1b989"/><path d="M110.724,137.835a1.994,1.994,0,0,1-.649-1.379,2.7,2.7,0,0,0-3.362-2.5,25.8,25.8,0,0,1-6.491-.045,2.677,2.677,0,0,0-3.059,2.327,2.666,2.666,0,0,1-.558,1.522c-1.018-3.047-.231-6.935,3.589-7.906a13.563,13.563,0,0,1,6.526-.07c2.794.659,4.189,2.454,4.286,5.378a11.547,11.547,0,0,1-.281,2.675" transform="translate(-64.349 -86.57)" fill="#c09071"/><path d="M65.454,103.626a12.036,12.036,0,0,1,.264,2.309c.039.3-.185.433-.375.588-1.149.937-2.307,1.864-3.44,2.819a.527.527,0,0,1-.825,0c-1.153-.975-2.318-1.937-3.513-2.86-.4-.306-.323-.652-.29-1.024.05-.574-.091-1.4.225-1.657.4-.33.972.348,1.5.518a7.415,7.415,0,0,0,5.535-.253c.3-.135.586-.282.918-.443" transform="translate(-38.293 -69.317)" fill="#f1b989"/><path d="M116.024,196.706a2.51,2.51,0,1,1-4.989-.027c0-.055.006-.109.009-.164.051-.992.051-.993.963-.714a4.672,4.672,0,0,0,3.145-.046c.753-.3.913-.06.857.623a2.49,2.49,0,0,0,.015.328" transform="translate(-74.271 -130.859)" fill="#edcf96"/><path d="M52.366,123.318l-3.08-5.862c-.083-.159-.13-.368.082-.4.429-.064.843-.415,1.311-.007.825.72,1.691,1.395,2.541,2.086,1.335,1.087,1.336,1.086.336,2.5-.363.514-.727,1.026-1.191,1.68" transform="translate(-32.921 -78.166)" fill="#e88459"/><path d="M77.219,123.264c-.676-.964-1.3-1.866-1.936-2.754a.379.379,0,0,1,.084-.616c1.218-.983,2.427-1.978,3.642-2.965.433-.352.887-.067,1.224.11.359.188-.031.521-.147.747-.925,1.8-1.876,3.594-2.867,5.479" transform="translate(-50.277 -78.104)" fill="#e88459"/><path d="M125.436,60.753a1.561,1.561,0,0,1,.288-1.093.824.824,0,0,1,.822-.262c.332.081.213.4.241.622.1.759.182,1.518.269,2.278.02.176.18.4-.028.516-.177.1-.369-.06-.528-.156a2.136,2.136,0,0,1-1.062-1.905" transform="translate(-83.906 -39.715)" fill="#e7b184"/><path d="M106.692,62.854c.108-.947.193-1.814.311-2.676.038-.279-.185-.722.352-.765a.842.842,0,0,1,.9.576,2.2,2.2,0,0,1-1.56,2.866" transform="translate(-71.368 -39.74)" fill="#e7b184"/><path d="M203.778,62.825c.112-1.044.226-2.071.329-3.1.023-.231.112-.347.357-.338a.869.869,0,0,1,.837.547,2.176,2.176,0,0,1-1.524,2.89" transform="translate(-136.311 -39.725)" fill="#e7b184"/><path d="M28.317,60.747a1.763,1.763,0,0,1,.289-1.039.807.807,0,0,1,.808-.3c.368.061.229.384.26.6.107.76.2,1.522.278,2.284.018.173.17.4-.045.522-.187.1-.37-.062-.526-.159a2.321,2.321,0,0,1-1.064-1.907" transform="translate(-18.942 -39.729)" fill="#e7b184"/><path d="M158.705,81.583a7.912,7.912,0,0,1-3.281-.667c-.731-.329-1-.873-.769-1.5a1.125,1.125,0,0,1,1.626-.626,6.525,6.525,0,0,0,4.817.022,1.172,1.172,0,0,1,1.649.6,1.187,1.187,0,0,1-.831,1.55,8.1,8.1,0,0,1-3.21.62" transform="translate(-103.397 -52.622)" fill="#040303"/><path d="M152.092,57.312a1.445,1.445,0,1,1-1.529-1.4,1.482,1.482,0,0,1,1.529,1.4" transform="translate(-99.805 -37.4)" fill="#040303"/><path d="M177.765,55.917a1.46,1.46,0,0,1,1.412,1.5,1.426,1.426,0,1,1-1.412-1.5" transform="translate(-117.948 -37.403)" fill="#040303"/><path d="M60.717,76.9a12.917,12.917,0,0,0-5.809-.077,6.3,6.3,0,0,1-2.131-.169,1.167,1.167,0,0,1-1.1-1.37,4.787,4.787,0,0,1,5.172-4.617,11.594,11.594,0,0,0,1.885-.007,4.857,4.857,0,0,1,5.141,4.765,1.153,1.153,0,0,1-1.025,1.207,13.462,13.462,0,0,1-2.131.267m.533-2.445a1.952,1.952,0,0,0-1.936-1.441c-1.035.018-2.066.046-3.1,0a1.879,1.879,0,0,0-1.713.967c-.222.35-.2.534.281.551a4.322,4.322,0,0,0,2.156-.445,1.738,1.738,0,0,1,1.718.023,3.984,3.984,0,0,0,2.6.346" transform="translate(-34.565 -47.26)" fill="#040303"/><path d="M79.206,57.32a1.477,1.477,0,0,1,1.52-1.4,1.458,1.458,0,0,1,1.359,1.477,1.442,1.442,0,0,1-1.432,1.4,1.461,1.461,0,0,1-1.447-1.472" transform="translate(-52.982 -37.401)" fill="#040303"/><path d="M53.61,55.916a1.44,1.44,0,1,1-1.41,1.5,1.446,1.446,0,0,1,1.41-1.5" transform="translate(-34.917 -37.403)" fill="#040303"/><path d="M66.684,79.235a3.984,3.984,0,0,1-2.6-.346,1.738,1.738,0,0,0-1.718-.023,4.322,4.322,0,0,1-2.156.445c-.484-.017-.5-.2-.281-.551a1.879,1.879,0,0,1,1.713-.967c1.036.047,2.067.019,3.1,0a1.952,1.952,0,0,1,1.936,1.441" transform="translate(-39.999 -52.036)" fill="#6a5a62"/></g></g></g></g></svg>