<svg xmlns="http://www.w3.org/2000/svg" xmlns:xlink="http://www.w3.org/1999/xlink" width="299.56" height="292.553" viewBox="0 0 299.56 292.553"><defs><clipPath id="a"><rect width="299.56" height="292.553" transform="translate(0 35)" fill="none"/></clipPath></defs><g transform="translate(-285 -7422.238)"><g transform="translate(285 7387.238)"><g clip-path="url(#a)"><path d="M201.247,30.127l-.763.015H54.293c9.75-11.789,28.737-15.249,41.742-6.9,7.179-8.222,15.108-16.26,25.17-20.5s22.755-3.908,30.808,3.474c5,4.578,7.6,11.151,10.045,17.475,11.808-8.91,30.84-5.793,39.189,6.433" transform="translate(-28.824 39.57)" fill="#fedede"/><path d="M211.541,72.162H122.666c6.242-6.737,13.606-13.834,22.74-13.7,6.724.084,12.688,4.168,17.834,8.5a42.685,42.685,0,0,1,18.631-11.944,24.053,24.053,0,0,1,11.907-1.06c8.676,1.771,14.183,9.845,17.762,18.209" transform="translate(83.426 36.453)" fill="#fedede"/><path d="M91.931,91.729H3.056C9.3,84.992,16.662,77.9,25.8,78.028c6.724.084,12.688,4.168,17.834,8.495A42.7,42.7,0,0,1,62.261,74.581a24.053,24.053,0,0,1,11.907-1.06c8.676,1.771,14.184,9.845,17.762,18.209" transform="translate(2.078 49.761)" fill="#fedede"/><path d="M158.611,76.827a51.281,51.281,0,0,1,3.888,20.84c-.15,6.121-1.4,12.161-1.841,18.266a12.032,12.032,0,0,0,.539,5.539c1.445,3.444,5.375,4.948,8.738,6.573A38.122,38.122,0,0,1,189.3,149c3.291,9.182,2.347,19.933-3.071,28.044a13.387,13.387,0,0,1-4.407,4.43c-2.265,1.263-4.961,1.447-7.554,1.482a154.71,154.71,0,0,1-19.2-1.26q-17.487-1.946-34.882-4.619c-1.3-.2-2.75-.5-3.469-1.6a4.7,4.7,0,0,1-.549-2.371,220.127,220.127,0,0,1,10.746-79.639c3.212-9.756,7.159-20.034,13.745-28.07,6.425-7.839,15.63,5.808,17.96,11.421" transform="translate(78.817 42.871)" fill="#ffcb7d"/><path d="M36.341,262.92,18.1,200.229c-.328-1.075-.591-2.009-.81-2.74l-.281-.951c-.077-.281-.139-.514-.186-.685l-.062-.186c-.032-.109-.047-.171-.047-.171a1.517,1.517,0,0,1-.358-.077C5.58,193.3-1.01,162.662,6.856,142.038a53.588,53.588,0,0,1,25.4-28.611L62.648,96.279l2.211-1.247,39.032,8.348,1.838.39,19.953,4.173,18.021,3.77,1.791,20.933,1.2,14.19,2.522,29.641.593,6.821.654,7.757,2.445,28.721.062.748,1.09,12.833,2.524,29.563Z" transform="translate(2.314 64.632)" fill="#fedede"/><path d="M85.886,88.363l-3.355,21.825-.951,6.237s4.046,21.667-11.875,23.942c-12.8,1.828-31.077-32.791-31.077-32.791l5.3-29.308,13.673,3.3Z" transform="translate(26.271 53.23)" fill="#ffa3a3"/><path d="M78.909,87.028l-3.355,21.825a20.292,20.292,0,0,1-8.345-1.781c-7.675-3.325-18.485-12.041-18.32-21.395a8.9,8.9,0,0,1,1.736-5.449Z" transform="translate(33.249 54.565)" fill="#2d1026"/><path d="M122.868,98.173c-1.381,8.577-1.917,24.767-13.811,28.481-18.473,5.768-55.768-4.946-55.768-4.946a64.954,64.954,0,0,1-3.364-12.638c-.052.922-5.68.234-8.925-.328-1.114-.218-1.942-.4-2.189-.482a16.283,16.283,0,0,1-7.505-6.038c-3.728-5.6-3.051-13.557,2.182-17.969a12.642,12.642,0,0,1,1.989-1.371c.228-.134.475-.265.719-.383,0-.018.017,0,.017,0a9.321,9.321,0,0,1,6.317-.86c1.107.282,3.752,1.206,4.817,2.515a2.763,2.763,0,0,1,.217.269,1.731,1.731,0,0,1,.26.793c-.018-.2-.018-.42-.02-.623a86.654,86.654,0,0,1,.549-16.88A37.418,37.418,0,0,1,83.87,37.074a59.768,59.768,0,0,1,8.036.3c.788.057,1.539.148,2.305.27.351.044.714.123,1.082.185a2.958,2.958,0,0,1,.43.082l.365.077c.418.082.833.163,1.245.26a35.331,35.331,0,0,1,7.512,2.564A33.368,33.368,0,0,1,121.01,57.032c2.952,6.3,3.972,13.206,3.973,20.2a132.621,132.621,0,0,1-2.115,20.943" transform="translate(19.691 25.197)" fill="#ffa3a3"/><path d="M57.88,63.4a1.349,1.349,0,0,0,.213.974,2.683,2.683,0,0,0,1.687.8,29.944,29.944,0,0,0,6.179.573,9.182,9.182,0,0,0,3.4-.538,3.067,3.067,0,0,0,2.03-2.282c.558-5.571-12.891-4.214-13.51.475" transform="translate(39.355 40.319)" fill="#2d1026"/><path d="M89.691,65.346a1.346,1.346,0,0,1-.309.948,2.68,2.68,0,0,1-1.759.623,29.809,29.809,0,0,1-6.2-.049,9.172,9.172,0,0,1-3.33-.874A3.068,3.068,0,0,1,76.3,63.522c0-5.6,13.248-2.9,13.394,1.825" transform="translate(51.89 41.067)" fill="#2d1026"/><path d="M75.75,79.591a25.429,25.429,0,0,1-4.489-.4.37.37,0,1,1,.131-.729A24.511,24.511,0,0,0,76,78.847a1.051,1.051,0,0,0,.692-.161c.158-.163.131-.5.079-.84a93.24,93.24,0,0,0-2.228-10.44.371.371,0,1,1,.716-.195,93.823,93.823,0,0,1,2.246,10.524,1.709,1.709,0,0,1-.279,1.467,1.662,1.662,0,0,1-1.218.388l-.259,0" transform="translate(48.258 45.524)" fill="#2d1026"/><path d="M75.446,80.231a8.3,8.3,0,0,1-2.224-.3,8.508,8.508,0,0,1-5.265-4.378.371.371,0,0,1,.667-.326A7.644,7.644,0,0,0,79.6,78.3a.371.371,0,1,1,.4.625,8.5,8.5,0,0,1-4.55,1.311" transform="translate(46.192 51.02)" fill="#2d1026"/><path d="M67.488,69.221a3.606,3.606,0,1,1-3.464-3.742,3.606,3.606,0,0,1,3.464,3.742" transform="translate(40.997 44.531)" fill="#2d1026"/><path d="M84.221,70.11a3.606,3.606,0,1,1-3.464-3.742,3.606,3.606,0,0,1,3.464,3.742" transform="translate(52.377 45.136)" fill="#2d1026"/><path d="M47.321,83.691a.381.381,0,0,1-.373-.329,32.658,32.658,0,0,0-2.04-8.3,13.638,13.638,0,0,0-5.192-6.383,8.235,8.235,0,0,0-7.764-.59.382.382,0,0,1-.336-.687,9,9,0,0,1,8.493.623,14.354,14.354,0,0,1,5.5,6.737A33.179,33.179,0,0,1,47.7,83.255a.379.379,0,0,1-.326.43.328.328,0,0,1-.057.005" transform="translate(21.357 45.305)" fill="#2d1026"/><path d="M115.834,48.584c1.658,2.609,2.493,5.927-1.473,7.29l-.067.022a12.3,12.3,0,0,1-6.893-.267,26.784,26.784,0,0,0-6.845-1.342c-3.975.029-7.735,2.342-11.7,2.03-5.008-.4-8.861-4.824-13.789-5.8a2.283,2.283,0,0,0-3.132,1.769c-2.013,6.2,1.453,13.044.05,19.41a15.293,15.293,0,0,1-7.552,9.721c-1.836,1.037-3.948,1.828-5.155,3.558-1.569,2.251-1.094,5.336-2.056,7.907a5.041,5.041,0,0,1-4.318,3.483c-1.947.018-3.592-1.489-4.6-3.154s-1.6-3.565-2.7-5.171a10,10,0,0,0-11.053-3.748c.617-6.423,1.042-12.89,2.638-19.143,1.563-6.111,3.636-12.2,7.29-17.345,3-4.219,7.451-8.562,12.23-10.709,5.129-2.307,11.924-2.769,17.468-2.979,13.174-.5,30.85,2.2,40.151,12.5a14.9,14.9,0,0,1,1.5,1.969" transform="translate(23.501 23.162)" fill="#2d1026"/><path d="M99.745,93.605c-.853,5.212-1.151,10.8-4.214,15.106-1.808,2.542-4.419,4.373-6.759,6.438-12.865,11.344-17.309,31.238-10.494,46.978,1.305,3.016,3.068,5.973,5.8,7.8,2.925,1.957,6.581,2.381,10.084,2.7a423.943,423.943,0,0,0,54.558,1.541c7.124-23.327,7.9-48.058,8.317-72.445.116-6.757.2-13.59-1.282-20.185-2.236-9.938-8.564-19.372-17.976-23.271-8.288-3.434-17.789-1.226-24.756,4.11-4.718,3.614-6.069,9.168-8.149,14.462-2.162,5.506-4.167,10.894-5.128,16.762" transform="translate(51.077 38.51)" fill="#ffcb7d"/><path d="M234.861,220.549v1.4c0,10.373-.124,20-.265,27.616H60.432V237.231s.685-10.654,1.7-23.972c1.2-15.949,2.866-35.729,4.377-45.776,2.772-18.456,9.814-32.085,21.354-39.935.716-.484,1.448-.966,2.211-1.4a69.374,69.374,0,0,1,16.635-6.853,137.614,137.614,0,0,1,28.831-4.578c.795-.032,1.215-.047,1.215-.047l17.181.638,9.22.358,13.518.5.265.015s2.446.3,6.309,1.09c1.324.265,2.8.593,4.407.966.795.2,1.6.4,2.461.638h.015c1.589.4,3.271.872,5,1.418.234.062.467.139.716.217,10.623,3.38,23.068,9.081,29.859,18.38a26.255,26.255,0,0,1,2.2,3.488.772.772,0,0,1,.077.171,2.657,2.657,0,0,1,.156.3c.062.109.109.218.171.313.109.264.234.514.343.778a23.066,23.066,0,0,1,.981,2.571c2.275,7.2,3.614,20.311,4.377,35.309v.015c.171,3.646.328,7.384.437,11.184.062,1.947.124,3.925.155,5.887v.032c.156,6.479.235,13.021.25,19.343.015.764.015,1.512.015,2.275" transform="translate(41.1 77.986)" fill="#6f66ff"/><path d="M146.471,131.124s-3.8,17.06-20.86,14.015c-17.06-3.029-20.652-14.209-20.652-14.209l.4-9.338.491-11.181.059-1.277,40.146-8.076Z" transform="translate(71.384 68.731)" fill="#ffa3a3"/><path d="M134.847,105.388c-2.361,5.6-7.72,9.531-13.5,11.431-5.181,1.709-10.689,1.961-16.153,1.826l.489-11.179a210.417,210.417,0,0,0,29.16-2.078" transform="translate(71.546 71.676)" fill="#2d1026"/><path d="M91.637,107.072c-.353,7.986-2.078,25.536,7.95,31.1,15.573,8.636,48.775,8.086,48.775,8.086s5.328-10.859,6.983-15.79c-.126.84,5.074,1.267,8.1,1.364,1.043.012,1.825,0,2.061-.027a14.985,14.985,0,0,0,7.888-4.044c4.4-4.357,5.272-11.65,1.378-16.6a11.718,11.718,0,0,0-1.537-1.6c-.181-.163-.378-.329-.578-.481,0-.015-.015,0-.015,0a8.6,8.6,0,0,0-5.533-1.951c-1.05.05-3.606.388-4.81,1.371a2.724,2.724,0,0,0-.244.2,1.588,1.588,0,0,0-.383.667c.054-.18.1-.376.134-.559a79.719,79.719,0,0,0,2.646-15.314,34.429,34.429,0,0,0-26.306-34.22,54.681,54.681,0,0,0-7.3-1.23c-.721-.092-1.415-.153-2.129-.183-.323-.027-.667-.024-1.008-.037a3.3,3.3,0,0,0-.4-.007c-.109,0-.218,0-.343,0-.39-.005-.78-.008-1.171,0a32.527,32.527,0,0,0-7.246.914,30.7,30.7,0,0,0-17.587,11.61A43.424,43.424,0,0,0,93.628,87.8a121.889,121.889,0,0,0-1.991,19.268" transform="translate(62.096 39.314)" fill="#ffa3a3"/><path d="M96.5,77.442a3.8,3.8,0,0,0-1.487,1.169,1.348,1.348,0,0,0,.045,1.657,2.089,2.089,0,0,0,.887.5,9.907,9.907,0,0,0,2.45.36l2.275.141a7.732,7.732,0,0,0,2.282-.084,2.207,2.207,0,0,0,1.647-1.265c.529-1.638-1.925-2.927-3.392-3.362a6.329,6.329,0,0,0-4.706.885" transform="translate(64.445 51.949)" fill="#ffcb7d"/><path d="M120.133,81.333a3.791,3.791,0,0,1,1.062,1.564,1.344,1.344,0,0,1-.546,1.564,2.09,2.09,0,0,1-1,.208,9.949,9.949,0,0,1-2.443-.4L115,83.716a7.75,7.75,0,0,1-2.151-.771,2.2,2.2,0,0,1-1.183-1.7c-.01-1.722,2.72-2.208,4.249-2.177a6.335,6.335,0,0,1,4.219,2.27" transform="translate(75.945 53.771)" fill="#ffcb7d"/><path d="M103.744,95.522a.39.39,0,0,1-.123-.02,5.4,5.4,0,0,1-3.187-2.307,4.233,4.233,0,0,1,.111-3.7,11.72,11.72,0,0,1,2.162-2.868l2.1-2.26a.372.372,0,0,1,.546.506l-2.105,2.26a11.26,11.26,0,0,0-2.036,2.68,3.5,3.5,0,0,0-.123,3.039,4.733,4.733,0,0,0,2.772,1.946.371.371,0,0,1-.121.722" transform="translate(68.052 57.3)" fill="#2d1026"/><path d="M105.572,95.195c-.218,0-.428-.005-.628-.013-1.344-.06-3.755-.442-4.807-2.305a.372.372,0,0,1,.649-.365c.874,1.551,3,1.873,4.192,1.927a10.26,10.26,0,0,0,6.139-1.5.371.371,0,1,1,.41.618,10.749,10.749,0,0,1-5.954,1.64" transform="translate(68.072 62.789)" fill="#2d1026"/><path d="M110.636,86.64a3.318,3.318,0,1,0,3.819-2.727,3.319,3.319,0,0,0-3.819,2.727" transform="translate(75.214 57.039)" fill="#2d1026"/><path d="M95.617,84.552a3.318,3.318,0,1,0,3.819-2.727,3.318,3.318,0,0,0-3.819,2.727" transform="translate(64.999 55.619)" fill="#2d1026"/><path d="M130.623,103.712a.353.353,0,0,0,.4-.228,30.136,30.136,0,0,1,3.38-7.1A12.565,12.565,0,0,1,140.27,91.6a7.581,7.581,0,0,1,7.105.912.352.352,0,1,0,.43-.556,8.286,8.286,0,0,0-7.769-1.02,13.238,13.238,0,0,0-6.211,5.049,30.592,30.592,0,0,0-3.468,7.263.35.35,0,0,0,.213.449.356.356,0,0,0,.052.015" transform="translate(88.643 61.492)" fill="#2d1026"/><path d="M148.01,109.465a84.062,84.062,0,0,0-10.566,7.44,65.5,65.5,0,0,1,.1-13.322,2.067,2.067,0,0,0-.195-1.416,2.169,2.169,0,0,0-1.349-.659,16.187,16.187,0,0,1-12.1-14.39,2.869,2.869,0,0,0-.4-1.645,2.831,2.831,0,0,0-1.052-.707,17.37,17.37,0,0,1-8.814-19.646c.949-3.4,3.915-6.337,6.45-8.789a100.322,100.322,0,0,1,24.921,9.2c5.585,2.989,11.09,6.727,14.157,12.27,2.636,4.77,3.2,10.469,2.55,15.879a80.162,80.162,0,0,1-3.658,16.685c-2.641-1.3-7.5-2.379-10.045-.9" transform="translate(76.9 38.311)" fill="#ffcb7d"/><path d="M117.633,54.538c-7.6-.375-15.576.341-22.041,4.143-1.764,1.037-3.478,2.418-4.032,4.313s.59,4.313,2.651,4.546a13.277,13.277,0,0,0-2.688,5.665,6.127,6.127,0,0,0,1.956,5.711c2.154,1.737,5.338,1.521,8.128,1.082A71.651,71.651,0,0,0,125.7,71.987c4.8-2.713,17.088-10.037,7.779-14.746-4.548-2.3-10.8-2.455-15.843-2.7" transform="translate(62.176 37.032)" fill="#ffcb7d"/><path d="M205.491,238.581H122.535c1.356-4.6,3.239-10.966,5.452-18.332q.723-2.477,1.5-5.094,1.308-4.322,2.695-8.925c1.93-6.433,3.972-13.192,6.043-19.889.03-.109.062-.234.109-.36s.077-.279.124-.42c6.416-20.917,12.834-41.2,16.121-49.53.343-.872.654-1.6.934-2.213V133.8c.047-.109.109-.218.156-.326a4.134,4.134,0,0,1,.84-1.371c2.461-1.823,16.433-1.324,24.968-.827,1.371.079,2.586.156,3.6.235.235.015.467.03.67.045,1.386.094,2.258.156,2.4.171h.015s15.917,21.027,16.292,36.384c.3,11.978.825,52.972,1.043,70.464" transform="translate(83.337 88.972)" fill="#ffcb7d"/><path d="M174.271,131.36s-18.5,13.511-25.492,10.912a8.227,8.227,0,0,1-5.642-6.131,8.428,8.428,0,0,1-.119-3.044l27.616-1.529Z" transform="translate(97.211 89.339)" fill="#ffa3a3"/><path d="M170.634,131.484c-3.281,3.785-8.359,5.568-13.288,6.621-3.431.727-7.068,1.173-10.423.119a10.362,10.362,0,0,1-3.785-2.167,8.429,8.429,0,0,1-.119-3.044Z" transform="translate(97.211 89.424)" fill="#2d1026"/><path d="M133.61,132.191c-.271,6.137-1.378,14.336,4.355,21.494,8.555,10.679,42.834,2.843,42.834,2.843a52.123,52.123,0,0,1,1.751-6.331c-.139.865,7.087,1.151,7.8,1.023a11.437,11.437,0,0,0,6.067-3.1,9.74,9.74,0,0,0,1.062-12.747,7.5,7.5,0,0,0-5.882-3.107,7.642,7.642,0,0,0-3.7,1.045,1.2,1.2,0,0,0-.477.665,63.214,63.214,0,0,0,2.14-12.184,26.458,26.458,0,0,0-20.2-26.3,41.384,41.384,0,0,0-5.6-.958c-.553-.066-1.085-.119-1.635-.141-.255-.018-.516-.015-.775-.024a2.465,2.465,0,0,0-.312-.007c-.087,0-.175.005-.26,0-.3-.005-.6-.01-.909,0a23.9,23.9,0,0,0-19.086,9.615,33.356,33.356,0,0,0-5.64,13.417,93.459,93.459,0,0,0-1.536,14.8" transform="translate(90.689 64.174)" fill="#ffa3a3"/><path d="M133.737,132.191c-.271,6.137-2.325,13.958,3.407,21.114,8.553,10.679,44.162,2.275,44.162,2.275a24.455,24.455,0,0,1,1.371-5.383c-.139.865,7.087,1.151,7.8,1.023a11.437,11.437,0,0,0,6.067-3.1,9.74,9.74,0,0,0,1.062-12.747,7.5,7.5,0,0,0-5.882-3.107,7.642,7.642,0,0,0-3.7,1.045,1.2,1.2,0,0,0-.477.665,63.212,63.212,0,0,0,2.14-12.184,26.458,26.458,0,0,0-20.2-26.3,41.384,41.384,0,0,0-5.6-.958c-.553-.066-1.085-.119-1.635-.141-.255-.018-.516-.015-.775-.024a2.465,2.465,0,0,0-.312-.007c-.087,0-.175.005-.26,0-.3-.005-.6-.01-.909,0a23.9,23.9,0,0,0-19.086,9.615,33.356,33.356,0,0,0-5.64,13.417,93.459,93.459,0,0,0-1.536,14.8" transform="translate(90.563 64.174)" fill="#ffa3a3"/><path d="M143.672,123.292a6.032,6.032,0,0,0,4.684-1.326.388.388,0,1,0-.506-.588,5.316,5.316,0,0,1-4.242,1.119,5.848,5.848,0,0,1-1.867-.635.388.388,0,1,0-.371.682,6.675,6.675,0,0,0,2.114.721l.188.027" transform="translate(96.009 82.487)" fill="#2d1026"/><path d="M148.379,117.313a3.008,3.008,0,1,0,3.355-2.616,3.01,3.01,0,0,0-3.355,2.616" transform="translate(100.899 77.991)" fill="#2d1026"/><path d="M135.518,116.255a3.008,3.008,0,1,0,3.355-2.616,3.007,3.007,0,0,0-3.355,2.616" transform="translate(92.152 77.272)" fill="#2d1026"/><path d="M163.555,129.63a.27.27,0,0,0,.306-.175,23.14,23.14,0,0,1,2.6-5.452,9.643,9.643,0,0,1,4.509-3.674,5.82,5.82,0,0,1,5.459.7.271.271,0,0,0,.331-.428,6.36,6.36,0,0,0-5.968-.785,10.154,10.154,0,0,0-4.775,3.874,23.529,23.529,0,0,0-2.666,5.58.268.268,0,0,0,.165.344.17.17,0,0,0,.039.012" transform="translate(111.086 81.219)" fill="#2d1026"/><path d="M142,122.835a.39.39,0,0,1-.123-.02,2.064,2.064,0,0,1-1.27-1.6,4.21,4.21,0,0,1,.17-1.9,10.826,10.826,0,0,1,2-3.858.371.371,0,1,1,.576.467,10.128,10.128,0,0,0-1.863,3.594,3.5,3.5,0,0,0-.156,1.561,1.335,1.335,0,0,0,.786,1.04.372.372,0,0,1-.123.722" transform="translate(95.594 78.425)" fill="#2d1026"/><path d="M173.111,130.042a21.8,21.8,0,0,0-8.8,2.875,8.468,8.468,0,0,1-3.678-12.928c-3.854-2.339-4.64-7.947-2.767-12.048s5.706-6.944,9.6-9.226c2.119-1.242,5.314.728,6.536,2.86a20.224,20.224,0,0,1,2.167,7.539c.86,6.673-1.712,14.336-3.056,20.929" transform="translate(106.706 66.874)" fill="#2d1026"/><path d="M155.632,92.449a29.1,29.1,0,0,0-9.992,1.988,15.734,15.734,0,0,0-5.724,3.955,21.419,21.419,0,0,0-3.229,5.39,16.961,16.961,0,0,0-1.967,7.107,3.9,3.9,0,0,0,1.195,3.075c1.173.956,3,.771,4.39.109s2.518-1.71,3.852-2.456c-.7,2.077,1.191,4.315,3.439,4.869s4.625-.143,6.736-1.055a31.173,31.173,0,0,0,11.193-8.155c.017,1.875.1,3.92,1.388,5.351a6.525,6.525,0,0,0,4.862,1.771A15.315,15.315,0,0,0,181,110.874c1.941-1.519,4.672-3.743,5.309-6.139.659-2.47-1.4-4.115-3.39-5.336a48.981,48.981,0,0,0-27.288-6.951" transform="translate(91.624 62.844)" fill="#2d1026"/><path d="M135,111.869c-.008.271.244.521.568.669a3.681,3.681,0,0,0,1.092.252,13.987,13.987,0,0,0,3.1-.005c2.4-.274,2.629-2.34.346-2.937-1.514-.395-5.069.8-5.109,2.021" transform="translate(91.818 74.657)" fill="#2d1026"/><path d="M155.3,112.659c.008.271-.244.521-.568.669a3.681,3.681,0,0,1-1.092.252,13.989,13.989,0,0,1-3.1-.005c-2.4-.274-2.631-2.34-.346-2.937,1.514-.4,5.069.8,5.109,2.021" transform="translate(101.063 75.194)" fill="#2d1026"/><path d="M132.484,183.612s18.953-35.38,20.47-33.107-1.517,23.251.252,22.745,31.337-7.329,32.855-4.044-7.077,26.536-8.846,29.316-43.468,14.4-43.468,14.4Z" transform="translate(90.104 102.289)" fill="#ffa3a3"/><path d="M62.9,233.918l2.32-35.7,3.147-48.409,40.387-2.335.655-.032.748-.047,1.93-.109,4.034-9.61-2.226,52.895-.047.748v.186l22.413-3.5,42.631-6.683,2.693-.42.561,7.056,2.119,26.524.482,6.075.748,9.454.312,3.91Z" transform="translate(42.778 93.635)" fill="#6f66ff"/><path d="M174.252,212.695a.37.37,0,0,1-.37-.341l-4.01-48.379L80.043,177.31a.38.38,0,0,1-.422-.312.37.37,0,0,1,.312-.422l90.22-13.394a.393.393,0,0,1,.286.077.37.37,0,0,1,.139.259l4.042,48.775a.372.372,0,0,1-.339.4l-.03,0" transform="translate(54.149 110.98)" fill="#2d1026"/><path d="M90.668,188.96h-.005a.371.371,0,0,1-.366-.375l.507-46.248a.337.337,0,0,1,.375-.366.37.37,0,0,1,.366.375l-.506,46.247a.371.371,0,0,1-.371.368" transform="translate(61.412 96.555)" fill="#2d1026"/><path d="M171.162,201.141l-1.371,26.741H38.52c-10.279-12.769-21.883-49.558-25.808-62.688-.328-1.075-.591-2.009-.81-2.742-.109-.358-.2-.687-.281-.949-.077-.281-.139-.514-.186-.685H11.42a1.893,1.893,0,0,0-.047-.188c-.032-.109-.047-.173-.047-.173l52.692-13.906.186.465C65.95,151.625,80.31,189.3,82.21,189.77c.482.126,5.67.812,13.317,1.808q2.243.28,4.766.607c13.972,1.793,33.394,4.252,48.377,6.137,12.9,1.62,22.492,2.819,22.492,2.819" transform="translate(7.703 99.67)" fill="#ffa3a3"/><path d="M171.061,190.206c.062,1.7-2.524,5.795-5.887,10.171a2.494,2.494,0,0,1-.171.234c-.077.092-.156.2-.234.3-1.9,2.461-4.051,4.983-6.09,7.181H105.644l1.371-26.744s24.951-4.891,36.648-5.607c3.52-.2,5.842-.047,5.934.748.188,1.682-4.173,5.139-8.629,8.177-4.548,3.13-9.189,5.84-9.189,5.84s3.162-.343,7.693-.748c3.537-.311,7.881-.669,12.228-.919,1.075-.062,2.149-.124,3.224-.171a1.639,1.639,0,0,0,.264-.015c.156,0,.313-.015.467-.015,1.045-.047,2.072-.079,3.07-.109.264,0,.529-.015.795-.032a2.544,2.544,0,0,0,.358,0c6.074-.109,10.81.218,11.136,1.448a.717.717,0,0,1,.047.265" transform="translate(71.85 119.465)" fill="#ffa3a3"/><path d="M11.474,168.647a.371.371,0,0,1-.094-.731L68.049,153.09l-2.483-17.616a.371.371,0,0,1,.316-.418.367.367,0,0,1,.42.316l2.529,17.942a.373.373,0,0,1-.274.412L11.568,168.636a.37.37,0,0,1-.094.012" transform="translate(7.551 91.849)" fill="#2d1026"/><path d="M164.629,195.734v.015c-.03.079-.109.343-.234.763a.232.232,0,0,0-.032.094c-.124.358-.264.842-.435,1.386H139.194c1.776-2.678,3.6-5.218,4.563-6.541.064-.094.126-.171.173-.25.092-.124.155-.218.234-.311.171-.25.279-.39.279-.39,3.926,2.166,20.187,5.234,20.187,5.234" transform="translate(94.667 129.561)" fill="#ffa3a3"/><path d="M154,147.985s0,19.207-1.263,25.019-17.184,39.677-16.174,42.456,30.2,13.142,35.507,9.6S192.92,168.2,192.92,168.2s-23.5-22.744-38.918-20.217" transform="translate(92.847 100.513)" fill="#ffcb7d"/><path d="M170.984,230.712c-6.074,0-32.7-6.228-34.567-10.427-1.242-2.8,4-15,10.072-29.128,4.308-10.027,8.763-20.395,11.4-28.5,6.316-19.451,19.12-21.712,19.247-21.732a.371.371,0,1,1,.119.732c-.124.02-12.493,2.24-18.661,21.23-2.643,8.142-7.105,18.525-11.421,28.569-5.753,13.387-11.185,26.032-10.074,28.533,1.983,4.454,32.786,10.751,34.639,9.919,1.6-.86,10.183-25.123,15.213-40.212a.376.376,0,0,1,.47-.235.371.371,0,0,1,.235.469c-2.2,6.61-13.31,39.632-15.618,40.657a2.939,2.939,0,0,1-1.052.129" transform="translate(92.654 95.839)" fill="#2d1026"/><path d="M166.768,46.8c0,.311,0,.623-.015.934-.2,6.465-2.167,12.337-8.086,14.454-6.121,2.2-12.492-.81-17.959-5.279-.217-.171-.435-.343-.652-.546C132,49.57,126.067,39.914,126.067,39.914l5.437-2.2.716-.281,7.616-3.068.734-.281,4.9-1.977.733-.3,6.606-2.663.714-.281,6.5-2.618.734-.3,1.9-.763s4.16,11.339,4.113,21.6" transform="translate(85.74 17.135)" fill="#ff7373"/><path d="M161.105,38.466c0,.311,0,.623-.015.934a7.714,7.714,0,0,0-.734-.467c-2.786-1.526-6.868-.482-9.081,2.32a12.154,12.154,0,0,0-1.915,9.908.371.371,0,0,1-.234.435.477.477,0,0,1-.139.032.4.4,0,0,1-.341-.2,22.2,22.2,0,0,0-3.553-4.906,7.3,7.3,0,0,0-5.264-2.211,5.268,5.268,0,0,0-3.8,2.179,5.582,5.582,0,0,0-.981,2.088c-.217-.171-.435-.343-.652-.546A6.288,6.288,0,0,1,135.4,46.02c.111-.139.217-.281.343-.42a4.656,4.656,0,0,1,.561-.561,5.8,5.8,0,0,1,3.473-1.51,6.27,6.27,0,0,1,2.072.218,5.382,5.382,0,0,1,.966.343,9.108,9.108,0,0,1,2.8,1.868,18.23,18.23,0,0,1,2.727,3.458,13.157,13.157,0,0,1,.109-3.254,9.114,9.114,0,0,1,.311-1.5v-.017a10.489,10.489,0,0,1,1.9-3.878,8.882,8.882,0,0,1,1.526-1.51,5.642,5.642,0,0,1,.7-.484,8.273,8.273,0,0,1,4.8-1.324,4.053,4.053,0,0,1,.763.064,6.847,6.847,0,0,1,2.277.731c.123.079.264.141.373.218" transform="translate(91.402 25.467)" fill="#2d1026"/><path d="M139.738,49.038a.459.459,0,0,1-.234.077.358.358,0,0,1-.3-.139l-.015-.015a103.663,103.663,0,0,1-9.891-16.2l.716-.281a103.751,103.751,0,0,0,9.75,15.934c.017.032.032.047.047.079a.393.393,0,0,1-.077.544" transform="translate(87.94 22.091)" fill="#2d1026"/><path d="M142.907,48.789v.032a.4.4,0,0,1-.2.482.721.721,0,0,1-.156.03.382.382,0,0,1-.358-.249c-.079-.2-.171-.4-.25-.608-2.445-5.932-5.03-11.883-7.678-17.708l.733-.281c2.74,6.013,5.4,12.181,7.912,18.3" transform="translate(91.314 20.735)" fill="#2d1026"/><path d="M146.917,51.438a.393.393,0,0,1-.265.482c-.03,0-.077.017-.109.017a.39.39,0,0,1-.279-.124.266.266,0,0,1-.094-.156,151.676,151.676,0,0,0-8.552-22.226l.733-.3A153.578,153.578,0,0,1,146.575,50.3v.017c.124.373.234.746.343,1.121" transform="translate(93.596 19.815)" fill="#2d1026"/><path d="M147.81,46a.394.394,0,0,1-.3.467h-.077a.4.4,0,0,1-.39-.3c0-.015-.017-.047-.017-.062a154.968,154.968,0,0,0-5.045-18.441l.716-.281a158.86,158.86,0,0,1,5.032,18.238c.03.126.047.25.077.375" transform="translate(96.566 18.623)" fill="#2d1026"/><path d="M150.389,45.446a.209.209,0,0,1-.015.094.37.37,0,0,1-.36.311H150a.393.393,0,0,1-.39-.358v-.017a91.288,91.288,0,0,0-3.332-19.531l.731-.3a91.669,91.669,0,0,1,3.38,19.8" transform="translate(99.485 17.444)" fill="#2d1026"/><path d="M151.44,50.627a15.107,15.107,0,0,0-15.116-.444,21.979,21.979,0,0,0,7.8,3.449,7.158,7.158,0,0,0,7.319-3.006" transform="translate(92.715 32.898)" fill="#6f66ff"/><path d="M147.409,53.873a15.107,15.107,0,0,1,9.77-11.542,21.958,21.958,0,0,1-2.645,8.107,7.157,7.157,0,0,1-7.125,3.436" transform="translate(100.254 28.79)" fill="#6f66ff"/><path d="M191.84,186.046c0,.311,0,.623-.015.934-.2,6.465-2.166,12.335-8.085,14.454-6.121,2.2-12.492-.81-17.959-5.279-.217-.171-.435-.343-.654-.546-8.053-6.791-13.987-16.448-13.987-16.448l5.437-2.2.716-.281,7.616-3.068.733-.281,4.906-1.977.733-.3,6.6-2.663.716-.281,6.5-2.618.733-.3,1.9-.763s4.158,11.339,4.111,21.6" transform="translate(102.793 111.839)" fill="#ff7373"/><path d="M186.178,177.714c0,.311,0,.623-.015.934a7.493,7.493,0,0,0-.733-.467c-2.787-1.526-6.868-.482-9.081,2.32a12.152,12.152,0,0,0-1.915,9.908.371.371,0,0,1-.234.435.478.478,0,0,1-.139.032.406.406,0,0,1-.343-.2,22.2,22.2,0,0,0-3.552-4.906,7.31,7.31,0,0,0-5.265-2.211,5.259,5.259,0,0,0-3.8,2.179,5.582,5.582,0,0,0-.981,2.088c-.217-.171-.435-.343-.654-.546a6.3,6.3,0,0,1,1.013-2.009c.109-.139.217-.281.343-.42a4.771,4.771,0,0,1,.559-.561,5.8,5.8,0,0,1,3.474-1.51,6.27,6.27,0,0,1,2.072.218,5.428,5.428,0,0,1,.966.343,9.108,9.108,0,0,1,2.8,1.868,18.223,18.223,0,0,1,2.725,3.458,13.321,13.321,0,0,1,.109-3.254,9.291,9.291,0,0,1,.312-1.5V183.9a10.488,10.488,0,0,1,1.9-3.878,8.765,8.765,0,0,1,1.526-1.51,5.754,5.754,0,0,1,.7-.484,8.282,8.282,0,0,1,4.8-1.324,4.065,4.065,0,0,1,.763.064,6.826,6.826,0,0,1,2.275.731c.124.079.264.141.373.218" transform="translate(108.455 120.171)" fill="#2d1026"/><path d="M164.812,188.286a.459.459,0,0,1-.234.077.363.363,0,0,1-.3-.139l-.017-.015a103.86,103.86,0,0,1-9.889-16.2l.716-.281a103.756,103.756,0,0,0,9.75,15.934c.017.032.032.047.047.079a.393.393,0,0,1-.077.544" transform="translate(104.993 116.795)" fill="#2d1026"/><path d="M167.981,188.037v.032a.4.4,0,0,1-.2.482.689.689,0,0,1-.155.03.386.386,0,0,1-.36-.249c-.077-.2-.17-.4-.249-.608-2.445-5.932-5.03-11.883-7.678-17.708l.731-.281c2.742,6.013,5.4,12.181,7.913,18.3" transform="translate(108.367 115.439)" fill="#2d1026"/><path d="M171.991,190.687a.393.393,0,0,1-.265.482c-.03,0-.077.017-.108.017a.387.387,0,0,1-.281-.126.257.257,0,0,1-.094-.155,151.868,151.868,0,0,0-8.55-22.226l.731-.3a153.579,153.579,0,0,1,8.224,21.166v.015c.124.375.234.748.343,1.122" transform="translate(110.649 114.519)" fill="#2d1026"/><path d="M172.884,185.243a.394.394,0,0,1-.3.467h-.079a.4.4,0,0,1-.388-.3c0-.015-.017-.047-.017-.062a154.967,154.967,0,0,0-5.045-18.441l.716-.281a158.791,158.791,0,0,1,5.032,18.239c.03.124.045.249.077.373" transform="translate(113.619 113.328)" fill="#2d1026"/><path d="M175.463,184.694a.209.209,0,0,1-.015.094.368.368,0,0,1-.358.311h-.017a.393.393,0,0,1-.39-.358v-.017a91.185,91.185,0,0,0-3.332-19.531l.731-.3a91.666,91.666,0,0,1,3.38,19.8" transform="translate(116.538 112.148)" fill="#2d1026"/><path d="M176.514,189.875a15.107,15.107,0,0,0-15.116-.444,21.967,21.967,0,0,0,7.8,3.449,7.158,7.158,0,0,0,7.319-3.006" transform="translate(109.769 127.602)" fill="#6f66ff"/><path d="M172.483,193.121a15.107,15.107,0,0,1,9.77-11.542,21.959,21.959,0,0,1-2.645,8.107,7.157,7.157,0,0,1-7.125,3.436" transform="translate(117.308 123.494)" fill="#6f66ff"/><path d="M32.507,131.45c-.192.245-.383.492-.586.727-4.126,4.98-9.281,8.411-15.254,6.45C10.487,136.6,7.3,130.319,5.731,123.434c-.067-.269-.134-.538-.181-.832C3.36,112.3,4.6,101.033,4.6,101.033l5.64,1.6.738.218,7.895,2.253.751.228,5.087,1.45.759.215,6.848,1.951.738.22,6.734,1.92.759.215,1.969.565s-3.678,11.5-10.015,19.578" transform="translate(2.892 68.714)" fill="#ff7373"/><path d="M31.981,123.2c-.192.245-.383.492-.586.727a7.274,7.274,0,0,0-.291-.818c-1.263-2.915-5.126-4.6-8.594-3.742a12.152,12.152,0,0,0-7.592,6.645.373.373,0,0,1-.452.2.461.461,0,0,1-.129-.062.4.4,0,0,1-.146-.37,22.245,22.245,0,0,0,.208-6.053,7.316,7.316,0,0,0-2.8-4.978,5.262,5.262,0,0,0-4.338-.612,5.582,5.582,0,0,0-2.056,1.045c-.067-.269-.134-.538-.181-.832a6.259,6.259,0,0,1,2.033-.964c.171-.044.344-.087.528-.121a4.791,4.791,0,0,1,.788-.1,5.8,5.8,0,0,1,3.669.939,6.272,6.272,0,0,1,1.5,1.445,5.533,5.533,0,0,1,.553.862,9.114,9.114,0,0,1,1.065,3.2,18.287,18.287,0,0,1,.03,4.4,13.292,13.292,0,0,1,2.083-2.5,9.333,9.333,0,0,1,1.164-.99l.01-.013a10.506,10.506,0,0,1,3.879-1.893,8.741,8.741,0,0,1,2.134-.257,5.36,5.36,0,0,1,.848.05,8.26,8.26,0,0,1,4.6,1.9,4.162,4.162,0,0,1,.565.517A6.86,6.86,0,0,1,31.82,122.8c.05.138.123.274.161.4" transform="translate(3.417 76.959)" fill="#2d1026"/><path d="M6.929,121.242a.441.441,0,0,1-.232-.082.355.355,0,0,1-.148-.292l0-.022a103.914,103.914,0,0,1,2.135-18.859l.738.22A103.677,103.677,0,0,0,7.336,120.77c-.007.034,0,.055-.01.089a.394.394,0,0,1-.4.383" transform="translate(4.452 69.362)" fill="#2d1026"/><path d="M10.743,122.991l-.018.025a.4.4,0,0,1-.457.255.664.664,0,0,1-.143-.071.386.386,0,0,1-.129-.417c.064-.207.114-.425.176-.632,1.712-6.186,3.323-12.47,4.808-18.695l.751.228c-1.527,6.428-3.211,12.934-4.988,19.3" transform="translate(6.787 70.363)" fill="#2d1026"/><path d="M13.064,127.538a.393.393,0,0,1-.506.218c-.025-.018-.071-.035-.1-.054a.391.391,0,0,1-.144-.27.278.278,0,0,1,.022-.181,151.876,151.876,0,0,0,6.893-22.794l.759.215a153.544,153.544,0,0,1-6.5,21.757l-.008.013c-.131.371-.276.734-.418,1.1" transform="translate(8.373 71.042)" fill="#2d1026"/><path d="M17.3,123.795a.4.4,0,0,1-.521.186l-.06-.047a.4.4,0,0,1-.126-.472c.008-.013.017-.047.025-.059a155.691,155.691,0,0,0,7.337-17.656l.738.218a159.291,159.291,0,0,1-7.224,17.487c-.052.118-.116.225-.168.343" transform="translate(11.262 71.92)" fill="#2d1026"/><path d="M20.5,124.938a.194.194,0,0,1-.069.064.371.371,0,0,1-.475.027l-.012-.01a.391.391,0,0,1-.087-.523l.01-.012a91.289,91.289,0,0,0,9.358-17.465l.759.215a91.728,91.728,0,0,1-9.484,17.7" transform="translate(13.461 72.785)" fill="#2d1026"/><path d="M14.708,129.19a15.107,15.107,0,0,0-11.66-9.629,21.926,21.926,0,0,0,4.039,7.508,7.152,7.152,0,0,0,7.621,2.12" transform="translate(2.073 81.315)" fill="#6f66ff"/><path d="M11.95,127.736a15.113,15.113,0,0,1,14.8-3.115,21.949,21.949,0,0,1-7.063,4.777,7.158,7.158,0,0,1-7.735-1.662" transform="translate(8.127 84.241)" fill="#6f66ff"/><path d="M112.861,42.344l-4.387,1.7a7.2,7.2,0,0,0-4.118,4.12l-1.7,4.387-1.7-4.387a7.209,7.209,0,0,0-4.12-4.12l-4.387-1.7,4.387-1.7a7.209,7.209,0,0,0,4.12-4.12l1.7-4.387,1.7,4.387a7.2,7.2,0,0,0,4.118,4.12Z" transform="translate(172.536 42.93)" fill="#fff"/><path d="M184.119,84.252l-4.385,1.7a7.191,7.191,0,0,0-4.12,4.118l-1.7,4.387-1.7-4.387a7.2,7.2,0,0,0-4.12-4.118l-4.387-1.7,4.387-1.7a7.209,7.209,0,0,0,4.12-4.12l1.7-4.387,1.7,4.387a7.2,7.2,0,0,0,4.12,4.12Z" transform="translate(-48.106 181.829)" fill="#fff"/><path d="M32.711,53.058l-4.385,1.7a7.191,7.191,0,0,0-4.12,4.118l-1.7,4.387-1.7-4.387a7.2,7.2,0,0,0-4.12-4.118l-4.387-1.7,4.387-1.7a7.209,7.209,0,0,0,4.12-4.12l1.7-4.387,1.7,4.387a7.2,7.2,0,0,0,4.12,4.12Z" transform="translate(8.371 29.147)" fill="#fff"/><path d="M20.4,181.346l-4.387,1.7A7.193,7.193,0,0,0,11.9,187.16l-1.7,4.387-1.7-4.387a7.2,7.2,0,0,0-4.12-4.118L0,181.346l4.387-1.7a7.209,7.209,0,0,0,4.12-4.12l1.7-4.387,1.7,4.387a7.2,7.2,0,0,0,4.118,4.12Z" transform="translate(0 116.397)" fill="#fff"/></g></g></g></svg>