<svg xmlns="http://www.w3.org/2000/svg" xmlns:xlink="http://www.w3.org/1999/xlink" width="75.203" height="75.203" viewBox="0 0 75.203 75.203"><defs><clipPath id="a"><rect width="66.101" height="63.4" fill="none"/></clipPath></defs><g transform="translate(-184 -1136)"><g transform="translate(3 633)"><circle cx="37.602" cy="37.602" r="37.602" transform="translate(181 503)" fill="#1cf290"/></g><g transform="translate(188.551 1141.902)"><g clip-path="url(#a)"><path d="M63.294,69.346l-2.671-.02c-.185-.827-.427-1-1.438-1H9.038c-1.271,0-1.546-.275-1.546-1.548V34.133c0-1.37.251-1.625,1.606-1.625q17.361,0,34.723-.016c.627,0,.763.152.762.768q-.033,14.486-.014,28.971A3.129,3.129,0,0,0,47.951,65.6q7.616,0,15.232,0,3.567,0,3.573-3.557,0-14,0-28c0-.365.013-.73.02-1.1.368.116.224.427.224.655q.01,16.829.011,33.658a1.833,1.833,0,0,1-.264,1.041c-.7.009-1.4.02-2.1.026-.882.008-1.122.186-1.353,1.017M25.281,38.724c.688-.694.684-1.177-.034-1.844a3.482,3.482,0,0,0-2.454-.967c-2.623,0-5.246-.007-7.869,0a3.486,3.486,0,0,0-3.575,3.525c-.019,1.268-.013,2.536,0,3.8A3.506,3.506,0,0,0,15,46.893c1.763.008,3.526.011,5.289-.006.354,0,.493.057.564.456a2.876,2.876,0,0,0,3.065,2.531q2.806.009,5.612,0a2.917,2.917,0,0,0,3.108-3.1c.008-.817,0-1.633,0-2.45A2.973,2.973,0,0,0,29.431,41.1l-4-.023a9.206,9.206,0,0,0-.152-2.35M22.911,65.078H32.98a2.919,2.919,0,0,0,.579-.017.918.918,0,0,0,.83-.985.893.893,0,0,0-.885-.925,6.3,6.3,0,0,0-.645-.009c-6.261,0-12.522-.007-18.783.012-.519,0-.688-.1-.679-.653.035-2.344.017-4.689.013-7.033,0-.815-.344-1.253-.966-1.259s-.969.41-.97,1.236q0,4.13,0,8.26c0,1.089.284,1.374,1.367,1.374H22.911m8.623-9.508c.6,0,1.206-.026,1.806.008a1.654,1.654,0,0,0,1.366-.558c1.763-1.795,3.553-3.562,5.329-5.344.575-.576.623-1.13.157-1.568-.442-.415-.968-.351-1.523.2-1.463,1.457-2.96,2.881-4.362,4.393a2.624,2.624,0,0,1-2.285.949c-1.334-.085-2.633.05-3.883-.773-1.636-1.077-1.62-1.1-2.979.444-1.076,1.225-2.221,2.009-3.918,1.671a1.116,1.116,0,0,0-1.026.421c-1.39,1.407-2.8,2.8-4.19,4.2a.982.982,0,1,0,1.367,1.364,33.935,33.935,0,0,0,2.539-2.566,3.561,3.561,0,0,1,3.606-1.5,1.363,1.363,0,0,0,1.255-.517c.56-.594,1.17-1.143,1.721-1.745a.48.48,0,0,1,.758-.087,5.368,5.368,0,0,0,4.005,1,2.317,2.317,0,0,1,.258,0m3.431-18.346c-1.592,0-3.184,0-4.776,0-.789,0-1.258.377-1.249.985.009.586.46.95,1.211.951q4.808.006,9.617,0c.756,0,1.18-.365,1.172-.976s-.433-.956-1.2-.958c-1.592,0-3.184,0-4.776,0M38.224,41.8c-.579,0-1.158-.018-1.736,0a.915.915,0,0,0-.989.949.881.881,0,0,0,.911.959c1.2.035,2.4.039,3.6,0a.955.955,0,0,0-.049-1.91c-.578-.019-1.157,0-1.736,0" transform="translate(-5.554 -24.087)" fill="#eaf4fc"/><path d="M57.739,45.258c.232-.831.471-1.009,1.353-1.017.7-.006,1.4-.017,2.1-.026.472.009.944.024,1.417.025,1.273,0,1.552-.276,1.552-1.54q0-16.38,0-32.76c0-.151.007-.3,0-.451a1.008,1.008,0,0,0-1-1.05c-.535-.036-1.075,0-1.611-.023-.355-.013-.391.17-.327.445-.007.365-.02.73-.02,1.1q0,14,0,28,0,3.552-3.573,3.557-7.616,0-15.232,0a3.129,3.129,0,0,1-3.382-3.373q-.006-14.486.014-28.971c0-.616-.135-.769-.762-.768Q20.9,8.437,3.543,8.42c-1.355,0-1.606.255-1.606,1.625V42.694c0,1.273.274,1.548,1.546,1.548H53.631c1.011,0,1.252.169,1.437,1-.2.775-.413.94-1.263.941-1.85,0-3.7,0-5.572,0-.058.283.114.5.2.717q2.612,6.332,5.235,12.658A2.739,2.739,0,0,1,52.8,62.9a2.7,2.7,0,0,1-3.241-.081,3.025,3.025,0,0,1-.912-1.3c-2.011-4.875-4.036-9.744-6.035-14.624a.939.939,0,0,0-1.048-.733c-1.762.058-3.528.04-5.292.008-.5-.009-.6.139-.6.613.018,4.56.013,9.12.009,13.681a2.662,2.662,0,0,1-2.255,2.908,2.623,2.623,0,0,1-2.969-2.217,7.43,7.43,0,0,1-.037-.9c0-4.452-.015-8.905.014-13.358,0-.612-.181-.738-.752-.726-1.807.036-3.614.026-5.421,0a.588.588,0,0,0-.65.444c-.853,2.106-1.724,4.2-2.6,6.3-.31.747-.583.9-1.391.813-.64-.52-.715-.794-.4-1.557.547-1.331,1.111-2.654,1.645-3.99a12.775,12.775,0,0,0,.764-2c-.409,0-.775.023-1.138-.007a.543.543,0,0,0-.614.418q-2.807,6.821-5.636,13.634c-.2.484-.2.891.319,1.142.457.222.841.015,1.088-.574.516-1.227,1.044-2.45,1.52-3.693a1.289,1.289,0,0,1,1.387-.988c.747.645.791.835.4,1.777-.533,1.287-1.051,2.58-1.61,3.856a2.65,2.65,0,0,1-2.922,1.615,2.683,2.683,0,0,1-2.238-2.412,2.934,2.934,0,0,1,.287-1.5q2.586-6.237,5.161-12.478c.1-.235.183-.474.3-.789h-.729q-6.938,0-13.875,0A3.009,3.009,0,0,1,0,42.827Q0,26.31,0,9.792a3.008,3.008,0,0,1,3.323-3.31q13.166-.006,26.331.013c.618,0,.817-.139.78-.773-.058-.986-.028-1.978-.011-2.967a2.631,2.631,0,1,1,5.256.022q.024,1.613,0,3.226c-.006.358.1.486.471.484q3.84-.02,7.68,0c.325,0,.424-.094.465-.428a3,3,0,0,1,3.175-2.817q2.646-.022,5.292,0a2.961,2.961,0,0,1,3.16,2.75c.063.438.25.5.625.5,2.044-.014,4.087-.009,6.131-.006,2.259,0,3.426,1.163,3.426,3.4q0,16.453,0,32.905c0,2.217-1.163,3.388-3.366,3.39-1.226,0-2.453-.024-3.678.01a1.126,1.126,0,0,1-1.317-.931M51.623,9.677a3.59,3.59,0,0,0,1.151.053,1.158,1.158,0,0,0,1.282-1.277c.013-.407,0-.816,0-1.223,0-1.881-.291-2.159-2.176-2.066a1.229,1.229,0,0,0-.245.062c-1.435-.012-2.87-.047-4.3-.025-.768.012-1.116.414-1.128,1.183-.011.728-.013,1.457,0,2.185a1.028,1.028,0,0,0,1.049,1.138c1.455.027,2.912.076,4.366-.029m4.4,29.881c.536.007,1.073.02,1.61.021,1.294,0,1.629-.336,1.629-1.643q0-14.4,0-28.807a3.775,3.775,0,0,1,0-.386c.027-.261-.095-.331-.338-.325-.879.022-1.759.029-2.638.042-.429-.108-.319.248-.351.437A3.027,3.027,0,0,1,52.7,11.658q-2.613.01-5.226,0A3.008,3.008,0,0,1,44.3,8.848c-.046-.4-.2-.44-.524-.433-.709.016-1.422.046-2.128-.008-.575-.044-.708.137-.707.707q.029,14.416.014,28.833a4.563,4.563,0,0,0,.01.516,1.147,1.147,0,0,0,1.193,1.111q6.935,0,13.87-.016M44.441,46.212c.1.277.179.5.268.712q2.806,6.784,5.615,13.567c.362.874.677,1.106,1.211.88.486-.2.543-.613.2-1.442l-5.172-12.5c-.55-1.328-.55-1.328-2.122-1.221M33.732,53.695c0-2.3-.019-4.6.014-6.9.008-.552-.2-.625-.673-.626s-.724.048-.72.645c.028,4.086.014,8.173.014,12.259,0,.538,0,1.076,0,1.613,0,.463.2.742.689.738s.677-.3.673-.756c0-.151,0-.3,0-.452q0-3.258,0-6.517M32.367,4.32c0,.581.009,1.161,0,1.742-.012.559.4.394.684.393s.692.169.687-.391c-.01-1.118,0-2.236,0-3.355a.626.626,0,0,0-.712-.715c-.453.012-.648.281-.649.713,0,.538,0,1.075,0,1.613" transform="translate(0.001 0)" fill="#030303"/><path d="M59.028,188.427a1.29,1.29,0,0,0-1.387.988c-.475,1.243-1,2.466-1.519,3.693-.248.589-.632.8-1.088.574-.516-.251-.52-.658-.319-1.142q2.828-6.813,5.635-13.634a.543.543,0,0,1,.614-.418c.362.029.729.006,1.138.006a12.7,12.7,0,0,1-.764,2c-.534,1.336-1.1,2.66-1.645,3.99-.314.764-.239,1.037.4,1.557a19.2,19.2,0,0,1-1.066,2.38" transform="translate(-40.47 -132.317)" fill="#6d8994"/><path d="M36.454,50.874q2,.011,4,.023a2.972,2.972,0,0,1,3.207,3.221c0,.817.007,1.633,0,2.45a2.917,2.917,0,0,1-3.107,3.1q-2.806.01-5.612,0a2.876,2.876,0,0,1-3.065-2.531c-.071-.4-.21-.459-.564-.456-1.763.017-3.526.014-5.289.006a3.506,3.506,0,0,1-3.653-3.647c-.011-1.268-.016-2.536,0-3.8a3.486,3.486,0,0,1,3.575-3.525c2.623-.01,5.246,0,7.869,0a3.483,3.483,0,0,1,2.453.967c.719.667.722,1.15.034,1.844a1.25,1.25,0,0,1-1.369-.421,1.36,1.36,0,0,0-1.083-.451c-.509,0-1.017.014-1.526.021-2.147-.007-4.3-.028-6.443-.013a1.53,1.53,0,0,0-1.569,1.61q-.029,1.932,0,3.866a1.548,1.548,0,0,0,1.634,1.615c1.8.017,3.61,0,5.414.014.371,0,.5-.113.464-.475a3.294,3.294,0,0,1,1.03-2.733,3.6,3.6,0,0,1,2.078-.665c.507.012,1.014-.011,1.522-.018m3.093,1.988c-.558-.009-1.117,0-1.673-.035-.375-.024-.5.073-.535.48a3.575,3.575,0,0,1-3.089,3.369c-.52.071-.593.228-.294.65a.946.946,0,0,0,.827.412q2.384-.017,4.768-.027c.321.009.643.028.964.025.863-.007,1.191-.338,1.2-1.218.008-.558,0-1.117,0-1.675,0-1.928-.205-2.115-2.173-1.981M33.759,54.11c-.006.7.18.821.8.474a1.786,1.786,0,0,0,.863-1.488c.021-.193-.065-.242-.252-.268-.874-.126-1.4.346-1.411,1.282" transform="translate(-16.574 -33.888)" fill="#020303"/><path d="M236.6,32.982c-.064-.275-.027-.458.327-.445.537.02,1.076-.013,1.612.023a1.008,1.008,0,0,1,1,1.05c.01.15,0,.3,0,.451q0,16.38,0,32.76c0,1.265-.279,1.543-1.552,1.54-.472,0-.944-.017-1.417-.025a1.833,1.833,0,0,0,.264-1.041q-.01-16.829-.011-33.658c0-.228.144-.539-.224-.655" transform="translate(-175.382 -24.12)" fill="#cfecfa"/><path d="M34.32,127.318H24.251c-1.084,0-1.367-.285-1.367-1.374q0-4.13,0-8.26c0-.826.334-1.242.969-1.236s.965.444.966,1.259c0,2.345.021,4.69-.013,7.034-.008.556.16.654.679.653,6.261-.019,12.522-.012,18.783-.012a6.223,6.223,0,0,1,.645.009.893.893,0,0,1,.885.926.918.918,0,0,1-.83.985,2.917,2.917,0,0,1-.579.016H34.32" transform="translate(-16.963 -86.327)" fill="#020303"/><path d="M54.794,99.555a2.316,2.316,0,0,0-.258,0,5.368,5.368,0,0,1-4.005-1,.479.479,0,0,0-.758.087c-.551.6-1.16,1.151-1.721,1.745a1.363,1.363,0,0,1-1.254.517,3.561,3.561,0,0,0-3.606,1.5,33.936,33.936,0,0,1-2.539,2.566.982.982,0,1,1-1.367-1.364c1.394-1.4,2.8-2.794,4.191-4.2a1.116,1.116,0,0,1,1.026-.42c1.7.338,2.842-.447,3.918-1.671,1.359-1.546,1.343-1.521,2.979-.444,1.25.823,2.548.688,3.883.773a2.623,2.623,0,0,0,2.285-.948c1.4-1.513,2.9-2.937,4.362-4.393.555-.553,1.081-.617,1.523-.2.466.437.417.991-.157,1.568-1.776,1.782-3.566,3.549-5.329,5.344a1.654,1.654,0,0,1-1.366.558c-.6-.034-1.2-.008-1.806-.008" transform="translate(-28.814 -68.073)" fill="#030303"/><path d="M96.432,50.784c1.592,0,3.184,0,4.776,0,.765,0,1.19.351,1.2.958s-.416.975-1.172.976q-4.808.007-9.617,0c-.751,0-1.2-.365-1.211-.951-.009-.608.46-.983,1.249-.985,1.592,0,3.184,0,4.776,0" transform="translate(-67.021 -37.647)" fill="#040404"/><path d="M60.886,53.238c.509-.007,1.017-.016,1.526-.021a1.359,1.359,0,0,1,1.083.451,1.25,1.25,0,0,0,1.369.421,9.192,9.192,0,0,1,.152,2.35c-.507.007-1.015.029-1.522.018a3.6,3.6,0,0,0-2.078.665c-.068-1.309.2-2.664-.53-3.883" transform="translate(-45.137 -39.451)" fill="#4d78bc"/><path d="M118.492,68.449c.579,0,1.158-.015,1.736,0a.955.955,0,0,1,.049,1.91c-1.2.037-2.4.033-3.6,0a.881.881,0,0,1-.911-.959.916.916,0,0,1,.989-.949c.578-.023,1.157,0,1.736,0" transform="translate(-85.822 -50.739)" fill="#070708"/><path d="M173.35,63.635q-6.935.01-13.87.016a1.147,1.147,0,0,1-1.193-1.111,4.561,4.561,0,0,1-.01-.516q0-14.416-.014-28.833c0-.569.132-.751.707-.707.705.054,1.419.024,2.128.008.322-.007.478.037.524.433a3.008,3.008,0,0,0,3.182,2.809q2.613.015,5.226,0a3.027,3.027,0,0,0,3.234-2.761c.031-.189-.078-.545.351-.437q0,3.427,0,6.854c-1.715.008-3.431.014-5.147.026-.792.006-1.256.374-1.256.98s.445.952,1.255.957l5.147.027q0,1.763,0,3.527a1.016,1.016,0,0,0,0,2.03q0,1.762,0,3.524c-.493.007-.986.02-1.479.022-1.309,0-2.617-.009-3.926.007a.947.947,0,0,0-1,.953.991.991,0,0,0,.935.969,4.8,4.8,0,0,0,.514.009l4.954.023,0,5.184c-.665.012-1.33.019-1.994.037-.76.021-1.169.381-1.151,1,.017.591.415.921,1.149.94.664.018,1.33.025,1.994.037-.094,1.332.232,2.691-.264,4m-7.6-12.167c0-.537.011-1.075,0-1.612a.944.944,0,0,0-1.037-1.042q-1.58-.021-3.159,0a.952.952,0,0,0-1.068,1.022q-.039,1.611,0,3.223A.961.961,0,0,0,161.5,54.08q1.611.04,3.224,0a.959.959,0,0,0,1.024-1.068c.013-.516,0-1.032,0-1.547m0-11.063c0-.516.008-1.032,0-1.547-.015-.727-.339-1.081-1.057-1.095q-1.579-.031-3.159,0a.949.949,0,0,0-1.046.984q-.047,1.642,0,3.287a.928.928,0,0,0,1.034.984q1.612.021,3.223,0a.918.918,0,0,0,1-1c.017-.536,0-1.074,0-1.611m0,18.272c0-.558.014-1.117,0-1.675a.9.9,0,0,0-.95-.987c-1.116-.026-2.234-.016-3.351,0a.87.87,0,0,0-.943.867c-.046,1.158-.043,2.319,0,3.477a.871.871,0,0,0,.919.893c1.138.02,2.277.028,3.414,0a.88.88,0,0,0,.914-.957c.014-.536,0-1.074,0-1.61m.032-11.793c1.4,0,2.795.005,4.192,0,.695,0,1.125-.388,1.122-.969s-.442-.961-1.135-.963q-4.16-.009-8.32,0c-.7,0-1.14.375-1.157.944-.018.6.433.985,1.17.988,1.376.006,2.752,0,4.128,0m3.39,11.736a1,1,0,1,0-.982.991,1.033,1.033,0,0,0,.982-.991" transform="translate(-117.325 -24.077)" fill="#fbf6df"/><path d="M216.853,44.953q0-1.763,0-3.527c.548-.086.922-.356.943-.951.023-.64-.4-.895-.942-1.038q0-3.427,0-6.854c.879-.013,1.759-.02,2.638-.042.243-.006.365.064.338.325a3.772,3.772,0,0,0,0,.386q0,14.4,0,28.807c0,1.307-.334,1.646-1.629,1.643-.536,0-1.073-.014-1.61-.021.5-1.3.17-2.665.264-4,.523-.142.945-.383.944-1.009s-.416-.869-.943-1q0-2.592,0-5.184c.552-.126.961-.4.941-1.031-.019-.592-.393-.866-.942-.95q0-1.762,0-3.524c.6-.079,1.012-.391,1.01-1.016a.988.988,0,0,0-1.01-1.013" transform="translate(-160.568 -24.124)" fill="#faedb4"/><path d="M184.025,24.557c-1.454.1-2.911.055-4.366.029a1.028,1.028,0,0,1-1.049-1.138c-.015-.728-.013-1.457,0-2.185.012-.769.359-1.171,1.128-1.183,1.434-.022,2.869.014,4.3.025a8.344,8.344,0,0,1-.015,4.452" transform="translate(-132.401 -14.88)" fill="#829fae"/><path d="M171.809,178.536c1.572-.107,1.572-.107,2.122,1.221l5.172,12.5c.343.829.285,1.237-.2,1.442-.534.226-.849-.006-1.211-.88q-2.807-6.784-5.615-13.567c-.089-.215-.164-.435-.268-.712" transform="translate(-127.368 -132.324)" fill="#6d8994"/><path d="M126.457,186v6.517c0,.151,0,.3,0,.452,0,.456-.179.751-.673.756s-.69-.275-.69-.738c0-.538,0-1.076,0-1.613,0-4.086.013-8.173-.015-12.259,0-.6.238-.645.72-.644s.681.074.673.626c-.033,2.3-.014,4.6-.014,6.9" transform="translate(-92.724 -132.308)" fill="#6e8b96"/><path d="M199.575,24.429a8.345,8.345,0,0,0,.015-4.452,1.234,1.234,0,0,1,.245-.062c1.885-.093,2.176.185,2.176,2.066,0,.408.01.816,0,1.223a1.158,1.158,0,0,1-1.282,1.277,3.593,3.593,0,0,1-1.151-.053" transform="translate(-147.952 -14.752)" fill="#67828c"/><path d="M125.127,10.034c0-.538,0-1.075,0-1.613,0-.432.2-.7.649-.713a.626.626,0,0,1,.712.715c0,1.118-.006,2.236,0,3.355.005.56-.406.39-.687.391s-.7.166-.684-.393c.012-.58,0-1.161,0-1.742" transform="translate(-92.758 -5.714)" fill="#6d8994"/><path d="M37.881,53.246c.728,1.219.462,2.574.53,3.883a3.3,3.3,0,0,0-1.03,2.733c.032.362-.093.479-.464.475-1.8-.018-3.609,0-5.414-.014a1.549,1.549,0,0,1-1.635-1.615q-.031-1.933,0-3.866a1.53,1.53,0,0,1,1.569-1.61c2.148-.015,4.3.006,6.443.013" transform="translate(-22.132 -39.459)" fill="#6185c5"/><path d="M72.288,78.093q-2.384.013-4.768.027a.946.946,0,0,1-.827-.412c-.3-.422-.227-.579.294-.65a3.575,3.575,0,0,0,3.089-3.369c.039-.406.16-.5.535-.48.556.036,1.115.026,1.673.035a17.746,17.746,0,0,1,0,4.848" transform="translate(-49.311 -54.271)" fill="#fbf6df"/><path d="M88.817,78.106a17.746,17.746,0,0,0,0-4.848c1.968-.134,2.173.053,2.173,1.981,0,.558.006,1.117,0,1.675-.012.879-.34,1.211-1.2,1.218-.321,0-.643-.016-.964-.025" transform="translate(-65.84 -54.283)" fill="#faedb4"/><path d="M66.436,74.448c.008-.936.537-1.408,1.411-1.282.187.027.274.075.252.269a1.786,1.786,0,0,1-.863,1.488c-.621.347-.807.23-.8-.474" transform="translate(-49.251 -54.225)" fill="#fbf6df"/><path d="M172.073,98.257c0,.516.01,1.032,0,1.547a.959.959,0,0,1-1.024,1.068q-1.611.038-3.224,0a.961.961,0,0,1-1.016-1.022q-.039-1.611,0-3.223a.952.952,0,0,1,1.068-1.022q1.58-.018,3.16,0a.945.945,0,0,1,1.036,1.042c.014.537,0,1.074,0,1.611m-1.954-.052c.176-.638-.17-.664-.68-.693-.627-.035-.712.206-.73.759-.021.606.2.68.735.7.625.021.827-.182.676-.764" transform="translate(-123.645 -70.867)" fill="#030303"/><path d="M172.073,55.508c0,.537.013,1.074,0,1.611a.918.918,0,0,1-1,1q-1.611.024-3.223,0a.928.928,0,0,1-1.034-.984q-.044-1.642,0-3.286a.949.949,0,0,1,1.046-.984q1.579-.031,3.159,0c.718.014,1.042.368,1.057,1.095.011.515,0,1.031,0,1.547m-1.964-.015c.171-.546-.052-.72-.63-.719-.556,0-.777.112-.771.731.006.576.174.712.723.7.515-.012.847-.066.678-.712" transform="translate(-123.644 -39.18)" fill="#040404"/><path d="M172.085,126.084c0,.537.011,1.074,0,1.61a.881.881,0,0,1-.914.957c-1.138.03-2.277.023-3.414,0a.871.871,0,0,1-.919-.892c-.039-1.158-.042-2.319,0-3.477a.869.869,0,0,1,.943-.866c1.117-.013,2.234-.023,3.35,0a.9.9,0,0,1,.95.988c.018.558,0,1.116,0,1.675m-2.682.621c.5.083.806.011.765-.63-.032-.493-.047-.795-.676-.74-.467.04-.812.007-.764.66.036.491.034.874.676.71" transform="translate(-123.658 -91.484)" fill="#030303"/><path d="M172.158,82.615c-1.376,0-2.752,0-4.128,0-.738,0-1.189-.392-1.171-.988.017-.569.458-.943,1.157-.944q4.16-.008,8.32,0c.693,0,1.132.389,1.135.963s-.427.965-1.122.969c-1.4.008-2.795,0-4.192,0" transform="translate(-123.698 -59.809)" fill="#020303"/><path d="M199.255,59.2c.538.143.964.4.942,1.038-.021.6-.4.865-.943.952l-5.147-.027c-.81,0-1.256-.345-1.255-.956s.465-.974,1.257-.98c1.715-.012,3.431-.018,5.147-.026" transform="translate(-142.968 -43.888)" fill="#040404"/><path d="M199.253,102c.549.084.923.358.942.95.02.632-.389.9-.941,1.031l-4.954-.022a4.8,4.8,0,0,1-.514-.009.992.992,0,0,1-.935-.969.947.947,0,0,1,1-.953c1.309-.015,2.617,0,3.926-.007.493,0,.986-.014,1.479-.021" transform="translate(-142.967 -75.613)" fill="#030303"/><path d="M208.606,129.7c.527.136.943.38.943,1s-.422.867-.944,1.009c-.665-.012-1.33-.019-1.994-.037-.735-.02-1.132-.349-1.149-.94-.018-.618.391-.978,1.151-1,.665-.018,1.329-.025,1.994-.037" transform="translate(-152.315 -96.148)" fill="#070708"/><path d="M194.7,130.63a1,1,0,1,1-.959-1.014,1.024,1.024,0,0,1,.959,1.014" transform="translate(-142.853 -96.087)" fill="#070708"/><path d="M214.8,80.527a.988.988,0,0,1,1.01,1.013c0,.625-.411.937-1.01,1.016a1.016,1.016,0,0,1,0-2.03" transform="translate(-158.513 -59.697)" fill="#070708"/><path d="M175.621,103.7c.151.581-.051.785-.676.764-.531-.018-.755-.092-.735-.7.019-.553.1-.794.73-.759.511.029.856.055.68.693" transform="translate(-129.147 -76.357)" fill="#ebc56f"/><path d="M175.614,61.007c.169.646-.163.7-.678.712-.549.013-.718-.123-.723-.7-.006-.62.215-.73.771-.731.578,0,.8.173.63.719" transform="translate(-129.15 -44.694)" fill="#4d78bc"/><path d="M174.9,132.216c-.641.164-.64-.219-.676-.71-.048-.653.3-.62.764-.66.629-.054.644.247.676.74.041.641-.264.713-.765.63" transform="translate(-129.153 -96.996)" fill="#4d78bc"/></g></g></g></svg>