<svg xmlns="http://www.w3.org/2000/svg" xmlns:xlink="http://www.w3.org/1999/xlink" width="219.5" height="219.5" viewBox="0 0 219.5 219.5"><defs><clipPath id="a"><rect width="219.5" height="219.5" fill="none"/></clipPath></defs><g transform="translate(-901 -6651.199)"><g transform="translate(901 6651.2)"><g transform="translate(0 -0.001)" clip-path="url(#a)"><path d="M120.32,181.573,109.2,334.071,130,338.451,153,206.564l4.593-.161L170.58,338.451l24.315-2.854-9.363-152.029Z" transform="translate(-5.278 -8.774)" fill="#12263f"/><line x1="1.52" y2="14.227" transform="translate(148.471 183.537)" fill="none" stroke="#e5d4bf" stroke-miterlimit="10" stroke-width="0.966"/><path d="M129.893,187.1s1.843,18.339-12.553,20.592" transform="translate(-5.671 -9.041)" fill="none" stroke="#e5d4bf" stroke-miterlimit="10" stroke-width="0.966"/><path d="M185.741,188.173s-2.358,12.5,5.773,16.25" transform="translate(-8.961 -9.093)" fill="none" stroke="#252b41" stroke-miterlimit="10" stroke-width="0.512"/><path d="M162.217,192.857c-.161.323,1.2,10.806-5.884,11.362" transform="translate(-7.555 -9.32)" fill="none" stroke="#e5d4bf" stroke-miterlimit="10" stroke-width="0.966"/><path d="M186.489,175.922l1.188,9.712s-4.946,7.789-29.426,8.326-38.439-11.81-38.439-11.81l1.4-10.335Z" transform="translate(-5.79 -8.303)" fill="#9d4545"/><path d="M170.6,174.918l.835.052.724,18.222c-.284.042-.574.083-.867.123Z" transform="translate(-8.245 -8.453)" fill="#ffd357"/><path d="M165.324,174.586l.834.052.514,19.138c-.285.023-.581.042-.872.064Z" transform="translate(-7.99 -8.437)" fill="#ffd357"/><path d="M175.892,175.251l.837.052.89,16.905c-.28.068-.568.133-.86.2Z" transform="translate(-8.501 -8.469)" fill="#ffd357"/><path d="M181.189,175.584l.837.052.985,15.024c-.274.1-.555.208-.847.311Z" transform="translate(-8.757 -8.485)" fill="#ffd357"/><path d="M188.29,188.159c-.253.17-.522.344-.821.522l-.974-12.764.838.052Z" transform="translate(-9.013 -8.501)" fill="#ffd357"/><path d="M160.053,174.254l.832.052.276,19.74c-.292.009-.576.021-.874.028Z" transform="translate(-7.735 -8.421)" fill="#e5d4bf"/><path d="M144.264,173.263l.828.052-.481,19.423c-.292-.059-.579-.122-.866-.184Z" transform="translate(-6.947 -8.373)" fill="#ffd357"/><path d="M128.555,172.276l.824.051-.956,15.077c-.284-.144-.561-.286-.831-.427Z" transform="translate(-6.166 -8.325)" fill="#e5d4bf"/><path d="M123.345,171.948l.822.051-.957,12.549c-.291-.189-.559-.369-.812-.542Z" transform="translate(-5.915 -8.309)" fill="#e5d4bf"/><path d="M133.779,172.6l.825.051-.859,17.02c-.285-.111-.57-.223-.847-.335Z" transform="translate(-6.423 -8.341)" fill="#e5d4bf"/><path d="M149.522,173.593l.829.052-.235,19.942c-.291-.035-.584-.068-.872-.106Z" transform="translate(-7.213 -8.389)" fill="#ffd357"/><path d="M155.642,194.022c-.3-.011-.583-.03-.875-.046l.022-20.054.83.052Z" transform="translate(-7.48 -8.405)" fill="#e5d4bf"/><path d="M139.016,172.933l.827.052-.695,18.457c-.29-.085-.574-.171-.857-.259Z" transform="translate(-6.684 -8.357)" fill="#e5d4bf"/><path d="M177.785,75.545c8.66,4.782,31.654,27.169,38.84,44.16s3.894,28.859-11.291,37.606-20.5,10.147-20.5,10.147l-3.382-18.682,13.112-13.7-15.85-22.254Z" transform="translate(-8.592 -3.65)" fill="#5840e2"/><line y1="9.168" x2="9.275" transform="translate(185.972 122.256)" fill="none" stroke="#f46464" stroke-miterlimit="10" stroke-width="0.708"/><path d="M195.32,146.917c4.648.923,7,6.292,4.433,9.084,2.075,1.837,2.179,4.589,1.859,6.687-12.2,6.776-16.59,7.933-16.59,7.933l-3.381-18.682L192.1,141.005a8.183,8.183,0,0,1,3.218,5.912" transform="translate(-8.779 -6.814)" fill="#f46464"/><path d="M146.347,65.9c-8.931,0-27.89,9.878-43.458,21.044l1.459,4.378,9.385,28.155,3.258,40.336a16.832,16.832,0,0,0,8.065,13.052,58.816,58.816,0,0,0,34.846,8.213c26.628-1.9,29.419-10.843,25.553-18.184,0,0-1.537-61.086-5.608-83.829,0,0-16.087-13.169-33.5-13.165" transform="translate(-4.973 -3.184)" fill="#f46464"/><path d="M124.806,164.663a59.118,59.118,0,0,0,7.086-1.449c2.577-.805,4.349-.805,4.107.724s-5.454,2.175-5.586,3.221,1.881,3.221,5.693,3.758c4.106.578,5.53,1.248,3.276,3.093.482,1.04-1.094,2.249-1.957,2.329-.379,1.369-2.138,2.335-4.279,2.175a12.089,12.089,0,0,1-4.116-1.194s.115,2.525,2.318,3.127,1.323,1.861-1.231,1.53-3.872-3.914-5.52-5.307a41.949,41.949,0,0,0-4.221-2.974Z" transform="translate(-5.818 -7.861)" fill="#e06f6f"/><path d="M138.91,174.458a13.3,13.3,0,0,1-8.3-2.51" transform="translate(-6.312 -8.309)" fill="none" stroke="#9e3838" stroke-miterlimit="10" stroke-width="0.966"/><path d="M137.19,176.917a17.665,17.665,0,0,1-7.72-1.181" transform="translate(-6.257 -8.492)" fill="none" stroke="#9e3838" stroke-miterlimit="10" stroke-width="0.966"/><path d="M147.852,65.9a46.235,46.235,0,0,1,10.476,1.555c.625,4.65-1.133,7.48-6.772,8.43-6,1.013-13.955-2.786-17.527-6.258,5.567-2.4,10.424-3.811,13.823-3.727" transform="translate(-6.478 -3.184)" fill="#5840e2"/><path d="M188.991,154.256c-.864,3.152-1.411,4.395-3.651,5.858s-3.087,2.462-1.945,2.945c-.882.781.2,1.959,1.2,2.161-.761,1.223.3,1.969,1.45,1.806a9.291,9.291,0,0,0,2.811-1.249,25.99,25.99,0,0,1-2.1,2.825c-.776.791-.5,1.948.316,1.809a5.3,5.3,0,0,0,3.727-5.207c1.229-2.258.326-3.516.326-3.516s.877-2.465-.287-3.921a3.056,3.056,0,0,0-1.852-3.513" transform="translate(-8.839 -7.454)" fill="#ffa7a7"/><path d="M184.6,163.377s4.382-1.318,5.726-4.751" transform="translate(-8.922 -7.665)" fill="none" stroke="#9e3838" stroke-miterlimit="10" stroke-width="0.966"/><path d="M185.837,165.4a8.274,8.274,0,0,0,4.856-2.944" transform="translate(-8.981 -7.85)" fill="none" stroke="#9e3838" stroke-miterlimit="10" stroke-width="0.966"/><path d="M120.608,160.872l4.832,2.98a9.487,9.487,0,0,1-1.875,8.812c-3.52,4.386-7.225,5.049-7.225,5.049l-4.509-4.1Z" transform="translate(-5.405 -7.774)" fill="#d1932a"/><path d="M160.323,35.731l-1.449,10.028s4.751,11.473-4.832,11.553l1.965,9.548a2.794,2.794,0,0,1-1.2,2.9,10.571,10.571,0,0,1-4.464,1.48c-3.493.458-7.636-1.486-9.74-2.648a2.7,2.7,0,0,1-1.4-2.312L138.8,45.758l5.332-13.224Z" transform="translate(-6.708 -1.571)" fill="#ffa7a7"/><path d="M154.257,58.338c-3.356-.108-7.435-1.02-9.744-4.563-2.386.716-1.123,5.336,1.526,6.428a5,5,0,0,1,1.867,1.381c2.847,3.3,7.592,2.783,7.592,2.783Z" transform="translate(-6.923 -2.598)" fill="#9e3838"/><path d="M155.295,43.548c0,.722.351,1.309.785,1.309s.785-.586.785-1.309-.351-1.309-.785-1.309-.785.586-.785,1.309" transform="translate(-7.505 -2.04)" fill="#2a2a2a"/><path d="M147.729,43.477c0,.722.351,1.309.785,1.309s.785-.586.785-1.309-.351-1.309-.785-1.309-.785.586-.785,1.309" transform="translate(-7.14 -2.037)" fill="#2a2a2a"/><path d="M153.655,42.471c-.154,1.08.846,3.413,1.469,4.7a.459.459,0,0,1-.5.652l-2.181-.4" transform="translate(-7.368 -2.052)" fill="none" stroke="#612525" stroke-miterlimit="10" stroke-width="0.966"/><path d="M155.52,50.091a7.519,7.519,0,0,1-6.965-2.013" transform="translate(-7.18 -2.323)" fill="none" stroke="#612525" stroke-miterlimit="10" stroke-width="0.966"/><path d="M155.4,52.544a4.864,4.864,0,0,0-3.543,0" transform="translate(-7.339 -2.521)" fill="none" stroke="#612525" stroke-miterlimit="10" stroke-width="0.966"/><path d="M152.183,40.833c-.684-1.61-3.664-3.02-5.194-.483" transform="translate(-7.104 -1.882)" fill="none" stroke="#333e67" stroke-miterlimit="10" stroke-width="2.107"/><path d="M158.482,41.336c-.724-1.651-2.859-1.289-3.624-.2" transform="translate(-7.484 -1.942)" fill="none" stroke="#333e67" stroke-miterlimit="10" stroke-width="2.107"/><path d="M141.112,42.9a13.152,13.152,0,0,0,4.066-8.286c2.5,4.066,9.068.78,9.068.78s4.066,2.658,6.724,0c3.284,1.722,6.647-2.1,4.635-5.325,4.509-4.833-2.939-16.721-11.839-8.747-8.91-3.063-11.246,5.473-11.246,5.473s-8.756,1.719-7.662,7.974a29.942,29.942,0,0,0,3.752,10.32Z" transform="translate(-6.513 -0.9)" fill="#312a45"/><path d="M136.131,46.485c.774,1.749,2.533,2.666,3.929,2.047s1.9-2.536,1.127-4.285-2.533-2.665-3.929-2.047-1.9,2.536-1.127,4.285" transform="translate(-6.562 -2.029)" fill="#ffa7a7"/><path d="M140.564,45.836c-.483-1.825-3.221-3.066-3.49-.379" transform="translate(-6.625 -2.121)" fill="none" stroke="#9e3838" stroke-miterlimit="10" stroke-width="0.966"/><path d="M101.273,87.957c-10.881,7.691-24.91,23.319-30.063,36.623s1.933,26.027,8.375,30.859,22.386,14.144,28.024,16.171,13.672-7.85,12.231-13.54-21.572-24.534-21.572-24.534,12.615-11.1,19.989-17.148c9.4-7.708-6.729-35.678-16.983-28.43" transform="translate(-3.356 -4.193)" fill="#5840e2"/><path d="M99.28,135.646s-3.866-4.613-8.858-5.206" transform="translate(-4.37 -6.303)" fill="none" stroke="#632222" stroke-miterlimit="10" stroke-width="0.708"/><path d="M84.094,136.578a15.859,15.859,0,0,1-9.859,14.68,27.327,27.327,0,0,1-3.025-25,49.25,49.25,0,0,1,2.132-4.7,15.86,15.86,0,0,1,10.753,15.013" transform="translate(-3.356 -5.874)" fill="#e5d4bf"/><path d="M102.406,162.572c-1.4-3.221,0-7.73,5.583-7.516a6.923,6.923,0,0,1,2.3-7.946c5.051,5.288,10.127,11.121,10.824,13.875,1.441,5.691-6.6,15.568-12.232,13.541a104.206,104.206,0,0,1-13.051-6.655c1.39-2.141,3.637-4.748,6.574-5.3" transform="translate(-4.631 -7.109)" fill="#f46464"/><line x1="16.213" y2="119.34" transform="translate(115.395 197.058)" fill="none" stroke="#252b41" stroke-miterlimit="10" stroke-width="0.512"/><line x2="9.28" y2="118.282" transform="translate(172.432 197.058)" fill="none" stroke="#252b41" stroke-miterlimit="10" stroke-width="0.512"/><path d="M64.554,45.849s-5.767-.463-9.54,6.062-.5,15.881-6.521,16.925-9.072,6.382-7.072,10.387-5.56,1.113-8.359,7.137-1.4,12.73-1.4,12.73L83.6,95.622s2.07-12.005,2.211-18.493a14.07,14.07,0,0,0-3.473-10s7.012-1.167,8.173-9.983S75.63,35.669,64.554,45.849" transform="translate(-1.513 -2.032)" fill="#8f3935"/><path d="M88.576,88.608c4.559,1.359,7.82,4.136,10.718,8.242s11.919,16.8,11.919,16.8L92.7,123.274Z" transform="translate(-4.281 -4.281)" fill="#e3bc4f"/><path d="M109.621,112.285l1.78,2.506L92.89,124.418l-.392-3.291Z" transform="translate(-4.47 -5.426)" fill="#fff"/><path d="M86.4,151.389H42.744s-9.076,11.653-9.921,31.1,7,63.521,7,63.521l-4.106,17L25.065,325.366l21.663,7.056L57.8,304.2l-2.48,28.225,24.114,1.716,8.574-71.126s6.642-23.285,8.333-45.143,1.84-49.875-9.949-66.48" transform="translate(-1.211 -7.316)" fill="#12263f"/><path d="M86.878,151.389a43.073,43.073,0,0,1,3.81,6.584C84.011,163.522,60.7,180.41,35.049,170.1c2.876-11.9,8.178-18.714,8.178-18.714Z" transform="translate(-1.694 -7.316)" fill="#303a58"/><path d="M48.647,151.8S45.911,167.285,34.5,172.448" transform="translate(-1.668 -7.335)" fill="none" stroke="#32568b" stroke-miterlimit="10" stroke-width="0.512"/><path d="M83.151,152.468S89.156,169.4,97.52,171.759" transform="translate(-4.019 -7.368)" fill="none" stroke="#32568b" stroke-miterlimit="10" stroke-width="0.512"/><path d="M67.372,153.546s5.95,67.684,7.4,81.726c1.432,13.9,1.062,21.21-1.127,27.927" transform="translate(-3.256 -7.42)" fill="none" stroke="#252b41" stroke-miterlimit="10" stroke-width="0.512"/><path d="M74.261,237.514c-.614-5.958-2.039-21.577-3.476-37.583,0,0,5.273,30.486,15.583,39.96a8.95,8.95,0,0,0,4.4,2.392,3.942,3.942,0,0,1,3.167,4.661c-2.189,10.707-12.96,89.541-12.96,89.541l-24.113-1.716,2.9-29.036c2.189-6.717,15.929-54.321,14.5-68.218" transform="translate(-2.748 -9.662)" fill="#040f1c"/><line x1="20.996" y1="3.208" transform="translate(55.721 165.569)" fill="none" stroke="#252b41" stroke-miterlimit="10" stroke-width="0.512"/><line x1="23.549" y1="5.762" transform="translate(51.96 167.174)" fill="none" stroke="#252b41" stroke-miterlimit="10" stroke-width="0.512"/><path d="M71.375,152.468l1.23,12.67a6.6,6.6,0,0,1-2.569,5.884l-.968.738" transform="translate(-3.338 -7.368)" fill="none" stroke="#252b41" stroke-miterlimit="10" stroke-width="0.512"/><path d="M50.085,158.88l6.771,78.292a45.848,45.848,0,0,1-.949,14.02L36.154,324.075" transform="translate(-1.747 -7.678)" fill="none" stroke="#32568b" stroke-miterlimit="10" stroke-width="0.512"/><path d="M83.1,157.988l3.671,75.554a75.183,75.183,0,0,1-3.689,27.178l-.888,2.694" transform="translate(-3.973 -7.634)" fill="none" stroke="#32568b" stroke-miterlimit="10" stroke-width="0.512"/><path d="M57.6,84.706,44.608,88.455a31.765,31.765,0,0,0-17.3,12.427l-6.876,9.926,16.121,11.848s2.725,10.936,4.92,18.913a3.814,3.814,0,0,0,3.677,2.8H83.833c6.793,0,.453-5.754.453-5.754s1.177-1.493.815-5.331c0,0,5.345-2.7,7.427-11.24s-3.622-20.041-3.622-20.041L85.283,88.419l-12.77-3.713Z" transform="translate(-0.988 -4.093)" fill="#e3bc4f"/><path d="M43.643,151.155H87.294l-.85-4.607H44.492Z" transform="translate(-2.109 -7.082)" fill="#ffd357"/><rect width="11.743" height="4.607" transform="translate(59.555 139.466)" fill="#51649d"/><path d="M68.748,88.893l2.174,12.317s6.28,16.49,0,26.9l-2.174,15.648" transform="translate(-3.323 -4.295)" fill="none" stroke="#ffd357" stroke-miterlimit="10" stroke-width="0.481"/><path d="M66.7,83.056a41.1,41.1,0,0,0-14.34,2.264.541.541,0,0,0-.222.879l6.871,7.364a3.692,3.692,0,0,0,5.348.053l3.775-3.889,4.881,4.7a2.648,2.648,0,0,0,3.994-.382,16.123,16.123,0,0,0,3.225-8.068.539.539,0,0,0-.35-.531A40.8,40.8,0,0,0,66.7,83.056" transform="translate(-2.513 -4.013)" fill="#ffd357"/><path d="M89.51,92.113l2.733,10.25s5.651,9.435,3.716,19.452" transform="translate(-4.326 -4.451)" fill="none" stroke="#ffd357" stroke-miterlimit="10" stroke-width="0.481"/><path d="M22.02,109.724l13.642,9.395.893,4.745L20.433,112.016Z" transform="translate(-0.988 -5.302)" fill="#fff"/><path d="M43.4,151.377l-4.879,4.378L60.529,165.9a2.1,2.1,0,0,0,2.927-1.44L66.5,151.135Z" transform="translate(-1.861 -7.303)" fill="#e3bc4f"/><path d="M67.923,151.157l5.465,13.391a2.1,2.1,0,0,0,3.152.926l15.535-10.9-3.609-3.2Z" transform="translate(-3.283 -7.304)" fill="#e3bc4f"/><line x1="25.994" y1="3.749" transform="translate(53.501 124.317)" fill="none" stroke="#ffd357" stroke-miterlimit="10" stroke-width="0.481"/><line x1="27.896" transform="translate(50.33 132.06)" fill="none" stroke="#ffd357" stroke-miterlimit="10" stroke-width="0.481"/><path d="M66.888,103.069a1.287,1.287,0,1,0,1.287-1.287,1.286,1.286,0,0,0-1.287,1.287" transform="translate(-3.233 -4.918)" fill="#fff"/><path d="M69.182,117.088a1.287,1.287,0,1,0,1.287-1.287,1.286,1.286,0,0,0-1.287,1.287" transform="translate(-3.344 -5.596)" fill="#fff"/><path d="M66.478,129.771a1.287,1.287,0,1,0,1.287-1.287,1.286,1.286,0,0,0-1.287,1.287" transform="translate(-3.213 -6.209)" fill="#fff"/><path d="M35.089,103.55s0,11.462,2.174,20.016" transform="translate(-1.696 -5.004)" fill="none" stroke="#ffd357" stroke-miterlimit="10" stroke-width="0.481"/><path d="M74.774,52.411s0,7.064-8.454,8.031L59.8,82.143a1.125,1.125,0,0,0,.7,1.385c2.7.968,10.2,3.193,13.917-.383l1.027-6.34s4.529,1.056,7.035-2.536c1.781-2.553,1.237-6.642,1.237-6.642l1.63-4.106a27.767,27.767,0,0,1-10.566-11.11" transform="translate(-2.888 -2.532)" fill="#d58a8a"/><path d="M75.81,77.8a10.228,10.228,0,0,1-7.066-4.419.649.649,0,0,0-1.168.256,5.288,5.288,0,0,0,.941,4.558,3.711,3.711,0,0,1,.869,1.621c.533,2.294,2.029,3.968,5.4,4.325Z" transform="translate(-3.26 -3.532)" fill="#ac4949"/><path d="M62.126,62.846c.52,2.1,2.279,3.471,3.93,3.062s2.568-2.442,2.048-4.542-2.279-3.472-3.93-3.062-2.568,2.442-2.048,4.542" transform="translate(-2.995 -2.813)" fill="#d58a8a"/><path d="M66.821,63.429a2.64,2.64,0,0,0,.111-1.675,1.857,1.857,0,1,0-3.5.867" transform="translate(-3.061 -2.895)" fill="none" stroke="#ac4949" stroke-miterlimit="10" stroke-width="0.3"/><path d="M63.58,66.372a1.267,1.267,0,1,0,1.267-1.267,1.267,1.267,0,0,0-1.267,1.267" transform="translate(-3.073 -3.146)" fill="#fff"/><path d="M78.928,64.249c-.608,1.815.069,3.679,1.514,4.164s3.109-.595,3.717-2.411-.069-3.679-1.514-4.164S79.536,62.434,78.928,64.249Z" transform="translate(-3.804 -2.982)" fill="none" stroke="#fff" stroke-miterlimit="10" stroke-width="0.512"/><path d="M72.423,62.069c-.608,1.815.069,3.679,1.514,4.164s3.109-.595,3.717-2.411-.069-3.679-1.514-4.164S73.031,60.254,72.423,62.069Z" transform="translate(-3.489 -2.877)" fill="none" stroke="#fff" stroke-miterlimit="10" stroke-width="0.512"/><line x1="1.708" y1="0.573" transform="translate(74.356 59.131)" fill="none" stroke="#fff" stroke-miterlimit="10" stroke-width="0.512"/><line x1="4.31" y1="1.445" transform="translate(64.768 57.375)" fill="none" stroke="#fff" stroke-miterlimit="10" stroke-width="0.512"/><line x2="1.604" y2="0.538" transform="translate(80.482 62.641)" fill="none" stroke="#fff" stroke-miterlimit="10" stroke-width="0.512"/><path d="M80.532,64.757c-.215.573-.073,1.155.317,1.3s.881-.2,1.1-.771.073-1.155-.317-1.3-.881.2-1.1.771" transform="translate(-3.887 -3.09)" fill="#1c1d26"/><path d="M74.237,62.39c-.215.573-.073,1.155.317,1.3s.881-.2,1.1-.771.073-1.155-.317-1.3-.881.2-1.1.771" transform="translate(-3.583 -2.975)" fill="#1c1d26"/><path d="M78.358,64.148l-.544,3.445.166,1.207a.475.475,0,0,1-.635.51l-1.554-.572" transform="translate(-3.663 -3.099)" fill="none" stroke="#ac4949" stroke-miterlimit="10" stroke-width="0.512"/><path d="M76.547,70.572s-2.023-.242-4.468-3.441" transform="translate(-3.484 -3.243)" fill="none" stroke="#ac4949" stroke-miterlimit="10" stroke-width="0.512"/><path d="M78.292,59.557a5.665,5.665,0,0,0-3.866-1.4" transform="translate(-3.597 -2.81)" fill="none" stroke="#1c1d26" stroke-miterlimit="10" stroke-width="0.922"/><path d="M24.24,113.917s-.106.412-.278,1.166c-1.053,4.6-4.6,21.919-1.756,35.806,3.305,16.161,48.113,32.675,48.113,32.675l7.419-6.543L39.351,147.275l-2.763-23.207" transform="translate(-1.021 -5.505)" fill="#d58a8a"/><path d="M89.786,178.574a13.868,13.868,0,0,0-3.868-.719,14.864,14.864,0,0,1,4.284-.085c1.957.218,3.413-1.248,2.253-1.7s-3.157-1.845-5.482-1.947a12.889,12.889,0,0,0-2.917.2c2.554-.906,2.834-3.742,1.793-3.242a10.178,10.178,0,0,1-3.047.678s-2.121-.027-4.021.112a9.886,9.886,0,0,0-3.906,1.442l-9.324,5.446s3.28,6.795,7.509,7.566A81.9,81.9,0,0,0,82,187.515c1.685.11,4.7,2.677,5.563,2.153s-.5-2.991-1.362-3.7a24.634,24.634,0,0,0-2.242-1.566c1.211-.4,2.243.74,4.2,1.367s4.018-.138,3.429-.857a20.181,20.181,0,0,0-3.581-2.425,10.716,10.716,0,0,0-2.975-.99c1.632-.267,2.538.07,4.52.182s4.9.757,4.882-.4-3.168-2.082-4.649-2.7" transform="translate(-3.168 -8.264)" fill="#d58a8a"/><path d="M143.814,155.534s6.009.063,12.212,14.952q3.36,8.067,5.55,13.23a19.938,19.938,0,0,1-1.123,17.786l-7.817,13.456-7.7-7.556,7.066-15.52-11.417-12.85Z" transform="translate(-6.795 -7.516)" fill="#d58a8a"/><path d="M104.818,198.573h35.656l-.553-3.352h-34.55Z" transform="translate(-5.066 -9.434)" fill="#313946"/><path d="M148.026,133.985c1.257-5.608-1.805-16.4-12.634-17.372s-14.406,6.671-14.89,9.765c-4.061,1.612-5.128,6.72-4.837,9.234-3.191,2.32-3.865,3.728-4.541,5.465,10.6,6.572,26.688,10.225,38.29,11,1.964-2.685,1.213-7.454-.485-8.551,2.568-2.817,1.7-7.45-.9-9.54" transform="translate(-5.37 -5.631)" fill="#12263f"/><path d="M104.347,189.076l-3.178-31.632S91.889,145.9,86.128,137.262s-4.635-16.652.215-22.075c12.776-14.286,30.2-19.552,30.2-19.552,3.743-3.587,10.446-5.127,11.5-5.063,1.317.081,1.242,1,1.242,1a16.619,16.619,0,0,1,2.419-.512c.917-.077,1.481.37,1.368,1.411a1.063,1.063,0,0,1,.936,1.747.949.949,0,0,1,.653.874.908.908,0,0,1-.712.935,32.72,32.72,0,0,0-8.611,3.237l4.029.261a.735.735,0,0,1,.226,1.415,15.963,15.963,0,0,1-3.512.925,27.408,27.408,0,0,1-5.623,0c-14.277,12.082-21.474,21.828-21.474,21.828A96.441,96.441,0,0,0,116.1,144.633l6.053,2.973,1.654-7.233,11.7,1.67-.781,7.836,5.339,2.143-.54,33.351Z" transform="translate(-3.975 -4.376)" fill="#d58a8a"/><path d="M135.689,152.625s-1.215,4.929-7.21,3.962-5.362-6.235-5.362-6.235l-6.054-2.973s-2.411,12.161-14.933,12.812l2.176,30.431s-2.321,3.384.1,3.384h34.519c3.964,0,5.607-3.384,2.61-6.575l.577-2.992a59.389,59.389,0,0,0,.224-20.47,39.868,39.868,0,0,1-.377-8.828Z" transform="translate(-4.936 -7.122)" fill="#0e9557"/><line x1="4.062" y2="37.49" transform="translate(119.095 149.394)" fill="none" stroke="#1cf290" stroke-miterlimit="10" stroke-width="0.481"/><path d="M132.891,161.639c-2.351-.3-3.479-4.857-3.479-4.857h0c.126.025.25.05.383.072,5.995.967,7.21-3.962,7.21-3.962l1.592.639c-.339,5.77-3.125,8.444-5.708,8.109" transform="translate(-6.254 -7.388)" fill="#1cf290"/><path d="M129.04,156.617l0,0s-2.708,4.712-5.77,2.888c-2.276-1.356-1.349-8.083-1.042-9.955l1.836.9a5.692,5.692,0,0,0,4.974,6.162" transform="translate(-5.886 -7.227)" fill="#1cf290"/><path d="M120.268,99.578c5.459-1.968,5.595-5.922,5.6-6.09l-.482-.01c0,.154-.148,3.8-5.28,5.645Z" transform="translate(-5.805 -4.517)" fill="#bd5656"/><path d="M136.279,93.947a1.61,1.61,0,0,1-.151.3.978.978,0,0,1,.166.09c-1.38.328-4.734,1.152-7.323,2,.127.31.251.635.369.984l-.365.124a12.11,12.11,0,0,0-2.822-4.874l.256-.288a5.43,5.43,0,0,1,.451.473c1.383-.473,3.358-1.076,4.507-1.422a.845.845,0,0,1,.039.266s.433-.124.974-.251l.023.079c-.034.01-3.233.953-5.281,1.646a11.54,11.54,0,0,1,.781,1.129,63.734,63.734,0,0,1,7.3-1.918,2.067,2.067,0,0,1-.007.214,1.244,1.244,0,0,1,.485.082,66.124,66.124,0,0,0-7.575,1.961,15.036,15.036,0,0,1,.719,1.436c2.653-.871,6.117-1.718,7.458-2.036" transform="translate(-6.097 -4.413)" fill="#bd5656"/><path d="M136.886,151.982c-9.146,1.8-10.99-7.777-10.99-7.777l10.725,2.107s.325.133.794.362Z" transform="translate(-6.084 -6.968)" fill="#ac4949"/><path d="M124.364,167.462a1.1,1.1,0,1,0,1.1-1.1,1.1,1.1,0,0,0-1.1,1.1" transform="translate(-6.01 -8.039)" fill="#1cf290"/><path d="M123.272,176.62a1.1,1.1,0,1,0,1.1-1.1,1.095,1.095,0,0,0-1.1,1.1" transform="translate(-5.958 -8.482)" fill="#1cf290"/><path d="M122.18,185.778a1.1,1.1,0,1,0,1.1-1.1,1.095,1.095,0,0,0-1.1,1.1" transform="translate(-5.905 -8.925)" fill="#1cf290"/><path d="M103.137,198.744h35.656c19.7,20.433,33.1,73.163,33.1,73.163-5.028,2.513-14.89.773-14.89.773s-7.542,4.641-18.205,1.741c-10.663,3.481-17.828,0-17.828,0s-7.165,3.481-17.829,0c-10.663,2.9-18.2-1.741-18.2-1.741s-9.863,1.741-14.891-.773c0,0,13.4-52.729,33.1-73.163" transform="translate(-3.385 -9.604)" fill="#9d4545"/><path d="M101.23,202.678c1.115-1.411,2.254-2.73,3.415-3.935H140.3a63.3,63.3,0,0,1,6.913,8.765,3.128,3.128,0,0,1-3.987,4.551c-14.072-6.957-32.465-10.569-42-9.381" transform="translate(-4.892 -9.604)" fill="#772828"/><path d="M160.156,272.679s-9.088-43.9-24.753-73.935" transform="translate(-6.544 -9.604)" fill="none" stroke="#772828" stroke-miterlimit="10" stroke-width="0.481"/><path d="M85.689,272.679s9.088-43.9,24.753-73.935" transform="translate(-4.141 -9.604)" fill="none" stroke="#772828" stroke-miterlimit="10" stroke-width="0.481"/><path d="M141.56,274.42s-4.471-44.93-12.178-75.676" transform="translate(-6.253 -9.604)" fill="none" stroke="#772828" stroke-miterlimit="10" stroke-width="0.481"/><path d="M104.925,274.42s4.471-44.93,12.178-75.676" transform="translate(-5.071 -9.604)" fill="none" stroke="#772828" stroke-miterlimit="10" stroke-width="0.481"/><line y1="75.676" transform="translate(117.58 189.14)" fill="none" stroke="#772828" stroke-miterlimit="10" stroke-width="0.481"/><path d="M144.141,144.54l-.019-.086.058-.065a6.145,6.145,0,0,0,1.7-5.583l.327-.1c.037.116.878,2.859-1.714,5.85a11.615,11.615,0,0,1-1.535,7.7l-.363-.057a11.236,11.236,0,0,0,1.544-7.65" transform="translate(-6.892 -6.702)" fill="#292b3a"/><path d="M147.64,144.969l-.033-.081.045-.074a6.14,6.14,0,0,0,.719-5.793l.305-.159c.056.108,1.355,2.666-.685,6.057a11.654,11.654,0,0,1-.226,7.931l-.353-.038a11.257,11.257,0,0,0,.228-7.844" transform="translate(-7.124 -6.71)" fill="#292b3a"/><path d="M118.951,137.376c-.068-4.038,2-5.828,2.094-5.9l.221.263c-.02.018-2.063,1.793-1.969,5.714l0,.085-.065.052a15.037,15.037,0,0,0-4.295,6.244c-.108-.054-.211-.11-.318-.166a15.693,15.693,0,0,1,4.33-6.29" transform="translate(-5.54 -6.353)" fill="#292b3a"/><path d="M122.054,138.23c-.454-4.012,1.437-5.993,1.518-6.075l.246.24c-.019.02-1.882,1.982-1.413,5.877l.01.084-.059.059a14.994,14.994,0,0,0-3.781,7.075c-.108-.047-.218-.09-.325-.138a15.572,15.572,0,0,1,3.8-7.12" transform="translate(-5.715 -6.386)" fill="#292b3a"/><path d="M120.249,135.062c.246,2.089,1.787,3.624,3.444,3.43s2.8-2.046,2.555-4.134-1.787-3.625-3.443-3.43-2.8,2.045-2.556,4.134" transform="translate(-5.81 -6.326)" fill="#d58a8a"/><path d="M124.394,131.2a4,4,0,0,1,2.037,3.176c.241,2.046-.856,3.854-2.458,4.11Z" transform="translate(-5.991 -6.34)" fill="#d27a7a"/><path d="M137.938,126.347s-.875,4.145-8.308,1.982c-1.6-.465-3.884,2.807-4.183,4.447-.249,1.366-.553,3.1-.859,5.054-.773,4.917,4.282,10.84,9.363,10.715,6.86-.17,9.173-4.22,9-9.665l2.136-7.909s-6.914,2.177-7.152-4.624" transform="translate(-6.017 -6.105)" fill="#d58a8a"/><path d="M128.181,137.564a1.863,1.863,0,1,0,2.314-1.383,1.907,1.907,0,0,0-2.314,1.383" transform="translate(-6.191 -6.577)" fill="#d27a7a"/><path d="M138.586,136.605c-.188.86.07,1.648.579,1.761s1.074-.5,1.263-1.356-.07-1.649-.579-1.761-1.073.5-1.263,1.356" transform="translate(-6.695 -6.535)" fill="#1c1d26"/><path d="M133.84,135.467a1.845,1.845,0,0,0-3.4-.745" transform="translate(-6.304 -6.468)" fill="none" stroke="#1c1d26" stroke-miterlimit="10" stroke-width="0.512"/><path d="M143.3,134.455a6.416,6.416,0,0,0-4.086-.9" transform="translate(-6.728 -6.451)" fill="none" stroke="#1c1d26" stroke-miterlimit="10" stroke-width="0.922"/><path d="M130.394,131.624a6.416,6.416,0,0,1,4.086.9" transform="translate(-6.302 -6.358)" fill="none" stroke="#1c1d26" stroke-miterlimit="10" stroke-width="0.922"/><path d="M136.263,135.936l-.207.641a1.049,1.049,0,0,0,.528,1.261.5.5,0,0,1,.025.891,2.838,2.838,0,0,1-1.382.249" transform="translate(-6.535 -6.569)" fill="none" stroke="#933636" stroke-miterlimit="10" stroke-width="0.512"/><path d="M138.2,141.029a34.658,34.658,0,0,1-7.677-1.9s-.677,6.338,1.885,7.183,5.792-5.287,5.792-5.287" transform="translate(-6.304 -6.723)" fill="#e3cccc"/><path d="M99.791,125.37a78.906,78.906,0,0,0,4.695,7.09c-4.708-2.419-6.776-4.283-4.695-7.09" transform="translate(-4.784 -6.058)" fill="#d27a7a"/><path d="M83.978,129.635a1.708,1.708,0,1,0,1.116-2.449,1.931,1.931,0,0,0-1.116,2.449" transform="translate(-4.055 -6.144)" fill="#d27a7a"/><path d="M132.492,119.779a7.5,7.5,0,0,0-6.212-5.817c-6.922-1-16.355,7.819-16.729,8.3l2.522,2.861,1.716-1.526-.908,1.929,4.15,2.838s6.611-10.965,10.552-10.3,3.274,2.574,3.274,2.574Z" transform="translate(-5.295 -5.503)" fill="#12263f"/><path d="M149.065,207.064c.312,3.254.242,4.61-1.331,6.773s-2.01,3.4-.772,3.445c-.546,1.042.878,1.762,1.89,1.593-.277,1.413.982,1.733,2,1.173a9.3,9.3,0,0,0,2.185-2.165,25.966,25.966,0,0,1-.955,3.384c-.443,1.014.22,2,.938,1.578a5.3,5.3,0,0,0,1.633-6.191c.346-2.547-.943-3.4-.943-3.4s-.056-2.614-1.663-3.562a3.054,3.054,0,0,0-2.979-2.626" transform="translate(-7.068 -10.006)" fill="#d58a8a"/><path d="M148.139,217.156s3.628-2.788,3.665-6.475" transform="translate(-7.159 -10.181)" fill="none" stroke="#9e3838" stroke-miterlimit="10" stroke-width="0.966"/><path d="M149.98,218.621a8.276,8.276,0,0,0,3.495-4.478" transform="translate(-7.248 -10.348)" fill="none" stroke="#9e3838" stroke-miterlimit="10" stroke-width="0.966"/></g></g></g></svg>