<svg xmlns="http://www.w3.org/2000/svg" xmlns:xlink="http://www.w3.org/1999/xlink" width="85" height="85" viewBox="0 0 85 85"><defs><clipPath id="a"><rect width="64.643" height="77.646" fill="none"/></clipPath></defs><g transform="translate(-1335 -4602.132)"><g transform="translate(0 -1986.868)"><rect width="85" height="85" transform="translate(1335 6589)" fill="none"/><g transform="translate(1345.178 6592.677)"><g clip-path="url(#a)"><path d="M60.688,129.63c.951.29,1.161.563,1.161,1.574,0,4.8.013,9.6-.013,14.4,0,.629.1.943.8.824a3.268,3.268,0,0,1,.982.006,1.129,1.129,0,0,1,.016,2.245,4,4,0,0,1-.681.015H1.71a3.552,3.552,0,0,1-.756-.024,1.068,1.068,0,0,1-.934-1.114,1.089,1.089,0,0,1,.931-1.12,1.1,1.1,0,0,1,.226-.016c.475-.021,1.139.142,1.378-.106.328-.339.1-1,.105-1.523q.011-9.588,0-19.176v-.848c-.359-.052-.507.229-.719.371a1.173,1.173,0,0,1-1.734-.174A1.146,1.146,0,0,1,.58,123.32q3.734-2.846,7.484-5.671c1.711-1.3,3.41-2.605,5.142-3.871.473-.346.568-.54.091-.98-.983-.908-1.911-1.876-2.85-2.83a4.562,4.562,0,1,1,6.441-6.455c.351.343.547.6,1.046.093a4.52,4.52,0,0,1,5.72-.878,4.567,4.567,0,0,1,1.93,5.531c-.021.069-.027.143-.05.264h.841q10,0,20.01-.005a2.066,2.066,0,0,1,1.341.391q8.143,6.18,16.3,12.344a1.16,1.16,0,0,1,.083,2,1.824,1.824,0,0,1-1.029.162c-1.228.01-1.228.007-1.228,1.231,0,1.511-.112,1.708-1.162,2.03a1.272,1.272,0,0,1-1.118-1.523c.028-.377-.021-.76.011-1.136.038-.449-.1-.613-.582-.611q-10.038.022-20.076,0c-.488,0-.582.165-.581.61q.018,10.909,0,21.818c0,.443.077.634.57.6a13.133,13.133,0,0,1,1.968,0c.559.044.71-.115.707-.692-.026-4.924-.016-9.848-.015-14.773,0-1.225.333-1.552,1.577-1.553q6.061,0,12.122,0c1.281,0,1.608.327,1.608,1.6,0,4.495-.005,8.99.007,13.485,0,.621-.284,1.47.122,1.8.383.313,1.2.064,1.825.122.581.054.76-.119.756-.731-.028-4.848,0-9.7-.026-14.545,0-.835.285-1.356,1.123-1.523m-43.068-1.419c-.376-.015-.753-.041-1.13-.042-1.639,0-1.626,0-1.575,1.655.012.386.1.539.511.521.78-.034,1.562-.024,2.344-.032l7.864.026c.232,0,.464.022.457-.328-.011-.5-.009-1.008,0-1.513.006-.345-.225-.335-.46-.334l-8.011.046M46.573,143.37c-.75-.013-1.5-.014-2.25-.043-.353-.014-.491.1-.48.47.022.726.025,1.453,0,2.178-.014.384.153.461.489.45.751-.025,1.5-.021,2.253-.029,1.862.008,3.724.032,5.585.016.8-.006,1.913.355,2.3-.148.405-.527.121-1.585.137-2.41,0-.025,0-.051,0-.076.033-.307-.069-.458-.412-.455-2.54.023-5.081.033-7.621.047M17.644,110.356a1.844,1.844,0,0,0,.32-.194c1.245-1.146,2.6-1.989,4.4-1.642.327.063.507-.169.685-.383a2.348,2.348,0,0,0-.114-3.108,2.322,2.322,0,0,0-3.161-.07c-.507.454-.959.969-1.456,1.435a1.115,1.115,0,0,1-1.734.012c-.407-.377-.786-.785-1.184-1.173a2.114,2.114,0,0,0-1.412-.789,2.175,2.175,0,0,0-2.454,1.186,2.232,2.232,0,0,0,.5,2.7c.634.651,1.272,1.3,1.93,1.926.562.534,1.046,1.527,1.691,1.492.673-.037,1.3-.852,1.951-1.328.019-.014.027-.042.04-.063m-.017,22.286c-.706-.009-1.413,0-2.116-.036-.464-.027-.606.129-.6.6.026,1.538.01,3.077.01,4.616,0,2.648.015,5.3-.012,7.945-.005.535.149.706.678.668.678-.048,1.36-.026,2.041-.034,2.651.008,5.3.009,7.953.031.389,0,.52-.1.519-.508q-.021-6.4,0-12.8c0-.405-.133-.512-.52-.509-2.651.022-5.3.025-7.952.034m24.255-11.552c.125.011.251.033.377.033q8.638,0,17.276,0c.114,0,.259.04.308-.181-1.453-1.1-2.917-2.217-4.389-3.322q-3.268-2.452-6.545-4.891c-.571-.456-1.155-.9-1.707-1.372a2.433,2.433,0,0,0-1.721-.578c-6.864.025-13.729.015-20.593.015h-.965l13.323,10.1a1.1,1.1,0,0,0,.7.227c1.311-.017,2.623-.024,3.935-.035m-27.144-1.958c-.436-.91-.359-1.239.463-1.863q2.109-1.6,4.225-3.2c.962-.729,1.205-.731,2.193.016q6.821,5.16,13.641,10.32a1.975,1.975,0,0,0,.821.486c0-.527-.023-1,.007-1.469a.936.936,0,0,0-.432-.888q-7.373-5.559-14.725-11.145a.565.565,0,0,0-.832,0q-7.348,5.592-14.717,11.157c-.2.149-.431.275-.429.579,0,.571,0,1.141,0,1.726a1.217,1.217,0,0,0,.71-.384c1.576-1.179,3.16-2.347,4.71-3.559a1.411,1.411,0,0,1,1.914-.1c.377.981.287,1.29-.549,1.931q-1.228.941-2.451,1.889c-1.333,1-2.663,2-4,2.984a.781.781,0,0,0-.35.7q.013,8.791,0,17.583c0,.367.057.548.488.536C6.71,146.4,8,146.4,9.287,146.4c.883.008,1.77-.026,2.649.039.62.046.728-.181.726-.749-.021-5.784-.013-11.568-.012-17.352,0-1.775.654-2.442,2.4-2.444q5.456,0,10.912,0c1.748,0,2.406.668,2.406,2.435q0,8.714-.011,17.428c0,.5.078.692.639.682,2.146-.036,4.294-.025,6.441-.006.452,0,.659-.053.657-.6q-.033-8.714-.007-17.428a.914.914,0,0,0-.4-.826q-7.406-5.583-14.791-11.193a.522.522,0,0,0-.768,0c-1.2.928-2.42,1.821-3.617,2.747a1.258,1.258,0,0,1-1.774,0m29.111,17.133v3.257c0,1.552,0,1.523,1.528,1.541.574.007.647-.218.643-.706-.021-2.373-.009-4.747-.009-7.12,0-1.578,0-1.549-1.576-1.565-.543-.005-.6.2-.594.654.024,1.313.008,2.626.008,3.939m10.759.077v-3.182c0-1.485,0-1.45-1.5-1.49-.6-.016-.692.2-.686.729.027,2.374.012,4.748.012,7.121,0,1.555,0,1.537,1.546,1.537.478,0,.655-.106.64-.625-.04-1.363-.013-2.727-.013-4.091m-6.329,0c0,1.364.024,2.729-.012,4.093-.014.515.16.691.646.625a1.347,1.347,0,0,1,.378,0c.663.1.91-.111.895-.844-.052-2.424-.019-4.851-.019-7.276,0-1.286,0-1.255-1.281-1.271-.531-.007-.624.188-.615.656.026,1.338.009,2.678.009,4.017" transform="translate(0 -71.057)" fill="#030303"/><path d="M86.666,19.2c.875.437,1.064.823.767,1.755a14.067,14.067,0,0,1-9.3,9.5,1.38,1.38,0,0,0-.836.678q-1.151,2.04-2.338,4.06c-.67,1.147-1.626,1.14-2.3-.017-.776-1.326-1.554-2.651-2.3-4a1.545,1.545,0,0,0-.954-.769,14.187,14.187,0,0,1,1.123-27.3,13.324,13.324,0,0,1,4.885-.27.546.546,0,0,0,.649-.32,4.5,4.5,0,0,1,7.391-1.023c.461.455.671.413,1.094-.022A4.32,4.32,0,0,1,89.321.28a4.348,4.348,0,0,1,3.064,3.775A4.424,4.424,0,0,1,91.007,7.9c-1.173,1.184-2.348,2.366-3.539,3.53a.73.73,0,0,0-.228.917,9.962,9.962,0,0,1,.549,2.116c.163,1.034,0,1.355-.946,1.741-1.578-.153-1.134-1.6-1.583-2.474-1.427.643-1.915.546-3.065-.6-1.675-1.676-3.343-3.359-5.031-5.022a4.9,4.9,0,0,1-1.507-2.561c-.06-.313-.195-.431-.479-.455a10.531,10.531,0,0,0-4.548.4,1.582,1.582,0,0,0-.3.03,12.023,12.023,0,0,0-8.46,11.409A11.846,11.846,0,0,0,70.54,28.371a2.277,2.277,0,0,1,1.528,1.216c.522.993,1.117,1.948,1.728,3l2.347-3.881c.164-.06.325-.133.493-.18A11.832,11.832,0,0,0,85.281,20.2a1.249,1.249,0,0,1,1.385-1m-.9-9.335c1.252-1.242,2.537-2.453,3.747-3.734a2.217,2.217,0,0,0-.08-3.192,2.269,2.269,0,0,0-3.2.035c-.13.119-.251.248-.376.373-1.874,1.869-1.872,1.867-3.73.02a2.432,2.432,0,0,0-1.487-.958,2.169,2.169,0,0,0-2.466.979A2.216,2.216,0,0,0,78.4,6.067c1.739,1.8,3.525,3.549,5.285,5.326.226.229.39.247.617,0,.478-.519.977-1.017,1.468-1.524" transform="translate(-41.484 -0.001)" fill="#040403"/><path d="M101.166,30.684a1.249,1.249,0,0,0-1.385,1,11.832,11.832,0,0,1-8.645,8.325c-.168.046-.329.119-.493.18a1.941,1.941,0,0,0-.908-.485,13.2,13.2,0,0,1-6.079-3.83.987.987,0,0,1-.323-.811c.191.122.38.246.573.366A8.3,8.3,0,0,0,96.6,28.7c.034-.811-.364-1.355-1.037-1.418S94.413,27.7,94.34,28.5A7.734,7.734,0,0,1,94,30.357a6.017,6.017,0,0,1-11.7-1.666c-.117-1.291-.676-1.657-1.848-1.21A12.088,12.088,0,0,1,82.206,20.5a22.084,22.084,0,0,1,2.924-3.534,10.528,10.528,0,0,1,4.548-.4c.284.025.419.142.479.455a4.893,4.893,0,0,0,1.507,2.561c1.688,1.663,3.356,3.347,5.031,5.022,1.15,1.15,1.638,1.247,3.065.6.449.875,0,2.322,1.583,2.474a12.144,12.144,0,0,1-.177,3M86.484,25.065a8.987,8.987,0,0,0-.008-1.13,1.064,1.064,0,0,0-1.122-1.007,1.04,1.04,0,0,0-1.115,1.01,15.255,15.255,0,0,0,0,2.261,1.039,1.039,0,0,0,1.117,1.007,1.065,1.065,0,0,0,1.12-1.01,8.922,8.922,0,0,0,.008-1.13m5.915-.021c0-.352.026-.706-.005-1.055a1.114,1.114,0,0,0-1.149-1.068,1.074,1.074,0,0,0-1.1,1.037,18.478,18.478,0,0,0,0,2.186,1.126,1.126,0,0,0,2.247.03,10.379,10.379,0,0,0,.009-1.13" transform="translate(-55.984 -11.48)" fill="#f8df85"/><path d="M148.532,178.506c-.838.167-1.127.687-1.123,1.523.022,4.849,0,9.7.026,14.545,0,.613-.175.786-.756.732-.622-.058-1.442.191-1.825-.123-.406-.333-.12-1.181-.122-1.8-.012-4.495-.006-8.99-.007-13.485,0-1.278-.327-1.6-1.608-1.6q-6.061,0-12.122,0c-1.244,0-1.576.328-1.577,1.553,0,4.924-.012,9.849.015,14.773,0,.578-.148.737-.707.692a13.127,13.127,0,0,0-1.968,0c-.494.035-.571-.156-.57-.6q.02-10.909,0-21.818c0-.445.093-.611.581-.61q10.038.024,20.076,0c.483,0,.62.162.582.611-.032.376.017.759-.011,1.136a1.272,1.272,0,0,0,1.118,1.523q0,1.477,0,2.954" transform="translate(-87.844 -119.933)" fill="#f6dcce"/><path d="M162.992,83.541a4.183,4.183,0,0,1-1.112,3.29q-2.333,2.378-4.709,4.714a1.877,1.877,0,0,1-2.877-.008c-1.564-1.542-3.125-3.087-4.656-4.66a4.006,4.006,0,0,1,5.6-5.731c.473.456.668.286,1.047-.055a3.794,3.794,0,0,1,4.347-.71,3.687,3.687,0,0,1,2.36,3.16m-5.523,4.445c.928-.918,1.882-1.812,2.777-2.761a1.733,1.733,0,0,0-2.485-2.415c-.39.355-.742.751-1.128,1.112a1.136,1.136,0,0,1-1.785.007c-.441-.406-.877-.819-1.315-1.23a1.72,1.72,0,0,0-2.286,2.565c.935.984,1.891,1.951,2.88,2.88.551.517,1,1.54,1.686,1.41.628-.118,1.109-1.014,1.655-1.567" transform="translate(-103.338 -55.687)" fill="#040403"/><path d="M30.562,157.034q1.226-.945,2.451-1.889c.836-.64.926-.95.549-1.931.91-.422,1.541-1.253,2.45-1.678a1.257,1.257,0,0,0,1.774,0c1.2-.926,2.421-1.819,3.617-2.747a.522.522,0,0,1,.768,0q7.384,5.612,14.791,11.193a.914.914,0,0,1,.4.826q-.015,8.714.007,17.428c0,.545-.205.6-.657.6-2.147-.019-4.294-.03-6.441.006-.561.009-.64-.182-.639-.682q.026-8.714.011-17.428c0-1.767-.658-2.434-2.406-2.435q-5.456,0-10.912,0c-1.744,0-2.4.669-2.4,2.443,0,5.784-.009,11.568.012,17.352,0,.568-.106.8-.726.75-.879-.065-1.766-.031-2.649-.039q0-10.883,0-21.766" transform="translate(-21.275 -103.46)" fill="#f9ebe4"/><path d="M123.66,137.156q3.273,2.445,6.545,4.891c1.472,1.1,2.936,2.221,4.389,3.322-.048.222-.194.181-.308.181q-8.638,0-17.275,0c-.126,0-.251-.021-.377-.033-.012-.17-.127-.254-.253-.349-1.041-.789-2.075-1.587-3.113-2.379-1.778-1.355-3.565-2.7-5.33-4.071-.3-.232-.719-.5-.491-.991a1.013,1.013,0,0,1,1.069-.541c1.363.024,2.726.011,4.089.008q5.528-.015,11.055-.034" transform="translate(-74.753 -95.48)" fill="#5c6b74"/><path d="M58.009,202.6c2.651-.009,5.3-.012,7.952-.034.387,0,.521.1.52.509q-.02,6.4,0,12.8c0,.405-.13.511-.519.508-2.651-.022-5.3-.023-7.953-.031q0-6.877,0-13.753m5.306,5.879c0,.4-.026.81.006,1.211a1.109,1.109,0,0,0,1.149,1.071,1.06,1.06,0,0,0,1.1-1.04,21.834,21.834,0,0,0,.006-2.422,1.111,1.111,0,0,0-1.147-1.075,1.135,1.135,0,0,0-1.107,1.119c-.025.377,0,.757,0,1.136" transform="translate(-40.383 -141.016)" fill="#e9a975"/><path d="M20.593,176.312q0,10.883,0,21.766c-1.288.008-2.576,0-3.864.034-.431.012-.488-.169-.488-.536q.013-8.792,0-17.583a.78.78,0,0,1,.35-.7c1.338-.988,2.668-1.988,4-2.984" transform="translate(-11.306 -122.739)" fill="#f6dcce"/><path d="M103.709,132.688q-5.528.017-11.055.034c-1.363,0-2.726.016-4.089-.008a1.013,1.013,0,0,0-1.069.541c-.228.494.193.76.491.991,1.765,1.371,3.552,2.716,5.33,4.071,1.039.792,2.072,1.591,3.113,2.38.126.1.241.18.253.349-1.311.01-2.623.017-3.935.035a1.094,1.094,0,0,1-.7-.227l-13.323-10.1h.965c6.865,0,13.729.01,20.593-.015a2.435,2.435,0,0,1,1.721.578c.552.476,1.137.916,1.707,1.372" transform="translate(-54.803 -91.013)" fill="#49595f"/><path d="M26.079,140.064c-.909.424-1.54,1.255-2.45,1.678a1.411,1.411,0,0,0-1.914.1c-1.55,1.213-3.134,2.38-4.71,3.559a1.217,1.217,0,0,1-.711.384c0-.585,0-1.155,0-1.726,0-.3.232-.43.429-.58q7.36-5.575,14.716-11.157a.565.565,0,0,1,.832,0Q39.622,137.912,47,143.469a.936.936,0,0,1,.432.888c-.03.469-.007.942-.007,1.469a1.979,1.979,0,0,1-.821-.486q-6.823-5.157-13.641-10.32c-.988-.747-1.231-.745-2.193-.016q-2.111,1.6-4.224,3.2c-.822.625-.9.953-.463,1.863" transform="translate(-11.342 -91.988)" fill="#9da8b5"/><path d="M51.783,202.592q0,6.877,0,13.754c-.681.008-1.363-.014-2.041.034-.528.038-.683-.133-.677-.668.027-2.648.012-5.3.012-7.945,0-1.538.017-3.077-.01-4.616-.008-.466.135-.622.6-.6.7.041,1.411.027,2.116.036" transform="translate(-34.157 -141.007)" fill="#c98a5c"/><path d="M45.918,109.712a2.115,2.115,0,0,1,1.412.789c.4.387.776.8,1.184,1.172a1.115,1.115,0,0,0,1.734-.012c.5-.466.948-.982,1.456-1.435a2.322,2.322,0,0,1,3.161.07,2.347,2.347,0,0,1,.114,3.108c-.178.214-.357.446-.684.383-1.8-.347-3.157.5-4.4,1.642a1.883,1.883,0,0,1-.32.194c-.751-.563-1.3-1.343-2.026-1.924a4.068,4.068,0,0,1-1.63-3.989" transform="translate(-31.93 -76.325)" fill="#e86c71"/><path d="M153.272,237.88c2.541-.014,5.081-.024,7.621-.047.343,0,.446.148.412.455,0,.025,0,.05,0,.075-.017.826.268,1.883-.137,2.41-.387.5-1.5.141-2.3.148-1.862.015-3.724-.009-5.586-.016q-.005-1.513-.01-3.025" transform="translate(-106.699 -165.566)" fill="#e9a975"/><path d="M39.828,109.806a4.068,4.068,0,0,0,1.63,3.989c.725.581,1.275,1.361,2.026,1.924-.013.021-.022.05-.04.064-.648.476-1.279,1.292-1.951,1.328-.645.035-1.129-.958-1.691-1.492-.658-.626-1.3-1.274-1.93-1.926a2.232,2.232,0,0,1-.5-2.7,2.174,2.174,0,0,1,2.454-1.186" transform="translate(-25.84 -76.42)" fill="#e7555a"/><path d="M144.283,204.083c0-1.313.015-2.626-.008-3.939-.008-.449.052-.66.595-.654,1.576.016,1.576-.013,1.576,1.564,0,2.373-.012,4.747.009,7.12,0,.488-.069.713-.643.706-1.528-.019-1.528.011-1.528-1.541v-3.257" transform="translate(-100.436 -138.874)" fill="#a7e1f6"/><path d="M174.706,204.156c0,1.364-.026,2.728.013,4.091.015.519-.162.626-.64.626-1.546,0-1.546.017-1.546-1.537,0-2.374.016-4.748-.012-7.121-.006-.533.081-.745.686-.729,1.5.039,1.5,0,1.5,1.489v3.182" transform="translate(-120.1 -138.87)" fill="#a7e1f6"/><path d="M158.855,204.148c0-1.339.017-2.678-.009-4.017-.009-.468.084-.663.615-.656,1.281.017,1.281-.014,1.281,1.271,0,2.425-.032,4.852.019,7.276.016.733-.232.943-.895.844a1.35,1.35,0,0,0-.378,0c-.486.066-.66-.11-.646-.625.036-1.363.012-2.728.012-4.093" transform="translate(-110.577 -138.863)" fill="#9dd4e8"/><path d="M57.954,187.992l8.011-.046c.234,0,.466-.012.46.334-.009.5-.01,1.008,0,1.512.007.349-.225.328-.457.328L58.1,190.1a6.335,6.335,0,0,1-.15-2.1" transform="translate(-40.334 -130.837)" fill="#a7e1f6"/><path d="M147.012,237.886q0,1.513.01,3.025c-.751.008-1.5,0-2.252.029-.337.011-.5-.066-.49-.45.026-.725.023-1.453,0-2.178-.011-.366.127-.484.48-.47.75.029,1.5.03,2.25.043" transform="translate(-100.439 -165.572)" fill="#c98a5c"/><path d="M51.758,188a6.335,6.335,0,0,0,.15,2.1c-.781.008-1.564,0-2.344.032-.407.018-.5-.135-.512-.521-.051-1.658-.064-1.66,1.575-1.655.377,0,.753.027,1.13.042" transform="translate(-34.137 -130.846)" fill="#9dd4e8"/><path d="M75.854,18.051a22.086,22.086,0,0,0-2.924,3.534,12.085,12.085,0,0,0-1.757,6.983,1.683,1.683,0,0,0-.424,1.387,8.473,8.473,0,0,0,3.309,6.191.987.987,0,0,0,.323.811,13.2,13.2,0,0,0,6.079,3.83,1.941,1.941,0,0,1,.908.485l-2.347,3.881c-.611-1.051-1.206-2.006-1.728-3a2.275,2.275,0,0,0-1.527-1.216A11.846,11.846,0,0,1,67.1,29.49a12.022,12.022,0,0,1,8.46-11.409,1.552,1.552,0,0,1,.3-.03" transform="translate(-46.708 -12.566)" fill="#f5ce6e"/><path d="M128.426,7.68a2.433,2.433,0,0,1,1.486.959c1.858,1.847,1.856,1.849,3.73-.02.125-.125.246-.254.376-.373a2.269,2.269,0,0,1,3.2-.035A2.218,2.218,0,0,1,137.3,11.4c-1.211,1.281-2.494,2.493-3.747,3.734-1.556-1.536-3.163-3.023-4.644-4.628a2.694,2.694,0,0,1-.483-2.829" transform="translate(-89.267 -5.268)" fill="#e86c71"/><path d="M122.436,7.768a2.694,2.694,0,0,0,.483,2.829c1.481,1.6,3.088,3.092,4.644,4.628-.491.507-.99,1.005-1.467,1.524-.227.246-.39.228-.617,0-1.76-1.777-3.547-3.528-5.285-5.326a2.216,2.216,0,0,1-.224-2.675,2.169,2.169,0,0,1,2.466-.979" transform="translate(-83.276 -5.356)" fill="#e7555a"/><path d="M82.408,59.764A8.473,8.473,0,0,1,79.1,53.573a1.683,1.683,0,0,1,.424-1.387c1.171-.448,1.73-.082,1.848,1.21a6.017,6.017,0,0,0,11.7,1.666,7.736,7.736,0,0,0,.339-1.852c.073-.81.556-1.288,1.226-1.226s1.07.606,1.037,1.417a8.3,8.3,0,0,1-12.7,6.729c-.192-.12-.382-.244-.573-.366" transform="translate(-55.058 -36.184)" fill="#040403"/><path d="M95.139,39.812a9.044,9.044,0,0,1-.008,1.13,1.065,1.065,0,0,1-1.12,1.01,1.039,1.039,0,0,1-1.116-1.007,15.217,15.217,0,0,1,0-2.261,1.04,1.04,0,0,1,1.115-1.01,1.064,1.064,0,0,1,1.122,1.008,9.039,9.039,0,0,1,.009,1.13" transform="translate(-64.638 -26.227)" fill="#040403"/><path d="M114.605,39.768a10.235,10.235,0,0,1-.008,1.13,1.126,1.126,0,0,1-2.247-.03,18.476,18.476,0,0,1,0-2.186,1.074,1.074,0,0,1,1.1-1.037,1.114,1.114,0,0,1,1.149,1.068c.031.349.005.7,0,1.055" transform="translate(-78.191 -26.204)" fill="#040403"/><path d="M164.918,87.962c.438.41.873.823,1.315,1.229a1.136,1.136,0,0,0,1.785-.007c.386-.36.738-.756,1.127-1.112a1.733,1.733,0,0,1,2.485,2.416c-.894.95-1.848,1.843-2.777,2.761-1.142-1.124-2.325-2.21-3.408-3.389a1.721,1.721,0,0,1-.527-1.9" transform="translate(-114.723 -60.95)" fill="#e86c71"/><path d="M158.755,88a1.721,1.721,0,0,0,.527,1.9c1.082,1.179,2.266,2.265,3.408,3.389-.546.553-1.027,1.448-1.655,1.567-.689.13-1.136-.893-1.686-1.41-.99-.929-1.945-1.9-2.88-2.879A1.72,1.72,0,0,1,158.755,88" transform="translate(-108.56 -60.991)" fill="#e7555a"/><path d="M75.445,216.862c0-.379-.021-.759,0-1.136a1.134,1.134,0,0,1,1.107-1.119,1.111,1.111,0,0,1,1.147,1.075A21.838,21.838,0,0,1,77.7,218.1a1.061,1.061,0,0,1-1.1,1.04,1.109,1.109,0,0,1-1.149-1.071c-.032-.4-.006-.808-.007-1.211" transform="translate(-52.514 -149.397)" fill="#030303"/></g></g></g></g></svg>