<svg xmlns="http://www.w3.org/2000/svg" xmlns:xlink="http://www.w3.org/1999/xlink" width="293.828" height="339.305" viewBox="0 0 293.828 339.305">
  <defs>
    <clipPath id="clip-path">
      <rect id="Rectángulo_312985" data-name="Rectángulo 312985" width="293.828" height="335.09" fill="none"/>
    </clipPath>
    <clipPath id="clip-path-2">
      <rect id="Rectángulo_312984" data-name="Rectángulo 312984" width="293.829" height="335.09" fill="none"/>
    </clipPath>
    <clipPath id="clip-path-3">
      <rect id="Rectángulo_312983" data-name="Rectángulo 312983" width="3.538" height="2.269" fill="none"/>
    </clipPath>
  </defs>
  <g id="Grupo_996293" data-name="Grupo 996293" transform="translate(-285 -5713.631)">
    <path id="Trazado_657003" data-name="Trazado 657003" d="M114.31,33.831h-85a27.955,27.955,0,0,1,2.862-2.412c3.686-2.674,8.359-4.247,12.844-3.435,2.861.525,5.672,1.986,8.546,1.486,2.6-.449,4.623-2.385,6.622-4.11A52.85,52.85,0,0,1,79.976,14.69a30.942,30.942,0,0,1,12.669-1.263C102.8,14.84,110.849,23.5,114.21,33.194Z" transform="translate(255.69 5745.446)" fill="#fff2d0"/>
    <path id="Trazado_660042" data-name="Trazado 660042" d="M29.31,40.709H142.662a37.279,37.279,0,0,0-3.817-3.216c-4.915-3.566-11.147-5.664-17.128-4.581-3.815.7-7.564,2.648-11.4,1.982-3.467-.6-6.166-3.181-8.831-5.481A70.477,70.477,0,0,0,75.1,15.183,41.262,41.262,0,0,0,58.2,13.5c-13.546,1.884-24.276,13.43-28.758,26.36Z" transform="translate(402.604 5700.419)" fill="#fff2d0"/>
    <path id="Trazado_657061" data-name="Trazado 657061" d="M127.23,10.1l-4.343,1.679a7.128,7.128,0,0,0-4.08,4.082l-1.681,4.343-1.679-4.343a7.138,7.138,0,0,0-4.08-4.082L107.022,10.1l4.345-1.679a7.139,7.139,0,0,0,4.08-4.08L117.126,0l1.681,4.345a7.13,7.13,0,0,0,4.08,4.08Z" transform="translate(272.522 5731.024)" fill="#fff2d0"/>
    <path id="Trazado_660041" data-name="Trazado 660041" d="M121.845,7.411l-3.186,1.232a5.229,5.229,0,0,0-2.993,2.994l-1.233,3.186L113.2,11.637a5.236,5.236,0,0,0-2.993-2.994l-3.187-1.232,3.187-1.232A5.237,5.237,0,0,0,113.2,3.187L114.433,0l1.233,3.187a5.23,5.23,0,0,0,2.993,2.993Z" transform="translate(183.978 5885.391)" fill="#fff2d0"/>
    <path id="Trazado_657062" data-name="Trazado 657062" d="M197.017,95.21l-4.345,1.681a7.132,7.132,0,0,0-4.08,4.078l-1.679,4.345-1.679-4.345a7.132,7.132,0,0,0-4.08-4.078l-4.345-1.681,4.345-1.679a7.139,7.139,0,0,0,4.08-4.08l1.679-4.345,1.679,4.345a7.14,7.14,0,0,0,4.08,4.08Z" transform="translate(362.091 5800.285)" fill="#fff6db"/>
    <g id="Grupo_996292" data-name="Grupo 996292" transform="translate(285 5717.846)">
      <g id="Grupo_996291" data-name="Grupo 996291" clip-path="url(#clip-path)">
        <g id="Grupo_996290" data-name="Grupo 996290">
          <g id="Enmascarar_grupo_878560" data-name="Enmascarar grupo 878560" clip-path="url(#clip-path-2)">
            <path id="Trazado_659777" data-name="Trazado 659777" d="M109.478,337.88l.815,6.11h10.183l-.814-6.11Z" transform="translate(-10.68 -32.961)" fill="#e69680"/>
            <path id="Trazado_659795" data-name="Trazado 659795" d="M45.121,337.88l-.43,6.11H54.875l.43-6.11Z" transform="translate(-4.36 -32.961)" fill="#e69680"/>
            <path id="Trazado_659773" data-name="Trazado 659773" d="M47.992,183.1c14.373,5.709,36.02-3.069,45.133-8.316,2.466-1.42,2.68-6.758,1.961-12.948-.042-.356-.086-.717-.134-1.079v0c-.376-2.888-.937-5.915-1.548-8.789q-.107-.506-.218-1.008c-1.558-7.1-3.35-12.993-3.35-12.993S63.63,144.6,44.627,141.549c0,0-.982,4.787-1.735,11.124-.039.337-.078.674-.116,1.019-.253,2.262-.468,4.693-.6,7.153q-.028.527-.05,1.055c-.4,9.468.591,19.108,5.864,21.2" transform="translate(-4.102 -13.459)" fill="#12263f"/>
            <path id="Trazado_659774" data-name="Trazado 659774" d="M42.854,155.1c1.772.454,4.122,1.008,6.846,1.54.344.069.7.134,1.052.2a95.541,95.541,0,0,0,17.1,1.737c.257,0,.512,0,.768,0a68.124,68.124,0,0,0,17.8-2.792q.508-.143.99-.291c2.544-.77,4.63-1.538,6.078-2.116q-.107-.506-.218-1.008c-1.45.583-3.613,1.387-6.277,2.188-.319.1-.645.2-.982.291h0a67.08,67.08,0,0,1-17.4,2.711A92.446,92.446,0,0,1,51.24,155.9c-.35-.065-.7-.13-1.037-.2-2.9-.559-5.4-1.151-7.232-1.623-.039.337-.078.674-.116,1.019" transform="translate(-4.18 -14.863)" fill="#2d578b"/>
            <path id="Trazado_659775" data-name="Trazado 659775" d="M88.358,144.024a32.514,32.514,0,0,0,2.084,9.951h0c.13.322.267.634.41.938a14.318,14.318,0,0,0,4.069,5.3,10.962,10.962,0,0,0,4.68,2.159c-.042-.356-.085-.717-.134-1.079v0a9.978,9.978,0,0,1-3.937-1.894,13.22,13.22,0,0,1-3.688-4.778c-.147-.3-.288-.615-.418-.937a31.224,31.224,0,0,1-2.053-9.732.508.508,0,1,0-1.014.071" transform="translate(-8.619 -13.997)" fill="#473733"/>
            <path id="Trazado_659776" data-name="Trazado 659776" d="M42.136,162.438a11,11,0,0,0,5.02-2.222,13.709,13.709,0,0,0,3.526-4.245c.171-.3.332-.617.487-.941a30.636,30.636,0,0,0,2.551-11.006.508.508,0,1,0-1.013-.071,29.187,29.187,0,0,1-2.575,10.883c-.159.321-.328.634-.5.935a12.577,12.577,0,0,1-3.081,3.63,9.993,9.993,0,0,1-4.363,1.984q-.027.525-.049,1.055" transform="translate(-4.11 -13.997)" fill="#473733"/>
            <path id="Trazado_659778" data-name="Trazado 659778" d="M116.975,323.016l-12.221.612s-.436-1.593-1.18-4.295c-.117-.43-.244-.89-.379-1.375-2.168-7.88-6.249-22.689-9.974-36.069-5.392-19.373-3.363-42.463-3.363-42.463-7.079-23.175-15.093-35.5-16.266-64.483l24.778-8.21,9.1,67.276.088.82.135,1.272,8.673,81.251.149,1.385Z" transform="translate(-7.179 -16.265)" fill="#12263f"/>
            <path id="Trazado_659780" data-name="Trazado 659780" d="M105.947,320.8c-.112-.435-.231-.894-.356-1.374-2.378-9.176-6.736-26.1-9.583-37.772-3.927-16.1-2.835-41.376-2.736-43.463a162.862,162.862,0,0,1-15.88-54.931.509.509,0,1,1,1.016-.07,161.7,161.7,0,0,0,15.833,54.662.507.507,0,0,1,.054.257c-.014.264-1.341,26.732,2.7,43.3,2.865,11.751,7.268,28.84,9.633,37.964q.187.723.356,1.376Z" transform="translate(-7.55 -17.824)" fill="#2d578b"/>
            <path id="Trazado_659796" data-name="Trazado 659796" d="M63.363,240.414s2.876,8.7-.612,28.312c-2.865,16.126-5.645,40.208-6.776,50.478q-.083.743-.153,1.388c-.244,2.241-.378,3.535-.378,3.535h-11.5l-.063-3.853-.023-1.392L42.6,242.858c-1.476-42.454-.441-71.017-.441-71.017L69.1,179.635c-.4,12.525-5.738,60.779-5.738,60.779" transform="translate(-4.078 -16.763)" fill="#12263f"/>
            <path id="Trazado_659798" data-name="Trazado 659798" d="M68.975,185.54l-6.511,55.54a100.724,100.724,0,0,1,.175,21.843c-.96,9.6-5.22,43.648-6.967,57.521q-.091.732-.175,1.388l-1.023-.028c.056-.435.115-.9.177-1.387,1.738-13.806,6.016-47.985,6.975-57.6a99.1,99.1,0,0,0-.179-21.661.552.552,0,0,1,0-.134l6.518-55.6a.509.509,0,1,1,1.012.117" transform="translate(-5.314 -18.044)" fill="#2d578b"/>
            <path id="Trazado_659811" data-name="Trazado 659811" d="M71.059,181.484a.508.508,0,0,0,.561.445h0a.509.509,0,0,0,.444-.567c-.227-1.9-.443-3.843-.65-5.786q-.054-.513-.107-1.027c-.661-6.358-1.2-12.618-1.55-17.043-.028-.357-.057-.7-.081-1.038-.076-.971-.143-1.833-.2-2.563-.342,0-.684.005-1.022,0,.055.73.122,1.6.2,2.581.025.333.055.68.082,1.038.351,4.385.88,10.592,1.534,16.911.035.348.073.7.108,1.048.214,2.015.439,4.033.674,6" transform="translate(-6.678 -15.014)" fill="#2d578b"/>
            <path id="Trazado_659812" data-name="Trazado 659812" d="M68.481,175.079a12.946,12.946,0,0,0,1.871.394,9.847,9.847,0,0,0,1.034.088,6.971,6.971,0,0,0,.972-.035A3.4,3.4,0,0,0,74,174.963a2.16,2.16,0,0,0,.875-1.785c.04-2-.539-10.146-.975-15.9-.025-.354-.051-.7-.077-1.034l-.191-2.469c-.338.015-.68.032-1.021.043.056.715.123,1.562.192,2.5.025.333.052.679.079,1.034.432,5.741,1.012,13.872.973,15.814a1.136,1.136,0,0,1-.458.982,3.474,3.474,0,0,1-2.115.393,10.236,10.236,0,0,1-1.035-.109,11.841,11.841,0,0,1-1.471-.322.509.509,0,0,0-.292.976" transform="translate(-6.645 -15.001)" fill="#2d578b"/>
            <path id="Trazado_659813" data-name="Trazado 659813" d="M37.106,94.342c.8,1.867,1.568,3.8,2.281,5.749.1.264.193.523.287.786,2.385,6.624,3.371,7.023,4.033,11.453,1.373,9.182-.251,22.569-1.165,31.708,0,0,25.586,9.129,49.63-1.34-.481-3.381-3.705-14.129-5.4-24.492-.137-.826-.243-1.554-.319-2.168-.02-.161-.038-.313-.052-.458,0-.02,0-.039-.006-.057,0,0,.134-.132.363-.376a20.983,20.983,0,0,0,4.729-7.771c1.2-4.33-3.668-12.547-5.352-21.449s-.78-11.471-15.068-13.074l-19.339-1.6s-1,.2-6.493,2.029c-8.412,2.8-11.625,12.913-8.128,21.062" transform="translate(-3.484 -6.951)" fill="#fdfeff"/>
            <path id="Trazado_659814" data-name="Trazado 659814" d="M63.49,122.666a.406.406,0,0,0,.556.149,23.543,23.543,0,0,1,14.791-2.194,25.5,25.5,0,0,0,10.322.116c-.02-.162-.039-.314-.052-.458,0-.021,0-.039-.006-.057,0,0,.134-.133.363-.377a24.221,24.221,0,0,1-10.469-.023,23.915,23.915,0,0,0-15.353,2.288.406.406,0,0,0-.151.556" transform="translate(-6.188 -11.649)" fill="#b8c5c9"/>
            <path id="Trazado_659815" data-name="Trazado 659815" d="M72.891,91.52a3.777,3.777,0,0,0,2.78-1.177c2.43-2.474,2.364-8.016,2.36-8.25a.4.4,0,0,0-.414-.4.407.407,0,0,0-.4.414c0,.054.065,5.436-2.126,7.665a2.951,2.951,0,0,1-2.2.932c-4.685,0-13.419-7.166-13.507-7.239a.407.407,0,1,0-.519.628c.367.3,9.048,7.425,14.026,7.425" transform="translate(-5.728 -7.969)" fill="#b8c5c9"/>
            <path id="Trazado_659816" data-name="Trazado 659816" d="M111.2,129.971c-2.15,7.389-6.145,13.966-8.788,15.152l-13.3-32.042.99-34.938S104.933,98.4,110.844,112.1c.347.806.656,1.587.92,2.336,1.57,4.454.982,10.2-.565,15.529" transform="translate(-8.693 -7.623)" fill="#d04848"/>
            <path id="Trazado_659817" data-name="Trazado 659817" d="M113.27,133.642c-5.849-9.093-1.346-16.02-.356-17.866.347.806.656,1.587.921,2.336,1.57,4.454.982,10.2-.565,15.529" transform="translate(-10.762 -11.294)" fill="#f46464"/>
            <path id="Trazado_659818" data-name="Trazado 659818" d="M95.436,123.045a.3.3,0,0,1-.206-.52c.167-.158,4.144-3.86,8-4.215a.3.3,0,1,1,.055.6c-3.65.337-7.607,4.017-7.646,4.055a.3.3,0,0,1-.206.081" transform="translate(-9.281 -11.541)" fill="#63605b"/>
            <path id="Trazado_659819" data-name="Trazado 659819" d="M100.177,119.736a.312.312,0,0,1-.1-.016.3.3,0,0,1-.186-.384,25.4,25.4,0,0,1,1.483-3.33.3.3,0,1,1,.529.288,25.2,25.2,0,0,0-1.443,3.239.3.3,0,0,1-.284.2" transform="translate(-9.743 -11.301)" fill="#63605b"/>
            <path id="Trazado_659820" data-name="Trazado 659820" d="M73.418,72.576s3.279,5.013,5.214,17.646C80.407,101.816,84,146.028,89.3,162.158c.088.271.176.536.268.791a20.854,20.854,0,0,0,1.2,2.828s.888-.132,2.293-.423c.244-.051.5-.106.778-.167h0c4.319-.953,12.038-3.147,15.462-7.167,0,0-.379-.821-1.012-2.234-.109-.24-.225-.5-.347-.774-1.2-2.7-3.067-6.949-5.02-11.7-.6-1.458-1.208-2.965-1.809-4.489-3.572-9.068-6.86-18.714-6.374-22.466,1.018-7.864,3.972-8.8,2.444-15.412s-5.987-11.088-6.823-17.1c-.782-5.608-1.413-10.174-14.042-11.119-.353-.029-.716-.051-1.089-.073-.58-.033-1.182-.058-1.812-.076" transform="translate(-7.162 -7.08)" fill="#d04848"/>
            <path id="Trazado_659821" data-name="Trazado 659821" d="M104.6,145.876a.3.3,0,0,1-.278-.185c-.919-2.208-9.043-23.818-7.753-27.624,1.6-4.73,2.648-11.227.768-15.277-2.8-6.042-5.834-13.409-5.865-13.483a.3.3,0,0,1,.557-.228c.031.073,3.055,7.429,5.854,13.458,1.955,4.211.9,10.884-.745,15.723-1.162,3.429,6.352,23.866,7.739,27.2a.3.3,0,0,1-.162.393.291.291,0,0,1-.116.023" transform="translate(-8.921 -8.672)" fill="#f46464"/>
            <path id="Trazado_659822" data-name="Trazado 659822" d="M75.426,72.659c.122.161.245.332.369.511,1.7,2.461,3.633,6.712,4.583,13.891.415,3.152.869,6.676,1.348,10.408,2.823,21.975,6.42,49.982,10.431,64.337.075.269.151.532.226.788.29,1,.58,1.923.875,2.766.245-.051.5-.106.779-.167q-.428-1.228-.862-2.739c-.076-.257-.149-.52-.222-.789q-1.855-6.682-3.881-18.376c-2.483-14.351-4.731-31.857-6.537-45.926-.481-3.731-.933-7.257-1.351-10.41-.965-7.292-2.906-11.656-4.668-14.223-.354-.029-.717-.051-1.089-.073" transform="translate(-7.358 -7.088)" fill="#f46464"/>
            <path id="Trazado_659823" data-name="Trazado 659823" d="M91.02,171.068c.087.271.176.536.268.791q1.356-.148,2.615-.361c.266-.045.532-.091.792-.141a37.645,37.645,0,0,0,10.717-3.682,30.268,30.268,0,0,0,4.6-2.98c-.109-.24-.225-.5-.347-.774a29.1,29.1,0,0,1-4.67,3.056,36.857,36.857,0,0,1-10.518,3.593q-.394.073-.8.141-1.278.214-2.658.358" transform="translate(-8.879 -15.991)" fill="#f46464"/>
            <path id="Trazado_659824" data-name="Trazado 659824" d="M32.738,164.45c6.569,3.114,18.653,2.943,24.971,2.6.283-.017.556-.031.815-.047,2.024-.126,3.281-.254,3.281-.254-.045-.764-.089-1.54-.133-2.333-.014-.269-.031-.54-.042-.812-.373-6.98-.685-15.032-.994-23.765-.008-.222-.016-.444-.023-.666-.389-10.92-.778-22.883-1.291-35.145-1-23.877-4.453-32.5-4.453-32.5a11.72,11.72,0,0,0-3.066-.4c-.269-.006-.551,0-.851,0a19.257,19.257,0,0,0-9.506,3.02c-9.239,5.559-6.992,20.549-2.919,36.806,1.79,7.146.888,18.347-.686,28.655-.037.24-.073.478-.112.715-1.434,9.188-3.372,17.569-4.357,21.6q-.1.43-.2.792c-.277,1.112-.439,1.729-.439,1.729" transform="translate(-3.194 -6.938)" fill="#d04848"/>
            <path id="Trazado_659825" data-name="Trazado 659825" d="M24.628,139.495c8.118,7.193,20.218,6.963,20.218,6.963,4.335-3.32,5.318-10.289,4.246-14.935,0,0-7.686-3.709-6.79-14.564,7.745-29.331-1.265-41.782-3.752-41.1,0,0-10.989,7.594-19.48,46.138a27.769,27.769,0,0,0-.375,3.293c-.6,6.156,2.06,10.773,5.933,14.2" transform="translate(-1.816 -7.398)" fill="#d04848"/>
            <path id="Trazado_659826" data-name="Trazado 659826" d="M46.408,153.32a.351.351,0,0,0,.091-.012c3.382-.874,5.832-3.591,7.082-7.856a22.446,22.446,0,0,0,.874-6.175.364.364,0,0,0-.728.016,22.112,22.112,0,0,1-.85,5.971c-1.193,4.053-3.4,6.521-6.561,7.338a.365.365,0,0,0,.091.717" transform="translate(-4.492 -13.552)" fill="#f46464"/>
            <path id="Trazado_659827" data-name="Trazado 659827" d="M51.218,134.131a.364.364,0,0,0,.231-.646A67.734,67.734,0,0,0,37.624,125.2c1.3-2.223,8.2-14.4,10.378-25.942a.364.364,0,1,0-.716-.135c-2.373,12.566-10.415,25.923-10.5,26.056a.363.363,0,0,0,.166.522,66.919,66.919,0,0,1,14.031,8.347.363.363,0,0,0,.23.082" transform="translate(-3.584 -9.641)" fill="#f46464"/>
            <path id="Trazado_659828" data-name="Trazado 659828" d="M47.412,105.015a.362.362,0,0,0,.216-.07l2.578-1.9a.364.364,0,1,0-.431-.587l-2.578,1.9a.364.364,0,0,0,.216.658" transform="translate(-4.59 -9.988)" fill="#f46464"/>
            <path id="Trazado_659829" data-name="Trazado 659829" d="M30.766,129.366a.357.357,0,0,0,.092-.012,43.862,43.862,0,0,1,5.919-.793.364.364,0,1,0-.05-.726,43.556,43.556,0,0,0-6.054.815.364.364,0,0,0,.092.717" transform="translate(-2.966 -12.47)" fill="#f46464"/>
            <path id="Trazado_659830" data-name="Trazado 659830" d="M35.783,128.437a.365.365,0,0,0,.188-.677,18.348,18.348,0,0,0-3.123-1.2.364.364,0,0,0-.2.7,18.157,18.157,0,0,1,2.953,1.124.361.361,0,0,0,.187.052" transform="translate(-3.159 -12.345)" fill="#f46464"/>
            <path id="Trazado_659831" data-name="Trazado 659831" d="M24.628,144.485c.621-6.665-3.519-14.227-5.558-17.495q-.213,1.616-.375,3.293c-.6,6.156,2.06,10.773,5.933,14.2" transform="translate(-1.816 -12.388)" fill="#f46464"/>
            <path id="Trazado_659832" data-name="Trazado 659832" d="M52.922,71.13c1.485,4.837,4.573,17.119,5.231,37.2.637,19.527,1.2,43.821,1.458,55.512,0,.279.01.55.016.813.018.883.036,1.687.051,2.4.283-.016.556-.031.815-.047-.014-.707-.032-1.5-.053-2.383,0-.264-.01-.535-.016-.814-.256-11.7-.819-35.982-1.458-55.5-.647-19.824-3.664-32.11-5.192-37.171-.269-.006-.551,0-.851,0" transform="translate(-5.163 -6.938)" fill="#f46464"/>
            <path id="Trazado_659833" data-name="Trazado 659833" d="M33.226,172.536a94.7,94.7,0,0,0,20.061,2.019c1.621,0,3.108-.035,4.419-.088.279-.013.55-.023.813-.035,1.279-.06,2.36-.134,3.2-.2-.014-.269-.031-.541-.043-.813-.831.067-1.9.143-3.175.2-.261.014-.534.024-.813.036a98.155,98.155,0,0,1-24.268-1.91c-.069.287-.134.552-.2.792" transform="translate(-3.241 -16.754)" fill="#f46464"/>
            <path id="Trazado_659834" data-name="Trazado 659834" d="M70.768,68.386l-11.985-.74c-4.6,0-11.1.148-12.429-8.434-.325-2.094.969-9.182,2.22-11.393,2.732-4.831-.17-4.76,2.238-12.284,2.792-8.728,12.953-5.89,12.953-5.89s16.851,4.741,17.989,9.609c1.753,7.5-2.473,5.756,0,11.311,1.24,2.784,1.939,10.649-1.515,14.714-2.516,2.959-6.4,3.107-9.47,3.107" transform="translate(-4.517 -2.849)" fill="#7a615a"/>
            <path id="Trazado_659835" data-name="Trazado 659835" d="M72.765,72.84c-2.993,12.185-14.759,1.019-15.2-3.122A34.05,34.05,0,0,0,58.8,57.66l14.083,4.983q-.049.616-.1,1.238a54.69,54.69,0,0,0-.249,5.929,28.736,28.736,0,0,0,.233,3.03" transform="translate(-5.615 -5.625)" fill="#e69680"/>
            <path id="Trazado_659836" data-name="Trazado 659836" d="M72.83,70.128c-7.39-1.617-12.216-9.211-12.216-9.211L73.079,64.2a54.71,54.71,0,0,0-.249,5.93" transform="translate(-5.913 -5.943)" fill="#161f29"/>
            <path id="Trazado_659837" data-name="Trazado 659837" d="M77.907,51.3s1.063-3.468,3.885-2.706,3.015,10.125-2.345,9.883Z" transform="translate(-7.6 -4.73)" fill="#e06c5c"/>
            <path id="Trazado_659838" data-name="Trazado 659838" d="M80.068,49.172c0,.309-.018.638-.045.985q-.042.582-.128,1.219c-.065.486-.148.994-.247,1.517q-.087.471-.192.956c-1.088,5.017-3.187,7.318-5.589,8.491C69.909,64.273,60.1,60.1,58.575,56.388c-1.1-2.684-1.087-1.573-1.381-8.8s2.651-11.208,2.651-11.208c3.993-4.576,11.133-3.89,15.771-.865s4.491,8.654,4.451,13.661" transform="translate(-5.577 -3.228)" fill="#e69680"/>
            <path id="Trazado_659839" data-name="Trazado 659839" d="M75.026,58a4.608,4.608,0,0,1-1.2.036,7.365,7.365,0,0,1-4.166-2.142.3.3,0,0,1,.434-.409,6.888,6.888,0,0,0,3.787,1.957,2.793,2.793,0,0,0,2.82-1.127.3.3,0,0,1,.525.283,3.087,3.087,0,0,1-2.2,1.4" transform="translate(-6.788 -5.403)" fill="#302922"/>
            <path id="Trazado_659840" data-name="Trazado 659840" d="M75.853,60.082a2.331,2.331,0,0,0,.236-.188.394.394,0,0,0-.534-.58,2.53,2.53,0,0,1-2.465.485.395.395,0,1,0-.273.741,3.26,3.26,0,0,0,3.036-.458" transform="translate(-7.078 -5.776)" fill="#e06c5c"/>
            <path id="Trazado_659841" data-name="Trazado 659841" d="M70.012,50.249a.33.33,0,0,1-.285-.163,1.562,1.562,0,0,0-.97-.791,2.459,2.459,0,0,0-1.645.333.33.33,0,0,1-.354-.558,3.109,3.109,0,0,1,2.151-.418,2.194,2.194,0,0,1,1.387,1.1.33.33,0,0,1-.118.451.326.326,0,0,1-.166.045" transform="translate(-6.497 -4.74)" fill="#161f29"/>
            <path id="Trazado_659842" data-name="Trazado 659842" d="M76.934,50.534a.328.328,0,0,0,.288-.159,1.565,1.565,0,0,1,.985-.773,2.468,2.468,0,0,1,1.639.363.33.33,0,0,0,.364-.551,3.112,3.112,0,0,0-2.143-.456,2.19,2.19,0,0,0-1.407,1.076.33.33,0,0,0,.11.453.324.324,0,0,0,.165.048" transform="translate(-7.474 -4.771)" fill="#161f29"/>
            <path id="Trazado_659843" data-name="Trazado 659843" d="M69.015,51.912a2.725,2.725,0,0,1-.8-.131.222.222,0,1,1,.13-.424,1.507,1.507,0,0,0,2.087-1.026.222.222,0,1,1,.43.108,2.141,2.141,0,0,1-.939,1.244,1.817,1.817,0,0,1-.906.229" transform="translate(-6.639 -4.893)" fill="#e06c5c"/>
            <path id="Trazado_659844" data-name="Trazado 659844" d="M78.223,52.177a1.73,1.73,0,0,1-.96-.264,1.884,1.884,0,0,1-.773-1.26.222.222,0,0,1,.44-.054,1.451,1.451,0,0,0,.577.943,1.769,1.769,0,0,0,1.505.056.222.222,0,0,1,.132.424,3.116,3.116,0,0,1-.921.155" transform="translate(-7.462 -4.917)" fill="#e06c5c"/>
            <path id="Trazado_659845" data-name="Trazado 659845" d="M82.032,52.977q-.042.581-.129,1.218c-.064.486-.147.995-.246,1.517-1.861-.04-3.352-.675-3.338-1.427s1.549-1.348,3.431-1.318c.1,0,.189.005.282.01" transform="translate(-7.64 -5.167)" fill="#e06c5c"/>
            <path id="Trazado_659846" data-name="Trazado 659846" d="M62.056,53.693c-.013.758,1.5,1.4,3.387,1.429s3.419-.559,3.432-1.317-1.5-1.4-3.387-1.429-3.419.559-3.432,1.317" transform="translate(-6.054 -5.109)" fill="#e06c5c"/>
            <path id="Trazado_659847" data-name="Trazado 659847" d="M74.179,54.124a2.651,2.651,0,0,1-.541,0,.337.337,0,1,1,.07-.67,2,2,0,0,0,1.523-.495c-1.05-1.434-1.616-5.009-1.642-5.171a.337.337,0,1,1,.665-.1c.173,1.113.811,4.189,1.67,5.057a.337.337,0,0,1,.024.446,2.76,2.76,0,0,1-1.771.938" transform="translate(-7.154 -4.624)" fill="#161f29"/>
            <path id="Trazado_659848" data-name="Trazado 659848" d="M68.751,54.211a4.559,4.559,0,1,1,4.078-5,4.564,4.564,0,0,1-4.078,5m-.849-8.4a3.886,3.886,0,1,0,4.257,3.475A3.891,3.891,0,0,0,67.9,45.808" transform="translate(-6.217 -4.401)" fill="#fdfeff"/>
            <path id="Trazado_659849" data-name="Trazado 659849" d="M80.4,54.527a4.559,4.559,0,1,1,4.077-5,4.564,4.564,0,0,1-4.077,5m-.85-8.4A3.886,3.886,0,1,0,83.809,49.6a3.891,3.891,0,0,0-4.258-3.474" transform="translate(-7.354 -4.432)" fill="#fdfeff"/>
            <path id="Trazado_659850" data-name="Trazado 659850" d="M75.269,50.752a1.125,1.125,0,0,0-1.566-.1l-.415-.53a1.777,1.777,0,0,1,2.481.179Z" transform="translate(-7.149 -4.848)" fill="#fdfeff"/>
            <path id="Trazado_659851" data-name="Trazado 659851" d="M63.815,49.051a.338.338,0,0,1-.275-.1c-.036-.03-.614-.467-3.03-.611a.336.336,0,0,1,.041-.671c2.78.166,3.39.718,3.485.828a.337.337,0,0,1-.221.555" transform="translate(-5.872 -4.65)" fill="#fdfeff"/>
            <path id="Trazado_659852" data-name="Trazado 659852" d="M84.872,50.271a.337.337,0,0,1-.2-.043,4.193,4.193,0,0,0-1.825-.322.336.336,0,1,1-.024-.672,4.923,4.923,0,0,1,2.186.412.337.337,0,0,1-.134.626" transform="translate(-8.048 -4.803)" fill="#fdfeff"/>
            <path id="Trazado_659853" data-name="Trazado 659853" d="M70.669,43.557a3.85,3.85,0,0,0-3.582.356c-.948.672-.393,1.664.833,1.179a4.2,4.2,0,0,1,2.316-.376.622.622,0,0,0,.433-1.158" transform="translate(-6.498 -4.221)" fill="#7a615a"/>
            <path id="Trazado_659854" data-name="Trazado 659854" d="M77.176,43.881a3.85,3.85,0,0,1,3.557.555c.91.725.3,1.684-.9,1.13a4.2,4.2,0,0,0-2.291-.5.622.622,0,0,1-.367-1.18" transform="translate(-7.493 -4.26)" fill="#7a615a"/>
            <path id="Trazado_659855" data-name="Trazado 659855" d="M58.536,47.918s-1.685-2.9-4.632-1.6S52.31,57.855,58.109,56.695Z" transform="translate(-5.111 -4.486)" fill="#e69680"/>
            <path id="Trazado_659856" data-name="Trazado 659856" d="M59.474,41.947s1.636,3.233.752,5.107a9.15,9.15,0,0,0-.7,4.094A7.778,7.778,0,0,1,57,44.058c.823-4.351,2.469-2.112,2.469-2.112" transform="translate(-5.548 -4.036)" fill="#7a615a"/>
            <path id="Trazado_659857" data-name="Trazado 659857" d="M57.442,53.042a.277.277,0,1,1-.537.14,5.671,5.671,0,0,0-.964-1.863c-.569.511-1.021.983-1.027.988a.265.265,0,0,1-.19.086.276.276,0,0,1-.209-.468c.02-.021.472-.494,1.055-1.018a3.384,3.384,0,0,0-1.738-.928.277.277,0,0,1,.1-.544c2.674.512,3.474,3.482,3.506,3.607" transform="translate(-5.23 -4.822)" fill="#161f29"/>
            <path id="Trazado_659858" data-name="Trazado 659858" d="M67.027,26.264s9.943-.588,14.158,5.456a10.577,10.577,0,0,1,.689,11.507S75.7,44.453,67.906,35.936c0,0-.742,6.944-6.507,7.292s-4.406-5.1-4.406-5.1S54.787,27.872,67.027,26.264" transform="translate(-5.545 -2.561)" fill="#7a615a"/>
            <path id="Trazado_659934" data-name="Trazado 659934" d="M104.651,94.1s.96-8.145,2.025-10.62,3.9-4.363,5.317-3.9-2.1,2.675-2.1,2.675,3.464-2.187,4.942-1.459-2.843,2.687-2.843,2.687,2.478-1,3.151-.148-3.58,2.928-3.58,2.928,2.748-.879,3.034,0-3.657,3.254-3.657,3.254l.6,8.685Z" transform="translate(-10.209 -7.756)" fill="#e69680"/>
            <path id="Trazado_660002" data-name="Trazado 660002" d="M123.752,127.406l-14.89-1.732v14.99l12.763,5.431Z" transform="translate(-10.62 -12.26)" fill="#e69680"/>
            <path id="Trazado_660003" data-name="Trazado 660003" d="M107.855,137.622s4.254-25.924,3.094-37.96l-6.574-5.168s-7.156,23.3-5.609,34.129,9.089,9,9.089,9" transform="translate(-9.613 -9.218)" fill="#e69680"/>
            <path id="Trazado_660007" data-name="Trazado 660007" d="M110.949,96.12l-7.29,20.192-1.8-.3s.678-5.045,1.081-7.6,1.606-8.088,2.9-9.5l.717-3.523Z" transform="translate(-9.937 -9.306)" fill="#312a45"/>
            <path id="Trazado_660008" data-name="Trazado 660008" d="M118.9,86.087l-9.463-1.573-3.228,10.2,5.646.939,1.1-4.02.308.051-.256,4.16,5.646.939Z" transform="translate(-10.361 -8.244)" fill="#24777b"/>
            <path id="Trazado_660009" data-name="Trazado 660009" d="M119.386,71.485l.973.618-2.272,12.522-6.464-1.074,2.043-12.294,2.005-.577Z" transform="translate(-10.889 -6.895)" fill="#312a45"/>
            <path id="Trazado_660010" data-name="Trazado 660010" d="M112.334,80.645l-.023.134,6.519,1.083.024-.133Z" transform="translate(-10.956 -7.867)" fill="#fff"/>
            <path id="Trazado_660011" data-name="Trazado 660011" d="M118.287,84.888l.024-.133-6.48-1.078-.023.134Z" transform="translate(-10.907 -8.163)" fill="#fff"/>
            <path id="Trazado_660013" data-name="Trazado 660013" d="M112.082,82.161l-.023.134,6.5,1.08.024-.134Z" transform="translate(-10.932 -8.015)" fill="#fff"/>
            <path id="Trazado_660023" data-name="Trazado 660023" d="M110.874,71.239a4.437,4.437,0,0,0-3.346,1.727c-.752,1.013-2.734,4.032-3.744,5.765s-.8,4.152.8,4.892a2.778,2.778,0,0,0,2.482.217,1.85,1.85,0,0,0,1.728.171.868.868,0,0,0,.994-.49l.8-2.073a1.213,1.213,0,0,0-1.247-.729,1.523,1.523,0,0,0-1.009-.666s.973-1.986,1.772-3.272c1.017-1.635,1.1-5.281.769-5.541" transform="translate(-10.064 -6.949)" fill="#312a45"/>
            <path id="Trazado_660024" data-name="Trazado 660024" d="M111.3,82.552a2.893,2.893,0,0,0-.834,2.151l.394.3a7.629,7.629,0,0,1,1.043-2.041Z" transform="translate(-10.776 -8.053)" fill="#e79e35"/>
            <path id="Trazado_660025" data-name="Trazado 660025" d="M114.414,70.689l-3.175.47-.559,4.981-1.741,7.223a.768.768,0,0,0,.521.945l3.465,1.044s.994-4.9,1.5-6.923,1.481-5.719,1.481-5.719Z" transform="translate(-10.625 -6.896)" fill="#8f3935"/>
            <path id="Trazado_660029" data-name="Trazado 660029" d="M102.66,111.88a9.122,9.122,0,0,0,3.017.454l-2.017,5.586-1.8-.3s.424-3.158.8-5.741" transform="translate(-9.937 -10.914)" fill="#8f3935"/>
            <path id="Trazado_660030" data-name="Trazado 660030" d="M102.991,117.144l-1.026-.171a.378.378,0,0,0-.433.319l-.082.61s-1.644,1.218-1.868,1.939l-.02.1a.425.425,0,0,0,.35.509l1.68.279a.773.773,0,0,0,.6-.147,1.678,1.678,0,0,0,.375-.4l.792-.106a.182.182,0,0,0,.158-.171l.02-.488a1.875,1.875,0,0,0,.046-1.367l-.591-.022.206-.526a.265.265,0,0,0-.2-.36" transform="translate(-9.712 -11.41)" fill="#312a45"/>
            <path id="Trazado_660031" data-name="Trazado 660031" d="M99.937,119.912l.494.053a1.1,1.1,0,0,0,.95.621,1.505,1.505,0,0,0,1.162-.521l.992-.381-.02.487a.182.182,0,0,1-.158.171l-.792.106a1.679,1.679,0,0,1-.375.4.78.78,0,0,1-.6.148l-1.68-.28a.426.426,0,0,1-.35-.509l.006-.03.368-.264" transform="translate(-9.712 -11.675)" fill="#24777b"/>
            <path id="Trazado_659761" data-name="Trazado 659761" d="M267.737,363.308c0,3.635-58.585,6.582-130.853,6.582S6.031,366.943,6.031,363.308s58.585-6.582,130.853-6.582,130.853,2.946,130.853,6.582" transform="translate(-0.588 -34.799)" fill="#d4d4d4"/>
            <path id="Trazado_659763" data-name="Trazado 659763" d="M284.815,305.41s-25.428-56.106-.363-60.467c19.157-3.334,17.036,35.308.363,60.467" transform="translate(-26.671 -23.875)" fill="#1cf290"/>
            <path id="Trazado_659764" data-name="Trazado 659764" d="M285.535,343.94h0a.419.419,0,0,1-.414-.422c.2-19.173,1.608-72.983,1.623-73.523a.418.418,0,0,1,.836.022c-.014.541-1.42,54.344-1.622,73.511a.418.418,0,0,1-.418.413" transform="translate(-27.814 -26.299)" fill="#194c56"/>
            <path id="Trazado_659765" data-name="Trazado 659765" d="M276.653,322.659s-38.268-36.316-24.473-50.622c15.214-15.776,26.834,24.8,24.473,50.622" transform="translate(-24.308 -26.193)" fill="#1cf290"/>
            <path id="Trazado_659766" data-name="Trazado 659766" d="M282.3,342.9a.417.417,0,0,1-.416-.385c-1.209-15.378-16.527-49.059-16.683-49.4a.418.418,0,1,1,.761-.347c.155.339,15.535,34.155,16.755,49.68a.418.418,0,0,1-.384.449H282.3" transform="translate(-25.867 -28.536)" fill="#194c56"/>
            <path id="Trazado_659767" data-name="Trazado 659767" d="M292.7,321.7s39.987-34.415,26.9-49.374c-14.43-16.5-28.007,23.465-26.9,49.374" transform="translate(-28.547 -26.188)" fill="#1cf290"/>
            <path id="Trazado_659768" data-name="Trazado 659768" d="M287.2,341.69a.346.346,0,0,1-.053,0,.418.418,0,0,1-.362-.467c1.972-15.447,18.976-48.476,19.147-48.807a.418.418,0,1,1,.743.384c-.171.33-17.107,33.228-19.061,48.529a.418.418,0,0,1-.414.365" transform="translate(-27.976 -28.503)" fill="#194c56"/>
            <path id="Trazado_659769" data-name="Trazado 659769" d="M305.668,336.441l-.592,1.568L304.7,339l-1.073,2.847-.375.994-1.1,2.924-.374.993-4.725,12.545h-25.81l-4.724-12.545-.373-.993-1.1-2.924-.375-.994L263.6,339l-.373-.994-.592-1.568a1.642,1.642,0,0,1,1.538-2.223H304.13a1.644,1.644,0,0,1,1.538,2.223" transform="translate(-25.61 -32.604)" fill="#302922"/>
            <path id="Trazado_659770" data-name="Trazado 659770" d="M305.152,338.419l-.374.994h-41.1l-.374-.994Z" transform="translate(-25.686 -33.013)" fill="#63605b"/>
            <path id="Trazado_659771" data-name="Trazado 659771" d="M303.862,342.676l-.375.994h-38.21l-.375-.994Z" transform="translate(-25.842 -33.429)" fill="#63605b"/>
            <path id="Trazado_659772" data-name="Trazado 659772" d="M302.545,347.017l-.374.993H266.913l-.374-.993Z" transform="translate(-26.001 -33.852)" fill="#63605b"/>
            <path id="Trazado_659779" data-name="Trazado 659779" d="M110.443,243.464c-.442.1-.886.2-1.325.281a45.648,45.648,0,0,1-6.746.744.632.632,0,0,1-.03-1.263,44.7,44.7,0,0,0,7.965-1.033Z" transform="translate(-9.924 -23.626)" fill="#2d578b"/>
            <path id="Trazado_659781" data-name="Trazado 659781" d="M119.72,335.02l-12.946.594c-.117-.43-.244-.89-.379-1.374l13.176-.6Z" transform="translate(-10.379 -32.547)" fill="#2d578b"/>
            <path id="Trazado_659782" data-name="Trazado 659782" d="M144.648,360.506H107.57a5.185,5.185,0,0,1-.488-2.059c-.231-3.136.769-8.142,1.258-11.3.06-.369.111-.713.151-1.024a10.817,10.817,0,0,0,.11-1.289,1.891,1.891,0,0,1,2.28-2.134c3.752,3.679,8-1.838,10.482-.029,0,0,1.068.765,4.012,3.414s7.95,4.4,12.212,6.18c5.5,2.3,7.063,4.6,7.368,6.18a2.9,2.9,0,0,1-.305,2.059" transform="translate(-10.443 -33.392)" fill="#eb644c"/>
            <path id="Trazado_659783" data-name="Trazado 659783" d="M144.652,362.251H107.573a5.185,5.185,0,0,1-.488-2.059h37.872a2.9,2.9,0,0,1-.305,2.059" transform="translate(-10.446 -35.137)" fill="#c53b39"/>
            <path id="Trazado_659784" data-name="Trazado 659784" d="M123.523,344.328s.662-1.619,2.133-1.1,1.324,2.943,1.324,2.943-.883,2.207-3.457-1.839" transform="translate(-12.05 -33.472)" fill="#fdfeff"/>
            <path id="Trazado_659785" data-name="Trazado 659785" d="M122.954,351.831a.612.612,0,0,1-.612-.611,7.8,7.8,0,0,1,2.4-5.759.612.612,0,0,1,.793.931,6.563,6.563,0,0,0-1.972,4.828.611.611,0,0,1-.61.611" transform="translate(-11.935 -33.686)" fill="#fdfeff"/>
            <path id="Trazado_659786" data-name="Trazado 659786" d="M130.978,346.984a.606.606,0,0,1-.405-.154c-.776-.689-3.055-.817-4.307-.736a.611.611,0,1,1-.079-1.22c.384-.024,3.79-.206,5.2,1.041a.611.611,0,0,1-.406,1.069" transform="translate(-12.254 -33.641)" fill="#fdfeff"/>
            <path id="Trazado_659787" data-name="Trazado 659787" d="M123.387,346.243a22.032,22.032,0,0,1-2.956-.227c-1.94-.264-3.4-1.159-3.815-2.333a1.89,1.89,0,0,1,.445-1.98,2.6,2.6,0,0,1,1.916-.818h.049c2.561,0,5.662,3,6.009,3.342l-.63.636.035-.006.262,1.3a7.357,7.357,0,0,1-1.315.087m-4.36-4.033H119a1.285,1.285,0,0,0-.975.406.57.57,0,0,0-.156.629c.2.567,1.125,1.238,2.744,1.459a18.682,18.682,0,0,0,3.223.207c-1.022-.942-3.253-2.7-4.8-2.7" transform="translate(-11.365 -33.254)" fill="#fdfeff"/>
            <path id="Trazado_659788" data-name="Trazado 659788" d="M126.514,345.4l-.566-1.2c1.218-.576,2.384-2.1,2.309-3.012-.018-.222-.113-.5-.688-.663a.739.739,0,0,0-.724.082c-.639.495-.839,2.167-.816,3.1l-1.324.035c-.008-.316-.043-3.122,1.327-4.186a2.292,2.292,0,0,1,3.544,1.519c.133,1.628-1.508,3.582-3.064,4.318" transform="translate(-12.165 -33.085)" fill="#fdfeff"/>
            <path id="Trazado_659789" data-name="Trazado 659789" d="M111.492,360.919h-1.1a8.139,8.139,0,0,0,1.993-5.937,10.456,10.456,0,0,0-3.9-7.42c.06-.369.11-.713.15-1.024a11.356,11.356,0,0,1,4.637,8.4,9,9,0,0,1-1.774,5.981" transform="translate(-10.582 -33.805)" fill="#c53b39"/>
            <path id="Trazado_659790" data-name="Trazado 659790" d="M126.592,348.726a.611.611,0,0,1-.147-1.2l2.317-.575a.611.611,0,1,1,.294,1.186l-2.316.575a.643.643,0,0,1-.148.018" transform="translate(-12.29 -33.844)" fill="#fdfeff"/>
            <path id="Trazado_659791" data-name="Trazado 659791" d="M129.159,350.218a.611.611,0,0,1-.147-1.2l2.317-.575a.611.611,0,1,1,.294,1.186l-2.316.575a.647.647,0,0,1-.148.018" transform="translate(-12.54 -33.989)" fill="#fdfeff"/>
            <path id="Trazado_659792" data-name="Trazado 659792" d="M131.725,351.653a.611.611,0,0,1-.147-1.2l2.317-.576a.611.611,0,0,1,.294,1.187l-2.316.575a.645.645,0,0,1-.148.018" transform="translate(-12.79 -34.129)" fill="#fdfeff"/>
            <path id="Trazado_659793" data-name="Trazado 659793" d="M134.524,352.979a.611.611,0,0,1-.147-1.2l2.317-.576a.611.611,0,0,1,.294,1.186l-2.316.576a.645.645,0,0,1-.148.018" transform="translate(-13.063 -34.258)" fill="#fdfeff"/>
            <path id="Trazado_659794" data-name="Trazado 659794" d="M137.559,354.11a.611.611,0,0,1-.147-1.2l2.317-.576a.611.611,0,0,1,.294,1.187l-2.317.575a.632.632,0,0,1-.147.018" transform="translate(-13.36 -34.369)" fill="#fdfeff"/>
            <path id="Trazado_659797" data-name="Trazado 659797" d="M42.6,248.09c.428.112.857.215,1.279.309a45.637,45.637,0,0,0,6.721.939.632.632,0,0,0,.067-1.263,44.312,44.312,0,0,1-8.111-1.312Z" transform="translate(-4.152 -24.072)" fill="#2d578b"/>
            <path id="Trazado_659799" data-name="Trazado 659799" d="M56.2,335.1q-.081.743-.153,1.388l-1.56-.041-1.023-.028-9.357-.249-.023-1.393,9.556.255,1.022.026Z" transform="translate(-4.3 -32.658)" fill="#2d578b"/>
            <path id="Trazado_659800" data-name="Trazado 659800" d="M57.087,358.128c0,.086,0,.169,0,.251-.007.381-.024.723-.04,1.016-.04.645-.086,1.042-.086,1.042H35.527a11.82,11.82,0,0,1-.024-2.058,10.708,10.708,0,0,1,3.827-7.933c4.051-3.132,2.487-2.479,3.317-3.907.094-.159.823-2.585.9-2.752.527-1.121,1.022-1.8,3.2-2.1a16.4,16.4,0,0,1,1.975-.088c5.093,0,5.54,2.471,6.084,3.772a24.4,24.4,0,0,1,.847,3.025c.128.541.256,1.12.383,1.709.314,1.476.607,3.018.807,4.248a22.35,22.35,0,0,1,.24,3.77" transform="translate(-3.46 -33.324)" fill="#eb644c"/>
            <path id="Trazado_659801" data-name="Trazado 659801" d="M59.129,358.86c0,.086,0,.169,0,.251-.007.381-.024.723-.04,1.016a5.985,5.985,0,0,1-2.226-2.886c-1.327-3.612.712-7.946.8-8.129l.043.021c.128.541.256,1.12.383,1.709a9.744,9.744,0,0,0-.267,6.051,4.985,4.985,0,0,0,1.314,1.967" transform="translate(-5.503 -34.057)" fill="#c53b39"/>
            <path id="Trazado_659802" data-name="Trazado 659802" d="M57.083,360.192c-.029,1.22-.126,2.059-.126,2.059H35.528a11.833,11.833,0,0,1-.024-2.059Z" transform="translate(-3.46 -35.137)" fill="#c53b39"/>
            <path id="Trazado_659803" data-name="Trazado 659803" d="M47.016,344.3a.62.62,0,0,1-.252-.054c-.543-.245-5.318-2.466-5.691-4.786a1.928,1.928,0,0,1,.679-1.788,1.793,1.793,0,0,1,1.738-.486c2.162.571,3.8,5.361,4.108,6.315a.611.611,0,0,1-.582.8m-3.977-5.952a.686.686,0,0,0-.46.224.725.725,0,0,0-.3.694c.158.982,1.977,2.271,3.635,3.185-.756-1.864-1.853-3.849-2.736-4.083a.555.555,0,0,0-.139-.02" transform="translate(-4.004 -32.888)" fill="#fdfeff"/>
            <path id="Trazado_659804" data-name="Trazado 659804" d="M48.748,344.3a.611.611,0,0,1-.582-.8c.307-.955,1.946-5.744,4.108-6.315a1.793,1.793,0,0,1,1.738.486,1.932,1.932,0,0,1,.68,1.788c-.373,2.319-5.148,4.54-5.692,4.786a.62.62,0,0,1-.252.054m3.977-5.952a.547.547,0,0,0-.138.02c-.884.234-1.981,2.218-2.736,4.082,1.658-.914,3.476-2.2,3.634-3.184a.725.725,0,0,0-.3-.694.686.686,0,0,0-.46-.224" transform="translate(-4.696 -32.888)" fill="#fdfeff"/>
            <path id="Trazado_659805" data-name="Trazado 659805" d="M48.1,343.089s-1-.471-1.075.9c-.063,1.109.726,1.347,1.049,1.161a.925.925,0,0,0,1.019-.339c.339-.543.115-2.266-.993-1.718" transform="translate(-4.587 -33.459)" fill="#fdfeff"/>
            <path id="Trazado_659806" data-name="Trazado 659806" d="M43.294,346.914a.611.611,0,0,1-.489-.976,5.213,5.213,0,0,1,5.022-2,.611.611,0,0,1-.239,1.2,3.986,3.986,0,0,0-3.8,1.531.611.611,0,0,1-.491.246" transform="translate(-4.164 -33.545)" fill="#fdfeff"/>
            <path id="Trazado_659807" data-name="Trazado 659807" d="M53.134,347.463a.613.613,0,0,1-.557-.358c-.989-2.178-4.446-2.706-4.482-2.711a.611.611,0,0,1,.177-1.209c.169.024,4.155.636,5.417,3.415a.611.611,0,0,1-.556.864" transform="translate(-4.641 -33.478)" fill="#fdfeff"/>
            <path id="Trazado_659808" data-name="Trazado 659808" d="M50.3,348.834a.6.6,0,0,1-.153-.02,10.6,10.6,0,0,0-4.968-.1.611.611,0,0,1-.326-1.178,11.73,11.73,0,0,1,5.6.1.611.611,0,0,1-.153,1.2" transform="translate(-4.332 -33.875)" fill="#fdfeff"/>
            <path id="Trazado_659809" data-name="Trazado 659809" d="M49.29,350.978a.6.6,0,0,1-.153-.02,10.712,10.712,0,0,0-4.969-.1.611.611,0,0,1-.325-1.178,11.744,11.744,0,0,1,5.6.1.611.611,0,0,1-.153,1.2" transform="translate(-4.233 -34.084)" fill="#fdfeff"/>
            <path id="Trazado_659810" data-name="Trazado 659810" d="M48.1,353.419a.6.6,0,0,1-.153-.02,10.7,10.7,0,0,0-4.97-.1.611.611,0,0,1-.324-1.178,11.743,11.743,0,0,1,5.6.1.611.611,0,0,1-.153,1.2" transform="translate(-4.117 -34.322)" fill="#fdfeff"/>
            <path id="Trazado_659859" data-name="Trazado 659859" d="M249.411,336.486l-1.032,8.2H237.921l-.608-8.63Z" transform="translate(-23.15 -32.783)" fill="#e69680"/>
            <path id="Trazado_659860" data-name="Trazado 659860" d="M218.47,335.028l-1.271,9.529H206.742l.4-9.812Z" transform="translate(-20.168 -32.655)" fill="#e69680"/>
            <path id="Trazado_659861" data-name="Trazado 659861" d="M178.1,361.82h39.553a5.526,5.526,0,0,0,.521-2.2c.247-3.345-.819-8.685-1.342-12.052-.064-.393-.118-.761-.161-1.093a11.525,11.525,0,0,1-.117-1.374,2.018,2.018,0,0,0-2.432-2.277c-4,3.925-8.534-1.961-11.181-.031,0,0-1.139.817-4.28,3.642s-8.48,4.69-13.027,6.592c-5.87,2.453-7.534,4.9-7.858,6.592a3.091,3.091,0,0,0,.325,2.2" transform="translate(-17.336 -33.401)" fill="#f46464"/>
            <path id="Trazado_659862" data-name="Trazado 659862" d="M178.1,363.683h39.553a5.526,5.526,0,0,0,.521-2.2h-40.4a3.091,3.091,0,0,0,.325,2.2" transform="translate(-17.336 -35.264)" fill="#d04848"/>
            <path id="Trazado_659863" data-name="Trazado 659863" d="M217.3,362.262h1.175a8.681,8.681,0,0,1-2.126-6.333,11.153,11.153,0,0,1,4.165-7.915c-.063-.393-.117-.761-.16-1.093a12.119,12.119,0,0,0-4.946,8.961,9.593,9.593,0,0,0,1.892,6.38" transform="translate(-21.012 -33.843)" fill="#d04848"/>
            <path id="Trazado_659864" data-name="Trazado 659864" d="M201.334,349.255a.652.652,0,0,0,.156-1.285l-2.471-.613a.652.652,0,0,0-.313,1.265l2.471.613a.626.626,0,0,0,.157.02" transform="translate(-19.336 -33.883)" fill="#fdfeff"/>
            <path id="Trazado_659865" data-name="Trazado 659865" d="M204.055,346.975a.652.652,0,0,0,.155-1.284l-2.47-.614a.652.652,0,1,0-.314,1.265l2.47.614a.683.683,0,0,0,.159.019" transform="translate(-19.601 -33.661)" fill="#fdfeff"/>
            <path id="Trazado_659866" data-name="Trazado 659866" d="M198.6,350.846a.652.652,0,0,0,.156-1.284l-2.47-.614a.652.652,0,1,0-.314,1.265l2.471.613a.625.625,0,0,0,.157.02" transform="translate(-19.069 -34.039)" fill="#fdfeff"/>
            <path id="Trazado_659867" data-name="Trazado 659867" d="M195.858,352.376a.652.652,0,0,0,.156-1.284l-2.471-.614a.652.652,0,1,0-.314,1.265l2.471.613a.636.636,0,0,0,.158.02" transform="translate(-18.802 -34.188)" fill="#fdfeff"/>
            <path id="Trazado_659868" data-name="Trazado 659868" d="M192.873,353.791a.652.652,0,0,0,.156-1.284l-2.47-.614a.652.652,0,0,0-.314,1.265l2.47.613a.635.635,0,0,0,.158.02" transform="translate(-18.51 -34.326)" fill="#fdfeff"/>
            <path id="Trazado_659869" data-name="Trazado 659869" d="M189.635,355a.652.652,0,0,0,.156-1.284l-2.47-.614a.652.652,0,0,0-.315,1.265l2.471.614a.68.68,0,0,0,.158.019" transform="translate(-18.195 -34.444)" fill="#fdfeff"/>
            <path id="Trazado_659870" data-name="Trazado 659870" d="M262.64,177.17c-.1.412-.213.816-.335,1.209l-.012.046q-.249.8-.547,1.535c-1.771,4.337-15.464,4.973-28.944,3.465-10.455-1.17-20.783-3.631-25.317-6.659-4.259-2.843,4.81-29.072,4.81-29.072l51.142,10.734s1.151,10.907-.8,18.742" transform="translate(-20.13 -14.408)" fill="#5840e2"/>
            <path id="Trazado_659871" data-name="Trazado 659871" d="M231.228,185.711l-8.378,72.32c1.929,12.169-3.265,62-3.265,62l-15.059-.456-4.373-66c.1-19.108,2.113-45.523,5.078-74.343.046-.441.09-.883.138-1.326q.226-2.205.465-4.432.062-.593.125-1.188l4.923,2.267,1.207.556,19.336,8.906Z" transform="translate(-19.525 -16.806)" fill="#5840e2"/>
            <path id="Trazado_659872" data-name="Trazado 659872" d="M218.958,319.432a.569.569,0,0,1-.078,0,.628.628,0,0,1-.546-.7c5.357-43.525,1.883-61.416,1.848-61.592a.612.612,0,0,1-.007-.207l9.035-68.972a.628.628,0,0,1,1.244.162l-9.023,68.874c.283,1.558,3.319,19.867-1.853,61.887a.627.627,0,0,1-.622.551" transform="translate(-21.298 -18.282)" fill="#2a15a8"/>
            <path id="Trazado_659873" data-name="Trazado 659873" d="M218.073,162.836c-.06.324-1.3,6.735-5.435,11.275a14.516,14.516,0,0,1-2.879,2.457,12.1,12.1,0,0,1-2.669,1.3,10.749,10.749,0,0,1-1.311.37c.046-.441.09-.883.138-1.326q.317-.081.627-.184a10.987,10.987,0,0,0,2.537-1.209,12.836,12.836,0,0,0,2.349-1.959c4.131-4.317,5.394-10.872,5.409-10.949a.627.627,0,1,1,1.234.23" transform="translate(-20.074 -15.812)" fill="#2a15a8"/>
            <path id="Trazado_659874" data-name="Trazado 659874" d="M230.858,181.315a.514.514,0,0,0,.494.529h0a.513.513,0,0,0,.546-.479c.093-1.891.2-3.827.326-5.761.022-.341.042-.681.066-1.022.412-6.321.933-12.527,1.327-16.907.032-.355.062-.7.094-1.028.088-.962.167-1.815.235-2.537-.347-.053-.693-.11-1.035-.167-.069.722-.148,1.582-.236,2.554-.032.329-.061.674-.094,1.028-.39,4.343-.909,10.494-1.32,16.777-.023.347-.045.695-.069,1.041-.126,2-.242,4.014-.337,5.972" transform="translate(-22.521 -15.018)" fill="#2a15a8"/>
            <path id="Trazado_659875" data-name="Trazado 659875" d="M229.175,174.712a13.7,13.7,0,0,0,1.827.7,10.537,10.537,0,0,0,1.033.261,7.374,7.374,0,0,0,.99.128,3.612,3.612,0,0,0,1.754-.274,2.141,2.141,0,0,0,1.189-1.6c.381-1.949,1.179-10,1.716-15.7.034-.349.067-.691.1-1.023.086-.911.162-1.739.226-2.443-.346-.042-.693-.084-1.041-.13-.065.708-.142,1.547-.229,2.47-.032.329-.063.671-.1,1.023-.539,5.681-1.334,13.721-1.7,15.611a1.123,1.123,0,0,1-.631.883,3.684,3.684,0,0,1-2.209.029c-.352-.077-.7-.175-1.03-.281a12.25,12.25,0,0,1-1.434-.562.531.531,0,0,0-.7.227.5.5,0,0,0,.238.677" transform="translate(-22.328 -15.085)" fill="#2a15a8"/>
            <path id="Trazado_659876" data-name="Trazado 659876" d="M266.218,168.886s-.363,4.068-.94,10.3c-.036.389-.074.786-.11,1.195a.035.035,0,0,0,0,.014.176.176,0,0,1-.006.047c-.038.406-.076.821-.114,1.243-1.459,15.708-3.965,41.794-5.609,54.34,0,0,.245,23.607-.629,41.825-.809,16.926-6.646,37.232-7.47,42.252H235.814l-.152-2.229V177.136a151.853,151.853,0,0,1,14.475-5.883c.4-.138.811-.273,1.22-.407.774-.251,1.549-.493,2.321-.719q.617-.18,1.227-.349c4.618-1.264,8.907-1.892,11.312-.892" transform="translate(-22.989 -16.427)" fill="#5840e2"/>
            <path id="Trazado_659877" data-name="Trazado 659877" d="M251.085,321.007a.608.608,0,0,1-.12-.012.627.627,0,0,1-.5-.736c.042-.22,4.291-22.246,6.13-34.722,1.833-12.437.93-47.42.92-47.772a.6.6,0,0,1,0-.09c1.376-11.7,4.191-52.1,4.22-52.508a.627.627,0,0,1,1.252.088c-.028.406-2.838,40.733-4.22,52.522.037,1.454.884,35.605-.935,47.943-1.842,12.5-6.1,34.557-6.139,34.778a.627.627,0,0,1-.615.509" transform="translate(-24.433 -18.007)" fill="#2a15a8"/>
            <path id="Trazado_659878" data-name="Trazado 659878" d="M233.148,359.145c0,.094,0,.186,0,.275.009.419.027.8.044,1.117.043.71.095,1.147.095,1.147h23.56a12.984,12.984,0,0,0,.027-2.264,11.769,11.769,0,0,0-4.208-8.722c-4.454-3.444-2.734-2.725-3.648-4.3-.1-.174-.9-2.841-.99-3.025-.766-1.63-1.471-2.4-5.693-2.4-5.6,0-6.091,2.716-6.689,4.148a26.732,26.732,0,0,0-.931,3.325c-.141.6-.282,1.231-.421,1.879-.345,1.624-.667,3.318-.886,4.671a24.475,24.475,0,0,0-.264,4.145" transform="translate(-22.744 -33.263)" fill="#f46464"/>
            <path id="Trazado_659879" data-name="Trazado 659879" d="M233.148,359.95c0,.094,0,.186,0,.275.009.419.027.8.044,1.117a6.577,6.577,0,0,0,2.448-3.173c1.457-3.97-.784-8.736-.878-8.937l-.047.023c-.141.6-.282,1.231-.421,1.879.531,1.621,1.142,4.346.293,6.653a5.472,5.472,0,0,1-1.444,2.163" transform="translate(-22.744 -34.068)" fill="#d04848"/>
            <path id="Trazado_659880" data-name="Trazado 659880" d="M233.153,361.415c.032,1.341.139,2.264.139,2.264h23.56a12.983,12.983,0,0,0,.027-2.264Z" transform="translate(-22.744 -35.257)" fill="#d04848"/>
            <path id="Trazado_659881" data-name="Trazado 659881" d="M242.4,348.927a.677.677,0,0,0,.169-.022,11.647,11.647,0,0,1,5.463-.112.672.672,0,0,0,.358-1.3,12.921,12.921,0,0,0-6.157.107.672.672,0,0,0,.168,1.322" transform="translate(-23.581 -33.868)" fill="#fdfeff"/>
            <path id="Trazado_659882" data-name="Trazado 659882" d="M241.993,346.113a.682.682,0,0,0,.169-.022,11.648,11.648,0,0,1,5.463-.112.672.672,0,1,0,.358-1.295,12.9,12.9,0,0,0-6.157.107.672.672,0,0,0,.168,1.322" transform="translate(-23.541 -33.594)" fill="#fdfeff"/>
            <path id="Trazado_659883" data-name="Trazado 659883" d="M243.517,351.285a.68.68,0,0,0,.169-.022,11.776,11.776,0,0,1,5.463-.112.672.672,0,0,0,.356-1.3,12.916,12.916,0,0,0-6.157.107.672.672,0,0,0,.168,1.322" transform="translate(-23.69 -34.098)" fill="#fdfeff"/>
            <path id="Trazado_659884" data-name="Trazado 659884" d="M244.829,353.967a.674.674,0,0,0,.169-.022,11.762,11.762,0,0,1,5.463-.112.672.672,0,0,0,.357-1.3,12.922,12.922,0,0,0-6.157.107.672.672,0,0,0,.168,1.322" transform="translate(-23.818 -34.36)" fill="#fdfeff"/>
            <path id="Trazado_659885" data-name="Trazado 659885" d="M266.567,180.241a.035.035,0,0,0,0,.014.165.165,0,0,1-.006.046q-.057.611-.114,1.244a10.1,10.1,0,0,1-5.21-.467c-3.213-1.164-5.734-3.792-7.564-6.41a30.88,30.88,0,0,1-2.134-3.557,30.23,30.23,0,0,1-1.5-3.352.627.627,0,0,1,1.182-.421,29.774,29.774,0,0,0,1.533,3.365,30.133,30.133,0,0,0,1.991,3.28c1.711,2.443,4.029,4.872,6.919,5.916a8.918,8.918,0,0,0,4.9.343" transform="translate(-24.388 -16.283)" fill="#2a15a8"/>
            <path id="Trazado_659886" data-name="Trazado 659886" d="M209.517,58.261s-15.463,32.183-20.734,39-16.275,17.205-15.965,25.73,10.811,7.9,17.263,4.882,24.742-31.387,24.742-31.387,3.492-30.11-5.306-38.228" transform="translate(-16.858 -5.683)" fill="#e8e8e8"/>
            <path id="Trazado_659887" data-name="Trazado 659887" d="M271.215,101.308c.013,3.32-.067,6.594-.281,9.855,0,.012,0,.025,0,.037q-.131,2-.332,4c-.03.325-.067.689-.113,1.087-.021.2-.043.424-.067.648-.255,2.426-.645,5.857-1.117,9.638-.023.193-.044.389-.071.585-1.069,8.551-2.558,18.675-3.977,22.965-.049.154-.1.3-.15.44l-.267.129a55.4,55.4,0,0,1-22.221,5.177c-.267.009-.53.019-.8.021q-1.943.035-3.859-.042c-1.731-.073-3.452-.217-5.14-.419q-2.247-.273-4.422-.691a54.977,54.977,0,0,1-16.6-5.88c-.177-.1-.355-.2-.53-.307a34.571,34.571,0,0,1-3.424-2.274c-.163-.119-.322-.239-.479-.366-.654-.509-1.27-1.036-1.848-1.573.606-2.373,1.243-5.231,1.862-8.3.053-.256.108-.51.157-.768.857-4.271,1.691-8.894,2.41-13.133.032-.2.067-.4.1-.6.371-2.216.712-4.32,1-6.2.027-.2.062-.4.092-.592.2-1.316.384-2.512.534-3.544.032-.217.062-.423.09-.624.043-.3.088-.59.125-.881.034-.227.064-.454.1-.675v0c.11-.822.209-1.629.3-2.421.159-1.268.292-2.5.412-3.7q.2-2.052.35-4,.149-2.083.245-4.032.041-.939.073-1.848v0q.038-1.106.06-2.166c.085-4.546-.062-8.491-.319-11.924-.018-.237-.036-.467-.055-.7-.11-1.369-.235-2.645-.368-3.846-.032-.264-.06-.523-.09-.783-.776-6.627-1.719-10.726-1.219-13.239,1.04-5.226,5.2-6.1,9.62-7.359.208-.06.414-.117.622-.18.747-.221,1.5-.458,2.233-.735.314-.115.624-.237.929-.371.113-.048.224-.1.329-.145l.288-.131a13.711,13.711,0,0,0,2.21-1.316v0a11.353,11.353,0,0,0,2.675-2.767h15.7A20.485,20.485,0,0,0,248.7,49.11c.265.148.549.3.847.452.217.108.436.217.671.327q.4.191.841.378c.088.037.18.076.273.113s.2.08.294.12c.145.06.3.12.452.177a29.217,29.217,0,0,0,4.919,1.383c.189.035.378.071.578.1.131.021.269.044.41.069a10.366,10.366,0,0,1,3.557,1.244c.21.117.417.242.615.38,4.473,2.979,7.081,9.622,7.68,19.108.166,2.639.334,5.205.5,7.721.016.274.032.549.051.818.034.551.067,1.1.1,1.643v0c.014.2.028.4.037.6q.187,2.92.337,5.758c.006.2.018.408.03.615.007.108.014.209.018.315l.051,1.106c.152,3.318.251,6.562.26,9.767" transform="translate(-20.049 -4.62)" fill="#12263f"/>
            <path id="Trazado_659888" data-name="Trazado 659888" d="M236.692,109.582l6.2,11.649,7.606-10.782-6.133-12.7Z" transform="translate(-23.09 -9.536)" fill="#050e19"/>
            <path id="Trazado_659889" data-name="Trazado 659889" d="M251.731,110.3l6.2,11.649,7.6-10.783-6.133-12.7Z" transform="translate(-24.557 -9.605)" fill="#050e19"/>
            <path id="Trazado_659890" data-name="Trazado 659890" d="M221.866,108.741l6.2,11.649,7.606-10.782-6.133-12.7Z" transform="translate(-21.643 -9.453)" fill="#050e19"/>
            <path id="Trazado_659891" data-name="Trazado 659891" d="M221.744,108.723l-.5.7-7.11,10.079-1.786-3.36c.032-.217.062-.423.09-.625.043-.294.088-.589.125-.88.034-.228.064-.454.1-.675v0c.111-.823.209-1.629.3-2.422.159-1.267.292-2.5.412-3.7.134-1.368.251-2.7.35-4q.149-2.085.245-4.032c.027-.627.052-1.242.073-1.848l7.385,10.116Z" transform="translate(-20.715 -9.557)" fill="#050e19"/>
            <path id="Trazado_659892" data-name="Trazado 659892" d="M277.116,106.373c.014,3.32-.067,6.594-.281,9.855l-4.616,6.541-5.771-10.84-.431-.809.491-.755,7.184-11.078Z" transform="translate(-25.95 -9.685)" fill="#050e19"/>
            <path id="Trazado_659893" data-name="Trazado 659893" d="M253.446,50.381,237.8,79.305,227.242,51.58c.1-.044.194-.088.288-.132a13.5,13.5,0,0,0,2.211-1.316h0a11.412,11.412,0,0,0,2.675-2.769h15.7a20.405,20.405,0,0,0,2.7,1.747c.265.147.55.3.85.45.216.111.435.219.67.329.268.125.549.254.841.376.088.039.181.076.272.115" transform="translate(-22.168 -4.62)" fill="#050e19"/>
            <path id="Trazado_659894" data-name="Trazado 659894" d="M251.085,49.11,238.23,73.416l-8.219-23.282v0a11.382,11.382,0,0,0,2.676-2.769h15.7a20.213,20.213,0,0,0,2.7,1.747" transform="translate(-22.438 -4.62)" fill="#e8e8e8"/>
            <path id="Trazado_659895" data-name="Trazado 659895" d="M241.51,56.817a.852.852,0,1,1-.853-.853.853.853,0,0,1,.853.853" transform="translate(-23.393 -5.459)" fill="#b8c5c9"/>
            <path id="Trazado_659896" data-name="Trazado 659896" d="M241.51,61.111a.852.852,0,1,1-.853-.853.853.853,0,0,1,.853.853" transform="translate(-23.393 -5.878)" fill="#b8c5c9"/>
            <path id="Trazado_659897" data-name="Trazado 659897" d="M241.51,65.4a.852.852,0,1,1-.853-.853.853.853,0,0,1,.853.853" transform="translate(-23.393 -6.297)" fill="#b8c5c9"/>
            <path id="Trazado_659898" data-name="Trazado 659898" d="M226.941,147.249c5.893,0,12.332-1.668,19.117-4.994a77.414,77.414,0,0,0,16.157-10.767.439.439,0,1,0-.592-.648,76.472,76.472,0,0,1-15.97,10.636c-8.442,4.135-20.785,7.768-31.645,1.594a.439.439,0,0,0-.434.763,26.669,26.669,0,0,0,13.367,3.416" transform="translate(-20.813 -12.752)" fill="#050e19"/>
            <path id="Trazado_659899" data-name="Trazado 659899" d="M226.921,142.059h.007c9.207-.149,16.722-12.417,17.037-12.938a.439.439,0,1,0-.751-.454c-.075.124-7.581,12.374-16.3,12.515a.439.439,0,0,0,.007.877" transform="translate(-22.094 -12.531)" fill="#050e19"/>
            <path id="Trazado_659900" data-name="Trazado 659900" d="M245.5,28.7s6.414-4.99,7.193-12.221-3.114-6.593-3.114-6.593S249.861,2.109,240.5.3C231.668-1.4,229.27,4.662,223.842,4.124c-5.456-.541-6,9.041-.278,8.561S247.317,16.608,245.5,28.7" transform="translate(-21.413 0)" fill="#7a615a"/>
            <path id="Trazado_659901" data-name="Trazado 659901" d="M232.27,43.571v4.086a12.73,12.73,0,0,0,1.447,1.013c7.094,4.26,14.748-1.013,14.748-1.013V33.491L234.2,42.369Z" transform="translate(-22.658 -3.267)" fill="#e69680"/>
            <path id="Trazado_659902" data-name="Trazado 659902" d="M232.27,44.269v4.086a12.729,12.729,0,0,0,1.447,1.013c6.04-2.391,10.438-8.73,10.438-8.73L234.2,43.066Z" transform="translate(-22.658 -3.964)" fill="#302922"/>
            <path id="Trazado_659903" data-name="Trazado 659903" d="M232.047,46.6s-2.346.239-2.036,3.494l3.23,9.126,5.915-7.577s-5.383-2.337-7.109-5.044" transform="translate(-22.435 -4.546)" fill="#fdfeff"/>
            <path id="Trazado_659904" data-name="Trazado 659904" d="M249.326,46.033s2.357.071,2.28,3.34l-4.466,8.568-6.82-6.355s7.478-2.731,9.006-5.553" transform="translate(-23.444 -4.491)" fill="#fdfeff"/>
            <path id="Trazado_659905" data-name="Trazado 659905" d="M233.743,59.643a.465.465,0,0,1-.341-.782l5.89-6.354a.465.465,0,0,1,.652-.03l6.355,5.735a.465.465,0,1,1-.623.69l-6.015-5.427-5.578,6.018a.464.464,0,0,1-.341.149" transform="translate(-22.757 -5.108)" fill="#b8c5c9"/>
            <path id="Trazado_659906" data-name="Trazado 659906" d="M230.556,7.8s-9.873.93-6.308,11.257c0,0,6.536-8.558,6.308-11.257" transform="translate(-21.8 -0.761)" fill="#7a615a"/>
            <path id="Trazado_659907" data-name="Trazado 659907" d="M226.16,24.465s-2.321-2.742-3.632,0-.3,8.291,3.229,7.383Z" transform="translate(-21.654 -2.268)" fill="#e06c5c"/>
            <path id="Trazado_659908" data-name="Trazado 659908" d="M223.869,32.478s-.013,8.448,8.774,8.428c8.732-.016,14.683-6.873,14.992-7.191a.03.03,0,0,1,.01-.008l.1-1.776.5-9.215.265-4.926s1.115-8.868-7.313-10.486c-6.158-1.182-11.933-.16-14.846,3.053a7.561,7.561,0,0,0-1.93,4.449l-.273,8.848-.067,2.168Z" transform="translate(-21.839 -0.666)" fill="#e69680"/>
            <path id="Trazado_659909" data-name="Trazado 659909" d="M230.914,29.579s-3.088-2.019-4.262,1.5a5.847,5.847,0,0,0,4.509,1.161,8.592,8.592,0,0,0,4.926-2.5s-1.548-2.5-5.172-.161" transform="translate(-22.11 -2.788)" fill="#7a615a"/>
            <path id="Trazado_659910" data-name="Trazado 659910" d="M230.479,34.329a4.8,4.8,0,0,0,1.253-.085,7.717,7.717,0,0,0,4.125-2.657.312.312,0,0,0-.495-.382,7.213,7.213,0,0,1-3.749,2.426,2.928,2.928,0,0,1-3.055-.888.312.312,0,1,0-.519.348,3.234,3.234,0,0,0,2.438,1.237" transform="translate(-22.241 -3.032)" fill="#302922"/>
            <path id="Trazado_659911" data-name="Trazado 659911" d="M230.162,36.191a2.569,2.569,0,0,1-.266-.171.413.413,0,0,1,.5-.66,2.653,2.653,0,0,0,2.619.255.413.413,0,1,1,.361.744,3.415,3.415,0,0,1-3.212-.169" transform="translate(-22.411 -3.441)" fill="#e06c5c"/>
            <path id="Trazado_659912" data-name="Trazado 659912" d="M236.871,26.558c0,.615,1.267,1.114,2.829,1.114s2.829-.5,2.829-1.114-1.266-1.114-2.829-1.114-2.829.5-2.829,1.114" transform="translate(-23.107 -2.482)" fill="#e06c5c"/>
            <path id="Trazado_659913" data-name="Trazado 659913" d="M224.1,27.639c.218.022.448.032.682.032,1.561,0,2.827-.5,2.827-1.114s-1.266-1.115-2.827-1.115c-.212,0-.418.01-.615.027Z" transform="translate(-21.861 -2.482)" fill="#e06c5c"/>
            <path id="Trazado_659914" data-name="Trazado 659914" d="M235.352,24.006c0,.845.383,1.53.855,1.53s.856-.685.856-1.53-.384-1.53-.856-1.53-.855.685-.855,1.53" transform="translate(-22.959 -2.193)" fill="#302922"/>
            <path id="Trazado_659915" data-name="Trazado 659915" d="M226.575,23.566c0,.845.383,1.53.856,1.53s.856-.685.856-1.53-.383-1.53-.856-1.53-.856.685-.856,1.53" transform="translate(-22.103 -2.15)" fill="#302922"/>
            <path id="Trazado_659916" data-name="Trazado 659916" d="M232.17,26.782a.347.347,0,1,0,0-.695,2.381,2.381,0,0,1-2.074-.967c1.385-2.858,2.763-5.738,2.777-5.767a.348.348,0,1,0-.627-.3c-.014.03-1.445,3.02-2.856,5.93a.346.346,0,0,0,0,.3,2.97,2.97,0,0,0,2.783,1.5" transform="translate(-22.374 -1.839)" fill="#302922"/>
            <path id="Trazado_659917" data-name="Trazado 659917" d="M243.239,19.563c-.281-1.3-1.361-3.732-5.508-3.916a1.088,1.088,0,0,0-.249,2.157A4.86,4.86,0,0,1,241.09,20.4a1.082,1.082,0,0,0,1.536.408l.125-.077a1.093,1.093,0,0,0,.488-1.164" transform="translate(-23.08 -1.526)" fill="#7a615a"/>
            <path id="Trazado_659918" data-name="Trazado 659918" d="M224.011,18.929c.356-1.182,1.536-3.363,5.4-3.232a1.013,1.013,0,0,1,.074,2.02,4.525,4.525,0,0,0-3.538,2.142,1.009,1.009,0,0,1-1.456.266l-.109-.08a1.017,1.017,0,0,1-.368-1.116" transform="translate(-21.848 -1.531)" fill="#7a615a"/>
            <path id="Trazado_659919" data-name="Trazado 659919" d="M247.158,32.823c.04.093,1.152,2.672,2.751,3.427l.009-.008.095-1.776a6.061,6.061,0,0,1-2.854-1.643" transform="translate(-24.111 -3.202)" fill="#302922"/>
            <path id="Trazado_659920" data-name="Trazado 659920" d="M248.873,26.069s3.378-4.537,5.852-.972c2.039,2.938-1.817,10.594-5.852,7.97Z" transform="translate(-24.278 -2.315)" fill="#e69680"/>
            <path id="Trazado_659921" data-name="Trazado 659921" d="M249.347,31.952a.347.347,0,0,0,.345-.31,5.8,5.8,0,0,1,3.374-4.68.347.347,0,0,0-.258-.645A6.5,6.5,0,0,0,249,31.567a.347.347,0,0,0,.307.384l.039,0" transform="translate(-24.29 -2.565)" fill="#302922"/>
            <path id="Trazado_659922" data-name="Trazado 659922" d="M252.711,30.069a.347.347,0,0,0,.219-.617,3.344,3.344,0,0,0-2.428-.828.348.348,0,0,0,.172.674c.6-.153,1.537.464,1.818.692a.344.344,0,0,0,.219.079" transform="translate(-24.411 -2.788)" fill="#302922"/>
            <path id="Trazado_659923" data-name="Trazado 659923" d="M226.612,10.217a1.528,1.528,0,0,0,.384.757c1.707,1.79,5.742,1.155,9.481,0a6.571,6.571,0,0,1,6.366,1.559c-1.04,3.58,2.482,3.87,1.732,6.582a21.631,21.631,0,0,0-.462,6.295l2.194-.289a5.348,5.348,0,0,1,2.2-2.545l.264-4.926s1.187-10.36-7.241-11.978a16.6,16.6,0,0,0-14.917,4.546" transform="translate(-22.106 -0.524)" fill="#7a615a"/>
            <path id="Trazado_659924" data-name="Trazado 659924" d="M232.249,22.215a4.776,4.776,0,1,1,3.952,5.478,4.781,4.781,0,0,1-3.952-5.478m.7.113a4.071,4.071,0,1,0,4.669-3.368,4.076,4.076,0,0,0-4.669,3.368" transform="translate(-22.65 -1.776)" fill="#fdfeff"/>
            <path id="Trazado_659925" data-name="Trazado 659925" d="M220.046,21.819A4.776,4.776,0,1,1,224,27.3a4.782,4.782,0,0,1-3.953-5.478m.7.113a4.071,4.071,0,1,0,4.669-3.368,4.076,4.076,0,0,0-4.669,3.368" transform="translate(-21.46 -1.737)" fill="#fdfeff"/>
            <path id="Trazado_659926" data-name="Trazado 659926" d="M230.38,23.694a1.178,1.178,0,0,1,1.643-.007l.467-.528a1.862,1.862,0,0,0-2.605.032Z" transform="translate(-22.426 -2.208)" fill="#fdfeff"/>
            <path id="Trazado_659927" data-name="Trazado 659927" d="M242.3,22.635a.354.354,0,0,0,.294-.088c.04-.029.671-.449,3.205-.45a.352.352,0,0,0,0-.7c-2.918,0-3.591.541-3.7.649a.352.352,0,0,0,.006.5.344.344,0,0,0,.19.1" transform="translate(-23.608 -2.087)" fill="#fdfeff"/>
            <path id="Trazado_659928" data-name="Trazado 659928" d="M220.767,23.7a.428.428,0,0,0,.267-.042,5.488,5.488,0,0,1,2.411-.278.441.441,0,1,0,.085-.877,6.449,6.449,0,0,0-2.891.368.441.441,0,0,0,.127.828" transform="translate(-21.5 -2.193)" fill="#fdfeff"/>
            <path id="Trazado_659929" data-name="Trazado 659929" d="M283.649,132.26a21.459,21.459,0,0,0-5.272-1.62,5,5,0,0,0-3.531,1.489l-.287,2.912a12.083,12.083,0,0,0-4.05-.451c-2.417.106-4.493,1.552-5.7,2.025s.309,2,2.343,1.77a15.466,15.466,0,0,1,4.454.088,14.438,14.438,0,0,0-4.02.746c-1.54.646-4.816,1.612-4.833,2.811s3.014.529,5.075.413,3-.467,4.7-.189a11.152,11.152,0,0,0-3.094,1.028,21.1,21.1,0,0,0-3.724,2.521c-.612.747,1.535,1.541,3.566.891s3.1-1.841,4.362-1.42a25.58,25.58,0,0,0-2.331,1.628c-.9.742-2.317,3.306-1.416,3.851s4.031-2.123,5.784-2.238a85.079,85.079,0,0,0,9.3-1.242c4.4-.8,7.807-7.866,7.807-7.866Z" transform="translate(-25.632 -12.743)" fill="#e69680"/>
            <path id="Trazado_659930" data-name="Trazado 659930" d="M303.873,99.326a26.585,26.585,0,0,1-.025,6.941c-1.243,10.819-7.1,24.774-10.911,25.941-4.7,1.444-10.4-.612-11.5-6.873s2.615-25.887,2.615-25.887c-.819-3.02-7.6-10.085-12.342-14.755a24.349,24.349,0,0,1-7.21-14.611c-.584-5.256.528-9.8,4.883-13.266,0,0,21.639,13.488,30.805,31.507a36.739,36.739,0,0,1,3.686,11" transform="translate(-25.788 -5.543)" fill="#e8e8e8"/>
            <path id="Trazado_659931" data-name="Trazado 659931" d="M307.665,102.732a26.585,26.585,0,0,1-.025,6.941c-6.894-5.178-3.66-17.943-3.66-17.943a36.738,36.738,0,0,1,3.686,11" transform="translate(-29.58 -8.948)" fill="#b8c5c9"/>
            <path id="Trazado_659932" data-name="Trazado 659932" d="M293.362,103.523a.413.413,0,0,1-.075,0,40.216,40.216,0,0,0-6.807.672h-.009a.363.363,0,0,1-.122-.716,40.049,40.049,0,0,1,6.972-.684.364.364,0,0,1,.041.722" transform="translate(-27.905 -10.027)" fill="#b8c5c9"/>
            <path id="Trazado_659933" data-name="Trazado 659933" d="M287.4,103.885a.363.363,0,0,1-.311-.618,8.235,8.235,0,0,1,3.224-2.24.363.363,0,0,1,.215.694,7.658,7.658,0,0,0-2.931,2.065.364.364,0,0,1-.2.1" transform="translate(-27.995 -9.854)" fill="#b8c5c9"/>
            <path id="Trazado_659935" data-name="Trazado 659935" d="M142.642,127.128l-19.218-1.454-4.038,20.15,17.085,4.873Z" transform="translate(-11.646 -12.26)" fill="#d8a926"/>
            <path id="Trazado_659936" data-name="Trazado 659936" d="M196.5,338.737l.437,6.2H186.609l-.436-6.2Z" transform="translate(-18.162 -33.044)" fill="#e69680"/>
            <path id="Trazado_659937" data-name="Trazado 659937" d="M185.789,203.48s7.545,55.96-.378,64c-3.168,3.214-13.058,4.206-16.49-1.6-5.4-9.126-7.3-32.121-7.917-44.353Z" transform="translate(-15.706 -19.85)" fill="#f46464"/>
            <path id="Trazado_659938" data-name="Trazado 659938" d="M169.682,265.552s-2.955,5.835,2.01,23.384c3.789,13.4,11.861,42.181,11.861,42.181s7.813.937,13.033-1.219l-6.707-80.733Z" transform="translate(-16.468 -24.306)" fill="#f46464"/>
            <path id="Trazado_659939" data-name="Trazado 659939" d="M184.33,321.026a.526.526,0,0,0,.123-.015.5.5,0,0,0,.361-.606c-.074-.293-7.443-29.4-9.512-36.1-2.048-6.626-2.934-19.443-2.943-19.571a.533.533,0,0,0-.041-.167c-4.132-9.42-6.174-28.3-6.194-28.493a.5.5,0,0,0-.549-.443.5.5,0,0,0-.443.549c.021.19,2.067,19.122,6.237,28.709.087,1.237.964,13.189,2.98,19.711,2.061,6.67,9.422,35.754,9.5,36.047a.5.5,0,0,0,.483.376" transform="translate(-16.109 -22.986)" fill="#d04848"/>
            <path id="Trazado_659940" data-name="Trazado 659940" d="M185.748,334.988a56.457,56.457,0,0,0,11.587-1.488.5.5,0,0,0-.236-.969c-.072.018-7.25,1.746-12.891,1.417a.5.5,0,1,0-.059,1c.524.031,1.059.045,1.6.045" transform="translate(-17.918 -32.438)" fill="#d04848"/>
            <path id="Trazado_659941" data-name="Trazado 659941" d="M183.161,359.269c0,.087,0,.171,0,.254.008.385.024.733.041,1.03.04.655.087,1.058.087,1.058h21.729a11.93,11.93,0,0,0,.024-2.087,10.855,10.855,0,0,0-3.881-8.044c-4.108-3.177-2.521-2.513-3.364-3.961-.095-.161-.835-2.622-.912-2.79-.707-1.5-1.357-2.214-5.25-2.214-5.163,0-5.618,2.5-6.168,3.825a24.594,24.594,0,0,0-.86,3.066c-.13.55-.26,1.136-.388,1.733-.318,1.5-.615,3.061-.818,4.308a22.617,22.617,0,0,0-.244,3.823" transform="translate(-17.867 -33.413)" fill="#1cf290"/>
            <path id="Trazado_659942" data-name="Trazado 659942" d="M183.161,360.012c0,.087,0,.171,0,.254.008.385.024.733.041,1.03a6.066,6.066,0,0,0,2.258-2.926c1.344-3.662-.723-8.057-.81-8.243l-.043.021c-.13.55-.26,1.136-.388,1.733a9.877,9.877,0,0,1,.271,6.136,5.049,5.049,0,0,1-1.332,2" transform="translate(-17.868 -34.156)" fill="#12263f"/>
            <path id="Trazado_659943" data-name="Trazado 659943" d="M183.165,361.361c.029,1.237.128,2.087.128,2.087h21.728a11.93,11.93,0,0,0,.024-2.087Z" transform="translate(-17.868 -35.251)" fill="#12263f"/>
            <path id="Trazado_659944" data-name="Trazado 659944" d="M194.418,344.772a.331.331,0,0,0,.026.087.41.41,0,0,0,.049.1.553.553,0,0,0,.115.137.619.619,0,0,0,.412.158.626.626,0,0,0,.254-.055l.2-.093c.125-.06.3-.142.5-.245.253-.125.554-.283.883-.469.257-.142.532-.3.811-.476.033-.018.065-.038.1-.059,1.468-.92,3.068-2.2,3.279-3.513a1.954,1.954,0,0,0-.69-1.81,1.816,1.816,0,0,0-1.762-.494,1.911,1.911,0,0,0-.338.125,3.29,3.29,0,0,0-.94.7,7.565,7.565,0,0,0-.947,1.24,16.112,16.112,0,0,0-1.1,2.128c-.18.406-.333.8-.46,1.133-.027.069-.051.135-.075.2-.089.243-.162.453-.219.621-.007.023-.016.044-.022.065-.024.075-.047.137-.063.19a.615.615,0,0,0-.012.33m1.719-1.4c.107-.265.223-.534.342-.8a15.644,15.644,0,0,1,.968-1.845,7.736,7.736,0,0,1,.451-.653,4.485,4.485,0,0,1,.332-.384,1.621,1.621,0,0,1,.681-.459.607.607,0,0,1,.14-.02.7.7,0,0,1,.467.228.731.731,0,0,1,.3.7c-.114.712-1.09,1.584-2.252,2.363-.192.127-.386.253-.585.374-.282.172-.568.338-.849.494" transform="translate(-18.964 -32.97)" fill="#fdfeff"/>
            <path id="Trazado_659945" data-name="Trazado 659945" d="M187.228,340.255a.868.868,0,0,0,.01.087,4.15,4.15,0,0,0,1.509,2.219,15.372,15.372,0,0,0,2.462,1.706c.412.237.792.438,1.1.591.135.069.259.129.362.18l.081.039c.117.057.206.1.256.119a.635.635,0,0,0,.255.055.564.564,0,0,0,.067,0,.636.636,0,0,0,.346-.153.561.561,0,0,0,.116-.138.463.463,0,0,0,.049-.1.421.421,0,0,0,.032-.116.582.582,0,0,0-.018-.3c-.016-.052-.038-.116-.062-.19-.006-.018-.013-.038-.021-.058-.059-.174-.135-.4-.228-.652-.024-.067-.051-.134-.077-.2-.142-.372-.313-.8-.516-1.252a16.072,16.072,0,0,0-.993-1.913,7.058,7.058,0,0,0-1.2-1.509,2.642,2.642,0,0,0-1.069-.625,1.758,1.758,0,0,0-1.493.277,2.408,2.408,0,0,0-.269.217,1.838,1.838,0,0,0-.134.132,2.083,2.083,0,0,0-.455.7,1.824,1.824,0,0,0-.109.888m1.252-.023a.675.675,0,0,1-.018-.087c0-.019-.006-.037-.008-.057a.756.756,0,0,1,.311-.645.7.7,0,0,1,.466-.229.6.6,0,0,1,.141.021,2.415,2.415,0,0,1,1.1.963,12.007,12.007,0,0,1,1.1,1.881c.207.423.4.864.575,1.3a18.363,18.363,0,0,1-1.891-1.188,4.47,4.47,0,0,1-1.776-1.956" transform="translate(-18.263 -32.97)" fill="#fdfeff"/>
            <path id="Trazado_659946" data-name="Trazado 659946" d="M194.4,344.018s1.012-.477,1.09.91c.064,1.124-.736,1.366-1.064,1.177a.937.937,0,0,1-1.032-.344c-.345-.55-.117-2.3,1.006-1.743" transform="translate(-18.851 -33.549)" fill="#fdfeff"/>
            <path id="Trazado_659947" data-name="Trazado 659947" d="M198.9,347.9a.619.619,0,0,0,.5-.99,5.287,5.287,0,0,0-5.093-2.027.619.619,0,0,0,.243,1.215,4.043,4.043,0,0,1,3.857,1.553.622.622,0,0,0,.5.249" transform="translate(-18.906 -33.637)" fill="#fdfeff"/>
            <path id="Trazado_659948" data-name="Trazado 659948" d="M188.862,348.454a.619.619,0,0,0,.564-.364c1-2.208,4.51-2.743,4.545-2.748a.62.62,0,0,0-.179-1.226c-.171.025-4.214.645-5.494,3.462a.62.62,0,0,0,.564.876" transform="translate(-18.363 -33.569)" fill="#fdfeff"/>
            <path id="Trazado_659949" data-name="Trazado 659949" d="M191.694,349.844a.622.622,0,0,0,.156-.02,10.748,10.748,0,0,1,5.037-.1.619.619,0,1,0,.33-1.194,11.906,11.906,0,0,0-5.678.1.62.62,0,0,0,.155,1.219" transform="translate(-18.64 -33.971)" fill="#fdfeff"/>
            <path id="Trazado_659950" data-name="Trazado 659950" d="M192.723,352.02a.622.622,0,0,0,.156-.02,10.866,10.866,0,0,1,5.038-.1.62.62,0,0,0,.328-1.195,11.914,11.914,0,0,0-5.678.1.62.62,0,0,0,.155,1.219" transform="translate(-18.74 -34.183)" fill="#fdfeff"/>
            <path id="Trazado_659951" data-name="Trazado 659951" d="M193.933,354.493a.622.622,0,0,0,.156-.02,10.851,10.851,0,0,1,5.038-.1.619.619,0,0,0,.328-1.194,11.908,11.908,0,0,0-5.677.1.62.62,0,0,0,.154,1.22" transform="translate(-18.858 -34.424)" fill="#fdfeff"/>
            <path id="Trazado_659952" data-name="Trazado 659952" d="M141.735,338.953l-1.005,7.537h-9.353l1.005-7.537Z" transform="translate(-12.816 -33.065)" fill="#e69680"/>
            <path id="Trazado_659953" data-name="Trazado 659953" d="M106.5,361.867h34.053a4.757,4.757,0,0,0,.449-1.892c.212-2.88-.706-7.477-1.156-10.375-.054-.338-.1-.655-.137-.941a9.9,9.9,0,0,1-.1-1.183,1.737,1.737,0,0,0-2.094-1.96c-3.446,3.379-7.348-1.688-9.626-.026,0,0-.981.7-3.685,3.135s-7.3,4.038-11.216,5.676c-5.053,2.113-6.486,4.223-6.766,5.675a2.66,2.66,0,0,0,.28,1.892" transform="translate(-10.356 -33.669)" fill="#1cf290"/>
            <path id="Trazado_659954" data-name="Trazado 659954" d="M106.5,363.47h34.053a4.756,4.756,0,0,0,.449-1.891H106.22a2.659,2.659,0,0,0,.28,1.891" transform="translate(-10.356 -35.273)" fill="#12263f"/>
            <path id="Trazado_659955" data-name="Trazado 659955" d="M129.327,347.008s-.608-1.486-1.959-1.013-1.217,2.7-1.217,2.7.811,2.027,3.176-1.689" transform="translate(-12.306 -33.743)" fill="#fdfeff"/>
            <path id="Trazado_659956" data-name="Trazado 659956" d="M129.855,353.9a.561.561,0,0,0,.561-.561,7.164,7.164,0,0,0-2.206-5.289.561.561,0,0,0-.727.856,6.032,6.032,0,0,1,1.809,4.434.561.561,0,0,0,.561.561" transform="translate(-12.417 -33.94)" fill="#fdfeff"/>
            <path id="Trazado_659957" data-name="Trazado 659957" d="M122.23,349.449a.557.557,0,0,0,.372-.142c.713-.632,2.806-.75,3.956-.676a.561.561,0,1,0,.072-1.12c-.353-.023-3.482-.189-4.773.957a.561.561,0,0,0,.373.981" transform="translate(-11.869 -33.898)" fill="#fdfeff"/>
            <path id="Trazado_659958" data-name="Trazado 659958" d="M127.728,347.211l.286.29-.033-.005-.007.037-.233,1.156a1.21,1.21,0,0,0,.13.02,7.812,7.812,0,0,0,1.078.061c.073,0,.149,0,.229,0a21.5,21.5,0,0,0,2.486-.207,4.711,4.711,0,0,0,3.211-1.592,2.142,2.142,0,0,0,.291-.55c.013-.034.024-.07.033-.1a1.729,1.729,0,0,0-.442-1.715,2.391,2.391,0,0,0-1.758-.752h-.046a4.407,4.407,0,0,0-1.592.345,11.336,11.336,0,0,0-2.732,1.67l-.172.142c-.288.235-.53.448-.708.612-.157.146-.265.253-.315.3Zm1.218.341c-.156,0-.291,0-.407-.007.238-.22.548-.487.9-.764a12.3,12.3,0,0,1,1.732-1.156,5.643,5.643,0,0,1,.985-.425,2.733,2.733,0,0,1,.8-.135h.029a1.184,1.184,0,0,1,.9.372.531.531,0,0,1,.171.473.619.619,0,0,1-.028.106,1.939,1.939,0,0,1-1.094.953,5.234,5.234,0,0,1-1.427.386,19.211,19.211,0,0,1-2.552.2" transform="translate(-12.432 -33.543)" fill="#fdfeff"/>
            <path id="Trazado_659959" data-name="Trazado 659959" d="M126.439,348l.52-1.1c-1.119-.53-2.189-1.926-2.121-2.767.016-.2.1-.458.631-.609a.676.676,0,0,1,.665.076c.587.454.771,1.989.749,2.851l1.217.032c.007-.291.04-2.868-1.219-3.844a2.1,2.1,0,0,0-3.254,1.4c-.123,1.494,1.384,3.289,2.813,3.965" transform="translate(-12.059 -33.388)" fill="#fdfeff"/>
            <path id="Trazado_659960" data-name="Trazado 659960" d="M140.244,362.247h1.012a7.472,7.472,0,0,1-1.83-5.453,9.6,9.6,0,0,1,3.585-6.814c-.055-.338-.1-.655-.138-.941a10.437,10.437,0,0,0-4.259,7.715,8.265,8.265,0,0,0,1.63,5.493" transform="translate(-13.521 -34.049)" fill="#12263f"/>
            <path id="Trazado_659961" data-name="Trazado 659961" d="M126.5,351.048a.561.561,0,0,0,.134-1.105l-2.127-.529a.561.561,0,0,0-.27,1.089l2.127.528a.542.542,0,0,0,.135.017" transform="translate(-12.078 -34.084)" fill="#fdfeff"/>
            <path id="Trazado_659962" data-name="Trazado 659962" d="M124.143,352.418a.561.561,0,0,0,.134-1.105l-2.127-.529a.561.561,0,0,0-.271,1.089l2.128.528a.536.536,0,0,0,.135.017" transform="translate(-11.848 -34.218)" fill="#fdfeff"/>
            <path id="Trazado_659963" data-name="Trazado 659963" d="M121.786,353.737a.561.561,0,0,0,.134-1.106l-2.127-.529a.561.561,0,0,0-.27,1.089l2.127.528a.535.535,0,0,0,.135.017" transform="translate(-11.618 -34.347)" fill="#fdfeff"/>
            <path id="Trazado_659964" data-name="Trazado 659964" d="M119.216,354.955a.561.561,0,0,0,.134-1.106l-2.127-.528a.561.561,0,0,0-.271,1.089l2.128.528a.54.54,0,0,0,.135.017" transform="translate(-11.367 -34.465)" fill="#fdfeff"/>
            <path id="Trazado_659965" data-name="Trazado 659965" d="M116.429,355.994a.561.561,0,0,0,.134-1.106l-2.127-.528a.561.561,0,0,0-.27,1.089l2.127.528a.537.537,0,0,0,.135.017" transform="translate(-11.096 -34.567)" fill="#fdfeff"/>
            <path id="Trazado_659966" data-name="Trazado 659966" d="M135.035,210.724s-2,45.851.911,56.757c.678,2.539,14.334,2.322,17.61-2.328,6.46-9.17,8.283-29.662,8.807-42.946Z" transform="translate(-13.107 -20.556)" fill="#f46464"/>
            <path id="Trazado_659967" data-name="Trazado 659967" d="M152.628,268.626a55.581,55.581,0,0,1,1.306,21.158c-2.02,13.777-11.2,43.209-11.2,43.209a58.039,58.039,0,0,1-11.358-1.05l2.817-79.067Z" transform="translate(-12.816 -24.668)" fill="#f46464"/>
            <path id="Trazado_659968" data-name="Trazado 659968" d="M143.8,336.364a.5.5,0,0,0,.027-1l-11.809-.658a.5.5,0,1,0-.056,1l11.81.658h.028" transform="translate(-12.828 -32.651)" fill="#d04848"/>
            <path id="Trazado_659969" data-name="Trazado 659969" d="M143.9,321.75a.5.5,0,0,0,.483-.378c.073-.29,7.254-29.122,8.589-36.653,1.272-7.176-1.1-17.323-1.477-18.868,5.965-11.594,6.57-29.35,6.575-29.53a.5.5,0,0,0-.483-.513h-.015a.5.5,0,0,0-.5.484c-.005.178-.61,17.882-6.55,29.267a.494.494,0,0,0-.042.353c.029.112,2.821,11.227,1.508,18.634-1.328,7.5-8.5,36.3-8.574,36.586a.5.5,0,0,0,.364.6.506.506,0,0,0,.121.014" transform="translate(-13.989 -23.003)" fill="#d04848"/>
            <path id="Trazado_659970" data-name="Trazado 659970" d="M182.834,200.638s2.494,15.093.8,21.136-42.744,11.316-45.4,5.73c-5.126-10.775-3.344-24.3-3.344-24.3,18.694,4.307,34.43,3.407,47.945-2.565" transform="translate(-13.129 -19.573)" fill="#f46464"/>
            <path id="Trazado_659971" data-name="Trazado 659971" d="M163.538,204.883c.007.168.014.338.022.51.192,4.527.43,10.937.555,17.479.008.361.014.724.022,1.084.034,2.087.058,4.178.064,6.215a.525.525,0,0,1-.519.526h0a.525.525,0,0,1-.525-.523c-.005-1.967-.029-3.983-.062-6q-.008-.532-.019-1.063c-.123-6.582-.362-13.049-.556-17.616-.01-.208-.018-.413-.027-.615Z" transform="translate(-15.851 -19.987)" fill="#d04848"/>
            <path id="Trazado_659972" data-name="Trazado 659972" d="M158.771,204.883c.013.28.026.566.04.86.279,5.924.708,14.307.991,16.287a1.169,1.169,0,0,0,.591.946,3.575,3.575,0,0,0,2.212.137,10.566,10.566,0,0,0,1.044-.242,12.141,12.141,0,0,0,1.463-.514.524.524,0,1,1,.421.96,13.306,13.306,0,0,1-1.862.638,10.243,10.243,0,0,1-1.047.221,7.3,7.3,0,0,1-1,.086,3.516,3.516,0,0,1-1.744-.37,2.223,2.223,0,0,1-1.119-1.715c-.292-2.042-.724-10.44-1-16.378-.016-.313-.03-.617-.043-.917Z" transform="translate(-15.386 -19.987)" fill="#d04848"/>
            <path id="Trazado_659973" data-name="Trazado 659973" d="M184.5,160.769c-.106.9-.2,2.012-.282,3.3q-.043.662-.087,1.378c-.235,4-.439,9.253-.817,14.705-.034.488-.07.982-.109,1.472-.88,11.738,2.586,15.825-2.379,16.955-30.154,6.86-42.469-.019-46.139-2.891-4.053-3.172-1.32-15.879.172-30.86.05-.506.1-1.005.146-1.494.4-4.077.7-7.423.7-9.378.032-9.089,1.221-18.777,2.581-22.929s16.509-7.45,16.509-7.45l16.8.713a59.2,59.2,0,0,1,11.3,9.364c6.011,6.256,2.731,17.575,1.6,27.118" transform="translate(-12.932 -12.055)" fill="#ffd357"/>
            <path id="Trazado_659974" data-name="Trazado 659974" d="M135.722,160.6h-.015a.347.347,0,0,1-.33-.361c.005-.122.555-12.289,1.971-19.487a.346.346,0,1,1,.679.134c-1.407,7.148-1.954,19.263-1.959,19.385a.345.345,0,0,1-.345.33" transform="translate(-13.206 -13.704)" fill="#d8a925"/>
            <path id="Trazado_659975" data-name="Trazado 659975" d="M136.939,145.626a.346.346,0,0,1-.329-.238l-.87-2.65a.346.346,0,1,1,.657-.215l.87,2.65a.346.346,0,0,1-.221.436.338.338,0,0,1-.107.017" transform="translate(-13.24 -13.88)" fill="#d8a925"/>
            <path id="Trazado_659978" data-name="Trazado 659978" d="M171.984,137.794a21.248,21.248,0,0,1-11.5-3.409,21.994,21.994,0,0,1-5.657-5.106.5.5,0,0,1,.81-.581c.075.1,7.62,10.361,20.745,7.637a.5.5,0,1,1,.2.976,22.591,22.591,0,0,1-4.6.482" transform="translate(-15.094 -12.535)" fill="#d8a925"/>
            <path id="Trazado_659979" data-name="Trazado 659979" d="M168.7,201.338c-6.549.411-13.358-2.132-19.968-7.512A56.187,56.187,0,0,1,138.455,182.7a.478.478,0,0,1,.8-.526,55.156,55.156,0,0,0,10.1,10.923c5.655,4.6,14.451,9.431,24.247,6.36a.478.478,0,1,1,.285.913,21.93,21.93,0,0,1-5.186.965" transform="translate(-13.499 -17.751)" fill="#d8a925"/>
            <path id="Trazado_659980" data-name="Trazado 659980" d="M163.4,194.874a.465.465,0,0,1-.106-.005c-8.016-1.278-14.871-10.995-15.158-11.408a.478.478,0,0,1,.785-.547c.068.1,6.912,9.8,14.524,11.011a.478.478,0,0,1-.045.949" transform="translate(-14.443 -17.824)" fill="#d8a925"/>
            <path id="Trazado_659981" data-name="Trazado 659981" d="M155.077,92.385a19.926,19.926,0,0,0-.273-8.365c-1.153-3.733-1.153-5.964-.435-6.627,2.263-2.085,4.393,2.988,4.393,2.988s-.6-4.715,1.361-4.848,2.222,5.31,2.222,5.31,1.777-7.434,4.342-5.974,1.558,6.506,1.558,6.506,9.721.754,12.96,6.662c0,0,2.65-2.823,4.376-1.158s-1.859,4.421-1.859,4.421,2.754,1.812,2.329,4.414-3.7.819-3.7.819.55,13.923-11.276,17.749-16-21.9-16-21.9" transform="translate(-15.011 -7.285)" fill="#302922"/>
            <path id="Trazado_659982" data-name="Trazado 659982" d="M158.807,118.825l-.567,4.214a12.478,12.478,0,0,0,1.257,1.233c6.268,5.317,14.4.873,14.4.873l1.966-14.612-15.019,7.3Z" transform="translate(-15.437 -10.783)" fill="#e69680"/>
            <path id="Trazado_659983" data-name="Trazado 659983" d="M158.807,119.483l-.567,4.214a12.477,12.477,0,0,0,1.257,1.233c6.172-1.68,11.3-7.646,11.3-7.646l-9.958,1.211Z" transform="translate(-15.437 -11.441)" fill="#302922"/>
            <path id="Trazado_659984" data-name="Trazado 659984" d="M155.621,101.5s-1.887-2.952-3.511-.472-1.37,7.975,2.161,7.556Z" transform="translate(-14.745 -9.759)" fill="#e06c5c"/>
            <path id="Trazado_659985" data-name="Trazado 659985" d="M152.4,107.265s-.919,8.256,7.578,9.38a22.442,22.442,0,0,0,14.936-3.284l.011-.007.323-1.7,1.678-8.843.9-4.727s2.232-8.428-5.705-11.087c-5.8-1.944-11.514-1.707-14.749,1.021-.1.088-.207.179-.3.273a7.392,7.392,0,0,0-2.14,3.777l-1.414,8.516-.347,2.087Z" transform="translate(-14.864 -8.362)" fill="#e69680"/>
            <path id="Trazado_659986" data-name="Trazado 659986" d="M165.414,107.553s-1.224,3.544-4.172,4.029c-3.354.552-3.966-3.642-3.966-3.642Z" transform="translate(-15.343 -10.492)" fill="#fdfeff"/>
            <path id="Trazado_659987" data-name="Trazado 659987" d="M160.244,113.3a1.767,1.767,0,0,1-.2-.071.273.273,0,0,1,.225-.5,1.751,1.751,0,0,0,1.723-.217.272.272,0,0,1,.34.425,2.252,2.252,0,0,1-2.091.361" transform="translate(-15.597 -10.97)" fill="#e06c5c"/>
            <path id="Trazado_659988" data-name="Trazado 659988" d="M166.348,101.154c-.11.817.171,1.529.628,1.59s.917-.551,1.026-1.367-.171-1.529-.628-1.59-.916.55-1.026,1.367" transform="translate(-16.225 -9.734)" fill="#302922"/>
            <path id="Trazado_659989" data-name="Trazado 659989" d="M157.4,99.95c-.11.817.171,1.528.628,1.59s.917-.551,1.026-1.367-.171-1.529-.628-1.59-.916.55-1.026,1.367" transform="translate(-15.352 -9.616)" fill="#302922"/>
            <path id="Trazado_659990" data-name="Trazado 659990" d="M161.1,104.536a2.9,2.9,0,0,1-2.5-1.811.34.34,0,0,1,.041-.289c1.744-2.63,3.515-5.334,3.533-5.361a.339.339,0,0,1,.568.371c-.018.027-1.724,2.632-3.436,5.214a2.327,2.327,0,0,0,1.88,1.2.339.339,0,0,1-.09.672" transform="translate(-15.471 -9.455)" fill="#302922"/>
            <path id="Trazado_659991" data-name="Trazado 659991" d="M169.162,89.965a1.989,1.989,0,0,1,1.669,1.864,3.219,3.219,0,0,0,1.352,2.353c2.39,2.011,1.614,4.228.763,6.04s2.463,5.816,5.41,1.425S180.5,87.061,173.6,85.653s-16.417-.386-17.611,2.662a15.914,15.914,0,0,0-1.081,5.811,3.751,3.751,0,0,0,1.433-2.8c.178-1.992,1.654-2.588,4-2.588a82.014,82.014,0,0,1,8.823,1.228" transform="translate(-15.111 -8.295)" fill="#302922"/>
            <g id="Grupo_996288" data-name="Grupo 996288" transform="translate(138.297 92.218)" opacity="0.8">
              <g id="Grupo_996287" data-name="Grupo 996287">
                <g id="Grupo_996286" data-name="Grupo 996286" clip-path="url(#clip-path-3)">
                  <path id="Trazado_659992" data-name="Trazado 659992" d="M153.247,104.273a6.433,6.433,0,0,0,.654.12c1.51.2,2.8-.115,2.879-.709s-1.079-1.241-2.588-1.444c-.2-.028-.405-.045-.6-.054Z" transform="translate(-153.247 -102.187)" fill="#e06c5c"/>
                </g>
              </g>
            </g>
            <path id="Trazado_659993" data-name="Trazado 659993" d="M165.75,104.919c-.08.595,1.08,1.241,2.59,1.444s2.8-.114,2.881-.708-1.08-1.241-2.591-1.444-2.8.114-2.88.708" transform="translate(-16.169 -10.16)" fill="#e06c5c"/>
            <path id="Trazado_659994" data-name="Trazado 659994" d="M171.315,97.115h0a1.938,1.938,0,0,1-2.64.638,10.726,10.726,0,0,0-1.839-.89,1.781,1.781,0,0,1-1.04-2.369s4,.169,5.518,2.621" transform="translate(-16.16 -9.218)" fill="#302922"/>
            <path id="Trazado_659995" data-name="Trazado 659995" d="M154.907,94.971h0a1.938,1.938,0,0,0,2.378,1.313,10.755,10.755,0,0,1,2.008-.373,1.78,1.78,0,0,0,1.629-2.01s-3.9-.894-6.015,1.069" transform="translate(-15.111 -9.14)" fill="#302922"/>
            <path id="Trazado_659996" data-name="Trazado 659996" d="M174.9,112.281c.026.1.766,2.734,2.214,3.671l.009-.007.323-1.7a5.918,5.918,0,0,1-2.546-1.96" transform="translate(-17.061 -10.953)" fill="#302922"/>
            <path id="Trazado_659997" data-name="Trazado 659997" d="M177.3,106.024s3.855-3.946,5.784-.179c1.588,3.105-3.133,10-6.693,6.944Z" transform="translate(-17.207 -10.166)" fill="#e69680"/>
            <path id="Trazado_659998" data-name="Trazado 659998" d="M177.05,111.778l-.037-.006a.34.34,0,0,1-.247-.411,6.342,6.342,0,0,1,4.362-4.58.339.339,0,1,1,.165.657,5.662,5.662,0,0,0-3.87,4.085.339.339,0,0,1-.374.254" transform="translate(-17.243 -10.416)" fill="#302922"/>
            <path id="Trazado_659999" data-name="Trazado 659999" d="M180.616,110.347a.331.331,0,0,1-.2-.1c-.261-.276-1.068-.976-1.668-.906a.339.339,0,0,1-.079-.674c1.043-.122,2.121.989,2.24,1.116a.339.339,0,0,1-.292.568" transform="translate(-17.4 -10.599)" fill="#302922"/>
            <path id="Trazado_660000" data-name="Trazado 660000" d="M183.1,165.281a.344.344,0,0,1-.336-.265l-3.5-14.752a.346.346,0,1,1,.672-.16l3.5,14.752a.346.346,0,0,1-.256.416.355.355,0,0,1-.08.009" transform="translate(-17.487 -14.617)" fill="#d8a925"/>
            <path id="Trazado_660001" data-name="Trazado 660001" d="M180.317,154.365a.345.345,0,0,1-.195-.06l-2.142-1.466a.346.346,0,1,1,.391-.57l2.142,1.466a.346.346,0,0,1-.2.631" transform="translate(-17.348 -14.848)" fill="#194c56"/>
            <path id="Trazado_660004" data-name="Trazado 660004" d="M173.349,133.641l-21.627-3.28L131.679,96.015l-8.246,3.39s9.666,33.266,17.6,39.525,31.171,12.31,31.171,12.31Z" transform="translate(-12.041 -9.366)" fill="#e69680"/>
            <path id="Trazado_660005" data-name="Trazado 660005" d="M182.286,133.242l-16.765-.93-.343,22.336,22.506,6.972s7.279-11.258,2.8-22.542a9.357,9.357,0,0,0-8.2-5.836" transform="translate(-16.113 -12.907)" fill="#d8a926"/>
            <path id="Trazado_660006" data-name="Trazado 660006" d="M114.463,96.62l.366,21.465,1.8.3s.99-4.993,1.435-7.541,1.1-8.173.326-9.927l.462-3.566Z" transform="translate(-11.166 -9.425)" fill="#312a45"/>
            <path id="Trazado_660012" data-name="Trazado 660012" d="M112.587,79.128l-.022.134,6.539,1.087.024-.133Z" transform="translate(-10.981 -7.719)" fill="#fff"/>
            <path id="Trazado_660014" data-name="Trazado 660014" d="M112.839,77.612l-.023.134,6.56,1.09.024-.134Z" transform="translate(-11.005 -7.571)" fill="#fff"/>
            <path id="Trazado_660015" data-name="Trazado 660015" d="M113.343,74.579l-.023.134,6.6,1.1.024-.133Z" transform="translate(-11.055 -7.275)" fill="#fff"/>
            <path id="Trazado_660016" data-name="Trazado 660016" d="M113.595,73.063l-.023.134,6.621,1.1.023-.133Z" transform="translate(-11.079 -7.127)" fill="#fff"/>
            <path id="Trazado_660017" data-name="Trazado 660017" d="M113.091,76.1l-.023.134,6.581,1.094.023-.134Z" transform="translate(-11.03 -7.423)" fill="#fff"/>
            <path id="Trazado_660018" data-name="Trazado 660018" d="M120.227,69.578l-.4,1.763a3.748,3.748,0,0,1-2.265.347,1.615,1.615,0,0,1-1.451-1.151l.32-1.332Z" transform="translate(-11.326 -6.751)" fill="#312a45"/>
            <path id="Trazado_660019" data-name="Trazado 660019" d="M120.232,71.631l2.8,1.463-1.681,6-.775,6.179a.82.82,0,0,1-.845.717l-3.642-.136s.919-4.911,1.21-6.971.772-5.837.772-5.837Z" transform="translate(-11.324 -6.988)" fill="#8f3935"/>
            <path id="Trazado_660020" data-name="Trazado 660020" d="M118.888,84l-.467.087a5.359,5.359,0,0,0,.444,2.049A3.182,3.182,0,0,0,118.888,84" transform="translate(-11.552 -8.195)" fill="#ba7b53"/>
            <path id="Trazado_660021" data-name="Trazado 660021" d="M123.358,73.252a4.437,4.437,0,0,1,2.377,2.92c.283,1.23.9,4.789,1.128,6.781s-.921,4.128-2.69,4.163a2.778,2.778,0,0,1-2.363-.792,1.85,1.85,0,0,1-1.652-.534.868.868,0,0,1-.716-.847l.1-2.218a1.212,1.212,0,0,1,1.434-.171,1.526,1.526,0,0,1,1.191-.207s-.1-2.209-.317-3.707c-.278-1.905,1.1-5.281,1.511-5.387" transform="translate(-11.652 -7.146)" fill="#312a45"/>
            <path id="Trazado_660022" data-name="Trazado 660022" d="M119.471,83.748a2.89,2.89,0,0,1-.1,2.3l-.482.12a7.654,7.654,0,0,0-.141-2.289Z" transform="translate(-11.585 -8.17)" fill="#e79e35"/>
            <path id="Trazado_660026" data-name="Trazado 660026" d="M117.758,114.37a9.1,9.1,0,0,1-3-.546l.1,5.938,1.8.3s.619-3.124,1.1-5.692" transform="translate(-11.195 -11.104)" fill="#8f3935"/>
            <path id="Trazado_660027" data-name="Trazado 660027" d="M115.639,119.229l1.026.171a.378.378,0,0,1,.307.442l-.12.6a6.951,6.951,0,0,1,1.141,2.439l-.013.1a.427.427,0,0,1-.5.369l-1.68-.28a.777.777,0,0,1-.516-.332,1.679,1.679,0,0,1-.227-.5l-.716-.356a.181.181,0,0,1-.094-.212l.139-.468a1.878,1.878,0,0,1,.4-1.309l.566.171-.024-.564a.265.265,0,0,1,.309-.275" transform="translate(-11.145 -11.631)" fill="#312a45"/>
            <path id="Trazado_660028" data-name="Trazado 660028" d="M117.721,122.8l-.484-.109a1.105,1.105,0,0,1-1.1.28,1.506,1.506,0,0,1-.932-.868l-.815-.681-.139.467a.183.183,0,0,0,.095.213l.715.356a1.679,1.679,0,0,0,.227.5.778.778,0,0,0,.516.333l1.68.279a.426.426,0,0,0,.5-.368l0-.031c-.139-.193-.264-.368-.264-.368" transform="translate(-11.145 -11.845)" fill="#24777b"/>
            <path id="Trazado_660032" data-name="Trazado 660032" d="M118.971,86.6c-1.118-1.119-.69-3.121-.671-3.205l.4.088c0,.018-.4,1.87.562,2.83Z" transform="translate(-11.531 -8.135)" fill="#ac2d51"/>
            <path id="Trazado_660033" data-name="Trazado 660033" d="M118.751,61.311a3.2,3.2,0,0,0-2.854,2.031,8.429,8.429,0,0,0,0,5.466,2.158,2.158,0,0,0,3.05.781c1.065-.653,1.216-.781,1.216-.781a13.606,13.606,0,0,0,1.781-4.566c.166-1.931-1.89-2.9-3.192-2.93" transform="translate(-11.262 -5.981)" fill="#8f3935"/>
            <path id="Trazado_660034" data-name="Trazado 660034" d="M116.415,63.193a1.438,1.438,0,0,0,.664,1.332c.779.51,2.922-.488,3.1-1a1.588,1.588,0,0,1-.173,1.443s1.043-.067,1.354-.533c0,0-.032,2.02-1.18,2.819s-2.692-.578-3.1-.754-.751.506-1.169.106-.393-2.126.5-3.414" transform="translate(-11.282 -6.165)" fill="#312a45"/>
            <path id="Trazado_660035" data-name="Trazado 660035" d="M120.455,61.356a1.721,1.721,0,0,1,.192-1.4,1.877,1.877,0,0,1,1.414-.8l-.471.732a1.993,1.993,0,0,1,1.348-.227,1.879,1.879,0,0,1,1.088,1.007l-1.511.065a1.439,1.439,0,0,1,1.235,1.007h-2.528Z" transform="translate(-11.744 -5.771)" fill="#312a45"/>
            <path id="Trazado_660036" data-name="Trazado 660036" d="M131.07,95.347s-4.63-6.715-6.112-8.778-5.816-3.381-8.395-3.188,1.418,1.934,3.481,2.449c0,0-4.125-1.327-5.608-.34s4.641,2.725,4.641,2.725-4.641-.967-5.222-.064,4.319,2.513,4.319,2.513-2.643-.451-3.739.129,1.74,1.729,4.061,1.9c0,0,2.513,5.324,5.415,7.322s7.158-4.665,7.158-4.665" transform="translate(-11.102 -8.132)" fill="#e69680"/>
            <path id="Trazado_660037" data-name="Trazado 660037" d="M156.64,123.267s-1.773-2.555-3.661-1.589-2.771,5.894-2.963,7.645,2.8-1.118,3.329-2.885,1.46-2.1,1.46-2.1Z" transform="translate(-14.633 -11.849)" fill="#e69680"/>
            <path id="Trazado_660038" data-name="Trazado 660038" d="M149.421,126.021s-1.773-2.555-3.661-1.589-2.771,5.894-2.963,7.645,2.8-1.118,3.329-2.885,1.46-2.1,1.46-2.1Z" transform="translate(-13.929 -12.117)" fill="#e69680"/>
            <path id="Trazado_660039" data-name="Trazado 660039" d="M145.8,126.943s-1.567-2.256-3.234-1.4-2.447,5.207-2.617,6.754,2.477-.988,2.94-2.549,1.29-1.855,1.29-1.855Z" transform="translate(-13.652 -12.228)" fill="#e69680"/>
            <path id="Trazado_660040" data-name="Trazado 660040" d="M153.139,124.783s-1.773-2.555-3.661-1.589-2.771,5.894-2.963,7.645,2.8-1.118,3.329-2.884,1.46-2.1,1.46-2.1Z" transform="translate(-14.292 -11.996)" fill="#e69680"/>
          </g>
        </g>
      </g>
    </g>
  </g>
</svg>
