<svg xmlns="http://www.w3.org/2000/svg" xmlns:xlink="http://www.w3.org/1999/xlink" width="114.333" height="114.333" viewBox="0 0 114.333 114.333"><defs><clipPath id="a"><rect width="114.333" height="70.489" fill="none"/></clipPath></defs><g transform="translate(-973.833 -9094.958)"><g transform="translate(789.833 7958.958)"><g transform="translate(184 1136)"><circle cx="57.167" cy="57.167" r="57.167" transform="translate(0 0)" fill="#1cf290"/></g><g transform="translate(184 1157.922)"><g clip-path="url(#a)"><path d="M71.7,12.871l2.871.752a2.86,2.86,0,0,1-.134.3c-3.923,6.739-7.869,13.466-11.762,20.222a4.45,4.45,0,0,0,2.273,6.693,12,12,0,0,0,13.712-3.217c1.169-1.345,2.248-2.774,3.292-4.22.468-.648.775-.642,1.371-.167a15.609,15.609,0,0,0,8.071,3.485,2.045,2.045,0,0,1,1.168.557c1.88,1.635,3.776,3.253,5.66,4.884q7.04,6.1,14.073,12.2c-.4,2.392-2.051,3.657-4.107,4.557-1.67-1.413-3.322-2.848-5.018-4.229a1.609,1.609,0,0,0-2.388.124,1.68,1.68,0,0,0,.219,2.39c.526.522,1.1,1,1.65,1.491a12.438,12.438,0,0,1-3.2,3.9c-.268.253-.637.393-.614.844-.35-.269-.713-.523-1.048-.809-1.236-1.054-2.445-2.142-3.7-3.172a1.642,1.642,0,0,0-2.468.058,1.714,1.714,0,0,0,.273,2.459c.314.307.636.606.955.909l-2.675,3.112a5.068,5.068,0,0,1-4.221,2.047c.082-4.212-2.126-6.559-6.3-6.6-.691-.007-.66-.429-.8-.821a5.761,5.761,0,0,0-6.692-3.867c-.63.13-.793-.022-1.039-.557a5.707,5.707,0,0,0-6.729-3.236c-.658.167-.867.011-1.162-.558a5.8,5.8,0,0,0-8.738-2,1.644,1.644,0,0,1-1.208.415c-1.407-.129-2.818-.3-4.226-.291-1.083,0-1.235-.421-1.114-1.375q1.8-14.209,3.527-28.426c.076-.619.24-.82.881-.766,1.815.151,3.641.188,5.454.361a2.129,2.129,0,0,0,2.386-1.369c.664-1.409,1.383-2.794,2.125-4.164a2.965,2.965,0,0,1,3.693-1.7c1.084.248,2.145.595,3.222.875A1.836,1.836,0,0,0,71.7,12.871" transform="translate(-26.499 -7.119)" fill="#efc19a"/><path d="M110.825,8.34l3.282-.394a1.773,1.773,0,0,0,2.167,1.565c.518-.052,1.044-.04,1.555-.13a6.7,6.7,0,0,1,4.7.91c3.017,1.755,6.086,3.419,9.111,5.159a3.6,3.6,0,0,0,2.449.478c.734-.113,1.483-.146,2.206-.306.639-.141.814.031.89.679.469,4.021,1,8.035,1.49,12.054.49,4.055.95,8.114,1.423,12.172-1.1.151-2.188.364-3.29.44-2.309.16-4.555.43-6.257,2.256a4.942,4.942,0,0,1-.61.48q-5.762-4.935-11.518-9.876c-.063-.053-.053-.189-.087-.325,3.853-1.228,6.7-3.794,9.262-6.751.833-.962.889-1.989.13-2.66s-1.749-.536-2.624.451a26.317,26.317,0,0,1-3.328,3.292,11.339,11.339,0,0,1-8.1,2.849,13.065,13.065,0,0,1-7.978-3.843c-1.606-1.507-2.319-1.464-3.688.3-1.389,1.794-2.721,3.637-4.181,5.371a8.644,8.644,0,0,1-9.793,2.616c-1.237-.437-1.483-1.057-.812-2.216q5.644-9.744,11.308-19.476a5.05,5.05,0,0,1,4.244-2.659c2.04-.151,4.07-.418,6.11-.579a1.849,1.849,0,0,0,1.948-1.86" transform="translate(-48.037 -4.395)" fill="#e5a167"/><path d="M106.653,3.945A1.849,1.849,0,0,1,104.7,5.8c-2.039.161-4.069.428-6.11.579a5.05,5.05,0,0,0-4.244,2.659Q88.7,18.779,83.043,28.518c-.671,1.159-.425,1.779.812,2.216a8.644,8.644,0,0,0,9.793-2.616c1.46-1.734,2.792-3.577,4.181-5.371,1.368-1.767,2.082-1.809,3.688-.3a13.065,13.065,0,0,0,7.978,3.843,11.339,11.339,0,0,0,8.1-2.849,26.316,26.316,0,0,0,3.328-3.292c.875-.987,1.855-1.131,2.624-.451s.7,1.7-.13,2.66c-2.562,2.957-5.41,5.523-9.262,6.751.034.136.024.272.087.325q5.753,4.945,11.518,9.876c.941.839,1.884,1.675,2.82,2.519.267.241.515.416.855.1a2.553,2.553,0,0,1,1.894-.461c1.486.006,2.973-.015,4.46.005.53.007.862-.071.764-.726-.23-1.536-.426-3.078-.636-4.617-.473-4.057-.932-8.117-1.422-12.172-.486-4.019-1.021-8.033-1.49-12.054-.076-.648-.251-.821-.89-.679-.723.16-1.472.193-2.206.306a3.6,3.6,0,0,1-2.449-.478c-3.025-1.74-6.094-3.4-9.111-5.159a6.7,6.7,0,0,0-4.7-.91c-.51.09-1.037.077-1.555.13a1.773,1.773,0,0,1-2.167-1.565c.11-1.161.831-1.611,1.911-1.795a12.476,12.476,0,0,1,9.347,1.86c2.35,1.542,4.907,2.766,7.342,4.183,1.29.75,2.522.059,3.777-.009.358-.019.21-.415.243-.647A6.229,6.229,0,0,1,138.35,1.51c3.983-.467,7.961-.976,11.94-1.477,1.2-.15,2.011.218,2.3,1.078.312.94-.1,1.635-1.315,2.222l-12.38,1.512c-2.277.278-3.218,1.56-2.92,3.826.514,3.9.976,7.81,1.462,11.715q1.368,11,2.74,21.993c.155,3.372,1.22,4.267,4.527,3.855,3.9-.488,7.81-.951,11.715-1.425,1.211.206,1.814.793,1.781,1.734s-.7,1.508-1.9,1.658q-6.085.756-12.171,1.515a6.172,6.172,0,0,1-6.875-4.25c-.114-.324-.124-.652-.593-.648-1.431.012-2.864,0-4.507,0,.665.633,1.19,1.081,1.655,1.586a4.855,4.855,0,0,1,1.131,5.269c-1.173,3.043-4.524,6.046-8.71,4.556-.555-.2-.789.007-1.111.361-1.117,1.23-2.04,2.658-3.58,3.462a6.092,6.092,0,0,1-4.952.434,1.009,1.009,0,0,0-1.3.37,13.7,13.7,0,0,1-3.384,3.358,6.492,6.492,0,0,1-3.194.835c-1.535.03-2.128-.649-2.09-2.306a2.249,2.249,0,0,1,2.154-1.072A2.892,2.892,0,0,0,111.1,60.6c.563-.635,1.09-1.3,1.674-1.919.357-.376.257-.6-.1-.882-.834-.665-1.647-1.357-2.47-2.038-.319-.3-.641-.6-.955-.909a1.713,1.713,0,0,1-.274-2.459,1.642,1.642,0,0,1,2.468-.059c1.257,1.03,2.464,2.118,3.7,3.173.335.286.7.54,1.048.809,1.553,1.563,3.272,1.566,4.737.009,2.066-2.2,2.067-2.2-.062-4.052-.277-.242-.571-.465-.857-.7-.551-.5-1.124-.97-1.65-1.491a1.681,1.681,0,0,1-.219-2.39,1.608,1.608,0,0,1,2.388-.124c1.7,1.381,3.348,2.816,5.018,4.229a2.39,2.39,0,0,0,.212.25q2.832,2.533,5.188-.221c1.473-1.717,1.307-2.5-.929-4.342a4.336,4.336,0,0,0-.365-.246q-7.036-6.1-14.073-12.2c-1.884-1.631-3.779-3.249-5.66-4.884a2.042,2.042,0,0,0-1.167-.556,15.609,15.609,0,0,1-8.071-3.485c-.6-.475-.9-.482-1.371.167-1.044,1.446-2.122,2.874-3.291,4.22a11.993,11.993,0,0,1-13.712,3.217,4.45,4.45,0,0,1-2.274-6.693C83.936,20.272,87.881,13.545,91.8,6.806a2.869,2.869,0,0,0,.134-.3,8.613,8.613,0,0,1,6.626-3.493c1.918-.106,3.825-.367,5.739-.548,1.351-.128,1.808.167,2.35,1.482" transform="translate(-43.865 0)" fill="#030303"/><path d="M45.2,5.752a1.837,1.837,0,0,1-2.468,1.085c-1.077-.281-2.138-.627-3.222-.875a2.966,2.966,0,0,0-3.693,1.7c-.742,1.37-1.461,2.755-2.125,4.164A2.129,2.129,0,0,1,31.307,13.2c-1.813-.173-3.638-.21-5.453-.361-.641-.054-.806.147-.881.766q-1.73,14.217-3.527,28.426c-.121.955.03,1.379,1.113,1.375,1.409,0,2.82.162,4.226.291a1.645,1.645,0,0,0,1.208-.415,5.8,5.8,0,0,1,8.738,2c.295.569.5.725,1.162.558a5.707,5.707,0,0,1,6.729,3.236c.246.535.408.688,1.039.557A5.761,5.761,0,0,1,52.353,53.5c.137.391.105.814.8.821,4.171.042,6.38,2.389,6.3,6.6a6.966,6.966,0,0,1-1.362,3.017c-.914,1.217-1.81,2.447-2.714,3.671a6.939,6.939,0,0,1-3.8,2.725,5.74,5.74,0,0,1-6.943-4.048c-.172-.593-.345-.867-1.085-.856a5.58,5.58,0,0,1-5.578-4.243c-.155-.57-.349-.744-.963-.747a5.751,5.751,0,0,1-5.731-4.39c-.109-.379-.152-.639-.672-.683-4.986-.428-7.084-3.545-5.639-8.447-1.334-.093-2.652-.164-3.965-.289-.51-.049-.716.244-.967.58a6.017,6.017,0,0,1-5.84,2.512c-4.136-.478-8.265-1.015-12.4-1.53C.8,48.07.085,47.628,0,46.549c-.07-.942.56-1.533,1.768-1.737l10.6,1.311c.626.077,1.253.15,1.877.237,2.409.336,3.568-.888,3.766-3.98q.741-5.912,1.481-11.824,1.39-11.162,2.768-22.325A2.807,2.807,0,0,0,19.748,4.9C15.478,4.341,11.2,3.85,6.926,3.333,5.708,2.75,5.295,2.054,5.607,1.113c.286-.862,1.1-1.23,2.3-1.079,3.981.5,7.962,1.012,11.947,1.477A6.171,6.171,0,0,1,25.6,8.49c-.078.8.088,1.04.874,1.056,1.262.025,2.525.126,3.784.24a.89.89,0,0,0,1.02-.6q.759-1.61,1.612-3.173A6.372,6.372,0,0,1,40.5,2.725c1.041.269,2.074.57,3.111.853A1.839,1.839,0,0,1,45.2,5.752M56.1,60.417a2.485,2.485,0,0,0-1.571-2.6,2.383,2.383,0,0,0-2.875.85c-1.143,1.413-2.242,2.864-3.3,4.339a2.494,2.494,0,1,0,3.995,2.952c1.058-1.339,2.073-2.712,3.1-4.079a2.657,2.657,0,0,0,.661-1.459M43.583,62.082a2.045,2.045,0,0,0,1.6-.642A32.938,32.938,0,0,0,49,56.379a2.409,2.409,0,0,0-3.806-2.842,26.455,26.455,0,0,0-3.82,5.052,2.366,2.366,0,0,0,2.209,3.493M41.76,51.437a2.415,2.415,0,0,0-1.407-2.21,2.183,2.183,0,0,0-2.672.383A19.485,19.485,0,0,0,34.694,53.6a2.352,2.352,0,0,0,.72,2.983,2.321,2.321,0,0,0,3.058-.12,19.555,19.555,0,0,0,3.076-4.054,1.781,1.781,0,0,0,.212-.969m-11.273.579a1.67,1.67,0,0,0,.563-.132,5.432,5.432,0,0,0,2.874-3.718,2.1,2.1,0,0,0-1.308-2.445,2.291,2.291,0,0,0-2.763.414,8.238,8.238,0,0,0-1.783,2.389,2.433,2.433,0,0,0,2.416,3.491" transform="translate(0 0)" fill="#040302"/><path d="M210.24,46.5q-1.37-11-2.74-21.993c-.486-3.905-.947-7.814-1.462-11.715-.3-2.266.643-3.548,2.92-3.826l12.38-1.512c.4,3.423.781,6.848,1.2,10.269.554,4.524,1.145,9.044,1.7,13.567.591,4.781,1.164,9.564,1.746,14.345-.483-.012-.979.132-1.428.109-.935-.047-1.852.725-2.784.062.133-.305.282-.6.4-.917a4.9,4.9,0,0,0-8.3-4.886c-1.769,2.028-1.614,4.56.423,6.931-1.437.656-2.73-.024-4.052-.436" transform="translate(-113.93 -4.126)" fill="#689be5"/><path d="M9.725,7.456C14,7.974,18.277,8.464,22.547,9.022a2.807,2.807,0,0,1,2.523,3.333Q23.708,23.521,22.3,34.68q-.737,5.912-1.481,11.824c-.419.112-.833.252-1.258.329a4.034,4.034,0,0,1-2.731-.127c.177-.237.363-.469.53-.714a4.91,4.91,0,1,0-8.234-.162c-1.367.151-2.7-.376-4.068-.2q1.093-8.879,2.188-17.759,1.065-8.605,2.134-17.21c.132-1.066.23-2.137.344-3.205" transform="translate(-2.799 -4.124)" fill="#da6075"/><path d="M4.456,92.832c1.368-.176,2.7.351,4.068.2,2.34,2.766,4.8,3.046,7.7.876a4.037,4.037,0,0,0,2.731.127c.425-.077.839-.218,1.258-.329-.2,3.093-1.357,4.315-3.766,3.98-.625-.087-1.252-.16-1.878-.237l-10.6-1.311q.245-1.652.488-3.3" transform="translate(-2.195 -51.325)" fill="#b9455f"/><path d="M215.507,93.759c1.322.412,2.615,1.091,4.052.436,2.963,1.894,5.233,1.551,7.484-1.128.933.663,1.849-.109,2.784-.062.449.022.945-.122,1.428-.109l.495,3.294c-3.905.474-7.812.938-11.715,1.425-3.306.413-4.372-.483-4.527-3.855" transform="translate(-119.197 -51.38)" fill="#467ec9"/><path d="M123.906,136.621c.9-1.225,1.8-2.454,2.714-3.671a6.966,6.966,0,0,0,1.362-3.017,5.069,5.069,0,0,0,4.221-2.047l2.675-3.112c.822.681,1.635,1.373,2.47,2.038.354.283.453.505.1.881-.584.615-1.111,1.283-1.674,1.919a2.894,2.894,0,0,1-2.33,1.075,2.247,2.247,0,0,0-2.153,1.072c-.7-.461-1.172-.176-1.649.418q-1.246,1.55-2.609,3a4.291,4.291,0,0,1-3.123,1.439" transform="translate(-68.533 -69.013)" fill="#d79f71"/><path d="M165.674,115.412c.286.231.58.454.857.7,2.128,1.856,2.127,1.856.061,4.053-1.465,1.557-3.184,1.553-4.737-.01-.024-.451.345-.59.614-.844a12.443,12.443,0,0,0,3.2-3.9" transform="translate(-89.522 -63.835)" fill="#d69e70"/><path d="M186.9,105.716c.122.081.252.153.365.245,2.235,1.843,2.4,2.626.929,4.342q-2.362,2.752-5.188.221a2.4,2.4,0,0,1-.212-.251c2.057-.9,3.707-2.165,4.107-4.557" transform="translate(-101.102 -58.472)" fill="#d69e70"/><path d="M193.417,80.854c.21,1.54.406,3.081.635,4.617.1.655-.234.732-.764.725-1.486-.02-2.973,0-4.459-.005a2.557,2.557,0,0,0-1.895.461c-.34.311-.588.136-.855-.1-.936-.843-1.879-1.679-2.82-2.519a4.9,4.9,0,0,0,.61-.48c1.7-1.826,3.949-2.1,6.257-2.256,1.1-.076,2.194-.289,3.29-.44" transform="translate(-101.361 -44.72)" fill="#c57e4d"/><path d="M115.191,131.737a2.657,2.657,0,0,1-.66,1.459c-1.022,1.367-2.037,2.739-3.1,4.079a2.494,2.494,0,1,1-3.995-2.952c1.063-1.475,2.162-2.926,3.3-4.339a2.383,2.383,0,0,1,2.875-.85,2.485,2.485,0,0,1,1.571,2.6" transform="translate(-59.093 -71.32)" fill="#e39f66"/><path d="M94.408,127.487a2.366,2.366,0,0,1-2.209-3.493,26.436,26.436,0,0,1,3.82-5.052,2.409,2.409,0,0,1,3.806,2.842,32.937,32.937,0,0,1-3.812,5.061,2.045,2.045,0,0,1-1.6.642" transform="translate(-50.824 -65.405)" fill="#e39f66"/><path d="M84.368,112.008a1.783,1.783,0,0,1-.211.969,19.584,19.584,0,0,1-3.076,4.054,2.32,2.32,0,0,1-3.058.12,2.351,2.351,0,0,1-.721-2.982,19.5,19.5,0,0,1,2.988-3.989,2.183,2.183,0,0,1,2.672-.382,2.414,2.414,0,0,1,1.407,2.21" transform="translate(-42.608 -60.572)" fill="#e39f66"/><path d="M64.919,108.251A2.433,2.433,0,0,1,62.5,104.76a8.238,8.238,0,0,1,1.783-2.389,2.291,2.291,0,0,1,2.763-.414,2.1,2.1,0,0,1,1.308,2.445,5.432,5.432,0,0,1-2.874,3.718,1.67,1.67,0,0,1-.563.132" transform="translate(-34.432 -56.236)" fill="#e39f66"/><path d="M230.019,84.011c-2.251,2.68-4.52,3.021-7.483,1.128-2.037-2.371-2.192-4.9-.424-6.93a4.9,4.9,0,0,1,8.3,4.885c-.114.312-.263.611-.4.917m-4.187-4.146a1.619,1.619,0,0,0-1.583,1.555,1.555,1.555,0,0,0,3.108.059,1.627,1.627,0,0,0-1.525-1.614" transform="translate(-122.173 -42.325)" fill="#020304"/><path d="M20.983,84.928c-2.905,2.169-5.363,1.89-7.7-.876a4.921,4.921,0,1,1,8.234.162c-.167.244-.353.476-.531.714m-1.976-3.457a1.587,1.587,0,0,0-1.537-1.587,1.648,1.648,0,0,0-1.564,1.585,1.594,1.594,0,0,0,1.507,1.5,1.526,1.526,0,0,0,1.594-1.5" transform="translate(-6.95 -42.345)" fill="#030202"/><path d="M229.99,84a1.627,1.627,0,0,1,1.525,1.614,1.555,1.555,0,0,1-3.108-.059A1.619,1.619,0,0,1,229.99,84" transform="translate(-126.332 -46.461)" fill="#e1e4e7"/><path d="M23.14,85.586a1.526,1.526,0,0,1-1.594,1.5,1.594,1.594,0,0,1-1.507-1.5A1.648,1.648,0,0,1,21.6,84a1.587,1.587,0,0,1,1.537,1.587" transform="translate(-11.083 -46.46)" fill="#e1e4e7"/></g></g></g></g></svg>