<svg xmlns="http://www.w3.org/2000/svg" xmlns:xlink="http://www.w3.org/1999/xlink" width="65" height="65" viewBox="0 0 65 65">
  <defs>
    <clipPath id="clip-path">
      <rect id="Rectángulo_313029" data-name="Rectángulo 313029" width="59.584" height="59.617" fill="none"/>
    </clipPath>
  </defs>
  <g id="Grupo_996357" data-name="Grupo 996357" transform="translate(-370 -6292)">
    <circle id="Elipse_8222" data-name="Elipse 8222" cx="32.5" cy="32.5" r="32.5" transform="translate(370 6292)" fill="#ffd357"/>
    <g id="Grupo_996356" data-name="Grupo 996356" transform="translate(372.708 6294.691)">
      <g id="Grupo_996355" data-name="Grupo 996355" clip-path="url(#clip-path)">
        <path id="Trazado_660717" data-name="Trazado 660717" d="M18.208,47.983c-2.289,0-4.578,0-6.868,0a3.5,3.5,0,1,0,.006,6.981q5.529.006,11.058,0a4.446,4.446,0,0,1,.523.011,1.161,1.161,0,0,1,.023,2.306,2.007,2.007,0,0,1-.29.012c-3.861,0-7.721.025-11.582-.009A5.814,5.814,0,0,1,11.2,45.659c4.617-.018,9.234,0,13.851-.008a3.487,3.487,0,0,0,3.566-3.569,3.452,3.452,0,0,0-3.317-3.4c-2.968-.041-5.936-.005-8.9-.026-.36,0-.391.226-.5.438a3.445,3.445,0,0,1-3.4,1.883,3.481,3.481,0,0,1-1.835-6.221c.283-.218.313-.348.132-.642C7.871,29.346,5,24.544,2.039,19.8a12.809,12.809,0,1,1,23.34-9.3,12.939,12.939,0,0,1-1.836,9.29c-2.931,4.765-5.828,9.551-8.748,14.322-.176.287-.189.446.123.644a2.371,2.371,0,0,1,.928,1.1.732.732,0,0,0,.823.5c2.852-.022,5.7-.036,8.555,0a5.811,5.811,0,0,1,.086,11.619c-2.366.043-4.734.009-7.1.009ZM12.777,32.912c.1-.141.151-.2.191-.264q4.449-7.293,8.892-14.59a9.887,9.887,0,0,0,1.388-4.572A10.473,10.473,0,1,0,3.842,18.27q2.868,4.683,5.719,9.377c1.057,1.733,2.117,3.465,3.216,5.264m.011,5.756a1.162,1.162,0,1,0-1.16-1.192,1.175,1.175,0,0,0,1.16,1.192" transform="translate(0 0)" fill="#020202"/>
        <path id="Trazado_660718" data-name="Trazado 660718" d="M143.826,118.513c1.591,0,3.182-.014,4.772.01a.614.614,0,0,0,.682-.441,2.436,2.436,0,0,1,.91-1.112c.355-.229.312-.4.107-.724-2.943-4.6-5.912-9.18-8.8-13.816a12.8,12.8,0,1,1,23.582-8.23,12.545,12.545,0,0,1-1.892,8.327q-4.331,6.847-8.709,13.665c-.213.333-.271.508.1.819a3.32,3.32,0,0,1,1.131,3.657,3.442,3.442,0,0,1-2.994,2.481,3.31,3.31,0,0,1-3.382-1.79.881.881,0,0,0-.928-.528c-3.123.022-6.246.014-9.369.01a1.187,1.187,0,0,1-1.338-1.139,1.173,1.173,0,0,1,1.29-1.186c1.61-.008,3.22,0,4.83,0m8.527-3.365c.089-.108.13-.148.16-.195,2.957-4.64,5.976-9.241,8.853-13.93a10.443,10.443,0,0,0-8.324-15.77,10.475,10.475,0,0,0-9.549,15.967c1.281,2.145,2.671,4.224,4.014,6.332,1.6,2.514,3.206,5.027,4.845,7.6m-.006,5.69a1.162,1.162,0,1,0-1.136-1.216,1.176,1.176,0,0,0,1.136,1.216" transform="translate(-105.587 -63.547)" fill="#030202"/>
        <path id="Trazado_660719" data-name="Trazado 660719" d="M117.565,236.828a1.162,1.162,0,1,1-1.138-1.158,1.172,1.172,0,0,1,1.138,1.158" transform="translate(-88.361 -180.702)" fill="#070707"/>
        <path id="Trazado_660720" data-name="Trazado 660720" d="M20.355,40.677c-1.1-1.8-2.159-3.531-3.216-5.264q-2.86-4.688-5.72-9.377A10.473,10.473,0,1,1,30.825,21.25a9.887,9.887,0,0,1-1.388,4.572q-4.431,7.3-8.892,14.59c-.039.065-.088.123-.191.264m5.834-20.063a5.821,5.821,0,1,0-5.828,5.8,5.838,5.838,0,0,0,5.828-5.8" transform="translate(-7.578 -7.766)" fill="#fde395"/>
        <path id="Trazado_660721" data-name="Trazado 660721" d="M51.012,158.144a1.162,1.162,0,1,1,1.163-1.131,1.173,1.173,0,0,1-1.163,1.131" transform="translate(-38.225 -119.477)" fill="#fff9e8"/>
        <path id="Trazado_660722" data-name="Trazado 660722" d="M165.941,122.9c-1.639-2.569-3.243-5.081-4.845-7.6-1.343-2.108-2.734-4.187-4.014-6.332A10.475,10.475,0,0,1,166.631,93a10.442,10.442,0,0,1,8.324,15.77c-2.878,4.688-5.9,9.29-8.854,13.93-.03.047-.07.087-.16.195m.039-13.631a5.82,5.82,0,1,0-5.84-5.787,5.838,5.838,0,0,0,5.84,5.787" transform="translate(-119.175 -71.298)" fill="#fde395"/>
        <path id="Trazado_660723" data-name="Trazado 660723" d="M196.741,238a1.162,1.162,0,1,1,1.186-1.108A1.173,1.173,0,0,1,196.741,238" transform="translate(-149.981 -180.705)" fill="#fff9e8"/>
        <path id="Trazado_660724" data-name="Trazado 660724" d="M41.52,35.885a5.821,5.821,0,1,1-5.785-5.841,5.839,5.839,0,0,1,5.785,5.841M35.7,39.354a3.491,3.491,0,1,0-3.489-3.464A3.5,3.5,0,0,0,35.7,39.354" transform="translate(-22.909 -23.036)" fill="#030202"/>
        <path id="Trazado_660725" data-name="Trazado 660725" d="M181.472,124.531a5.82,5.82,0,1,1,5.8-5.825,5.843,5.843,0,0,1-5.8,5.825m-.028-9.311a3.491,3.491,0,1,0,3.5,3.511,3.5,3.5,0,0,0-3.5-3.511" transform="translate(-134.667 -86.56)" fill="#030202"/>
        <path id="Trazado_660726" data-name="Trazado 660726" d="M43.356,47.012a3.491,3.491,0,1,1,3.493-3.461,3.5,3.5,0,0,1-3.493,3.461" transform="translate(-30.568 -30.694)" fill="#f5f7f8"/>
        <path id="Trazado_660727" data-name="Trazado 660727" d="M189.1,122.878a3.491,3.491,0,1,1-3.483,3.469,3.5,3.5,0,0,1,3.483-3.469" transform="translate(-142.326 -94.218)" fill="#f5f7f8"/>
      </g>
    </g>
  </g>
</svg>
