<svg xmlns="http://www.w3.org/2000/svg" xmlns:xlink="http://www.w3.org/1999/xlink" width="114.333" height="114.333" viewBox="0 0 114.333 114.333"><defs><clipPath id="a"><rect width="114.333" height="99.174" fill="none"/></clipPath></defs><g transform="translate(-550.333 -9094.958)"><g transform="translate(366.333 7958.958)"><g transform="translate(184 1136)"><circle cx="57.167" cy="57.167" r="57.167" transform="translate(0 0)" fill="#ffd357"/></g><g transform="translate(184 1143.58)"><g clip-path="url(#a)"><path d="M110.459,37.624a1.776,1.776,0,0,1,1.4,2.251c-.288,1.909-.543,3.824-.847,5.73a1.4,1.4,0,0,0,.61,1.578,6.544,6.544,0,0,1-.556,10.971,4.217,4.217,0,0,0-2.36,3.921,18.619,18.619,0,0,1-.547,3.4,10.145,10.145,0,0,1-4.937,6.456q-7.388,4.224-14.817,8.378c-.639.357-.959.717-.865,1.46a7.55,7.55,0,0,1,.005,1.559c-.122,1.453-.165,2.706,1.665,3.339a2.956,2.956,0,0,1,1.681,2.935c.033,1.97.052,3.942-.006,5.911a3.783,3.783,0,0,1-3.649,3.648c-.3.015-.595.008-.892.008H28c-3.147,0-4.575-1.414-4.58-4.532,0-1.6-.021-3.2.009-4.8a3.71,3.71,0,0,1,2.647-3.712c.542-.192.742-.411.716-1-.061-1.408.382-3.025-.173-4.174s-2.281-1.511-3.5-2.209c-3.442-1.975-6.826-4.07-10.371-5.841-4.4-2.2-6.791-5.6-7.115-10.481-.01-.148-.034-.3-.038-.444a3.993,3.993,0,0,0-2.317-3.82,6.539,6.539,0,0,1-.5-11.031,1.261,1.261,0,0,0,.557-1.394Q1.916,36.1.517,26.449C-.089,22.28,2.1,19.157,5.931,18.711a6,6,0,0,1,6.336,3.911c.933,2.773,1.673,5.612,2.451,8.434A1.706,1.706,0,0,1,13.589,33.2c-1.36.028-1.815-.282-2.179-1.547-.685-2.384-1.351-4.772-2.03-7.158a2.739,2.739,0,0,0-1.705-2.159,2.716,2.716,0,0,0-3.916,2.68,13.482,13.482,0,0,0,.154,1.44C4.779,32.485,5.66,38.511,6.5,44.543c.112.8.227,1.369,1.253,1.366a5.631,5.631,0,0,1,2.214.7c2.084.928,4.177,1.836,6.457,2.835a36.074,36.074,0,0,0-1.209-4.089c-.49-1.813-.945-3.637-1.482-5.437a2.067,2.067,0,0,1,.822-2.6c1.648-.049,1.991.2,2.441,1.783.719,2.523,1.44,5.045,2.385,7.56,0-.3,0-.59,0-.885q.012-6.86.025-13.719c.01-6.5,4.375-11,10.892-11.151.861-.019,1.013-.252,1.023-1.052a7.282,7.282,0,0,0-1.034-4.071A11.958,11.958,0,0,1,28.818,5.738C30.628.027,36.93-.975,40.981.791c.977.426,1.165,1.223.744,2.56a2.307,2.307,0,0,1-2.466.371c-3.652-1.237-7.118.6-7.5,3.981a10.163,10.163,0,0,0,2.69,8.206c1.747,1.937,3.574,1.914,5.328-.023a10.55,10.55,0,0,0,2.772-6.874,1.952,1.952,0,0,1,1.471-2.08c1.476.221,1.941.766,1.876,2.21a14.207,14.207,0,0,1-2.33,7.334c-.881,1.327-.355,2.734-.482,4.1-.037.4.354.3.587.3a11.021,11.021,0,0,1,7.26,2.355c.274.221.471.268.764.028A8.987,8.987,0,0,1,64.809,25.7c.027.045.124.047.284.1q1.4-5.2,2.785-10.38c.3-1.11.577-2.226.9-3.328a9.867,9.867,0,0,1,19.158.179c1.4,5.269,2.7,10.562,4.036,15.847a18.208,18.208,0,0,0,1.9,5.3,9.115,9.115,0,0,1,1.081,4.943c-.018,2.751,0,5.5,0,8.272.418-.051.338-.409.408-.654q3.229-11.337,6.454-22.676a6.164,6.164,0,0,1,11.916-.11,5.437,5.437,0,0,1,.178,2.207c-.258,1.989-.515,3.978-.819,5.96-.223,1.453-.628,1.784-2.118,1.919a2.019,2.019,0,0,1-1.2-2.442c.341-1.861.572-3.744.777-5.625a2.483,2.483,0,0,0-1.6-2.853c-1.911-.772-3.4.029-4.007,2.174q-3.4,11.992-6.795,23.987c-.075.263-.288.526-.025.818,2.491-1.075,4.893-2.521,7.487-3.1,2-.447,2.323-1.424,2.4-3,.016-.333.034-.666.052-1,.151-.9.317-1.79.449-2.689.2-1.329.589-1.73,1.947-1.919M68.128,28.2a14.613,14.613,0,0,1,3.6-.521c.254.015.594,0,.611-.329.044-.84.336-1.794-.126-2.5A30.86,30.86,0,0,1,69.8,21.141c-.583,2.534-1.4,4.7-1.735,7l-.074.138.134-.077m-34.4,61.118c-2.008-.011-4.015-.012-6.023-.039-.664-.009-.935.267-.926.933q.035,2.342,0,4.685c-.009.668.263.934.929.924,2.007-.032,4.015-.032,6.022-.044,5.828.013,11.656.02,17.484.049.7,0,.9-.312.891-.947-.019-1.485-.043-2.971.009-4.454.03-.863-.254-1.186-1.143-1.165-2.115.051-4.232.02-6.348.015-1.64,0-2.088-.372-2.426-1.97a2.141,2.141,0,0,1,2.37-1.417c1.149.063,2.3-.012,3.456.024.591.018.768-.2.764-.775-.041-4.534.083-9.074-.116-13.6A12.844,12.844,0,0,0,37.769,59.848c-4.014-.5-8.054-.791-11.807-2.519-2.559-1.178-5.149-2.287-7.727-3.423-3.324-1.464-6.643-2.941-9.979-4.378a3.362,3.362,0,0,0-4.8,2.267,3.435,3.435,0,0,0,2,3.836c4.878,2.674,9.755,5.351,14.658,7.978A2.079,2.079,0,0,1,21.432,66.1c-1,1.128-1.512,1.217-2.881.482-1.269-.681-2.532-1.371-3.8-2.058-1.9-1.035-3.8-2.071-5.806-3.162a11.291,11.291,0,0,0,.413,2.748,6.855,6.855,0,0,0,3.808,5.147q7.688,4.338,15.374,8.681a3.037,3.037,0,0,1,1.532,1.375c.018,1.14.05,2.281.053,3.422.007,3.356,0,3.357,3.408,3.152a1.008,1.008,0,0,0,.212-.062c.694.024,1.389.073,2.083.066a1.775,1.775,0,0,1,1.965,1.389c-.121,1.457-.646,1.96-2.074,1.989l-1.989.042m35.5-3.485c4.8.022,9.59.039,14.386.076.544,0,.591-.276.587-.7-.012-1.525.057-3.053-.023-4.574a2.6,2.6,0,0,1,1.546-2.673c5.194-2.879,10.355-5.817,15.521-8.747a6.779,6.779,0,0,0,3.724-5.1,10.783,10.783,0,0,0,.405-2.613,2.486,2.486,0,0,0-1.131.489c-2.825,1.527-5.641,3.069-8.465,4.6-1.37.743-1.88.65-2.881-.482a2.069,2.069,0,0,1,1.319-2.488c4.772-2.551,9.508-5.166,14.257-7.759.228-.124.459-.242.681-.377a3.35,3.35,0,0,0-2.963-6.007c-4.959,2.157-9.934,4.281-14.835,6.565A36.911,36.911,0,0,1,77.6,59.7a11.333,11.333,0,0,0-7.735,3.445,11.971,11.971,0,0,0-4.239,8.615c-.154,3.624-.073,7.259-.082,10.889-.009,3.444,0,3.445,3.479,3.241a1.015,1.015,0,0,0,.213-.06m-28.1-28.64c0-1.961-.006-3.816,0-5.672a10.671,10.671,0,0,1,2.253-6.734,1.95,1.95,0,0,0,.419-1.323c-.012-2.23-.018-4.461,0-6.692a3.842,3.842,0,0,1,3.749-4.143c.76-.058.726-.391.643-.92a8.341,8.341,0,0,1,.7-4.888.787.787,0,0,0-.293-1.182,8.435,8.435,0,0,0-5.281-1.415c-.422.008-.544.244-.689.58a5.857,5.857,0,0,1-10.9.023c-.139-.321-.248-.55-.672-.61a7.487,7.487,0,0,0-8.282,6.778c-.086,1.6-.086,1.6,1.549,1.6.558,0,1.115,0,1.673,0,3.069.01,4.552,1.508,4.554,4.609,0,5.688.028,11.376-.032,17.063-.01.973.326,1.234,1.195,1.418,3.087.653,6.3.433,9.413,1.508m32.023-3.677c0,.893.042,1.788-.013,2.677-.047.772.082,1.08.949.768a11.79,11.79,0,0,1,2.283-.476,62.585,62.585,0,0,0,7.275-1.044.971.971,0,0,0,.873-1.142c-.037-2.417,0-4.835-.017-7.253a8.974,8.974,0,0,1,4.308-8.067c.747-.485,1.461-1.024,2.219-1.494a.856.856,0,0,0,.4-1.113A7.1,7.1,0,0,0,84.717,31a.9.9,0,0,0-1.006.62,5.842,5.842,0,0,1-10.843-.027.82.82,0,0,0-.9-.593,7.1,7.1,0,0,0-6.337,3.489,27.569,27.569,0,0,1-2.682,4.089c-.473.527-.274,1.23-.167,1.814.092.508.69.248,1.057.3a10.756,10.756,0,0,1,8.98,8.059,20.23,20.23,0,0,1,.337,4.769M57.148,65.835c1.673,0,3.347-.051,5.017.02.918.039,1.21-.219,1.191-1.165-.06-2.972-.037-5.946-.017-8.92a4.039,4.039,0,0,1,4.368-4.381,10.017,10.017,0,0,1,1.226.008c.721.084.864-.2.8-.889a7.5,7.5,0,0,0-6.267-6.488c-.67-.08-.939.146-1.2.764a5.245,5.245,0,0,1-5.112,3.455,5.178,5.178,0,0,1-5.111-3.44,1.049,1.049,0,0,0-1.417-.743A7.235,7.235,0,0,0,44.8,49.265c-.647,2.094-.608,2.119,1.575,2.124h.111c2.861.013,4.457,1.617,4.464,4.508.008,2.936.043,5.873-.021,8.808-.021.965.3,1.186,1.2,1.15,1.67-.067,3.344-.019,5.017-.019M52.132,77.549c0,2.716.035,4.982-.018,7.245-.02.848.172,1.157,1.092,1.133,2.6-.067,5.2-.074,7.8,0,1,.029,1.211-.258,1.228-1.231.087-5.006-.355-10.022.278-15.016.053-.422-.122-.506-.488-.506q-4.846.011-9.691,0c-.474,0-.568.184-.488.605.519,2.725.184,5.481.291,7.77M74.8,95.8v.012c3.866,0,7.733-.02,11.6.015.864.008,1.2-.258,1.169-1.148-.056-1.448-.04-2.9,0-4.348.018-.746-.223-1.076-1.017-1.074q-11.654.033-23.309.013c-.812,0-1.018.335-1,1.07.036,1.411.066,2.828-.008,4.237-.054,1.021.366,1.252,1.307,1.241,3.754-.043,7.509-.018,11.264-.018M62.791,31.02c0-3.481-2.241-6.01-5.107-6.224a5.535,5.535,0,0,0-6.13,4.875A7.949,7.949,0,0,0,55,37.3a3.46,3.46,0,0,0,4.442-.121,8.374,8.374,0,0,0,3.345-6.155M27.2,45.222h0c0-2.712-.022-5.423.013-8.134.011-.866-.29-1.222-1.168-1.158a13.682,13.682,0,0,1-2.227,0c-.846-.078-1.133.163-1.119,1.074.056,3.825.019,7.652.026,11.477,0,1.223-.363,2.672.166,3.607.56.991,2.192,1.061,3.279,1.681,1,.568,1.048.1,1.038-.744-.033-2.6-.012-5.2-.012-7.8M78.35,24.372a4.309,4.309,0,0,0,2.281-.749,10.414,10.414,0,0,0,3.956-5.877c.192-.617-.163-.661-.645-.654a7.513,7.513,0,0,1-4.789-1.5,1.207,1.207,0,0,0-1.624-.01,7.341,7.341,0,0,1-4.784,1.511c-.76-.021-.778.31-.6.871A11.284,11.284,0,0,0,74.99,22.8a5.007,5.007,0,0,0,3.36,1.575m.035-16.323a6.647,6.647,0,0,0-6.294,4.63c-.323.926-.017,1.091.819,1.055a4.806,4.806,0,0,0,2.61-.831,4.346,4.346,0,0,1,5.566-.034,4.913,4.913,0,0,0,3.048.861c.554-.018.676-.171.535-.736a6.684,6.684,0,0,0-6.284-4.945M91.6,41.239c-2.134,1.131-3.587,2.563-3.678,4.92-.088,2.3-.026,4.6-.055,6.9-.009.693.261.732.8.473a21.4,21.4,0,0,1,2.136-.936,1.085,1.085,0,0,0,.813-1.232c-.041-2.188-.015-4.377-.015-6.565V41.239M34.652,20.252c0,.888-.037,1.666.008,2.44a2.517,2.517,0,0,0,5.034.063c.064-.834.012-1.677.012-2.623a6.973,6.973,0,0,1-5.054.121M55.5,92.609v.666c0,2.747,0,2.734,2.751,2.558.466-.03.617-.119.6-.627-.054-1.256-.021-2.516-.022-3.774,0-2.183,0-2.146-2.14-2.2-.887-.021-1.391.072-1.208,1.159a13.54,13.54,0,0,1,.023,2.217M80.8,27.316a8.543,8.543,0,0,1-3.286.372c-.563-.068-1.333-.565-1.618-.181-.307.413-.1,1.208-.111,1.837a2.282,2.282,0,0,0,.059.44,2.486,2.486,0,0,0,4.947-.229c.052-.7.009-1.406.009-2.239M47.147,38.879c0,.7.016,1.41-.006,2.113-.016.508.107.667.633.441a9.132,9.132,0,0,1,3.334-.767c.311-.009.441-.121.488-.449.1-.7-1.56-3.959-2.21-4.237a1.222,1.222,0,0,0-.328-.039c-1.728-.2-1.911-.039-1.912,1.713q0,.612,0,1.224M66.68,61.362a9.959,9.959,0,0,1,1.528-1.319c1.4-.745,1.712-1.87,1.625-3.372-.125-2.13-.03-2.121-2.25-1.942-.591.048-.9.287-.9.878,0,1.844,0,3.689,0,5.754M86.8,21.411a16.272,16.272,0,0,1-2.1,3.023c-.894.883-.586,1.986-.417,2.936.113.63,1.035.21,1.58.342.611.148,1.236.24,1.845.4.668.174.8-.09.65-.681-.5-1.935-1-3.872-1.553-6.018M47.6,61.319c0-2.071,0-3.94,0-5.808a.669.669,0,0,0-.761-.752c-.777.071-1.6-.3-2.329.22-.039.028-.023.142-.022.215.036,1.837-.577,3.888,1.753,4.941A7.08,7.08,0,0,1,47.6,61.319m7.36-20.257a16.149,16.149,0,0,0,.015,1.924,2.1,2.1,0,0,0,1.456,1.79,2.061,2.061,0,0,0,2.082-.36,3.408,3.408,0,0,0,.858-3.069c-.113-.316-.317-.269-.517-.211a7.675,7.675,0,0,1-3.895-.075" transform="translate(0 0)" fill="#040303"/><path d="M83.3,11.066a1.952,1.952,0,0,0-1.471,2.08,10.554,10.554,0,0,1-2.772,6.874c-1.755,1.937-3.581,1.961-5.328.023a10.162,10.162,0,0,1-2.69-8.206c.38-3.383,3.847-5.218,7.5-3.981a2.306,2.306,0,0,0,2.465-.372,4.6,4.6,0,0,1,2.3,3.582" transform="translate(-39.281 -4.134)" fill="#f0b5a6"/><path d="M16.859,50.021a2.74,2.74,0,0,1,1.706,2.159c.679,2.385,1.344,4.775,2.03,7.158.363,1.265.819,1.575,2.179,1.547A21.126,21.126,0,0,1,23.743,65a2.067,2.067,0,0,0-.822,2.6c.537,1.8.992,3.623,1.482,5.437-1.419-.632-2.843-1.255-4.256-1.9-.513-.234-1.014-.545-1.094-1.163-.392-3.029-.755-6.062-1.136-9.093-.349-2.774-.774-5.541-1.023-8.324-.074-.823-.618-1.691-.035-2.537" transform="translate(-9.184 -27.685)" fill="#f4c7b7"/><path d="M237.3,50.06a2.484,2.484,0,0,1,1.6,2.854c-.205,1.881-.437,3.765-.778,5.625a2.02,2.02,0,0,0,1.2,2.442c.017,1.472-.4,2.893-.515,4.35-1.358.188-1.752.589-1.947,1.918-.132.9-.3,1.793-.449,2.689a8.387,8.387,0,0,0-2.5.43c-.569.161-1.207.5-1.7.067-.535-.473-.274-1.161-.1-1.773q2.6-9.3,5.192-18.6" transform="translate(-128.345 -27.707)" fill="#f4c7b7"/><path d="M25.6,127.079a2.079,2.079,0,0,0-1.322-2.495c-4.9-2.627-9.78-5.3-14.658-7.978a3.434,3.434,0,0,1-2-3.836,3.362,3.362,0,0,1,4.8-2.267c3.336,1.437,6.655,2.914,9.979,4.378,2.578,1.135,5.169,2.244,7.727,3.423,3.753,1.729,7.793,2.022,11.807,2.519a12.842,12.842,0,0,1,10.906,11.686c.2,4.526.075,9.067.116,13.6.005.575-.172.793-.764.775-1.151-.036-2.307.038-3.456-.024a2.14,2.14,0,0,0-2.37,1.417l-4.409-.018A1.775,1.775,0,0,0,40,146.87c-.694.008-1.389-.042-2.083-.066,0-1.4-.006-2.8-.016-4.205a2.242,2.242,0,0,0-1.582-2.159,4.764,4.764,0,0,0-2.075-.149,3.035,3.035,0,0,0-1.531-1.375q-7.688-4.338-15.374-8.681a6.854,6.854,0,0,1-3.808-5.147,15.378,15.378,0,0,1,3.445,1.749c2.265,1.172,4.474,2.453,6.739,3.623a1.931,1.931,0,0,0,2.656-1.084,1.639,1.639,0,0,0-.769-2.3" transform="translate(-4.172 -60.976)" fill="#f4c7b7"/><path d="M190.7,125.055a6.779,6.779,0,0,1-3.724,5.1c-5.165,2.93-10.327,5.867-15.52,8.746a2.6,2.6,0,0,0-1.546,2.673c.079,1.52.011,3.049.023,4.574,0,.423-.043.7-.587.7-4.8-.037-9.59-.054-14.386-.076,0-.444-.028-.889-.012-1.333.262-7.116-.627-14.266.641-21.352a11.333,11.333,0,0,1,7.735-3.445,36.906,36.906,0,0,0,13.764-3.664c4.9-2.284,9.876-4.408,14.835-6.565a3.35,3.35,0,0,1,2.963,6.007c-.221.135-.453.253-.681.377-4.749,2.593-9.486,5.209-14.257,7.76a2.068,2.068,0,0,0-1.319,2.488c-.664.065-.819.576-.9,1.1a2.062,2.062,0,0,0,.9,2.129,1.883,1.883,0,0,0,2.092.086c3.358-1.712,6.554-3.73,9.985-5.3" transform="translate(-85.724 -60.944)" fill="#f4c8b8"/><path d="M69.33,87.128c-3.112-1.075-6.326-.855-9.413-1.509-.869-.184-1.205-.444-1.195-1.418.06-5.687.033-11.375.032-17.063,0-3.1-1.485-4.6-4.554-4.609-.558,0-1.115,0-1.673,0-1.636,0-1.636,0-1.549-1.6a7.486,7.486,0,0,1,8.282-6.777c.424.06.532.289.672.61a5.857,5.857,0,0,0,10.9-.023c.145-.337.268-.572.689-.58A8.435,8.435,0,0,1,76.8,55.575a.787.787,0,0,1,.293,1.182,8.342,8.342,0,0,0-.7,4.888c.083.529.117.861-.643.92A3.843,3.843,0,0,0,72,66.708c-.017,2.23-.011,4.461,0,6.692a1.951,1.951,0,0,1-.419,1.323,10.67,10.67,0,0,0-2.253,6.734c-.008,1.855,0,3.711,0,5.672" transform="translate(-28.199 -29.937)" fill="#c5eea2"/><path d="M150.808,91.935a20.281,20.281,0,0,0-.338-4.769,10.756,10.756,0,0,0-8.98-8.059c-.367-.049-.964.212-1.057-.3-.107-.584-.305-1.287.167-1.813a27.536,27.536,0,0,0,2.682-4.09,7.094,7.094,0,0,1,6.337-3.488.82.82,0,0,1,.9.593,5.842,5.842,0,0,0,10.843.026.9.9,0,0,1,1.006-.62,7.1,7.1,0,0,1,6.713,5.374.856.856,0,0,1-.4,1.113c-.757.469-1.471,1.008-2.219,1.493a8.974,8.974,0,0,0-4.308,8.067c.015,2.417-.02,4.836.017,7.253a.971.971,0,0,1-.872,1.142,62.513,62.513,0,0,1-7.276,1.044,11.756,11.756,0,0,0-2.283.476c-.867.312-1,0-.949-.768.054-.889.012-1.785.014-2.677" transform="translate(-77.652 -38.422)" fill="#f4cd8d"/><path d="M112.229,120.374c-1.673,0-3.347-.048-5.017.019-.9.037-1.221-.184-1.2-1.15.065-2.935.03-5.872.022-8.808-.008-2.891-1.6-4.495-4.464-4.508h-.112c-2.183-.005-2.222-.03-1.575-2.124a7.235,7.235,0,0,1,5.825-5.209,1.048,1.048,0,0,1,1.417.743,5.178,5.178,0,0,0,5.111,3.44,5.245,5.245,0,0,0,5.112-3.455c.263-.618.532-.844,1.2-.764a7.5,7.5,0,0,1,6.267,6.488c.061.686-.082.973-.8.889a10.015,10.015,0,0,0-1.226-.008,4.039,4.039,0,0,0-4.368,4.381c-.02,2.973-.043,5.948.017,8.92.019.946-.273,1.2-1.191,1.165-1.67-.071-3.344-.02-5.017-.02" transform="translate(-55.081 -54.54)" fill="#e37d6e"/><path d="M116.359,163.29c-.108-2.289.228-5.046-.291-7.77-.08-.422.014-.607.488-.605q4.845.021,9.691,0c.366,0,.541.084.488.505-.633,4.994-.191,10.011-.278,15.016-.017.973-.231,1.26-1.227,1.231-2.6-.076-5.2-.07-7.8,0-.92.024-1.112-.285-1.092-1.133.054-2.263.018-4.529.018-7.245" transform="translate(-64.227 -85.741)" fill="#b5d3f3"/><path d="M151.927,206.447c-3.755,0-7.51-.025-11.264.018-.941.011-1.36-.22-1.307-1.241.074-1.409.044-2.825.008-4.237-.019-.735.187-1.072,1-1.07q11.654.025,23.309-.013c.794,0,1.035.328,1.017,1.074-.034,1.449-.05,2.9,0,4.348.034.889-.3,1.155-1.169,1.148-3.866-.035-7.732-.015-11.6-.015Z" transform="translate(-77.128 -110.643)" fill="#6f6d6c"/><path d="M79.6,195.475l4.409.018c.338,1.6.785,1.966,2.425,1.97,2.116,0,4.233.036,6.348-.015.889-.021,1.173.3,1.143,1.165-.052,1.483-.029,2.97-.009,4.455.008.634-.191.95-.891.947-5.828-.029-11.656-.035-17.484-.049q0-3.23,0-6.459l1.989-.042c1.428-.03,1.952-.532,2.074-1.989" transform="translate(-41.811 -108.191)" fill="#716f6e"/><path d="M126.618,61.731a8.374,8.374,0,0,1-3.345,6.155,3.46,3.46,0,0,1-4.442.121,7.949,7.949,0,0,1-3.45-7.625,5.535,5.535,0,0,1,6.13-4.875c2.866.214,5.111,2.743,5.107,6.224" transform="translate(-63.826 -30.712)" fill="#f6dacf"/><path d="M230.424,49.7q-2.595,9.3-5.192,18.6c-.171.613-.433,1.3.1,1.773.49.434,1.128.094,1.7-.067a8.387,8.387,0,0,1,2.5-.43c-.017.333-.036.666-.052,1-.075,1.578-.4,2.555-2.4,3-2.595.579-5,2.024-7.487,3.1-.264-.292-.05-.556.025-.819q3.4-11.994,6.795-23.987c.609-2.145,2.1-2.946,4.007-2.174" transform="translate(-121.472 -27.35)" fill="#f0b5a6"/><path d="M12.332,49.718c-.583.846-.038,1.714.035,2.537.249,2.783.673,5.55,1.023,8.324.381,3.031.744,6.064,1.136,9.093.08.618.581.928,1.094,1.163,1.413.645,2.837,1.269,4.256,1.9a36.066,36.066,0,0,1,1.209,4.088c-2.279-1-4.372-1.907-6.457-2.835a5.623,5.623,0,0,0-2.214-.7c-1.025,0-1.14-.564-1.253-1.366-.843-6.031-1.725-12.057-2.591-18.086a13.611,13.611,0,0,1-.154-1.44,2.715,2.715,0,0,1,3.916-2.68" transform="translate(-4.656 -27.382)" fill="#f0b5a6"/><path d="M55.231,89.737c0,2.6-.021,5.2.012,7.8.011.839-.042,1.312-1.038.744-1.087-.619-2.719-.689-3.279-1.68-.529-.935-.164-2.384-.166-3.607-.008-3.826.029-7.652-.026-11.477-.013-.911.274-1.152,1.12-1.074a13.575,13.575,0,0,0,2.226,0c.878-.064,1.179.292,1.168,1.158-.036,2.711-.013,5.423-.013,8.134Z" transform="translate(-28.027 -44.515)" fill="#edb3a4"/><path d="M151.086,141.416c-1.269,7.085-.38,14.236-.641,21.352-.016.443.007.888.012,1.332a1.014,1.014,0,0,1-.213.061c-3.48.2-3.487.2-3.478-3.241.009-3.63-.072-7.265.082-10.89a11.973,11.973,0,0,1,4.239-8.614" transform="translate(-81.224 -78.27)" fill="#edb3a4"/><path d="M167.661,43.3a5.008,5.008,0,0,1-3.359-1.575,11.281,11.281,0,0,1-2.846-4.838c-.177-.56-.159-.892.6-.871A7.34,7.34,0,0,0,166.84,34.5a1.207,1.207,0,0,1,1.624.01,7.516,7.516,0,0,0,4.789,1.5c.483-.007.837.037.645.654a10.411,10.411,0,0,1-3.956,5.877,4.3,4.3,0,0,1-2.281.749" transform="translate(-89.311 -18.925)" fill="#d88f7a"/><path d="M167.587,18.025a6.684,6.684,0,0,1,6.284,4.945c.142.565.02.718-.535.737a4.909,4.909,0,0,1-3.047-.861,4.347,4.347,0,0,0-5.567.035,4.809,4.809,0,0,1-2.61.83c-.836.037-1.142-.129-.819-1.055a6.647,6.647,0,0,1,6.294-4.63" transform="translate(-89.202 -9.976)" fill="#716f6e"/><path d="M66.928,199.975l0,6.459c-2.008.013-4.016.013-6.023.044-.666.01-.939-.256-.929-.924q.033-2.342,0-4.685c-.01-.666.261-.942.926-.933,2.008.027,4.015.028,6.023.039" transform="translate(-33.197 -110.66)" fill="#676564"/><path d="M200.514,92.356v3.558c0,2.188-.025,4.378.015,6.565a1.085,1.085,0,0,1-.813,1.232,21.444,21.444,0,0,0-2.136.936c-.538.259-.808.22-.8-.473.029-2.3-.033-4.6.055-6.9.09-2.358,1.544-3.789,3.678-4.92" transform="translate(-108.913 -51.117)" fill="#d88f7a"/><path d="M218.969,140.338c-3.431,1.574-6.626,3.592-9.985,5.3a1.883,1.883,0,0,1-2.092-.086,2.062,2.062,0,0,1-.9-2.129c.083-.52.238-1.031.9-1.1,1,1.132,1.51,1.224,2.88.482,2.823-1.53,5.64-3.073,8.465-4.6a2.487,2.487,0,0,1,1.131-.489,10.781,10.781,0,0,1-.4,2.613" transform="translate(-113.996 -76.228)" fill="#f0b5a6"/><path d="M32.524,142.167a1.639,1.639,0,0,1,.769,2.3,1.931,1.931,0,0,1-2.656,1.084c-2.266-1.17-4.475-2.451-6.739-3.623a15.377,15.377,0,0,0-3.445-1.749,11.284,11.284,0,0,1-.413-2.748c2,1.091,3.9,2.128,5.806,3.162,1.265.688,2.528,1.378,3.8,2.058,1.369.735,1.881.646,2.881-.482" transform="translate(-11.092 -76.063)" fill="#f0b5a6"/><path d="M67.35,177.58a4.768,4.768,0,0,1,2.074.148,2.242,2.242,0,0,1,1.582,2.159c.011,1.4.012,2.8.017,4.2a.986.986,0,0,1-.212.062c-3.405.2-3.4.2-3.407-3.152,0-1.141-.035-2.281-.053-3.422" transform="translate(-37.277 -98.264)" fill="#edb3a4"/><path d="M77.588,45.206a6.973,6.973,0,0,0,5.054-.121c0,.947.052,1.79-.012,2.624a2.517,2.517,0,0,1-5.034-.063c-.045-.774-.008-1.553-.008-2.44" transform="translate(-42.935 -24.953)" fill="#e99b86"/><path d="M174.667,61.175c0,.833.043,1.54-.009,2.239a2.486,2.486,0,0,1-4.947.229,2.281,2.281,0,0,1-.059-.44c.008-.629-.2-1.424.111-1.837.285-.384,1.055.113,1.618.181a8.543,8.543,0,0,0,3.286-.372" transform="translate(-93.866 -33.859)" fill="#d88f7a"/><path d="M105.58,83.345q0-.612,0-1.223c0-1.753.184-1.917,1.912-1.714a1.225,1.225,0,0,1,.328.039c.649.277,2.31,3.535,2.21,4.237-.047.329-.177.44-.488.449a9.139,9.139,0,0,0-3.334.767c-.526.225-.648.067-.633-.441.022-.7.005-1.409.005-2.113" transform="translate(-58.432 -44.466)" fill="#edb3a4"/><path d="M149.332,129.11c0-2.066,0-3.91,0-5.754,0-.591.31-.83.9-.878,2.22-.179,2.126-.188,2.25,1.941.088,1.5-.226,2.627-1.624,3.372a9.939,9.939,0,0,0-1.528,1.319" transform="translate(-82.651 -67.748)" fill="#f6dacf"/><path d="M152.438,54.34c.334-2.294,1.153-4.462,1.737-7a30.711,30.711,0,0,0,2.412,3.709c.462.7.17,1.657.126,2.5-.017.33-.357.344-.611.329a14.631,14.631,0,0,0-3.6.522Z" transform="translate(-84.371 -26.204)" fill="#676564"/><path d="M191.023,47.949c.553,2.146,1.05,4.083,1.553,6.018.154.591.018.855-.65.681-.608-.159-1.233-.251-1.845-.4-.544-.132-1.468.288-1.58-.342-.169-.95-.477-2.053.417-2.936a16.291,16.291,0,0,0,2.1-3.023" transform="translate(-104.226 -26.539)" fill="#676564"/><path d="M102.678,129.114a7.1,7.1,0,0,0-1.361-1.185c-2.33-1.052-1.717-3.1-1.753-4.941,0-.073-.017-.187.022-.215.729-.522,1.552-.149,2.329-.22a.669.669,0,0,1,.761.752c0,1.869,0,3.738,0,5.809" transform="translate(-55.08 -67.795)" fill="#f6dacf"/><path d="M123.05,91.958a7.675,7.675,0,0,0,3.895.075c.2-.058.4-.1.517.211a3.408,3.408,0,0,1-.858,3.069,2.061,2.061,0,0,1-2.082.36,2.1,2.1,0,0,1-1.456-1.79,16.144,16.144,0,0,1-.015-1.924" transform="translate(-68.092 -50.897)" fill="#f4c7b7"/><path d="M152.409,63.073l-.134.077c.025-.046.049-.092.073-.138l.061.061" transform="translate(-84.281 -34.876)" fill="#676564"/></g></g></g></g></svg>