<svg xmlns="http://www.w3.org/2000/svg" xmlns:xlink="http://www.w3.org/1999/xlink" width="61.901" height="56.749" viewBox="0 0 61.901 56.749"><defs><clipPath id="a"><rect width="61.901" height="56.749" fill="none"/></clipPath></defs><g transform="translate(-459.049 -7958.837)"><g transform="translate(459.049 7958.837)"><g clip-path="url(#a)"><path d="M56.729,55.859c-.081.512-.34.867-.89.887-.593.021-.837-.379-.963-.887.007-.241.019-.482.019-.723q0-5.192,0-10.384c0-1.038.59-1.4,1.537-.97A1.727,1.727,0,0,1,56.7,45.1c-.019.371.072.544.492.528.8-.031,1.6-.023,2.406,0,.35.009.5-.077.489-.463-.023-1.222,0-2.446-.014-3.669a1.4,1.4,0,0,0-.226-.9,1.55,1.55,0,0,0-.817-1.038,8.009,8.009,0,0,0-1.85-.757,4.389,4.389,0,0,0-.422-.214c-.485-.185-1.015-.562-1.45-.476-.394.078-.411.8-.641,1.219-.01.018-.018.036-.027.054a9.181,9.181,0,0,1-13.826,2.985c-.328-.251-.637-.527-1-.825a11.786,11.786,0,0,1-.9,2.1A7.5,7.5,0,0,1,36.8,45.833,1.523,1.523,0,0,0,36,47.5a.592.592,0,0,0,.488.623q1.465.458,2.915.967a3.986,3.986,0,0,1,2.807,3.931c.013.945.014,1.89.02,2.836-.081.511-.339.865-.889.885-.593.022-.832-.382-.968-.882,0-1.025.052-2.052,0-3.074-.058-1.1-.789-1.631-1.745-2.071-.816-.376-1,.211-1.366.6a7.1,7.1,0,0,1-10.922-.464c-.1-.131-.16-.32-.4-.311A2.554,2.554,0,0,0,23.587,52.9c-.037.983,0,1.97.008,2.955-.116.518-.372.906-.959.888-.549-.017-.805-.38-.894-.888q.009-1.359.017-2.718A4.015,4.015,0,0,1,24.7,49.057c.911-.316,1.828-.615,2.74-.927.214-.073.554-.069.506-.4-.072-.507.317-1.138-.251-1.511a8.125,8.125,0,0,1-3.851-6.675c-.018-.336-.167-.384-.435-.411a2.337,2.337,0,0,1-1.622-.712c-.389-.466-.707-.384-1.171-.179a9.81,9.81,0,0,1-8.627-.131,9.933,9.933,0,0,1-5.354-6.356c-.1-.323-.187-.458-.565-.327-.815.282-1.656.492-2.478.758a2.191,2.191,0,0,0-1.284.838,1.967,1.967,0,0,0-.483,1.385c-.014,2.915,0,5.83-.015,8.745,0,.325.113.406.418.4,1.186-.014,2.372-.018,3.558,0,.368.006.416-.153.425-.467.1-3.333.105-3.332-1.711-6.1-.022-.034-.043-.068-.067-.1a1.043,1.043,0,0,1-.056-1.333c.718-.425,1.1-.349,1.571.333.4.58.765,1.183,1.177,1.754a4.89,4.89,0,0,1,.905,3c-.022,4.087-.011,8.174-.007,12.261,0,.986.017,1.971.026,2.957-.1.482-.325.857-.876.884-.618.03-.851-.391-1-.9q.013-5.043.031-10.086c0-.326-.132-.411-.432-.406q-1.238.021-2.476,0c-.3,0-.437.075-.436.4q.025,5.043.032,10.086a2.624,2.624,0,0,1-.137.394.856.856,0,0,1-.944.491.789.789,0,0,1-.727-.693,4.4,4.4,0,0,1-.041-.722q0-4.654,0-9.308c0-.346.046-.641-.46-.729-.4-.071-.581-.468-.58-.89,0-3.425-.028-6.85.024-10.274a3.884,3.884,0,0,1,3-3.654c2.266-.694,4.534-1.38,6.81-2.04.423-.123.511-.32.55-.742A3.226,3.226,0,0,0,9.2,24.664a9.014,9.014,0,0,1-2.889-5.879.727.727,0,0,0-.481-.654,2.925,2.925,0,0,1-.907-4.63,1.031,1.031,0,0,0,.269-.757c-.007-1.612-.026-3.224.01-4.835A8.057,8.057,0,0,1,12.671.12a91.849,91.849,0,0,1,9.361,0,3.655,3.655,0,0,1,3.292,2.456,1.763,1.763,0,0,0,.512.718A4.836,4.836,0,0,1,27.7,7.12c.016,1.853.012,3.707,0,5.56a1.185,1.185,0,0,0,.312.864,2.923,2.923,0,0,1-.892,4.556.84.84,0,0,0-.554.8,3.645,3.645,0,0,1-.237,1.177c-.269.627-.038.883.531,1.148,1.548.72,3.067,1.5,4.584,2.285a1.227,1.227,0,0,0,1.068.022A2.052,2.052,0,0,0,34.08,21.2c-.061-1.687.079-3.382.131-5.073a12.284,12.284,0,0,1,24.437-1.36,43.1,43.1,0,0,1,.2,4.463q.213,5.739.957,11.433c.1.773-.368,1.132-.916,1.472a21.136,21.136,0,0,1-5.94,2.44l-.647.167c.126.226.37.238.565.317,2.084.843,4.174,1.672,6.259,2.515A4.009,4.009,0,0,1,61.9,41.66c0,1.531-.005,3.062,0,4.593,0,.58-.138,1.039-.79,1.164-.368.071-.248.367-.249.584-.007,2.377,0,4.755,0,7.132,0,.141,0,.282,0,.423-.011.752-.238,1.1-.765,1.177s-.832-.161-1.081-.882c.01-2.677.016-5.354.034-8.031,0-.3-.111-.385-.391-.377q-.785.022-1.57,0c-.287-.008-.381.092-.379.383.015,2.678.017,5.355.023,8.033m-27.59-6.532a4.894,4.894,0,0,1-1.169.561.8.8,0,0,0,.324.455,5.3,5.3,0,0,0,7.258.119c.546-.5.543-.493-.1-.788-.217-.1-.418-.234-.626-.352a2.111,2.111,0,0,1-.627-1.7c.044-.453-.131-.469-.513-.381a7.474,7.474,0,0,1-3.406,0c-.4-.094-.549-.046-.511.391a2.127,2.127,0,0,1-.633,1.692m-.237-16.7a24.039,24.039,0,0,0,7.618-2.317,1,1,0,0,1,1.234.027,1.023,1.023,0,0,1,.208,1.215c-.274.164-.539.345-.822.49a28.236,28.236,0,0,1-8.27,2.473c-1.695.224-3.393.4-5.1.465a1.2,1.2,0,0,0-1.144,1.588,1.268,1.268,0,0,0,1.354.791c1.564.017,1.67.117,1.658,1.694a6.161,6.161,0,0,0,1,3.6,6.048,6.048,0,0,0,5.644,2.925,6.346,6.346,0,0,0,5.932-5.08,12.064,12.064,0,0,0,.116-1.984c.01-.843.324-1.146,1.179-1.16a6.2,6.2,0,0,0,.961-.047,1.075,1.075,0,0,0,.908-.852,1.006,1.006,0,0,0-.408-1.167,1.342,1.342,0,0,1-.6-1.176,8.85,8.85,0,0,0-1.15-5.268c-.116-.19-.2-.414-.5-.213a1.043,1.043,0,0,1-1.139-.032c-1.058-.535-2.114-1.075-3.183-1.589a16.661,16.661,0,0,0-2.231-1.05c-.261-.206-.458.016-.658.115-1.589.785-3.169,1.586-4.76,2.367-.514.252-1.03.6-1.608.075-.2-.178-.257.1-.329.213a9.074,9.074,0,0,0-1.229,3.931c-.037.375.1.5.472.479a42.136,42.136,0,0,0,4.846-.513m20.947,2.058A6.147,6.147,0,0,1,49.723,33c.046-.483-.1-.573-.562-.437a9.934,9.934,0,0,1-4.293.233,13.975,13.975,0,0,1-2.664-.769c.051.971-.207,1.933.626,2.638,1.046,2.133.109,3.881-2.443,4.539a.725.725,0,0,0,.067.161,7.39,7.39,0,0,0,12.68-1.031c.515-1.007.483-1.024-.543-1.436-.2-.082-.406-.175-.615-.244a3.28,3.28,0,0,1-2.127-1.977M12.342,9.288c.419-.03.839-.062,1.259-.089a34.536,34.536,0,0,0,5.653-.8,17.514,17.514,0,0,0,3.085-1.016.831.831,0,0,1,1.117.432.779.779,0,0,1-.223,1.073c-.119.1-.252.194-.378.29-.584.2-1.163.422-1.752.607a39.673,39.673,0,0,1-8.765,1.361,7.039,7.039,0,0,1-.783-.006c-.514-.059-.759.17-.881.659-.136.544-.362,1.065-.515,1.605a1.107,1.107,0,0,1-1.234.9,8,8,0,0,0-2.043.063,1.1,1.1,0,0,0-.9,1.121,1.117,1.117,0,0,0,.877,1.088c1.088.29,1.157.371,1.217,1.514a8.219,8.219,0,0,0,.9,3.288,8.313,8.313,0,0,0,8.2,4.495,6.246,6.246,0,0,0,.717-.052A8.365,8.365,0,0,0,24.824,18.1c.093-1.18.093-1.179,1.265-1.534a1.14,1.14,0,0,0,.006-2.189,3.877,3.877,0,0,0-1.076-.082c-.922-.013-1.2-.3-1.176-1.229a1.449,1.449,0,0,1,1.53-.593c.331.02.521-.043.516-.449-.02-1.65.018-3.3-.024-4.949A2.937,2.937,0,0,0,24.591,4.66a2.264,2.264,0,0,1-.906-1.229,1.942,1.942,0,0,0-1.827-1.505,54.927,54.927,0,0,0-6.986.01c-1.651-.046-3.288-.107-4.773.862A6.277,6.277,0,0,0,7.137,7.067a31.72,31.72,0,0,0-.115,4.754c-.007.236-.165.676.3.623s1.082.383,1.344-.369c.2-.569.376-1.145.567-1.716a1.262,1.262,0,0,1,1.421-1.03l1.688-.042M47.509,31.048c.237-.032.477-.053.713-.1a8.453,8.453,0,0,0,6.617-9.119A3.376,3.376,0,0,0,52.875,19a12.209,12.209,0,0,0-2.752-.854,31,31,0,0,1-6.034-1.622c-.382-.166-.853-.589-1.1-.481-.324.14-.469.7-.69,1.073a7,7,0,0,1-4.082,2.373.887.887,0,0,1-.889-.886c-.026-.536.311-.794.765-.95.266-.091.54-.164.8-.273a3.758,3.758,0,0,0,2.559-2.947c.14-.878.819-1.18,1.532-.647a12.841,12.841,0,0,0,5.039,2.061,36.71,36.71,0,0,1,4.972,1.221,5,5,0,0,1,3.568,4.038,9.841,9.841,0,0,1-4.348,10.046,1.528,1.528,0,0,0-.687,1.546c.01.29.12.338.373.276a22.8,22.8,0,0,0,5.57-2.094.737.737,0,0,0,.43-.864A111.251,111.251,0,0,1,57.019,18.1a15.832,15.832,0,0,0-.592-4.952,10.473,10.473,0,0,0-20.272,1.745c-.273,2.16-.137,4.343-.281,6.512-.03.444.167.335.418.219a8.545,8.545,0,0,1,1.923-.852,1.007,1.007,0,0,1,.894,1.153c-.006,1.125.007,2.25-.007,3.374a.963.963,0,0,0,.292.748,9.813,9.813,0,0,1,2.051,3.159,1.016,1.016,0,0,0,.393.506,8.325,8.325,0,0,0,5.673,1.336M12.216,26.907c0,.77-.011,1.493,0,2.215A4.233,4.233,0,0,0,15.5,33.093a4.373,4.373,0,0,0,4.614-1.988c.692-1.152.529-2.4.577-3.636.02-.526-.136-.555-.579-.383a10.035,10.035,0,0,1-5.505.521,19.258,19.258,0,0,1-2.4-.7m9.592,5.162c-.225.021-.248.156-.311.247A6.071,6.071,0,0,1,10.943,31.5c-.217-.439-.134-1.173-.587-1.282s-.981.281-1.492.374c-.6.109-.619.4-.44.885a10.008,10.008,0,0,0,1.466,2.685,8.41,8.41,0,0,0,10.118,2.392c.459-.226.816-.436.817-1.039a1.386,1.386,0,0,1,.435-.975c.784-.714.4-1.621.548-2.466m.718-3.131a9.189,9.189,0,0,1,1.689-2.46c1.009-.892.528-1.945.607-2.953a13.934,13.934,0,0,1-2.109,2.082.466.466,0,0,0-.189.412c.006.973,0,1.946,0,2.918m11.492-4.15,2.955,1.476c.149.074.314.181.314-.119,0-.972,0-1.944,0-2.992l-3.271,1.635m-7.3,1.617,3.243-1.621-3.243-1.607Z" transform="translate(0 0)" fill="#030302"/><path d="M9.552,131.393a2.191,2.191,0,0,1,1.284-.838c.822-.265,1.662-.475,2.478-.758.378-.131.469,0,.565.327a9.933,9.933,0,0,0,5.354,6.356,9.81,9.81,0,0,0,8.627.131c.464-.2.782-.287,1.171.179a2.337,2.337,0,0,0,1.622.712c.269.027.417.075.435.411a8.126,8.126,0,0,0,3.851,6.675c.568.374.179,1,.251,1.511.047.331-.292.326-.506.4-.912.313-1.829.612-2.74.927A4.015,4.015,0,0,0,29,151.511q-.009,1.359-.017,2.718l-13.691,0c-.009-.986-.025-1.972-.026-2.957,0-4.087-.015-8.174.007-12.261a4.89,4.89,0,0,0-.905-3c-.411-.571-.778-1.174-1.177-1.754-.47-.682-.852-.758-1.57-.333a13.025,13.025,0,0,1-2.071-2.535" transform="translate(-7.242 -98.37)" fill="#48a7e8"/><path d="M170,160.424a8.008,8.008,0,0,1,1.85.757,1.548,1.548,0,0,1,.817,1.038c-.283.049-.429.283-.615.46-.946.9-1.8,1.888-2.8,2.731-.947-.43-1.535-.068-1.537.97q-.01,5.192,0,10.384c0,.241-.013.482-.019.723h-12.65c-.006-.945-.007-1.891-.019-2.836a3.986,3.986,0,0,0-2.807-3.931q-1.447-.512-2.915-.968a.592.592,0,0,1-.488-.623,1.523,1.523,0,0,1,.8-1.671,7.5,7.5,0,0,0,2.122-2.194,11.55,11.55,0,0,0,1.686,1.252,11.363,11.363,0,0,0,14.856-2.755A7.931,7.931,0,0,0,170,160.424" transform="translate(-112.817 -121.628)" fill="#eb5d7d"/><path d="M97.494,214.316c-.006-.985-.045-1.971-.008-2.954A2.554,2.554,0,0,1,99.833,209c.241-.01.3.18.4.311a7.1,7.1,0,0,0,10.922.464c.366-.39.549-.977,1.366-.6.955.439,1.687.973,1.745,2.071.054,1.022.006,2.049,0,3.074l-16.775-.005" transform="translate(-73.898 -158.458)" fill="#f8da76"/><path d="M11.878,198.051q-.013-5.043-.032-10.085c0-.328.137-.409.435-.4q1.238.02,2.477,0c.3-.005.434.08.432.406q-.025,5.043-.031,10.086l-3.281,0" transform="translate(-8.981 -142.202)" fill="#ab8668"/><path d="M234.5,204.593c-.006-2.678-.008-5.355-.023-8.033,0-.291.092-.392.379-.383q.785.023,1.57,0c.28-.008.393.082.391.377-.018,2.677-.024,5.354-.034,8.031l-2.283.008" transform="translate(-177.775 -148.734)" fill="#f2d5a9"/><path d="M150.672,39.687a8.542,8.542,0,0,0-1.923.852c-.251.116-.447.225-.418-.219.144-2.169.007-4.352.281-6.512a10.473,10.473,0,0,1,20.272-1.745,15.838,15.838,0,0,1,.592,4.952,111.186,111.186,0,0,0,.878,11.917.737.737,0,0,1-.43.864,22.8,22.8,0,0,1-5.57,2.094c-.253.062-.363.014-.373-.276a1.527,1.527,0,0,1,.687-1.546,9.84,9.84,0,0,0,4.348-10.046,5,5,0,0,0-3.568-4.038,36.714,36.714,0,0,0-4.972-1.221,12.842,12.842,0,0,1-5.039-2.061c-.713-.533-1.392-.231-1.532.647a3.757,3.757,0,0,1-2.559,2.947c-.259.108-.532.181-.8.273-.454.156-.792.415-.765.95a.887.887,0,0,0,.889.886q0,.641,0,1.283" transform="translate(-112.458 -18.915)" fill="#cb9e6b"/><path d="M51.013,39.92a39.657,39.657,0,0,0,8.765-1.361c.59-.185,1.168-.4,1.752-.607.122.809.228,1.621.373,2.425a2.438,2.438,0,0,0,.615,1.459c-.022.929.254,1.217,1.176,1.229a3.875,3.875,0,0,1,1.076.082,1.139,1.139,0,0,1-.006,2.189c-1.172.355-1.173.354-1.265,1.534a8.365,8.365,0,0,1-6.935,7.721,6.242,6.242,0,0,1-.717.052c-.015-.249-.238-.32-.4-.417a9.447,9.447,0,0,1-2.023-1.671A8.859,8.859,0,0,1,51.012,46.2a1,1,0,0,0,.866-1.168c-.014-.219,0-.44,0-.66a.887.887,0,0,0-.862-1.012q0-1.721,0-3.442m4.141,11.442a3.63,3.63,0,0,0,2.493-1.111c.511-.534.587-1.014.205-1.429-.4-.439-.9-.4-1.465.14a1.709,1.709,0,0,1-1.523.553A2.294,2.294,0,0,1,53.7,48.81a.854.854,0,0,0-1.286,0,.888.888,0,0,0,.014,1.254,3.676,3.676,0,0,0,2.73,1.3m3.218-6.586c0,.14-.006.281,0,.42a.9.9,0,1,0,1.8.087,5.239,5.239,0,0,0,0-1.079.88.88,0,0,0-.913-.855c-.5-.016-.843.372-.877.947-.009.16,0,.32,0,.48" transform="translate(-38.675 -28.774)" fill="#ba9676"/><path d="M174.89,67.36c.222-.377.366-.933.69-1.074.252-.109.723.314,1.1.481a31.027,31.027,0,0,0,6.034,1.622,12.2,12.2,0,0,1,2.752.854,3.376,3.376,0,0,1,1.964,2.83,8.454,8.454,0,0,1-6.618,9.118c-.235.046-.475.066-.713.1a10.842,10.842,0,0,1-2.972-2.374,9.605,9.605,0,0,1-2.222-6.056c.813-.257.946-.456.947-1.424,0-1.031-.12-1.221-.947-1.485q-.011-1.3-.021-2.592m4.583,10.649a3.68,3.68,0,0,0,2.348-1.34.893.893,0,0,0-1.254-1.266c-.1.073-.178.162-.267.244a1.634,1.634,0,0,1-2.455-.022,3.335,3.335,0,0,0-.268-.242.831.831,0,0,0-1.193.066.823.823,0,0,0-.051,1.2,3.807,3.807,0,0,0,3.14,1.365m4.647-6.621c0-.16,0-.321,0-.481a.876.876,0,0,0-.851-.914.888.888,0,0,0-.929.834,5.13,5.13,0,0,0,0,1.138.881.881,0,0,0,.912.857c.49.018.839-.385.874-.954.01-.16,0-.32,0-.481" transform="translate(-132.595 -50.243)" fill="#f7dfb7"/><path d="M130.877,133.018a1.342,1.342,0,0,0,.6,1.176,1.006,1.006,0,0,1,.408,1.167,1.075,1.075,0,0,1-.908.852,6.2,6.2,0,0,1-.961.047c-.855.014-1.17.317-1.179,1.16a12.063,12.063,0,0,1-.116,1.984,6.346,6.346,0,0,1-5.932,5.08c-.525-.5-1.069-.988-1.569-1.515a3.2,3.2,0,0,1-.958-1.546c.1.059.212.113.314.177a3.419,3.419,0,0,0,4.489-.55c.474-.5.517-1.045.113-1.429-.374-.356-.9-.3-1.385.151a1.651,1.651,0,0,1-2.588.01c-.59-.542-.94-.544-1.56-.008a7.176,7.176,0,0,1-.241-2.732c.535-.086.886-.362.877-.938-.009-.555-.361-.8-.877-.849q-.015-.918-.029-1.836a28.222,28.222,0,0,0,8.27-2.473c.283-.145.548-.326.822-.49a2.354,2.354,0,0,1,.247.662,1.956,1.956,0,0,0,2.16,1.9m-5.3,2.221a.88.88,0,0,0-.888.872.884.884,0,1,0,1.767.009.878.878,0,0,0-.879-.881" transform="translate(-90.509 -98.908)" fill="#e6bf8d"/><path d="M62.49,18.767a2.436,2.436,0,0,1-.615-1.459c-.145-.8-.251-1.616-.373-2.425.126-.1.259-.186.378-.29A.779.779,0,0,0,62.1,13.52a.831.831,0,0,0-1.117-.432A17.514,17.514,0,0,1,57.9,14.1a34.536,34.536,0,0,1-5.653.8c-.42.027-.839.059-1.259.089,0-.821-.032-1.644,0-2.464A5.973,5.973,0,0,1,52.4,8.917c.357-.443.964-.665,1.117-1.278a54.972,54.972,0,0,1,6.986-.01,1.942,1.942,0,0,1,1.827,1.505,2.263,2.263,0,0,0,.906,1.229,2.937,2.937,0,0,1,1.274,2.413c.042,1.649,0,3.3.024,4.949,0,.406-.185.469-.516.448a1.449,1.449,0,0,0-1.53.593" transform="translate(-38.647 -5.704)" fill="#5f473e"/><path d="M176.464,143.374a3.28,3.28,0,0,0,2.127,1.977c.209.068.41.161.615.243,1.027.412,1.059.429.543,1.436a7.39,7.39,0,0,1-12.68,1.031A.72.72,0,0,1,167,147.9c2.552-.658,3.489-2.406,2.443-4.539.373.063.751.106,1.118.193a10.547,10.547,0,0,0,2.721.286,13.307,13.307,0,0,0,3.18-.467" transform="translate(-126.615 -108.692)" fill="#f2d5a9"/><path d="M31.073,52.328a8.858,8.858,0,0,0,2.415,6.354,9.448,9.448,0,0,0,2.023,1.671c.158.1.382.169.4.417a8.313,8.313,0,0,1-8.2-4.495,8.219,8.219,0,0,1-.9-3.288c-.059-1.144-.129-1.225-1.217-1.514a1.117,1.117,0,0,1-.877-1.088,1.1,1.1,0,0,1,.9-1.122,8.013,8.013,0,0,1,2.043-.063,1.107,1.107,0,0,0,1.234-.9c.153-.541.379-1.061.515-1.605.123-.489.367-.718.882-.659a7.034,7.034,0,0,0,.783.006q0,1.721,0,3.442c-.685.114-.922.381-.953,1.071-.055,1.247.1,1.541.951,1.769" transform="translate(-18.736 -34.899)" fill="#ab8668"/><path d="M179.2,158.222a7.931,7.931,0,0,1-1.723,3.341,11.363,11.363,0,0,1-14.856,2.755,11.55,11.55,0,0,1-1.686-1.252,11.772,11.772,0,0,0,.9-2.1c.358.3.667.574,1,.825a9.181,9.181,0,0,0,13.826-2.985c.01-.018.018-.036.027-.054.23-.417.247-1.141.641-1.219.435-.086.964.291,1.45.476a4.281,4.281,0,0,1,.422.214" transform="translate(-122.016 -119.426)" fill="#c04869"/><path d="M130.977,115.492a1.956,1.956,0,0,1-2.16-1.9,2.354,2.354,0,0,0-.247-.662,1.023,1.023,0,0,0-.208-1.215,1,1,0,0,0-1.234-.027,24.05,24.05,0,0,1-7.618,2.317c.039-.315.076-.63.116-.944a8.751,8.751,0,0,1,.98-2.986,10.81,10.81,0,0,1,2.17-2.736,16.665,16.665,0,0,1,2.231,1.05c1.069.513,2.125,1.053,3.183,1.588a1.043,1.043,0,0,0,1.139.032c.3-.2.382.023.5.213a8.851,8.851,0,0,1,1.15,5.268" transform="translate(-90.608 -81.381)" fill="#5f473e"/><path d="M36.778,7.937c-.152.613-.759.835-1.117,1.278a5.973,5.973,0,0,0-1.414,3.61c-.031.82,0,1.643,0,2.464l-1.688.042a1.262,1.262,0,0,0-1.421,1.03c-.192.571-.37,1.147-.568,1.716-.261.752-.889.317-1.343.369s-.307-.387-.3-.623a31.755,31.755,0,0,1,.116-4.754A6.276,6.276,0,0,1,32,8.8c1.486-.969,3.123-.908,4.773-.862" transform="translate(-21.906 -6.001)" fill="#503732"/><path d="M162.092,70.781q.011,1.3.021,2.592c-.808.308-.872.418-.87,1.514,0,.968.083,1.1.87,1.395a9.608,9.608,0,0,0,2.222,6.056,10.835,10.835,0,0,0,2.972,2.374,8.325,8.325,0,0,1-5.673-1.336,1.016,1.016,0,0,1-.393-.506,9.817,9.817,0,0,0-2.051-3.159.964.964,0,0,1-.292-.747c.014-1.125,0-2.25.007-3.374a1.007,1.007,0,0,0-.894-1.152q0-.641,0-1.283a7,7,0,0,0,4.082-2.373" transform="translate(-119.797 -53.664)" fill="#f2d5a9"/><path d="M50.5,111.26a19.265,19.265,0,0,0,2.4.7,10.035,10.035,0,0,0,5.505-.521c.444-.172.6-.142.579.383-.048,1.237.115,2.485-.577,3.636a4.374,4.374,0,0,1-4.615,1.988,4.232,4.232,0,0,1-3.286-3.972c-.014-.722,0-1.445,0-2.215" transform="translate(-38.285 -84.353)" fill="#ab8668"/><path d="M99.6,146.333a7.175,7.175,0,0,0,.241,2.731c-.379.768.2,1.178.616,1.65a3.2,3.2,0,0,0,.958,1.546c.5.527,1.044,1.012,1.569,1.515a6.048,6.048,0,0,1-5.644-2.925,6.162,6.162,0,0,1-1-3.6c.012-1.577-.094-1.677-1.658-1.693a1.268,1.268,0,0,1-1.354-.791,1.2,1.2,0,0,1,1.144-1.588c1.71-.064,3.408-.241,5.1-.465l.029,1.836a.812.812,0,0,0-.879.849c-.017.578.342.852.878.938" transform="translate(-70.699 -108.198)" fill="#dbae7e"/><path d="M47.914,126.732c-.149.845.236,1.752-.548,2.466a1.387,1.387,0,0,0-.435.975c0,.6-.358.814-.817,1.039A8.41,8.41,0,0,1,36,128.819a10,10,0,0,1-1.467-2.685c-.178-.489-.155-.776.44-.885.511-.093,1.052-.48,1.492-.374s.371.843.587,1.282a6.071,6.071,0,0,0,10.554.821c.064-.091.087-.226.311-.247" transform="translate(-26.105 -94.662)" fill="#3e92d2"/><path d="M7.992,136.552a13.026,13.026,0,0,0,2.071,2.535,1.043,1.043,0,0,0,.055,1.333c.024.032.044.067.067.1,1.816,2.765,1.813,2.765,1.711,6.1-.01.314-.057.473-.425.467-1.186-.02-2.372-.015-3.558,0-.3,0-.419-.077-.418-.4.012-2.915,0-5.83.015-8.745a1.967,1.967,0,0,1,.483-1.385" transform="translate(-5.682 -103.529)" fill="#3e92d2"/><path d="M106.086,107.074a10.81,10.81,0,0,0-2.17,2.736,8.75,8.75,0,0,0-.98,2.986c-.04.315-.078.63-.116.944a42.137,42.137,0,0,1-4.846.513c-.374.022-.51-.1-.472-.479a9.077,9.077,0,0,1,1.229-3.931c.073-.118.133-.392.329-.213.578.526,1.094.177,1.608-.075,1.591-.781,3.171-1.582,4.76-2.367.2-.1.4-.32.658-.115" transform="translate(-73.917 -81.116)" fill="#503732"/><path d="M182.161,135.1a13.306,13.306,0,0,1-3.18.466,10.546,10.546,0,0,1-2.721-.286c-.367-.087-.745-.13-1.118-.193-.833-.7-.575-1.667-.626-2.638a13.948,13.948,0,0,0,2.664.769,9.929,9.929,0,0,0,4.292-.233c.465-.137.609-.047.563.437a6.146,6.146,0,0,0,.126,1.677" transform="translate(-132.312 -100.421)" fill="#e6bf8d"/><path d="M122.518,203.95c.208.119.41.252.627.352.639.3.641.29.1.788a5.3,5.3,0,0,1-7.258-.119.8.8,0,0,1-.324-.456,4.9,4.9,0,0,0,1.169-.561c.719-.011,1.4.243,2.126.254a19.106,19.106,0,0,0,3.564-.259" transform="translate(-87.688 -154.627)" fill="#dbae7e"/><path d="M233.362,171.038c1-.844,1.855-1.833,2.8-2.731.186-.177.332-.411.616-.46a1.394,1.394,0,0,1,.226.9c.013,1.223-.009,2.446.014,3.669.007.385-.139.472-.489.463-.8-.02-1.6-.028-2.406,0-.42.016-.511-.157-.492-.528a1.73,1.73,0,0,0-.27-1.318" transform="translate(-176.927 -127.255)" fill="#c04869"/><path d="M126.183,197.309a19.11,19.11,0,0,1-3.564.259c-.723-.011-1.407-.265-2.126-.254a2.128,2.128,0,0,0,.633-1.692c-.037-.437.11-.485.511-.391a7.473,7.473,0,0,0,3.406,0c.383-.088.557-.072.514.381a2.111,2.111,0,0,0,.626,1.7" transform="translate(-91.353 -147.987)" fill="#cb9e6b"/><path d="M140.671,97.377l3.271-1.635c0,1.048,0,2.02,0,2.992,0,.3-.166.193-.314.119l-2.955-1.476" transform="translate(-106.652 -72.588)" fill="#f8da76"/><path d="M110.475,99.072V95.845l3.243,1.607-3.243,1.621" transform="translate(-83.758 -72.666)" fill="#f8da76"/><path d="M58.748,84.488a3.677,3.677,0,0,1-2.73-1.3A.888.888,0,0,1,56,81.938a.853.853,0,0,1,1.286,0,2.292,2.292,0,0,0,1.167.706,1.709,1.709,0,0,0,1.523-.553c.563-.538,1.061-.579,1.465-.14.382.415.305.895-.205,1.429a3.631,3.631,0,0,1-2.493,1.111" transform="translate(-42.269 -61.9)" fill="#030302"/><path d="M81.442,61.7c0-.16-.007-.321,0-.48.034-.575.377-.962.877-.947a.88.88,0,0,1,.913.855,5.222,5.222,0,0,1,0,1.079.9.9,0,1,1-1.8-.087c-.007-.14,0-.28,0-.42" transform="translate(-61.744 -45.694)" fill="#030302"/><path d="M48,63.166c-.848-.228-1.007-.522-.951-1.769.031-.69.268-.956.953-1.071a.887.887,0,0,1,.862,1.011c0,.22-.012.441,0,.66A1,1,0,0,1,48,63.166" transform="translate(-35.664 -45.737)" fill="#030302"/><path d="M183.267,105.889a3.807,3.807,0,0,1-3.14-1.365.89.89,0,0,1,1.244-1.261,3.286,3.286,0,0,1,.268.242,1.634,1.634,0,0,0,2.455.022c.088-.082.171-.171.266-.244a.893.893,0,0,1,1.254,1.266,3.68,3.68,0,0,1-2.348,1.34" transform="translate(-136.39 -78.123)" fill="#030302"/><path d="M207.366,83.048c0,.16.009.321,0,.481a.9.9,0,0,1-.874.954.881.881,0,0,1-.912-.857,5.145,5.145,0,0,1,0-1.138.887.887,0,0,1,.929-.834.876.876,0,0,1,.851.914c.006.16,0,.32,0,.481" transform="translate(-155.841 -61.903)" fill="#030302"/><path d="M172.247,84.408c-.787-.3-.869-.428-.87-1.395,0-1.1.062-1.207.87-1.515.827.265.948.454.947,1.485,0,.968-.133,1.167-.947,1.424" transform="translate(-129.932 -61.789)" fill="#030302"/><path d="M120.723,169.38c-.414-.472-1-.882-.616-1.65.62-.535.97-.533,1.56.008a1.651,1.651,0,0,0,2.588-.01c.487-.45,1.011-.507,1.385-.151.4.385.36.934-.113,1.429a3.419,3.419,0,0,1-4.489.55c-.1-.064-.209-.118-.314-.177" transform="translate(-90.968 -126.864)" fill="#030302"/><path d="M142.214,150.233a.878.878,0,0,1,.879.881.884.884,0,1,1-1.767-.009.88.88,0,0,1,.889-.872" transform="translate(-107.148 -113.901)" fill="#030302"/><path d="M116.742,152.089c-.536-.086-.9-.36-.878-.938a.812.812,0,0,1,.879-.849c.516.052.868.294.877.849.009.576-.342.852-.877.938" transform="translate(-87.844 -113.954)" fill="#030302"/></g></g></g></svg>