<svg xmlns="http://www.w3.org/2000/svg" xmlns:xlink="http://www.w3.org/1999/xlink" width="312.854" height="310.305" viewBox="0 0 312.854 310.305"><defs><clipPath id="a"><rect width="312.855" height="310.305" transform="translate(0 27)" fill="none"/></clipPath><clipPath id="b"><rect width="312.855" height="337.305" fill="none"/></clipPath><clipPath id="c"><rect width="0.612" height="0.709" fill="none"/></clipPath></defs><g transform="translate(-1002.146 -4050.469)"><g transform="translate(1002.146 4023.469)"><g clip-path="url(#a)"><g clip-path="url(#b)"><path d="M221.927,90.444H132.814c6.258-6.755,13.642-13.871,22.8-13.738,6.742.084,12.722,4.18,17.882,8.517a42.811,42.811,0,0,1,18.681-11.974,24.118,24.118,0,0,1,11.939-1.063c8.7,1.776,14.222,9.872,17.81,18.258" transform="translate(90.927 49.177)" fill="#ffe7a5"/><path d="M116.4,107.125H27.282c6.258-6.755,13.642-13.871,22.8-13.738,6.742.084,12.722,4.18,17.882,8.517A42.811,42.811,0,0,1,86.646,89.93a24.118,24.118,0,0,1,11.939-1.063c8.7,1.777,14.222,9.872,17.81,18.258" transform="translate(18.678 60.597)" fill="#fff9e9"/><path d="M169.943,40.013l-.765.015H22.594C32.37,28.207,51.408,24.74,64.448,33.11c7.2-8.245,15.148-16.3,25.237-20.552s22.817-3.918,30.891,3.484c5.013,4.591,7.621,11.183,10.072,17.522,11.838-8.932,30.923-5.809,39.294,6.45" transform="translate(27.43 45.564)" fill="#fff9e9"/><path d="M152.17,76.357l-1.346,33.981H110.031l-.1-12.717-.081-10.493-.032-3.081Z" transform="translate(75.186 52.276)" fill="#e8b47b"/><path d="M146.27,80.6c-2.53,4.735-7.737,7.3-12.716,9.277-7.657,3.049-15.458,5.061-23.634,4.9l-.081-10.494A126.951,126.951,0,0,1,146.27,80.6" transform="translate(75.199 55.119)" fill="#2d1026"/><path d="M133.362,42.279c2.871-8.667,9.5-16.2,18.074-19.345s18.939-1.464,25.535,4.848a34.017,34.017,0,0,1,6.649,9.628c3.275,6.6,5.492,14.375,2.94,21.289-2.335,6.332-8.236,10.687-14.37,13.5a34.037,34.037,0,0,1-15.7,3.517,27.514,27.514,0,0,1-17.943-8.322,34.621,34.621,0,0,1-9.04-17.785Z" transform="translate(88.663 14.645)" fill="#7e563c"/><path d="M110.323,28.558c-3.9,1.068-7.818,2.488-10.911,5.1s-5.256,6.614-4.756,10.63a4.177,4.177,0,0,1-.015,2.065A3.7,3.7,0,0,1,93.1,47.86a21.774,21.774,0,0,0-8.127,9.732,17.8,17.8,0,0,0-.414,12.576c1.808,5.059,6.112,8.961,11.006,11.172s10.352,2.889,15.723,2.962c10.19.138,20.962-2.1,28.42-9.048A43.06,43.06,0,0,0,148.094,63.5a79.27,79.27,0,0,0,6.149-15.106c1.359-4.788,2.746-10.515,2.232-15.532-.416-4.062-7.955-4.737-11.129-5.418a72.129,72.129,0,0,0-16.548-1.56,75.874,75.874,0,0,0-18.475,2.677" transform="translate(57.235 17.709)" fill="#7e563c"/><path d="M91.611,87.81c.3,8.944.689,27.043,12.368,32.373,18.135,8.275,58.805.827,58.805.827a91.722,91.722,0,0,1,1.976-12.663c-.066.95,5.775.97,9.163.815,1.166-.079,2.037-.157,2.3-.212a16.772,16.772,0,0,0,8.448-5.2c4.533-5.248,4.867-13.465.088-18.649a13.181,13.181,0,0,0-1.858-1.656c-.217-.167-.451-.334-.686-.483,0-.02-.017,0-.017,0a9.631,9.631,0,0,0-6.346-1.695c-1.169.148-3.991.751-5.248,1.952a2.994,2.994,0,0,0-.256.248,1.779,1.779,0,0,0-.369.777c.046-.2.074-.43.1-.635,1.117-6.584,1.816-12.788,1.614-17.323a38.542,38.542,0,0,0-32.353-35.893,60.914,60.914,0,0,0-8.248-.733c-.814-.04-1.594-.047-2.392-.019-.364,0-.746.03-1.129.047a3.524,3.524,0,0,0-.453.027c-.121.013-.243.024-.382.032-.435.032-.869.061-1.306.108a36.493,36.493,0,0,0-8.007,1.653A34.376,34.376,0,0,0,98.809,46c-3.829,6.065-5.76,12.985-6.663,20.133a136.662,136.662,0,0,0-.536,21.678" transform="translate(62.596 20.278)" fill="#e8b47b"/><path d="M103.988,74.5a1.5,1.5,0,0,1-.8-.2c-.627-.386-.788-1.166-.483-2.325l3.514-13.3a.406.406,0,0,1,.785.207l-3.514,13.3c-.116.433-.251,1.194.125,1.427a1.211,1.211,0,0,0,.723.057,11.6,11.6,0,0,0,4.808-1.754.405.405,0,1,1,.44.681,12.421,12.421,0,0,1-5.145,1.877,3.618,3.618,0,0,1-.448.032" transform="translate(70.209 39.965)" fill="#2d1026"/><path d="M109.284,73.434a7.231,7.231,0,0,1-5.032-2.04.406.406,0,0,1,.573-.576,6.227,6.227,0,0,0,10.185-2.129.405.405,0,0,1,.755.295,7.108,7.108,0,0,1-5.108,4.309,6.583,6.583,0,0,1-1.373.142" transform="translate(71.292 46.849)" fill="#2d1026"/><path d="M113.784,61.707a3.715,3.715,0,1,0,3.955-3.459,3.716,3.716,0,0,0-3.955,3.459" transform="translate(77.894 39.872)" fill="#2d1026"/><path d="M96.051,61.224a3.715,3.715,0,1,0,3.956-3.455,3.715,3.715,0,0,0-3.956,3.455" transform="translate(65.753 39.544)" fill="#2d1026"/><path d="M136.074,79.711a.394.394,0,0,0,.425-.29A33.7,33.7,0,0,1,139.65,71.2a14.059,14.059,0,0,1,6.13-5.854,8.489,8.489,0,0,1,8.01.4.393.393,0,1,0,.431-.657,9.268,9.268,0,0,0-8.76-.458,14.8,14.8,0,0,0-6.491,6.178,34.275,34.275,0,0,0-3.233,8.41.392.392,0,0,0,.276.482.406.406,0,0,0,.059.012" transform="translate(92.92 43.647)" fill="#2d1026"/><g transform="translate(245.625 103.171)" opacity="0.27"><g clip-path="url(#c)"><path d="M145.8,61.662c.2.079.389.194.591.29-.005-.243.007-.467.02-.709a2.114,2.114,0,0,0-.612.419" transform="translate(-145.804 -61.243)" fill="#2d1026"/></g></g><path d="M157.608,84.248a42.211,42.211,0,0,0-4.122,3.841,1.62,1.62,0,0,1-2.778-1.046c-.091-1.653-.322-3.29-1.028-4.041-1.919-2.042-5.141-1.792-7.919-2.153a15.794,15.794,0,0,1-13.01-11.767,25.745,25.745,0,0,1,.032-9.688c.406-2.662.863-5.687-.824-7.785-1.531-1.905-4.222-2.268-6.538-3.049a16.389,16.389,0,0,1-10.384-18.485c13.212-2.4,27.463-2.869,40.146,1.54a31.013,31.013,0,0,1,7.705,3.674,24.561,24.561,0,0,1,8.728,12.3,51.448,51.448,0,0,1,2.328,15.1,115.13,115.13,0,0,1-1.26,20.947,22.723,22.723,0,0,0-6.043-1.07,7.114,7.114,0,0,0-5.034,1.685" transform="translate(75.78 19.358)" fill="#7e563c"/><path d="M103.388,33.814A17.226,17.226,0,0,0,95.582,42.3c-.553,1.42-.827,3.138.052,4.383a3.809,3.809,0,0,0,3.475,1.359A11.256,11.256,0,0,0,102.8,46.8a15.669,15.669,0,0,0-1.513,6.558c-.015,1.456.283,3.1,1.489,3.912a3.978,3.978,0,0,0,2.751.458,14.029,14.029,0,0,0,6.69-3.373,42.3,42.3,0,0,0,12.837-17.577c1.011-2.611,1.663-5.849-.143-7.99a5.9,5.9,0,0,0-5.539-1.634c-2.672.478-4.23,2.273-6.55,3.31-3.066,1.371-6.415,1.661-9.429,3.352" transform="translate(65.086 18.509)" fill="#7e563c"/><path d="M94.275,55.178a2.243,2.243,0,0,0-.78,1.245,1.135,1.135,0,0,0,.745,1.191,3.027,3.027,0,0,0,.831.162,28.892,28.892,0,0,0,6.738-.162,8.464,8.464,0,0,0,3.111-.921,2.037,2.037,0,0,0,1.184-2.23c-.579-1.7-3.94-1.919-5.859-1.782a10.716,10.716,0,0,0-5.97,2.5" transform="translate(64.002 36.043)" fill="#7e563c"/><path d="M124.415,54.627a2.242,2.242,0,0,1,.943,1.127,1.137,1.137,0,0,1-.574,1.282,3.043,3.043,0,0,1-.8.273,28.868,28.868,0,0,1-6.7.761,8.481,8.481,0,0,1-3.209-.489,2.037,2.037,0,0,1-1.477-2.047c.342-1.767,3.64-2.439,5.561-2.567a10.721,10.721,0,0,1,6.255,1.659" transform="translate(77.071 36.25)" fill="#7e563c"/><path d="M138.013,91.576a1.614,1.614,0,0,1-1.508-1.37c-.615-4.033-1.762-16.159,6.447-17.136,8.169-.974,9.41,11.669,9.6,16.038a1.617,1.617,0,0,1-1.383,1.664l-2.444.364a1.618,1.618,0,0,1-1.846-1.392c-.406-3.1-1.488-9.338-3.452-7.284-1.683,1.76-1.472,5.214-1.12,7.407a1.615,1.615,0,0,1-1.7,1.86Z" transform="translate(93.159 49.989)" fill="#5840e2"/><path d="M241.409,275.261H68.061c-.1-6.435-.2-15.65-.27-26.364-.017-1.8-.017-3.656-.034-5.542v-.809c-.017-4.666-.034-9.552-.017-14.555.017-7.176.067-14.589.152-22.018v-.017c.219-17.874.724-35.714,1.685-49.831.1-1.651.219-3.234.354-4.767a.89.89,0,0,1,.017-.219c.185-2.224.371-4.329.59-6.3,0-.084.017-.152.017-.236.2-1.8.4-3.487.64-5.037.034-.286.067-.556.118-.825v-.017c.236-1.651.505-3.133.792-4.447a19.486,19.486,0,0,1,1.7-5.256l.017-.034a2.785,2.785,0,0,1,.623-.876c9.316-9.114,59.214-19.879,60.663-23.18,1.112-2.544,1.5-9.585,1.617-12.736a1.619,1.619,0,0,1,1.617-1.567h41.475a.82.82,0,0,1,.2.017,1.629,1.629,0,0,1,1.432,1.651c-.084,2.982-.118,9.114.657,10.344.3.489,4.127,2.662,9.569,6.081,9.164,5.745,22.911,15.044,32.058,25.825,4.077,4.8,7.244,9.889,8.693,15.094,5.29,19.053,8.086,95.67,8.979,125.622" transform="translate(46.372 62.045)" fill="#5840e2"/><path d="M120.08,110.666,10.752,180.239,30.63,227.861l100.218-46.8Z" transform="translate(7.361 75.764)" fill="#5840e2"/><path d="M65.334,263.109c-9.3-5.8-23.079-14.791-33.676-22.658-6.738-5-12.18-9.552-14.353-12.534-7.463-10.226-8-28.992-8.844-46.394-.825-17.385-1.651-40.583,3.319-53,4.97-12.432,13.8-17.4,13.8-17.4l.674-.034.067-.017,6.536-.387,2.156-.118,36.674-2.19s.286.657.775,1.786c1.078,2.46,3.133,7.193,5.391,12.466.084.2.168.4.253.623a.5.5,0,0,1,.067.168c1.887,4.414,3.875,9.148,5.526,13.241a100.892,100.892,0,0,1,3.723,10.074c.27,1.23.809,3.875,1.466,7.261.017.1.051.219.067.32l.1.505c2.022,10.377,5.155,26.92,6.385,32.783.489,2.392,2.072,6.132,4.195,10.546,2.561,5.34,5.93,11.658,9.114,17.689,2.78,5.256,5.424,10.293,7.278,14.269,0,.017.017.017.017.034l.354.758c0,.017.017.034.017.051,2.055,4.532,3.285,13.376,3.993,22.675.236,3.167.421,6.368.556,9.484Z" transform="translate(5.366 74.197)" fill="#dfdefe"/><path d="M60.694,110.543a127.872,127.872,0,0,1-15.263,5.694c-1.882.551-3.812,1.07-5.726,1.491-10.2,2.207-21.046-7.736-21.046-7.736l6.53-.357Z" transform="translate(12.774 75.059)" fill="#e8b47b"/><path d="M58.04,110.543a127.872,127.872,0,0,1-15.263,5.694,48.473,48.473,0,0,1-9.651-1.526,30.594,30.594,0,0,1-10.477-4.995.575.575,0,0,0-.115-.081Z" transform="translate(15.428 75.059)" fill="#2d1026"/><path d="M87.965,119.545c-2.65,21.78-28,22.094-44.9,20.908-2.559-.18-15.394.012-16.378-2.19-1.45-3.245-2.968-6.851-4.281-9.939-.165-.389.148.2-.03-.17a11.485,11.485,0,0,1-12.294-2.06,11.494,11.494,0,0,1-2.741-12.165,9.1,9.1,0,0,1,4.087-4.8,6.992,6.992,0,0,1,5.256-.713,3.49,3.49,0,0,1,.876.372,64.544,64.544,0,0,1,1.329-16.3,30.579,30.579,0,0,1,7.429-14.4,31.885,31.885,0,0,1,14.046-7.931c.974-.291,1.946-.536,2.936-.761a55.034,55.034,0,0,1,16.868-1.152,37.061,37.061,0,0,1,7.412,1.329,23.669,23.669,0,0,1,4.1,1.671A25.555,25.555,0,0,1,81.84,81.507a46.727,46.727,0,0,1,4.784,13.77A80.624,80.624,0,0,1,88,105.723a76.129,76.129,0,0,1-.039,13.822" transform="translate(4.539 46.578)" fill="#e8b47b"/><path d="M35.168,93.825A3.727,3.727,0,1,1,31.442,90.1a3.727,3.727,0,0,1,3.726,3.726" transform="translate(18.974 61.684)" fill="#2d1026"/><path d="M51.556,93.005a3.727,3.727,0,1,1-3.726-3.726,3.727,3.727,0,0,1,3.726,3.726" transform="translate(30.193 61.122)" fill="#2d1026"/><path d="M26.771,88.668a1.564,1.564,0,0,0-.384,1.112c.12.812,1.146,1.1,1.966,1.085a9.451,9.451,0,0,0,4.473-1.188,3.419,3.419,0,0,0,1.252-1.051,1.532,1.532,0,0,0,.123-1.563c-1.434-2.471-6.322.12-7.429,1.605" transform="translate(18.058 58.904)" fill="#ffcb7d"/><path d="M52,86.84a1.555,1.555,0,0,1,.615,1c.061.817-.881,1.316-1.683,1.486a9.472,9.472,0,0,1-4.624-.19,3.4,3.4,0,0,1-1.449-.755,1.527,1.527,0,0,1-.46-1.5c.864-2.722,6.2-1.255,7.6-.044" transform="translate(30.359 58.427)" fill="#ffcb7d"/><path d="M41.683,100.248a.407.407,0,0,1-.1-.8,2.143,2.143,0,0,0,1.309-2.025,4.276,4.276,0,0,0-2.481-4.058.405.405,0,1,1,.323-.743A5.105,5.105,0,0,1,43.7,97.473a2.9,2.9,0,0,1-1.919,2.761.414.414,0,0,1-.1.013" transform="translate(27.499 63.388)" fill="#2d1026"/><path d="M42.271,101.392a6.245,6.245,0,0,1-4.752-2.207.4.4,0,0,1,.622-.519,5.362,5.362,0,0,0,8.873-.986.406.406,0,1,1,.721.372,6.135,6.135,0,0,1-5.463,3.339" transform="translate(25.621 66.723)" fill="#2d1026"/><path d="M63.765,105.1a12.122,12.122,0,0,1-4.233-6.132,30.317,30.317,0,0,1-1.686-12.082c-.034.664-7.251-2.694-7.818-3.083a19.324,19.324,0,0,1-5.758-6.422c-.859-1.558-3.049-5.824-1.914-7.608a2.02,2.02,0,0,1,.989-.827,23.668,23.668,0,0,1,4.1,1.671A25.561,25.561,0,0,1,57.6,80.883a46.8,46.8,0,0,1,4.786,13.77A80.952,80.952,0,0,1,63.765,105.1" transform="translate(28.778 47.202)" fill="#ffd357"/><path d="M41.843,76.623a14.122,14.122,0,0,1-9.132,12.8,3.109,3.109,0,0,0-1.3.681,2.958,2.958,0,0,0-.487,1.833,19.515,19.515,0,0,1-11.306,16.09c-3.275,1.493-5.5,1.038-7.023-.47a3.439,3.439,0,0,1,.876.372,64.622,64.622,0,0,1,1.331-16.3,30.549,30.549,0,0,1,7.429-14.4A31.892,31.892,0,0,1,36.28,69.292,9.4,9.4,0,0,1,39,70.623a6.783,6.783,0,0,1,2.124,2.384,7.681,7.681,0,0,1,.714,3.617" transform="translate(8.625 47.439)" fill="#ffd357"/><path d="M50.964,64.391a10.656,10.656,0,0,1-.431,13.728c-2.7,2.835-6.841,3.907-10.756,3.792a14.539,14.539,0,0,1-8.959-3.019,8.734,8.734,0,0,1-3.106-8.583c.645-2.461,3.064-4.075,5.585-4.431a17.416,17.416,0,0,1,7.5,1.055c2.059.637,4.191,1.356,6.321,1.024s4.043-1.42,3.851-3.566" transform="translate(18.817 44.083)" fill="#ffd357"/><path d="M13.119,93.8s2.225,9.666,5.814,8.838,5.8-12.7,5.8-12.7Z" transform="translate(8.982 61.571)" fill="#ffd357"/><path d="M56.148,120.7s20.017-9.11,20.568-7.316-5.108,6.764-5.108,6.764,14.633-2.623,15.185-1.38-9.8,5.521-9.8,5.521,11.181-.827,11.6.414-11.181,4.832-11.181,4.832,11.457-1.38,11.733.414-11.733,5.937-11.733,5.937,7.178.689,7.178,2.347-23.467,5.8-23.467,5.8Z" transform="translate(38.44 77.464)" fill="#e8b47b"/><path d="M16.995,119.329s13.458,4.97,26.3,4.141c11.022-.711,35.018-6.306,41.585-7.874a1.615,1.615,0,0,1,1.969,1.321l4.318,26.855a1.614,1.614,0,0,1-.711,1.614c-4.385,2.871-24.553,15.261-44.883,14.528-22.983-.829-30.023-4.348-30.023-4.348Z" transform="translate(10.643 79.109)" fill="#dfdefe"/><path d="M39.024,161.581q-.895,0-1.713-.051c-12.987-.827-21.213-5.391-21.294-5.436a.406.406,0,0,1,.4-.708c.081.046,8.157,4.522,20.947,5.334,12.855.834,40.379-8.448,45.36-10.731,5.256-2.411,7.85-3.994,8.954-5.467,1.039-1.484-3.265-23.536-4.543-27.3-.7-2.077-5.056-.817-8.89.3a37.188,37.188,0,0,1-4.613,1.144c-.829.12-2.719.44-5.334.883-11.029,1.87-33.977,5.765-38.9,4.914-6-1.036-14.274-5.649-14.623-5.844a.405.405,0,0,1,.4-.708c.086.047,8.5,4.742,14.365,5.751,4.779.817,27.64-3.051,38.623-4.914,2.621-.445,4.516-.765,5.355-.884a36.69,36.69,0,0,0,4.5-1.122c4.39-1.272,8.928-2.586,9.884.224.928,2.731,5.913,26.061,4.424,28.046-1.208,1.61-3.806,3.213-9.265,5.718-4.806,2.2-30.47,10.854-44.034,10.854" transform="translate(9.974 78.934)" fill="#2d1026"/><path d="M107.586,188.906l-1.061,26.011H42.695c-.168-.1-.354-.2-.539-.337a3.9,3.9,0,0,1-1.853-4.346s-3.74-1.449-7.261-2.493c-3.5-1.028-4.97-6.621-4.97-6.621-3.925-.421-7.025-7.463-7.244-8.49-.034-.152.691-.27,1.937-.371,7.075-.505,31.2-.051,31.2-.051S34.289,181.645,34.71,179.169c.4-2.493,38.713,7.446,43.682,8.069,2.224.27,8.389.64,14.454.96,2.46.135,4.9.253,7.059.354,4.4.219,7.682.354,7.682.354" transform="translate(14.259 122.389)" fill="#e8b47b"/><path d="M139.016,127.153l-.2.927-1.466-2.173Z" transform="translate(94.031 86.198)" fill="#2d1026"/><path d="M239.333,201.218s-1.095,7.85-3.066,17.486c-2.308,11.337-5.829,25.168-10.192,31.519H63.408l.286-26.718.051-4.9v-.4l6.974-.455L78,217.256l1.617-.1.168-.017,13.191-.859,19.912-1.314,19.676-1.3,38.022-2.51,1.112-4.936,2.813-12.567,2.207-9.788,2.662-11.927,4.97-22.1,4.885-21.782.2-.859,2.123,3.15,1.937,2.847v.017l1.651,2.46.674,1.011v.017l7.665,11.321v.017Z" transform="translate(43.411 87.081)" fill="#5840e2"/><path d="M63.769,216.286a.4.4,0,0,1-.017-.809l121.822-4.958,9.9-79.582a.414.414,0,0,1,.453-.354.407.407,0,0,1,.352.453l-9.939,79.924a.407.407,0,0,1-.386.355l-122.165,4.97Z" transform="translate(43.38 89.4)" fill="#fedede"/><path d="M237.313,223.277H73.3c.64-3.083,1.4-6.284,2.291-9.484,2.342-8.592,5.526-17.1,9.771-23.281v-.017c.2-.286.387-.556.59-.825.084-.118.168-.219.253-.337a24.48,24.48,0,0,1,5.694-5.66,84.021,84.021,0,0,1,14.37-7.732,129.863,129.863,0,0,1,19.255-6.435c4.919-1.263,8.507-1.887,9.619-2.055.236-.051.371-.067.371-.067l32.227-.674,7.244-.152s.3.034.876.084c1.011.1,2.83.32,5.222.657.27.051.539.084.809.118,1.988.32,4.329.708,6.856,1.213a112.537,112.537,0,0,1,18.918,5.357c7.547,2.914,14.555,6.957,18.666,12.432a31.251,31.251,0,0,1,3.167,5.34c4.144,8.575,6.486,20.7,7.817,31.519" transform="translate(50.181 114.028)" fill="#fedede"/><path d="M125.136,109.27a38.511,38.511,0,0,0-13.042,1.912,19.3,19.3,0,0,0-10.224,8,15.36,15.36,0,0,0-2.1,7.86,3.416,3.416,0,0,1-.2,1.548,3.113,3.113,0,0,1-.571.733,30.886,30.886,0,0,0-7.48,11.8c-1.391,4.49-1.157,9.641,1.415,13.575a15.081,15.081,0,0,0,12.716,6.391,21,21,0,0,0,13.426-5.559,35.057,35.057,0,0,0,8.43-12.085,53.113,53.113,0,0,0,4.587-19.8c.152-4.367-.3-8.949-2.655-12.631a7.846,7.846,0,0,0-1.142-1.445Z" transform="translate(62.074 74.809)" fill="#ffd357"/><path d="M111.087,159.4l-.751,11.893L110,176.5s1.979,13.214,16.115,15.389c14.158,2.158,24.506-14.88,24.506-14.88l1.707-23.672-11.28,1.659Z" transform="translate(75.311 104.975)" fill="#e8b47b"/><path d="M110.952,158.723l-.751,11.893a4.459,4.459,0,0,0,.64.441,12.694,12.694,0,0,0,6.038,1.388,38.67,38.67,0,0,0,15.234-2.219c3.977-1.53,9.65-4.619,11.462-8.763,1.221-2.84-.352-5.33-2.658-7.146Z" transform="translate(75.446 105.649)" fill="#2d1026"/><path d="M97.057,159.508c-.357,8.085-2.232,20.529,5.318,29.956C113.642,203.53,158.8,195.1,158.8,195.1a84.691,84.691,0,0,1,2.721-11.863c-.185,1.137,9.336,1.516,10.276,1.346a15.082,15.082,0,0,0,7.992-4.084c4.451-4.407,5.335-11.781,1.4-16.791-1.831-2.337-4.734-4.22-7.749-4.092-1.063.047-3.656.389-4.872,1.376a1.583,1.583,0,0,0-.627.876,83.2,83.2,0,0,0,2.82-16.051,34.849,34.849,0,0,0-26.6-34.646,54.419,54.419,0,0,0-7.382-1.262c-.728-.088-1.429-.157-2.151-.185-.339-.025-.681-.022-1.021-.032a3.423,3.423,0,0,0-.413-.008c-.113,0-.229.007-.342,0-.4-.007-.8-.012-1.2,0a31.481,31.481,0,0,0-25.141,12.663,43.978,43.978,0,0,0-7.433,17.673,123.128,123.128,0,0,0-2.023,19.491" transform="translate(66.129 75.086)" fill="#e8b47b"/><path d="M99.361,132.149c.426.8,1.771,1.129,2.973,1.237a17.876,17.876,0,0,0,4.42-.152,5.624,5.624,0,0,0,2.151-.7c2.266-1.5-.226-3.925-2.852-3.844-2.2.066-7.855,1.279-6.693,3.458" transform="translate(67.918 88.103)" fill="#ffd357"/><path d="M127.408,135.307c-.519.74-1.894.906-3.1.869a17.739,17.739,0,0,1-4.368-.682,5.622,5.622,0,0,1-2.054-.954c-2.069-1.757.7-3.868,3.3-3.474,2.173.332,7.643,2.217,6.226,4.24" transform="translate(80.211 89.698)" fill="#ffd357"/><path d="M109.658,148.139a.4.4,0,0,1-.157-.034,2.789,2.789,0,0,0-.906-.142,2.894,2.894,0,0,1-1.365-.3,2.138,2.138,0,0,1-.878-2.283,5.113,5.113,0,0,1,1.044-2.01c1.034-1.4,2.143-2.766,3.29-4.055a.405.405,0,1,1,.6.539c-1.13,1.27-2.222,2.616-3.245,4a4.536,4.536,0,0,0-.9,1.688,1.36,1.36,0,0,0,.492,1.422,2.273,2.273,0,0,0,1,.192,3.376,3.376,0,0,1,1.179.2.406.406,0,0,1-.157.78" transform="translate(72.778 95.286)" fill="#2d1026"/><path d="M111.245,149.131a6.783,6.783,0,0,1-3.982-1.29.406.406,0,0,1,.48-.654,5.857,5.857,0,0,0,8.573-1.848.406.406,0,1,1,.708.4,6.76,6.76,0,0,1-4.407,3.25,6.47,6.47,0,0,1-1.371.145" transform="translate(73.321 99.361)" fill="#2d1026"/><path d="M116.411,139.841a3.962,3.962,0,1,0,4.419-3.445,3.962,3.962,0,0,0-4.419,3.445" transform="translate(79.677 93.359)" fill="#2d1026"/><path d="M99.516,138.45a3.962,3.962,0,1,0,4.419-3.445,3.962,3.962,0,0,0-4.419,3.445" transform="translate(68.11 92.407)" fill="#2d1026"/><path d="M136.347,156.052a.354.354,0,0,0,.4-.231,30.494,30.494,0,0,1,3.427-7.182,12.69,12.69,0,0,1,5.94-4.838,7.668,7.668,0,0,1,7.192.927.356.356,0,0,0,.436-.563,8.385,8.385,0,0,0-7.864-1.036,13.4,13.4,0,0,0-6.289,5.1,30.962,30.962,0,0,0-3.512,7.35.354.354,0,0,0,.216.453.309.309,0,0,0,.052.015" transform="translate(93.149 97.629)" fill="#2d1026"/><path d="M175.432,164.462c.057-.475-1.432-1.285-1.739-1.584-1.951-1.905-4.55-2.052-7.092-1.243a6.692,6.692,0,0,0-4.382,4.014c-.145.31-1.8,4.028-1.727,4.062-2.323-1.043-3.725-5.133-4.129-7.647a21.3,21.3,0,0,1,.554-7.577c-3.44.081-7.114-.323-9.8-2.476-2.705-2.168-3.907-5.751-4.176-9.208s.251-6.924.318-10.391a1.733,1.733,0,0,0-.492-1.52,1.446,1.446,0,0,0-.9-.189c-1.54.071-2.9.955-4.3,1.619a16,16,0,0,1-22-9.237c-.593-1.722-.94-3.632-2.207-4.943-2.32-2.4-6.29-1.545-9.432-.425,13.635-9.621,31.846-13.236,47.264-6.848a38.846,38.846,0,0,1,17.336,13.437c3.871,5.642,5.81,12.409,6.787,19.181a82.216,82.216,0,0,1,.116,20.974" transform="translate(71.151 73.711)" fill="#ffd357"/><path d="M145.727,103.07a15.459,15.459,0,0,1,9.235-2.291,10.932,10.932,0,0,1,9.265,9.265,34.922,34.922,0,0,1,8.064-.628,11.742,11.742,0,0,1,7.355,3,10.912,10.912,0,0,1,2.817,9.1,20.12,20.12,0,0,1-3.859,8.976c3.637,2.259,7.244,5.645,7.22,9.926a9.5,9.5,0,0,1-3.12,6.6,21.477,21.477,0,0,1-6.336,3.93,40.115,40.115,0,0,1-12.828,3.531,24.349,24.349,0,0,1-13-2.289c-3.988-2.02-7.192-5.3-10.042-8.743a59.912,59.912,0,0,1-5.964-8.49c-1.437-2.522-3.671-6.105-3.477-9.119.162-2.522,1.385-5.638,2.252-8.005a28.574,28.574,0,0,1,4.533-8.027,27.3,27.3,0,0,1,7.881-6.728" transform="translate(89.719 68.943)" fill="#ffd357"/><path d="M193.381,222.435H92.118Q92.9,205.656,93.2,188.81c.017-.27.017-.539.017-.809.017-.27.017-.539.017-.825q.1-6.014.152-12.079a129.863,129.863,0,0,1,19.255-6.435,146.525,146.525,0,0,0,.27,17.2v.017c.034.438.067.893.118,1.331.017.27.034.522.067.792a21.729,21.729,0,0,0,2.392,8.676c3.234,5.694,10.007,8.339,16.425,9.586a64.893,64.893,0,0,0,22.17.354,19.691,19.691,0,0,0,6.536-1.954c3.976-2.156,6.351-6.317,8.221-10.445a84.14,84.14,0,0,0,7.025-26.432,112.537,112.537,0,0,1,18.918,5.357,481.254,481.254,0,0,0-1.4,49.292" transform="translate(63.066 114.87)" fill="#f46464"/><path d="M77.02,68.557c-.179.256-.359.512-.551.758-3.886,5.19-8.878,8.881-14.956,7.214-6.29-1.722-9.789-7.855-11.7-14.673-.081-.266-.162-.532-.224-.824-2.7-10.21-2.015-21.555-2.015-21.555L53.3,40.8l.75.182,8.019,1.867.763.19L68,44.243l.772.179,6.954,1.614.75.182,6.838,1.592.772.177,2,.468s-3.113,11.7-9.06,20.1" transform="translate(32.514 27.027)" fill="#ff7373"/><path d="M76.17,60.365c-.179.256-.359.512-.551.758a7.486,7.486,0,0,0-.332-.805c-1.41-2.857-5.36-4.35-8.79-3.322a12.187,12.187,0,0,0-7.276,7.03.374.374,0,0,1-.443.224.445.445,0,0,1-.133-.056.405.405,0,0,1-.163-.364,22.263,22.263,0,0,0-.093-6.071,7.334,7.334,0,0,0-3.047-4.847,5.286,5.286,0,0,0-4.377-.4,5.6,5.6,0,0,0-2.006,1.149c-.081-.266-.162-.532-.224-.824a6.287,6.287,0,0,1,1.988-1.066c.17-.052.34-.1.524-.148a4.955,4.955,0,0,1,.783-.138,5.815,5.815,0,0,1,3.721.76,6.274,6.274,0,0,1,1.575,1.371,5.372,5.372,0,0,1,.595.837A9.115,9.115,0,0,1,59.147,57.6a18.312,18.312,0,0,1,.248,4.407A13.36,13.36,0,0,1,61.357,59.4a9.466,9.466,0,0,1,1.117-1.048l.008-.013a10.554,10.554,0,0,1,3.794-2.091,8.822,8.822,0,0,1,2.123-.361,5.546,5.546,0,0,1,.852.007,8.3,8.3,0,0,1,4.7,1.675,4.1,4.1,0,0,1,.59.49,6.821,6.821,0,0,1,1.445,1.91c.057.135.138.268.182.394" transform="translate(33.364 35.219)" fill="#2d1026"/><path d="M50.643,59.634a.458.458,0,0,1-.236-.071.36.36,0,0,1-.163-.285l0-.022a104.237,104.237,0,0,1,1.2-18.992l.75.182A103.86,103.86,0,0,0,51.027,59.14c-.005.035,0,.056-.007.091a.394.394,0,0,1-.377.4" transform="translate(34.367 27.566)" fill="#2d1026"/><path d="M54.511,61.251l-.019.025a.4.4,0,0,1-.443.28.716.716,0,0,1-.147-.064.383.383,0,0,1-.15-.411c.052-.211.093-.431.145-.642,1.408-6.279,2.711-12.653,3.89-18.959l.763.19c-1.211,6.514-2.574,13.111-4.04,19.58" transform="translate(36.792 28.398)" fill="#2d1026"/><path d="M56.984,65.726a.4.4,0,0,1-.5.244c-.025-.019-.072-.032-.1-.051a.391.391,0,0,1-.16-.263.274.274,0,0,1,.013-.182,152.311,152.311,0,0,0,5.775-23.17l.772.179A154.415,154.415,0,0,1,57.358,64.6l-.01.012c-.113.379-.238.75-.364,1.119" transform="translate(38.49 28.963)" fill="#2d1026"/><path d="M61.128,61.774a.4.4,0,0,1-.512.214l-.064-.045a.4.4,0,0,1-.148-.467c.008-.013.013-.047.022-.061A155.3,155.3,0,0,0,66.9,43.37l.75.184A159.436,159.436,0,0,1,61.28,61.422c-.047.121-.106.232-.152.352" transform="translate(41.337 29.692)" fill="#2d1026"/><path d="M64.387,62.8a.2.2,0,0,1-.067.067.371.371,0,0,1-.473.051l-.012-.01a.391.391,0,0,1-.115-.517l.01-.013a91.571,91.571,0,0,0,8.507-17.953l.77.177a91.981,91.981,0,0,1-8.62,18.2" transform="translate(43.587 30.413)" fill="#2d1026"/><path d="M59.2,67.118a15.154,15.154,0,0,0-12.155-9.067,22.009,22.009,0,0,0,4.417,7.321A7.173,7.173,0,0,0,59.2,67.118" transform="translate(32.205 39.743)" fill="#925cd5"/><path d="M56.26,66a15.153,15.153,0,0,1,14.665-3.853,21.981,21.981,0,0,1-6.836,5.133A7.176,7.176,0,0,1,56.26,66" transform="translate(38.517 42.173)" fill="#925cd5"/><path d="M120.543,10.229l-4.4,1.7a7.22,7.22,0,0,0-4.129,4.131l-1.7,4.4-1.7-4.4a7.228,7.228,0,0,0-4.131-4.131l-4.4-1.7,4.4-1.7A7.228,7.228,0,0,0,108.614,4.4l1.7-4.4,1.7,4.4a7.22,7.22,0,0,0,4.129,4.131Z" transform="translate(68.52)" fill="#fff"/><path d="M188.374,105.974l-4.4,1.7a7.207,7.207,0,0,0-4.132,4.131l-1.7,4.4-1.7-4.4a7.218,7.218,0,0,0-4.131-4.131l-4.4-1.7,4.4-1.7a7.228,7.228,0,0,0,4.131-4.131l1.7-4.4,1.7,4.4a7.216,7.216,0,0,0,4.132,4.131Z" transform="translate(114.958 65.549)" fill="#fff"/><path d="M189.592,187.432l-4.4,1.7a7.219,7.219,0,0,0-4.131,4.131l-1.7,4.4-1.7-4.4a7.228,7.228,0,0,0-4.131-4.131l-4.4-1.7,4.4-1.7a7.228,7.228,0,0,0,4.131-4.131l1.7-4.4,1.7,4.4a7.218,7.218,0,0,0,4.131,4.131Z" transform="translate(115.793 121.317)" fill="#fff"/><path d="M20.458,151l-4.4,1.7a7.213,7.213,0,0,0-4.129,4.129l-1.7,4.4-1.7-4.4A7.22,7.22,0,0,0,4.4,152.7L0,151l4.4-1.7a7.228,7.228,0,0,0,4.131-4.131l1.7-4.4,1.7,4.4A7.22,7.22,0,0,0,16.06,149.3Z" transform="translate(0 96.371)" fill="#fff"/><path d="M33.649,56.442l-4.4,1.7a7.211,7.211,0,0,0-4.129,4.131l-1.7,4.4-1.7-4.4a7.218,7.218,0,0,0-4.131-4.131l-4.4-1.7,4.4-1.7a7.228,7.228,0,0,0,4.131-4.131l1.7-4.4,1.7,4.4a7.22,7.22,0,0,0,4.129,4.131Z" transform="translate(9.031 31.638)" fill="#fff"/><path d="M99.72,95.494l-4.4,1.7a7.22,7.22,0,0,0-4.129,4.131l-1.7,4.4-1.7-4.4a7.228,7.228,0,0,0-4.131-4.131l-4.4-1.7,4.4-1.7a7.228,7.228,0,0,0,4.131-4.131l1.7-4.4,1.7,4.4a7.22,7.22,0,0,0,4.129,4.131Z" transform="translate(54.264 58.374)" fill="#fff"/></g></g></g></g></svg>