<svg xmlns="http://www.w3.org/2000/svg" xmlns:xlink="http://www.w3.org/1999/xlink" width="63.588" height="67.02" viewBox="0 0 63.588 67.02"><defs><clipPath id="a"><rect width="63.588" height="67.02" fill="none"/></clipPath></defs><g transform="translate(-676.5 -7035)"><g transform="translate(676.5 7035)"><g clip-path="url(#a)"><path d="M2.614,41.952a6.785,6.785,0,0,1-.006-2.583,1.031,1.031,0,0,0,1.158-.746A7.216,7.216,0,0,1,10.7,33.256c.743-.048,1.111-.432,1.084-1.039-.028-.623-.462-.932-1.25-.914A8.869,8.869,0,0,0,5.58,32.913c-.354.245-.449.192-.5-.231A4.6,4.6,0,0,1,7.339,28.1c.927-.543.986-.662.771-1.664A5.954,5.954,0,0,1,8.2,23.458a6.244,6.244,0,0,1,8.829-3.664c.735.376,1.285.284,1.582-.266s.077-1.083-.651-1.469a9.2,9.2,0,0,0-3.234-.964c-.387-.048-.941.215-1.122-.171a2.7,2.7,0,0,1,.038-1.284,3.212,3.212,0,0,1,.179-.694,5.787,5.787,0,0,1,4.724-4.107,5.505,5.505,0,0,1,5.731,2.442c.482.675,1.024.824,1.534.439.481-.363.5-.931.069-1.56a7.14,7.14,0,0,0-1.688-1.807c-.356-.253-.349-.44-.128-.774A4.64,4.64,0,0,1,29.1,7.69a4.57,4.57,0,0,1,3.356,4.13c.035.7.019,1.4.022,2.093,0,.785-.01,1.571.01,2.355a.937.937,0,0,0,.668.948.951.951,0,0,0,1.068-.293,1.356,1.356,0,0,0,.22-.932c.036-1.525-.107-3.055.082-4.575A4.531,4.531,0,0,1,38.051,7.65,4.608,4.608,0,0,1,42.9,9.593c.2.311.221.493-.116.737A7.08,7.08,0,0,0,40.908,12.4a.97.97,0,0,0,1.586,1.118c.156-.181.281-.388.43-.576a5.5,5.5,0,0,1,5.742-2.026c.052.231.093.465.157.692a6.7,6.7,0,0,1,.351,2.487c-.1,1.051-.1,1.082.892,1.424a4.616,4.616,0,0,1,2.393,1.546,9.167,9.167,0,0,0-3.7,1.117.969.969,0,0,0-.455,1.281.954.954,0,0,0,1.254.5c.182-.066.349-.172.525-.254a5.542,5.542,0,0,1,4.092-.435,5.2,5.2,0,0,1,.5,2.207,4.123,4.123,0,0,0,1.6,3.985,5.214,5.214,0,0,1,.9,5.863c-.216-.006-.432-.008-.648-.018-.882-.038-1.338.267-1.362.915s.39.989,1.278,1.048a5.174,5.174,0,0,1,1.779.314.12.12,0,0,0,.173.04l.033.012c-.135.25,0,.459.1.679a8.33,8.33,0,0,1-2.254,9.639,1.77,1.77,0,0,0-.583,1.988,4.467,4.467,0,0,1,.172,1.024,6.888,6.888,0,0,1-3.205,6.376c-.659.438-1.232.917-1.118,1.83.01.084-.092.182-.142.274a2.831,2.831,0,0,1-.745-.5.975.975,0,0,0-1.437.117,1,1,0,0,0,.227,1.428,10.159,10.159,0,0,0,1.847,1.186,8.768,8.768,0,0,1-3.169,4.97c-.095-.261-.18-.526-.287-.781a.979.979,0,1,0-1.852.637,5.179,5.179,0,0,1,.312,1.31A7.692,7.692,0,0,1,42.9,64.6a2.3,2.3,0,0,0-2.063,1.091,6.536,6.536,0,0,1-4.889,2.844,5.792,5.792,0,0,1-1.5-4.186c0-1.592.014-3.185-.011-4.777a.961.961,0,0,0-1.445-.908,1.141,1.141,0,0,0-.513,1.125c0,1.723.041,3.449-.028,5.169A5.941,5.941,0,1,1,20.887,62.78c.256-.818.053-1.37-.57-1.553-.576-.169-1.055.172-1.308.954a7.57,7.57,0,0,0-.231,4.061c.089.395-.016.435-.373.395a8.2,8.2,0,0,1-7.247-7.77c-.021-.457.033-.645.587-.592a7.63,7.63,0,0,0,5.359-1.46c.852-.619,1.053-1.168.663-1.714-.4-.565-.935-.532-1.8.11a5.62,5.62,0,0,1-7.251-.374,5.956,5.956,0,0,1-.969-7.478c.28-.415.5-.7.923-.131a2.448,2.448,0,0,0,.661.526.977.977,0,0,0,1.44-.189.951.951,0,0,0-.327-1.41,3.158,3.158,0,0,1-1.389-2.469c-.057-.69-.453-1.036-1.042-.994a.922.922,0,0,0-.886,1.136,2.074,2.074,0,0,1-.7,2.059c-.314.335-.447.252-.7,0A7.3,7.3,0,0,1,3.862,42.86a1.125,1.125,0,0,0-1.248-.908m46.05-11q0-1.289,0-2.578a1.028,1.028,0,0,0,.959-1.173c-.011-.915.007-1.83,0-2.745A2.867,2.867,0,0,0,46.546,21.4c-3.637,0-7.273.008-10.91-.008-.777,0-1.436.552-2.073.577s-1.326-.613-2.131-.579c-.913.039-1.83.036-2.743,0a1.16,1.16,0,0,0-1.352.935l-2.574,0a1.06,1.06,0,0,0-1.209-.929c-1.046.018-2.092,0-3.139.006a2.8,2.8,0,0,0-2.953,2.775c-.056,3.837-.02,7.675-.017,11.513,0,.678.584,1.254.575,1.814s-.574,1.14-.575,1.816c-.005,3.816-.035,7.632.012,11.447a2.822,2.822,0,0,0,2.97,2.831c.806.008,1.613,0,2.419,0,2.768,0,5.536-.015,8.3.009a15.679,15.679,0,0,0,2.348-.559c.675-.085,1.447.622,2.318.562.8-.056,1.612-.009,2.418-.013.959,0,1.272-.326,1.277-1.3,0-.283-.006-.567,0-.85a1.552,1.552,0,1,1,3.1-.061c.024.391-.005.785.01,1.177A.95.95,0,0,0,43.636,53.6c1.09.019,2.181.033,3.269,0a2.819,2.819,0,0,0,2.7-2.683,7.516,7.516,0,0,0,0-1.437c-.095-.7.154-.982.856-.967a2.1,2.1,0,0,0,.812-.218,3.494,3.494,0,0,0-1.155-6.714c-.4-.021-.535-.118-.508-.521.034-.5,0-1,.01-1.5.022-.751-.526-1.39-.568-2.012s.595-1.286.572-2.066c-.031-1.089-.025-2.181,0-3.271a1.092,1.092,0,0,0-.966-1.251" transform="translate(-1.835 -5.558)" fill="#f5cdbf"/><path d="M56.382,28.03a5.174,5.174,0,0,0-1.779-.314c-.889-.059-1.3-.4-1.278-1.048s.48-.953,1.362-.915c.216.009.432.012.649.018A9.51,9.51,0,0,1,59.5,27.341c.376.265.5.2.547-.246A4.621,4.621,0,0,0,57.7,22.5c-.819-.461-.907-.66-.7-1.576a5.971,5.971,0,0,0-4.659-7.2,5.541,5.541,0,0,0-4.092.435c-.176.083-.344.188-.525.254a.954.954,0,0,1-1.254-.5.969.969,0,0,1,.455-1.281,9.167,9.167,0,0,1,3.7-1.117c.195.007.391,0,.584.023.24.026.333-.042.36-.307a5.928,5.928,0,0,0-4.738-5.864,5.5,5.5,0,0,0-5.742,2.026c-.149.188-.274.395-.43.576a.97.97,0,0,1-1.586-1.118,7.076,7.076,0,0,1,1.872-2.075c.336-.244.316-.426.116-.737a4.607,4.607,0,0,0-4.845-1.942A4.531,4.531,0,0,0,32.7,5.856a45.665,45.665,0,0,0-.082,4.575,1.357,1.357,0,0,1-.22.932.951.951,0,0,1-1.068.293.937.937,0,0,1-.669-.948c-.02-.785-.006-1.57-.01-2.355,0-.7.013-1.4-.022-2.093a4.571,4.571,0,0,0-3.356-4.13A4.64,4.64,0,0,0,22.225,4.02c-.221.334-.228.521.128.774A7.141,7.141,0,0,1,24.042,6.6c.436.629.413,1.2-.069,1.56-.511.385-1.052.237-1.534-.439a5.506,5.506,0,0,0-5.731-2.442,5.787,5.787,0,0,0-4.723,4.107,3.216,3.216,0,0,0-.179.694,2.7,2.7,0,0,0-.038,1.284c.181.385.735.123,1.122.171a9.2,9.2,0,0,1,3.234.964c.728.386.954.909.651,1.469s-.848.642-1.583.266A6.244,6.244,0,0,0,6.362,17.9a5.957,5.957,0,0,0-.086,2.973c.214,1,.156,1.121-.771,1.664a4.6,4.6,0,0,0-2.262,4.588c.053.422.149.476.5.231A8.868,8.868,0,0,1,8.7,25.746c.788-.018,1.222.291,1.25.914.027.607-.341.991-1.084,1.039a7.216,7.216,0,0,0-6.933,5.366,1.032,1.032,0,0,1-1.158.746C0,33.427-.132,33.126.111,32.3a8.366,8.366,0,0,1,1.325-2.675.936.936,0,0,0,.159-1,6.5,6.5,0,0,1,2.271-7.352c.248-.188.426-.328.374-.727a7.885,7.885,0,0,1,5.022-8.423c.329-.129.532-.214.514-.665a7.915,7.915,0,0,1,9.877-7.992.6.6,0,0,0,.818-.319,6.518,6.518,0,0,1,10.829-.5c.318.42.419.331.688-.022a6.522,6.522,0,0,1,10.831.538.575.575,0,0,0,.768.313,7.915,7.915,0,0,1,9.921,7.873.677.677,0,0,0,.532.787,7.865,7.865,0,0,1,5,8.364.648.648,0,0,0,.283.708,6.452,6.452,0,0,1,2.306,7.554.707.707,0,0,0,.107.709,9.27,9.27,0,0,1-1.543,12.743.617.617,0,0,0-.227.721,7.923,7.923,0,0,1-3.7,8.867.667.667,0,0,0-.391.706A10.016,10.016,0,0,1,45.89,63.078a.733.733,0,0,0-.664.392,7.811,7.811,0,0,1-4.691,3.309c-.907.229-1.188.083-1.563-.792a1.223,1.223,0,0,1,1.082-1.111,5.894,5.894,0,0,0,4.4-6.621,5.179,5.179,0,0,0-.312-1.31.979.979,0,1,1,1.852-.637c.107.255.192.52.287.781a8.955,8.955,0,0,1,.048,3.626c-.082.354.06.386.376.351a8.1,8.1,0,0,0,7.228-7.856c.008-.268.1-.572-.4-.506a8.246,8.246,0,0,1-4.081-.585A10.157,10.157,0,0,1,47.6,50.933a1,1,0,0,1-.227-1.428.975.975,0,0,1,1.437-.117,2.832,2.832,0,0,0,.746.5,5.493,5.493,0,0,0,7.121-.9,5.976,5.976,0,0,0,.569-7.36c-.253-.331-.416-.415-.72-.054a3.453,3.453,0,0,1-.807.656A.97.97,0,0,1,54.331,42a.944.944,0,0,1,.284-1.372,3.1,3.1,0,0,0,1.424-2.508.952.952,0,0,1,1.125-.98.923.923,0,0,1,.8,1.2,1.755,1.755,0,0,0,.65,1.864.331.331,0,0,1,.084.1c.179.327.356.355.637.073a7.142,7.142,0,0,0,2.092-6.933,6.989,6.989,0,0,0-4.837-5.364l-.033-.012-.173-.04" transform="translate(0 0)" fill="#040303"/><path d="M.887,138.766a1.126,1.126,0,0,1,1.248.908A7.3,7.3,0,0,0,4,142.7c.251.251.383.335.7,0a2.073,2.073,0,0,0,.7-2.059.922.922,0,0,1,.886-1.136c.589-.042.985.3,1.042.993a3.16,3.16,0,0,0,1.389,2.469.951.951,0,0,1,.327,1.41.977.977,0,0,1-1.44.189,2.443,2.443,0,0,1-.661-.526c-.42-.564-.643-.284-.923.131a5.955,5.955,0,0,0,.969,7.478,5.62,5.62,0,0,0,7.251.375c.864-.642,1.4-.675,1.8-.11.39.547.188,1.1-.663,1.715a7.63,7.63,0,0,1-5.359,1.46c-.555-.053-.608.135-.587.592a8.2,8.2,0,0,0,7.247,7.77c.357.04.463,0,.374-.394A7.569,7.569,0,0,1,17.283,159c.253-.783.732-1.123,1.308-.954.623.183.826.735.57,1.553a5.941,5.941,0,1,0,11.566,2.177c.07-1.721.026-3.446.028-5.169a1.14,1.14,0,0,1,.513-1.125.961.961,0,0,1,1.445.908c.025,1.592.007,3.185.011,4.777a5.791,5.791,0,0,0,1.5,4.186,4.763,4.763,0,0,0,1.678,1.373,1.065,1.065,0,0,1,.627,1.324c-.514.676-.894.769-1.611.38a8.2,8.2,0,0,1-3.181-3.138,8.289,8.289,0,0,1-2.042,2.394,7.927,7.927,0,0,1-11.451-1.725,1.011,1.011,0,0,0-.938-.508,10.078,10.078,0,0,1-9.808-10.6.607.607,0,0,0-.369-.655,7.923,7.923,0,0,1-3.721-8.855.624.624,0,0,0-.238-.765,9.049,9.049,0,0,1-2.879-4.195c-.29-.854-.178-1.148.595-1.609" transform="translate(-0.108 -102.373)" fill="#040404"/><path d="M132.4,229.555a1.065,1.065,0,0,0-.627-1.324,4.763,4.763,0,0,1-1.678-1.373,6.535,6.535,0,0,0,4.889-2.844,2.3,2.3,0,0,1,2.063-1.091,7.692,7.692,0,0,0,3.381-.786,5.894,5.894,0,0,1-4.4,6.621,1.223,1.223,0,0,0-1.082,1.111,6.261,6.261,0,0,1-2.55-.314" transform="translate(-95.977 -163.882)" fill="#f3baad"/><path d="M69.377,61.318a1.16,1.16,0,0,1,1.352-.935c.913.035,1.83.038,2.743,0,.8-.034,1.485.6,2.131.579s1.3-.58,2.073-.577c3.637.016,7.273,0,10.91.008a2.867,2.867,0,0,1,3.076,3.048c.011.915-.007,1.83,0,2.745a1.028,1.028,0,0,1-.959,1.173c-.766-.181-.995-.438-1.007-1.2-.014-.891,0-1.784-.006-2.675-.01-.828-.315-1.118-1.158-1.124-.239,0-.477.014-.716.022-3.423-.007-6.845-.021-10.268-.017-.652,0-.973.36-.981,1.041-.012.96.007,1.92-.007,2.879a1.025,1.025,0,0,1-1.13,1.143c-.435.018-.873-.011-1.308.02a1.522,1.522,0,0,0,0,3.036c.434.033.872.006,1.307.022a1.024,1.024,0,0,1,1.133,1.138c.013.611-.009,1.222.006,1.832.017.651-.275,1.506.1,1.9.409.424,1.279.066,1.939.147.688.084,1-.06,1.094-.868a3.47,3.47,0,0,1,6.887.136c.053.756.371.786.912.731.107-.011.213-.033.32-.05.151.013.3.037.453.038,1.195.013,1.414-.206,1.416-1.4,0-.96-.006-1.919,0-2.879.007-.812.2-1.052,1.005-1.29a1.093,1.093,0,0,1,.966,1.251c-.024,1.09-.03,2.181,0,3.271.022.78-.614,1.449-.572,2.066s.589,1.261.568,2.012c-.015.5.023,1-.01,1.5-.027.4.11.5.508.521a3.494,3.494,0,0,1,1.155,6.714,2.1,2.1,0,0,1-.812.218c-.7-.015-.951.266-.856.967a7.5,7.5,0,0,1,0,1.437,2.818,2.818,0,0,1-2.7,2.683c-1.089.038-2.18.024-3.269,0a.95.95,0,0,1-1.011-1.033c-.015-.392.014-.786-.01-1.177a1.552,1.552,0,1,0-3.1.061c-.009.283,0,.567,0,.85,0,.978-.318,1.3-1.277,1.3-.806,0-1.616-.043-2.418.013-.871.06-1.644-.647-2.318-.562a15.68,15.68,0,0,1-2.348.559c-2.768-.024-5.536-.009-8.3-.009-.806,0-1.613.006-2.419,0a2.822,2.822,0,0,1-2.97-2.831c-.046-3.815-.017-7.631-.011-11.447,0-.677.567-1.251.575-1.816s-.574-1.136-.575-1.814c0-3.837-.04-7.676.017-11.512a2.8,2.8,0,0,1,2.953-2.775c1.046-.009,2.093.011,3.139-.007a1.06,1.06,0,0,1,1.209.929c-.156.8-.429,1.034-1.23,1.039-.959.006-1.919,0-2.878,0s-1.249.29-1.253,1.248c-.006,1.462,0,2.923,0,4.385,0,2.116-.006,4.232,0,6.348,0,.849.3,1.151,1.136,1.178.457.015.918-.024,1.373.011.43.033.589-.072.615-.551a3.316,3.316,0,0,1,1.549-2.668,3.483,3.483,0,0,1,5.418,2.608c.062.535.24.635.707.612.652-.033,1.308-.021,1.962,0,.315.008.416-.106.407-.418-.019-.7-.031-1.4,0-2.094.021-.425-.11-.545-.537-.568a3.437,3.437,0,0,1-3.315-3.179,3.548,3.548,0,0,1,2.586-3.7c.415-.126,1.02.184,1.219-.312a3.925,3.925,0,0,0,.038-1.361c0-.153,0-.306,0-.458a.957.957,0,0,0-1.1-1.071c-.938-.009-1.875,0-2.813,0-.864,0-1.088-.182-1.316-1.037M87.823,90.6c.152.007.3.021.455.022,1.184.007,1.417-.221,1.419-1.391,0-.762,0-1.524,0-2.286.006-1.033.3-1.325,1.312-1.341a8.059,8.059,0,0,0,1.235-.065,1.464,1.464,0,0,0,1.233-1.592,1.5,1.5,0,0,0-1.422-1.434c-.368-.025-.74,0-1.11-.01-.882-.011-1.232-.346-1.245-1.221-.012-.849,0-1.7,0-2.547,0-1.025-.243-1.256-1.287-1.253-.194,0-.389.025-.583.038-.653-.014-1.305-.019-1.958-.043-.85-.03-1.175-.368-1.185-1.213,0-.371.014-.743-.008-1.112a1.567,1.567,0,0,0-1.511-1.513,1.543,1.543,0,0,0-1.557,1.387,10.2,10.2,0,0,0-.032,1.176c-.013.943-.314,1.263-1.249,1.275-1.068.013-2.137.029-3.2-.008-.474-.017-.579.142-.567.587.031,1.112.021,2.225.006,3.337A1,1,0,0,1,75.474,82.5c-.436.016-.874-.016-1.308.014a1.5,1.5,0,0,0-1.409,1.452,1.46,1.46,0,0,0,1.256,1.575,11.307,11.307,0,0,0,1.368.061c.843.025,1.176.356,1.184,1.206s0,1.7,0,2.552c0,.991.279,1.259,1.292,1.261.371,0,.744-.026,1.111.007.444.04.613-.052.647-.572a3.474,3.474,0,0,1,3.35-3.227A3.392,3.392,0,0,1,86.527,89.8c.092.777.393.921,1.036.826.086-.013.173-.016.26-.023m-19.788.023q2.649,0,5.3,0c.983,0,1.266-.293,1.27-1.3,0-.174,0-.349,0-.523,0-1.115,0-1.114-1.064-1.326-.064-.013-.127-.029-.19-.046a3.511,3.511,0,0,1-2.537-3.851,3.466,3.466,0,0,1,3.263-3.022c.424-.018.562-.119.539-.548a19.584,19.584,0,0,1,0-2.028c.02-.408-.112-.52-.512-.511-1.111.025-2.224.024-3.336,0-.822-.016-1.133-.355-1.151-1.17a11.632,11.632,0,0,0-.032-1.241A1.5,1.5,0,0,0,67.959,73.7a1.518,1.518,0,0,0-1.447,1.49c-.021.348,0,.7-.007,1.047-.009.887-.329,1.226-1.219,1.243-.872.017-1.744,0-2.616.005-.932.006-1.225.285-1.227,1.2q-.008,5.366,0,10.732c0,.91.311,1.2,1.229,1.206q2.682,0,5.364,0" transform="translate(-43.874 -44.546)" fill="#030303"/><path d="M74.914,63.947c.228.855.452,1.034,1.316,1.037.938,0,1.875-.006,2.813,0a.957.957,0,0,1,1.1,1.071c.005.153,0,.306,0,.458a3.933,3.933,0,0,1-.038,1.361c-.2.5-.8.186-1.219.312a3.548,3.548,0,0,0-2.586,3.7,3.437,3.437,0,0,0,3.315,3.179c.427.023.559.143.537.568-.035.7-.023,1.4,0,2.093.009.312-.092.426-.407.418-.654-.017-1.309-.03-1.962,0-.467.024-.645-.076-.707-.612a3.483,3.483,0,0,0-5.418-2.608A3.315,3.315,0,0,0,70.1,77.6c-.026.478-.185.584-.615.55-.455-.035-.916,0-1.373-.011-.833-.027-1.132-.329-1.136-1.178-.009-2.116,0-4.232,0-6.348,0-1.462,0-2.923,0-4.385,0-.958.3-1.246,1.253-1.248s1.919,0,2.878,0c.8,0,1.074-.24,1.23-1.039l2.574,0" transform="translate(-49.411 -47.175)" fill="#f6dd84"/><path d="M195.993,107.079a6.99,6.99,0,0,1,4.837,5.364,7.142,7.142,0,0,1-2.092,6.933c-.281.283-.458.254-.637-.072a.334.334,0,0,0-.084-.1,1.755,1.755,0,0,1-.65-1.864.923.923,0,0,0-.8-1.2.952.952,0,0,0-1.125.98,3.1,3.1,0,0,1-1.424,2.508.944.944,0,0,0-.284,1.372.969.969,0,0,0,1.386.238,3.445,3.445,0,0,0,.807-.656c.3-.361.467-.278.72.054a5.976,5.976,0,0,1-.569,7.36,5.493,5.493,0,0,1-7.121.9c.05-.092.153-.19.142-.274-.114-.913.459-1.392,1.118-1.83a6.889,6.889,0,0,0,3.205-6.376,4.467,4.467,0,0,0-.172-1.024,1.77,1.77,0,0,1,.583-1.988,8.329,8.329,0,0,0,2.254-9.639c-.1-.22-.232-.429-.1-.679" transform="translate(-139.405 -78.998)" fill="#f2baac"/><path d="M179.63,198.741a8.242,8.242,0,0,0,4.081.585c.5-.066.41.238.4.506a8.1,8.1,0,0,1-7.229,7.856c-.315.035-.458,0-.376-.351a8.951,8.951,0,0,0-.048-3.626,8.765,8.765,0,0,0,3.169-4.97" transform="translate(-130.184 -146.621)" fill="#f2baac"/><path d="M199.574,52.3a5.972,5.972,0,0,1,4.659,7.2c-.2.916-.116,1.114.7,1.576a4.621,4.621,0,0,1,2.348,4.6c-.052.445-.172.512-.547.246a9.518,9.518,0,0,0-4.166-1.571,5.213,5.213,0,0,0-.9-5.862,4.123,4.123,0,0,1-1.6-3.985,5.2,5.2,0,0,0-.5-2.207" transform="translate(-147.236 -38.587)" fill="#f1b9ac"/><path d="M167.573,67.94c.239-.008.477-.023.716-.022.843.006,1.148.3,1.158,1.124.011.892-.008,1.784.006,2.675.012.763.241,1.02,1.007,1.2q0,1.289,0,2.578c-.8.238-1,.479-1.005,1.29-.008.96,0,1.919,0,2.879,0,1.195-.221,1.412-1.416,1.4-.151,0-.3-.025-.453-.038q0-6.544-.007-13.088" transform="translate(-123.627 -50.107)" fill="#e96d72"/><path d="M178.574,20.448a5.928,5.928,0,0,1,4.738,5.864c-.027.265-.12.333-.36.307-.193-.021-.389-.016-.584-.023a4.618,4.618,0,0,0-2.394-1.546c-.992-.343-1-.373-.892-1.424a6.709,6.709,0,0,0-.351-2.486c-.065-.227-.106-.461-.157-.692" transform="translate(-131.743 -15.086)" fill="#f2baac"/><path d="M214.992,106.882l.173.04a.12.12,0,0,1-.173-.04" transform="translate(-158.611 -78.852)" fill="#f2baac"/><path d="M73.573,128.084q-2.682,0-5.364,0c-.918,0-1.227-.3-1.229-1.206q-.008-5.366,0-10.732c0-.919.295-1.2,1.227-1.2.872-.005,1.745.011,2.616,0,.89-.017,1.21-.356,1.219-1.243,0-.349-.014-.7.007-1.047a1.518,1.518,0,0,1,1.447-1.49,1.5,1.5,0,0,1,1.624,1.367,11.63,11.63,0,0,1,.032,1.241c.018.815.33,1.154,1.151,1.17,1.111.022,2.224.023,3.336,0,.4-.009.533.1.512.511a19.586,19.586,0,0,0,0,2.028c.023.43-.115.531-.539.548a3.466,3.466,0,0,0-3.263,3.022,3.511,3.511,0,0,0,2.537,3.851c.063.018.126.034.19.046,1.064.212,1.064.211,1.064,1.326,0,.175,0,.349,0,.523,0,1-.287,1.294-1.27,1.3q-2.649,0-5.3,0" transform="translate(-49.412 -82.004)" fill="#a7e2f6"/><path d="M125.2,127.913c-.087.007-.174.01-.26.023-.643.1-.944-.048-1.036-.826a3.392,3.392,0,0,0-3.559-2.967,3.474,3.474,0,0,0-3.35,3.227c-.034.519-.2.612-.647.572-.367-.034-.741-.006-1.111-.007-1.013,0-1.289-.271-1.292-1.262,0-.851.006-1.7,0-2.552s-.341-1.182-1.184-1.206a11.25,11.25,0,0,1-1.368-.061,1.461,1.461,0,0,1-1.256-1.575,1.5,1.5,0,0,1,1.409-1.452c.434-.03.872,0,1.308-.014a1,1,0,0,0,1.089-1.109c.015-1.112.025-2.225-.006-3.337-.012-.445.093-.6.567-.587,1.067.037,2.136.021,3.2.008.935-.011,1.236-.332,1.249-1.275a10.194,10.194,0,0,1,.032-1.175,1.542,1.542,0,0,1,1.557-1.387,1.566,1.566,0,0,1,1.511,1.513c.023.37,0,.741.008,1.112.01.845.335,1.183,1.185,1.213.652.023,1.3.029,1.958.043q0,6.539,0,13.079" transform="translate(-81.25 -81.855)" fill="#c5eea3"/><path d="M125.074,67.951q0,6.544.007,13.088c-.106.017-.213.04-.32.05-.541.055-.859.024-.912-.731a3.471,3.471,0,0,0-6.887-.136c-.092.808-.406.952-1.094.868-.661-.081-1.53.277-1.94-.147-.378-.391-.087-1.247-.1-1.9-.015-.611.007-1.222-.006-1.832a1.023,1.023,0,0,0-1.133-1.138c-.435-.017-.874.011-1.307-.022a1.522,1.522,0,0,1,0-3.036c.434-.031.872,0,1.308-.02a1.025,1.025,0,0,0,1.13-1.143c.014-.96,0-1.92.007-2.879.008-.681.329-1.04.981-1.041,3.423,0,6.845.01,10.268.017" transform="translate(-81.128 -50.118)" fill="#ed8e92"/><path d="M167.585,138.723q0-6.539,0-13.079c.194-.013.388-.038.583-.038,1.044,0,1.282.228,1.287,1.253,0,.849-.008,1.7,0,2.547.013.875.363,1.209,1.245,1.221.37,0,.741-.016,1.11.009a1.5,1.5,0,0,1,1.422,1.434,1.464,1.464,0,0,1-1.233,1.592,8.055,8.055,0,0,1-1.234.065c-1.012.015-1.306.307-1.312,1.341,0,.762,0,1.524,0,2.286,0,1.17-.235,1.4-1.419,1.391-.152,0-.3-.014-.455-.022" transform="translate(-123.636 -92.666)" fill="#a8e0a1"/></g></g></g></svg>