<svg xmlns="http://www.w3.org/2000/svg" xmlns:xlink="http://www.w3.org/1999/xlink" width="295" height="296.383" viewBox="0 0 295 296.383"><defs><clipPath id="a"><rect width="267.217" height="296.383" fill="none"/></clipPath><clipPath id="c"><rect width="0.476" height="0.521" fill="none"/></clipPath><clipPath id="d"><rect width="32.318" height="33.364" fill="none"/></clipPath><clipPath id="e"><rect width="26.913" height="22.318" fill="none"/></clipPath><clipPath id="f"><rect width="55.641" height="56.17" fill="none"/></clipPath><clipPath id="g"><rect width="37.75" height="30.179" fill="none"/></clipPath><clipPath id="h"><rect width="74.881" height="75.66" fill="none"/></clipPath><clipPath id="i"><rect width="0.483" height="0.55" fill="none"/></clipPath><clipPath id="j"><rect width="43.704" height="58.185" fill="none"/></clipPath><clipPath id="k"><rect width="60.912" height="38.984" fill="none"/></clipPath></defs><g transform="translate(-305 -420.685)"><g transform="translate(321.753 420.685)"><g clip-path="url(#a)"><g clip-path="url(#a)"><path d="M267.217,133.323v163.06H0V133.6c0-.4,0-.8.013-1.2A128.825,128.825,0,0,1,1.25,115.361c.014-.121.026-.227.04-.36a1.914,1.914,0,0,1,.04-.292c.266-1.9.571-3.779.932-5.642v-.026a126.978,126.978,0,0,1,3.312-13.7c.239-.8.48-1.6.733-2.4q1.2-3.792,2.621-7.45A133.7,133.7,0,0,1,192.918,13.864a7.886,7.886,0,0,1,.826.413,132.876,132.876,0,0,1,25.267,16.566c.186.146.359.292.531.438,1.956,1.65,3.86,3.34,5.722,5.1.213.214.439.413.652.626.731.692,1.45,1.4,2.169,2.116A134.416,134.416,0,0,1,250.4,68.67c.12.2.225.4.332.6a133.132,133.132,0,0,1,7.691,16.578,129.058,129.058,0,0,1,4.2,12.933c.784,2.927,1.477,5.882,2.048,8.875a127.745,127.745,0,0,1,1.942,13.465c.028.172.04.359.054.545q.519,5.769.545,11.656" fill="#ffcb7d"/><path d="M163.983,41.076H73.464a29.768,29.768,0,0,1,3.048-2.568c3.925-2.848,8.9-4.523,13.678-3.66,3.046.56,6.04,2.116,9.1,1.584,2.768-.478,4.924-2.54,7.052-4.377a56.281,56.281,0,0,1,21.077-11.363,32.951,32.951,0,0,1,13.492-1.345c10.818,1.5,19.386,10.725,22.966,21.05Z" transform="translate(28.685 7.465)" fill="#fee8e8"/><path d="M99.92,17.038l-3.747,1.449a6.16,6.16,0,0,0-3.519,3.519L91.2,25.753l-1.449-3.747a6.153,6.153,0,0,0-3.518-3.519l-3.747-1.449,3.747-1.449a6.146,6.146,0,0,0,3.518-3.519L91.2,8.324l1.449,3.746a6.152,6.152,0,0,0,3.519,3.519Z" transform="translate(32.209 3.25)" fill="#fff"/><path d="M188.191,108.967l-3.747,1.449a6.15,6.15,0,0,0-3.518,3.519l-1.449,3.746-1.449-3.746a6.156,6.156,0,0,0-3.519-3.519l-3.747-1.449,3.747-1.449A6.152,6.152,0,0,0,178.029,104l1.449-3.746L180.926,104a6.146,6.146,0,0,0,3.518,3.519Z" transform="translate(66.675 39.144)" fill="#fff"/><path d="M27.6,176.335l-3.747,1.449a6.16,6.16,0,0,0-3.519,3.519l-1.449,3.747L17.439,181.3a6.16,6.16,0,0,0-3.519-3.519l-3.747-1.449,3.747-1.449a6.152,6.152,0,0,0,3.519-3.519l1.447-3.746,1.449,3.746a6.152,6.152,0,0,0,3.519,3.519Z" transform="translate(3.972 65.449)" fill="#fff"/><path d="M191.928,60.009A24.344,24.344,0,1,1,161.073,22.62c-.174-.146-.346-.292-.533-.438a25.006,25.006,0,1,0,31.72,38.427c-.106-.2-.213-.4-.332-.6" transform="translate(58.471 8.661)" fill="#fff"/><path d="M9.034,108.563A24.905,24.905,0,0,0,0,110.252v.719a24.022,24.022,0,0,1,9.034-1.744,24.35,24.35,0,0,1,0,48.7A24,24,0,0,1,0,156.183v.719a25.014,25.014,0,1,0,9.034-48.339" transform="translate(0 42.389)" fill="#fff"/><path d="M137.227,88.954c-9.468,4.811-15.694,14.644-18.1,24.988-1.107,4.753-1.628,9.945-4.782,13.67-3.437,4.063-9.178,5.366-13.165,8.892a15.141,15.141,0,0,0-5.039,11.233c.008,3.091.9,6.5-.818,9.064-1.438,2.145-4.209,2.891-6.245,4.48-4.2,3.276-4.6,9.47-3.782,14.732a3.24,3.24,0,0,1,1.645.451h59.968c1.238-11.253,2.332-22.406,3.569-33.659,1.552-14.119,3.013-28.941-2.41-42.07-2.222-5.377-5.506-9.456-10.84-11.781" transform="translate(33.17 34.733)" fill="#2d1026"/><path d="M136.369,177.9c17.542,1.432,35.373,2.286,52.917,3.718a12.444,12.444,0,0,0-2.045-11.569c-2.453-3.124-6.523-5.484-7.154-9.3-.641-3.874,2.6-7.339,3.415-11.185.756-3.568-.676-7.3-3.041-10.209a34.943,34.943,0,0,0-8.847-7.13c-1.247-.779-2.586-1.628-3.087-2.941a5.448,5.448,0,0,1-.058-2.891c1.123-6.295,4.251-12.635,2.483-18.8-1.158-4.038-4.284-7.337-7.634-10.139-4.989-4.174-10.982-7.706-17.673-8.333-.93,22.83-2.326,45.483-3.256,68.312a119.791,119.791,0,0,1-1.56,17.389c-1.716.95-2.692,2.215-4.459,3.08" transform="translate(53.246 34.797)" fill="#2d1026"/><path d="M229.254,239.792H78.62c1.25-6.063,2.985-13.949,5.253-22.816,1.957-7.651,4.394-16.205,7.188-24.339.172-.506.346-1.012.533-1.517,1.422-4.1,2.955-8.063,4.577-11.79a82.6,82.6,0,0,1,8.422-15.474,31.931,31.931,0,0,1,5.109-5.694,17.3,17.3,0,0,1,3.18-2.169c.92-.48,1.823-.946,2.688-1.383a147.889,147.889,0,0,1,17.91-7.931c.186-.079.4-.132.571-.213,4.657-1.556,6.427-1.543,6.719-1.529h.04l9.566.346,13.971.5,12.308.453s1.716.266,4.5.958c.2.039.425.106.64.146,6.32,1.61,17.336,5.189,26.345,12.187a44.075,44.075,0,0,1,6.613,6.281c9.793,11.6,13.332,53.236,14.5,73.979" transform="translate(30.698 56.591)" fill="#e6e2fb"/><path d="M166.636,178.114c.425,16.206,1.238,32.585,2.435,48.831h-.585c-1.171-16.246-1.983-32.612-2.421-48.819a.284.284,0,0,1,.279-.292.292.292,0,0,1,.292.279" transform="translate(64.841 69.437)" fill="#fedede"/><path d="M166.386,146.918a32.3,32.3,0,0,1-23.3,10.853h-.528a32.245,32.245,0,0,1-24.482-11.526c.192-.072.4-.132.577-.2a31.092,31.092,0,0,0,47.1.722c.2.047.42.107.637.156" transform="translate(46.102 57.023)" fill="#fedede"/><path d="M124.255,134.428,123.2,152.8s2.425,3.643,14.989,6.414,21.065-7.86,21.065-7.86a44.568,44.568,0,0,1-1.8-9.312,64.288,64.288,0,0,1,1.168-10.16l-12.584.939Z" transform="translate(48.105 51.492)" fill="#ffa3a3"/><path d="M124.156,134.165l-.7,12.225a8.721,8.721,0,0,0,.98.492,15.969,15.969,0,0,0,8.029.987c7.1-.761,13.435-4.794,18.907-9.383l-2.944.014a12.805,12.805,0,0,0-2.487-5.948Z" transform="translate(48.203 51.756)" fill="#2d1026"/><path d="M178.715,146.133a12.386,12.386,0,0,1-6.538,3.305c-.192.024-.841.024-1.706.013-2.464-.1-6.7-.47-6.7-1.154-.145.409-.288.841-.42,1.286v.024a74.673,74.673,0,0,0-1.863,8.365s-3.931.709-9.532,1.261c-6.645.662-15.659,1.094-23.291-.107-5.684-.914-10.612-2.728-13.244-6.046-6.142-7.739-4.543-17.908-4.206-24.505a101.928,101.928,0,0,1,1.755-15.925,43.042,43.042,0,0,1,2.079-6.983,30.486,30.486,0,0,1,4.087-7.415,25.389,25.389,0,0,1,14.615-9.507,26.819,26.819,0,0,1,6-.709c.324-.011.648,0,.961,0H141a1.638,1.638,0,0,1,.336.013c.275.012.565.012.829.036.59.024,1.165.072,1.767.156a45.781,45.781,0,0,1,6.021,1.058,29.282,29.282,0,0,1,5.433,1.947,28.534,28.534,0,0,1,16.128,26.5,65.534,65.534,0,0,1-2.271,12.656c-.036.143-.072.311-.121.456a1.533,1.533,0,0,1,.325-.552c.06-.049.132-.108.2-.17a8.162,8.162,0,0,1,3.989-1.105,7.126,7.126,0,0,1,4.555,1.646h.013a5.842,5.842,0,0,1,.481.409,9.435,9.435,0,0,1,1.261,1.335c3.2,4.11,2.428,10.143-1.238,13.713" transform="translate(43.256 34.372)" fill="#ffa3a3"/><path d="M122.03,124.148a.273.273,0,0,1-.147-.042,6.609,6.609,0,0,1-1.5-1.115,4.356,4.356,0,0,1-.717-4.345,8.018,8.018,0,0,1,2.686-3.51.285.285,0,0,1,.36.442,7.475,7.475,0,0,0-2.507,3.254,3.777,3.777,0,0,0,.6,3.771,6.2,6.2,0,0,0,1.374,1.016.285.285,0,0,1-.149.528" transform="translate(46.617 44.931)" fill="#2d1026"/><path d="M122.836,125.059a4.493,4.493,0,0,1-3.291-1.442.285.285,0,0,1,.421-.384,3.958,3.958,0,0,0,3.425,1.214A7.27,7.27,0,0,0,126,123.333a.289.289,0,0,1,.392.095.286.286,0,0,1-.095.392,7.74,7.74,0,0,1-2.818,1.192,4.3,4.3,0,0,1-.64.047" transform="translate(46.648 48.081)" fill="#2d1026"/><path d="M114.49,108.825a.825.825,0,0,0-.135.471.813.813,0,0,0,.506.565,5.809,5.809,0,0,0,1.916.462,20.468,20.468,0,0,0,3.459.227c.744-.036,1.609-.246,1.894-.934a1.41,1.41,0,0,0-.3-1.421,2.933,2.933,0,0,0-1.3-.783c-2.068-.706-4.835-.773-6.042,1.414" transform="translate(44.65 41.767)" fill="#2d1026"/><path d="M138.127,112.666a.831.831,0,0,1,.019.489.805.805,0,0,1-.624.43,5.858,5.858,0,0,1-1.97,0,20.351,20.351,0,0,1-3.416-.6c-.715-.21-1.506-.619-1.621-1.354a1.416,1.416,0,0,1,.631-1.31,2.928,2.928,0,0,1,1.443-.456c2.176-.2,4.881.389,5.538,2.8" transform="translate(50.955 42.884)" fill="#2d1026"/><path d="M129.828,116.594a2.744,2.744,0,1,0,3.076-2.367,2.745,2.745,0,0,0-3.076,2.367" transform="translate(50.683 44.592)" fill="#2d1026"/><path d="M114.907,113.836a2.744,2.744,0,1,0,3.076-2.367,2.745,2.745,0,0,0-3.076,2.367" transform="translate(44.857 43.515)" fill="#2d1026"/><path d="M150.065,131.711a.293.293,0,0,0,.331-.186,24.872,24.872,0,0,1,2.835-5.851,10.372,10.372,0,0,1,4.879-3.924,6.262,6.262,0,0,1,5.87.794.291.291,0,0,0,.359-.459,6.852,6.852,0,0,0-6.418-.886,10.931,10.931,0,0,0-5.164,4.139,25.24,25.24,0,0,0-2.907,5.989.288.288,0,0,0,.174.371.237.237,0,0,0,.042.013" transform="translate(58.503 47.161)" fill="#2d1026"/><g transform="translate(222.049 165.094)" opacity="0.27"><g clip-path="url(#c)"><path d="M159.695,119c.145.071.274.168.417.25.011-.178.035-.342.058-.521a1.617,1.617,0,0,0-.476.271" transform="translate(-159.695 -118.734)" fill="#2d1026"/></g></g><path d="M159.527,130.059c-3.483,1.478-5.05,3.276-7.952,5.7-1.406-.805-2.607-4.1-2.475-5.719a2.339,2.339,0,0,0-.049-1.162,1.823,1.823,0,0,0-1.165-.8,14.126,14.126,0,0,1-4.632-2.166,6.425,6.425,0,0,1-2.268-5.079c.065-1.842.882-3.886-.175-5.395a7.657,7.657,0,0,0-1.666-1.457,10.269,10.269,0,0,1-3.472-7.738,28.223,28.223,0,0,1,1.436-8.6c.822-2.919,3.891-5.09,6.069-7.2a2.817,2.817,0,0,1,1.2-.809,2.544,2.544,0,0,1,1.295.1,17.075,17.075,0,0,1,6.132,3.465,31.668,31.668,0,0,1,10.419,15.928c1.695,6.22,3.028,14.94-2.7,20.924" transform="translate(52.971 34.981)" fill="#2d1026"/><path d="M113.084,103.931c6.456,2.614,12.141,1.172,16.966-3.85,4.931.87,10.084,1.292,14.885-.136s9.2-5.022,10.409-9.882c-6.577-2.127-13.133-3.694-20.011-3.01-10.039,1-17.491,7.984-22.249,16.879" transform="translate(44.154 33.927)" fill="#2d1026"/><path d="M156.627,132.486a3.069,3.069,0,1,1-3.069-3.069,3.069,3.069,0,0,1,3.069,3.069" transform="translate(58.76 50.532)" fill="#fff"/><path d="M170.078,227.081H14.708c2.514-10.751,6.639-23.977,12.667-31.135,2.927-3.473,7.531-6.427,12.693-8.875l1.4-.638c1.37-.612,2.753-1.2,4.164-1.744a141.436,141.436,0,0,1,18.1-5.481l.16-.04c.16-.026.306-.067.452-.106,2.635-.6,4.764-1.039,6.107-1.292.081-.013.147-.026.214-.039a2.756,2.756,0,0,0,.345-.067h.014c.652-.12,1-.174,1-.174l37.748.453h.053a37.335,37.335,0,0,1,3.778.16c.865.067,1.851.158,2.955.306a72.163,72.163,0,0,1,18.707,5.082c.227.093.466.186.7.306.014,0,.028.014.04.014,1.118.478,2.248,1,3.393,1.6.04.014.093.026.133.04.559.279,1.118.571,1.689.877a.041.041,0,0,0,.026.014,5.921,5.921,0,0,1,.585.32c.241.132.48.266.733.4a1.23,1.23,0,0,0,.132.079,68.576,68.576,0,0,1,7.119,4.618,37.836,37.836,0,0,1,4.217,3.632.771.771,0,0,1,.147.146c.172.174.346.346.5.519a5.139,5.139,0,0,1,.373.387,47.079,47.079,0,0,1,5.4,6.972,69.731,69.731,0,0,1,6.72,13.878v.014c.905,2.514,1.663,5,2.3,7.383.213.812.427,1.61.6,2.4" transform="translate(5.743 69.302)" fill="#fedede"/><path d="M162.057,221.015c-.32,2.754-.7,5.761-1.158,8.875v.012c-.453,3.206-.972,6.534-1.5,9.78H130.017c-1.25-14.85-2.741-30.523-3.674-32.865-.783-1.97-8.275-8.01-16.6-14.291-.8-.612-1.612-1.224-2.424-1.823-1.276-.958-2.568-1.9-3.831-2.848a5.409,5.409,0,0,1-.466-.332c-2.315-1.689-4.565-3.313-6.639-4.83,0,0,0,.014-.014,0-6.014-4.337-10.524-7.49-10.524-7.49l-7.983,1.93-1.345.318-1.357.334h-.013l-5.868,1.41a.3.3,0,0,0-.04.053c-.107.16-.546.8-1.092,1.717v.013c-1.276,2.169-3.219,5.934-3.419,9.26v.026a7.374,7.374,0,0,0,.067,1.543.236.236,0,0,0,.013.093,3.259,3.259,0,0,0,.093.506c.028.093.054.2.081.293.04.132.079.278.133.478v.014c1.2,5.228,4.191,31.68,5.814,46.49H44.7c-.4-1.385-.811-2.848-1.264-4.391-.359-1.29-.745-2.621-1.13-4.006-.04-.12-.067-.239-.107-.359-.026-.093-.053-.2-.079-.306-.306-1.037-.6-2.116-.918-3.194q-.261-.957-.52-1.916a.049.049,0,0,1-.013-.039c-1.956-7-3.992-14.464-5.7-21.1-.413-1.624-.812-3.194-1.185-4.7-1.21-4.936-2.141-9.128-2.567-11.883-2.157-13.81,4.39-38.771,4.39-38.771l18.348-.838,8.29-.387,11.456-.531,16.485-.745,5.709-.267,10.591-.492,2.581-.12.626-.026,2.967-.133,5.759-.266s.227.279.641.812c.838,1.064,2.446,3.113,4.577,5.854.624.812,1.289,1.689,2.02,2.621q1.276,1.677,2.716,3.553c6.254,8.156,14.37,18.96,21.129,28.607a.014.014,0,0,0,.014.014c.145.213.292.412.425.612,1.09,1.57,2.143,3.1,3.138,4.577.133.186.268.385.387.571,5.018,7.438,8.65,13.558,9.076,16.22.371,2.315.118,6.84-.492,12.361" transform="translate(12.021 56.699)" fill="#6f66ff"/><path d="M128.423,58.2s12.431-13.5,13.436-13.081-2.2,9.583-2.2,9.583,12.317-10.989,13.821-9.245-8.322,11.17-8.322,11.17,10.346-6.517,12.261-5.594S149.5,61.385,149.5,61.385s9.719-4.963,10.776-3.611S151.6,66.6,151.6,66.6s5.349-3.017,6.033-1.684S138.31,78.476,138.31,78.476l-10.267-20.1Z" transform="translate(49.995 17.614)" fill="#ffa3a3"/><g transform="translate(178.037 62.726)" opacity="0.32"><g clip-path="url(#d)"><path d="M128.423,58.2s12.431-13.5,13.436-13.081-2.2,9.583-2.2,9.583,12.317-10.989,13.821-9.245-8.322,11.17-8.322,11.17,10.346-6.517,12.261-5.594S149.5,61.385,149.5,61.385s9.719-4.963,10.776-3.611S151.6,66.6,151.6,66.6s5.349-3.017,6.033-1.684S138.31,78.476,138.31,78.476l-10.267-20.1Z" transform="translate(-128.042 -45.112)" fill="#2d1026"/></g></g><path d="M47.618,50.819c-.071,4.328-.857,8.98-3.924,12.034-1.892,1.885-4.437,2.939-6.627,4.469a18.345,18.345,0,0,0-7.356,17.931,11.718,11.718,0,0,0,2,4.924,12.239,12.239,0,0,0,7.1,4.2,32.027,32.027,0,0,0,10.178.435c4.657-.4,9.265-1.24,13.866-2.076l20.17-3.661a6.027,6.027,0,0,0,2.368-.783c1.271-.868,1.678-2.538,1.842-4.066A36.864,36.864,0,0,0,85.6,70.242C82.087,57.911,74.9,46.258,64.064,39.4a21.739,21.739,0,0,0-7.223-3.147c-2.557-.516-7.169-.647-8.5,2.212-1.642,3.539-.667,8.576-.727,12.349" transform="translate(11.493 14.043)" fill="#2d1026"/><path d="M81.849,33.218c4.832,5.407,7.358,12.484,9.057,19.535.679,2.813,1.3,5.776,3.149,8,2.657,3.2,7.114,4.081,10.875,5.864a15.925,15.925,0,0,1,6.374,5.138,10.082,10.082,0,0,1,1.716,7.86,10.685,10.685,0,0,1-4.2,5.991,22.2,22.2,0,0,1-6.735,3.154c-9.668,2.989-19.986,2.9-30.1,2.622-2.828-.078-5.836-.224-8.156-1.844-3.181-2.218-4.1-6.485-4.365-10.353a57.477,57.477,0,0,1,13.486-40.8c1.584-1.853,3.405-3.678,5.754-4.331Z" transform="translate(23.167 12.97)" fill="#2d1026"/><path d="M131.935,173.383l1.011,8.728-1.862.067-.692.026-5.576.2-2.753.093-.626.026-3.06.107-10.4.373-5.748.213-16.619.6-11.284.4-3.685.133-2.568.093-2.076.081-18.362.651,4.91-55.431L.01,111.858A128.356,128.356,0,0,1,1.248,94.814c.013-.12.026-.227.04-.36a2.1,2.1,0,0,1,.039-.292c.267-1.9.573-3.779.932-5.642v-.026a126.654,126.654,0,0,1,3.313-13.7c9.86.8,23.4,1.9,35.472,2.887,14.982,1.225,27.7,2.276,28.275,2.355.253.04,1.278.04,2.807.014h.081c3.033-.026,7.97-.146,12.693-.253.679-.026,1.357-.04,2.022-.067,5.815-.146,10.818-.292,10.818-.292h.425a1.319,1.319,0,0,0,.227-.014c2.755-.04,13.718-.413,23.3-3.073,2.941-.812,8.329-2.874,14.662-5.469,17.51-7.119,42.206-18.255,42.206-18.255l.891,1.529,11.442,19.8.559.972-66.076,41.925,4.6,39.691.081.692,1.41,12.187Z" transform="translate(0.004 20.547)" fill="#f46464"/><path d="M71.4,87.015a25.726,25.726,0,0,0-24.8,22.979l3.446-.079,4.324-.107,4.684-.106,4.191-.093A9.314,9.314,0,0,1,80.6,109.2l4.192-.093L89.473,109l4.324-.106,3.459-.081A25.738,25.738,0,0,0,71.4,87.015" transform="translate(18.196 33.973)" fill="#ffcb7d"/><path d="M70.516,89.5a22.281,22.281,0,0,0-21.435,19.44l4.324-.107,4.683-.106,4.192-.093a9.314,9.314,0,0,1,17.35-.413l4.191-.093,4.684-.107,4.324-.106A22.3,22.3,0,0,0,70.516,89.5" transform="translate(19.164 34.945)" fill="#ff7373"/><path d="M69.408,92.622a17.991,17.991,0,0,0-17.218,15l4.684-.107,4.191-.093a9.315,9.315,0,0,1,17.35-.413l4.192-.093,4.683-.106A17.994,17.994,0,0,0,69.408,92.622" transform="translate(20.378 36.163)" fill="#6f66ff"/><path d="M68.2,95.952a13.386,13.386,0,0,0-12.641,10.259l4.191-.093A9.316,9.316,0,0,1,77.1,105.7l4.191-.093A13.36,13.36,0,0,0,68.2,95.952" transform="translate(21.693 37.464)" fill="#925cd5"/><path d="M77.644,67.32l.481,7.6.06.886a9.17,9.17,0,0,1-8.329,9.742c-9.044,1.379-17.468-6.976-17.468-6.976L51.3,63.445,58.5,64.5Z" transform="translate(20.029 24.773)" fill="#ffa3a3"/><g transform="translate(71.222 88.116)" opacity="0.32"><g clip-path="url(#e)"><path d="M77.57,67.247l.481,7.6.06.886s.9,8.617-8.533,9.844C60.506,86.754,52.312,78.5,52.312,78.5l-1.09-15.124,7.205,1.06Z" transform="translate(-51.222 -63.372)" fill="#2d1026"/></g></g><path d="M76.173,67.023l.481,7.6a2.9,2.9,0,0,1-.41.281,8.111,8.111,0,0,1-3.856.889,24.677,24.677,0,0,1-9.733-1.42c-2.54-.976-6.164-2.951-7.322-5.6-.78-1.813.225-3.405,1.7-4.565Z" transform="translate(21.499 25.07)" fill="#2d1026"/><path d="M96.45,61.49c.228,5.166,1.427,13.113-3.4,19.135-7.2,8.987-36.046,3.6-36.046,3.6a54.178,54.178,0,0,0-1.737-7.579c.117.727-5.965.969-6.564.861A9.628,9.628,0,0,1,43.6,74.9a8.2,8.2,0,0,1-.894-10.726,6.306,6.306,0,0,1,4.95-2.614,6.419,6.419,0,0,1,3.112.879,1,1,0,0,1,.4.56,53.037,53.037,0,0,1-1.8-10.253A22.263,22.263,0,0,1,66.36,30.609a34.705,34.705,0,0,1,4.715-.805c.464-.057.912-.1,1.374-.12.217-.015.435-.014.652-.021a2.419,2.419,0,0,1,.264,0c.072,0,.146,0,.218,0,.254,0,.509-.007.765,0a20.11,20.11,0,0,1,16.061,8.09,28.065,28.065,0,0,1,4.747,11.289A78.5,78.5,0,0,1,96.45,61.49" transform="translate(16.051 11.58)" fill="#ffa3a3"/><g transform="translate(57.157 41.235)" opacity="0.32"><g clip-path="url(#f)"><path d="M96.45,61.49c.228,5.166,1.427,13.113-3.4,19.135-7.2,8.987-36.046,3.6-36.046,3.6a54.178,54.178,0,0,0-1.737-7.579c.117.727-5.965.969-6.564.861A9.628,9.628,0,0,1,43.6,74.9a8.2,8.2,0,0,1-.894-10.726,6.306,6.306,0,0,1,4.95-2.614,6.419,6.419,0,0,1,3.112.879,1,1,0,0,1,.4.56,53.037,53.037,0,0,1-1.8-10.253A22.263,22.263,0,0,1,66.36,30.609a34.705,34.705,0,0,1,4.715-.805c.464-.057.912-.1,1.374-.12.217-.015.435-.014.652-.021a2.419,2.419,0,0,1,.264,0c.072,0,.146,0,.218,0,.254,0,.509-.007.765,0a20.11,20.11,0,0,1,16.061,8.09,28.065,28.065,0,0,1,4.747,11.289A78.5,78.5,0,0,1,96.45,61.49" transform="translate(-41.107 -29.656)" fill="#2d1026"/></g></g><path d="M67.708,56.5l7.748,1S74,61.945,70.393,61.256,67.708,56.5,67.708,56.5" transform="translate(26.396 22.06)" fill="#fedede"/><path d="M67.209,52.534a2.531,2.531,0,1,1-2.823-2.2,2.53,2.53,0,0,1,2.823,2.2" transform="translate(24.273 19.645)" fill="#2d1026"/><path d="M80.285,51.458a2.531,2.531,0,1,1-2.823-2.2,2.53,2.53,0,0,1,2.823,2.2" transform="translate(29.379 19.225)" fill="#2d1026"/><path d="M53.59,63.732a.228.228,0,0,1-.257-.147A19.493,19.493,0,0,0,51.145,59,8.126,8.126,0,0,0,47.35,55.9a4.9,4.9,0,0,0-4.594.594.228.228,0,0,1-.318-.042.225.225,0,0,1,.04-.318,5.356,5.356,0,0,1,5.022-.662,8.548,8.548,0,0,1,4.017,3.261,19.78,19.78,0,0,1,2.244,4.7.226.226,0,0,1-.138.289.152.152,0,0,1-.033.01" transform="translate(16.551 21.53)" fill="#2d1026"/><path d="M72.733,57.277a.285.285,0,0,1-.1-.552,2.516,2.516,0,0,0,1.314-2.745,7.991,7.991,0,0,0-1.529-3.169.286.286,0,0,1,.473-.321A8.446,8.446,0,0,1,74.512,53.9a3.092,3.092,0,0,1-1.678,3.362.282.282,0,0,1-.1.018" transform="translate(28.257 19.665)" fill="#2d1026"/><path d="M60.842,49.448a.285.285,0,0,1-.239-.439,4.027,4.027,0,0,1,2.1-1.692,2.841,2.841,0,0,1,2.682.464.285.285,0,0,1-.367.437,2.3,2.3,0,0,0-2.143-.356,3.447,3.447,0,0,0-1.8,1.456.283.283,0,0,1-.239.131" transform="translate(23.645 18.418)" fill="#2d1026"/><path d="M79.411,47.8a.284.284,0,0,1-.261-.171,1.739,1.739,0,0,0-1.582-.948h0a2.82,2.82,0,0,0-1.855.8.285.285,0,0,1-.384-.423,3.391,3.391,0,0,1,2.239-.947h.006a2.289,2.289,0,0,1,2.1,1.29.285.285,0,0,1-.147.375.3.3,0,0,1-.114.024" transform="translate(29.374 18.004)" fill="#2d1026"/><path d="M44.107,62.573A9.136,9.136,0,0,1,51.834,64.4a31.434,31.434,0,0,1,2.346,2.35.562.562,0,0,0,.324.2c.256.024.406-.274.478-.52.883-3.066.7-6.324.509-9.509a23.8,23.8,0,0,0,8.1-23.621c-.382-1.6-1.04-3.5-2.636-3.906a5.674,5.674,0,0,0-2.642.121A30.458,30.458,0,0,0,51.877,32a19.914,19.914,0,0,0-5.882,3.909c-3.066,3.245-3.884,8.054-3.607,12.511s1.484,8.81,1.866,13.259c.011.129.053.292.182.309s-.242.489-.33.585" transform="translate(16.531 11.436)" fill="#2d1026"/><path d="M64.434,50.946c-.615-3.1-1.146-8.585-2.333-11.507a16.752,16.752,0,0,0-5.57-7.5c-.555-.389-1.025-1.144-1.564-1.559a35.414,35.414,0,0,1,18.585-3.359,20.275,20.275,0,0,1,6.778,1.47A18.08,18.08,0,0,1,86.4,33.228c2.415,2.748,4.689,9.38,5.958,12.81-8.978,2.806-18.62,3.515-27.923,4.908" transform="translate(21.462 10.505)" fill="#2d1026"/><path d="M93.676,167.565V186.9s-2.766,3.678-16.118,5.83-21.633-9.519-21.633-9.519,2.151-5.829,2.451-9.664a67.4,67.4,0,0,0-.612-10.732l13.147,1.742Z" transform="translate(21.836 63.573)" fill="#ffa3a3"/><g transform="translate(77.762 226.391)" opacity="0.32"><g clip-path="url(#g)"><path d="M93.676,167.565V186.9s-2.766,3.678-16.118,5.83-21.633-9.519-21.633-9.519,2.151-5.829,2.451-9.664a67.4,67.4,0,0,0-.612-10.732l13.147,1.742Z" transform="translate(-55.925 -162.818)" fill="#2d1026"/></g></g><path d="M91.168,167.076v12.871a9.047,9.047,0,0,1-1.06.457,16.778,16.778,0,0,1-8.485.552c-7.4-1.225-13.809-5.84-19.277-10.985l3.088.192a13.5,13.5,0,0,1,2.969-6.093Z" transform="translate(24.344 64.063)" fill="#2d1026"/><path d="M118.582,162.123c-.046,6.948,1.019,17.707-5.88,25.466-10.281,11.573-48.647,2.353-48.647,2.353a73.171,73.171,0,0,0-1.81-10.309c.071.737-4.462.879-7.1.83-.907-.036-1.584-.078-1.79-.115a13.02,13.02,0,0,1-6.669-3.857c-3.632-3.975-4.067-10.346-.467-14.473a10.2,10.2,0,0,1,1.406-1.325c.164-.133.342-.27.521-.392,0-.013.014,0,.014,0a7.474,7.474,0,0,1,4.889-1.452,8.6,8.6,0,0,1,4.116,1.4,2.688,2.688,0,0,1,.2.186,1.385,1.385,0,0,1,.3.6c-.039-.159-.067-.331-.092-.491a69.426,69.426,0,0,1-1.625-13.412A29.931,29.931,0,0,1,80.3,118.577a47.4,47.4,0,0,1,6.386-.747c.63-.05,1.236-.071,1.856-.065.282-.008.581.008.877.011a2.885,2.885,0,0,1,.352.012c.095.007.19.013.3.018.339.013.677.028,1.016.054a28.239,28.239,0,0,1,6.25,1.112,26.682,26.682,0,0,1,14.76,10.851,37.769,37.769,0,0,1,5.6,15.484,106,106,0,0,1,.882,16.815" transform="translate(17.077 45.981)" fill="#ffa3a3"/><g transform="translate(60.812 163.743)" opacity="0.32"><g clip-path="url(#h)"><path d="M118.582,162.123c-.046,6.948,1.019,17.707-5.88,25.466-10.281,11.573-48.647,2.353-48.647,2.353a73.171,73.171,0,0,0-1.81-10.309c.071.737-4.462.879-7.1.83-.907-.036-1.584-.078-1.79-.115a13.02,13.02,0,0,1-6.669-3.857c-3.632-3.975-4.067-10.346-.467-14.473a10.2,10.2,0,0,1,1.406-1.325c.164-.133.342-.27.521-.392,0-.013.014,0,.014,0a7.474,7.474,0,0,1,4.889-1.452,8.6,8.6,0,0,1,4.116,1.4,2.688,2.688,0,0,1,.2.186,1.385,1.385,0,0,1,.3.6c-.039-.159-.067-.331-.092-.491a69.426,69.426,0,0,1-1.625-13.412A29.931,29.931,0,0,1,80.3,118.577a47.4,47.4,0,0,1,6.386-.747c.63-.05,1.236-.071,1.856-.065.282-.008.581.008.877.011a2.885,2.885,0,0,1,.352.012c.095.007.19.013.3.018.339.013.677.028,1.016.054a28.239,28.239,0,0,1,6.25,1.112,26.682,26.682,0,0,1,14.76,10.851,37.769,37.769,0,0,1,5.6,15.484,106,106,0,0,1,.882,16.815" transform="translate(-43.736 -117.762)" fill="#2d1026"/></g></g><path d="M72.477,138.608a6.148,6.148,0,0,0-2.328,2.9,2.125,2.125,0,0,0,.249,2.164c1.167,1.271,3.618.588,5.022.215,1.659-.439,4.422-.975,5.572-2.322a6.668,6.668,0,0,0,1.139-2.485c.57-1.9-.464-2.793-2.335-2.607-2.4.239-5.255.708-7.319,2.133" transform="translate(27.32 53.278)" fill="#2d1026"/><path d="M95.883,136.16a5.553,5.553,0,0,1,2.7,2,1.915,1.915,0,0,1,.277,1.947c-.727,1.377-3.027,1.34-4.338,1.336-1.549-.006-4.087.157-5.4-.756a6.022,6.022,0,0,1-1.561-1.911c-.933-1.531-.234-2.546,1.443-2.81a14.408,14.408,0,0,1,6.881.191" transform="translate(34.025 52.964)" fill="#2d1026"/><path d="M79.267,146.9a2.884,2.884,0,1,1-3.085-2.67,2.884,2.884,0,0,1,3.085,2.67" transform="translate(28.701 56.312)" fill="#2d1026"/><path d="M95.436,145.967a2.884,2.884,0,1,1-3.084-2.67,2.883,2.883,0,0,1,3.084,2.67" transform="translate(35.014 55.948)" fill="#2d1026"/><path d="M60.133,162.742a.306.306,0,0,1-.335-.216,26.218,26.218,0,0,0-2.624-6.311,10.909,10.909,0,0,0-4.883-4.412,6.585,6.585,0,0,0-6.21.48.306.306,0,0,1-.349-.5,7.2,7.2,0,0,1,6.79-.544,11.515,11.515,0,0,1,5.171,4.655,26.633,26.633,0,0,1,2.691,6.459.3.3,0,0,1-.206.38.259.259,0,0,1-.045.011" transform="translate(17.805 58.819)" fill="#2d1026"/><g transform="translate(64.121 206.262)" opacity="0.27"><g clip-path="url(#i)"><path d="M46.6,148.654c-.157.067-.3.159-.453.238,0-.189-.015-.363-.031-.551a1.681,1.681,0,0,1,.484.313" transform="translate(-46.115 -148.341)" fill="#2d1026"/></g></g><path d="M85.4,157.461a.285.285,0,0,1-.075-.56c1.716-.467,3.45-1.035,4.169-2.342a4.474,4.474,0,0,0,.209-2.948,19.8,19.8,0,0,0-3.058-7.446.285.285,0,0,1,.473-.318,20.4,20.4,0,0,1,3.147,7.661,4.959,4.959,0,0,1-.271,3.325c-.825,1.5-2.684,2.118-4.518,2.618a.279.279,0,0,1-.075.01" transform="translate(33.234 56.117)" fill="#2d1026"/><path d="M87.213,157.7q-.125,0-.25,0a7.014,7.014,0,0,1-5.508-3.11.285.285,0,1,1,.477-.313,6.333,6.333,0,0,0,10.307.395.287.287,0,0,1,.4-.051.284.284,0,0,1,.051.4,7.017,7.017,0,0,1-5.478,2.685" transform="translate(31.786 60.187)" fill="#2d1026"/><path d="M108.282,122.5c1.65,1.884,2.729,4.437-.278,6.018l-.05.025a9.972,9.972,0,0,1-5.552.64,21.683,21.683,0,0,0-5.644-.228c-3.18.514-5.9,2.831-9.113,3.072-4.057.3-7.691-2.764-11.755-2.938a2.3,2.3,0,0,0-1.713.455,2.331,2.331,0,0,0-.576,1.347c-.844,5.213,2.777,10.262,2.442,15.531a12.4,12.4,0,0,1-4.842,8.715c-1.343,1.057-2.935,1.951-3.687,3.486-.977,2-.214,4.406-.667,6.582a4.083,4.083,0,0,1-3.026,3.323,4.663,4.663,0,0,1-4.071-1.955c-1.012-1.208-1.721-2.656-2.8-3.807a8.1,8.1,0,0,0-9.31-1.632c-.3-5.218-.762-10.447-.257-15.648.494-5.086,1.4-10.218,3.689-14.787a26.538,26.538,0,0,1,8.465-10.085c3.821-2.481,9.2-3.69,13.614-4.544,10.483-2.029,24.966-2.055,33.685,5.04a12.1,12.1,0,0,1,1.446,1.39" transform="translate(18.413 44.861)" fill="#2d1026"/><path d="M70.03,229.494h-8.5L42.261,225.1l-3.779-.865a32.763,32.763,0,0,0,1.144-3.658,248477.537,248477.537,0,0,1,.133-.559,10.552,10.552,0,0,0,.266-2.781,1.13,1.13,0,0,0-.013-.213,9.586,9.586,0,0,0-.506-1.7.052.052,0,0,1-.013-.04C38,211.332,33.878,203.2,33.878,199.849c0-1.357-.079-3.459-.079-5.669,0-1.823.053-3.713.213-5.335.227-2.208.679-3.925,1.557-4.338.7-.332,1.6.826,2.607,2.595,2.262,4.059,5.07,11.4,7.212,11.829a1.637,1.637,0,0,0,.571.014.018.018,0,0,0,.026,0c1.292-.133,2.914-1.424,4.417-3.074a27.067,27.067,0,0,0,2.5-3.192,15.681,15.681,0,0,0,2.143-4.178c.293-1.157.786-3.938,1.384-6.919.984-4.843,2.236-10.271,3.38-10.271,1.4,0,2.807,6,3.393,8.835.186.877.293,1.45.293,1.45a.986.986,0,0,0,.12.026c.039.012.106.026.172.04h.04a1.586,1.586,0,0,1,.186.039,10.819,10.819,0,0,1,3.352,1.5,8.323,8.323,0,0,1,.759.665,3.789,3.789,0,0,1,.585.786,20.344,20.344,0,0,1,1.623,4.177c.04.186.067.279.067.279a1.589,1.589,0,0,1,.373-.039,3.02,3.02,0,0,1,2.848,2.036,13.693,13.693,0,0,1,.918,5.362l.146.04c.492.133,2.116.772,2.768,3.486.652,2.741-5.509,23.232-7.425,29.5" transform="translate(13.197 66.889)" fill="#ffa3a3"/><g transform="translate(46.995 238.197)" opacity="0.32"><g clip-path="url(#j)"><path d="M70.03,229.494h-8.5L42.261,225.1l-3.779-.865a32.763,32.763,0,0,0,1.144-3.658,248477.537,248477.537,0,0,1,.133-.559,10.552,10.552,0,0,0,.266-2.781,1.13,1.13,0,0,0-.013-.213,9.586,9.586,0,0,0-.506-1.7.052.052,0,0,1-.013-.04C38,211.332,33.878,203.2,33.878,199.849c0-1.357-.079-3.459-.079-5.669,0-1.823.053-3.713.213-5.335.227-2.208.679-3.925,1.557-4.338.7-.332,1.6.826,2.607,2.595,2.262,4.059,5.07,11.4,7.212,11.829a1.637,1.637,0,0,0,.571.014.018.018,0,0,0,.026,0c1.292-.133,2.914-1.424,4.417-3.074a27.067,27.067,0,0,0,2.5-3.192,15.681,15.681,0,0,0,2.143-4.178c.293-1.157.786-3.938,1.384-6.919.984-4.843,2.236-10.271,3.38-10.271,1.4,0,2.807,6,3.393,8.835.186.877.293,1.45.293,1.45a.986.986,0,0,0,.12.026c.039.012.106.026.172.04h.04a1.586,1.586,0,0,1,.186.039,10.819,10.819,0,0,1,3.352,1.5,8.323,8.323,0,0,1,.759.665,3.789,3.789,0,0,1,.585.786,20.344,20.344,0,0,1,1.623,4.177c.04.186.067.279.067.279a1.589,1.589,0,0,1,.373-.039,3.02,3.02,0,0,1,2.848,2.036,13.693,13.693,0,0,1,.918,5.362l.146.04c.492.133,2.116.772,2.768,3.486.652,2.741-5.509,23.232-7.425,29.5" transform="translate(-33.798 -171.309)" fill="#2d1026"/></g></g><path d="M42.1,200.007a.285.285,0,0,1-.107-.549c.056-.024,5.6-2.319,7.906-6.92,1.816-3.63,2.913-9.173,3.567-12.485.2-1,.353-1.783.478-2.265.11-.425.217-.961.332-1.541.481-2.411,1.1-5.43,2.742-5.192,1.325.172,2.568,3.84,3.7,10.9.306,1.924-.279,14.63-.3,15.171a.277.277,0,0,1-.3.271.285.285,0,0,1-.273-.3c.007-.132.609-13.188.31-15.055-1.2-7.535-2.447-10.327-3.208-10.426-1.123-.146-1.721,2.792-2.108,4.737-.118.592-.228,1.139-.341,1.571-.121.467-.275,1.247-.47,2.233-.66,3.341-1.767,8.931-3.615,12.63-2.4,4.8-7.967,7.1-8.2,7.194a.287.287,0,0,1-.107.021" transform="translate(16.328 66.784)" fill="#2d1026"/><path d="M61.209,194.847l-.051,0a.286.286,0,0,1-.229-.332c.01-.051.918-4.988.993-6.56a8.058,8.058,0,0,0-1.639-5.5,7.6,7.6,0,0,0-4.864-3.123.284.284,0,0,1-.245-.321.276.276,0,0,1,.318-.245,8.048,8.048,0,0,1,5.264,3.372,8.66,8.66,0,0,1,1.735,5.85c-.076,1.612-.964,6.431-1,6.634a.284.284,0,0,1-.281.234" transform="translate(21.542 69.796)" fill="#2d1026"/><path d="M63.933,195.893a.2.2,0,0,1-.04,0,.287.287,0,0,1-.243-.323c.007-.05.7-5.1-.2-8.479-.834-3.149-3.088-2.632-3.183-2.608a.285.285,0,0,1-.14-.553c.029-.011,2.892-.692,3.875,3.016.925,3.493.241,8.494.211,8.7a.286.286,0,0,1-.282.246" transform="translate(23.394 71.794)" fill="#2d1026"/><path d="M40.994,207.053,67.1,215.807H33.875l5.043-9.447.745.253Z" transform="translate(13.227 80.575)" fill="#fedede"/><path d="M41.048,206.825l26.278,9.062H65.584l-24.35-8.4-1.5-.52-.546-.186-5,9.1H33.53l5.27-9.58a.3.3,0,0,1,.346-.133l.717.239Z" transform="translate(13.092 80.496)" fill="#2d1026"/><path d="M125.912,220.015l.146-2.4.826-14.782.213-3.725,25.014-3.526,2.848,24.429Z" transform="translate(49.163 76.368)" fill="#fedede"/><path d="M130.558,205.043s7.211,10.587,17.8,8.592,13.5-9.972,13.5-9.972-21.172-25.622-24.549-27-31.605-2.916-32.065-.462,6.6,4.3,6.6,4.3-10.74-.307-10.893,2.456,9.819,4.91,9.819,4.91-9.206.766-9.206,3.067,13.962,4.91,13.962,4.91l10.74,1.535s-17.183,0-17.183,2.148,21.48,5.523,21.48,5.523" transform="translate(39.415 68.291)" fill="#ffa3a3"/><g transform="translate(140.36 243.192)" opacity="0.32"><g clip-path="url(#k)"><path d="M130.558,205.043s7.211,10.587,17.8,8.592,13.5-9.972,13.5-9.972-21.172-25.622-24.549-27-31.605-2.916-32.065-.462,6.6,4.3,6.6,4.3-10.74-.307-10.893,2.456,9.819,4.91,9.819,4.91-9.206.766-9.206,3.067,13.962,4.91,13.962,4.91l10.74,1.535s-17.183,0-17.183,2.148,21.48,5.523,21.48,5.523" transform="translate(-100.945 -174.901)" fill="#2d1026"/></g></g><path d="M110.41,180.572a.239.239,0,0,1-.063-.007c-.708-.161-6.894-1.646-6.51-4.384.366-2.621,24.479-.694,31.862-.039a.284.284,0,0,1,.259.309.274.274,0,0,1-.309.259c-15.2-1.345-31.046-1.881-31.248-.449-.263,1.885,4.292,3.345,6.071,3.749a.285.285,0,0,1-.063.563" transform="translate(40.537 68.269)" fill="#2d1026"/><path d="M130.675,188.418h-.017c-.6-.035-14.775-.851-17.671-1.307-1.663-.263-10.052-1.719-11.812-4.593a2.037,2.037,0,0,1-.228-1.762c1.186-3.635,27.106-1.8,30.057-1.577a.285.285,0,0,1,.263.306.292.292,0,0,1-.306.263c-11.413-.858-28.68-1.247-29.474,1.185a1.475,1.475,0,0,0,.174,1.288c1.663,2.717,10.422,4.169,11.414,4.326,2.869.453,17.468,1.293,17.616,1.3a.285.285,0,0,1-.017.57" transform="translate(39.374 69.705)" fill="#2d1026"/><path d="M126.109,194.119h-.029c-2.489-.246-24.329-2.5-24.726-6a2.136,2.136,0,0,1,.531-1.67c1.8-2.133,7.621-2.469,7.869-2.483a.276.276,0,0,1,.3.27.285.285,0,0,1-.27.3c-.058,0-5.819.338-7.463,2.285a1.559,1.559,0,0,0-.4,1.235c.26,2.293,14.992,4.591,24.216,5.5a.285.285,0,0,1-.028.569" transform="translate(39.568 71.828)" fill="#2d1026"/></g></g></g><path d="M158.464,39.737h-85a27.952,27.952,0,0,1,2.862-2.412c3.686-2.674,8.359-4.247,12.844-3.437,2.861.526,5.672,1.987,8.546,1.487,2.6-.449,4.623-2.385,6.622-4.11A52.849,52.849,0,0,1,124.13,20.6,30.942,30.942,0,0,1,136.8,19.333C146.957,20.746,155,29.4,158.365,39.1Z" transform="translate(441.536 494.469)" fill="#fee8e8"/><path d="M73.464,39.622H157.99a27.8,27.8,0,0,0-2.846-2.4c-3.665-2.659-8.312-4.224-12.772-3.417-2.845.523-5.64,1.976-8.5,1.479-2.585-.447-4.6-2.372-6.586-4.087a52.555,52.555,0,0,0-19.681-10.61,30.77,30.77,0,0,0-12.6-1.256c-10.1,1.4-18.1,10.014-21.446,19.656Z" transform="translate(231.536 557.43)" fill="#fee8e8"/></g></svg>