<svg xmlns="http://www.w3.org/2000/svg" xmlns:xlink="http://www.w3.org/1999/xlink" width="75.203" height="75.203" viewBox="0 0 75.203 75.203"><defs><clipPath id="a"><rect width="69.343" height="67.269" fill="none"/></clipPath></defs><g transform="translate(-184 -2827.044)"><g transform="translate(0 1691.044)"><g transform="translate(3 633)"><circle cx="37.602" cy="37.602" r="37.602" transform="translate(181 503)" fill="#ffd357"/></g><g transform="translate(186.93 1139.967)"><g clip-path="url(#a)"><path d="M61.565,63.817a1.587,1.587,0,0,0,.2.346c.335.336.15.5-.169.69a16.052,16.052,0,0,1-8.467,2.4q-26.255.007-52.51.015C.1,67.269,0,67.123,0,66.631c.026-2.548.062-5.1,0-7.646a7.3,7.3,0,0,1,3.189-6.361,43.573,43.573,0,0,1,5.883-3.292c1.252-.661,2.52-1.293,3.78-1.938-.01-.052,0-.112-.027-.128A6.8,6.8,0,0,1,9.912,41.6c-.2-3.9-.052-7.8-.069-11.7a1.492,1.492,0,0,0-.5-1.232,4.556,4.556,0,0,1-1.508-3.289c-.028-.833-.036-1.669-.007-2.5a2.792,2.792,0,0,1,1.583-2.5.738.738,0,0,0,.425-.8,24.263,24.263,0,0,1,.567-6.714,17.613,17.613,0,0,1,3.029-6.13c.654-.849.655-.848,1.451-.24.162.154.314.321.488.46.214.17.262.3.06.544A15.607,15.607,0,0,0,11.861,18.53c.056,1.471.009,1.449,1.5,1.456.474,0,.557-.165.552-.583a8.8,8.8,0,0,1,.132-2.421A3.108,3.108,0,0,1,17.2,14.916c6.6.018,13.208.007,19.812.009a3.644,3.644,0,0,1,1.071.1c1.477.445,2.213,1.583,2.215,3.45,0,1.56,0,1.542,1.567,1.506.415-.009.475-.17.464-.52-.021-.721.014-1.443-.011-2.163C42.1,10.733,39.022,6,33.054,3.269a13.973,13.973,0,0,0-10.02-.643.325.325,0,0,0-.315.093l0-.007a13.716,13.716,0,0,0-4.846,2.449c-.82.617-.815.623-1.531-.112-.613-.8-.613-.8.226-1.451A17.271,17.271,0,0,1,44.121,14.414a28.828,28.828,0,0,1,.226,5.061.879.879,0,0,0,.514.951,2.712,2.712,0,0,1,1.479,2.281,14.371,14.371,0,0,1-.041,3.173,4.691,4.691,0,0,1-1.577,2.908.975.975,0,0,0-.376.805q.023,3.552,0,7.1c0,.458.032.61.526.328A16.19,16.19,0,0,1,68.965,47.718a15.825,15.825,0,0,1-2.049,11.82c-.478.8-.745-.085-1.116-.069-.212-.367-1.081-.3-.559-1.158a14.154,14.154,0,0,0-5.968-20.07,13.532,13.532,0,0,0-10.116-.831.38.38,0,0,0-.356.113l-.041.014a6.475,6.475,0,0,0-.648.169,14.2,14.2,0,0,0-7.544,20.027,13.645,13.645,0,0,0,8.278,6.812v0a.324.324,0,0,0,.311.088,2.284,2.284,0,0,0,.31.126,14.118,14.118,0,0,0,10.465-1.291c.989-.532.984-.541,1.634.355M26.281,59.962c-.549-.1-1.105-.167-1.643-.3-.448-.115-.479.031-.421.423.212,1.417.427,2.835.567,4.259.069.7.31,1,1.03.881a8.656,8.656,0,0,1,1.139-.04c.607.012,1.215,0,1.819.043.381.025.5-.138.548-.486q.3-2.341.643-4.677c.053-.361,0-.511-.405-.4a11.134,11.134,0,0,1-3.278.3M23.937,39.8l.315.066a.46.46,0,0,0,.113.072,11.136,11.136,0,0,0,13.82-9.85c.218-3.872.043-7.755.07-11.633.009-1.246-.259-1.507-1.5-1.507q-6.9,0-13.8,0c-1.645,0-3.291.018-4.936.028-.315-.009-.63-.035-.944-.026-.768.023-1.136.355-1.134,1.118.015,4.036-.131,8.075.06,12.106A11.022,11.022,0,0,0,23.9,39.792ZM13.95,45.514c.558.314,1.1.751,1.8.4,1.281-.652,2.549-1.328,3.837-1.966a.638.638,0,0,0,.409-.677c-.019-.81-.029-1.622,0-2.431a.958.958,0,0,0-.483-.936,13.031,13.031,0,0,1-4.175-4.78,15.716,15.716,0,0,1-1.352-4.142c.135-.732-.2-.894-.887-.867-1.226.05-1.235.01-1.226,1.264.026,3.359-.107,6.721.071,10.076a4.7,4.7,0,0,0,2.008,4.064m10.157-3.5c-.575-.188-1.155-.36-1.721-.57-.267-.1-.371-.063-.364.231a29.314,29.314,0,0,0,.1,3.437c.49,3.472.984,6.944,1.448,10.42.255,1.911.308,2,2.241,2.3a.273.273,0,0,0,.067-.007,8.252,8.252,0,0,0,3.8-.294,1.014,1.014,0,0,0,.8-.987c.266-2.165.618-4.319.88-6.484a48.311,48.311,0,0,0,.813-7.909c-.035-.814,0-.812-.81-.544-.319.106-.643.2-.968.288a14.108,14.108,0,0,1-6.286.123M4.075,65.18q5.512.021,11.023.047c.32,0,.416-.154.5-.419.486-1.472.976-2.944,1.5-4.4.111-.311.034-.427-.224-.573-.9-.51-1.782-1.054-2.682-1.564a.581.581,0,0,1-.345-.638c.124-1.55.227-3.1.329-4.655.087-1.333.163-2.668.25-4.111-2.852,1.471-5.593,2.868-8.316,4.3a7.552,7.552,0,0,0-2.039,1.417,4.756,4.756,0,0,0-2.016,3.907c-.022,1.638-.007,3.277-.007,4.916,0,1.979,0,1.979,2.027,1.779M20.184,45.912c-1.174.6-2.249,1.163-3.333,1.707a.536.536,0,0,0-.33.517c-.17,2.745-.342,5.489-.545,8.232a.813.813,0,0,0,.5.892c.927.508,1.819,1.08,2.746,1.589.366.2.434.388.291.788-.592,1.651-1.131,3.32-1.713,4.974-.152.431-.171.636.4.621,1.375-.034,2.751-.026,4.126,0,.461.008.54-.107.473-.574-.585-4.079-1.133-8.165-1.7-12.247-.3-2.14-.606-4.278-.921-6.5m13.826,0c-.055.325-.106.587-.143.851q-.524,3.746-1.043,7.493-.725,5.253-1.448,10.505c-.031.225-.136.458.249.457,1.619,0,3.238,0,4.93,0-.089-.282-.151-.494-.222-.7-.554-1.64-1.1-3.283-1.674-4.915-.129-.366-.087-.546.268-.735.734-.39,1.438-.837,2.156-1.26.887-.523.886-.522.568-1.5a16.179,16.179,0,0,1-.578-7.87c.045-.26.3-.6-.146-.821-.963-.477-1.914-.979-2.918-1.5m8.313-11.339V31.669c0-1.6,0-1.588-1.61-1.554-.381.008-.473.131-.517.494a13.377,13.377,0,0,1-4.135,8.207c-.61.593-1.658.824-1.825,1.751a17.618,17.618,0,0,0-.041,2.7.634.634,0,0,0,.41.677c.91.44,1.82.886,2.7,1.391.434.25.538.1.689-.283a15.558,15.558,0,0,1,3.948-5.814,1.136,1.136,0,0,0,.393-.941c-.02-1.239-.007-2.479-.007-3.719M13.9,25.065c0-.854-.013-1.709.006-2.563.008-.367-.092-.52-.49-.506-.808.029-1.619-.005-2.428.013a1.031,1.031,0,0,0-1.144,1.123c-.022.516-.011,1.034-.007,1.551a3.126,3.126,0,0,0,3.621,3.42c.365-.017.455-.138.448-.475-.018-.854-.006-1.709-.006-2.563M44.922,65.221a18.161,18.161,0,0,1-5.83-5.975c-.127-.216-.232-.354-.51-.17-.429.286-.88.54-1.332.79-.207.115-.278.213-.187.471.527,1.5,1.028,3.014,1.535,4.524.069.2.143.363.408.362,1.972-.007,3.944,0,5.916,0M40.3,25.07c0,.857,0,1.714,0,2.57,0,.182-.071.385.243.458a3.148,3.148,0,0,0,3.743-2.575,18.24,18.24,0,0,0,.054-2.363c-.013-.782-.392-1.138-1.187-1.152s-1.579.016-2.367-.011c-.393-.014-.506.126-.5.5.022.856.007,1.713.007,2.57" transform="translate(0 0)" fill="#040403"/><path d="M173.876,162.9c-.65-.9-.645-.887-1.634-.355a14.117,14.117,0,0,1-10.465,1.291,2.3,2.3,0,0,1-.31-.126.224.224,0,0,0-.311-.087v0c0-.171-.149-.208-.26-.275a15.294,15.294,0,0,1-5.509-5.4,7.393,7.393,0,0,1-1.353-3.33c.063.117.134.23.189.35a12.175,12.175,0,1,0,4.753-15.224,12.846,12.846,0,0,0-4.942,5.837,1.349,1.349,0,0,1,.106-.724,15.168,15.168,0,0,1,4.931-6.775,15.007,15.007,0,0,0,2-1.467l.041-.014a.306.306,0,0,0,.356-.113,13.532,13.532,0,0,1,10.116.831,14.154,14.154,0,0,1,5.968,20.07c-.522.861.347.791.559,1.158l-1.228,1.624a.834.834,0,0,1-.2-.163c-.375-.575-.732-.5-1.088.016a.765.765,0,0,1-.094.1c-.763.77-.763.77-.086,1.528a5.384,5.384,0,0,0-1.534,1.248" transform="translate(-112.311 -99.079)" fill="#97b3ed"/><path d="M48.237,12.351c.716.735.711.729,1.531.112a13.71,13.71,0,0,1,4.846-2.449c-.015.2-.2.23-.327.3A16.106,16.106,0,0,0,46.19,21.1a6.886,6.886,0,0,0-.249,3.189,8.806,8.806,0,0,0-.132,2.421c.005.417-.078.585-.552.582-1.488-.007-1.441.015-1.5-1.456A15.608,15.608,0,0,1,47.333,14.8c.2-.24.153-.374-.061-.544-.174-.139-.326-.306-.488-.46l1.453-1.441" transform="translate(-31.899 -7.302)" fill="#f7dd4b"/><path d="M231.672,225.555c-.678-.758-.678-.758.086-1.528a.746.746,0,0,0,.094-.1c.356-.52.713-.591,1.088-.016a.832.832,0,0,0,.2.163c.674.755.674.755-.042,1.479-.665.673-.665.673-1.43,0" transform="translate(-168.574 -162.986)" fill="#040403"/><path d="M66.513,62.608c1.645-.01,3.29-.027,4.936-.028q6.9-.006,13.8,0c1.243,0,1.512.261,1.5,1.507-.028,3.878.148,7.761-.07,11.633a11.136,11.136,0,0,1-13.82,9.849.452.452,0,0,1-.113-.072.2.2,0,0,0-.315-.066l-.032-.008c.067-.287-.193-.32-.343-.429a13.79,13.79,0,0,1-2.851-2.551,11.463,11.463,0,0,1-2.689-7.183c-.024-4.217-.006-8.435-.005-12.652" transform="translate(-48.497 -45.632)" fill="#f7daaf"/><path d="M51.569,22.345a6.886,6.886,0,0,1,.249-3.189,16.106,16.106,0,0,1,8.1-10.778c.129-.073.311-.1.327-.3l0,.007a.238.238,0,0,0,.314-.093,13.973,13.973,0,0,1,10.02.644c5.969,2.73,9.042,7.464,9.261,14.032.024.721-.011,1.443.011,2.163.01.35-.05.51-.464.52-1.566.036-1.566.054-1.567-1.506,0-1.868-.738-3.005-2.215-3.45a3.646,3.646,0,0,0-1.071-.1c-6.6,0-13.208.009-19.812-.009a3.109,3.109,0,0,0-3.154,2.067m17.962-10.9c-.032-.5.258-1.122-.746-1.041-1.283.1-1.289.024-1.29.84,0,1.217,0,1.217.821,1.217,1.214,0,1.214,0,1.214-1.016m4.06,2.045c0-1.03,0-1.03-.729-1.031-1.305,0-1.305,0-1.306.8,0,1.232,0,1.232.806,1.232,1.229,0,1.229,0,1.229-1" transform="translate(-37.527 -5.363)" fill="#faeb94"/><path d="M15.035,186.159a7.547,7.547,0,0,1,2.039-1.417c2.723-1.43,5.464-2.827,8.316-4.3-.087,1.443-.163,2.777-.25,4.111-.1,1.552-.2,3.1-.329,4.655a.581.581,0,0,0,.345.638c.9.509,1.782,1.054,2.682,1.564.258.146.335.262.224.573-.52,1.46-1.011,2.932-1.5,4.4-.088.266-.184.422-.5.419q-5.512-.034-11.023-.047,0-5.3,0-10.6" transform="translate(-10.964 -131.581)" fill="#fdfdfd"/><path d="M88.954,153.615a14.106,14.106,0,0,0,6.286-.123c.325-.089.649-.182.968-.288.806-.268.775-.27.81.544a48.277,48.277,0,0,1-.812,7.909c-.262,2.165-.614,4.319-.88,6.484a1.015,1.015,0,0,1-.8.988,8.252,8.252,0,0,1-3.8.294,7.754,7.754,0,0,0-.141-1.471q-.435-3.125-.851-6.252a42.48,42.48,0,0,1-.78-8.085" transform="translate(-64.847 -111.601)" fill="#f7d9ae"/><path d="M63.192,169.545c.315,2.218.625,4.357.921,6.5.565,4.083,1.113,8.168,1.7,12.248.067.467-.012.582-.473.574-1.375-.024-2.752-.032-4.126,0-.572.014-.552-.19-.4-.621.582-1.654,1.121-3.324,1.712-4.974.144-.4.075-.587-.291-.789-.926-.51-1.819-1.081-2.746-1.589a.813.813,0,0,1-.5-.892c.2-2.742.376-5.487.545-8.232a.535.535,0,0,1,.33-.517c1.084-.544,2.159-1.1,3.333-1.707" transform="translate(-43.008 -123.633)" fill="#a9dff2"/><path d="M118.4,169.559c1,.517,1.954,1.02,2.918,1.5.447.221.191.561.146.821a16.182,16.182,0,0,0,.578,7.869c.318.983.32.982-.568,1.505-.717.422-1.421.869-2.156,1.26-.355.189-.4.37-.268.735.577,1.632,1.12,3.276,1.674,4.915.071.209.133.42.222.7-1.692,0-3.311,0-4.93,0-.385,0-.28-.232-.249-.457q.727-5.252,1.448-10.505.517-3.747,1.043-7.493c.037-.264.088-.526.143-.851" transform="translate(-84.391 -123.644)" fill="#a9dff2"/><path d="M134.3,115.648c0,1.239-.013,2.479.008,3.719a1.136,1.136,0,0,1-.393.94,15.557,15.557,0,0,0-3.948,5.814c-.151.386-.255.533-.689.283-.875-.5-1.785-.951-2.7-1.39a.634.634,0,0,1-.41-.677,17.62,17.62,0,0,1,.041-2.7c.167-.926,1.215-1.157,1.825-1.75a13.377,13.377,0,0,0,4.135-8.207c.044-.364.135-.487.517-.495,1.611-.033,1.61-.047,1.61,1.554Z" transform="translate(-91.982 -81.071)" fill="#f7e893"/><path d="M51.549,114.391a15.715,15.715,0,0,0,1.352,4.142,13.034,13.034,0,0,0,4.175,4.78.959.959,0,0,1,.484.936c-.033.809-.022,1.621,0,2.431a.638.638,0,0,1-.409.677c-1.287.639-2.556,1.315-3.837,1.967-.7.355-1.237-.081-1.8-.4,0-1.352,0-2.7,0-4.057q.014-5.24.031-10.48" transform="translate(-37.564 -83.415)" fill="#f9eb94"/><path d="M146.366,156.618a7.392,7.392,0,0,0,1.353,3.33,15.292,15.292,0,0,0,5.509,5.4c.111.066.257.1.26.275a13.644,13.644,0,0,1-8.278-6.811,14.194,14.194,0,0,1,7.544-20.027,6.4,6.4,0,0,1,.648-.169,14.985,14.985,0,0,1-2,1.467,15.168,15.168,0,0,0-4.931,6.775,1.352,1.352,0,0,0-.106.724l0-.018c-.154.074-.141.217-.148.353l0,.04c-.139.086-.126.23-.139.365a17.005,17.005,0,0,0-.551,4.115,21.943,21.943,0,0,0,.551,3.441c.013.135,0,.28.141.366l0,.039c.007.136-.005.279.148.353Z" transform="translate(-104.644 -101.08)" fill="#6591e7"/><path d="M60.831,62.616c0,4.217-.018,8.435.005,12.652a11.463,11.463,0,0,0,2.689,7.183A13.79,13.79,0,0,0,66.376,85c.15.109.41.142.343.429a11.022,11.022,0,0,1-7.906-9.617c-.191-4.032-.046-8.07-.06-12.106,0-.763.365-1.095,1.134-1.118.314-.009.629.016.944.026" transform="translate(-42.815 -45.64)" fill="#f1b687"/><path d="M83.407,153.485a42.481,42.481,0,0,0,.78,8.085q.422,3.126.851,6.252a7.756,7.756,0,0,1,.141,1.471.272.272,0,0,1-.067.007c-1.932-.3-1.985-.386-2.241-2.3-.464-3.476-.958-6.947-1.448-10.42a29.26,29.26,0,0,1-.1-3.438c-.007-.294.1-.33.364-.231.567.21,1.147.382,1.721.57" transform="translate(-59.3 -111.471)" fill="#f1b687"/><path d="M45.89,112.048q-.016,5.24-.031,10.48c0,1.353,0,2.7,0,4.057a4.7,4.7,0,0,1-2.007-4.064c-.178-3.355-.045-6.717-.071-10.076-.01-1.255,0-1.215,1.226-1.264.682-.028,1.023.135.887.867" transform="translate(-31.905 -81.072)" fill="#f7dd4b"/><path d="M40.364,84.294c0,.854-.012,1.709.006,2.563.007.337-.083.459-.448.475A3.126,3.126,0,0,1,36.3,83.911c0-.517-.015-1.035.007-1.551a1.03,1.03,0,0,1,1.144-1.122c.809-.018,1.62.016,2.428-.013.4-.014.5.139.49.506-.019.854-.006,1.709-.006,2.563" transform="translate(-26.467 -59.229)" fill="#f1b687"/><path d="M144.623,224.073c-1.972,0-3.944,0-5.916,0-.265,0-.339-.158-.407-.362-.506-1.51-1.008-3.022-1.535-4.524-.091-.259-.02-.356.187-.471.451-.25.9-.505,1.332-.79.278-.185.383-.047.51.169a18.155,18.155,0,0,0,5.829,5.975" transform="translate(-99.701 -158.853)" fill="#fdfdfd"/><path d="M148.783,84.3c0-.857.015-1.714-.007-2.57-.01-.377.1-.517.5-.5.788.027,1.578,0,2.367.011s1.174.37,1.187,1.152a18.286,18.286,0,0,1-.054,2.363,3.147,3.147,0,0,1-3.743,2.575c-.314-.073-.241-.276-.243-.458-.008-.857,0-1.713,0-2.57" transform="translate(-108.488 -59.23)" fill="#f1b687"/><path d="M9.575,201.548q0,5.3,0,10.6c-2.027.2-2.027.2-2.027-1.779,0-1.639-.015-3.277.007-4.916a4.755,4.755,0,0,1,2.016-3.907" transform="translate(-5.503 -146.97)" fill="#a9dff2"/><path d="M97.052,220.516a11.133,11.133,0,0,0,3.278-.3c.4-.11.458.04.405.4q-.34,2.336-.643,4.677c-.045.348-.167.511-.548.486-.6-.039-1.213-.031-1.819-.043-.027-.243-.05-.486-.082-.728q-.294-2.245-.591-4.49" transform="translate(-70.771 -160.554)" fill="#eb7151"/><path d="M91.434,220.505q.3,2.245.591,4.49c.032.242.054.485.082.728a8.659,8.659,0,0,0-1.139.04c-.721.117-.962-.184-1.03-.881-.141-1.425-.356-2.843-.567-4.26-.059-.392-.027-.538.42-.423.539.138,1.1.206,1.644.3" transform="translate(-65.153 -160.544)" fill="#e54826"/><path d="M180.564,138.142a.306.306,0,0,1-.356.113.38.38,0,0,1,.356-.113" transform="translate(-131.409 -100.733)" fill="#6591e7"/><path d="M88.394,146.835a.2.2,0,0,1,.315.066l-.315-.066" transform="translate(-64.458 -107.036)" fill="#f1b687"/><path d="M84.211,9.685a.238.238,0,0,1-.314.093.325.325,0,0,1,.314-.093" transform="translate(-61.178 -7.059)" fill="#f7dd4b"/><path d="M180.378,238.252a.224.224,0,0,1,.311.088.324.324,0,0,1-.311-.088" transform="translate(-131.533 -173.713)" fill="#6591e7"/><path d="M151.68,151.478l0-.04a.393.393,0,0,0,.148-.353l0,.018a12.847,12.847,0,0,1,4.943-5.837,12.176,12.176,0,1,1-4.753,15.224c-.055-.121-.126-.234-.189-.351l0,.017c-.01-.134-.016-.27-.148-.353l0-.039a.422.422,0,0,0-.141-.366,21.915,21.915,0,0,1-.551-3.441,17.018,17.018,0,0,1,.551-4.115.42.42,0,0,0,.139-.365m9.081-5.669a1.959,1.959,0,0,0-.333.034,10.151,10.151,0,0,0-6.16,14.624,9.61,9.61,0,0,0,6.492,4.962,8.311,8.311,0,0,0,3.808.242,10.136,10.136,0,0,0,4.41-18.364,9.65,9.65,0,0,0-8.218-1.5" transform="translate(-110.099 -104.601)" fill="#030303"/><path d="M112.7,19.641c0,1.016,0,1.016-1.214,1.016-.822,0-.822,0-.821-1.217,0-.815.007-.736,1.289-.84,1-.081.714.545.746,1.041" transform="translate(-80.701 -13.558)" fill="#040403"/><path d="M127.7,27.241c0,1,0,1-1.229,1-.807,0-.807,0-.806-1.232,0-.8,0-.8,1.306-.8.729,0,.729,0,.729,1.031" transform="translate(-91.635 -19.112)" fill="#040403"/><path d="M153.687,171.66a.393.393,0,0,1-.148.352c.008-.135-.005-.279.148-.352" transform="translate(-111.962 -125.176)" fill="#97b3ed"/><path d="M153.177,173.109a.42.42,0,0,1-.139.365c.013-.134,0-.279.139-.365" transform="translate(-111.596 -126.232)" fill="#97b3ed"/><path d="M153.037,202.359a.421.421,0,0,1,.141.366c-.14-.086-.128-.231-.141-.366" transform="translate(-111.596 -147.562)" fill="#97b3ed"/><path d="M153.54,203.854c.132.083.138.218.148.352-.154-.073-.142-.217-.148-.352" transform="translate(-111.962 -148.652)" fill="#97b3ed"/><path d="M171.818,151.256a9.65,9.65,0,0,1,8.218,1.5,10.136,10.136,0,0,1-4.41,18.364,8.317,8.317,0,0,1-3.809-.242,22.474,22.474,0,0,1-1.98-1.5,11.224,11.224,0,0,1-.539-16.1,23.479,23.479,0,0,1,2.52-2.012m2.428,10c-1.869,0-3.738.008-5.606-.007-.354,0-.512.048-.511.463a9.074,9.074,0,0,0,.426,2.989c1.553,4.5,6.825,5.769,9.932,2.381a7.3,7.3,0,0,0,1.848-5.275c-.007-.428-.1-.569-.55-.563-1.846.027-3.692.011-5.539.011m-4.074-4.052c0-1.049,0-1.049-.786-1.049-1.245,0-1.245,0-1.245.792,0,1.241,0,1.241.854,1.241,1.178,0,1.178,0,1.178-.984m9.17-1.049c-1.05,0-1.05,0-1.051.784,0,1.248,0,1.248.78,1.248,1.252,0,1.252,0,1.252-.776,0-1.257,0-1.257-.981-1.257" transform="translate(-121.156 -110.047)" fill="#f9eb94"/><path d="M166.237,152.176a23.542,23.542,0,0,0-2.52,2.012,11.224,11.224,0,0,0,.539,16.1,22.516,22.516,0,0,0,1.98,1.5,9.61,9.61,0,0,1-6.492-4.962,10.151,10.151,0,0,1,6.16-14.624,1.959,1.959,0,0,1,.333-.034" transform="translate(-115.575 -110.968)" fill="#f7dd4b"/><path d="M179.581,189.062c1.846,0,3.693.016,5.539-.011.453-.007.544.135.551.563a7.3,7.3,0,0,1-1.848,5.275c-3.107,3.388-8.379,2.117-9.932-2.381a9.06,9.06,0,0,1-.426-2.989c0-.415.157-.466.511-.463,1.869.015,3.737.007,5.606.007m-1.909,2.058c-.562-.008-1.124-.012-1.685-.026-.252-.007-.358.052-.312.347a3.945,3.945,0,0,0,7.79-.018c.058-.4-.187-.326-.4-.326q-2.7.008-5.4.023" transform="translate(-126.491 -137.857)" fill="#030303"/><path d="M175.539,171.3c0,.984,0,.984-1.178.984-.854,0-.854,0-.854-1.241,0-.792,0-.792,1.245-.792.786,0,.786,0,.786,1.049" transform="translate(-126.522 -124.152)" fill="#040403"/><path d="M212.046,170.256c.982,0,.982,0,.981,1.257,0,.776,0,.776-1.252.776-.78,0-.78,0-.78-1.248,0-.784,0-.784,1.051-.784" transform="translate(-153.859 -124.152)" fill="#040403"/><path d="M189.005,196.614q2.7-.013,5.4-.023c.21,0,.456-.075.4.326a4.162,4.162,0,0,1-3.888,3.328c-.135-.151-.273-.3-.4-.452a5.75,5.75,0,0,1-1.5-3.178" transform="translate(-137.824 -143.351)" fill="#eb7151"/><path d="M183.6,196.62a5.75,5.75,0,0,0,1.5,3.178c.132.154.269.3.4.452a4.143,4.143,0,0,1-3.9-3.31c-.046-.295.061-.353.312-.347.562.015,1.124.018,1.685.026" transform="translate(-132.417 -143.357)" fill="#e54826"/></g></g></g></g></svg>