<svg xmlns="http://www.w3.org/2000/svg" xmlns:xlink="http://www.w3.org/1999/xlink" width="105.119" height="105.119" viewBox="0 0 105.119 105.119">
  <defs>
    <clipPath id="clip-path">
      <rect id="Rectángulo_313021" data-name="Rectángulo 313021" width="100" height="99.857" fill="none"/>
    </clipPath>
  </defs>
  <g id="Grupo_996297" data-name="Grupo 996297" transform="translate(-184.796 -1136.796)">
    <g id="Grupo_995637" data-name="Grupo 995637" transform="translate(184.796 1136.796)">
      <circle id="Elipse_8159" data-name="Elipse 8159" cx="52.56" cy="52.56" r="52.56" transform="translate(0 0)" fill="#f46464"/>
    </g>
    <g id="Grupo_996341" data-name="Grupo 996341" transform="translate(187.355 1139.428)">
      <g id="Grupo_996341-2" data-name="Grupo 996341" clip-path="url(#clip-path)">
        <path id="Trazado_660494" data-name="Trazado 660494" d="M83.609,91.889c.61,1.116.569,1.538-.3,2.408-1.558,1.569-3.118,3.137-4.7,4.684a2.264,2.264,0,0,1-3.582-.007C73.507,97.468,72,95.944,70.3,94.247c0,.639.008,1.1,0,1.556a3.913,3.913,0,0,1-4.083,4.036q-31.049.012-62.1,0A3.883,3.883,0,0,1,.013,95.748C0,88.958-.015,82.167.018,75.376A14.637,14.637,0,0,1,9.331,61.658c.648-.261.673-.624.672-1.17-.009-11.664.074-23.329-.027-34.993C9.855,11.568,20.151,1.934,32.043.242a24.926,24.926,0,0,1,27.97,21.206,32.033,32.033,0,0,1,.285,4.371q.006,16.57,0,33.141v1.175a15.987,15.987,0,0,1,3.9-1.429,14.169,14.169,0,0,1,11.913,3.228.93.93,0,0,0,1.437-.014c4.937-3.959,10.961-4.578,15.9-1.674,6.254,3.682,8.334,11.258,4.916,17.895A16.474,16.474,0,0,1,95.4,82.224c-2.222,2.239-4.472,4.45-6.684,6.7a1.7,1.7,0,0,1-2.349.342c-.653-1.116-.6-1.549.32-2.476q3.135-3.143,6.279-6.277a14.884,14.884,0,0,0,3.046-4.259A10.275,10.275,0,0,0,87.9,61.474c-3.625-.4-6.59,1.022-9.247,3.313-1.363,1.175-2.332,1.173-3.684-.016A14.213,14.213,0,0,0,70.7,62.11a10.263,10.263,0,0,0-14.07,9.943c.116,3.417,1.76,6.118,4.078,8.47C63.51,83.37,66.35,86.182,69.185,89q3.108,3.089,6.237,6.157a8.581,8.581,0,0,1,.712.79c.5.7.879.561,1.416-.014,1.175-1.259,2.448-2.427,3.638-3.673a1.71,1.71,0,0,1,2.421-.37M53.915,60.035a22.06,22.06,0,0,1,2.483.479c.927.285,1-.1,1-.876-.023-7.369-.013-14.738-.013-22.107,0-1.643,0-1.643-1.459-1.066a.291.291,0,0,1-.093.03c-1.928.045-2.133,1.386-2.162,2.861,0,.065,0,.13-.006.194a19.131,19.131,0,0,1-8.035,11.861,3.355,3.355,0,0,0-.678,2.88c.1.193.251.152.408.14a18.411,18.411,0,0,1,3.773.335c2.614.332,3.153.971,3.256,3.63.062,1.6-.322,1.357,1.53,1.641M40.356,64.768c1.019-2.7,2.211-5.357,1.664-8.392a17.953,17.953,0,0,1-.026-3.03,19.464,19.464,0,0,1-13.637.015V56.75c.134,1.03-.5,2.038-.172,3.049.717,2.183,1.525,4.337,2.256,6.516a1.03,1.03,0,0,0,.877.763,22.483,22.483,0,0,0,6.105.3,2.726,2.726,0,0,0,2.932-2.612M41.022,3.75a6.386,6.386,0,0,0-.649-.206c-8.949-1.859-16.477.623-22.4,7.56a20.162,20.162,0,0,0-4.935,13.023L13,24.278l.133-.059a11.471,11.471,0,0,1,2.352-.862c.545-.061.781-.27.821-.905a3,3,0,0,1,3.2-2.946c1.1-.013,2.2.022,3.3-.01A1.609,1.609,0,0,1,24.682,20.9c-.264,1.208-.635,1.517-1.855,1.526-.976.007-1.953.02-2.928-.006-.469-.013-.712.074-.7.627.091,4.739-.192,9.485.155,14.219A15.166,15.166,0,0,0,30.144,50.8a15.021,15.021,0,0,0,8.535.3,2.082,2.082,0,0,0,.948-.147A15.22,15.22,0,0,0,50.972,36.968c.26-4.63.044-9.272.1-13.908.007-.535-.2-.658-.685-.637-.908.039-1.817.029-2.726.04-.681-.011-1.361-.029-2.042-.03a3.155,3.155,0,0,1-3.462-2.7,17.611,17.611,0,0,1-.193-2.838,2.515,2.515,0,0,0-1.227.794,7.857,7.857,0,0,0-1.873,2.92,2.621,2.621,0,0,1-2.846,1.842c-1.815-.066-3.634-.014-5.451-.016-1.392,0-1.669-.211-2.061-1.538a1.746,1.746,0,0,1,2.02-1.4c1.526.048,3.056-.029,4.581.03a1.317,1.317,0,0,0,1.465-.9,8.4,8.4,0,0,1,5.237-4.892c2.19-.646,3.618.614,3.252,2.866a10.762,10.762,0,0,0-.123,2.033c.017.621.27.909.96.886,1.493-.05,2.991.031,4.483-.029A3.7,3.7,0,0,1,53.5,20.771c.418.721.228,1.739.662,2.271s1.468.54,2.21.849c.96.4.963.428.887-.66a20.385,20.385,0,0,0-2.582-8.689A21.614,21.614,0,0,0,41.022,3.75M51.6,66.89c-.413.984-.874,1.95-1.225,2.954a9.481,9.481,0,0,1-2.431,3.685c-3.617,3.552-7.17,7.168-10.753,10.755a1.61,1.61,0,0,0-.6,1.243c.034,3.539.028,7.078.006,10.618,0,.558.082.792.729.787q6.684-.046,13.367,0c.559,0,.7-.163.695-.706-.027-2.6-.011-5.2-.01-7.793,0-1.851-.01-3.7.006-5.553A1.447,1.447,0,0,1,52.8,81.249c.894-.022,1.474.612,1.507,1.651.007.227,0,.454,0,.682q0,6.283-.006,12.566c0,.427-.085.8.6.785,2.991-.05,5.983-.039,8.974-.049.744.011,1.489.015,2.234.035a1.08,1.08,0,0,0,1.259-1.229c0-1.294-.006-2.588,0-3.882a.962.962,0,0,0-.292-.776c-1.072-1.028-2.13-2.071-3.192-3.108-1.661-1.682-3.309-3.376-4.985-5.043-4.389-4.365-6.374-9.429-4.6-15.6a17.474,17.474,0,0,1,2.179-3.8l-3.97-.671c.351,1.58-.566,2.758-.917,4.079M2.942,85.09q0,5.167,0,10.333c0,1.226.261,1.491,1.474,1.492,3.548,0,7.1-.019,10.643.018.735.007.982-.142.971-.937-.049-3.411-.02-6.823-.018-10.235,0-1.04-.025-2.081.016-3.119a1.338,1.338,0,0,1,1.35-1.384,1.426,1.426,0,0,1,1.549,1.3,6.548,6.548,0,0,1,.018.876c0,4.224.008,8.448-.015,12.672,0,.583.071.837.766.832q6.59-.055,13.181,0c.627,0,.814-.147.808-.794-.034-3.509-.029-7.019,0-10.528a1.756,1.756,0,0,0-.572-1.361c-2.43-2.445-4.725-5.036-7.282-7.338A25.915,25.915,0,0,1,18.24,65.6a5.172,5.172,0,0,1-.509-2.248c.056-.467-.11-.537-.552-.448-1.242.25-2.492.462-3.744.661A11.893,11.893,0,0,0,2.943,75.829q-.006,4.63,0,9.261m9.985-36.915c0,3.213-.016,6.425.01,9.638.007.925-.426,2.242.191,2.666.562.388,1.781-.142,2.7-.313,2.037-.379,2.035-.391,2.123-2.5a2.671,2.671,0,0,1,2.777-2.863,25.589,25.589,0,0,1,4.262-.374c.12.01.239.043.341-.094a3.658,3.658,0,0,0-.518-2.839,18.546,18.546,0,0,1-8.408-13.923c-.048-.456-.168-.687-.676-.742a4.625,4.625,0,0,1-2.012-.686c-.772-.5-.8-.118-.8.539.018,3.829.009,7.659.009,11.488M38.844,78.109l.176.071c1.733-1.7,3.4-3.468,5.215-5.075a16.3,16.3,0,0,0,4.3-6.441,12.91,12.91,0,0,0,1-6.508c-.094-.769.172-1.76-.222-2.267-.44-.567-1.525-.232-2.287-.454-.817-.238-1.06.134-1.291.81C44.3,62.47,42.825,66.685,41.36,70.9q-1.253,3.605-2.516,7.206m-7.625.054a1.465,1.465,0,0,0-.137-1.109q-.89-2.568-1.781-5.137Q26.887,65,24.465,58.077c-.118-.338-.091-.812-.7-.712-.8.131-1.607.241-2.415.315-.376.034-.478.183-.5.539-.15,3.029-.583,6.081,1.213,8.863a14.375,14.375,0,0,1,1.05,2.4,4.329,4.329,0,0,0,.967,1.434c2.373,2.39,4.727,4.8,7.132,7.25m.575-7.988L35.151,79.8l3.35-9.622a23.151,23.151,0,0,1-6.708,0m22.2-40.141c0,1.1.009,2.2,0,3.3-.005.435.04.665.595.506a3.989,3.989,0,0,0,2.768-3.723,4.06,4.06,0,0,0-2.683-3.8c-.5-.148-.707-.08-.687.5.038,1.068.011,2.138.011,3.207m-37.72.1c0-1.068-.033-2.138.012-3.2.03-.7-.256-.743-.805-.544a4.022,4.022,0,0,0-2.538,3.591A4.071,4.071,0,0,0,15.5,33.763c.57.216.821.192.787-.519-.049-1.034-.013-2.071-.013-3.107" transform="translate(0 0)" fill="#030303"/>
        <path id="Trazado_660495" data-name="Trazado 660495" d="M201.207,187.74a1.71,1.71,0,0,0-2.421.37c-1.19,1.246-2.463,2.414-3.639,3.673-.536.575-.92.718-1.416.014a8.469,8.469,0,0,0-.712-.79c.266-.237.544-.461.8-.712,4.074-4.062,8.133-8.139,12.223-12.185a19.716,19.716,0,0,0,3.348-4.147c2.326-4.055,2.6-8.162.261-12.343a14.756,14.756,0,0,0-4.144-4.3,10.275,10.275,0,0,1,8.106,14.777,14.878,14.878,0,0,1-3.046,4.259q-3.139,3.139-6.279,6.277c-.924.927-.973,1.359-.32,2.476l-2.757,2.626" transform="translate(-117.598 -95.851)" fill="#e96d72"/>
        <path id="Trazado_660496" data-name="Trazado 660496" d="M7.529,183.112q0-4.63,0-9.261a11.893,11.893,0,0,1,10.493-12.268c1.251-.2,2.5-.41,3.743-.661.442-.089.608-.019.552.448a5.178,5.178,0,0,0,.51,2.248,25.909,25.909,0,0,0,7.588,11.314c2.556,2.3,4.852,4.894,7.282,7.338a1.756,1.756,0,0,1,.572,1.361c-.025,3.509-.03,7.019,0,10.527.006.647-.181.8-.808.794q-6.59-.04-13.181,0c-.695.006-.769-.249-.766-.832.022-4.224.014-8.448.015-12.672a6.548,6.548,0,0,0-.018-.876,1.427,1.427,0,0,0-1.549-1.3,1.338,1.338,0,0,0-1.35,1.384c-.041,1.038-.015,2.079-.016,3.119,0,3.412-.031,6.824.018,10.235.011.794-.236.944-.971.937-3.548-.038-7.1-.014-10.643-.018-1.212,0-1.472-.266-1.473-1.492q0-5.167,0-10.333" transform="translate(-4.586 -98.022)" fill="#ebf4fc"/>
        <path id="Trazado_660497" data-name="Trazado 660497" d="M176.186,157.184a14.756,14.756,0,0,1,4.144,4.3c2.337,4.18,2.065,8.287-.261,12.343a19.729,19.729,0,0,1-3.348,4.147c-4.09,4.046-8.149,8.123-12.223,12.185-.252.25-.53.475-.8.712-2.08-2.052-4.165-4.1-6.237-6.157-2.834-2.818-5.675-5.63-8.481-8.476-2.319-2.352-3.963-5.052-4.078-8.47a10.263,10.263,0,0,1,14.07-9.943,14.22,14.22,0,0,1,4.278,2.661c1.352,1.189,2.321,1.191,3.684.016,2.657-2.291,5.622-3.717,9.247-3.313m-12.523,13.78c0,.585-.032,1.172.009,1.754.044.624-.2.635-.665.407a5.1,5.1,0,0,1-3.06-4.1,2.234,2.234,0,0,0-1.819-2.223c-.477-.1-.952-.214-1.434-.279a1.482,1.482,0,0,0-1.786,1.119,1.425,1.425,0,0,0,1.271,1.746c.672.1.9.4,1.057,1.012a7.5,7.5,0,0,0,5.113,5.554c1.268.4,1.4,1.009,1.333,2.059-.032.507-.116.737-.685.781a1.424,1.424,0,0,0-.023,2.815,35.39,35.39,0,0,0,4.285,0,1.261,1.261,0,0,0,1.174-1.43,1.233,1.233,0,0,0-1.121-1.366c-.61-.057-.848-.292-.7-.834.163-.611-.525-1.451.694-1.794a7.823,7.823,0,0,0,5.638-5.551c.217-.72.4-1.2,1.272-1.283a1.3,1.3,0,0,0,1.145-1.381,1.38,1.38,0,0,0-.919-1.368,3.266,3.266,0,0,0-4.119,2.394,5.218,5.218,0,0,1-2.876,4.038c-.588.315-.914.379-.862-.492.063-1.068.034-2.144.009-3.215s-.61-1.672-1.514-1.65c-.861.02-1.384.619-1.409,1.636-.014.552,0,1.1,0,1.657" transform="translate(-88.281 -95.71)" fill="#eb8689"/>
        <path id="Trazado_660498" data-name="Trazado 660498" d="M68.578,77.437A15.651,15.651,0,0,1,49.25,63.606c-.347-4.734-.064-9.48-.155-14.219-.011-.553.233-.639.7-.627.975.026,1.952.013,2.927.006,1.22-.009,1.591-.318,1.855-1.526l3.827-.011c.392,1.327.669,1.536,2.061,1.538,1.817,0,3.636-.05,5.451.016a2.621,2.621,0,0,0,2.846-1.842,7.864,7.864,0,0,1,1.873-2.92,2.514,2.514,0,0,1,1.227-.793,17.6,17.6,0,0,0,.193,2.838,3.156,3.156,0,0,0,3.463,2.7c.681,0,1.361.02,2.042.03,0,2.112.039,4.224,0,6.335-.065,3.176.286,6.37-.2,9.526a16.883,16.883,0,0,1-5.753,10.5c-.959.83-2.048,1.474-3.025,2.271m-3.586-4.9A7.416,7.416,0,0,0,69.1,71.257a1.458,1.458,0,0,0,.552-2.09,1.416,1.416,0,0,0-2.042-.412,4.423,4.423,0,0,1-5.108.014,1.425,1.425,0,0,0-2.051.376,1.441,1.441,0,0,0,.522,2.09,7.4,7.4,0,0,0,4.018,1.3m6.691-16.17c0,.259-.008.52,0,.779.036.995.586,1.589,1.458,1.584a1.45,1.45,0,0,0,1.461-1.5,11.8,11.8,0,0,0-.011-1.751,1.454,1.454,0,1,0-2.905.112c-.014.259,0,.519,0,.779m-13.261-.018h0c0-.227.009-.455,0-.682a1.469,1.469,0,1,0-2.925.018,16.367,16.367,0,0,0,.008,1.656,1.456,1.456,0,0,0,2.911-.018c.027-.322,0-.649,0-.974M65,66.116c1.105,0,1.563-.229,1.849-.884a1.382,1.382,0,0,0-.436-1.744,3.029,3.029,0,0,0-2.706-.03,1.388,1.388,0,0,0-.494,1.731A1.577,1.577,0,0,0,65,66.116" transform="translate(-29.898 -26.337)" fill="#f5cdbf"/>
        <path id="Trazado_660499" data-name="Trazado 660499" d="M111.349,171.572c-1.772,6.172.212,11.236,4.6,15.6,1.676,1.667,3.324,3.361,4.985,5.043q-.007,4.481-.013,8.961c-2.992.011-5.984,0-8.974.049-.69.012-.605-.357-.6-.785q.008-6.283.006-12.566c0-.227.006-.455,0-.682-.033-1.039-.613-1.673-1.507-1.651a1.448,1.448,0,0,0-1.419,1.629c-.015,1.851-.005,3.7-.006,5.553,0,2.6-.016,5.2.01,7.793.005.543-.136.709-.695.706q-6.684-.034-13.367,0c-.647,0-.733-.23-.729-.788.022-3.539.029-7.079-.006-10.618a1.609,1.609,0,0,1,.6-1.243c3.582-3.587,7.136-7.2,10.753-10.755a9.484,9.484,0,0,0,2.431-3.685c.351-1.005.813-1.971,1.225-2.954.923-.009,1.779.452,2.709.388" transform="translate(-57.044 -104.294)" fill="#eaf4fc"/>
        <path id="Trazado_660500" data-name="Trazado 660500" d="M48.84,25.488l-3.827.011a1.608,1.608,0,0,0-1.876-1.407c-1.1.032-2.2,0-3.3.01a3,3,0,0,0-3.2,2.946c-.04.635-.276.845-.821.905a11.471,11.471,0,0,0-2.352.862l-.091-.093A20.166,20.166,0,0,1,38.3,15.7c5.921-6.937,13.45-9.419,22.4-7.56a6.386,6.386,0,0,1,.649.206c.08.413.457.547.749.705a22.829,22.829,0,0,1,8.885,8.627,19.877,19.877,0,0,1,2.842,7.689,3.7,3.7,0,0,0-3.115-1.282c-1.492.06-2.99-.021-4.483.029-.69.023-.944-.265-.96-.886a10.762,10.762,0,0,1,.123-2.033c.366-2.252-1.062-3.512-3.252-2.866A8.4,8.4,0,0,0,56.9,23.221a1.317,1.317,0,0,1-1.465.9c-1.525-.059-3.055.018-4.581-.03a1.746,1.746,0,0,0-2.02,1.4" transform="translate(-20.33 -4.596)" fill="#8e9ba6"/>
        <path id="Trazado_660501" data-name="Trazado 660501" d="M32.88,104.179c0-3.829.009-7.659-.009-11.488,0-.658.029-1.037.8-.54a4.624,4.624,0,0,0,2.012.686c.507.055.628.286.676.742A18.546,18.546,0,0,0,44.768,107.5a3.659,3.659,0,0,1,.518,2.839c-.1.137-.222.1-.341.094a25.587,25.587,0,0,0-4.262.374,2.671,2.671,0,0,0-2.777,2.863c-.088,2.107-.086,2.118-2.123,2.5-.921.172-2.14.7-2.7.313-.616-.425-.183-1.741-.191-2.666-.025-3.212-.01-6.425-.01-9.638" transform="translate(-19.952 -56.005)" fill="#8d99a4"/>
        <path id="Trazado_660502" data-name="Trazado 660502" d="M84.152,153.252a2.726,2.726,0,0,1-2.932,2.612,22.484,22.484,0,0,1-6.105-.3,1.03,1.03,0,0,1-.877-.763c-.731-2.179-1.539-4.333-2.256-6.516-.332-1.011.306-2.02.172-3.05,1.255.182,2.391.783,3.648.991a31.014,31.014,0,0,0,5.344.156c.92-.007,1.209.31,1.155,1.192-.061,1-.033,2.013-.009,3.019.03,1.291.7,2.717,1.861,2.661" transform="translate(-43.796 -88.484)" fill="#f2b1a1"/>
        <path id="Trazado_660503" data-name="Trazado 660503" d="M98.991,86.057c.978-.8,2.066-1.441,3.025-2.271a16.884,16.884,0,0,0,5.753-10.5c.489-3.156.138-6.35.2-9.526.043-2.111.006-4.224,0-6.335.909-.011,1.819,0,2.726-.04.486-.021.691.1.685.637-.061,4.636.156,9.277-.1,13.908A15.219,15.219,0,0,1,99.939,85.911a2.077,2.077,0,0,1-.948.147" transform="translate(-60.311 -34.958)" fill="#f2b1a1"/>
        <path id="Trazado_660504" data-name="Trazado 660504" d="M99.41,167.546q1.258-3.6,2.516-7.206c1.465-4.217,2.937-8.433,4.378-12.659.23-.676.474-1.048,1.291-.81.761.222,1.847-.112,2.287.455.393.507.128,1.5.222,2.267a12.911,12.911,0,0,1-1,6.508,16.308,16.308,0,0,1-4.3,6.441c-1.813,1.607-3.482,3.377-5.215,5.075l-.176-.071" transform="translate(-60.566 -89.438)" fill="#c5ddf7"/>
        <path id="Trazado_660505" data-name="Trazado 660505" d="M63.494,167.584c-2.405-2.449-4.759-4.859-7.132-7.25a4.325,4.325,0,0,1-.967-1.434,14.343,14.343,0,0,0-1.05-2.4c-1.8-2.782-1.363-5.833-1.213-8.863.018-.356.121-.5.5-.539.808-.074,1.614-.184,2.415-.315.608-.1.58.375.7.712q2.422,6.919,4.836,13.84.9,2.567,1.78,5.137a1.465,1.465,0,0,1,.137,1.109" transform="translate(-32.275 -89.422)" fill="#c5ddf7"/>
        <path id="Trazado_660506" data-name="Trazado 660506" d="M137.33,95.857c0-.065.005-.13.006-.195.029-1.475.235-2.816,2.162-2.861a.3.3,0,0,0,.093-.03c1.459-.577,1.459-.577,1.459,1.066,0,7.369-.009,14.738.014,22.107,0,.772-.07,1.161-1,.876a21.962,21.962,0,0,0-2.484-.479q0-9.755,0-19.509c0-.34.115-.727-.256-.977" transform="translate(-83.669 -56.309)" fill="#798793"/>
        <path id="Trazado_660507" data-name="Trazado 660507" d="M123.571,101.212c.37.25.256.637.256.977q.006,9.754,0,19.509c-1.852-.284-1.468-.041-1.53-1.641-.1-2.659-.642-3.3-3.256-3.63a18.442,18.442,0,0,0-3.774-.334c-.157.012-.3.053-.408-.14a3.355,3.355,0,0,1,.679-2.879,19.133,19.133,0,0,0,8.035-11.861" transform="translate(-69.91 -61.664)" fill="#8d99a4"/>
        <path id="Trazado_660508" data-name="Trazado 660508" d="M84.571,147.946c-1.163.055-1.831-1.37-1.861-2.661-.024-1.006-.052-2.016.009-3.019.054-.882-.235-1.2-1.155-1.192a31.013,31.013,0,0,1-5.344-.156c-1.257-.208-2.393-.809-3.648-.991v-3.388a19.468,19.468,0,0,0,13.637-.015,17.953,17.953,0,0,0,.026,3.03c.547,3.035-.645,5.688-1.664,8.392" transform="translate(-44.215 -83.178)" fill="#f0a892"/>
        <path id="Trazado_660509" data-name="Trazado 660509" d="M117.461,26.617a19.873,19.873,0,0,0-2.842-7.689,22.829,22.829,0,0,0-8.885-8.627c-.293-.158-.67-.292-.749-.706a21.613,21.613,0,0,1,13.653,10.792,20.381,20.381,0,0,1,2.582,8.689c.076,1.089.072,1.059-.887.66-.742-.309-1.779-.32-2.21-.849s-.244-1.55-.662-2.271" transform="translate(-63.962 -5.846)" fill="#798793"/>
        <path id="Trazado_660510" data-name="Trazado 660510" d="M81.366,179.592a23.164,23.164,0,0,0,6.708,0l-3.35,9.622-3.358-9.624" transform="translate(-49.572 -109.417)" fill="#86cfa3"/>
        <path id="Trazado_660511" data-name="Trazado 660511" d="M163.477,233.972q.006-4.481.013-8.961c1.063,1.038,2.121,2.08,3.192,3.109a.962.962,0,0,1,.292.776c-.011,1.294-.005,2.588,0,3.882a1.08,1.08,0,0,1-1.259,1.229c-.744-.02-1.489-.024-2.234-.035" transform="translate(-99.599 -137.089)" fill="#d8e8f8"/>
        <path id="Trazado_660512" data-name="Trazado 660512" d="M138.161,70.974c0-1.069.027-2.139-.011-3.207-.021-.582.187-.65.686-.5a4.06,4.06,0,0,1,2.684,3.8,3.989,3.989,0,0,1-2.768,3.723c-.555.159-.6-.071-.595-.506.013-1.1,0-2.2,0-3.3" transform="translate(-84.167 -40.941)" fill="#e6a18c"/>
        <path id="Trazado_660513" data-name="Trazado 660513" d="M36.453,71.121c0,1.036-.036,2.073.013,3.107.034.711-.216.734-.787.519a4.071,4.071,0,0,1-2.557-3.782,4.022,4.022,0,0,1,2.538-3.591c.549-.2.835-.159.805.544-.045,1.066-.012,2.136-.012,3.2" transform="translate(-20.179 -40.984)" fill="#f0a892"/>
        <path id="Trazado_660514" data-name="Trazado 660514" d="M134.754,165.212c-.931.063-1.786-.4-2.709-.388.352-1.322,1.268-2.5.917-4.079l3.97.671a17.507,17.507,0,0,0-2.178,3.8" transform="translate(-80.449 -97.934)" fill="#d8e8f8"/>
        <path id="Trazado_660515" data-name="Trazado 660515" d="M33.4,61.836l-.133.059c.014-.051.028-.1.041-.152l.091.093" transform="translate(-20.266 -37.617)" fill="#8e9ba6"/>
        <path id="Trazado_660516" data-name="Trazado 660516" d="M179.214,185.51c0-.552-.011-1.1,0-1.657.025-1.017.547-1.616,1.409-1.636.9-.022,1.489.592,1.514,1.65s.054,2.147-.009,3.215c-.052.871.274.807.862.492a5.217,5.217,0,0,0,2.876-4.038,3.266,3.266,0,0,1,4.119-2.394,1.38,1.38,0,0,1,.919,1.368,1.3,1.3,0,0,1-1.145,1.381c-.871.085-1.055.563-1.271,1.283a7.824,7.824,0,0,1-5.638,5.551c-1.219.343-.531,1.184-.694,1.794-.145.542.093.778.7.834a1.233,1.233,0,0,1,1.12,1.366,1.26,1.26,0,0,1-1.173,1.43,35.4,35.4,0,0,1-4.285,0,1.424,1.424,0,0,1,.023-2.815c.569-.044.653-.274.685-.781.066-1.05-.066-1.658-1.333-2.059a7.505,7.505,0,0,1-5.113-5.554c-.161-.608-.384-.916-1.056-1.012a1.425,1.425,0,0,1-1.271-1.746,1.482,1.482,0,0,1,1.786-1.119c.482.066.957.183,1.434.279a2.233,2.233,0,0,1,1.819,2.223,5.1,5.1,0,0,0,3.06,4.1c.466.228.709.217.665-.407-.041-.582-.009-1.169-.008-1.754" transform="translate(-103.831 -110.256)" fill="#030303"/>
        <path id="Trazado_660517" data-name="Trazado 660517" d="M82.329,111.922a7.405,7.405,0,0,1-4.018-1.3,1.441,1.441,0,0,1-.522-2.09,1.425,1.425,0,0,1,2.051-.376,4.423,4.423,0,0,0,5.107-.014,1.416,1.416,0,0,1,2.043.411,1.458,1.458,0,0,1-.552,2.09,7.415,7.415,0,0,1-4.109,1.279" transform="translate(-47.235 -65.723)" fill="#030303"/>
        <path id="Trazado_660518" data-name="Trazado 660518" d="M106.933,73.271c0-.26-.011-.52,0-.779a1.454,1.454,0,1,1,2.905-.112,11.756,11.756,0,0,1,.011,1.752,1.451,1.451,0,0,1-1.461,1.5c-.872,0-1.422-.59-1.458-1.584-.01-.259,0-.519,0-.779" transform="translate(-65.147 -43.242)" fill="#030303"/>
        <path id="Trazado_660519" data-name="Trazado 660519" d="M68.415,73.251c0,.325.023.651,0,.974a1.457,1.457,0,0,1-2.911.018,16.369,16.369,0,0,1-.008-1.656,1.469,1.469,0,1,1,2.925-.018c.01.227,0,.454,0,.682Z" transform="translate(-39.891 -43.24)" fill="#030303"/>
        <path id="Trazado_660520" data-name="Trazado 660520" d="M86.869,97.183a1.577,1.577,0,0,1-1.787-.926,1.388,1.388,0,0,1,.494-1.731,3.029,3.029,0,0,1,2.706.03,1.382,1.382,0,0,1,.436,1.744c-.286.655-.743.881-1.849.884" transform="translate(-51.762 -57.404)" fill="#030303"/>
      </g>
    </g>
  </g>
</svg>
