<svg xmlns="http://www.w3.org/2000/svg" xmlns:xlink="http://www.w3.org/1999/xlink" width="105.119" height="105.119" viewBox="0 0 105.119 105.119">
  <defs>
    <clipPath id="clip-path">
      <rect id="Rectángulo_313022" data-name="Rectángulo 313022" width="93.478" height="105.119" fill="none"/>
    </clipPath>
  </defs>
  <g id="Grupo_996298" data-name="Grupo 996298" transform="translate(-184.796 -1136.796)">
    <g id="Grupo_995637" data-name="Grupo 995637" transform="translate(184.796 1136.796)">
      <circle id="Elipse_8159" data-name="Elipse 8159" cx="52.56" cy="52.56" r="52.56" transform="translate(0 0)" fill="#f46464"/>
    </g>
    <g id="Grupo_996342" data-name="Grupo 996342" transform="translate(190.616 1136.796)">
      <g id="Grupo_996342-2" data-name="Grupo 996342" clip-path="url(#clip-path)">
        <path id="Trazado_660521" data-name="Trazado 660521" d="M80.952,38.006a1.721,1.721,0,0,1,1.518,1.963c-.027,1.4.015,2.8-.012,4.2-.041,2.052-1.073,3.088-3.122,3.094q-7.737.025-15.475,0c-2.1-.006-3.12-1.047-3.138-3.18q-.031-3.689.005-7.379c.007-.663-.067-.88-.843-.683a17.128,17.128,0,0,1-8.114.13c-.656-.149-.9,0-.959.679a22.555,22.555,0,0,1-1.328,5.763c-.5,1.416-.87,1.634-2.359,1.48a1.854,1.854,0,0,1-.6-2.431,22.462,22.462,0,0,0,1.352-5.856,1.06,1.06,0,0,0-.684-1.262,17.558,17.558,0,0,1-7.148-6.551A17.9,17.9,0,0,1,37.4,15.942c.06-.467.269-.947-.375-1.319a22.018,22.018,0,0,0-10.048-3.1,18.376,18.376,0,0,0-5.306.236C12.54,13.662,6.335,19.023,3.892,28.028s.191,16.784,7.175,23A21.1,21.1,0,0,0,19.3,55.45c.713.209,1.086.232,1.012-.686-.076-.95-.048-1.908-.066-2.863.018-2.617,0-5.235.076-7.85.027-.877-.247-1.092-1.078-1.039-2.137.137-4.224-.019-5.974-1.483a6.221,6.221,0,0,1-1.282-7.688c.1-.135.21-.268.311-.4a6.071,6.071,0,0,1,11.066,3.3c.042.818.046,1.641.011,2.46-.025.585.187.782.767.758.921-.039,1.846-.037,2.767,0,.531.022.728-.139.7-.687-.04-.853-.027-1.709,0-2.563a6.078,6.078,0,0,1,12.116-.5,6.052,6.052,0,0,1-5.1,6.7,21.954,21.954,0,0,1-3.274.105c-.426,0-.688.028-.685.585.022,3.994.012,7.988.012,12a2.055,2.055,0,0,0,.368,0c.233-.05.463-.114.692-.18A21.821,21.821,0,0,0,42.7,48.247a1.834,1.834,0,0,1,2.495-.635c.742,1.061.739,1.576-.065,2.548A24.756,24.756,0,0,1,38.9,55.582a2.276,2.276,0,0,0-1.063,1.28c-.653,1.9-1.353,3.784-2.073,5.66-.164.429-.175.624.3.841a3.453,3.453,0,0,1,2.09,3.356c.019,1.948.032,3.9-.005,5.844A3.423,3.423,0,0,1,35.7,75.98c-.557.192-.631.468-.624.958.016,1.058.023,2.12-.039,3.175a2.235,2.235,0,0,1-1.8,2.211c-.69.152-.761.471-.726,1.026a4.813,4.813,0,0,1-1.079,3.532,4.637,4.637,0,0,1-3.7,1.674c-1.469.01-2.939.015-4.408,0a4.612,4.612,0,0,1-4.84-4.823c-.01-.765-.006-1.276-.977-1.511a2.207,2.207,0,0,1-1.6-2.258c-.023-.546-.015-1.093-.007-1.64.018-1.187.243-2.318-1.448-2.807a2.721,2.721,0,0,1-1.612-2.757c-.034-2.118-.043-4.238,0-6.355a3.227,3.227,0,0,1,1.889-2.95c.631-.31.629-.578.4-1.154q-1.046-2.662-1.966-5.372a2.682,2.682,0,0,0-1.187-1.435c-8-5.277-12.168-12.727-11.977-22.3A25.445,25.445,0,0,1,27.636,8.442a24.965,24.965,0,0,1,9.836,2.91c.3.159.6.314.9.473A18.385,18.385,0,0,1,61.56,1.034a17.872,17.872,0,0,1,10.673,9.855,18.3,18.3,0,0,1,.129,14.635c2.234,0,4.348,0,6.461,0,2.708,0,3.637.931,3.641,3.632,0,.923-.025,1.846.007,2.768A1.749,1.749,0,0,1,80.95,33.99c-1.283-.365-1.551-.7-1.571-2.012-.013-.854-.037-1.71.009-2.562.034-.628-.177-.833-.811-.818a35.037,35.037,0,0,1-5.017-.027,4.262,4.262,0,0,0-4.762,2.35,20.943,20.943,0,0,1-4.554,3.415.8.8,0,0,0-.458.82q.015,4.188,0,8.376c0,.475.156.672.649.659,1.461-.038,2.924-.045,4.386-.064,3.3.019,6.592.028,9.888.067.558.007.689-.22.677-.723-.025-1.155-.019-2.312,0-3.468.017-1.3.292-1.632,1.572-2M27.425,59.341l-2.942.081c-.922-.356-1.245,0-1.12.925a4.58,4.58,0,0,1,0,.61c0,2.132,0,2.132,2.181,1.993,2.05.119,2.053.119,2.048-1.878,0-.54-.028-1.079-.043-1.619.021-.11,0-.167-.128-.113M22.487,76.248c-.37-.027-.739-.076-1.109-.077-2.5-.01-2.487-.007-2.421,2.524.013.494.086.745.66.711.947-.055,1.9-.039,2.848-.052q3.925.015,7.849.031c1.69,0,1.69,0,1.69-1.7,0-1.493,0-1.493-1.521-1.5s-1.808-.2-2.218-1.544A1.77,1.77,0,0,1,30.323,73.1c1.3.026,2.6-.01,3.894.013.6.011.876-.212.87-.834q-.026-2.665,0-5.33c.006-.662-.279-.9-.93-.894-4.3.028-8.607.034-12.911.046-1.495-.013-2.989-.018-4.483-.043-.586-.01-.875.2-.868.829q.033,2.7,0,5.4c-.006.554.2.826.765.817,1.526-.026,3.053-.044,4.58-.064.335.021.67.068,1,.057a1.746,1.746,0,0,1,2.022,1.541,1.765,1.765,0,0,1-1.778,1.6m.947-21.7c-.22,1.706-.213,1.727,1.415,1.782a5.291,5.291,0,0,0,1.915-.108c.442.024.853.127.847-.607-.031-3.994-.019-7.988-.009-11.983,0-.4-.057-.632-.547-.616-1.023.032-2.048.023-3.072,0-.425-.008-.612.118-.608.575.029,3.651.041,7.3.058,10.953m33.107-51.4a14.517,14.517,0,0,0-13.854,7.085,14.275,14.275,0,0,0-.066,15.985A14.445,14.445,0,0,0,56.52,33.4a8.9,8.9,0,0,0,2.724-.383,15.176,15.176,0,0,0-2.7-29.868M30.678,37.925c0,.578.009,1.056,0,1.534-.009.337.111.507.471.489a16.707,16.707,0,0,0,3.265-.136,2.938,2.938,0,0,0,2.258-3.117,3.006,3.006,0,0,0-2.576-2.773,3.05,3.05,0,0,0-3.23,1.977,6.278,6.278,0,0,0-.184,2.028m-10.413.1c0-.477.039-.959-.007-1.431A3,3,0,0,0,17.6,33.9a3.1,3.1,0,0,0-3.064,1.791,2.989,2.989,0,0,0,.911,3.582,4.336,4.336,0,0,0,2.922.673c1.925-.009,1.925,0,1.893-1.925m5.275,44.44v.011c-1.093,0-2.187-.008-3.281.006-.242,0-.532-.122-.682.258a1.949,1.949,0,0,0,1.742,2.719c1.3.035,2.6.021,3.9.02,1.749,0,2.244-.534,2.235-2.266,0-.56-.129-.787-.732-.761-1.058.046-2.119.013-3.178.013m8.573-24.391c-3.332.359-3.439.472-3.439,3.547a3.63,3.63,0,0,0,.007.613c.05.281-.221.794.374.735.485-.049,1.142.356,1.421-.394.552-1.483,1.083-2.973,1.637-4.5m-17.293-.117c.565,1.549,1.132,2.9,1.537,4.289.266.913.887.76,1.5.73.77-.037.4-.656.423-1.008.056-.812.009-1.631.021-2.447.006-.363-.013-.662-.457-.77-.945-.231-1.883-.492-3.023-.794" transform="translate(0 0)" fill="#040403"/>
        <path id="Trazado_660522" data-name="Trazado 660522" d="M43.887,28.026a22.017,22.017,0,0,1,10.048,3.1c.643.372.434.852.375,1.319A17.907,17.907,0,0,0,56.953,44.48,17.56,17.56,0,0,0,64.1,51.031a1.06,1.06,0,0,1,.684,1.262,22.456,22.456,0,0,1-1.353,5.856,1.855,1.855,0,0,0,.6,2.431,21.3,21.3,0,0,1-1.93,3.537,1.835,1.835,0,0,0-2.5.635,21.821,21.821,0,0,1-10.965,7.176c-.229.066-.459.129-.692.18a2.093,2.093,0,0,1-.368,0c0-4.014.01-8.008-.012-12,0-.557.259-.581.685-.585a21.95,21.95,0,0,0,3.274-.105,6.052,6.052,0,0,0,5.1-6.7,6.078,6.078,0,0,0-12.116.5c-.023.854-.037,1.71,0,2.563.025.548-.171.709-.7.687-.921-.038-1.846-.039-2.767,0-.58.024-.792-.173-.767-.758.035-.818.03-1.641-.011-2.459a6.071,6.071,0,0,0-11.066-3.3c-.1.137-.207.27-.311.4a4.619,4.619,0,0,1,.008-2.489A23.5,23.5,0,0,1,35.255,33.9a24.788,24.788,0,0,1,8.633-5.872" transform="translate(-16.906 -16.506)" fill="#f8df85"/>
        <path id="Trazado_660523" data-name="Trazado 660523" d="M143.172,160.676c0,2.594,0,5.119,0,7.645,0,2.155-.963,3.1-3.133,3.1-2.528,0-5.055,0-7.642,0,1.395,4.49.526,8.309-3.511,10.927a8.02,8.02,0,0,1-9.439-.126c-3.822-2.646-4.742-6.376-3.278-10.8-2.63,0-5.188,0-7.746,0-2.071,0-3.013-.927-3.025-2.981-.012-2.324-.016-4.647,0-6.971.015-1.975,1.028-2.94,3-2.9a5.682,5.682,0,1,0,0-11.344c-2.052.017-2.992-.908-3-2.991q-.017-3.793,0-7.586c.01-2.056.951-2.979,3.024-2.985,2.426-.006,4.852-.011,7.278,0a2.588,2.588,0,0,1,2.885,2.825,5.676,5.676,0,0,0,11.342.291c.184-2.414.936-3.116,3.341-3.119.136,0,.273,0,.41,0,10.761.1,9.425-1.387,9.5,9.453,0,.407,0,.815,0,1.3,4.494-1.391,8.284-.495,10.892,3.492a8.041,8.041,0,0,1-.1,9.441c-2.629,3.857-6.373,4.725-10.79,3.333m-28.892,7.635,3.175.036c2.174.026,3.109,1.669,2.02,3.548a5.683,5.683,0,1,0,9.607.042c-1.118-1.941-.179-3.581,2.068-3.589,2.7-.009,5.4-.023,8.1.013.666.009.87-.17.86-.85-.038-2.7-.022-5.4-.013-8.1.007-2.268,1.612-3.188,3.571-2.044a5.691,5.691,0,0,0,8.511-3.386,5.691,5.691,0,0,0-8.561-6.226c-1.895,1.1-3.511.173-3.52-2.034-.011-2.734-.014-5.468.006-8.2,0-.531-.074-.8-.709-.792-1.913.039-3.827.026-5.741.006-.471,0-.629.148-.7.627-.681,4.652-4.1,7.777-8.531,7.84a8.623,8.623,0,0,1-8.784-7.432c-.163-1.015-.541-1.157-1.357-.989-1.737-.013-3.474-.016-5.211-.044-.437-.007-.6.14-.6.585.016,2.079.009,4.158,0,6.237,0,.339.029.586.479.591a9.391,9.391,0,0,1,5.3,1.892,9.543,9.543,0,0,1,2.682,3.8c1.3,3.882.28,7.154-2.654,9.908a9.058,9.058,0,0,1-5.084,1.886c-.586.009-.739.268-.73.82q.043,2.607,0,5.215c-.009.54.172.7.7.691,1.7-.039,3.406-.034,5.11-.045" transform="translate(-62.067 -78.707)" fill="#040302"/>
        <path id="Trazado_660524" data-name="Trazado 660524" d="M167.37,71.776a4.262,4.262,0,0,1,4.762-2.35,34.917,34.917,0,0,0,5.017.027c.633-.014.844.19.811.818-.046.852-.022,1.708-.009,2.562.02,1.313.288,1.647,1.571,2.011q0,2.008,0,4.016c-1.28.365-1.555.7-1.572,2-.015,1.156-.021,2.313,0,3.468.011.5-.12.73-.677.724-3.3-.039-6.592-.048-9.888-.067q-.01-6.6-.021-13.207" transform="translate(-98.572 -40.856)" fill="#c199e0"/>
        <path id="Trazado_660525" data-name="Trazado 660525" d="M124.886,7.671a15.176,15.176,0,0,1,2.7,29.868,8.882,8.882,0,0,1-2.724.382.565.565,0,0,0-.359-.451,15.04,15.04,0,0,1-5.03-4.186c-1.91-2.525-3.387-5.224-3.418-8.5.4.042.544.384.758.636,1.3,1.537,2.594,3.083,3.9,4.619,1.15,1.352,1.92,1.375,3.09.062q4.5-5.049,8.974-10.117c.226-.256.464-.5.674-.771a1.531,1.531,0,1,0-2.264-2.059c-.41.41-.78.86-1.165,1.294-2.559,2.884-5.117,5.77-7.715,8.7-.355-.422-.654-.793-.969-1.149-1.786-2.017-3.373-4.207-5.294-6.108a16.445,16.445,0,0,1,7.93-11.442c.339-.213.737-.363.911-.773" transform="translate(-68.344 -4.518)" fill="#66dda0"/>
        <path id="Trazado_660526" data-name="Trazado 660526" d="M31.279,27.9a24.788,24.788,0,0,0-8.633,5.872,23.5,23.5,0,0,0-6.357,13.959,4.619,4.619,0,0,0-.008,2.489,6.22,6.22,0,0,0,1.282,7.688,1.942,1.942,0,0,0,.2,1.088,23.275,23.275,0,0,0,4.582,7.382,5.461,5.461,0,0,0,2.194,1.9c.018.954-.01,1.913.066,2.863.074.919-.3.9-1.012.686a21.1,21.1,0,0,1-8.229-4.42c-6.984-6.217-9.621-13.986-7.175-23s8.648-14.366,17.783-16.272a18.372,18.372,0,0,1,5.306-.236" transform="translate(-4.297 -16.381)" fill="#f6cf6e"/>
        <path id="Trazado_660527" data-name="Trazado 660527" d="M114.15,7.634c-.174.41-.573.56-.911.773a16.445,16.445,0,0,0-7.93,11.442,1.632,1.632,0,0,0-1.965.672c-.489.817-.1,1.47.423,2.125a6.891,6.891,0,0,1,1.555,2.1c.03,3.281,1.508,5.98,3.418,8.5a15.04,15.04,0,0,0,5.03,4.186.565.565,0,0,1,.359.451,14.445,14.445,0,0,1-13.9-7.18,14.276,14.276,0,0,1,.066-15.985A14.517,14.517,0,0,1,114.15,7.634" transform="translate(-57.608 -4.48)" fill="#5fcc93"/>
        <path id="Trazado_660528" data-name="Trazado 660528" d="M54.7,169.286a1.746,1.746,0,0,0-2.022-1.541c-.334.011-.669-.036-1-.057q0-3.471.006-6.943c4.3-.013,8.607-.018,12.911-.046.652,0,.937.233.93.894q-.025,2.665,0,5.33c.006.622-.268.844-.87.834-1.3-.023-2.6.014-3.894-.013a1.77,1.77,0,0,0-2.057,1.541h-4" transform="translate(-30.432 -94.643)" fill="#ecf7f9"/>
        <path id="Trazado_660529" data-name="Trazado 660529" d="M160.187,75.221q.011,6.6.021,13.207c-1.462.019-2.924.026-4.386.064-.492.013-.65-.184-.648-.659q.02-4.188,0-8.377a.8.8,0,0,1,.459-.82,20.95,20.95,0,0,0,4.554-3.415" transform="translate(-91.389 -44.301)" fill="#b082d6"/>
        <path id="Trazado_660530" data-name="Trazado 660530" d="M56.927,116.182c-.017-3.651-.029-7.3-.058-10.953,0-.457.183-.583.608-.575,1.024.02,2.049.029,3.072,0,.49-.016.548.212.547.616-.01,3.994-.023,7.989.009,11.983.006.734-.4.631-.847.607l-3.33-1.675" transform="translate(-33.493 -61.633)" fill="#f8df85"/>
        <path id="Trazado_660531" data-name="Trazado 660531" d="M56.455,181.588h4c.41,1.345.685,1.537,2.218,1.544s1.521.007,1.521,1.5c0,1.7,0,1.7-1.69,1.7q-3.925-.011-7.849-.031.01-1.553.021-3.106a1.765,1.765,0,0,0,1.778-1.6" transform="translate(-32.189 -106.945)" fill="#b0e2eb"/>
        <path id="Trazado_660532" data-name="Trazado 660532" d="M44.02,160.749q0,3.471-.006,6.943c-1.527.021-3.053.038-4.58.064-.567.009-.77-.262-.764-.817q.028-2.7,0-5.4c-.007-.632.282-.839.868-.829,1.494.026,2.989.03,4.483.043" transform="translate(-22.774 -94.646)" fill="#d6edf1"/>
        <path id="Trazado_660533" data-name="Trazado 660533" d="M39.219,111.4a5.461,5.461,0,0,1-2.194-1.9,23.275,23.275,0,0,1-4.582-7.382,1.953,1.953,0,0,1-.2-1.088c1.75,1.463,3.837,1.62,5.974,1.483.83-.053,1.1.162,1.078,1.039-.079,2.615-.058,5.233-.076,7.85" transform="translate(-18.977 -59.501)" fill="#f8df85"/>
        <path id="Trazado_660534" data-name="Trazado 660534" d="M74.627,86.473a6.278,6.278,0,0,1,.184-2.028,3.051,3.051,0,0,1,3.23-1.977,3.007,3.007,0,0,1,2.576,2.773,2.939,2.939,0,0,1-2.258,3.117,16.709,16.709,0,0,1-3.265.136c-.36.018-.48-.152-.471-.489.013-.478,0-.956,0-1.534" transform="translate(-43.949 -48.549)" fill="#f8df85"/>
        <path id="Trazado_660535" data-name="Trazado 660535" d="M40.725,86.569c.032,1.922.032,1.916-1.893,1.925a4.339,4.339,0,0,1-2.922-.674A2.989,2.989,0,0,1,35,84.238a3.1,3.1,0,0,1,3.064-1.791,3,3,0,0,1,2.655,2.69c.047.473.007.954.007,1.431" transform="translate(-20.46 -48.545)" fill="#f8df85"/>
        <path id="Trazado_660536" data-name="Trazado 660536" d="M56.242,200.595c1.059,0,2.12.033,3.178-.013.6-.026.729.2.732.761.009,1.732-.486,2.265-2.235,2.266-1.3,0-2.6.015-3.9-.02a1.949,1.949,0,0,1-1.741-2.719c.15-.38.44-.254.682-.258,1.093-.014,2.187-.007,3.281-.007v-.011" transform="translate(-30.702 -118.131)" fill="#57c2d8"/>
        <path id="Trazado_660537" data-name="Trazado 660537" d="M49.624,185.381q-.01,1.553-.022,3.105c-.95.014-1.9,0-2.848.052-.575.034-.647-.217-.66-.711-.066-2.531-.08-2.534,2.421-2.524.37,0,.739.051,1.109.078" transform="translate(-27.136 -109.133)" fill="#57c2d8"/>
        <path id="Trazado_660538" data-name="Trazado 660538" d="M78.045,141.279c-.555,1.528-1.085,3.019-1.637,4.5-.279.749-.937.346-1.422.394-.594.059-.324-.455-.374-.735a3.588,3.588,0,0,1-.007-.613c0-3.075.107-3.189,3.439-3.547" transform="translate(-43.931 -83.206)" fill="#f7eab0"/>
        <path id="Trazado_660539" data-name="Trazado 660539" d="M40.921,140.995c1.139.3,2.077.563,3.023.794.444.109.462.408.457.77-.012.816.035,1.634-.021,2.447-.025.352.348.971-.423,1.008-.612.03-1.233.183-1.5-.73-.406-1.393-.973-2.74-1.537-4.289" transform="translate(-24.1 -83.038)" fill="#f8df85"/>
        <path id="Trazado_660540" data-name="Trazado 660540" d="M59.563,144.442l2.942-.081a.127.127,0,0,0,.129.113c.015.54.041,1.079.042,1.619.005,2,0,2-2.048,1.878-.228-1.215-.933-2.285-1.065-3.529" transform="translate(-35.079 -85.021)" fill="#f7eab0"/>
        <path id="Trazado_660541" data-name="Trazado 660541" d="M57.921,144.364c.132,1.243.837,2.314,1.065,3.529-2.181.139-2.181.139-2.181-1.993a4.579,4.579,0,0,0,0-.61c-.125-.921.2-1.281,1.121-.925" transform="translate(-33.437 -84.943)" fill="#f6cf6e"/>
        <path id="Trazado_660542" data-name="Trazado 660542" d="M56.866,132.705l3.33,1.675a5.306,5.306,0,0,1-1.916.108c-1.627-.055-1.634-.076-1.414-1.782" transform="translate(-33.431 -78.156)" fill="#ee9a4d"/>
        <path id="Trazado_660543" data-name="Trazado 660543" d="M66.848,144.443a.128.128,0,0,1-.129-.113c.124-.055.15,0,.129.113" transform="translate(-39.294 -84.99)" fill="#f6cf6e"/>
        <path id="Trazado_660544" data-name="Trazado 660544" d="M126.988,164.156c2.934-2.754,3.958-6.026,2.654-9.908a9.544,9.544,0,0,0-2.682-3.8q.013-4.631.025-9.261c.816-.168,1.194-.026,1.357.989a8.623,8.623,0,0,0,8.784,7.432c4.434-.063,7.851-3.189,8.531-7.84.07-.479.229-.632.7-.627,1.913.02,3.828.033,5.741-.006.635-.013.713.26.709.791q-.03,4.1-.006,8.2c.009,2.207,1.625,3.134,3.52,2.034a5.691,5.691,0,0,1,8.561,6.226,5.691,5.691,0,0,1-8.511,3.386c-1.959-1.144-3.563-.224-3.571,2.044-.009,2.7-.025,5.4.014,8.1.009.68-.194.86-.861.85-2.7-.036-5.4-.022-8.1-.013-2.246.008-3.186,1.648-2.068,3.589a5.682,5.682,0,1,1-9.606-.042c1.089-1.879.154-3.522-2.02-3.548l-3.176-.036q0-4.283,0-8.566" transform="translate(-74.772 -83.118)" fill="#ee9a4d"/>
        <path id="Trazado_660545" data-name="Trazado 660545" d="M118.7,141.214q-.013,4.631-.025,9.262a9.39,9.39,0,0,0-5.3-1.892c-.45,0-.48-.252-.479-.591,0-2.079.011-4.158,0-6.237,0-.445.159-.592.6-.585,1.737.028,3.474.031,5.211.043" transform="translate(-66.488 -83.142)" fill="#ed8a36"/>
        <path id="Trazado_660546" data-name="Trazado 660546" d="M118.7,197.146q0,4.283,0,8.566c-1.7.011-3.407.007-5.11.045-.53.012-.71-.15-.7-.691q.043-2.607,0-5.215c-.009-.551.144-.811.73-.82a9.057,9.057,0,0,0,5.084-1.886" transform="translate(-66.481 -116.108)" fill="#ed8a36"/>
        <path id="Trazado_660547" data-name="Trazado 660547" d="M112.921,37.574a6.891,6.891,0,0,0-1.555-2.1c-.52-.656-.912-1.308-.423-2.125a1.632,1.632,0,0,1,1.965-.672c1.921,1.9,3.508,4.091,5.294,6.108.316.356.615.728.969,1.149,2.6-2.93,5.156-5.816,7.715-8.7.385-.434.755-.884,1.165-1.294A1.531,1.531,0,1,1,130.316,32c-.21.269-.448.516-.674.771q-4.486,5.06-8.974,10.117c-1.17,1.313-1.941,1.29-3.09-.062-1.3-1.535-2.6-3.082-3.9-4.619-.215-.253-.363-.595-.758-.636" transform="translate(-65.208 -17.312)" fill="#040302"/>
      </g>
    </g>
  </g>
</svg>
