<svg xmlns="http://www.w3.org/2000/svg" xmlns:xlink="http://www.w3.org/1999/xlink" width="75.203" height="75.203" viewBox="0 0 75.203 75.203"><defs><clipPath id="a"><rect width="65.411" height="67.644" fill="none"/></clipPath></defs><g transform="translate(-184 -5667)"><g transform="translate(0 4531)"><g transform="translate(3 633)"><circle cx="37.602" cy="37.602" r="37.602" transform="translate(181 503)" fill="#f46464"/></g><g transform="translate(188.896 1139.78)"><g clip-path="url(#a)"><path d="M32.745.011C39,.011,45.25-.019,51.5.019a14.079,14.079,0,0,1,5.276,27.067,1.108,1.108,0,0,0-.815,1.075c-.138,1.687-.382,3.364-.573,5.047a1.108,1.108,0,0,1-.718,1.077c-.526.18-.877-.116-1.22-.448-1.8-1.745-3.615-3.481-5.41-5.234a1.288,1.288,0,0,0-.985-.407q-4.822.023-9.643,0a.859.859,0,0,0-.868.523c-.9,1.61-1.833,3.2-2.759,4.8-.648,1.118-1.45,1.111-2.1-.017-.935-1.616-1.875-3.228-2.793-4.854a.773.773,0,0,0-.78-.447q-4.854.023-9.709,0a1.214,1.214,0,0,0-.931.376c-1.8,1.753-3.608,3.488-5.412,5.232-.357.345-.713.669-1.272.475s-.655-.654-.712-1.154c-.2-1.727-.409-3.451-.587-5.179a.778.778,0,0,0-.56-.758A14.1,14.1,0,0,1,14.384,0q9.18.014,18.362,0ZM60.677,6.459A11.642,11.642,0,0,0,51.307,2Q32.754,1.96,14.2,2A12.074,12.074,0,0,0,2.046,14.009,11.51,11.51,0,0,0,6.3,23.266a10.479,10.479,0,0,0,4.008,2.32,1.36,1.36,0,0,1,1.051,1.32c.132,1.412.326,2.819.507,4.338,1.571-1.513,3.072-2.928,4.533-4.383a2.119,2.119,0,0,1,1.643-.652c3.126.024,6.252,0,9.377.015,2.751.016,2.122-.347,3.507,2.006.6,1.012,1.181,2.031,1.821,3.133.866-1.5,1.7-2.882,2.476-4.3a1.492,1.492,0,0,1,1.485-.852c3.038.022,6.081.123,9.111-.032a5.031,5.031,0,0,1,4.491,1.834c.974,1.144,2.155,2.112,3.315,3.225.181-1.525.373-2.94.506-4.36A1.321,1.321,0,0,1,55.137,25.6,12.072,12.072,0,0,0,60.677,6.459" transform="translate(-0.033 0)" fill="#030303"/><path d="M170.55,160.311c-.841-.223-1.033-.468-1.036-1.338q0-1.552,0-3.1a5.841,5.841,0,0,1,5.13-6.054c.015-.284-.2-.47-.308-.7a6.068,6.068,0,0,1-.618-2.606c0-1.827-.013-3.654,0-5.48a3.778,3.778,0,0,1,3.821-3.869q2.244-.043,4.49,0a3.7,3.7,0,0,1,3.792,3.478c.12,2.105.053,4.224,0,6.335a5.485,5.485,0,0,1-.982,2.825,6.588,6.588,0,0,1,1.743.485,5.712,5.712,0,0,1,3.457,5.464c.02,3.829.01,7.659,0,11.489,0,.928-.344,1.245-1.3,1.246q-8.981,0-17.963,0c-.927,0-1.267-.344-1.271-1.276q-.008-1.585,0-3.169c0-.811.232-1.082,1.035-1.263a1.05,1.05,0,0,1,.95,1.207c-.016.4,0,.792,0,1.188,0,1.356,0,1.333,1.391,1.343.457,0,.534-.155.531-.562-.016-2.663-.009-5.327-.007-7.99a3.99,3.99,0,0,1,.037-.723.97.97,0,0,1,1.889-.068,2.96,2.96,0,0,1,.062.719c0,2.641.026,5.283-.015,7.924-.01.611.18.707.732.7q3.731-.045,7.463,0c.5.006.611-.13.607-.616-.025-2.729-.015-5.459-.011-8.188,0-1.087.549-1.467,1.579-1.115a1.459,1.459,0,0,1,.409,1.132c-.015,2.484-.007,4.968-.007,7.452,0,1.336,0,1.315,1.331,1.332.456.006.589-.111.585-.578-.021-3.144-.009-6.287-.013-9.431a12.653,12.653,0,0,0-.058-1.514,3.678,3.678,0,0,0-3.7-3.16,4.671,4.671,0,0,0-2.378.263,5.189,5.189,0,0,1-4.109.054,5.834,5.834,0,0,0-2.5-.358,3.8,3.8,0,0,0-3.811,3.88c-.013,1.12-.024,2.242.005,3.361a1.117,1.117,0,0,1-.954,1.281m11.1-18.144c.6.212,1.2.42,1.8.638.279.1.458.111.441-.278-.023-.527.018-1.058-.017-1.583a1.847,1.847,0,0,0-1.892-1.8c-.328-.011-.658.016-.987.025-1.183-.006-2.367-.039-3.549-.01a1.759,1.759,0,0,0-1.731,1.653c-.038.608-.007,1.22-.007,1.913.815-.4,1.584-.75,2.332-1.144a1.659,1.659,0,0,1,1.5-.108c.687.275,1.407.469,2.112.7m0,2.152a8.718,8.718,0,0,1-.914-.357,3.379,3.379,0,0,0-3.55.2c-1.54.9-1.591.815-1.483,2.608a4.1,4.1,0,0,0,8.177-.43c.023-1.287.024-1.29-1.172-1.7-.349-.119-.706-.217-1.059-.325" transform="translate(-124.643 -100.841)" fill="#030303"/><path d="M1,160.32A1.1,1.1,0,0,1,0,159.07c.017-1.188-.031-2.379.02-3.566.131-3.034,1.949-5.033,5.194-5.712a7.725,7.725,0,0,1-1.039-4.884c.025-1.254,0-2.509.007-3.764a3.825,3.825,0,0,1,3.939-3.975c2.334-.023,4.668-.01,7,0,.894,0,1.209.333,1.21,1.25,0,2.642-.011,5.284.007,7.925a6.624,6.624,0,0,1-.994,3.472,6.606,6.606,0,0,1,1.736.488,5.6,5.6,0,0,1,3.436,5.207c.066,3.94.024,7.881.017,11.821,0,.8-.373,1.164-1.182,1.165q-9.082.006-18.165,0c-.808,0-1.169-.354-1.181-1.163-.016-1.123,0-2.245-.005-3.368A1.042,1.042,0,0,1,1,162.79c.788.2.978.428,1,1.23.01.44,0,.88,0,1.32,0,1.172,0,1.126,1.153,1.19.664.037.777-.181.769-.8-.036-2.706-.02-5.413-.013-8.12,0-.864.665-1.387,1.362-1.084a1.081,1.081,0,0,1,.624,1.131c-.008,2.773.006,5.545-.014,8.318,0,.431.111.546.542.543,2.531-.021,5.062-.031,7.593.006.581.008.668-.18.663-.7-.026-2.706-.019-5.413-.009-8.12,0-1.112.619-1.493,1.646-1.052a1.6,1.6,0,0,1,.333,1.168c-.006,2.418,0,4.836,0,7.253,0,1.5,0,1.488,1.49,1.446.35-.01.44-.109.439-.451-.012-3.517.018-7.034-.02-10.55a3.707,3.707,0,0,0-3.949-3.688,4.224,4.224,0,0,0-2.177.267,5.268,5.268,0,0,1-4.167.039,5.462,5.462,0,0,0-2.243-.345A3.793,3.793,0,0,0,2,155.789c-.014,1.075,0,2.151,0,3.226-.006.849-.179,1.066-.994,1.305m9.289-16.673v-.007c-1.208,0-2.417.01-3.625-.006-.352,0-.516.071-.5.47.029.812-.014,1.626.017,2.437a4.086,4.086,0,0,0,8.17-.074c.012-.768-.018-1.538.012-2.306.016-.4-.1-.532-.513-.523-1.186.027-2.372.009-3.558.009m-.04-1.989v-.017c1.209,0,2.418-.009,3.627.006.331,0,.483-.084.467-.443-.023-.527-.022-1.056,0-1.582.015-.346-.111-.455-.454-.454-1.957.007-3.913-.024-5.869,0a1.874,1.874,0,0,0-1.858,1.981c-.007.408.125.528.526.521,1.187-.023,2.374-.008,3.561-.008" transform="translate(0 -100.853)" fill="#030303"/><path d="M85.76,160.31c-.81-.222-1.015-.471-1.021-1.289-.007-1.1-.015-2.2,0-3.3a5.8,5.8,0,0,1,5.012-5.869,1.2,1.2,0,0,0,.193-.094c-1.233-1.7-1.005-3.663-1.011-5.589,0-1.079-.016-2.157,0-3.236a3.786,3.786,0,0,1,3.729-3.765q2.344-.053,4.689,0a3.778,3.778,0,0,1,3.725,3.767c.023,1.893.013,3.786,0,5.68a6.219,6.219,0,0,1-.991,3.177,5.851,5.851,0,0,1,5.029,4.494,6.071,6.071,0,0,1,.169,1.571q0,5.614,0,11.227c0,1.1-.3,1.4-1.418,1.4h-17.7c-1.14,0-1.427-.293-1.429-1.455,0-1.013-.009-2.025,0-3.038.009-.767.242-1.03,1.019-1.213a1.037,1.037,0,0,1,.963,1.191c-.015.418,0,.836,0,1.255,0,1.286,0,1.263,1.316,1.291.481.01.634-.094.625-.606-.035-1.871-.014-3.742-.013-5.613,0-.947-.012-1.894.007-2.84a.938.938,0,0,1,.918-1,.982.982,0,0,1,1.049.956,4.742,4.742,0,0,1,.007.528c0,2.664.011,5.327-.011,7.991,0,.45.093.591.567.586,2.532-.026,5.064-.032,7.6,0,.556.008.626-.188.623-.665-.02-2.708-.014-5.415-.008-8.123,0-1.1.544-1.48,1.568-1.138a1.383,1.383,0,0,1,.417,1.127c-.014,2.463-.006,4.926-.006,7.388,0,1.491,0,1.48,1.526,1.406.313-.015.412-.1.411-.416-.011-3.54.038-7.082-.03-10.62a3.677,3.677,0,0,0-3.917-3.651,4.259,4.259,0,0,0-2.179.257,5.265,5.265,0,0,1-4.169.057,5.615,5.615,0,0,0-2.306-.355,3.815,3.815,0,0,0-3.989,3.969c-.013,1.1-.022,2.2,0,3.293a1.1,1.1,0,0,1-.967,1.264m11.1-15.345a6.693,6.693,0,0,1-2.907-1.3c-.2-.172-.352-.089-.53,0a4.255,4.255,0,0,1-2.085.513c-.364-.014-.44.123-.429.451.022.658-.01,1.318.015,1.976a4.06,4.06,0,0,0,4.215,3.892,3.716,3.716,0,0,0,.522-.023,4.153,4.153,0,0,0,3.444-4.454c0-1.033,0-1.028-1-1.022-.416,0-.833-.019-1.25-.029m-1.844-5.818v-.01c-.352,0-.7-.013-1.055,0a5.6,5.6,0,0,0-1.829.122,2.376,2.376,0,0,0-1.21,2.78c.084.2.239.158.38.16a2.9,2.9,0,0,0,1.771-.615c.695-.5,1.073-.483,1.667.124a4.255,4.255,0,0,0,3.131,1.311c1.228.012,1.228.021,1.228-1.225,0-.242.005-.484,0-.726a1.841,1.841,0,0,0-1.9-1.92c-.725-.017-1.451,0-2.177,0" transform="translate(-62.304 -100.841)" fill="#030303"/><path d="M103.821,197.266c-1.024-.342-1.565.043-1.568,1.138-.006,2.708-.012,5.415.008,8.123,0,.478-.067.673-.623.665-2.531-.035-5.064-.029-7.6,0-.475,0-.571-.136-.567-.586.022-2.664.011-5.327.011-7.991a4.743,4.743,0,0,0-.007-.528.983.983,0,0,0-1.05-.956.938.938,0,0,0-.918,1c-.019.946-.007,1.893-.007,2.84,0,1.871-.021,3.743.014,5.613.01.512-.144.616-.625.606-1.315-.028-1.315,0-1.315-1.291,0-.418-.012-.837,0-1.255a1.037,1.037,0,0,0-.963-1.191q0-1.234,0-2.468a1.1,1.1,0,0,0,.967-1.264c-.026-1.1-.017-2.2,0-3.293a3.815,3.815,0,0,1,3.989-3.969,5.615,5.615,0,0,1,2.306.355,5.265,5.265,0,0,0,4.169-.057,4.261,4.261,0,0,1,2.179-.257c.172.2.348.389.514.59a4.631,4.631,0,0,1,1.085,4.177" transform="translate(-65.16 -141.517)" fill="#e4d2fa"/><path d="M19.075,197.324c-1.027-.441-1.642-.06-1.646,1.052-.011,2.707-.018,5.413.008,8.12.005.52-.082.709-.663.7-2.53-.037-5.062-.027-7.593-.006-.432,0-.546-.112-.542-.543.02-2.773.006-5.545.014-8.318A1.081,1.081,0,0,0,8.03,197.2c-.7-.3-1.36.22-1.362,1.084-.007,2.707-.023,5.414.013,8.12.008.614-.105.832-.769.8-1.151-.064-1.153-.017-1.153-1.19,0-.44.008-.88,0-1.32-.018-.8-.208-1.031-1-1.23q0-1.235,0-2.47c.815-.239.988-.456.994-1.3.008-1.075-.009-2.151,0-3.227a3.793,3.793,0,0,1,4.018-3.993,5.458,5.458,0,0,1,2.243.345,5.269,5.269,0,0,0,4.167-.039,4.224,4.224,0,0,1,2.177-.267,5.456,5.456,0,0,1,1.709,4.822" transform="translate(-2.766 -141.52)" fill="#abccf8"/><path d="M173.435,200.988a1.118,1.118,0,0,0,.954-1.281c-.029-1.12-.018-2.241-.005-3.362a3.8,3.8,0,0,1,3.811-3.88,5.842,5.842,0,0,1,2.5.358,5.188,5.188,0,0,0,4.11-.054,4.67,4.67,0,0,1,2.378-.263c.2.54.675.893.925,1.4a4.54,4.54,0,0,1,.529,3.368c-1.03-.353-1.577.028-1.579,1.115,0,2.729-.015,5.459.011,8.188,0,.486-.1.622-.607.616q-3.731-.044-7.463,0c-.552.007-.741-.09-.732-.7.041-2.641.019-5.282.015-7.923a2.961,2.961,0,0,0-.062-.719.97.97,0,0,0-1.889.068,3.939,3.939,0,0,0-.037.723c0,2.664-.009,5.327.007,7.99,0,.407-.075.565-.531.562-1.391-.01-1.391.013-1.391-1.343,0-.4-.014-.793,0-1.188a1.05,1.05,0,0,0-.95-1.207q0-1.232,0-2.464" transform="translate(-127.529 -141.518)" fill="#d2f0a6"/><path d="M11.855,28.775A11.509,11.509,0,0,1,7.6,19.518,12.074,12.074,0,0,1,19.76,7.5q18.553-.021,37.105.006a11.641,11.641,0,0,1,9.37,4.458c-.34.238-.043.484.021.694a12.6,12.6,0,0,1-.01,7.49,13.069,13.069,0,0,1-3.937,6.1,12.86,12.86,0,0,1-8.517,3.289c-4.33.092-8.664.024-13,.02-.23,0-.494.083-.665-.17a2.847,2.847,0,0,0,2-3.048c-.018-.351.019-.705-.008-1.055a4.939,4.939,0,0,1,.921-3.161,16.536,16.536,0,0,0,1.5-2.553,6.823,6.823,0,1,0-11.73,1.378,7.718,7.718,0,0,1,1.665,5.392,2.75,2.75,0,0,0,1.985,3.047c-.215.287-.526.169-.8.169q-9.59.01-19.18-.005a13.325,13.325,0,0,1-2.208-.235c-.815-.14-1.618-.356-2.426-.539" transform="translate(-5.591 -5.509)" fill="#ecf3fd"/><path d="M51.941,41.822c.171.253.434.17.665.17,4.332,0,8.665.073,13-.02a12.86,12.86,0,0,0,8.517-3.289,13.069,13.069,0,0,0,3.937-6.1,12.6,12.6,0,0,0,.01-7.49c-.064-.21-.361-.456-.021-.694A12.072,12.072,0,0,1,72.5,43.546a1.321,1.321,0,0,0-1.011,1.278c-.133,1.42-.325,2.834-.506,4.36-1.16-1.114-2.341-2.081-3.315-3.226a5.032,5.032,0,0,0-4.491-1.834c-3.03.155-6.073.055-9.111.032a1.492,1.492,0,0,0-1.485.852c-.777,1.418-1.611,2.805-2.476,4.3-.64-1.1-1.225-2.121-1.821-3.133-1.385-2.353-.756-1.99-3.507-2.006-3.126-.018-6.252.009-9.377-.015a2.119,2.119,0,0,0-1.643.651c-1.46,1.456-2.962,2.871-4.533,4.383-.181-1.519-.374-2.926-.507-4.338a1.36,1.36,0,0,0-1.051-1.32,10.474,10.474,0,0,1-4.007-2.32c.808.183,1.611.4,2.426.539a13.326,13.326,0,0,0,2.208.235q9.59.027,19.18.005c.269,0,.58.118.8-.169a25.236,25.236,0,0,0,3.667,0" transform="translate(-17.4 -17.945)" fill="#dde8f7"/><path d="M196.936,168.3a4.066,4.066,0,0,1-4.1-3.723c-.109-1.794-.057-1.706,1.483-2.608a3.379,3.379,0,0,1,3.55-.2,8.661,8.661,0,0,0,.914.357c0,.616-.011,1.232,0,1.848a4.853,4.853,0,0,1-1.54,3.844c-.143.134-.306.26-.315.484" transform="translate(-141.772 -118.647)" fill="#f5cbbe"/><path d="M226.844,197.4a4.543,4.543,0,0,0-.529-3.368c-.249-.5-.728-.858-.924-1.4a3.678,3.678,0,0,1,3.7,3.16,12.652,12.652,0,0,1,.058,1.514c0,3.144-.008,6.287.013,9.431,0,.467-.13.584-.585.578-1.331-.017-1.331,0-1.331-1.332,0-2.484-.008-4.968.007-7.453a1.46,1.46,0,0,0-.409-1.132" transform="translate(-165.733 -141.646)" fill="#bbe0a4"/><path d="M198.847,147.73c-.706-.229-1.425-.423-2.112-.7a1.659,1.659,0,0,0-1.5.108c-.747.395-1.517.747-2.332,1.144,0-.693-.031-1.306.007-1.913a1.759,1.759,0,0,1,1.731-1.653c1.182-.03,2.366,0,3.549.01a4.17,4.17,0,0,1,.657,3" transform="translate(-141.836 -106.404)" fill="#f9e3a7"/><path d="M208.413,170.44c.009-.224.172-.35.315-.484a4.853,4.853,0,0,0,1.54-3.844c-.015-.616,0-1.232,0-1.848.353.107.71.205,1.059.324,1.2.408,1.194.411,1.172,1.7a4.08,4.08,0,0,1-4.081,4.153" transform="translate(-153.249 -120.786)" fill="#eabcaf"/><path d="M213.568,147.715a4.17,4.17,0,0,0-.657-3c.329-.009.659-.036.987-.025a1.847,1.847,0,0,1,1.892,1.8c.035.526-.006,1.056.017,1.583.017.39-.162.38-.441.278-.6-.218-1.2-.426-1.8-.638" transform="translate(-156.557 -106.388)" fill="#e8ca86"/><path d="M27.4,161.64c1.186,0,2.373.017,3.558-.01.413-.009.529.122.513.523-.03.768,0,1.537-.012,2.306a4.086,4.086,0,0,1-8.17.074c-.031-.812.013-1.626-.017-2.437-.014-.4.15-.475.5-.47,1.208.016,2.416.006,3.624.006v.007" transform="translate(-17.11 -118.846)" fill="#bc8c88"/><path d="M56.871,197.416a5.456,5.456,0,0,0-1.709-4.822,3.707,3.707,0,0,1,3.949,3.688c.038,3.516.007,7.033.02,10.55,0,.342-.089.441-.439.451-1.49.042-1.49.055-1.49-1.446,0-2.418,0-4.836,0-7.254a1.6,1.6,0,0,0-.333-1.168" transform="translate(-40.561 -141.612)" fill="#8fb9f1"/><path d="M27.355,147.216c-1.187,0-2.374-.015-3.561.008-.4.007-.533-.112-.526-.521a1.874,1.874,0,0,1,1.858-1.981c1.956-.02,3.913.011,5.869,0,.343,0,.469.107.454.454-.022.527-.023,1.056,0,1.582.016.359-.136.446-.467.443-1.209-.014-2.418-.006-3.627-.006v.017" transform="translate(-17.109 -106.411)" fill="#52799a"/><path d="M112.3,168.328a4.06,4.06,0,0,1-4.215-3.892c-.025-.658.008-1.318-.015-1.976-.011-.328.066-.465.429-.451a4.255,4.255,0,0,0,2.084-.513c.178-.089.328-.173.53,0a6.687,6.687,0,0,0,2.907,1.3c0,.349-.025.7,0,1.048a5.111,5.111,0,0,1-1.24,3.8c-.175.213-.46.354-.485.676" transform="translate(-79.468 -118.677)" fill="#f5cbbe"/><path d="M141.62,197.364a4.631,4.631,0,0,0-1.085-4.177c-.166-.2-.342-.393-.514-.59a3.677,3.677,0,0,1,3.917,3.651c.068,3.539.019,7.08.03,10.621,0,.315-.1.4-.411.416-1.527.074-1.526.085-1.526-1.406,0-2.463-.007-4.926.007-7.388a1.384,1.384,0,0,0-.417-1.127" transform="translate(-102.959 -141.615)" fill="#ccb9e4"/><path d="M111.9,144.66c.725,0,1.452-.014,2.177,0a1.841,1.841,0,0,1,1.9,1.92c.007.242,0,.484,0,.725,0,1.246,0,1.237-1.228,1.225a4.255,4.255,0,0,1-3.131-1.311c-.595-.607-.972-.627-1.667-.124a2.9,2.9,0,0,1-1.771.615c-.141,0-.3.044-.38-.16a2.377,2.377,0,0,1,1.21-2.78,5.6,5.6,0,0,1,1.829-.122c.351-.016.7,0,1.055,0v.01" transform="translate(-79.188 -106.355)" fill="#bc8c88"/><path d="M124.058,172.229c.026-.322.311-.463.485-.676a5.111,5.111,0,0,0,1.24-3.8c-.03-.347,0-.7,0-1.048.416.011.833.033,1.25.03,1-.007,1-.011,1,1.022a4.153,4.153,0,0,1-3.444,4.454,3.714,3.714,0,0,1-.522.023" transform="translate(-91.222 -122.577)" fill="#eabcaf"/><path d="M106.381,36.248a25.237,25.237,0,0,1-3.667,0,2.75,2.75,0,0,1-1.985-3.047,7.718,7.718,0,0,0-1.665-5.392,6.85,6.85,0,1,1,11.73-1.378,16.516,16.516,0,0,1-1.495,2.553,4.939,4.939,0,0,0-.921,3.161c.027.35-.011.7.008,1.055a2.847,2.847,0,0,1-2,3.048M104.81,18.861a4.723,4.723,0,0,0-4.889,3.4,5.262,5.262,0,0,0,.733,4.4,25.947,25.947,0,0,1,1.611,2.715c.177.382.093.964.51,1.127a3.8,3.8,0,0,0,1.307.039.989.989,0,0,0,.192-.038c.634.015,1.269.024,1.9.046.243.008.331-.1.387-.33a8.466,8.466,0,0,1,1.257-2.585,11.034,11.034,0,0,0,1.264-2.3c1.1-3.124-1.141-6.524-4.274-6.482m-.224,13.689c-.4,0-.792-.023-1.185.008-.275.022-.685-.2-.712.384-.04.872.124,1.324.668,1.357a20.751,20.751,0,0,0,2.369,0c.549-.031.713-.476.681-1.348-.022-.584-.422-.376-.7-.4-.371-.026-.746-.007-1.119-.007" transform="translate(-71.84 -12.37)" fill="#030303"/><path d="M109.875,36.123a.985.985,0,0,1-.192.038,3.79,3.79,0,0,1-1.306-.039c-.418-.163-.333-.745-.511-1.127a25.887,25.887,0,0,0-1.611-2.715,5.262,5.262,0,0,1-.733-4.4,4.722,4.722,0,0,1,4.889-3.4,12.119,12.119,0,0,1,1.284,1.405,5.944,5.944,0,0,1-.015,6.9,14.823,14.823,0,0,0-1.806,3.338" transform="translate(-77.442 -17.986)" fill="#f9e3a7"/><path d="M122.534,36.169a14.823,14.823,0,0,1,1.806-3.338,5.944,5.944,0,0,0,.015-6.9,12.12,12.12,0,0,0-1.284-1.405c3.134-.042,5.373,3.359,4.274,6.482a11.033,11.033,0,0,1-1.264,2.3,8.459,8.459,0,0,0-1.257,2.585c-.056.234-.144.339-.388.33-.634-.022-1.268-.031-1.9-.046" transform="translate(-90.101 -18.031)" fill="#e8ca86"/><path d="M118.43,76.195c.373,0,.748-.02,1.119.007.28.02.681-.188.7.4.032.872-.132,1.317-.681,1.348a20.752,20.752,0,0,1-2.369,0c-.544-.032-.708-.485-.668-1.357.027-.588.437-.362.712-.384.393-.031.79-.008,1.185-.008" transform="translate(-85.684 -56.015)" fill="#52799a"/></g></g></g></g></svg>