<svg xmlns="http://www.w3.org/2000/svg" xmlns:xlink="http://www.w3.org/1999/xlink" width="105.119" height="105.119" viewBox="0 0 105.119 105.119">
  <defs>
    <clipPath id="clip-path">
      <rect id="Rectángulo_313025" data-name="Rectángulo 313025" width="88.785" height="92.031" fill="none"/>
    </clipPath>
  </defs>
  <g id="Grupo_996301" data-name="Grupo 996301" transform="translate(-184.796 -1136.796)">
    <g id="Grupo_995637" data-name="Grupo 995637" transform="translate(184.796 1136.796)">
      <circle id="Elipse_8159" data-name="Elipse 8159" cx="52.56" cy="52.56" r="52.56" transform="translate(0 0)" fill="#f46464"/>
    </g>
    <g id="Grupo_996345" data-name="Grupo 996345" transform="translate(192.963 1143.34)">
      <g id="Grupo_996345-2" data-name="Grupo 996345" clip-path="url(#clip-path)">
        <path id="Trazado_660602" data-name="Trazado 660602" d="M75.579,56.068c.459-.99.848-1.188,1.844-.938a15.324,15.324,0,0,1,11.2,12.648,15.673,15.673,0,0,1-7.281,15.757,1.251,1.251,0,0,0-.729,1.306c.065,1.854.023,3.711.031,5.567a1.412,1.412,0,0,1-1.1,1.59c-.7.16-1.231-.293-1.525-1.23V85.019a16.591,16.591,0,0,1-4.818.656,17.048,17.048,0,0,1-6.333-1.768c-2.444-1.478-4.707-3.284-5.853-5.973-.842-1.976-2.038-2.308-3.771-2.045-.057.009-.112.024-.169.036-.444-.135-.611.265-.841.5q-4.8,4.862-9.593,9.743c-1.439,1.467-2.864,2.948-4.295,4.422-.317.3-.636.6-.951.9a1.3,1.3,0,0,1-2.111.005c-.316-.3-.634-.6-.951-.9a.64.64,0,0,0-.083-.151q-6.99-7.1-13.98-14.207a1.071,1.071,0,0,0-.836-.355c-3.986.013-7.974-.043-11.959.024a8.8,8.8,0,0,0-8.722,7.963,49.912,49.912,0,0,0-.095,6.9c-.309.944-.834,1.39-1.529,1.232a1.386,1.386,0,0,1-1.1-1.587A66.662,66.662,0,0,1,.157,83.5,11.526,11.526,0,0,1,11.541,73.194c3.9-.03,7.8-.016,11.706.006a1.713,1.713,0,0,0,1.3-.522q2.358-2.252,4.775-4.437a1.467,1.467,0,0,0,.513-1.236c-.028-1.766-.04-3.534.005-5.3a1.041,1.041,0,0,0-.7-1.134A18.569,18.569,0,0,1,18.872,48.225a18.373,18.373,0,0,1-.614-3.8c-.025-.445-.112-.646-.6-.771a8.231,8.231,0,0,1-6.209-8.139c-.016-1.467-.011-2.935,0-4.4a4.223,4.223,0,0,1,2.3-3.922.8.8,0,0,0,.472-.973c-.327-2.792-.606-5.59-.97-8.377C12.038,8.567,19.029.107,28.07.044q12.269-.085,24.539,0c9.08.065,16.068,8.594,14.789,17.9-.379,2.754-.625,5.527-.947,8.289a.815.815,0,0,0,.49.965,4.212,4.212,0,0,1,2.276,3.938,34.456,34.456,0,0,1-.132,5.826,7.986,7.986,0,0,1-6.009,6.68.748.748,0,0,0-.665.808c-.684,7.554-4.373,12.935-10.984,16.17a.875.875,0,0,0-.592.933c.036,1.886.026,3.773.006,5.659a1.124,1.124,0,0,0,.4.924c1.709,1.568,3.4,3.153,5.1,4.728a5.788,5.788,0,0,0,2.666.307c.256-.15.1-.368.079-.553a15.612,15.612,0,0,1,4.626-13.827,14.154,14.154,0,0,1,6.466-3.638c1-.261,1.367-.075,1.857.916-.041,1.15-.239,1.4-1.359,1.731a12.855,12.855,0,0,0-8.915,15.031c1.308,6.782,8.247,11.461,14.558,9.815a1.2,1.2,0,0,0,.257-.007,12.852,12.852,0,0,0,9.246-15.584c-1.091-4.643-5.068-8.624-9.329-9.337l-.451-.225a1.8,1.8,0,0,1-.469-1.428M62.491,40.1a1.737,1.737,0,0,0,.038.874A5.423,5.423,0,0,0,66.6,36c.069-1.641.04-3.288.013-4.931a1.664,1.664,0,0,0-1.566-1.708,7.885,7.885,0,0,0-1.034.025c-.344-.013-.689-.008-1.031-.044-.432-.046-.527.16-.525.569.021,3.394.025,6.787.034,10.181M15.973,29.388a1.673,1.673,0,0,0-1.916,1.86c-.015,1.526-.038,3.053.013,4.578a5.118,5.118,0,0,0,1.892,3.955,4,4,0,0,0,1.412.981c.6.325.871.288.857-.562-.048-2.889-.018-5.779-.018-8.668,0-2.308,0-2.308-2.24-2.142M55,3.08a5.683,5.683,0,0,0-2.123-.341c-8.352-.011-16.706-.068-25.057.013-6.324.062-11.778,5.6-12.012,12.153-.137,3.841.707,7.615,1.037,11.425.014.161.05.32.234.305.819-.067,1.7.294,2.45-.236a17.789,17.789,0,0,0,7.367-10.28c.4-1.563,1.332-1.877,2.527-.848a26.22,26.22,0,0,0,4.71,3.331,12.728,12.728,0,0,0,9.105,1.568A16.807,16.807,0,0,0,51.2,15.355c1.147-1.131,2.179-.828,2.583.759A17.422,17.422,0,0,0,60.87,26.173c.643.752,1.5.392,2.276.484.5.06.677-.1.732-.663.273-2.761.59-5.517.921-8.271A13.286,13.286,0,0,0,62.19,7.643,11.576,11.576,0,0,0,55,3.08M56.9,26.441A22.349,22.349,0,0,1,52.41,20.13c-.224-.5-.37-1.321-.714-1.426-.425-.129-.857.569-1.294.9-3.788,2.845-7.925,4.238-12.623,3.234a20.641,20.641,0,0,1-8.286-4.088c-.412-.318-.565-.312-.766.221a20.519,20.519,0,0,1-7.364,9.4,1.171,1.171,0,0,0-.559,1.084c.021,4.61-.074,9.223.038,13.829.169,6.939,3.452,11.845,9.428,14.88a4.356,4.356,0,0,0,2.078.472c2.831-.031,5.663-.013,8.495-.012.78,0,1.561-.023,2.34.008a1.344,1.344,0,1,1,.007,2.686c-.231.011-.462,0-.693,0-3.12,0-6.241.015-9.362-.014-.571-.005-.732.157-.719.746.038,1.676.018,3.353.009,5.029a.827.827,0,0,0,.364.822c2.408,1.59,4.8,3.2,7.2,4.816a.53.53,0,0,0,.691.005c1.531-1.061,3.072-2.107,4.611-3.157.805-.521,1.594-1.072,2.422-1.55a1.053,1.053,0,0,0,.546-1.082c-.023-2.006-.01-4.012-.009-6.018,0-1.794.043-1.8,1.61-2.517,5.985-2.738,9.528-7.443,9.925-14.242.289-4.953.069-9.938.084-14.908a.813.813,0,0,0-.354-.743c-.885-.666-1.74-1.375-2.606-2.068m-14.6,48.4c1.712,2.03,3.388,4,5.043,6,.294.354.471.369.8.032q2.849-2.945,5.74-5.844c.337-.337.324-.525-.021-.838-1.366-1.242-2.706-2.513-4.06-3.769-.182-.169-.324-.393-.654-.169-2.261,1.535-4.537,3.047-6.846,4.591m-3.984.027a3.748,3.748,0,0,0-.317-.266c-2.127-1.431-4.26-2.854-6.382-4.294a.5.5,0,0,0-.74.084c-1.341,1.272-2.687,2.538-4.059,3.775-.384.346-.366.54-.009.9q2.866,2.865,5.681,5.784c.368.382.547.323.857-.051,1.54-1.86,3.106-3.7,4.662-5.545.095-.112.183-.229.307-.384m.682,3.32c-1.343,1.591-2.544,3.041-3.779,4.458-.343.394-.371.624.029,1,.937.884,1.819,1.829,2.734,2.739a3.837,3.837,0,0,0,1.016.91Zm2.692.033v9.043l.251.2c1.2-1.322,2.384-2.655,3.6-3.96.269-.288.232-.454,0-.726-1.259-1.471-2.5-2.958-3.848-4.558" transform="translate(0 0)" fill="#030303"/>
        <path id="Trazado_660603" data-name="Trazado 660603" d="M7.5,225.608a49.912,49.912,0,0,1,.095-6.9,8.8,8.8,0,0,1,8.722-7.963c3.985-.067,7.973-.011,11.959-.024a1.073,1.073,0,0,1,.837.355q6.985,7.109,13.98,14.207a.653.653,0,0,1,.084.151,4.454,4.454,0,0,1-1.363.179q-17.156-.009-34.312,0m19.323-7.81H24.665c-.058,0-.116,0-.173,0-.909.054-1.419.53-1.428,1.33a1.284,1.284,0,0,0,1.395,1.361q2.377.046,4.756,0a1.345,1.345,0,1,0-.053-2.685c-.778-.026-1.556-.005-2.335-.007" transform="translate(-4.847 -134.842)" fill="#ebf6f8"/>
        <path id="Trazado_660604" data-name="Trazado 660604" d="M191.554,157.152l.451.225c.006.32.234.445.459.59a11.241,11.241,0,0,1,2.726,2.448c.749.945,1.7,1.791,1.827,3.138a4,4,0,0,0-2.207-.256c-1.271-.018-1.709.45-1.716,1.782-.009,1.677.014,3.354-.011,5.03a1.791,1.791,0,0,1-1.6,1.9c-.617.108-.877-.043-.86-.77.047-1.945.016-3.892.016-5.838,0-.21.006-.419,0-.629-.032-.9-.546-1.482-1.294-1.479a1.346,1.346,0,0,0-1.3,1.487c-.021,2.036,0,4.072-.015,6.108,0,.37.2.906-.154,1.081a1.508,1.508,0,0,1-1.407-.221,1.861,1.861,0,0,1-.881-1.733c.008-1.288,0-2.575,0-3.862,0-2.806-.118-2.924-2.837-2.864-.933.021-1.468.453-1.525,1.23a1.271,1.271,0,0,0,1.3,1.447c.387.046.474.175.468.54-.018,1.018.053,2.04-.017,3.053a4.578,4.578,0,0,0,4.54,5.167c.434-.008.536.167.528.58-.021,1.108-.024,2.216,0,3.323a1.375,1.375,0,0,0,1.3,1.5,1.343,1.343,0,0,0,1.291-1.487c.018-1.018.042-2.038-.008-3.053-.031-.643.125-.844.792-.886,2.63-.165,4.248-2.013,4.273-4.768.01-1.108,0-2.216.005-3.323,0-.279-.1-.632.378-.628.928.008,1.337-.567,1.47-1.439a1.357,1.357,0,0,1,.4.77,14.371,14.371,0,0,1,.482,6.97,13.748,13.748,0,0,1-4.7,8.393c-.627.551-1.437.873-1.9,1.626-6.31,1.645-13.25-3.033-14.558-9.815a12.855,12.855,0,0,1,8.915-15.031c1.12-.33,1.317-.581,1.359-1.731l.478.039a12.267,12.267,0,0,0,3.529,1.385" transform="translate(-115.507 -99.657)" fill="#938dc4"/>
        <path id="Trazado_660605" data-name="Trazado 660605" d="M121.862,225.484c1.431-1.474,2.856-2.956,4.295-4.422q4.788-4.88,9.592-9.743c.23-.233.4-.633.841-.5a13.792,13.792,0,0,0,5.321,6.268,9.519,9.519,0,0,0,4.472,1.714,17.048,17.048,0,0,0,6.333,1.768q.007,2.542.015,5.084-14.884,0-29.768.013a5.137,5.137,0,0,1-1.1-.183" transform="translate(-79.517 -134.895)" fill="#ebf6f8"/>
        <path id="Trazado_660606" data-name="Trazado 660606" d="M210.668,241.864q-.008-2.542-.015-5.084a16.59,16.59,0,0,0,4.818-.656v5.75l-4.8-.01" transform="translate(-137.454 -151.106)" fill="#d5ecf0"/>
        <path id="Trazado_660607" data-name="Trazado 660607" d="M212.225,157a12.267,12.267,0,0,1-3.529-1.385,12.626,12.626,0,0,1,3.06-.042,1.8,1.8,0,0,0,.469,1.428" transform="translate(-136.177 -99.507)" fill="#7f79b9"/>
        <path id="Trazado_660608" data-name="Trazado 660608" d="M84.32,102.509c-1.538,1.051-3.079,2.1-4.61,3.157a.529.529,0,0,1-.691-.005c-2.393-1.613-4.788-3.226-7.2-4.816a.827.827,0,0,1-.364-.822c.009-1.676.029-3.353-.009-5.029-.014-.589.148-.752.719-.746,3.12.029,6.241.014,9.362.014.231,0,.463.008.693,0a1.344,1.344,0,1,0-.007-2.686c-.779-.031-1.56-.008-2.34-.008-2.832,0-5.664-.018-8.495.012A4.357,4.357,0,0,1,69.3,91.1c-5.976-3.035-9.259-7.941-9.428-14.88-.112-4.607-.017-9.219-.038-13.829a1.17,1.17,0,0,1,.559-1.084,20.518,20.518,0,0,0,7.364-9.4c.2-.533.354-.539.766-.221a20.645,20.645,0,0,0,8.287,4.088c4.7,1,8.834-.39,12.622-3.234.437-.328.869-1.027,1.294-.9.343.1.489.921.714,1.426a22.335,22.335,0,0,0,4.494,6.311l-.058,4.451c-.157-.283-.305-.572-.474-.848a7.655,7.655,0,0,0-7.318-4.039c-3.356.2-5.681,2.056-7.038,5.235-.229.537-.111,1.358-.578,1.6-.489.251-1.187.035-1.789.088-.577.051-.829-.105-.983-.755a8.059,8.059,0,0,0-6.453-6.09,7.9,7.9,0,0,0-8.177,3.966c-.616,1.1-.525,1.582.442,2.356A7.549,7.549,0,0,0,63.53,69c-.973.656-1.135,1.21-.558,2.235a7.585,7.585,0,0,0,7.382,4.246,7.748,7.748,0,0,0,7.117-5.385c.6-1.528.568-1.476,2.141-1.57.814-.049,1.044.263,1.245,1a7.918,7.918,0,0,0,8.776,5.884,8.163,8.163,0,0,0,6.253-4.829c.058,2.206.052,4.4-.09,6.615a18.185,18.185,0,0,1-2.913,8.941,17.9,17.9,0,0,1-7.213,6.218,2.257,2.257,0,0,0-1.356,2.26c.02,2.631.008,5.263.009,7.894M79.374,82.217a15.619,15.619,0,0,0,5.124-.726A1.361,1.361,0,0,0,85.5,79.785a1.286,1.286,0,0,0-1.735-.856,16.448,16.448,0,0,1-8.728.012c-.936-.237-1.61.092-1.81.854-.214.819.21,1.47,1.181,1.745a17.489,17.489,0,0,0,4.961.675" transform="translate(-39.033 -32.939)" fill="#f8decf"/>
        <path id="Trazado_660609" data-name="Trazado 660609" d="M90.517,30.985a17.421,17.421,0,0,1-7.086-10.059c-.4-1.586-1.436-1.889-2.583-.758a16.809,16.809,0,0,1-7.968,4.816,12.731,12.731,0,0,1-9.105-1.568,26.256,26.256,0,0,1-4.71-3.331c-1.195-1.029-2.126-.715-2.527.848a17.788,17.788,0,0,1-7.367,10.28c-.747.531-1.631.169-2.45.237-.183.015-.22-.144-.234-.3-.329-3.812-1.174-7.585-1.037-11.426.235-6.555,5.688-12.092,12.012-12.153,8.352-.082,16.7-.024,25.057-.013a5.691,5.691,0,0,1,2.123.341c0,.3.247.365.431.5a17.878,17.878,0,0,1,1.86,1.443,14.89,14.89,0,0,1,4.45,13.274c-.345,2.618-.653,5.24-.868,7.873" transform="translate(-29.647 -4.813)" fill="#ebf6f8"/>
        <path id="Trazado_660610" data-name="Trazado 660610" d="M130.311,116.563c0-2.631.011-5.262-.009-7.893a2.258,2.258,0,0,1,1.356-2.26,17.9,17.9,0,0,0,7.213-6.219,18.18,18.18,0,0,0,2.913-8.941c.142-2.209.148-4.408.09-6.615a9.321,9.321,0,0,0,0-6.749q.029-2.226.058-4.451c.866.693,1.721,1.4,2.606,2.068a.813.813,0,0,1,.354.744c-.015,4.971.2,9.955-.085,14.908-.4,6.8-3.94,11.5-9.925,14.241-1.567.718-1.61.723-1.61,2.517,0,2.006-.013,4.012.009,6.018a1.053,1.053,0,0,1-.545,1.082c-.828.478-1.617,1.029-2.423,1.549" transform="translate(-85.024 -46.994)" fill="#f5cdbf"/>
        <path id="Trazado_660611" data-name="Trazado 660611" d="M121.751,199.524c2.309-1.545,4.585-3.057,6.846-4.591.33-.224.472,0,.654.169,1.353,1.256,2.694,2.527,4.06,3.769.344.313.357.5.02.838q-2.892,2.9-5.74,5.844c-.326.338-.5.322-.8-.032-1.655-1.992-3.331-3.966-5.043-6" transform="translate(-79.444 -124.685)" fill="#84d4e1"/>
        <path id="Trazado_660612" data-name="Trazado 660612" d="M88.166,199.6c-.123.154-.212.272-.306.384-1.556,1.847-3.122,3.685-4.663,5.545-.31.374-.489.433-.857.051q-2.812-2.922-5.68-5.784c-.357-.358-.375-.551.009-.9,1.371-1.237,2.718-2.5,4.058-3.775a.5.5,0,0,1,.74-.084c2.122,1.44,4.255,2.862,6.382,4.293a3.822,3.822,0,0,1,.317.267" transform="translate(-49.843 -124.729)" fill="#84d4e1"/>
        <path id="Trazado_660613" data-name="Trazado 660613" d="M224.833,166.484c-.123-1.347-1.078-2.193-1.827-3.138a11.241,11.241,0,0,0-2.726-2.448c-.226-.146-.453-.27-.459-.59,4.26.713,8.237,4.693,9.328,9.337a12.852,12.852,0,0,1-9.246,15.584,1.2,1.2,0,0,1-.257.007c.464-.753,1.274-1.075,1.9-1.626a13.746,13.746,0,0,0,4.7-8.393,14.371,14.371,0,0,0-.481-6.97,1.359,1.359,0,0,0-.4-.77l-.529-.993" transform="translate(-143.322 -102.587)" fill="#7f79b9"/>
        <path id="Trazado_660614" data-name="Trazado 660614" d="M164.143,31.644c.215-2.633.523-5.255.868-7.873A14.89,14.89,0,0,0,160.56,10.5a17.878,17.878,0,0,0-1.86-1.443c-.184-.138-.429-.2-.431-.5a11.576,11.576,0,0,1,7.194,4.564,13.284,13.284,0,0,1,2.609,10.079c-.33,2.754-.648,5.51-.92,8.271-.055.56-.232.723-.732.663-.774-.092-1.634.268-2.276-.484" transform="translate(-103.273 -5.472)" fill="#d6eef2"/>
        <path id="Trazado_660615" data-name="Trazado 660615" d="M45.946,81.508c2.24-.165,2.24-.165,2.24,2.142,0,2.89-.03,5.78.018,8.669.014.85-.262.887-.857.562a4,4,0,0,1-1.412-.981Z" transform="translate(-29.973 -52.12)" fill="#f1ccbe"/>
        <path id="Trazado_660616" data-name="Trazado 660616" d="M181.289,81.555a7.823,7.823,0,0,1,1.034-.024,1.663,1.663,0,0,1,1.566,1.708c.027,1.644.056,3.29-.013,4.931a5.424,5.424,0,0,1-4.071,4.966,1.738,1.738,0,0,1-.038-.874c.171-.007.341,0,.466-.165a6.214,6.214,0,0,0,1.4-3.654c.026-1.635-.012-3.272.016-4.907a4.191,4.191,0,0,0-.361-1.98" transform="translate(-117.277 -52.167)" fill="#f1ccbe"/>
        <path id="Trazado_660617" data-name="Trazado 660617" d="M104.657,217.15v9.108a3.831,3.831,0,0,1-1.016-.91c-.915-.909-1.8-1.855-2.734-2.739-.4-.378-.372-.608-.029-1,1.235-1.417,2.435-2.866,3.779-4.458" transform="translate(-65.652 -138.963)" fill="#938dc4"/>
        <path id="Trazado_660618" data-name="Trazado 660618" d="M174.038,218.647a9.519,9.519,0,0,1-4.472-1.714,13.792,13.792,0,0,1-5.321-6.268c.056-.012.112-.027.169-.036,1.733-.263,2.928.069,3.771,2.045,1.146,2.689,3.41,4.494,5.853,5.973" transform="translate(-107.173 -134.74)" fill="#d5ecf0"/>
        <path id="Trazado_660619" data-name="Trazado 660619" d="M120,217.242c1.347,1.6,2.589,3.087,3.848,4.558.233.272.27.438,0,.726-1.214,1.306-2.4,2.638-3.6,3.96l-.251-.2Z" transform="translate(-78.299 -139.022)" fill="#938dc4"/>
        <path id="Trazado_660620" data-name="Trazado 660620" d="M181.294,81.531a4.191,4.191,0,0,1,.361,1.98c-.028,1.635.01,3.272-.016,4.907a6.214,6.214,0,0,1-1.4,3.654c-.125.167-.295.158-.466.165-.009-3.394-.013-6.787-.034-10.181,0-.409.092-.615.525-.569.342.037.687.031,1.031.044" transform="translate(-117.282 -52.143)" fill="#f8decf"/>
        <path id="Trazado_660621" data-name="Trazado 660621" d="M42.334,81.619l-.011,10.392a5.118,5.118,0,0,1-1.892-3.954c-.051-1.524-.028-3.052-.013-4.578a1.673,1.673,0,0,1,1.916-1.86" transform="translate(-26.361 -52.231)" fill="#f8decf"/>
        <path id="Trazado_660622" data-name="Trazado 660622" d="M56.188,230.385c.778,0,1.557-.02,2.335.006a1.345,1.345,0,1,1,.053,2.685q-2.377.047-4.756,0a1.284,1.284,0,0,1-1.395-1.361c.009-.8.519-1.276,1.428-1.33.057,0,.115,0,.173,0h2.162" transform="translate(-34.208 -147.429)" fill="#070808"/>
        <path id="Trazado_660623" data-name="Trazado 660623" d="M204.916,176.954l.529.993c-.133.871-.542,1.446-1.47,1.439-.475,0-.377.349-.378.628-.007,1.108.005,2.216-.005,3.323-.025,2.755-1.644,4.6-4.273,4.768-.668.042-.824.243-.792.886.049,1.015.026,2.035.008,3.053a1.343,1.343,0,0,1-1.291,1.487,1.375,1.375,0,0,1-1.3-1.5c-.025-1.108-.021-2.216,0-3.323.008-.413-.093-.588-.528-.58a4.577,4.577,0,0,1-4.539-5.167c.071-1.013,0-2.035.017-3.053.007-.365-.081-.495-.468-.54a1.271,1.271,0,0,1-1.3-1.447c.057-.777.592-1.208,1.525-1.23,2.719-.061,2.837.058,2.837,2.864,0,1.287.007,2.575,0,3.862a1.86,1.86,0,0,0,.881,1.733,1.508,1.508,0,0,0,1.407.221c.354-.174.15-.71.153-1.081.016-2.036-.006-4.072.015-6.108a1.345,1.345,0,0,1,1.3-1.487c.748,0,1.262.583,1.294,1.479.008.21,0,.419,0,.629,0,1.946.031,3.893-.016,5.838-.018.727.242.879.859.77a1.791,1.791,0,0,0,1.6-1.9c.025-1.676,0-3.353.011-5.03.007-1.332.445-1.8,1.716-1.782a4,4,0,0,1,2.207.256" transform="translate(-123.405 -113.057)" fill="#020203"/>
        <path id="Trazado_660624" data-name="Trazado 660624" d="M101.173,77.083a9.323,9.323,0,0,1,0,6.75,8.162,8.162,0,0,1-6.252,4.829,7.918,7.918,0,0,1-8.776-5.884c-.2-.74-.431-1.051-1.244-1-1.572.094-1.542.041-2.141,1.57a7.748,7.748,0,0,1-7.117,5.385,7.586,7.586,0,0,1-7.382-4.246c-.577-1.024-.415-1.578.559-2.235.848-.2,1.325.239,1.739.963a5.116,5.116,0,0,0,5.212,2.815A5.411,5.411,0,0,0,80.62,81.1a5.587,5.587,0,0,0-3.63-5.952,5.267,5.267,0,0,0-6.411,2.534,1.537,1.537,0,0,1-1.776.906c-.966-.774-1.057-1.26-.441-2.355a7.9,7.9,0,0,1,8.177-3.966,8.059,8.059,0,0,1,6.453,6.09c.155.65.406.806.983.756.6-.053,1.3.163,1.79-.088.467-.239.349-1.06.578-1.6C87.7,74.251,90.025,72.4,93.381,72.2a7.655,7.655,0,0,1,7.318,4.039c.169.276.316.565.474.848M99.2,80.591a5.407,5.407,0,1,0-5.5,5.484,5.514,5.514,0,0,0,5.5-5.484" transform="translate(-44.326 -46.191)" fill="#040404"/>
        <path id="Trazado_660625" data-name="Trazado 660625" d="M70.037,83.335a1.536,1.536,0,0,0,1.776-.907A5.268,5.268,0,0,1,78.224,79.9a5.588,5.588,0,0,1,3.63,5.952,5.412,5.412,0,0,1-4.846,4.924A5.116,5.116,0,0,1,71.8,87.956c-.414-.724-.892-1.159-1.739-.963a7.553,7.553,0,0,1-.02-3.658" transform="translate(-45.56 -50.935)" fill="#eaf5f7"/>
        <path id="Trazado_660626" data-name="Trazado 660626" d="M104.46,130.882a17.488,17.488,0,0,1-4.961-.675c-.972-.275-1.4-.926-1.181-1.746.2-.762.873-1.091,1.809-.854a16.443,16.443,0,0,0,8.728-.013,1.286,1.286,0,0,1,1.735.856,1.361,1.361,0,0,1-1.006,1.705,15.6,15.6,0,0,1-5.123.726" transform="translate(-64.118 -81.605)" fill="#040404"/>
        <path id="Trazado_660627" data-name="Trazado 660627" d="M137.645,85.335a5.405,5.405,0,1,1-5.332-5.742,5.515,5.515,0,0,1,5.332,5.742" transform="translate(-82.767 -50.934)" fill="#eaf5f7"/>
      </g>
    </g>
  </g>
</svg>
